<svg id="Layer_1" xmlns="http://www.w3.org/2000/svg" viewBox="0 0 201.3 110.2"><style>.st0{fill:none;stroke:url(#SVGID_1_);stroke-width:2.5;stroke-linecap:round;stroke-miterlimit:10;} .st1{fill:none;stroke:url(#SVGID_2_);stroke-width:2.5;stroke-linecap:round;stroke-miterlimit:10;stroke-dasharray:0,4.9391;} .st2{fill:none;stroke:url(#SVGID_3_);stroke-width:2.5;stroke-linecap:round;stroke-miterlimit:10;} .st3{fill:#FFFFFF;} .st4{fill:url(#SVGID_4_);} .st5{fill:url(#SVGID_5_);} .st6{opacity:0.8;fill:none;stroke:#0072FF;stroke-width:1.5;stroke-miterlimit:10;} .st7{opacity:0.3;fill:none;stroke:#0072FF;stroke-width:1.5;stroke-miterlimit:10;} .st8{fill:none;stroke:url(#SVGID_6_);stroke-width:1.5;stroke-miterlimit:10;} .st9{fill:none;stroke:url(#SVGID_7_);stroke-width:1.5;stroke-miterlimit:10;} .st10{fill:none;stroke:url(#SVGID_8_);stroke-width:1.5;stroke-miterlimit:10;} .st11{fill:none;stroke:url(#SVGID_9_);stroke-width:1.5;stroke-miterlimit:10;} .st12{fill:none;stroke:url(#SVGID_10_);stroke-width:1.5;stroke-miterlimit:10;} .st13{fill:none;stroke:url(#SVGID_11_);stroke-width:1.5;stroke-miterlimit:10;} .st14{fill:url(#SVGID_12_);} .st15{fill:none;stroke:url(#SVGID_13_);stroke-width:2.5;stroke-linecap:round;stroke-miterlimit:10;} .st16{fill:none;stroke:url(#SVGID_14_);stroke-width:2.5;stroke-linecap:round;stroke-miterlimit:10;stroke-dasharray:0,4.9391;} .st17{fill:none;stroke:url(#SVGID_15_);stroke-width:2.5;stroke-linecap:round;stroke-miterlimit:10;}</style><linearGradient id="SVGID_1_" gradientUnits="userSpaceOnUse" y1="82.55" x2="196.355" y2="82.55"><stop offset="0" stop-color="#00D688"/><stop offset="1" stop-color="#0080FF"/></linearGradient><path class="st0" d="M1.2 82.5L1.2 82.5"/><linearGradient id="SVGID_2_" gradientUnits="userSpaceOnUse" y1="76.221" x2="196.355" y2="76.221"><stop offset="0" stop-color="#00D688"/><stop offset="1" stop-color="#0080FF"/></linearGradient><path class="st1" d="M4.9,79.6c11.5-4.5,48.9-7.8,93.3-7.8c47.8,0,87.5,3.8,95.5,8.9"/><linearGradient id="SVGID_3_" gradientUnits="userSpaceOnUse" y1="82.55" x2="196.355" y2="82.55"><stop offset="0" stop-color="#00D688"/><stop offset="1" stop-color="#0080FF"/></linearGradient><path class="st2" d="M195.1 82.5L195.1 82.5"/><path class="st3" d="M61.5 42.2L55.1 32.3 25.5 32.3 21 42.2 10 42.2 29 110.2 158.3 110.2 139.3 42.2z"/><linearGradient id="SVGID_4_" gradientUnits="userSpaceOnUse" x1="69.309" y1="71.23" x2="16.731" y2="71.23"><stop offset="0" stop-color="#0072FF"/><stop offset="1" stop-color="#0072FF" stop-opacity=".2"/></linearGradient><path class="st4" d="M61.5 42.2L55.1 32.3 25.5 32.3 21 42.2 10 42.2 29 110.2 158.3 110.2 139.3 42.2z"/><path class="st3" d="M33.4 0H144.4V109.3H33.4z"/><linearGradient id="SVGID_5_" gradientUnits="userSpaceOnUse" x1="33.391" y1="54.669" x2="144.433" y2="54.669"><stop offset="0" stop-color="#0080FF"/><stop offset="1" stop-color="#00D688"/></linearGradient><path class="st5" d="M141.4,3v103.3h-105V3H141.4 M144.4,0h-111v109.3h111V0L144.4,0z"/><path class="st6" d="M54.6 27.7L54.6 57.8"/><path class="st7" d="M113.7 27.7L113.7 108.8"/><linearGradient id="SVGID_6_" gradientUnits="userSpaceOnUse" x1="36.391" y1="27.685" x2="141.433" y2="27.685"><stop offset="0" stop-color="#0080FF"/><stop offset="1" stop-color="#0072FF" stop-opacity=".2"/></linearGradient><path class="st8" d="M141.4 27.7L36.4 27.7"/><linearGradient id="SVGID_7_" gradientUnits="userSpaceOnUse" x1="36.391" y1="37.519" x2="141.433" y2="37.519"><stop offset="0" stop-color="#0080FF"/><stop offset="1" stop-color="#0072FF" stop-opacity=".2"/></linearGradient><path class="st9" d="M141.4 37.5L36.4 37.5"/><linearGradient id="SVGID_8_" gradientUnits="userSpaceOnUse" x1="36.391" y1="58.007" x2="141.433" y2="58.007"><stop offset="0" stop-color="#0080FF"/><stop offset="1" stop-color="#0072FF" stop-opacity=".2"/></linearGradient><path class="st10" d="M141.4 58L36.4 58"/><linearGradient id="SVGID_9_" gradientUnits="userSpaceOnUse" x1="36.391" y1="47.627" x2="141.433" y2="47.627"><stop offset="0" stop-color="#0080FF"/><stop offset="1" stop-color="#0072FF" stop-opacity=".2"/></linearGradient><path class="st11" d="M141.4 47.6L36.4 47.6"/><linearGradient id="SVGID_10_" gradientUnits="userSpaceOnUse" x1="43.225" y1="13.202" x2="75.413" y2="13.202"><stop offset="0" stop-color="#0080FF"/><stop offset="1" stop-color="#0072FF" stop-opacity=".2"/></linearGradient><path class="st12" d="M75.4 13.2L43.2 13.2"/><linearGradient id="SVGID_11_" gradientUnits="userSpaceOnUse" x1="43.225" y1="17.995" x2="75.409" y2="17.995"><stop offset="0" stop-color="#0080FF"/><stop offset="1" stop-color="#0072FF" stop-opacity=".2"/></linearGradient><path class="st13" d="M75.4 18L43.2 18"/><g><path class="st3" d="M123.4 44.4L123.3 36.7 90.4 36.7 82.9 44.4 72 44.4 29 110.2 158.3 110.2 201.3 44.4z"/></g><g><linearGradient id="SVGID_12_" gradientUnits="userSpaceOnUse" x1="38.052" y1="73.413" x2="196.079" y2="73.413"><stop offset="0" stop-color="#0072FF"/><stop offset="1" stop-color="#0072FF" stop-opacity=".2"/></linearGradient><path class="st14" d="M123.4 44.4L123.3 36.7 90.4 36.7 82.9 44.4 72 44.4 29 110.2 158.3 110.2 201.3 44.4z"/></g><g><linearGradient id="SVGID_13_" gradientUnits="userSpaceOnUse" y1="82.55" x2="196.355" y2="82.55"><stop offset="0" stop-color="#00D688"/><stop offset="1" stop-color="#0080FF"/></linearGradient><path class="st15" d="M195.1 82.5L195.1 82.5"/><linearGradient id="SVGID_14_" gradientUnits="userSpaceOnUse" y1="88.879" x2="196.355" y2="88.879"><stop offset="0" stop-color="#00D688"/><stop offset="1" stop-color="#0080FF"/></linearGradient><path class="st16" d="M191.4,85.5c-11.5,4.5-48.9,7.8-93.3,7.8c-47.8,0-87.5-3.8-95.5-8.9"/><linearGradient id="SVGID_15_" gradientUnits="userSpaceOnUse" y1="82.55" x2="196.355" y2="82.55"><stop offset="0" stop-color="#00D688"/><stop offset="1" stop-color="#0080FF"/></linearGradient><path class="st17" d="M1.2 82.5L1.2 82.5"/></g></svg>