<svg id="Layer_1" xmlns="http://www.w3.org/2000/svg" xmlns:xlink="http://www.w3.org/1999/xlink" viewBox="0 0 201.3 138"><style>.st0{fill:none;stroke:#00d688;stroke-width:2;stroke-linecap:round;stroke-miterlimit:10;stroke-dasharray:0,4}.st1{fill:#fff}.st2,.st3{clip-path:url(#SVGID_2_);fill:url(#SVGID_3_)}.st3{fill:url(#SVGID_4_)}.st4,.st5,.st6{fill:none;stroke:#0080ff;stroke-width:3;stroke-linecap:round;stroke-miterlimit:10}.st5,.st6{stroke:url(#SVGID_5_);stroke-width:1.5}.st6{stroke:url(#SVGID_6_)}.st7,.st8{clip-path:url(#SVGID_8_);fill:url(#SVGID_9_)}.st8{fill:url(#SVGID_10_)}.st9{fill:none;stroke:#0080ff;stroke-width:2;stroke-linecap:round;stroke-miterlimit:10}.st10{opacity:.65}.st11,.st12{clip-path:url(#SVGID_12_);fill:url(#SVGID_13_)}.st12{fill:url(#SVGID_14_)}.st13{opacity:.65;fill:none;stroke:#00d688;stroke-width:1.5;stroke-linecap:round;stroke-miterlimit:10}.st14{opacity:.64}.st15,.st16{clip-path:url(#SVGID_16_);fill:url(#SVGID_17_)}.st16{fill:url(#SVGID_18_)}.st17{opacity:.64;fill:none;stroke:#00d688;stroke-width:1.5;stroke-linecap:round;stroke-miterlimit:10}.st18,.st19{clip-path:url(#SVGID_20_);fill:url(#SVGID_21_)}.st19{fill:url(#SVGID_22_)}.st20{fill:#00d688}.st21{fill:#0072ff}</style><path class="st0" d="M3.8 127.1c-8.3-13 27.8-50.8 80.6-84.4S186.8-7.6 195.1 5.4"/><path class="st0" d="M199.1 127.1c8.3-13-27.8-50.8-80.6-84.4S16.2-7.6 7.9 5.4"/><circle class="st1" cx="100.9" cy="66.2" r="43.8"/><defs><circle id="SVGID_1_" cx="100.9" cy="66.2" r="43.8"/></defs><clipPath id="SVGID_2_"><use xlink:href="#SVGID_1_" overflow="visible"/></clipPath><linearGradient id="SVGID_3_" gradientUnits="userSpaceOnUse" x1="68.061" y1="91.325" x2="134.31" y2="91.325"><stop offset="0" stop-color="#007eff"/><stop offset="1" stop-color="#0080ff" stop-opacity=".2"/></linearGradient><path class="st2" d="M100.7 73.3c-11.5 0-26 5.5-32.5 19.4-2.2 4.6 29.9 16.7 29.9 16.7s37.9-10.8 36.2-15.1c-6.2-15.2-21.6-21.1-33.6-21z"/><linearGradient id="SVGID_4_" gradientUnits="userSpaceOnUse" x1="82.672" y1="58.7" x2="119.424" y2="58.7"><stop offset="0" stop-color="#007eff"/><stop offset="1" stop-color="#0080ff" stop-opacity=".2"/></linearGradient><circle class="st3" cx="101" cy="58.7" r="18.4"/><path class="st1" d="M100.9 28.4c20.9 0 37.8 17 37.8 37.8s-17 37.8-37.8 37.8C80 104.1 63 87.1 63 66.2s17-37.8 37.9-37.8m0-6C76.6 22.4 57 42 57 66.2c0 24.2 19.6 43.8 43.8 43.8 24.2 0 43.8-19.6 43.8-43.8.1-24.2-19.5-43.8-43.7-43.8z"/><circle class="st4" cx="100.9" cy="66.2" r="43.8"/><linearGradient id="SVGID_5_" gradientUnits="userSpaceOnUse" x1="-895.314" y1="-1134.695" x2="-570.665" y2="-1134.695" gradientTransform="matrix(.5917 .3765 -.2845 .4471 206.914 861.37)"><stop offset="0" stop-color="#00d688"/><stop offset=".001" stop-color="#00d58a"/><stop offset=".032" stop-color="#00bea9"/><stop offset=".065" stop-color="#00abc4"/><stop offset=".104" stop-color="#009bda"/><stop offset=".149" stop-color="#008feb"/><stop offset=".205" stop-color="#0086f6"/><stop offset=".283" stop-color="#0081fd"/><stop offset=".5" stop-color="#0080ff"/><stop offset=".665" stop-color="#0082fd"/><stop offset=".75" stop-color="#0087f5"/><stop offset=".817" stop-color="#0091e8"/><stop offset=".874" stop-color="#009fd5"/><stop offset=".926" stop-color="#00b0bc"/><stop offset=".972" stop-color="#00c69e"/><stop offset="1" stop-color="#00d688"/></linearGradient><path class="st5" d="M7.9 5.4c-8.3 13 27.8 50.8 80.6 84.4s102.3 50.3 110.6 37.2"/><linearGradient id="SVGID_6_" gradientUnits="userSpaceOnUse" x1="-1933.379" y1="-260.384" x2="-1608.729" y2="-260.384" gradientTransform="matrix(-.5917 .3765 .2845 .4471 -866.988 861.37)"><stop offset="0" stop-color="#00d688"/><stop offset=".007" stop-color="#00d38c"/><stop offset=".071" stop-color="#00baaf"/><stop offset=".139" stop-color="#00a5cc"/><stop offset=".212" stop-color="#0094e3"/><stop offset=".29" stop-color="#0089f3"/><stop offset=".379" stop-color="#0082fc"/><stop offset=".5" stop-color="#0080ff"/><stop offset=".654" stop-color="#0082fd"/><stop offset=".74" stop-color="#0088f5"/><stop offset=".81" stop-color="#0092e7"/><stop offset=".87" stop-color="#00a0d3"/><stop offset=".925" stop-color="#00b2ba"/><stop offset=".975" stop-color="#00c89b"/><stop offset="1" stop-color="#00d688"/></linearGradient><path class="st6" d="M195.1 5.4c8.3 13-27.8 50.8-80.6 84.4S12.1 140.2 3.8 127.1"/><circle class="st1" cx="144.4" cy="120.2" r="16.7"/><defs><circle id="SVGID_7_" cx="144.4" cy="120.2" r="16.7"/></defs><clipPath id="SVGID_8_"><use xlink:href="#SVGID_7_" overflow="visible"/></clipPath><linearGradient id="SVGID_9_" gradientUnits="userSpaceOnUse" x1="133.266" y1="129.822" x2="156.466" y2="129.822"><stop offset="0" stop-color="#007eff"/><stop offset="1" stop-color="#0080ff" stop-opacity=".2"/></linearGradient><path class="st7" d="M144.4 122.9c-3.7 0-8.1 1.5-11 5-1.7 2.1 11.4 8.8 11.4 8.8s12.7-5.4 11.6-7.4c-2.7-4.6-7.9-6.4-12-6.4z"/><linearGradient id="SVGID_10_" gradientUnits="userSpaceOnUse" x1="137.489" y1="117.364" x2="151.527" y2="117.364"><stop offset="0" stop-color="#007eff"/><stop offset="1" stop-color="#0080ff" stop-opacity=".2"/></linearGradient><circle class="st8" cx="144.5" cy="117.4" r="7"/><g><path class="st1" d="M144.4 107.5c7 0 12.7 5.7 12.7 12.7s-5.7 12.7-12.7 12.7-12.7-5.7-12.7-12.7 5.7-12.7 12.7-12.7m0-4c-9.2 0-16.7 7.5-16.7 16.7s7.5 16.7 16.7 16.7 16.7-7.5 16.7-16.7-7.4-16.7-16.7-16.7z"/></g><circle class="st9" cx="144.4" cy="120.2" r="16.7"/><g><circle class="st1" cx="12.4" cy="104.6" r="11.7"/><g class="st10"><defs><circle id="SVGID_11_" class="st10" cx="12.4" cy="104.6" r="11.7"/></defs><clipPath id="SVGID_12_"><use xlink:href="#SVGID_11_" overflow="visible"/></clipPath><linearGradient id="SVGID_13_" gradientUnits="userSpaceOnUse" x1="4.087" y1="111.294" x2="20.758" y2="111.294"><stop offset="0" stop-color="#007eff"/><stop offset="1" stop-color="#0080ff" stop-opacity=".2"/></linearGradient><path class="st11" d="M12.4 106.5c-2.8 0-6.4 1.3-8.3 4.4-.8 1.4 8 5.2 8 5.2s9.4-3.9 8.5-5.3c-1.8-3.1-5.4-4.3-8.2-4.3z"/><linearGradient id="SVGID_14_" gradientUnits="userSpaceOnUse" x1="7.588" y1="102.599" x2="17.384" y2="102.599"><stop offset="0" stop-color="#007eff"/><stop offset="1" stop-color="#0080ff" stop-opacity=".2"/></linearGradient><circle class="st12" cx="12.5" cy="102.6" r="4.9"/></g><path class="st1" d="M12.4 95.9c4.8 0 8.7 3.9 8.7 8.7s-3.9 8.7-8.7 8.7-8.7-3.9-8.7-8.7 3.9-8.7 8.7-8.7m0-3C5.9 92.9.7 98.1.7 104.6s5.2 11.7 11.7 11.7c6.5 0 11.7-5.2 11.7-11.7s-5.2-11.7-11.7-11.7z"/><circle class="st13" cx="12.4" cy="104.6" r="11.7"/></g><g><circle class="st1" cx="142.7" cy="11.7" r="10.1"/><g class="st14"><defs><circle id="SVGID_15_" class="st14" cx="142.7" cy="11.7" r="10.1"/></defs><clipPath id="SVGID_16_"><use xlink:href="#SVGID_15_" overflow="visible"/></clipPath><linearGradient id="SVGID_17_" gradientUnits="userSpaceOnUse" x1="135.969" y1="17.439" x2="150" y2="17.439"><stop offset="0" stop-color="#007eff"/><stop offset="1" stop-color="#0080ff" stop-opacity=".2"/></linearGradient><path class="st15" d="M142.7 13.3c-2.2 0-4.9.9-6.6 3-1 1.3 6.6 5.3 6.6 5.3s7.5-3.9 7.3-4.3c-1.6-2.9-4.8-4-7.3-4z"/><linearGradient id="SVGID_18_" gradientUnits="userSpaceOnUse" x1="138.522" y1="9.917" x2="146.996" y2="9.917"><stop offset="0" stop-color="#007eff"/><stop offset="1" stop-color="#0080ff" stop-opacity=".2"/></linearGradient><circle class="st16" cx="142.8" cy="9.9" r="4.2"/></g><path class="st1" d="M142.7 4.5c3.9 0 7.1 3.2 7.1 7.1s-3.2 7.1-7.1 7.1-7.1-3.2-7.1-7.1 3.2-7.1 7.1-7.1m0-3c-5.6 0-10.1 4.5-10.1 10.1s4.5 10.1 10.1 10.1 10.1-4.5 10.1-10.1-4.5-10.1-10.1-10.1z"/><circle class="st17" cx="142.7" cy="11.7" r="10.1"/></g><g><circle class="st1" cx="23.5" cy="34" r="14.1"/><defs><circle id="SVGID_19_" cx="23.5" cy="34" r="14.1"/></defs><clipPath id="SVGID_20_"><use xlink:href="#SVGID_19_" overflow="visible"/></clipPath><linearGradient id="SVGID_21_" gradientUnits="userSpaceOnUse" x1="13.005" y1="42.055" x2="33.997" y2="42.055"><stop offset="0" stop-color="#007eff"/><stop offset="1" stop-color="#0080ff" stop-opacity=".2"/></linearGradient><path class="st18" d="M23.4 36.2c-3.6 0-8.2 1.7-10.4 6-.8 1.5 11 5.6 11 5.6s10.7-4 10-5.5c-2.2-4.3-6.9-6.1-10.6-6.1z"/><linearGradient id="SVGID_22_" gradientUnits="userSpaceOnUse" x1="17.614" y1="31.549" x2="29.452" y2="31.549"><stop offset="0" stop-color="#007eff"/><stop offset="1" stop-color="#0080ff" stop-opacity=".2"/></linearGradient><circle class="st19" cx="23.5" cy="31.5" r="5.9"/><g><path class="st1" d="M23.5 22.9c6.1 0 11.1 5 11.1 11.1s-5 11.1-11.1 11.1-11.1-5-11.1-11.1 4.9-11.1 11.1-11.1m0-3c-7.8 0-14.1 6.3-14.1 14.1s6.3 14.1 14.1 14.1S37.6 41.8 37.6 34s-6.3-14.1-14.1-14.1z"/></g><circle class="st9" cx="23.5" cy="34" r="14.1"/></g><circle class="st20" cx="163.9" cy="4.3" r="3"/><circle class="st20" cx="8.7" cy="4.5" r="2.6"/><circle class="st21" cx="44.6" cy="125" r="2.6"/><circle class="st20" cx="197.9" cy="128.3" r="2.8"/><circle class="st21" cx="159.1" cy="57.4" r="2.6"/></svg>