<svg id="Layer_1" xmlns="http://www.w3.org/2000/svg" xmlns:xlink="http://www.w3.org/1999/xlink" x="0px" y="0px" viewBox="0 0 204 121.2"><style>.st0{fill:none;stroke:url(#SVGID_1_);stroke-width:2;stroke-miterlimit:10;} .st1{fill:url(#SVGID_2_);} .st2{fill:#FFFFFF;} .st3{fill:none;stroke:url(#SVGID_3_);stroke-width:1.5;stroke-miterlimit:10;} .st4{fill:url(#SVGID_4_);} .st5{fill:#00D688;} .st6{fill:none;stroke:url(#SVGID_5_);stroke-width:1.5;stroke-miterlimit:10;} .st7{fill:url(#SVGID_6_);} .st8{fill:url(#SVGID_7_);} .st9{clip-path:url(#SVGID_9_);fill:url(#SVGID_10_);} .st10{clip-path:url(#SVGID_9_);fill:url(#SVGID_11_);} .st11{fill:none;stroke:#0080FF;stroke-width:2.5;stroke-linecap:round;stroke-miterlimit:10;} .st12{fill:url(#SVGID_12_);} .st13{fill:url(#SVGID_13_);} .st14{fill:none;stroke:url(#SVGID_14_);stroke-width:3;stroke-linecap:round;stroke-miterlimit:10;} .st15{fill:none;stroke:url(#SVGID_15_);stroke-width:3;stroke-linecap:round;stroke-miterlimit:10;stroke-dasharray:0,6.4647;} .st16{fill:none;stroke:url(#SVGID_16_);stroke-width:3;stroke-linecap:round;stroke-miterlimit:10;} .st17{fill:none;stroke:url(#SVGID_17_);stroke-width:3;stroke-linecap:round;stroke-miterlimit:10;stroke-dasharray:0,5.6292;} .st18{fill:none;stroke:url(#SVGID_18_);stroke-width:3;stroke-linecap:round;stroke-miterlimit:10;} .st19{fill:none;stroke:url(#SVGID_19_);stroke-width:3;stroke-linecap:round;stroke-miterlimit:10;stroke-dasharray:0,5.8355;} .st20{fill:none;stroke:url(#SVGID_20_);stroke-width:3;stroke-linecap:round;stroke-miterlimit:10;}</style><linearGradient id="SVGID_1_" gradientUnits="userSpaceOnUse" x1="36.1749" y1="60.5303" x2="203" y2="60.5303"><stop offset="0" stop-color="#00C3A2"/><stop offset="1" stop-color="#0080FF"/></linearGradient><path class="st0" d="M37.2 2H202V119.1H37.2z"/><linearGradient id="SVGID_2_" gradientUnits="userSpaceOnUse" x1="201.475" y1="8.0174" x2="37.8697" y2="8.0174"><stop offset="0" stop-color="#0080FF"/><stop offset="1" stop-color="#0072FF" stop-opacity="0.2"/></linearGradient><path class="st1" d="M37.9 3H201.5V13.1H37.9z"/><path class="st2" d="M2 27.9H52.6V119H2z"/><linearGradient id="SVGID_3_" gradientUnits="userSpaceOnUse" x1="1.25" y1="73.4872" x2="53.3454" y2="73.4872"><stop offset="0" stop-color="#00D688"/><stop offset="1" stop-color="#00BAA9"/></linearGradient><path class="st3" d="M2 27.9H52.6V119H2z"/><linearGradient id="SVGID_4_" gradientUnits="userSpaceOnUse" x1="27.2977" y1="36.4223" x2="27.2977" y2="94.1128"><stop offset="0" stop-color="#0072FF"/><stop offset="1" stop-color="#0072FF" stop-opacity="0.2"/></linearGradient><path class="st4" d="M6.2 36.4H48.400000000000006V93.3H6.2z"/><path class="st2" d="M10.9 60.6H42.3V69H10.9z"/><circle class="st5" cx="17.2" cy="64.8" r="1.7"/><circle class="st5" cx="23.7" cy="64.8" r="1.7"/><circle class="st5" cx="30.2" cy="64.8" r="1.7"/><circle class="st5" cx="36.7" cy="64.8" r="1.7"/><linearGradient id="SVGID_5_" gradientUnits="userSpaceOnUse" x1="99.3382" y1="81.7096" x2="140.6375" y2="81.7096"><stop offset="0" stop-color="#00D688"/><stop offset="1" stop-color="#0080FF"/></linearGradient><path class="st6" d="M100.1 77H139.89999999999998V86.5H100.1z"/><linearGradient id="SVGID_6_" gradientUnits="userSpaceOnUse" x1="22.4114" y1="105.2761" x2="32.1841" y2="105.2761"><stop offset="0" stop-color="#0072FF"/><stop offset="1" stop-color="#0072FF" stop-opacity="0.2"/></linearGradient><circle class="st7" cx="27.3" cy="105.3" r="4.9"/><linearGradient id="SVGID_7_" gradientUnits="userSpaceOnUse" x1="104.8407" y1="81.7097" x2="134.3343" y2="81.7097"><stop offset="0" stop-color="#00D688"/><stop offset="1" stop-color="#0080FF"/></linearGradient><path class="st8" d="M106.6,80c-1,0-1.7,0.8-1.7,1.7c0,1,0.8,1.7,1.7,1.7c1,0,1.7-0.8,1.7-1.7C108.3,80.8,107.5,80,106.6,80z M113.1,80c-1,0-1.7,0.8-1.7,1.7c0,1,0.8,1.7,1.7,1.7c1,0,1.7-0.8,1.7-1.7C114.8,80.8,114,80,113.1,80z M119.6,80 c-1,0-1.7,0.8-1.7,1.7c0,1,0.8,1.7,1.7,1.7c1,0,1.7-0.8,1.7-1.7C121.3,80.8,120.5,80,119.6,80z M126.1,80c-1,0-1.7,0.8-1.7,1.7 c0,1,0.8,1.7,1.7,1.7c1,0,1.7-0.8,1.7-1.7C127.8,80.8,127.1,80,126.1,80z M132.6,80c-1,0-1.7,0.8-1.7,1.7c0,1,0.8,1.7,1.7,1.7 s1.7-0.8,1.7-1.7C134.3,80.8,133.6,80,132.6,80z"/><defs><circle id="SVGID_8_" cx="120.2" cy="47.8" r="19.8"/></defs><clipPath id="SVGID_9_"><use xlink:href="#SVGID_8_" overflow="visible"/></clipPath><linearGradient id="SVGID_10_" gradientUnits="userSpaceOnUse" x1="103.8009" y1="59.1782" x2="136.5041" y2="59.1782"><stop offset="0" stop-color="#007EFF"/><stop offset="1" stop-color="#0080FF" stop-opacity="0.2"/></linearGradient><path class="st9" d="M120.1,51c-6.9,0-16.3,4.4-16.3,16.4l32.7-0.1C136.5,55.3,127,50.9,120.1,51z"/><linearGradient id="SVGID_11_" gradientUnits="userSpaceOnUse" x1="111.925" y1="44.3825" x2="128.5574" y2="44.3825"><stop offset="0" stop-color="#007EFF"/><stop offset="1" stop-color="#0080FF" stop-opacity="0.2"/></linearGradient><circle class="st10" cx="120.2" cy="44.4" r="8.3"/><g><path class="st2" d="M120.2,33c8.2,0,14.8,6.7,14.8,14.8s-6.7,14.8-14.8,14.8s-14.8-6.7-14.8-14.8S112,33,120.2,33 M120.2,28 c-11,0-19.8,8.9-19.8,19.8c0,11,8.9,19.8,19.8,19.8c11,0,19.8-8.9,19.8-19.8C140,36.8,131.1,28,120.2,28L120.2,28z"/></g><circle class="st11" cx="120.2" cy="47.8" r="19.8"/><linearGradient id="SVGID_12_" gradientUnits="userSpaceOnUse" x1="74.035" y1="119.2603" x2="74.035" y2="28.2325"><stop offset="0" stop-color="#005AFF" stop-opacity="0"/><stop offset="1" stop-color="#005AFF" stop-opacity="0.2"/></linearGradient><path class="st12" d="M94.7 121.2L53.4 121.2 53.4 27z"/><g><linearGradient id="SVGID_13_" gradientUnits="userSpaceOnUse" y1="60.5304" x2="204" y2="60.5304"><stop offset="0" stop-color="#00D688"/><stop offset="1" stop-color="#0080FF"/></linearGradient><path class="st13" d="M202,2v117.1H52.6H37.2H2V27.9h35.2V2H202 M204,0h-2H37.2h-2v2v23.9H2H0v2v91.1v2h2h35.2h15.4H202h2v-2V2V0 L204,0z"/></g><g><linearGradient id="SVGID_14_" gradientUnits="userSpaceOnUse" x1="55.9574" y1="81.7096" x2="96.4875" y2="81.7096"><stop offset="0" stop-color="#00D688"/><stop offset="1" stop-color="#0080FF"/></linearGradient><path class="st14" d="M95 81.7L95 81.7"/><linearGradient id="SVGID_15_" gradientUnits="userSpaceOnUse" x1="55.9574" y1="81.7096" x2="96.4875" y2="81.7096"><stop offset="0" stop-color="#00D688"/><stop offset="1" stop-color="#0080FF"/></linearGradient><path class="st15" d="M88.5 81.7L72.4 81.7"/><linearGradient id="SVGID_16_" gradientUnits="userSpaceOnUse" x1="55.9574" y1="81.7096" x2="96.4875" y2="81.7096"><stop offset="0" stop-color="#00D688"/><stop offset="1" stop-color="#0080FF"/></linearGradient><path class="st16" d="M69.1 81.7L69.1 81.7"/><linearGradient id="SVGID_17_" gradientUnits="userSpaceOnUse" x1="55.9574" y1="71.8586" x2="96.4875" y2="71.8586"><stop offset="0" stop-color="#00D688"/><stop offset="1" stop-color="#0080FF"/></linearGradient><path class="st17" d="M69.1 76.1L69.1 67.6"/><linearGradient id="SVGID_18_" gradientUnits="userSpaceOnUse" x1="55.9574" y1="64.8222" x2="96.4875" y2="64.8222"><stop offset="0" stop-color="#00D688"/><stop offset="1" stop-color="#0080FF"/></linearGradient><path class="st18" d="M69.1 64.8L69.1 64.8"/><linearGradient id="SVGID_19_" gradientUnits="userSpaceOnUse" x1="55.9574" y1="64.8222" x2="96.4875" y2="64.8222"><stop offset="0" stop-color="#00D688"/><stop offset="1" stop-color="#0080FF"/></linearGradient><path class="st19" d="M63.3 64.8L60.4 64.8"/><linearGradient id="SVGID_20_" gradientUnits="userSpaceOnUse" x1="55.9574" y1="64.8222" x2="96.4875" y2="64.8222"><stop offset="0" stop-color="#00D688"/><stop offset="1" stop-color="#0080FF"/></linearGradient><path class="st20" d="M57.5 64.8L57.5 64.8"/></g></svg>