<svg id="Layer_1" xmlns="http://www.w3.org/2000/svg" viewBox="0 0 401 346.2"><style>.st0{fill:url(#SVGID_1_);} .st1{fill:none;stroke:#0080FF;stroke-linecap:round;stroke-miterlimit:10;} .st2{fill:none;stroke:#0080FF;stroke-width:2;stroke-linecap:round;stroke-miterlimit:10;} .st3{fill:none;stroke:url(#SVGID_2_);stroke-linecap:round;stroke-miterlimit:10;} .st4{fill:none;stroke:url(#SVGID_3_);stroke-linecap:round;stroke-miterlimit:10;} .st5{opacity:0.5;fill:none;stroke:#0080FF;stroke-linecap:round;stroke-miterlimit:10;enable-background:new ;} .st6{fill:none;stroke:url(#SVGID_4_);stroke-linecap:round;stroke-miterlimit:10;} .st7{fill:#0080FF;} .st8{fill:#00D688;} .st9{fill:none;stroke:url(#SVGID_5_);stroke-linecap:round;stroke-miterlimit:10;} .st10{fill:none;stroke:#BEDCF2;stroke-width:1.6;stroke-linecap:round;stroke-miterlimit:10;} .st11{fill:none;stroke:#3A85BA;stroke-width:1.6;stroke-linecap:round;stroke-miterlimit:10;} .st12{fill:none;stroke:#DFEDF8;stroke-width:1.6;stroke-linecap:round;stroke-miterlimit:10;} .st13{fill:none;stroke:url(#SVGID_6_);stroke-linecap:round;stroke-miterlimit:10;} .st14{fill:none;stroke:url(#SVGID_7_);stroke-linecap:round;stroke-miterlimit:10;} .st15{opacity:0.65;fill:#FFFFFF;enable-background:new ;} .st16{fill:none;stroke:#0080FF;stroke-width:3;stroke-linecap:round;stroke-miterlimit:10;} .st17{fill:#FFFFFF;} .st18{fill:url(#SVGID_8_);} .st19{fill:none;stroke:url(#SVGID_9_);stroke-width:2;stroke-linecap:round;stroke-miterlimit:10;} .st20{fill:none;stroke:url(#SVGID_10_);stroke-width:2;stroke-linecap:round;stroke-miterlimit:10;}</style><radialGradient id="SVGID_1_" cx="183.88" cy="171.1" r="167.173" gradientTransform="translate(0 2)" gradientUnits="userSpaceOnUse"><stop offset="0" stop-color="#0072FF" stop-opacity=".15"/><stop offset="1" stop-color="#0072FF" stop-opacity="0"/></radialGradient><circle class="st0" cx="184.6" cy="173.1" r="173.1"/><path class="st1" d="M155.5 211.9l29.6-15.3"/><path class="st2" d="M82.2 250l73.3-38.1M136.3 163.7l-30.4-21.5"/><path class="st1" d="M206.6 213.5l-71-49.9"/><path class="st2" d="M237.6 235.3l-31-21.8M221.8 147.5l83.7 23.9"/><path class="st1" d="M155.3 128.6l66.3 19"/><path class="st2" d="M105.9 114.3l49.4 14.3"/><linearGradient id="SVGID_2_" gradientUnits="userSpaceOnUse" x1="90.074" y1="161.796" x2="272.645" y2="161.796" gradientTransform="translate(0 2)"><stop offset="0" stop-color="#0072FF" stop-opacity=".6"/><stop offset=".297" stop-color="#0072FF" stop-opacity="0"/><stop offset=".691" stop-color="#0072FF" stop-opacity="0"/><stop offset="1" stop-color="#0072FF" stop-opacity=".6"/></linearGradient><path class="st3" d="M90.9 199.7c-4.5-12.3 32.5-36.9 82.6-54.8s94.2-22.4 98.6-10"/><linearGradient id="SVGID_3_" gradientUnits="userSpaceOnUse" x1="107.041" y1="162.009" x2="255.045" y2="162.009" gradientTransform="translate(0 2)"><stop offset="0" stop-color="#0072FF" stop-opacity=".6"/><stop offset=".297" stop-color="#0072FF" stop-opacity="0"/><stop offset=".691" stop-color="#0072FF" stop-opacity="0"/><stop offset="1" stop-color="#0072FF" stop-opacity=".6"/></linearGradient><path class="st4" d="M107.7 192.3c-3-8.5 27.4-27 68-41.5 40.5-14.4 75.8-19.4 78.8-11"/><path class="st5" d="M82.2 250l-10.1 48.9"/><linearGradient id="SVGID_4_" gradientUnits="userSpaceOnUse" x1="2.545" y1="242.55" x2="82.745" y2="242.55" gradientTransform="translate(0 2)"><stop offset="0" stop-color="#00D688"/><stop offset="1" stop-color="#0080FF"/></linearGradient><path class="st6" d="M3 239.1L82.2 250"/><ellipse transform="rotate(-9 82.157 250.002)" class="st7" cx="82.2" cy="250" rx="3.5" ry="3.5"/><ellipse transform="rotate(-9 72.06 299.103)" class="st7" cx="72.1" cy="299.1" rx="3.5" ry="3.5"/><ellipse transform="rotate(-59 2.995 239.08)" class="st8" cx="3" cy="239.1" rx="3" ry="3"/><linearGradient id="SVGID_5_" gradientUnits="userSpaceOnUse" x1="240.045" y1="236.25" x2="291.145" y2="236.25" gradientTransform="translate(0 2)"><stop offset="0" stop-color="#0080FF"/><stop offset="1" stop-color="#00D688"/></linearGradient><path class="st9" d="M240.5 237.5l50.1 1.5"/><path class="st5" d="M240.5 237.5l23.9 53.7"/><ellipse transform="rotate(-78 290.737 238.913)" class="st8" cx="290.7" cy="238.9" rx="4.1" ry="4.1"/><ellipse transform="rotate(-52 264.448 291.18)" class="st7" cx="264.4" cy="291.2" rx="3.6" ry="3.6"/><ellipse transform="rotate(-54 240.532 237.43)" class="st7" cx="240.5" cy="237.4" rx="3.6" ry="3.6"/><ellipse transform="rotate(-54 106.113 142.006)" class="st7" cx="106.1" cy="142" rx="3.6" ry="3.6"/><ellipse transform="rotate(-63 374.525 130.514)" class="st8" cx="374.5" cy="130.5" rx="2.4" ry="2.4"/><ellipse transform="rotate(-54 109.613 75.598)" class="st8" cx="109.6" cy="75.6" rx="1.5" ry="1.5"/><ellipse transform="rotate(-29 41.275 208.815)" class="st7" cx="41.3" cy="208.8" rx="1.4" ry="1.4"/><ellipse transform="rotate(-4 165.26 264.813)" class="st7" cx="165.3" cy="264.8" rx="1.4" ry="1.4"/><ellipse transform="rotate(-4 138.56 246.015)" class="st7" cx="138.6" cy="246" rx="1.4" ry="1.4"/><ellipse transform="rotate(-29 273.566 255.513)" class="st8" cx="273.6" cy="255.5" rx="2.4" ry="2.4"/><ellipse transform="rotate(-29 18.365 251.515)" class="st8" cx="18.4" cy="251.5" rx="2.4" ry="2.4"/><ellipse transform="rotate(-29 285.942 256.682)" class="st8" cx="286" cy="256.7" rx="1.4" ry="1.4"/><ellipse transform="rotate(-29 305.344 245.498)" class="st8" cx="305.4" cy="245.5" rx="1.4" ry="1.4"/><ellipse transform="rotate(-29 3.154 251.116)" class="st8" cx="3.2" cy="251.1" rx="1.4" ry="1.4"/><ellipse transform="rotate(-29 46.258 262.215)" class="st8" cx="46.3" cy="262.2" rx="1.4" ry="1.4"/><ellipse transform="rotate(-31 13.744 262.31)" class="st8" cx="13.7" cy="262.3" rx="1.4" ry="1.4"/><ellipse transform="rotate(-4 130.462 257.116)" class="st7" cx="130.5" cy="257.1" rx="2.4" ry="2.4"/><ellipse transform="rotate(-29 59.485 207.71)" class="st7" cx="59.5" cy="207.7" rx="2.4" ry="2.4"/><ellipse transform="rotate(-4 175.566 277.316)" class="st7" cx="175.6" cy="277.3" rx="1.7" ry="1.7"/><ellipse transform="rotate(-28 305.97 216.49)" class="st7" cx="306" cy="216.5" rx="2.6" ry="2.6"/><ellipse transform="rotate(-54 309.192 106.164)" class="st7" cx="309.2" cy="106.2" rx="2.6" ry="2.6"/><ellipse transform="rotate(-4 367.373 83.51)" class="st7" cx="367.4" cy="83.5" rx="1.4" ry="1.4"/><ellipse transform="rotate(-4 337.973 101.21)" class="st7" cx="338" cy="101.2" rx="1.4" ry="1.4"/><ellipse transform="rotate(-4 299.77 201.21)" class="st7" cx="299.8" cy="201.2" rx="1.4" ry="1.4"/><ellipse transform="rotate(-4 360.268 98.41)" class="st7" cx="360.3" cy="98.4" rx="2.4" ry="2.4"/><ellipse transform="rotate(-4 295.565 96.405)" class="st7" cx="295.6" cy="96.4" rx="2.4" ry="2.4"/><ellipse transform="rotate(-4 349.97 72.005)" class="st7" cx="350" cy="72" rx="1.7" ry="1.7"/><ellipse transform="rotate(-4 340.767 134.007)" class="st7" cx="340.8" cy="134" rx="1.7" ry="1.7"/><ellipse transform="rotate(-54 22.268 136.652)" class="st7" cx="22.3" cy="136.7" rx="2.6" ry="2.6"/><ellipse transform="rotate(-4 66.957 85.708)" class="st8" cx="67" cy="85.7" rx="1.4" ry="1.4"/><ellipse transform="rotate(-4 15.755 98.91)" class="st7" cx="15.8" cy="98.9" rx="1.4" ry="1.4"/><ellipse transform="rotate(-4 84.66 132.31)" class="st7" cx="84.7" cy="132.3" rx="1.4" ry="1.4"/><ellipse transform="rotate(-4 38.06 96.21)" class="st7" cx="38.1" cy="96.2" rx="2.4" ry="2.4"/><ellipse transform="rotate(-4 65.558 60.31)" class="st8" cx="65.6" cy="60.3" rx="2.4" ry="2.4"/><ellipse transform="rotate(-4 50.06 72.904)" class="st8" cx="50.1" cy="72.9" rx="1.6" ry="1.6"/><ellipse transform="rotate(-4 26.158 111.505)" class="st7" cx="26.2" cy="111.5" rx="1.7" ry="1.7"/><ellipse transform="rotate(-63 263.383 210)" class="st7" cx="263.4" cy="210" rx="1.6" ry="1.6"/><linearGradient id="SVGID_6_" gradientUnits="userSpaceOnUse" x1="95.295" y1="112.1" x2="95.295" y2="66.6" gradientTransform="translate(0 2)"><stop offset="0" stop-color="#0080FF"/><stop offset="1" stop-color="#00D688"/></linearGradient><path class="st13" d="M84.6 69.1l21.3 44.5"/><ellipse transform="rotate(-43 84.527 69.143)" class="st8" cx="84.5" cy="69.1" rx="4" ry="4"/><linearGradient id="SVGID_7_" gradientUnits="userSpaceOnUse" x1="307.645" y1="152.9" x2="397.145" y2="152.9" gradientTransform="translate(0 2)"><stop offset="0" stop-color="#0080FF"/><stop offset="1" stop-color="#00D688"/></linearGradient><path class="st14" d="M308.1 173l88.5-36.2"/><path class="st5" d="M308.1 173l34.3 46.6"/><ellipse transform="rotate(-27 397.846 136.514)" class="st8" cx="397.9" cy="136.5" rx="3.1" ry="3.1"/><ellipse transform="rotate(-1 342.475 219.618)" class="st7" cx="342.5" cy="219.6" rx="3.6" ry="3.6"/><ellipse transform="rotate(-54 106.074 113.723)" class="st7" cx="106.1" cy="113.7" rx="3.6" ry="3.6"/><ellipse transform="rotate(-54 308.367 172.728)" class="st7" cx="308.4" cy="172.7" rx="3.6" ry="3.6"/><path class="st15" d="M136.1 173.8c0-34.7 46.5-71.9 46.5-71.9s46.5 38.2 46.5 71.9c0 25.7-20.8 46.5-46.5 46.5-25.5 0-46.5-20.8-46.5-46.5z"/><path class="st16" d="M136.1 173.8c0-34.7 46.5-71.9 46.5-71.9s46.5 38.2 46.5 71.9c0 25.7-20.8 46.5-46.5 46.5-25.5 0-46.5-20.8-46.5-46.5z"/><path class="st17" d="M182.6 122.1l-3.1 2.5c-1.2 1-30.8 24.8-30.8 48.6 0 18.7 15.1 33.9 33.8 33.9h.1c18.7 0 33.8-15.2 33.8-33.9 0-23-29.4-47.5-30.6-48.6l-3.2-2.5z"/><linearGradient id="SVGID_8_" gradientUnits="userSpaceOnUse" x1="160.129" y1="152.494" x2="209.332" y2="180.901" gradientTransform="translate(0 2)"><stop offset="0" stop-color="#0080FF"/><stop offset="1" stop-color="#0080FF" stop-opacity=".2"/></linearGradient><path class="st18" d="M182.5 201c-15.5 0-28.2-12.7-28.2-28.3 0-20.3 25.7-41.1 26.8-42l1.5-1.1 1.5 1.1c1.1.9 26.8 22.3 26.8 42 0 15.6-12.7 28.3-28.4 28.3z"/><linearGradient id="SVGID_9_" gradientUnits="userSpaceOnUse" x1="89.945" y1="168.704" x2="273.516" y2="168.704" gradientTransform="translate(0 2)"><stop offset="0" stop-color="#0072FF" stop-opacity=".6"/><stop offset=".5" stop-color="#0072FF"/><stop offset="1" stop-color="#0072FF" stop-opacity=".6"/></linearGradient><path class="st19" d="M272.1 134.8c4.5 12.3-32.5 36.9-82.6 54.8s-94.2 22.4-98.6 10"/><linearGradient id="SVGID_10_" gradientUnits="userSpaceOnUse" x1="106.845" y1="167.031" x2="256.063" y2="167.031" gradientTransform="translate(0 2)"><stop offset="0" stop-color="#0072FF" stop-opacity=".6"/><stop offset=".5" stop-color="#0072FF"/><stop offset="1" stop-color="#0072FF" stop-opacity=".6"/></linearGradient><path class="st20" d="M254.8 140.5c3.1 8.8-27.2 27.8-67.8 42.3-40.6 14.6-76.1 19.1-79.2 10.2"/><ellipse transform="rotate(-4 268.466 113.61)" class="st7" cx="268.5" cy="113.6" rx="1.7" ry="1.7"/><ellipse transform="rotate(-29 388.858 124.067)" class="st8" cx="388.9" cy="124.1" rx="1.4" ry="1.4"/><ellipse transform="rotate(-29 389.936 152.68)" class="st8" cx="389.9" cy="152.7" rx="1.4" ry="1.4"/></svg>