<?xml version="1.0" encoding="utf-8"?>
<!-- Generator: Adobe Illustrator 21.1.0, SVG Export Plug-In . SVG Version: 6.00 Build 0)  -->
<svg version="1.1" id="Layer_1" xmlns="http://www.w3.org/2000/svg" xmlns:xlink="http://www.w3.org/1999/xlink" x="0px" y="0px"
   viewBox="0 0 421.4 244.8" style="enable-background:new 0 0 421.4 244.8;" xml:space="preserve">
<style type="text/css">
  .st0{fill:none;stroke:url(#SVGID_1_);stroke-width:1.7477;stroke-linecap:round;stroke-miterlimit:10;stroke-dasharray:0,4.3694;}
  .st1{fill:url(#SVGID_2_);}
  .st2{fill:url(#SVGID_3_);}
  .st3{fill:url(#SVGID_4_);}
  .st4{fill:url(#SVGID_5_);}
  .st5{fill:url(#SVGID_6_);}
  .st6{fill:none;stroke:url(#SVGID_7_);stroke-width:1.7374;stroke-miterlimit:10;}
  .st7{fill:none;stroke:url(#SVGID_8_);stroke-width:1.7477;stroke-linecap:round;stroke-miterlimit:10;stroke-dasharray:0,4.3694;}
  .st8{fill:none;stroke:#0080FF;stroke-width:1.7477;stroke-linecap:round;stroke-miterlimit:10;stroke-dasharray:0,4.3694;}
  .st9{fill:url(#SVGID_9_);}
  .st10{fill:url(#SVGID_10_);}
  .st11{fill:url(#SVGID_11_);}
  .st12{fill:url(#SVGID_12_);}
  .st13{fill:url(#SVGID_13_);}
  .st14{fill:url(#SVGID_14_);}

    .st15{fill:none;stroke:url(#SVGID_15_);stroke-width:1.7477;stroke-linecap:round;stroke-miterlimit:10;stroke-dasharray:0,4.3694;}
  .st16{clip-path:url(#SVGID_17_);}
  .st17{fill:url(#SVGID_18_);}
  .st18{fill:#0080FF;}

    .st19{fill:none;stroke:url(#SVGID_19_);stroke-width:1.7477;stroke-linecap:round;stroke-miterlimit:10;stroke-dasharray:0,4.3694;}
  .st20{fill:url(#SVGID_20_);}
  .st21{clip-path:url(#SVGID_22_);}
  .st22{fill:url(#SVGID_23_);}
  .st23{fill:url(#SVGID_24_);}
  .st24{clip-path:url(#SVGID_22_);fill:#0080FF;}
</style>
<g>
  <g>
    <linearGradient id="SVGID_1_" gradientUnits="userSpaceOnUse" x1="303.5586" y1="162.0191" x2="303.5586" y2="162.0191">
      <stop  offset="0" style="stop-color:#FFFFFF"/>
      <stop  offset="1" style="stop-color:#FFFFFF;stop-opacity:0"/>
    </linearGradient>
    <path class="st0" d="M303.6,162"/>
    <linearGradient id="SVGID_2_" gradientUnits="userSpaceOnUse" x1="295.4973" y1="185.2921" x2="350.0166" y2="185.2921">
      <stop  offset="0" style="stop-color:#005AFF;stop-opacity:0.15"/>
      <stop  offset="0.9594" style="stop-color:#005AFF;stop-opacity:0"/>
    </linearGradient>
    <polygon class="st1" points="350,135.4 350,201.8 295.5,235.1 295.5,169.2    "/>

      <linearGradient id="SVGID_3_" gradientUnits="userSpaceOnUse" x1="6859.8867" y1="138.558" x2="7067.6533" y2="138.558" gradientTransform="matrix(-1 0 0 1 7155.3838 0)">
      <stop  offset="4.055892e-02" style="stop-color:#005AFF;stop-opacity:0"/>
      <stop  offset="1" style="stop-color:#005AFF;stop-opacity:0.15"/>
    </linearGradient>
    <polygon class="st2" points="87.7,42 87.7,108.4 295.5,235.1 295.5,169.4     "/>
    <linearGradient id="SVGID_4_" gradientUnits="userSpaceOnUse" x1="87.7304" y1="88.9432" x2="350.0166" y2="88.9432">
      <stop  offset="4.055892e-02" style="stop-color:#005AFF;stop-opacity:0"/>
      <stop  offset="1" style="stop-color:#005AFF;stop-opacity:0.15"/>
    </linearGradient>
    <polygon class="st3" points="295.5,169.2 350,135.4 142.2,8.7 87.7,42    "/>
    <g>
      <g>

          <linearGradient id="SVGID_5_" gradientUnits="userSpaceOnUse" x1="191.6663" y1="-54.4271" x2="241.7931" y2="-54.4271" gradientTransform="matrix(1 0 0 -1 0 62.8349)">
          <stop  offset="0" style="stop-color:#0072FF"/>
          <stop  offset="1" style="stop-color:#0072FF;stop-opacity:0.2"/>
        </linearGradient>
        <path class="st4" d="M241.8,124.7c0,13.9-11.2,25.1-25.1,25.1c-13.9,0-25.1-11.2-25.1-25.1c0-16.4,25.1-40,25.1-40
          S241.8,109.1,241.8,124.7z"/>
      </g>
    </g>
    <g>
      <g>

          <linearGradient id="SVGID_6_" gradientUnits="userSpaceOnUse" x1="269.7854" y1="-100.7364" x2="319.9122" y2="-100.7364" gradientTransform="matrix(1 0 0 -1 0 62.8349)">
          <stop  offset="0" style="stop-color:#0072FF"/>
          <stop  offset="1" style="stop-color:#0072FF;stop-opacity:0.2"/>
        </linearGradient>
        <path class="st5" d="M320,171c0,13.9-11.2,25.1-25.1,25.1c-13.9,0-25.1-11.2-25.1-25.1c0-16.4,25.1-40,25.1-40
          S320,155.4,320,171z"/>
      </g>
    </g>
    <g>
      <linearGradient id="SVGID_7_" gradientUnits="userSpaceOnUse" x1="80.5834" y1="122.3854" x2="357.1637" y2="122.3854">
        <stop  offset="0" style="stop-color:#00D688"/>
        <stop  offset="1" style="stop-color:#0072FF"/>
      </linearGradient>
      <path class="st6" d="M142.2,1L81.5,38.2v74l214,131.6l60.8-37.1v-74L142.2,1z"/>
    </g>
    <linearGradient id="SVGID_8_" gradientUnits="userSpaceOnUse" x1="4.928" y1="136.3645" x2="89.585" y2="136.3645">
      <stop  offset="0.3909" style="stop-color:#00D688"/>
      <stop  offset="1" style="stop-color:#008AE2"/>
    </linearGradient>
    <line class="st7" x1="5.8" y1="163.6" x2="88.7" y2="109.2"/>
    <g>
      <path class="st8" d="M88.7,109.2c2.6-1.6,4.2-4.5,4.2-7.5s-1.6-5.9-4.2-7.5L52.9,71.1"/>
      <g>
        <linearGradient id="SVGID_9_" gradientUnits="userSpaceOnUse" x1="35.3224" y1="65.7534" x2="52.936" y2="65.7534">
          <stop  offset="0" style="stop-color:#0072FF;stop-opacity:0.6"/>
          <stop  offset="1" style="stop-color:#DCEBFF;stop-opacity:0.9445"/>
        </linearGradient>
        <polygon class="st9" points="39.5,57.8 35.4,60.3 35.3,65.5 48.7,73.7 52.9,71.1 52.9,66        "/>
        <linearGradient id="SVGID_10_" gradientUnits="userSpaceOnUse" x1="35.386" y1="63.2208" x2="52.9359" y2="63.2208">
          <stop  offset="0" style="stop-color:#0072FF;stop-opacity:0.6"/>
          <stop  offset="1" style="stop-color:#FFFFFF"/>
        </linearGradient>
        <polygon class="st10" points="35.4,60.3 48.7,68.6 52.9,66 39.5,57.8         "/>
        <linearGradient id="SVGID_11_" gradientUnits="userSpaceOnUse" x1="35.3223" y1="67.0133" x2="48.747" y2="67.0133">
          <stop  offset="0" style="stop-color:#0072FF;stop-opacity:0.6"/>
          <stop  offset="0.766" style="stop-color:#C4DEFF;stop-opacity:0.9067"/>
        </linearGradient>
        <polygon class="st11" points="48.7,73.7 35.3,65.5 35.4,60.3 48.7,68.6         "/>
      </g>
    </g>
    <g>
      <g>

          <linearGradient id="SVGID_12_" gradientUnits="userSpaceOnUse" x1="4431.0952" y1="133.1208" x2="4448.7085" y2="133.1208" gradientTransform="matrix(-1 0 0 1 4852.4458 0)">
          <stop  offset="0" style="stop-color:#0072FF;stop-opacity:0.7"/>
          <stop  offset="9.629066e-02" style="stop-color:#0675FF;stop-opacity:0.7289"/>
          <stop  offset="0.2205" style="stop-color:#167EFF;stop-opacity:0.7662"/>
          <stop  offset="0.3601" style="stop-color:#308DFF;stop-opacity:0.808"/>
          <stop  offset="0.5109" style="stop-color:#55A1FF;stop-opacity:0.8533"/>
          <stop  offset="0.6706" style="stop-color:#85BCFF;stop-opacity:0.9012"/>
          <stop  offset="0.8354" style="stop-color:#BEDBFF;stop-opacity:0.9506"/>
          <stop  offset="1" style="stop-color:#FFFFFF"/>
        </linearGradient>
        <polygon class="st12" points="417.2,125.2 421.3,127.7 421.4,132.9 407.9,141.1 403.7,138.5 403.7,133.4         "/>

          <linearGradient id="SVGID_13_" gradientUnits="userSpaceOnUse" x1="4431.1587" y1="130.5882" x2="4448.7085" y2="130.5882" gradientTransform="matrix(-1 0 0 1 4852.4458 0)">
          <stop  offset="0" style="stop-color:#0072FF;stop-opacity:0.7"/>
          <stop  offset="9.629066e-02" style="stop-color:#0675FF;stop-opacity:0.7289"/>
          <stop  offset="0.2205" style="stop-color:#167EFF;stop-opacity:0.7662"/>
          <stop  offset="0.3601" style="stop-color:#308DFF;stop-opacity:0.808"/>
          <stop  offset="0.5109" style="stop-color:#55A1FF;stop-opacity:0.8533"/>
          <stop  offset="0.6706" style="stop-color:#85BCFF;stop-opacity:0.9012"/>
          <stop  offset="0.8354" style="stop-color:#BEDBFF;stop-opacity:0.9506"/>
          <stop  offset="1" style="stop-color:#FFFFFF"/>
        </linearGradient>
        <polygon class="st13" points="421.3,127.7 407.9,136 403.7,133.4 417.2,125.2         "/>

          <linearGradient id="SVGID_14_" gradientUnits="userSpaceOnUse" x1="4431.0952" y1="134.3808" x2="4444.5195" y2="134.3808" gradientTransform="matrix(-1 0 0 1 4852.4458 0)">
          <stop  offset="0" style="stop-color:#0072FF;stop-opacity:0.7"/>
          <stop  offset="9.640555e-02" style="stop-color:#0675FF;stop-opacity:0.727"/>
          <stop  offset="0.2207" style="stop-color:#167EFF;stop-opacity:0.7618"/>
          <stop  offset="0.3603" style="stop-color:#308DFF;stop-opacity:0.8009"/>
          <stop  offset="0.5111" style="stop-color:#55A1FF;stop-opacity:0.8431"/>
          <stop  offset="0.6709" style="stop-color:#85BCFF;stop-opacity:0.8879"/>
          <stop  offset="0.8357" style="stop-color:#BEDBFF;stop-opacity:0.934"/>
          <stop  offset="0.8962" style="stop-color:#D5E8FF;stop-opacity:0.9509"/>
        </linearGradient>
        <polygon class="st14" points="407.9,141.1 421.4,132.9 421.3,127.7 407.9,136         "/>
      </g>
      <path class="st8" d="M347.8,186.6c-2.6-1.6-4.2-4.5-4.2-7.5s1.6-5.9,4.2-7.5l55.9-33.1"/>
      <linearGradient id="SVGID_15_" gradientUnits="userSpaceOnUse" x1="349.3987" y1="198.7039" x2="384.5234" y2="198.7039">
        <stop  offset="0" style="stop-color:#008AE2"/>
        <stop  offset="0.6091" style="stop-color:#00D688"/>
      </linearGradient>
      <line class="st15" x1="383.6" y1="209.3" x2="350.3" y2="188.2"/>
    </g>
    <g>
      <defs>
        <polyline id="SVGID_16_" points="349.3,203 349.2,137.3 294.8,171.1        "/>
      </defs>
      <clipPath id="SVGID_17_">
        <use xlink:href="#SVGID_16_"  style="overflow:visible;"/>
      </clipPath>
      <g class="st16">
        <radialGradient id="SVGID_18_" cx="342.7184" cy="179.3134" r="16.126" gradientUnits="userSpaceOnUse">
          <stop  offset="4.055892e-02" style="stop-color:#005AFF;stop-opacity:0"/>
          <stop  offset="1" style="stop-color:#005AFF;stop-opacity:0.2"/>
        </radialGradient>
        <circle class="st17" cx="342.7" cy="179.3" r="16.1"/>
      </g>
      <g class="st16">
        <circle class="st18" cx="343.1" cy="179.3" r="1.4"/>
      </g>
    </g>
  </g>
  <linearGradient id="SVGID_19_" gradientUnits="userSpaceOnUse" x1="0" y1="121.3079" x2="0" y2="121.3079">
    <stop  offset="0" style="stop-color:#FFFFFF"/>
    <stop  offset="1" style="stop-color:#FFFFFF;stop-opacity:0"/>
  </linearGradient>
  <path class="st19" d="M0,121.3"/>
  <g>
    <g>

        <linearGradient id="SVGID_20_" gradientUnits="userSpaceOnUse" x1="116.6014" y1="-9.011" x2="166.7281" y2="-9.011" gradientTransform="matrix(1 0 0 -1 0 62.8349)">
        <stop  offset="0" style="stop-color:#0072FF"/>
        <stop  offset="1" style="stop-color:#0072FF;stop-opacity:0.2"/>
      </linearGradient>
      <path class="st20" d="M166.8,79.3c0,13.9-11.2,25.1-25.1,25.1s-25.1-11.2-25.1-25.1c0-16.4,25.1-40,25.1-40
        S166.8,63.6,166.8,79.3z"/>
    </g>
  </g>
  <g>
    <defs>
      <polygon id="SVGID_21_" points="88,42.4 88,108.8 144.3,142.7 144.3,77.6       "/>
    </defs>
    <clipPath id="SVGID_22_">
      <use xlink:href="#SVGID_21_"  style="overflow:visible;"/>
    </clipPath>
    <g class="st21">
      <radialGradient id="SVGID_23_" cx="93.541" cy="101.3138" r="41.4404" gradientUnits="userSpaceOnUse">
        <stop  offset="4.055892e-02" style="stop-color:#005AFF;stop-opacity:0"/>
        <stop  offset="1" style="stop-color:#005AFF;stop-opacity:0.2"/>
      </radialGradient>
      <circle class="st22" cx="93.5" cy="101.3" r="41.4"/>
    </g>
    <g class="st21">
      <radialGradient id="SVGID_24_" cx="93.541" cy="101.3138" r="18.8962" gradientUnits="userSpaceOnUse">
        <stop  offset="4.055892e-02" style="stop-color:#005AFF;stop-opacity:0"/>
        <stop  offset="1" style="stop-color:#005AFF;stop-opacity:0.2"/>
      </radialGradient>
      <circle class="st23" cx="93.5" cy="101.3" r="18.9"/>
    </g>
    <circle class="st24" cx="93.3" cy="101.7" r="1.4"/>
  </g>
</g>
</svg>
