<svg id="Layer_1" xmlns="http://www.w3.org/2000/svg" viewBox="0 0 380.8 351.7"><style>.st0{fill:none;stroke:url(#SVGID_1_);stroke-width:1.5;stroke-miterlimit:10;} .st1{fill:none;stroke:#0080FF;stroke-width:1.5;stroke-miterlimit:10;} .st2{fill:none;stroke:url(#SVGID_2_);stroke-width:1.5;stroke-miterlimit:10;} .st3{fill:#00D688;stroke:#00D688;stroke-miterlimit:10;} .st4{fill:url(#SVGID_3_);} .st5{fill:none;stroke:#0080FF;stroke-width:2;stroke-miterlimit:10;} .st6{fill:url(#SVGID_4_);} .st7{fill:none;stroke:#0080FF;stroke-miterlimit:10;} .st8{fill:url(#SVGID_5_);} .st9{fill:url(#SVGID_6_);} .st10{fill:none;stroke:url(#SVGID_7_);stroke-width:2;stroke-linecap:round;stroke-miterlimit:10;stroke-dasharray:0,4.5;} .st11{fill:none;stroke:url(#SVGID_8_);stroke-width:2;stroke-linecap:round;stroke-miterlimit:10;stroke-dasharray:0,4.5;} .st12{fill:none;stroke:url(#SVGID_9_);stroke-width:2;stroke-linecap:round;stroke-miterlimit:10;stroke-dasharray:0,4.5;} .st13{fill:none;stroke:url(#SVGID_10_);stroke-width:2;stroke-linecap:round;stroke-miterlimit:10;stroke-dasharray:0,4.5;} .st14{fill:none;stroke:url(#SVGID_11_);stroke-width:2;stroke-linecap:round;stroke-miterlimit:10;stroke-dasharray:0,4.5;} .st15{fill:none;stroke:url(#SVGID_12_);stroke-width:2;stroke-linecap:round;stroke-miterlimit:10;stroke-dasharray:0,4.5;} .st16{fill:none;stroke:url(#SVGID_13_);stroke-width:2;stroke-linecap:round;stroke-miterlimit:10;stroke-dasharray:0,4.5;} .st17{fill:none;stroke:url(#SVGID_14_);stroke-width:2;stroke-linecap:round;stroke-miterlimit:10;stroke-dasharray:0,4.5;} .st18{fill:none;stroke:url(#SVGID_15_);stroke-width:2;stroke-linecap:round;stroke-miterlimit:10;stroke-dasharray:0,4.5;} .st19{fill:none;stroke:url(#SVGID_16_);stroke-width:2;stroke-linecap:round;stroke-miterlimit:10;stroke-dasharray:0,4.5;} .st20{fill:none;stroke:url(#SVGID_17_);stroke-width:2;stroke-linecap:round;stroke-miterlimit:10;stroke-dasharray:0,4.5;} .st21{fill:none;stroke:url(#SVGID_18_);stroke-width:2;stroke-linecap:round;stroke-miterlimit:10;} .st22{fill:none;stroke:url(#SVGID_19_);stroke-width:2;stroke-linecap:round;stroke-miterlimit:10;stroke-dasharray:0,4.5242;} .st23{fill:none;stroke:url(#SVGID_20_);stroke-width:2;stroke-linecap:round;stroke-miterlimit:10;} .st24{fill:none;stroke:url(#SVGID_21_);stroke-width:1.5;stroke-miterlimit:10;} .st25{fill:none;stroke:url(#SVGID_22_);stroke-width:1.5;stroke-miterlimit:10;} .st26{fill:none;stroke:url(#SVGID_23_);stroke-width:1.5;stroke-miterlimit:10;} .st27{fill:url(#SVGID_24_);} .st28{fill:url(#SVGID_25_);} .st29{fill:#FFFFFF;}</style><linearGradient id="SVGID_1_" gradientUnits="userSpaceOnUse" x1="105.456" y1="147.078" x2="105.456" y2="166.6" gradientTransform="matrix(1 0 0 -1 0 417.2)"><stop offset="0" stop-color="#0069FF" stop-opacity="0"/><stop offset="1" stop-color="#0069FF"/></linearGradient><path class="st0" d="M109,250.6v5.4c0,3.9-1.5,7.7-4.2,10.5l-3,3.1"/><path class="st1" d="M14.2,119.2c32.9,23.5,122,66.3,146.4,72.7c9.6,2.5,20,2.1,20,2.1v21.6c0,1.7-1.3,3-3,3h-56.4 c-6.8,0-12.3,5.5-12.3,12.3v19.7"/><linearGradient id="SVGID_2_" gradientUnits="userSpaceOnUse" x1="190.4" y1="337.35" x2="190.4" y2="297.356" gradientTransform="matrix(1 0 0 -1 0 417.2)"><stop offset="0" stop-color="#0069FF" stop-opacity="0"/><stop offset="1" stop-color="#0069FF"/></linearGradient><path class="st2" d="M366.3,119.1c8.4-5.3,13.5-9.3,13.5-11c0-2.5,0.2-6,0.2-6.5c0-13.7-84.7-21-189.5-21 C80.1,80.6,0.8,89.9,0.8,100.2c0,1.6,0,5.7,0,5.7c0,2.5,5.6,7.9,13.3,13.4"/><circle class="st3" cx="190.5" cy="1.9" r="1.4"/><linearGradient id="SVGID_3_" gradientUnits="userSpaceOnUse" x1="118.25" y1="102.6" x2="118.25" y2="140.1" gradientTransform="matrix(1 0 0 -1 0 417.2)"><stop offset="0" stop-color="#0080FF"/><stop offset="1" stop-color="#0069FF" stop-opacity=".2"/></linearGradient><path class="st4" d="M102,299.4c0-12.2,16.3-25.2,16.3-25.2s16.3,13.4,16.3,25.2c0,9-7.3,16.3-16.3,16.3S102,308.4,102,299.4z"/><path class="st5" d="M124,271.5c6.4,6.4,15.9,17.7,15.9,28.1c0,11.9-9.7,21.6-21.6,21.6s-21.6-9.7-21.6-21.6 c0-10.7,9.4-21.8,15.8-28.1"/><linearGradient id="SVGID_4_" gradientUnits="userSpaceOnUse" x1="263.15" y1="135.351" x2="263.15" y2="105.418" gradientTransform="matrix(1 0 0 -1 0 417.2)"><stop offset="0" stop-color="#0069FF" stop-opacity="0"/><stop offset="1" stop-color="#0069FF" stop-opacity=".2"/></linearGradient><path class="st6" d="M248,298.5c0-11.4,15.2-23.6,15.2-23.6s15.2,12.5,15.2,23.6c0,8.4-6.8,15.2-15.2,15.2 C254.8,313.7,248,306.9,248,298.5z"/><path class="st7" d="M243.2,298.6c0-15,20-31,20-31s20,16.5,20,31c0,11.1-9,20-20,20S243.2,309.6,243.2,298.6z"/><linearGradient id="SVGID_5_" gradientUnits="userSpaceOnUse" x1="77.831" y1="72.3" x2="157.341" y2="72.3" gradientTransform="matrix(1 0 0 -1 0 417.2)"><stop offset="0" stop-color="#005AFF" stop-opacity=".2"/><stop offset="1" stop-color="#005AFF" stop-opacity="0"/></linearGradient><ellipse class="st8" cx="117.5" cy="344.9" rx="39.8" ry="6.8"/><linearGradient id="SVGID_6_" gradientUnits="userSpaceOnUse" x1="223.45" y1="72.3" x2="302.96" y2="72.3" gradientTransform="matrix(1 0 0 -1 0 417.2)"><stop offset="0" stop-color="#005AFF" stop-opacity=".2"/><stop offset="1" stop-color="#005AFF" stop-opacity="0"/></linearGradient><ellipse class="st9" cx="263.2" cy="344.9" rx="39.8" ry="6.8"/><linearGradient id="SVGID_7_" gradientUnits="userSpaceOnUse" x1="190.55" y1="227.9" x2="190.55" y2="409.4" gradientTransform="matrix(1 0 0 -1 0 417.2)"><stop offset="0" stop-color="#0080FF"/><stop offset="1" stop-color="#00D688"/></linearGradient><path class="st10" d="M190.5 8.8L190.5 188.3"/><circle class="st3" cx="219.5" cy="19.9" r="1.4"/><linearGradient id="SVGID_8_" gradientUnits="userSpaceOnUse" x1="207.15" y1="235.1" x2="207.15" y2="391.4" gradientTransform="matrix(1 0 0 -1 0 417.2)"><stop offset="0" stop-color="#0080FF"/><stop offset="1" stop-color="#00D688"/></linearGradient><path class="st11" d="M219.5,26.8v144.5c0,3-1.6,5.7-4.1,7.3l0,0c-1.1,0.7-2.4,1.1-3.7,1.2l-17,1.3"/><circle class="st3" cx="241.5" cy="56.6" r="1.4"/><linearGradient id="SVGID_9_" gradientUnits="userSpaceOnUse" x1="232.35" y1="242" x2="232.35" y2="354.7" gradientTransform="matrix(1 0 0 -1 0 417.2)"><stop offset="0" stop-color="#0080FF"/><stop offset="1" stop-color="#00D688"/></linearGradient><path class="st12" d="M241.5,63.5V158c0,4.1-2.3,7.8-5.9,9.7l-12.5,6.5"/><circle class="st3" cx="280.2" cy="29.8" r="1.4"/><linearGradient id="SVGID_10_" gradientUnits="userSpaceOnUse" x1="262.65" y1="253" x2="262.65" y2="381.5" gradientTransform="matrix(1 0 0 -1 0 417.2)"><stop offset="0" stop-color="#0080FF"/><stop offset="1" stop-color="#00D688"/></linearGradient><path class="st13" d="M280.2,36.7v97.9c0,6.9-3.9,13.2-10.1,16.3l-25.1,12.3"/><circle class="st3" cx="296.2" cy="51" r="1.4"/><linearGradient id="SVGID_11_" gradientUnits="userSpaceOnUse" x1="289" y1="270.1" x2="289" y2="360.2" gradientTransform="matrix(1 0 0 -1 0 417.2)"><stop offset="0" stop-color="#0080FF"/><stop offset="1" stop-color="#00D688"/></linearGradient><path class="st14" d="M296.2,57.9v73.8c0,3.6-1.9,7-5.1,8.8l-9.4,5.5"/><circle class="st3" cx="323.5" cy="68" r="1.4"/><linearGradient id="SVGID_12_" gradientUnits="userSpaceOnUse" x1="312.1" y1="281.1" x2="312.1" y2="343.267" gradientTransform="matrix(1 0 0 -1 0 417.2)"><stop offset="0" stop-color="#0080FF"/><stop offset="1" stop-color="#00D688"/></linearGradient><path class="st15" d="M323.5,74.9v40.7c0,4.9-2.7,9.3-7.1,11.5l-15.8,7.9"/><circle class="st3" cx="174" cy="52.6" r="1.4"/><linearGradient id="SVGID_13_" gradientUnits="userSpaceOnUse" x1="179.15" y1="235.6" x2="179.15" y2="358.7" gradientTransform="matrix(1 0 0 -1 0 417.2)"><stop offset="0" stop-color="#0080FF"/><stop offset="1" stop-color="#00D688"/></linearGradient><path class="st16" d="M174,59.5v113.6c0,4.1,3.3,7.5,7.5,7.5h2.9"/><circle class="st3" cx="141" cy="24.6" r="1.4"/><linearGradient id="SVGID_14_" gradientUnits="userSpaceOnUse" x1="155.1" y1="237.6" x2="155.1" y2="386.7" gradientTransform="matrix(1 0 0 -1 0 417.2)"><stop offset="0" stop-color="#0080FF"/><stop offset="1" stop-color="#00D688"/></linearGradient><path class="st17" d="M141,31.5v128.7c0,5.6,3.6,10.5,8.9,12.2l19.4,6.2"/><circle class="st3" cx="112.2" cy="41.9" r="1.4"/><linearGradient id="SVGID_15_" gradientUnits="userSpaceOnUse" x1="124.25" y1="248.6" x2="124.25" y2="369.4" gradientTransform="matrix(1 0 0 -1 0 417.2)"><stop offset="0" stop-color="#0080FF"/><stop offset="1" stop-color="#00D688"/></linearGradient><path class="st18" d="M112.2,48.8v98.5c0,5.1,2.9,9.7,7.4,12l16.6,8.3"/><circle class="st3" cx="78.2" cy="63.9" r="1.4"/><linearGradient id="SVGID_16_" gradientUnits="userSpaceOnUse" x1="93.25" y1="262.6" x2="93.25" y2="347.3" gradientTransform="matrix(1 0 0 -1 0 417.2)"><stop offset="0" stop-color="#0080FF"/><stop offset="1" stop-color="#00D688"/></linearGradient><path class="st19" d="M78.2,70.8v57.4c0,6.6,3.8,12.7,9.8,15.5l20.2,9.8"/><circle class="st3" cx="63" cy="70.7" r="1.4"/><linearGradient id="SVGID_17_" gradientUnits="userSpaceOnUse" x1="68.9" y1="279.6" x2="68.9" y2="340.6" gradientTransform="matrix(1 0 0 -1 0 417.2)"><stop offset="0" stop-color="#0080FF"/><stop offset="1" stop-color="#00D688"/></linearGradient><path class="st20" d="M63,77.6v45.5c0,4,2.1,7.7,5.6,9.8l6.3,3.7"/><linearGradient id="SVGID_18_" gradientUnits="userSpaceOnUse" x1="117.583" y1="225.7" x2="191.4" y2="225.7" gradientTransform="matrix(1 0 0 -1 0 417.2)"><stop offset="0" stop-color="#0080FF"/><stop offset="1" stop-color="#00D688"/></linearGradient><path class="st21" d="M190.5 191.5L190.5 191.5"/><linearGradient id="SVGID_19_" gradientUnits="userSpaceOnUse" x1="117.65" y1="164.7" x2="191.45" y2="164.7" gradientTransform="matrix(1 0 0 -1 0 417.2)"><stop offset="0" stop-color="#0080FF"/><stop offset="1" stop-color="#00D688"/></linearGradient><path class="st22" d="M190.5,196v24c0,4.6-3.8,8.4-8.4,8.4h-57.6c-3.2,0-5.8,2.6-5.8,5.8V309"/><linearGradient id="SVGID_20_" gradientUnits="userSpaceOnUse" x1="117.584" y1="105.9" x2="191.401" y2="105.9" gradientTransform="matrix(1 0 0 -1 0 417.2)"><stop offset="0" stop-color="#0080FF"/><stop offset="1" stop-color="#00D688"/></linearGradient><path class="st23" d="M118.5 311.3L118.5 311.3"/><linearGradient id="SVGID_21_" gradientUnits="userSpaceOnUse" x1="131.664" y1="146.875" x2="131.664" y2="165.6" gradientTransform="matrix(1 0 0 -1 0 417.2)"><stop offset="0" stop-color="#0069FF" stop-opacity="0"/><stop offset="1" stop-color="#0069FF"/></linearGradient><path class="st24" d="M128.5,251.6v5c0,3.5,1.2,7,3.5,9.7l2.9,3.5"/><linearGradient id="SVGID_22_" gradientUnits="userSpaceOnUse" x1="248.119" y1="158.236" x2="215.92" y2="190.436" gradientTransform="matrix(1 0 0 -1 0 417.2)"><stop offset="0" stop-color="#0069FF" stop-opacity="0"/><stop offset="1" stop-color="#0069FF"/></linearGradient><path class="st25" d="M204.5,238.9h23H243h7.4c1.2,0,2.2,1,2.2,2.2v12.5"/><path class="st1" d="M128.5 251.6v-10.4c0-1.2 1-2.2 2.2-2.2h73.7M203.8 218.6c-1.7 0-3-1.3-3-3V194c0 0 9.5 0 18-1.9 15.6-3.5 111.9-50.5 147.6-73"/><linearGradient id="SVGID_23_" gradientUnits="userSpaceOnUse" x1="210.912" y1="211.756" x2="278.48" y2="172.746" gradientTransform="matrix(1 0 0 -1 0 417.2)"><stop offset="0" stop-color="#0069FF"/><stop offset="1" stop-color="#0069FF" stop-opacity="0"/></linearGradient><path class="st26" d="M272.5,253.6v-22.7c0-5.1-3.6-8.7-3.6-8.7c-2.2-2.2-5.3-3.6-8.7-3.6h-56.4"/><linearGradient id="SVGID_24_" gradientUnits="userSpaceOnUse" x1="8.95" y1="269.413" x2="372.35" y2="269.413" gradientTransform="matrix(1 0 0 -1 0 417.2)"><stop offset="0" stop-color="#0069FF" stop-opacity=".7"/><stop offset="1" stop-color="#0069FF" stop-opacity="0"/></linearGradient><path class="st27" d="M9,106.6c10.9,9.2,81.3,15.4,181.7,15.4s166.4-7.8,181.7-15.4c0,8.3-137.7,76.8-156.4,80.3 c-14.1,2.7-39,2.9-52.5-0.2C132.4,179.8,9,115.6,9,106.6z"/><linearGradient id="SVGID_25_" gradientUnits="userSpaceOnUse" x1="8.95" y1="314.3" x2="372.35" y2="314.3" gradientTransform="matrix(1 0 0 -1 0 417.2)"><stop offset="0" stop-color="#0069FF" stop-opacity="0"/><stop offset="1" stop-color="#0069FF" stop-opacity=".3"/></linearGradient><path class="st28" d="M10.4,106.6c9.6,5.9,80,12.6,180.3,12.6s164.4-2.4,180.6-12.6l1.1-4.6c0-8.5-81.3-15.4-181.7-15.4 S8.9,93.5,8.9,102L10.4,106.6z"/><path class="st29" d="M9,106.6c0,8.5,81.3,15.4,181.7,15.4s181.7-6.9,181.7-15.4V102c0,8.5-81.3,15.4-181.7,15.4S9,110.5,9,102 V106.6z"/></svg>