<svg id="Layer_1" xmlns="http://www.w3.org/2000/svg" viewBox="0 0 2000 500"><style>.st0{opacity:0.6;fill:url(#SVGID_1_);enable-background:new ;} .st1{opacity:0.6;fill:url(#SVGID_2_);enable-background:new ;} .st2{opacity:0.6;fill:url(#SVGID_3_);enable-background:new ;} .st3{fill:#FFFFFF;} .st4{fill:#FFFFFF;stroke:#FFFFFF;stroke-width:0.5;stroke-miterlimit:10;} .st5{fill:none;stroke:#FFFFFF;stroke-linecap:round;stroke-miterlimit:10;stroke-dasharray:0,3;} .st6{fill:none;stroke:#FFFFFF;stroke-width:0.5;stroke-linecap:round;stroke-miterlimit:10;} .st7{fill:none;stroke:url(#SVGID_4_);stroke-width:0.5;stroke-linecap:round;stroke-miterlimit:10;} .st8{fill:none;stroke:url(#SVGID_5_);stroke-width:0.5;stroke-linecap:round;stroke-miterlimit:10;} .st9{fill:none;stroke:url(#SVGID_6_);stroke-width:0.5;stroke-linecap:round;stroke-miterlimit:10;} .st10{fill:none;stroke:url(#SVGID_7_);stroke-width:0.5;stroke-linecap:round;stroke-miterlimit:10;} .st11{fill:none;stroke:url(#SVGID_8_);stroke-width:0.5;stroke-linecap:round;stroke-miterlimit:10;} .st12{fill:none;stroke:url(#SVGID_9_);stroke-width:0.5;stroke-linecap:round;stroke-miterlimit:10;} .st13{fill:none;stroke:url(#SVGID_10_);stroke-width:0.5;stroke-linecap:round;stroke-miterlimit:10;} .st14{fill:none;stroke:url(#SVGID_11_);stroke-width:0.5;stroke-linecap:round;stroke-miterlimit:10;} .st15{fill:#0080FF;} .st16{opacity:0.3;fill:none;stroke:#FFFFFF;stroke-width:0.75;stroke-miterlimit:10;enable-background:new ;} .st17{opacity:0.5;fill:none;stroke:#FFFFFF;stroke-width:0.75;stroke-miterlimit:10;enable-background:new ;} .st18{opacity:0.2;fill:none;stroke:#FFFFFF;stroke-width:0.75;stroke-miterlimit:10;enable-background:new ;} .st19{opacity:0.65;fill:none;stroke:#FFFFFF;stroke-width:0.75;stroke-miterlimit:10;} .st20{opacity:0.45;fill:none;stroke:#FFFFFF;stroke-width:0.75;stroke-miterlimit:10;} .st21{fill:none;stroke:#FFFFFF;stroke-width:0.75;stroke-miterlimit:10;} .st22{fill:#0080FF;stroke:#FFFFFF;stroke-width:0.75;stroke-miterlimit:10;} .st23{fill:none;stroke:url(#SVGID_12_);stroke-width:0.5;stroke-linecap:round;stroke-miterlimit:10;} .st24{fill:none;stroke:url(#SVGID_13_);stroke-width:0.5;stroke-linecap:round;stroke-miterlimit:10;} .st25{fill:none;stroke:url(#SVGID_14_);stroke-width:0.5;stroke-linecap:round;stroke-miterlimit:10;} .st26{fill:none;stroke:url(#SVGID_15_);stroke-width:0.5;stroke-linecap:round;stroke-miterlimit:10;} .st27{fill:none;stroke:url(#SVGID_16_);stroke-width:0.5;stroke-linecap:round;stroke-miterlimit:10;} .st28{fill:none;stroke:url(#SVGID_17_);stroke-width:0.5;stroke-linecap:round;stroke-miterlimit:10;} .st29{fill:none;stroke:url(#SVGID_18_);stroke-width:0.5;stroke-linecap:round;stroke-miterlimit:10;} .st30{fill:none;stroke:url(#SVGID_19_);stroke-width:0.5;stroke-linecap:round;stroke-miterlimit:10;} .st31{fill:none;stroke:url(#SVGID_20_);stroke-width:0.5;stroke-linecap:round;stroke-miterlimit:10;} .st32{fill:none;stroke:url(#SVGID_21_);stroke-width:0.5;stroke-linecap:round;stroke-miterlimit:10;} .st33{fill:none;stroke:url(#SVGID_22_);stroke-width:0.5;stroke-linecap:round;stroke-miterlimit:10;}</style><g id="Green_Glow_1_"><radialGradient id="SVGID_1_" cx="470.105" cy="294.065" r="213.084" gradientUnits="userSpaceOnUse"><stop offset="0" stop-color="#FFF" stop-opacity=".4"/><stop offset="1" stop-color="#FFF" stop-opacity="0"/></radialGradient><path class="st0" d="M573.3 321l35.3 5.9 19.1 46.8 43.9 12.8 184.3-27.1L790 9.9 427.5-59.2 325.1 142.2l75.3 13.6 25.7 65.1 104.1 36.9 1.4 25.5z"/><radialGradient id="SVGID_2_" cx="1031.637" cy="482.267" r="247.492" gradientUnits="userSpaceOnUse"><stop offset="0" stop-color="#FFF" stop-opacity=".4"/><stop offset="1" stop-color="#FFF" stop-opacity="0"/></radialGradient><path class="st1" d="M1016.2 445.8l113.9-12.5 22.4 14.9 38.4-20.1 40.7 13.7 43.9-56.7-6.9-191-412.7-38.6-76.2 266.2L905 450.9l84.1-17.4z"/><radialGradient id="SVGID_3_" cx="1454.616" cy="296.276" r="155.913" gradientUnits="userSpaceOnUse"><stop offset="0" stop-color="#FFF" stop-opacity=".4"/><stop offset="1" stop-color="#FFF" stop-opacity="0"/></radialGradient><path class="st2" d="M1320.8 353.2l48.2-19.1 7.1-28 40.2-16.5 12.3-35.8 79.8-12.7 38.2-64.6-85-98.1-358.3 81.1 217.5 192.2"/></g><ellipse transform="rotate(-14.895 719.953 406.138)" class="st3" cx="719.9" cy="406.2" rx="1" ry="1"/><ellipse transform="rotate(-14.895 565.602 462.006)" class="st4" cx="565.6" cy="462" rx="1" ry="1"/><ellipse transform="rotate(-14.895 568.733 392.752)" class="st4" cx="568.7" cy="392.8" rx="1" ry="1"/><ellipse transform="rotate(-14.895 563.596 261.654)" class="st4" cx="563.6" cy="261.7" rx="1" ry="1"/><ellipse transform="rotate(-14.895 376.93 351.723)" class="st4" cx="376.9" cy="351.7" rx="1" ry="1"/><ellipse transform="rotate(-14.895 338.9 193.553)" class="st4" cx="338.9" cy="193.6" rx="1" ry="1"/><ellipse transform="rotate(-14.895 312.524 437.226)" class="st3" cx="312.5" cy="437.2" rx="1" ry="1"/><ellipse transform="rotate(-14.895 294.457 453.47)" class="st4" cx="294.4" cy="453.5" rx="1" ry="1"/><ellipse transform="rotate(-14.895 754.267 418.106)" class="st3" cx="754.2" cy="418.2" rx="1" ry="1"/><ellipse transform="rotate(-14.895 1372.244 287.315)" class="st4" cx="1372.2" cy="287.4" rx="1" ry="1"/><ellipse transform="rotate(-33.478 741.908 419.977)" class="st4" cx="741.9" cy="420" rx=".9" ry=".9"/><ellipse transform="rotate(-14.895 680.223 378.78)" class="st4" cx="680.2" cy="378.8" rx="1" ry="1"/><ellipse transform="rotate(-14.895 836.802 415.48)" class="st3" cx="836.8" cy="415.5" rx="1" ry="1"/><ellipse transform="rotate(-14.895 847.313 414.484)" class="st4" cx="847.3" cy="414.5" rx="1" ry="1"/><ellipse transform="rotate(-14.895 879.92 416.53)" class="st3" cx="879.9" cy="416.6" rx=".8" ry=".8"/><ellipse transform="rotate(-14.895 724.415 414.272)" class="st3" cx="724.4" cy="414.3" rx=".8" ry=".8"/><ellipse transform="rotate(-14.895 867.582 426.82)" class="st3" cx="867.6" cy="426.9" rx="1" ry="1"/><ellipse transform="rotate(-14.895 1056.476 409.026)" class="st4" cx="1056.5" cy="409.1" rx="1" ry="1"/><ellipse transform="rotate(-14.895 1090.163 415.123)" class="st3" cx="1090.1" cy="415.2" rx="1" ry="1"/><ellipse transform="rotate(-14.895 1066.74 463.46)" class="st4" cx="1066.7" cy="463.5" rx="1" ry="1"/><ellipse transform="rotate(-14.895 1118.206 402.64)" class="st4" cx="1118.2" cy="402.7" rx="1" ry="1"/><ellipse transform="rotate(-14.895 1124.76 409.592)" class="st3" cx="1124.7" cy="409.7" rx="1" ry="1"/><ellipse transform="rotate(-14.895 1302.944 470.115)" class="st4" cx="1302.9" cy="470.2" rx="1" ry="1"/><ellipse transform="rotate(-14.895 1384.447 374.922)" class="st4" cx="1384.4" cy="375" rx="1" ry="1"/><ellipse transform="rotate(-14.895 1359.134 284.466)" class="st3" cx="1359.1" cy="284.5" rx="1" ry="1"/><ellipse transform="rotate(-14.895 1490.115 229.17)" class="st4" cx="1490.1" cy="229.3" rx="1" ry="1"/><ellipse transform="rotate(-14.895 1501.4 216.8)" class="st3" cx="1501.4" cy="216.9" rx="1" ry="1"/><ellipse transform="rotate(-14.895 1509.264 175.59)" class="st4" cx="1509.3" cy="175.7" rx="1" ry="1"/><ellipse transform="rotate(-14.895 1563.735 139.347)" class="st3" cx="1563.7" cy="139.4" rx="1" ry="1"/><ellipse transform="rotate(-14.895 1554.532 367.674)" class="st4" cx="1554.5" cy="367.8" rx="1" ry="1"/><ellipse transform="rotate(-14.895 1656.442 296.248)" class="st4" cx="1656.4" cy="296.3" rx="1" ry="1"/><ellipse transform="rotate(-14.895 1471.605 478.257)" class="st4" cx="1471.6" cy="478.3" rx="1" ry="1"/><ellipse transform="rotate(-14.895 421.497 167.213)" class="st4" cx="421.5" cy="167.2" rx="1" ry="1"/><ellipse transform="rotate(-14.895 415.34 157.238)" class="st3" cx="415.3" cy="157.3" rx="1" ry="1"/><ellipse transform="rotate(-14.895 380.95 127.8)" class="st3" cx="380.9" cy="127.8" rx="1" ry="1"/><ellipse transform="rotate(-14.895 390.258 121.9)" class="st4" cx="390.3" cy="121.9" rx="1" ry="1"/><ellipse transform="rotate(-14.895 373.272 103.775)" class="st3" cx="373.3" cy="103.8" rx="1" ry="1"/><ellipse transform="rotate(-14.895 412.49 136.15)" class="st4" cx="412.5" cy="136.2" rx="1" ry="1"/><ellipse transform="rotate(-14.895 515.43 218.337)" class="st4" cx="515.4" cy="218.4" rx="1" ry="1"/><g id="Dotted_Green_Line_1_"><path class="st5" d="M1159.6 445l29.8-16.9"/><path class="st6" d="M1064.6 478.1l87.9-29.7"/><path class="st5" d="M1376.1 306.1l40.2-16.5M1369 334.1l7.1-28M1320.8 353.2l48.2-19.1M1313.4 377.4l7.4-24.2M1189.4 428.1l42.2 13.7M608.6 326.9l-35.3-5.9M426.1 220.9l-27.4-65.1M573.3 321l-41.8-36.2"/><path class="st6" d="M578.7 364.9l28.5 79.5M608.6 326.9l-29.9 36.6M607.2 444.4l100.9 13.8M708.1 458.2l52.4-19.8M760.5 438.4l59.1 30.4M819.6 468.8l86.5-18.4M906.1 450.4l78.1 25.8M984.2 476.2l32-30.4M1016.2 445.8l48.4 32.3M1231.6 441.8l100-6.8M1313.4 377.4l18.2 57.6M1509.8 241.1l-36.1 42.5M1416.3 289.6l57.4-6M1509.8 241.1l73.4 48.5M1583.2 289.6l31.9-89.8M1615.1 199.8l88.9-41M531.5 284.8L424.2 281M426.1 220.9l-1.9 60.1M398.7 155.8l-124.2 15.5M247.1 101.6l27.4 69.7"/></g><g id="Connector_Lines_1_"><path class="st5" d="M1130.1 433.3l16.5 10.2"/><path class="st6" d="M1152.5 448.5l-3.6 65.4"/><path class="st5" d="M1282.4 386.3l31-8.9M1231.6 441.8l36.7-46.6M1016.2 445.8l113.9-12.5M989.1 433.5l27.1 12.3M915.4 449l73.7-15.5M789.9 424.4l105.5 23.9M760.5 438.4l29.4-14M679.3 418.1l81.2 20.3M671.6 386.5l7.7 31.6M627.7 373.7l43.9 12.8M608.6 326.9l19.1 46.8M398.7 155.8l-72.2-13.6M530.2 257.8l-104.1-36.9M531.5 284.8l-1.3-27"/><path class="st6" d="M491.1 342.9l82.2-21.9M578.7 364.9l-5.4-43.9M491.1 342.9l87.6 22M578.7 364.9l49 8.8M578.7 364.9l-58 48.7M520.7 413.6l86.5 30.8M627.7 373.7l-20.5 70.7M607.2 444.4l-49.3 54.9M607.2 444.4l36.1 60.7M607.2 444.4l72.1-26.3M607.2 444.4l64.4-57.9M679.3 418.1l28.8 40.1M708.1 458.2l-64.8 46.9M708.1 458.2l52.4 49.2M760.5 438.4v69M819.6 468.8l-59.1 38.6M819.6 468.8l-29.7-44.4M819.6 468.8l90 42.8M906.1 450.4l3.5 61.2M984.2 476.2l-74.6 35.4M984.2 476.2l4.9-42.7M984.2 476.2l53.6 44.3M1064.6 478.5l-80.4-1.9M1064.6 478.1l-26.8 42.4M1064.6 478.1l84.3 35.8M1130.1 433.3l-65.5 44.8M1189.4 428.1l26.8 48.6M1231.6 441.8l-15.4 34.9M1216.2 476.7l-67.3 37.2M1216.2 476.7l20.8 28.1M1216.2 476.7l93 5.6M1231.6 441.8l77.6 40.5M1331.6 435l-22.4 47.3M1309.2 482.3l-2.6 19.4M1309.2 482.3l175.4 40.7M1418.4 470l-109.2 12.3M1273.5 388.8l58.1 46.2M1374.3 393.2l-42.7 41.8M1331.6 435l86.8 35M1374.3 393.2l44.1 76.8M1374.3 393.2l-60.9-15.8M1320.8 353.2l53.5 40M1369 334.1l5.3 59.1M1369 334.1l69.4 28.4M1376.1 306.1l62.3 56.4M1374.3 393.2l64.1-30.7M1153.9 448.5l62.3 28.2"/><path class="st5" d="M1592.8 155.8l15.9-54.2L1769.9-3.9M1545.2 176.5l47.6-20.7M1509.8 241.1l35.4-64.6M1428.6 253.8l81.2-12.7M1416.3 289.6l12.3-35.8"/><path class="st6" d="M1416.3 289.6l22.1 72.9M1428.6 253.8l45.1 29.8M1473.7 283.6l-35.3 78.9M1509.8 241.1l105.3-41.3M1545.2 176.5l69.9 23.3M1592.8 155.8l22.3 44M1592.8 155.8l111.2 3M1704 158.8l-95.3-57.2"/><linearGradient id="SVGID_4_" gradientUnits="userSpaceOnUse" x1="1703.762" y1="77.225" x2="1801.828" y2="77.225"><stop offset="0" stop-color="#FFF"/><stop offset="1" stop-color="#FFF" stop-opacity=".4"/></linearGradient><path class="st7" d="M1704 158.8l97.5-65.7-31.6-97-65.9 162.7"/><path class="st6" d="M1583.2 289.6l-109.5-6M1418.4 470l66.2 53M1473.7 283.6l37.1 107.8M1583.2 289.6l2.3 78.8M1583.2 289.6l139.3-10.5M1615.1 199.8l107.4 79.3"/><linearGradient id="SVGID_5_" gradientUnits="userSpaceOnUse" x1="1703.762" y1="238.511" x2="1883.782" y2="238.511"><stop offset="0" stop-color="#FFF"/><stop offset="1" stop-color="#FFF" stop-opacity=".4"/></linearGradient><path class="st8" d="M1704 158.8l179.5 159.4"/><path class="st6" d="M1585.5 368.4l137-89.3-18.5-120.3M1438.4 362.5l72.4 28.9M1484.6 523l26.2-131.6M1510.8 391.4l74.7-23M1585.5 368.4l33 46.9M1585.5 368.4l-35.4 132.8M1438.4 362.5l-20 107.5M1510.8 391.4l39.3 109.8M1550.1 501.2l68.4-85.9M1473.7 283.6l111.8 84.8M1510.8 391.4l-92.4 78.6M1585.5 368.4l158 6.7M1722.5 279.1l21 96-125 40.2"/><linearGradient id="SVGID_6_" gradientUnits="userSpaceOnUse" x1="1722.282" y1="298.681" x2="1883.782" y2="298.681"><stop offset="0" stop-color="#FFF"/><stop offset="1" stop-color="#FFF" stop-opacity=".4"/></linearGradient><path class="st9" d="M1883.5 318.2l-161-39.1"/><linearGradient id="SVGID_7_" gradientUnits="userSpaceOnUse" x1="1743.282" y1="346.666" x2="1883.782" y2="346.666"><stop offset="0" stop-color="#FFF"/><stop offset="1" stop-color="#FFF" stop-opacity=".4"/></linearGradient><path class="st10" d="M1743.5 375.1l140-56.9"/><path class="st6" d="M1618.5 415.3l78.1 37.1M1743.5 375.1l-46.9 77.3-69.5 57.5"/><linearGradient id="SVGID_8_" gradientUnits="userSpaceOnUse" x1="1696.352" y1="442.666" x2="1828.172" y2="442.666"><stop offset="0" stop-color="#FFF"/><stop offset="1" stop-color="#FFF" stop-opacity=".4"/></linearGradient><path class="st11" d="M1696.6 452.4l130.9 57.5-84-134.8"/><path class="st6" d="M1618.5 415.3l8.6 94.6M531.5 284.8l-40.4 58.1M530.2 257.8l-106 23.2M426.1 220.9L325.7 229M398.7 155.8l-73 73.2M326.5 142.2l-52 29.1"/><path class="st5" d="M134.5 0l98 46.8 14.6 54.8 79.4 40.6"/><path class="st6" d="M325.7 229l98.5 52M274.5 171.3l51.2 57.7M424.2 281l66.9 61.9M491.1 342.9l29.6 70.7M520.7 413.6l23.9 89M421.2 460l99.5-46.4M520.7 413.6L416.4 365M491.1 342.9L416.4 365M424.2 281l-7.8 84M325.7 229l-79.5 63.4M274.5 171.3l-28.3 121.1"/><linearGradient id="SVGID_9_" gradientUnits="userSpaceOnUse" x1="73.282" y1="150.096" x2="274.733" y2="150.096"><stop offset="0" stop-color="#FFF" stop-opacity=".5"/><stop offset="1" stop-color="#FFF"/></linearGradient><path class="st12" d="M274.5 171.3l-201-42.5"/><path class="st6" d="M325.7 229l90.7 136M416.4 365l4.8 95M421.2 460l99.5 46.9M416.4 365l-92.5 24.7M325.7 229l-7.3 156.2"/><linearGradient id="SVGID_10_" gradientUnits="userSpaceOnUse" x1="73.282" y1="257.775" x2="314.156" y2="257.775"><stop offset="0" stop-color="#FFF" stop-opacity=".5"/><stop offset="1" stop-color="#FFF"/></linearGradient><path class="st13" d="M73.5 128.8l172.7 163.6 67.7 94.3"/><path class="st6" d="M246.2 292.4l-33 70.1 98.9 27.2M323.1 394.7l98.1 65.3M421.2 460l-88.6 42.6M319 397.5l13.6 105.1"/><linearGradient id="SVGID_11_" gradientUnits="userSpaceOnUse" x1="73.249" y1="255.16" x2="315.269" y2="255.16"><stop offset="0" stop-color="#FFF" stop-opacity=".5"/><stop offset="1" stop-color="#FFF"/></linearGradient><path class="st14" d="M134.5 0l-61 128.8 139.7 233.7 28.1 147.4L315 397.1"/></g><g id="Dots__x26__Droplets_1_"><circle class="st4" cx="1064.6" cy="478.1" r="1.7"/><circle class="st4" cx="1189.4" cy="428.1" r="1.4"/><circle class="st4" cx="1231.6" cy="442" r="1.4"/><circle class="st4" cx="1314.2" cy="377.4" r="1.4"/><circle class="st4" cx="1320.8" cy="353.2" r="1.4"/><circle class="st4" cx="1369" cy="334.1" r="1.4"/><circle class="st4" cx="1376.1" cy="306.1" r="1.4"/><circle class="st4" cx="1016.2" cy="445.8" r="1.4"/><circle class="st4" cx="760.5" cy="438.4" r="1.4"/><circle class="st4" cx="608.6" cy="326.9" r="1.4"/><circle class="st4" cx="573.4" cy="321" r="1.4"/><circle class="st4" cx="819.6" cy="468.8" r="1.7"/><circle class="st4" cx="1473.7" cy="283.6" r="1.4"/><circle class="st4" cx="1509.8" cy="241.1" r="1.4"/><circle class="st4" cx="1615.1" cy="199.8" r="1.4"/><circle class="st4" cx="531.6" cy="284.8" r="1.4"/><circle class="st4" cx="424.3" cy="281" r="1.4"/><circle class="st4" cx="426.1" cy="220.9" r="1.4"/><circle class="st4" cx="399" cy="155.8" r="1.4"/><circle class="st4" cx="274.6" cy="171.5" r="1.4"/><circle class="st4" cx="1216.2" cy="476.7" r="1.4"/><circle class="st4" cx="679.3" cy="418.1" r="1.4"/><circle class="st4" cx="627.7" cy="373.7" r="1.4"/><circle class="st4" cx="530.2" cy="257.9" r="1.4"/><circle class="st4" cx="491.5" cy="342.9" r="1.4"/><circle class="st4" cx="416.4" cy="364.9" r="1.4"/><circle class="st4" cx="790" cy="424.4" r="1.4"/><circle class="st4" cx="671.6" cy="386.5" r="1.4"/><circle class="st4" cx="989.1" cy="433.5" r="1.4"/><circle class="st4" cx="1130.1" cy="433" r="1.4"/><circle class="st4" cx="1309.2" cy="481.6" r="1.4"/><circle class="st4" cx="1374.3" cy="393.2" r="1.4"/><circle class="st4" cx="1438.3" cy="362.3" r="1.4"/><circle class="st4" cx="1418.2" cy="469.7" r="1.4"/><circle class="st4" cx="1585.7" cy="368.6" r="1.4"/><circle class="st4" cx="1618.8" cy="415.6" r="1.4"/><circle class="st4" cx="1428.6" cy="253.8" r="1.4"/><circle class="st4" cx="1545.2" cy="176.5" r="1.4"/><circle class="st4" cx="520.4" cy="413.6" r="1.4"/><circle class="st4" cx="421.3" cy="460" r="1.4"/><circle class="st4" cx="318" cy="391.5" r="1.4"/><circle class="st4" cx="326.5" cy="142.2" r="1.4"/><path class="st3" d="M578 371c-1.6 0-3-.7-4-1.8s-1.6-2.5-1.5-4c.1-3.9 5-7.7 5.2-7.8l.6-.5.6.5c.5.4 4.9 4.3 4.8 8.1-.1 3.1-2.6 5.5-5.7 5.5z"/><path class="st15" d="M578.3 358.2s4.6 3.9 4.5 7.3c-.1 2.5-2.2 4.6-4.7 4.6h-.1c-2.6-.1-4.7-2.2-4.6-4.8.2-3.5 4.9-7.1 4.9-7.1m.1-2.6l-1.3 1c-.6.4-5.5 4.3-5.6 8.6-.1 1.7.5 3.4 1.8 4.7 1.2 1.3 2.9 2.1 4.7 2.1h.1c3.6 0 6.6-2.9 6.7-6.5.1-4.2-4.7-8.4-5.2-8.9l-1.2-1z"/><path class="st3" d="M707.3 462.5c-1.5 0-3-.7-4-1.7-1-1.1-1.6-2.5-1.6-4.1.1-3.9 5-7.7 5.2-7.8l.6-.5.6.5c.5.4 4.9 4.3 4.8 8.1-.1 3.1-2.6 5.5-5.7 5.5h.1z"/><path class="st15" d="M707.6 449.7s4.6 3.9 4.5 7.3c-.1 2.5-2.2 4.6-4.7 4.6h-.1c-2.6-.1-4.6-2.2-4.6-4.8.2-3.5 4.9-7.1 4.9-7.1m.1-2.6l-1.3 1c-.6.4-5.5 4.3-5.6 8.6-.1 3.8 2.8 6.8 6.5 6.9h.1c3.6 0 6.6-2.9 6.7-6.5.1-4.2-4.7-8.4-5.2-8.9l-1.2-1.1z"/><path class="st3" d="M984 482.6c-3.1-.1-5.6-2.7-5.5-5.8.1-3.9 5-7.7 5.2-7.8l.6-.5.6.5c.5.4 4.9 4.3 4.8 8.1-.1 3.1-2.6 5.5-5.7 5.5z"/><path class="st15" d="M984.3 469.8s4.6 3.9 4.5 7.3c-.1 2.5-2.2 4.6-4.7 4.6h-.1c-2.6-.1-4.6-2.2-4.6-4.8.2-3.5 4.9-7.1 4.9-7.1m.1-2.6l-1.3 1c-.6.4-5.5 4.3-5.6 8.6-.1 3.6 2.8 6.7 6.5 6.9h.2c3.6 0 6.6-2.9 6.7-6.5.1-4.2-4.7-8.4-5.2-8.9l-1.3-1.1z"/><g><path class="st3" d="M1331.4 440.2c-1.6 0-3-.7-4-1.8s-1.6-2.5-1.5-4c.1-3.9 5-7.7 5.2-7.8l.6-.5.6.5c.5.4 4.9 4.3 4.8 8.1-.1 3.1-2.6 5.5-5.7 5.5z"/><path class="st15" d="M1331.8 427.4s4.6 3.9 4.5 7.3c-.1 2.5-2.2 4.6-4.7 4.6h-.1c-2.6-.1-4.7-2.2-4.6-4.8.1-3.5 4.9-7.1 4.9-7.1m0-2.6l-1.3 1c-.6.4-5.5 4.3-5.6 8.6-.1 1.7.5 3.4 1.8 4.7 1.2 1.3 2.9 2.1 4.7 2.1h.1c3.6 0 6.6-2.9 6.7-6.5.1-4.2-4.7-8.4-5.2-8.9l-1.2-1z"/></g><g><path class="st3" d="M1583 296.5c-1.5 0-2.9-.7-4-1.8-1-1.1-1.6-2.5-1.5-4 .1-3.9 5-7.7 5.2-7.8l.6-.5.6.5c.5.4 4.9 4.3 4.8 8.1-.1 3.1-2.6 5.5-5.7 5.5z"/><path class="st15" d="M1583.3 283.7s4.6 3.9 4.5 7.3c-.1 2.5-2.2 4.6-4.7 4.6h-.1c-2.6-.1-4.6-2.2-4.6-4.8.2-3.5 4.9-7.1 4.9-7.1m.1-2.6l-1.3 1c-.6.4-5.5 4.3-5.6 8.6 0 1.8.6 3.5 1.8 4.8 1.2 1.3 2.9 2 4.7 2.1h.1c3.6 0 6.6-2.9 6.7-6.5.1-4.2-4.7-8.4-5.2-8.9l-1.2-1.1z"/></g><g><path class="st3" d="M325.6 236c-1.5 0-2.9-.7-4-1.8-1-1.1-1.6-2.5-1.6-4 .1-3.9 5-7.7 5.2-7.8l.6-.5.6.5c.5.4 4.9 4.3 4.8 8.1-.1 3.1-2.6 5.5-5.7 5.5h.1z"/><path class="st15" d="M325.9 223.1s4.6 3.9 4.5 7.3c-.1 2.5-2.2 4.6-4.7 4.6h-.1c-2.6-.1-4.6-2.2-4.6-4.8.2-3.5 4.9-7.1 4.9-7.1m.1-2.6l-1.3 1c-.6.4-5.5 4.3-5.6 8.6 0 1.8.6 3.5 1.8 4.8 1.2 1.3 2.9 2 4.7 2.1h.1c3.6 0 6.6-2.9 6.7-6.5.1-4.2-4.7-8.4-5.2-8.9l-1.2-1.1z"/></g></g><g id="Radial_Circles_1_"><circle class="st16" cx="1152.5" cy="448.2" r="15.2"/><circle class="st17" cx="1273.6" cy="388.8" r="16.6"/><circle class="st18" cx="1273.6" cy="388.8" r="41.4"/><circle class="st17" cx="906.1" cy="449.8" r="14.7"/><circle class="st18" cx="906.1" cy="449.8" r="32.5"/><circle class="st19" cx="1510.6" cy="391.6" r="10.1"/><circle class="st16" cx="1510.6" cy="391.6" r="22.2"/><circle class="st20" cx="607.3" cy="444.2" r="12.1"/><circle class="st18" cx="607.3" cy="444.2" r="25.1"/><circle class="st21" cx="318" cy="391.5" r="6.1"/><circle class="st17" cx="318" cy="391.5" r="16.1"/><circle class="st18" cx="318" cy="391.5" r="35.5"/></g><circle class="st22" cx="607.2" cy="444.4" r="5.1"/><circle class="st4" cx="607.2" cy="444.4" r="1.2"/><circle class="st22" cx="906.1" cy="449.8" r="5.5"/><circle class="st4" cx="906.1" cy="449.7" r="1.4"/><circle class="st22" cx="1152.6" cy="448.5" r="4.4"/><circle class="st4" cx="1152.7" cy="448.4" r="1.1"/><circle class="st22" cx="1273.5" cy="388.7" r="5.5"/><circle class="st4" cx="1273.6" cy="388.6" r="1.4"/><circle class="st22" cx="1510.7" cy="391.5" r="4.7"/><circle class="st4" cx="1510.7" cy="391.5" r="1.2"/><ellipse transform="rotate(-14.895 658.258 371.764)" class="st3" cx="658.2" cy="371.8" rx=".8" ry=".8"/><ellipse transform="rotate(-14.895 577.668 292.96)" class="st3" cx="577.7" cy="293" rx=".8" ry=".8"/><ellipse transform="rotate(-14.895 506.207 215.137)" class="st3" cx="506.2" cy="215.2" rx=".8" ry=".8"/><ellipse transform="rotate(-14.895 570.046 443.72)" class="st3" cx="570" cy="443.8" rx=".8" ry=".8"/><ellipse transform="rotate(-14.895 357.742 344.18)" class="st3" cx="357.7" cy="344.2" rx=".8" ry=".8"/><ellipse transform="rotate(-14.895 298.662 461.795)" class="st3" cx="298.6" cy="461.8" rx=".8" ry=".8"/><ellipse transform="rotate(-14.895 328.58 193.377)" class="st3" cx="328.6" cy="193.4" rx=".8" ry=".8"/><ellipse transform="rotate(-14.895 347.485 107.717)" class="st3" cx="347.5" cy="107.7" rx=".8" ry=".8"/><ellipse transform="rotate(-14.895 303.982 95.7)" class="st3" cx="304" cy="95.7" rx=".8" ry=".8"/><ellipse transform="rotate(-14.895 1014.107 418.214)" class="st3" cx="1014.1" cy="418.3" rx=".8" ry=".8"/><ellipse transform="rotate(-14.895 1080.022 455.75)" class="st3" cx="1080" cy="455.8" rx=".8" ry=".8"/><ellipse transform="rotate(-14.895 1309.738 446.153)" class="st3" cx="1309.7" cy="446.2" rx=".8" ry=".8"/><ellipse transform="rotate(-14.895 1463.227 474.036)" class="st3" cx="1463.2" cy="474.1" rx=".8" ry=".8"/><ellipse transform="rotate(-14.895 1485.283 457.314)" class="st3" cx="1485.3" cy="457.4" rx=".8" ry=".8"/><ellipse transform="rotate(-14.895 1499.13 317.29)" class="st3" cx="1499.1" cy="317.4" rx=".8" ry=".8"/><ellipse transform="rotate(-14.895 1391.367 279.903)" class="st3" cx="1391.4" cy="280" rx=".8" ry=".8"/><ellipse transform="rotate(-14.895 1499.084 208.587)" class="st3" cx="1499.1" cy="208.7" rx=".8" ry=".8"/><ellipse transform="rotate(-14.895 1575.13 148.428)" class="st3" cx="1575.1" cy="148.5" rx=".8" ry=".8"/><ellipse transform="rotate(-14.895 1542.514 157.932)" class="st3" cx="1542.5" cy="158" rx=".8" ry=".8"/><circle class="st4" cx="247.1" cy="101.6" r="1.4"/><circle class="st4" cx="232" cy="45.6" r="1.4"/><circle class="st4" cx="1592.2" cy="155.5" r="1.4"/><circle class="st4" cx="1607.7" cy="100.6" r="1.4"/><linearGradient id="SVGID_12_" gradientUnits="userSpaceOnUse" x1="72.057" y1="88.028" x2="247.317" y2="88.028"><stop offset="0" stop-color="#FFF" stop-opacity=".5"/><stop offset="1" stop-color="#FFF"/></linearGradient><path class="st23" d="M232 47L73.5 128.8l173.6-26.7"/><linearGradient id="SVGID_13_" gradientUnits="userSpaceOnUse" x1="1827.128" y1="355.711" x2="1994.959" y2="355.711"><stop offset="0" stop-color="#FFF" stop-opacity=".4"/><stop offset="1" stop-color="#FFF" stop-opacity="0"/></linearGradient><path class="st24" d="M1883.5 318.2l-56 191.7 167-86.4-111-105.3 110.6-116.9"/><linearGradient id="SVGID_14_" gradientUnits="userSpaceOnUse" x1="1801.232" y1="150.672" x2="1956.782" y2="150.672"><stop offset="0" stop-color="#FFF" stop-opacity=".4"/><stop offset="1" stop-color="#FFF" stop-opacity="0"/></linearGradient><path class="st25" d="M1956.5-16.9l-155 110 82 225.1"/><linearGradient id="SVGID_15_" gradientUnits="userSpaceOnUse" x1="1883.282" y1="150.672" x2="1956.782" y2="150.672"><stop offset="0" stop-color="#FFF" stop-opacity=".4"/><stop offset="1" stop-color="#FFF" stop-opacity="0"/></linearGradient><path class="st26" d="M1883.5 318.2l73-335.1"/><linearGradient id="SVGID_16_" gradientUnits="userSpaceOnUse" x1="39.604" y1="129.1" x2="39.604" y2="9.697"><stop offset="0" stop-color="#FFF" stop-opacity=".3"/><stop offset="1" stop-color="#FFF" stop-opacity="0"/></linearGradient><path class="st27" d="M73.5 128.8L5.7 9.9"/><linearGradient id="SVGID_17_" gradientUnits="userSpaceOnUse" x1="58.532" y1="358.434" x2="58.532" y2="128.6"><stop offset="0" stop-color="#FFF" stop-opacity="0"/><stop offset="1" stop-color="#FFF" stop-opacity=".3"/></linearGradient><path class="st28" d="M43.5 358.2l30-229.4"/><linearGradient id="SVGID_18_" gradientUnits="userSpaceOnUse" x1="43.282" y1="434.05" x2="241.503" y2="434.05"><stop offset="0" stop-color="#FFF" stop-opacity="0"/><stop offset="1" stop-color="#FFF" stop-opacity=".5"/></linearGradient><path class="st29" d="M241.3 509.9L43.5 358.2"/><linearGradient id="SVGID_19_" gradientUnits="userSpaceOnUse" x1="-.25" y1="405.548" x2="43.782" y2="405.548"><stop offset="0" stop-color="#FFF" stop-opacity="0"/><stop offset="1" stop-color="#FFF" stop-opacity=".2"/></linearGradient><path class="st30" d="M43.5 358.2L0 452.9"/><linearGradient id="SVGID_20_" gradientUnits="userSpaceOnUse" x1="43.282" y1="360.35" x2="213.448" y2="360.35"><stop offset="0" stop-color="#FFF" stop-opacity="0"/><stop offset="1" stop-color="#FFF" stop-opacity=".5"/></linearGradient><path class="st31" d="M213.2 362.5l-169.7-4.3"/><linearGradient id="SVGID_21_" gradientUnits="userSpaceOnUse" x1="12.072" y1="146.206" x2="73.782" y2="146.206"><stop offset="0" stop-color="#FFF" stop-opacity="0"/><stop offset="1" stop-color="#FFF" stop-opacity=".3"/></linearGradient><path class="st32" d="M12.3 163.6l61.2-34.8"/><linearGradient id="SVGID_22_" gradientUnits="userSpaceOnUse" x1="4.221" y1="298.976" x2="43.782" y2="298.976"><stop offset="0" stop-color="#FFF" stop-opacity="0"/><stop offset="1" stop-color="#FFF" stop-opacity=".2"/></linearGradient><path class="st33" d="M43.5 358.2l-39-118.4"/><circle class="st4" cx="1704" cy="159.4" r="1.4"/><circle class="st4" cx="1722.5" cy="279.1" r="1.4"/><circle class="st4" cx="1743.5" cy="375.1" r="1.4"/><circle class="st4" cx="1696.6" cy="452.5" r="1.4"/><circle class="st4" cx="246.2" cy="292.2" r="1.4"/><circle class="st4" cx="213.2" cy="362.5" r="1.4"/></svg>