<svg id="Layer_1" xmlns="http://www.w3.org/2000/svg" viewBox="0 0 464.2 288.2"><style>.st0{fill:none;stroke:url(#SVGID_1_);stroke-width:2;stroke-miterlimit:10;} .st1{fill:url(#SVGID_2_);} .st2{fill:url(#SVGID_3_);} .st3{fill:url(#SVGID_4_);} .st4{fill:url(#SVGID_5_);} .st5{fill:url(#SVGID_6_);} .st6{fill:url(#SVGID_7_);} .st7{fill:#FFFFFF;} .st8{fill:url(#SVGID_8_);} .st9{fill:url(#SVGID_9_);} .st10{fill:#FFFFFF;stroke:url(#SVGID_10_);stroke-width:3;stroke-linecap:round;stroke-miterlimit:10;} .st11{fill:none;stroke:url(#SVGID_11_);stroke-width:2;stroke-linecap:round;stroke-miterlimit:10;} .st12{fill:none;stroke:url(#SVGID_12_);stroke-width:2;stroke-linecap:round;stroke-miterlimit:10;stroke-dasharray:0,4.9856;} .st13{fill:none;stroke:url(#SVGID_13_);stroke-width:2;stroke-linecap:round;stroke-miterlimit:10;} .st14{fill:url(#SVGID_14_);} .st15{fill:none;stroke:#00D688;stroke-width:2;stroke-linecap:round;stroke-miterlimit:10;} .st16{fill:none;stroke:#00D688;stroke-width:2;stroke-linecap:round;stroke-miterlimit:10;stroke-dasharray:0,4.4982;} .st17{fill:none;stroke:url(#SVGID_15_);stroke-width:2;stroke-linecap:round;stroke-miterlimit:10;} .st18{fill:none;stroke:url(#SVGID_16_);stroke-width:2;stroke-linecap:round;stroke-miterlimit:10;stroke-dasharray:0,4.9817;} .st19{fill:none;stroke:url(#SVGID_17_);stroke-width:2;stroke-linecap:round;stroke-miterlimit:10;}</style><linearGradient id="SVGID_1_" gradientUnits="userSpaceOnUse" x1="6286.94" y1="-3537.555" x2="6536.528" y2="-3393.455" gradientTransform="rotate(-120 4363.86 123.203)"><stop offset="0" stop-color="#00D688"/><stop offset="1" stop-color="#0080FF"/></linearGradient><path class="st0" d="M463.2 72.5L232.1 1 1 72.5 1 215.6 232.1 287.1 463.2 215.6z"/><linearGradient id="SVGID_2_" gradientUnits="userSpaceOnUse" x1="9.3" y1="135.147" x2="232.1" y2="135.147" gradientTransform="matrix(1 0 0 -1 0 246.293)"><stop offset=".041" stop-color="#005AFF" stop-opacity="0"/><stop offset="1" stop-color="#005AFF" stop-opacity=".15"/></linearGradient><path class="st1" d="M232.1 143.5L232.1 11.3 9.3 77.8 9.3 210.9z"/><linearGradient id="SVGID_3_" gradientUnits="userSpaceOnUse" x1="232.1" y1="135.147" x2="454.8" y2="135.147" gradientTransform="matrix(1 0 0 -1 0 246.293)"><stop offset=".041" stop-color="#005AFF" stop-opacity="0"/><stop offset="1" stop-color="#005AFF" stop-opacity=".15"/></linearGradient><path class="st2" d="M232.1 143.5L454.8 210.9 454.8 77.8 232.1 11.3z"/><linearGradient id="SVGID_4_" gradientUnits="userSpaceOnUse" x1="9.3" y1="35.297" x2="454.8" y2="35.297" gradientTransform="matrix(1 0 0 -1 0 246.293)"><stop offset="0" stop-color="#005AFF" stop-opacity=".15"/><stop offset=".959" stop-color="#005AFF" stop-opacity="0"/></linearGradient><path class="st3" d="M232.1 144L454.8 210.5 232.1 277.9 9.3 210.5z"/><linearGradient id="SVGID_5_" gradientUnits="userSpaceOnUse" x1="201.2" y1="-5.253" x2="263" y2="-5.253" gradientTransform="matrix(1 0 0 -1 0 246.293)"><stop offset="0" stop-color="#005AFF" stop-opacity=".2"/><stop offset="1" stop-color="#005AFF" stop-opacity="0"/></linearGradient><ellipse class="st4" cx="232.1" cy="251.5" rx="30.9" ry="6.1"/><linearGradient id="SVGID_6_" gradientUnits="userSpaceOnUse" x1="350.638" y1="37.247" x2="386.638" y2="37.247" gradientTransform="matrix(1 0 0 -1 0 246.293)"><stop offset="0" stop-color="#005AFF" stop-opacity=".2"/><stop offset="1" stop-color="#005AFF" stop-opacity="0"/></linearGradient><ellipse class="st5" cx="368.6" cy="209" rx="18" ry="3.5"/><linearGradient id="SVGID_7_" gradientUnits="userSpaceOnUse" x1="77.638" y1="37.247" x2="113.638" y2="37.247" gradientTransform="matrix(1 0 0 -1 0 246.293)"><stop offset="0" stop-color="#005AFF" stop-opacity=".2"/><stop offset="1" stop-color="#005AFF" stop-opacity="0"/></linearGradient><ellipse class="st6" cx="95.6" cy="209" rx="18" ry="3.5"/><path class="st7" d="M71.3,113.1c0-18.9,25.2-39,25.2-39s25.2,20.8,25.2,39c0,13.9-11.3,25.2-25.2,25.2S71.3,127,71.3,113.1z"/><linearGradient id="SVGID_8_" gradientUnits="userSpaceOnUse" x1="81.015" y1="146.565" x2="115.289" y2="126.776" gradientTransform="matrix(1 0 0 -1 0 246.293)"><stop offset="0" stop-color="#0072FF"/><stop offset="1" stop-color="#0072FF" stop-opacity=".2"/></linearGradient><path class="st8" d="M76.9,112.5c0-14.7,19.7-30.4,19.7-30.4s19.7,16.2,19.7,30.4c0,10.9-8.8,19.7-19.7,19.7S76.9,123.4,76.9,112.5 z"/><path class="st7" d="M342.3,113.1c0-18.9,25.2-39,25.2-39s25.2,20.8,25.2,39c0,13.9-11.3,25.2-25.2,25.2 C353.6,138.3,342.3,127,342.3,113.1z"/><linearGradient id="SVGID_9_" gradientUnits="userSpaceOnUse" x1="352.015" y1="146.565" x2="386.289" y2="126.776" gradientTransform="matrix(1 0 0 -1 0 246.293)"><stop offset="0" stop-color="#0072FF"/><stop offset="1" stop-color="#0072FF" stop-opacity=".2"/></linearGradient><path class="st9" d="M347.9,112.5c0-14.7,19.7-30.4,19.7-30.4s19.7,16.2,19.7,30.4c0,10.9-8.8,19.7-19.7,19.7 S347.9,123.4,347.9,112.5z"/><linearGradient id="SVGID_10_" gradientUnits="userSpaceOnUse" x1="231.5" y1="42.047" x2="231.5" y2="142.778" gradientTransform="matrix(1 0 0 -1 0 246.293)"><stop offset="0" stop-color="#00D688"/><stop offset="1" stop-color="#0080FF"/></linearGradient><path class="st10" d="M193.3,164.5c0-28.6,38.2-59.1,38.2-59.1s38.2,31.5,38.2,59.1c0,21.1-17.1,38.2-38.2,38.2 S193.3,185.7,193.3,164.5z"/><linearGradient id="SVGID_11_" gradientUnits="userSpaceOnUse" x1="368.464" y1="111.147" x2="231.13" y2="111.147" gradientTransform="matrix(1 0 0 -1 0 246.293)"><stop offset="0" stop-color="#0080FF"/><stop offset="1" stop-color="#00D688"/></linearGradient><path class="st11" d="M367.5 135.1L367.5 135.1"/><linearGradient id="SVGID_12_" gradientUnits="userSpaceOnUse" x1="368.5" y1="60.347" x2="231.167" y2="60.347" gradientTransform="matrix(1 0 0 -1 0 246.293)"><stop offset="0" stop-color="#0080FF"/><stop offset="1" stop-color="#00D688"/></linearGradient><path class="st12" d="M367.5,140.1v42.8c0,5.4-4.4,9.8-9.8,9.8c-5.4,0-9.8-4.4-9.8-9.8v-24.8c0-5.9-4.8-10.7-10.7-10.7 s-10.7,4.8-10.7,10.7v49.6c0,6.1-4.9,11-11,11s-11-4.9-11-11v-21.8c0-5.4-4.4-9.8-9.8-9.8H294c-5.4,0-9.8,4.4-9.8,9.8v35.2 c0,5.9-4.8,10.6-10.6,10.6h-30.7c-5,0-9.2-3.5-10.4-8.2"/><linearGradient id="SVGID_13_" gradientUnits="userSpaceOnUse" x1="368.464" y1="25.147" x2="231.13" y2="25.147" gradientTransform="matrix(1 0 0 -1 0 246.293)"><stop offset="0" stop-color="#0080FF"/><stop offset="1" stop-color="#00D688"/></linearGradient><path class="st13" d="M232.1 221.1L232.1 221.1"/><linearGradient id="SVGID_14_" gradientUnits="userSpaceOnUse" x1="206.844" y1="102.662" x2="261.367" y2="71.183" gradientTransform="matrix(1 0 0 -1 0 246.293)"><stop offset="0" stop-color="#0072FF"/><stop offset="1" stop-color="#0072FF" stop-opacity=".2"/></linearGradient><path class="st14" d="M200.3,164c0-23.4,31.3-48.4,31.3-48.4s31.3,25.8,31.3,48.4c0,17.3-14,31.3-31.3,31.3 C214.3,195.3,200.3,181.3,200.3,164z"/><g><path class="st15" d="M231.6 217.1L231.6 217.1"/><path class="st16" d="M231.6 212.6L231.6 210.3"/><path class="st15" d="M231.6 208.1L231.6 208.1"/></g><g><linearGradient id="SVGID_15_" gradientUnits="userSpaceOnUse" x1="95.257" y1="111.147" x2="232.59" y2="111.147" gradientTransform="matrix(1 0 0 -1 0 246.293)"><stop offset="0" stop-color="#0080FF"/><stop offset="1" stop-color="#00D688"/></linearGradient><path class="st17" d="M96.3 135.1L96.3 135.1"/><linearGradient id="SVGID_16_" gradientUnits="userSpaceOnUse" x1="95.3" y1="60.347" x2="232.633" y2="60.347" gradientTransform="matrix(1 0 0 -1 0 246.293)"><stop offset="0" stop-color="#0080FF"/><stop offset="1" stop-color="#00D688"/></linearGradient><path class="st18" d="M96.3,140.1V183c0,5.4,4.4,9.8,9.8,9.8s9.8-4.4,9.8-9.8v-24.9c0-5.9,4.8-10.7,10.7-10.7 c5.9,0,10.7,4.8,10.7,10.7v49.6c0,6.1,4.9,11,11,11s11-4.9,11-11v-21.5c0-5.6,4.6-10.2,10.2-10.2s10.2,4.6,10.2,10.2v34.9 c0,5.9,4.8,10.6,10.6,10.6H221c5,0,9.2-3.5,10.4-8.2"/><linearGradient id="SVGID_17_" gradientUnits="userSpaceOnUse" x1="95.257" y1="25.147" x2="232.59" y2="25.147" gradientTransform="matrix(1 0 0 -1 0 246.293)"><stop offset="0" stop-color="#0080FF"/><stop offset="1" stop-color="#00D688"/></linearGradient><path class="st19" d="M231.6 221.1L231.6 221.1"/></g></svg>