
<svg width="771px" height="742px" viewBox="0 0 771 742" version="1.1" xmlns="http://www.w3.org/2000/svg" xmlns:xlink="http://www.w3.org/1999/xlink">
    <!-- Generator: Sketch 49.3 (51167) - http://www.bohemiancoding.com/sketch -->
    <desc>Created with Sketch.</desc>
    <defs></defs>
    <g id="Page-1" stroke="none" stroke-width="1" fill="none" fill-rule="evenodd">
        <g id="index-icon4" fill-rule="nonzero">
            <path d="M696.663016,678.120768 C696.692493,683.367564 694.621246,688.407996 690.911143,692.118099 C687.201039,695.828203 682.160607,697.89945 676.913811,697.869973 L28.7658061,697.869973 C23.5190103,697.89945 18.4785778,695.828203 14.7684742,692.1181 C11.0583707,688.407996 8.98712381,683.367564 9.01660072,678.120768 L9.01660072,286.492381 C8.9871238,281.245585 11.0583707,276.205153 14.7684742,272.495049 C18.4785778,268.784946 23.5190103,266.713699 28.7658061,266.743176 L71.5649188,266.743176 C78.3356951,266.924504 84.886255,264.329805 89.6963664,259.56125 C94.5064777,254.792695 97.1579152,248.264895 97.0353419,241.4928 L97.0353419,173.498322 C96.9519051,166.491821 99.733968,159.755254 104.736982,154.849352 C109.811562,150.102307 116.440542,147.364675 123.385953,147.147712 L211.404694,147.147712 C218.137737,147.268243 224.630538,144.646666 229.392281,139.884923 C234.154024,135.123179 236.775601,128.630379 236.65507,121.897336 L236.65507,62.7597438 C236.949694,58.4077604 238.476058,54.2293399 241.056007,50.7121785 C244.314235,47.680849 248.658603,46.0938651 253.103572,46.3112411 L470.611478,46.3112411 L471.114992,123.272628 C470.994461,130.005671 473.616038,136.498472 478.377781,141.260216 C483.139524,146.021959 489.632325,148.643536 496.365368,148.523005 L610.384109,148.523005 C610.499159,156.437642 610.616029,165.221179 610.73472,174.873616 L610.73472,242.593034 C610.614189,249.326078 613.235766,255.818878 617.997509,260.580622 C622.759253,265.342365 629.252054,267.963942 635.985097,267.84341 L695.784209,267.84341 L696.663016,678.120768 Z" id="Shape" fill="#DCEAFF"></path>
            <path d="M595.826545,376.491545 L671.522663,376.491545 L671.522663,615.627462 L595.826545,615.627462 L595.826545,376.491545 Z M472.98539,376.491545 L548.901555,376.491545 L548.901555,615.627462 L472.98539,615.627462 L472.98539,376.491545 Z M350.144234,376.491545 L425.840352,376.491545 L425.840352,615.627462 L350.144234,615.627462 L350.144234,376.491545 Z M226.202845,376.491545 L301.898962,376.491545 L301.898962,615.627462 L226.147833,615.627462 L226.147833,376.491545 L226.202845,376.491545 Z M103.306677,376.491545 L179.002795,376.491545 L179.002795,615.627462 L103.306677,615.627462 L103.306677,376.491545 Z" id="Shape" fill="#0BA8FF"></path>
            <path d="M754.92042,741.76932 L16.7182408,741.76932 C12.3140172,741.860158 8.06329825,740.150586 4.94837959,737.035667 C1.83346094,733.920748 0.123888655,729.670029 0.21472666,725.265806 L0.21472666,257.996314 C0.418354923,248.967365 7.68929211,241.696428 16.7182408,241.4928 L83.5574719,241.4928 L83.5574719,126.353284 C83.7611002,117.324336 91.0320374,110.053399 100.060986,109.84977 L224.002376,109.84977 L224.002376,16.7149399 C224.286715,12.3439254 225.813578,8.14505177 228.403313,4.61236317 C231.920474,2.03241372 236.098895,0.506049981 240.450878,0.21142578 L505.882395,0.21142578 C514.911343,0.415054037 522.182281,7.68599122 522.385909,16.7149399 L522.385909,111.005017 L658.429876,111.005017 C667.458824,111.208645 674.72976,118.479582 674.933389,127.50853 L674.933389,223.999075 L753.875198,223.999075 C762.904146,224.202703 770.175083,231.473641 770.378712,240.502589 L770.378712,725.375829 C770.871423,729.690692 769.436648,734.003296 766.457201,737.162995 C763.477753,740.322694 759.256758,742.008023 754.92042,741.76932 Z M33.2217541,708.817304 L738.471918,708.817304 L738.471918,256.89608 L659.475098,256.89608 C650.44615,256.692452 643.175212,249.421514 642.971584,240.392566 L642.971584,143.90202 L505.882395,143.90202 C496.853446,143.698392 489.582509,136.427455 489.378881,127.398507 L489.378881,33.218454 L256.899381,33.218454 L256.899381,125.25305 C256.695752,134.281998 249.424815,141.552936 240.395867,141.756564 L116.509488,141.756564 L116.509488,256.89608 C116.30586,265.925028 109.034923,273.195965 100.005975,273.399594 L33.2217541,273.399594 L33.2217541,708.817304 Z" id="Shape" fill="#0BA8FF"></path>
            <polygon id="Shape" fill="#D9EDFB" points="95.6600487 317.243929 546.481039 317.243929 546.481039 347.940465 95.6600487 347.940465"></polygon>
        </g>
    </g>
</svg>