
<svg width="737px" height="720px" viewBox="0 0 737 720" version="1.1" xmlns="http://www.w3.org/2000/svg" xmlns:xlink="http://www.w3.org/1999/xlink">
    <!-- Generator: Sketch 49.3 (51167) - http://www.bohemiancoding.com/sketch -->
    <desc>Created with Sketch.</desc>
    <defs></defs>
    <g id="Page-1" stroke="none" stroke-width="1" fill="none" fill-rule="evenodd">
        <g id="index-icon3" fill-rule="nonzero">
            <path d="M356.782098,437.130058 C370.618906,448.222387 382.59025,449.240928 398.179507,441.059115 L688.603197,257.233407 C700.363856,250.279423 704.249659,235.114326 697.297072,223.355061 L395.502,23.8787044 C380.039712,13.1463527 368.844133,14.0295534 357.089055,20.983537 L52.6346153,218.140969 C40.8809319,225.094953 36.9867574,240.26005 43.9407403,252.006757 L356.782098,437.130058 Z" id="Shape" fill="#BAD4FF"></path>
            <path d="M379.414634,461.559692 C368.726931,461.559692 358.516407,457.65296 348.20961,449.621835 L32.9070124,263.043276 L30.9313219,259.707205 C25.5107305,250.550104 23.9829193,239.827519 26.6297302,229.516536 C29.2514264,219.306012 35.6696298,210.694457 44.7039483,205.268286 L349.19606,8.09271538 L349.390002,7.97690884 C357.711342,3.05303124 365.708981,0.66155231 373.84475,0.6615523 C383.71483,0.6615523 393.58212,4.16784494 404.010305,11.3827417 L708.541484,212.665963 L710.313466,215.664379 C721.439282,234.483667 715.230368,258.921673 696.476658,270.140971 L405.744615,454.162016 L405.196278,454.448044 C396.083825,459.232396 387.648073,461.559693 379.414634,461.559692 Z M365.402023,424.664791 L366.237785,425.334517 C372.93504,430.704879 376.96595,431.324375 379.414634,431.324375 C382.516301,431.324375 386.190025,430.216537 390.645095,427.938075 L680.809266,244.285379 C684.572286,242.057147 686.354035,237.625796 685.325728,233.56419 L386.958814,36.3481566 C381.719607,32.7135 377.332904,30.8940791 373.846146,30.8940791 C371.299794,30.8940791 368.496714,31.8344855 365.030883,33.8534292 L60.5304004,231.034581 L60.3364587,231.150387 C58.1361679,232.443026 56.5444982,234.562238 55.9162703,237.035601 C55.5393655,238.488679 55.5097311,240.010064 55.8297638,241.476718 L365.402023,424.664791 Z" id="Shape" fill="#577EFF"></path>
            <path d="M379.414634,457.604126 C379.413239,457.604126 379.413239,457.604126 379.414634,457.604126 C369.580831,457.604126 360.097239,453.920635 350.44482,446.349946 L35.7938085,260.155084 L34.3357596,257.692448 C29.4523443,249.443662 28.076616,239.787057 30.4611187,230.500196 C32.8246919,221.295655 38.6010743,213.547768 46.7410306,208.658771 L351.213609,11.494363 L351.40755,11.3785564 C359.098232,6.8286083 366.437307,4.61572354 373.84475,4.61572355 C382.883255,4.61572355 392.015241,7.89319329 401.759748,14.6350967 L705.600273,215.463462 L706.909028,217.677742 C716.94933,234.662261 711.355726,256.633444 694.446552,266.74909 L403.768925,450.733858 L403.36709,450.943148 C394.826694,455.424728 386.990905,457.604126 379.414634,457.604126 Z M52.4839268,244.092833 L363.147281,427.926913 L363.763986,428.420835 C371.432343,434.568358 376.368779,435.279941 379.413239,435.279941 C383.193003,435.279941 387.514128,434.001882 392.608228,431.375999 L682.921691,247.627031 C688.713422,244.201664 691.026766,237.106759 688.656216,231.026209 L389.139608,33.0497589 C383.216722,28.9393181 378.21471,26.9413037 373.84475,26.9413037 C370.551933,26.9413037 367.087499,28.0686748 362.957525,30.4852677 L58.5114566,227.632933 L58.3175157,227.74874 C55.213751,229.573221 52.9689362,232.563628 52.0834868,236.053336 C51.3933307,238.711232 51.5330673,241.516675 52.4839269,244.092833 Z" id="Shape" fill="#577EFF"></path>
            <path d="M9.40104068,369.094314 L350.376451,586.720233 C356.196087,592.86357 365.672704,594.410915 373.258741,589.932125 L724.423746,382.232097 C733.236218,377.01661 736.159291,365.642438 730.941013,356.829965 C725.738083,348.016099 714.366701,345.094421 705.541671,350.309909 L364.721135,551.880553 L29.3518861,337.825108 C20.7194028,332.319406 9.25593411,334.854597 3.74325584,343.488475 C-1.76663226,352.119563 0.76855816,363.577451 9.40104068,369.094314 Z" id="Shape" fill="#577EFF"></path>
            <path d="M734.384518,484.072238 C729.169031,475.256975 717.793463,472.338088 708.980991,477.55218 L368.167431,679.118639 L32.793996,465.06738 C24.1615127,459.563073 12.698044,462.085706 7.18536574,470.719584 C1.67408256,479.361834 4.20369182,490.819722 12.8417563,496.336586 L353.811585,713.956924 C359.631221,720.09747 369.106442,721.651791 376.69527,717.160444 L727.863066,509.474369 C736.675537,504.25609 739.598611,492.884709 734.384518,484.072238 Z" id="Shape" fill="#577EFF"></path>
        </g>
    </g>
</svg>