
<svg width="591px" height="764px" viewBox="0 0 591 764" version="1.1" xmlns="http://www.w3.org/2000/svg" xmlns:xlink="http://www.w3.org/1999/xlink">
    <!-- Generator: Sketch 49.3 (51167) - http://www.bohemiancoding.com/sketch -->
    <desc>Created with Sketch.</desc>
    <defs></defs>
    <g id="Page-1" stroke="none" stroke-width="1" fill="none" fill-rule="evenodd">
        <g id="index-icon5" fill-rule="nonzero">
            <path d="M552.21047,157.739492 L552.21047,618.567204 C552.006416,679.126144 502.937227,728.153854 442.378136,728.306696 L433.093915,728.306696 L433.093915,673.43695 C432.890805,612.986208 383.990419,564.00294 323.540108,563.697458 L268.670362,563.697458 C208.292603,564.104398 159.504508,613.058158 159.302239,673.43695 L159.302239,728.306696 L150.018019,728.306696 C89.3864381,728.255918 40.2044697,679.198461 40,618.567204 L40,157.739492 C40.2044697,97.1082351 89.3864381,48.0507777 150.018019,48 L159.302239,48 L159.302239,112.061124 C159.249799,172.620996 208.111845,221.856351 268.670362,222.264827 L323.540108,222.264827 C384.243829,222.060113 433.331129,172.765168 433.279599,112.061124 L433.279599,48 L442.563821,48 C502.937227,48.1528415 552.006416,97.1805511 552.21047,157.739492 Z" id="Shape" fill="#FFEAE3"></path>
            <path d="M551.711784,149.039722 L551.711784,614.960278 C551.40597,675.446679 502.366433,724.361855 441.87945,724.514085 L432.595229,724.514085 L432.595229,669.551496 C432.442673,609.079753 383.512821,560.066968 323.041422,559.812005 L268.171676,559.812005 C207.772829,560.168606 158.955412,609.151787 158.803553,669.551496 L158.803553,724.514085 L149.519333,724.514085 C88.8516304,724.463125 39.6547526,675.34928 39.5013145,614.681751 L39.5013145,149.039722 C39.5525072,88.2996661 88.7792764,39.072897 149.519333,39.0217042 L158.803553,39.0217042 L158.803553,103.082829 C159.005821,163.461621 207.793917,212.415381 268.171676,212.822321 L323.041422,212.822321 C383.56426,212.618539 432.577132,163.605667 432.780914,103.082829 L432.780914,39.0217042 L442.065135,39.0217042 C502.54698,39.1751423 551.660825,88.3720201 551.711784,149.039722 Z M377.911168,440.881135 C388.166235,440.881134 396.479609,432.56776 396.47961,422.312692 L396.47961,312.851728 C394.923352,303.968081 387.208626,297.487354 378.189694,297.487354 C369.170763,297.487354 361.456036,303.968081 359.899779,312.851728 L359.899779,422.59122 C359.89978,432.846287 368.213154,441.159661 378.468222,441.159661 L377.911168,440.881135 Z M213.858984,441.159661 C224.114051,441.159661 232.427426,432.846287 232.427426,422.59122 L232.427426,312.851728 C230.87117,303.96808 223.156443,297.487351 214.137511,297.487351 C205.118578,297.487351 197.403851,303.96808 195.847595,312.851728 L195.847595,422.59122 C195.847596,432.846287 204.16097,441.159661 214.416037,441.159661 L213.858984,441.159661 Z M432.595229,0.4921875 C422.376566,0.492187497 412.576433,4.55153564 405.350747,11.7772217 C398.125061,19.0029077 394.065713,28.803041 394.065713,39.0217042 L394.065713,103.082829 C394.014565,142.389807 362.162715,174.241656 322.855738,174.292803 L268.171676,174.292803 C228.864699,174.241656 197.012849,142.389807 196.961701,103.082829 L196.961701,39.0217042 C196.962683,17.8866286 179.937647,0.695898975 158.803553,0.4921875 L149.519333,0.4921875 C110.122077,0.492187296 72.3384298,16.1426861 44.4803629,44.0007529 C16.622296,71.8588196 0.97179699,109.642466 0.97179699,149.039722 L0.97179699,614.960278 C0.971796993,654.357534 16.622296,692.14118 44.4803629,719.999247 C72.3384298,747.857314 110.122077,763.507813 149.519333,763.507813 L158.803553,763.507813 C169.03863,763.409905 178.814119,759.243474 185.972937,751.927894 C193.131754,744.612314 197.085489,734.748881 196.961701,724.514085 L196.961701,669.551496 C197.012849,630.244519 228.864699,598.392669 268.171676,598.341521 L323.041422,598.341521 C362.3484,598.392669 394.200249,630.244519 394.251396,669.551496 L394.251396,724.514085 C394.251396,734.732748 398.310745,744.532881 405.536431,751.758568 C412.762117,758.984254 422.562251,763.043602 432.780914,763.043601 L442.065135,763.043601 C481.462391,763.043602 519.246038,747.393103 547.104104,719.535036 C574.962171,691.676969 590.61267,653.893322 590.61267,614.496067 L590.61267,149.039722 C590.61267,109.642466 574.962171,71.8588196 547.104104,44.0007529 C519.246038,16.1426861 481.462391,0.492187293 442.065135,0.4921875 L432.595229,0.4921875 Z" id="Shape" fill="#FF4C0B"></path>
        </g>
    </g>
</svg>