
<svg width="666px" height="742px" viewBox="0 0 666 742" version="1.1" xmlns="http://www.w3.org/2000/svg" xmlns:xlink="http://www.w3.org/1999/xlink">
    <!-- Generator: Sketch 49.3 (51167) - http://www.bohemiancoding.com/sketch -->
    <desc>Created with Sketch.</desc>
    <defs></defs>
    <g id="Page-1" stroke="none" stroke-width="1" fill="none" fill-rule="evenodd">
        <g id="index-icon1" fill-rule="nonzero">
            <polygon id="Shape" fill="#FFFFFF" points="149.651365 20.4129823 514.04653 20.4129823 514.04653 122.699344 149.651365 122.699344"></polygon>
            <path d="M128.426945,76.9261971 L153.998536,76.9261971 C153.998536,102.497788 160.135718,116.817878 169.34149,119.119322 C220.873657,121.889684 272.517445,121.889684 324.049613,119.119322 C378.637631,126.070906 433.886922,126.070906 488.47494,119.119322 C520.183712,112.129754 530.92378,98.065379 520.695144,76.9261971 L537.572393,76.9261971 C564.700423,76.9261969 590.71736,87.7027648 609.899774,106.885179 C629.082188,126.067593 639.858756,152.08453 639.858756,179.21256 L639.858756,639.501189 C639.858756,666.629219 629.082188,692.646156 609.899774,711.82857 C590.71736,731.010984 564.700423,741.787552 537.572393,741.787552 L128.426945,741.787552 C101.298915,741.787552 75.2819783,731.010984 56.0995644,711.82857 C36.9171506,692.646156 26.1405828,666.629219 26.140583,639.501189 L26.140583,179.21256 C26.1405828,152.08453 36.9171506,126.067593 56.0995644,106.885179 C75.2819783,87.7027651 101.298915,76.9261971 128.426945,76.9261971 Z" id="Shape" fill="#DEF6C4"></path>
            <path d="M577.975506,70.7890154 L542.942428,70.7890154 C543.010371,52.1384575 535.666563,34.2248007 522.526583,20.9889083 C509.386603,7.75301585 491.526828,0.279122496 472.876269,0.21142578 L193.123069,0.21142578 C174.47251,0.279122494 156.612736,7.75301584 143.472756,20.9889083 C130.332776,34.2248007 122.988967,52.1384575 123.056911,70.7890155 L88.0238323,70.7890155 C39.5413283,71.070688 0.427234376,110.527888 0.5689925,159.011003 L0.5689925,653.565564 C0.510551424,677.001536 9.69950989,699.514484 26.1405829,716.21596 C42.5109877,732.68388 64.80378,741.895778 88.0238323,741.787552 L577.975506,741.787552 C626.458011,741.505879 665.572104,702.048679 665.430346,653.565564 L665.430346,159.011003 C665.572104,110.527888 626.458011,71.070688 577.975506,70.7890154 Z M194.401648,35.500221 L472.876269,35.500221 C492.363792,35.5029656 508.160094,51.3014933 508.160094,70.7890158 C508.160094,90.2765383 492.363792,106.075066 472.876269,106.077811 L193.123069,106.077811 C180.514414,106.079586 168.862775,99.3539686 162.557935,88.4348481 C156.253094,77.5157277 156.253094,64.0623039 162.557935,53.1431835 C168.862775,42.2240631 180.514414,35.4984451 193.123069,35.500221 L194.401648,35.500221 Z M631.675847,653.565564 C631.743832,667.536549 626.258995,680.962308 616.427972,690.889243 C606.59695,700.816178 593.225073,706.431101 579.254086,706.498756 L88.0238323,706.498756 C59.4321816,705.666036 36.7296736,682.16894 36.8806507,653.565564 L36.8806507,159.011003 C36.7296736,130.407627 59.4321816,106.910532 88.0238323,106.077811 L132.774116,106.077811 C145.133303,127.909552 168.291464,141.394051 193.378785,141.366606 L474.666281,141.366606 C499.691353,141.409828 522.780774,127.908387 535.015235,106.077811 L579.254086,106.077811 C608.288358,106.358348 631.677202,129.975376 631.675847,159.011003 L631.675847,653.565564 Z M520.439428,255.927331 L145.559911,255.927331 C138.986662,255.119755 132.536636,258.17288 128.994405,263.768626 C125.452174,269.364372 125.452174,276.500506 128.994405,282.096252 C132.536636,287.691998 138.986662,290.745123 145.559911,289.937547 L520.439428,289.937547 C527.012676,290.745123 533.462702,287.691998 537.004933,282.096252 C540.547165,276.500506 540.547165,269.364372 537.004933,263.768626 C533.462702,258.17288 527.012676,255.119755 520.439428,255.927331 Z M520.439428,392.223909 L145.559911,392.223909 C136.097864,392.224232 128.427531,399.894827 128.427531,409.356874 C128.427531,418.818921 136.097864,426.489516 145.559911,426.48984 L520.439428,426.48984 C526.560586,426.490049 532.216859,423.22457 535.277499,417.923526 C538.338139,412.622482 538.338139,406.091267 535.277499,400.790223 C532.216859,395.489179 526.560586,392.2237 520.439428,392.223909 Z M520.439428,528.776202 L145.559911,528.776202 C139.45344,528.698547 133.781376,531.925756 130.728388,537.214827 C127.667879,542.515785 127.667879,549.046835 130.728388,554.347793 C133.857272,559.559838 139.480881,562.759478 145.559911,562.786418 L520.439428,562.786418 C526.518458,562.759478 532.142067,559.559838 535.270951,554.347793 C538.33146,549.046835 538.33146,542.515785 535.270951,537.214827 C532.217962,531.925756 526.545898,528.698547 520.439428,528.776202 Z" id="Shape" fill="#58B957"></path>
        </g>
    </g>
</svg>