<svg width="44" height="44" viewBox="0 0 44 44" xmlns="http://www.w3.org/2000/svg" xmlns:xlink="http://www.w3.org/1999/xlink" xmlns:figma="http://www.figma.com/figma/ns"><title>data-processing</title><desc>Created using Figma</desc><g figma:type="canvas"><g figma:type="frame" fill="#0069FF"><use xlink:href="#a" transform="translate(14.29 14.29)" figma:type="vector"/><use xlink:href="#b" transform="translate(2 2)" figma:type="vector"/></g></g><defs><path id="a" d="M14.412 7.706a6.706 6.706 0 0 1-6.706 6.706v2a8.706 8.706 0 0 0 8.706-8.706h-2zm-6.706 6.706A6.706 6.706 0 0 1 1 7.706h-2a8.706 8.706 0 0 0 8.706 8.706v-2zM1 7.706A6.706 6.706 0 0 1 7.706 1v-2A8.706 8.706 0 0 0-1 7.706h2zM7.706 1a6.706 6.706 0 0 1 6.706 6.706h2A8.706 8.706 0 0 0 7.706-1v2z"/><path id="b" d="M37.971 16.439l-.66-.751.66.75zM40 14.657l.66.752.466-.41-.16-.6-.966.258zm-1.777-4.528l.879-.477-.296-.545-.62.023.037 1zm-2.892.108l-.037-1 .037 1zm-3.677-1.544l-.748.664.015.017.015.016.718-.697zm-.03-.031l.747-.664-.015-.018-.017-.017-.715.699zm-1.445-3.719l-.998-.065.998.065zm.186-2.867l.998.065.04-.62-.536-.31-.502.865zM25.9.142l.285-.958-.595-.177-.423.455.733.68zm-1.962 2.114l-.733-.68.733.68zm-3.694 1.507l.016-1h-.016v1zm-.042 0l-.014 1h.014v-1zm-3.65-1.609l.75-.66-.75.66zM14.656 0l.751-.66L15-1.126l-.6.16.258.966zM10.13 1.777L9.652.898l-.545.296.023.62 1-.037zm.108 2.892l-1 .037 1-.037zM8.693 8.346l.664.748.017-.015.016-.015-.697-.718zm-.031.03l-.664-.747-.018.015-.017.017.699.715zM4.943 9.821l-.065.998.065-.998zm-2.867-.186l.065-.998-.62-.04-.31.536.865.502zM.142 14.1l-.958-.285-.177.595.455.423.68-.733zm2.115 1.962l.68-.733-.68.733zm1.507 3.694l-1-.017v.017h1zm0 .042l1 .014v-.014h-1zm-1.609 3.65l-.66-.75.66.75zM0 25.343l-.66-.751-.466.41.16.598.966-.257zm1.777 4.528l-.879.477.296.545.62-.023-.037-1zm2.892-.108l.037 1-.037-1zm3.677 1.544l.748-.664-.015-.017-.015-.016-.718.697zm.03.031l-.747.664.015.018.017.017.715-.699zm1.445 3.719l.998.065-.998-.065zm-.186 2.867l-.998-.065-.04.62.536.31.502-.865zm4.465 1.934l-.285.958.595.177.423-.455-.733-.68zm1.962-2.115l-.733-.68.733.68zm3.694-1.508l-.016 1h.016v-1zm.042.001l-.083.997.035.003h.035l.013-1zm3.65 1.609l.752-.66-.752.66zM25.342 40l-.752.66.41.466.6-.16-.258-.966zm4.527-1.777l.478.879.545-.296-.023-.62-1 .037zm-.107-2.892l.999-.037-1 .037zm1.544-3.677l-.664-.748-.017.015-.016.015.697.718zm.03-.03l.665.747.018-.015.017-.017-.7-.715zm3.72-1.445l.065-.998-.065.998zm2.867.186l-.065.998.62.04.31-.536-.865-.502zm1.933-4.465l.959.285.177-.595-.455-.423-.68.733zm-2.115-1.962l-.68.733.68-.733zm-1.508-3.53l-1-.017v.002l1 .015zm.003-.206l1 .017v-.003l-1-.014zm2.396-3.012l2.028-1.782-1.32-1.502-2.028 1.782 1.32 1.502zm2.334-2.79a21.991 21.991 0 0 0-1.864-4.748l-1.758.955c.74 1.356 1.281 2.769 1.69 4.308l1.932-.515zm-2.78-5.27l-2.892.108.074 1.999 2.892-.108-.074-1.999zm-2.892.108c-1.077.04-2.124-.42-2.923-1.242L30.936 9.39c1.144 1.177 2.721 1.91 4.432 1.846l-.075-1.998zM32.4 8.028a1.165 1.165 0 0 0-.037-.04l-.018-.018.003.003.022.025-1.494 1.328.037.04c.008.01.016.017.018.018a.777.777 0 0 1-.026-.027L32.4 8.028zm-.062-.065c-.801-.82-1.232-1.879-1.162-2.955l-1.996-.13c-.11 1.71.579 3.307 1.728 4.483l1.43-1.398zm-1.162-2.955l.186-2.867-1.995-.13-.187 2.867 1.996.13zm-.31-3.797a22.047 22.047 0 0 0-4.683-2.027l-.57 1.917a19.18 19.18 0 0 1 4.25 1.84l1.003-1.73zm-5.7-1.749l-1.963 2.114 1.466 1.36L26.632.824l-1.466-1.36zm-1.963 2.114c-.733.79-1.798 1.205-2.945 1.187l-.032 2c1.643.026 3.278-.571 4.443-1.827l-1.466-1.36zm-2.96 1.187H20.2v2h.042v-2zm-.03 0c-1.148-.016-2.202-.46-2.912-1.269l-1.503 1.32c1.13 1.286 2.748 1.926 4.388 1.949l.027-2zm-2.912-1.269L15.408-.66 13.906.66l1.893 2.154 1.503-1.32zM14.4-.966A21.995 21.995 0 0 0 9.652.898l.955 1.758c1.356-.74 2.769-1.281 4.308-1.69L14.4-.966zm-5.27 2.78l.108 2.892 1.999-.074-.108-2.892-1.999.074zm.108 2.892c.04 1.077-.42 2.124-1.242 2.923L9.39 9.064c1.177-1.144 1.91-2.721 1.846-4.432l-1.998.074zM8.028 7.6a1.25 1.25 0 0 0-.04.037l-.018.018.003-.003a.741.741 0 0 1 .025-.022l1.328 1.494.04-.037a.092.092 0 0 0 .018-.018.75.75 0 0 1-.027.025L8.028 7.6zm-.065.062c-.82.801-1.879 1.232-2.955 1.162l-.13 1.996c1.71.11 3.307-.579 4.483-1.728l-1.398-1.43zM5.008 8.823L2.14 8.637l-.13 1.995 2.867.187.13-1.996zm-3.797.31a22.064 22.064 0 0 0-2.027 4.682l1.917.57a19.196 19.196 0 0 1 1.84-4.249l-1.73-1.003zm-1.749 5.7l2.115 1.962 1.36-1.466-2.115-1.963-1.36 1.467zm2.115 1.962c.79.733 1.206 1.798 1.187 2.944l2 .033c.026-1.644-.571-3.278-1.826-4.443l-1.36 1.466zm1.187 2.96v.043h2v-.042h-2zm0 .03c-.016 1.147-.46 2.201-1.269 2.912l1.32 1.503c1.287-1.13 1.927-2.748 1.949-4.388l-2-.027zm-1.269 2.912L-.66 24.592l1.32 1.502 2.156-1.895-1.32-1.502zM-.966 25.6a21.995 21.995 0 0 0 1.864 4.748l1.758-.955c-.74-1.356-1.281-2.769-1.69-4.308l-1.932.515zm2.78 5.27l2.892-.108-.074-1.999-2.892.108.074 1.999zm2.892-.108c1.077-.04 2.124.42 2.923 1.242l1.435-1.394c-1.144-1.177-2.721-1.91-4.432-1.846l.074 1.998zm2.893 1.21a1.221 1.221 0 0 0 .055.058l-.003-.003a.724.724 0 0 1-.022-.025l1.494-1.328a1.221 1.221 0 0 0-.055-.058c-.003-.004 0-.001.003.002a.724.724 0 0 1 .023.025l-1.495 1.329zm.062.065c.801.82 1.232 1.879 1.162 2.955l1.996.13c.11-1.71-.579-3.308-1.728-4.483l-1.43 1.398zm1.162 2.955l-.186 2.867 1.995.13.187-2.867-1.996-.13zm.31 3.797a22.065 22.065 0 0 0 4.682 2.027l.57-1.917a19.195 19.195 0 0 1-4.249-1.84l-1.003 1.73zm5.7 1.749l1.962-2.115-1.466-1.36-1.963 2.115 1.467 1.36zm1.962-2.115c.733-.79 1.798-1.206 2.945-1.188l.03-2c-1.642-.025-3.276.572-4.441 1.827l1.466 1.36zm2.96-1.188h.001l-.04-.002.165-1.993a2.177 2.177 0 0 0-.125-.005v2zm.03.001c1.147.016 2.201.46 2.912 1.269l1.503-1.32c-1.13-1.287-2.748-1.927-4.388-1.949l-.027 2zm2.912 1.269l1.893 2.155 1.503-1.32-1.893-2.155-1.503 1.32zm2.902 2.461a21.991 21.991 0 0 0 4.748-1.864l-.955-1.758c-1.356.74-2.77 1.281-4.308 1.69l.515 1.932zm5.27-2.78l-.108-2.892-1.999.074.108 2.892 1.999-.074zm-.108-2.892c-.04-1.077.419-2.124 1.242-2.923l-1.394-1.435c-1.177 1.144-1.91 2.721-1.847 4.432l1.999-.075zm1.21-2.893l.04-.037.018-.018-.003.003a.824.824 0 0 1-.025.022l-1.328-1.494a1.28 1.28 0 0 0-.059.055l.003-.003a.744.744 0 0 1 .025-.023l1.328 1.495zm.065-.062c.82-.801 1.879-1.232 2.955-1.162l.13-1.996c-1.71-.11-3.308.579-4.483 1.728l1.398 1.43zm2.955-1.162l2.867.186.13-1.995-2.867-.187-.13 1.996zm3.797-.31a22.064 22.064 0 0 0 2.027-4.682l-1.917-.57a19.195 19.195 0 0 1-1.84 4.249l1.73 1.003zm1.749-5.7l-2.115-1.962-1.36 1.466 2.114 1.963 1.36-1.467zm-2.115-1.962a3.722 3.722 0 0 1-1.19-2.782l-2-.03a5.722 5.722 0 0 0 1.829 4.278l1.36-1.465zm-1.19-2.78l.004-.206-2-.035-.003.207 2 .034zm.004-.209a4.108 4.108 0 0 1 1.396-3.026l-1.32-1.502a6.107 6.107 0 0 0-2.076 4.499l2 .03z"/></defs></svg>