<svg id="Layer_1" xmlns="http://www.w3.org/2000/svg" xmlns:xlink="http://www.w3.org/1999/xlink" viewBox="0 0 100 100"><style>.st0{fill:#fff}.st1,.st2{fill:none;stroke:#0069ff;stroke-width:2;stroke-miterlimit:10}.st2{stroke:url(#SVGID_1_);stroke-linecap:round}.st3{fill:url(#SVGID_2_)}.st4{fill:url(#SVGID_3_)}.st5{fill:url(#SVGID_4_)}.st6{fill:url(#SVGID_7_)}.st7{fill:url(#SVGID_8_)}.st8{fill:url(#SVGID_9_)}.st9{fill:none;stroke:url(#SVGID_12_);stroke-width:2;stroke-linecap:round;stroke-miterlimit:10}.st10{fill:url(#SVGID_13_)}.st11{fill:url(#SVGID_14_)}.st12{fill:url(#SVGID_15_)}.st13{fill:url(#SVGID_18_)}.st14{fill:url(#SVGID_19_)}.st15{fill:url(#SVGID_20_)}.st16{fill:#0069ff}</style><path class="st0" d="M0 0h100v100H0z"/><path class="st1" d="M92.7 61.9l-15.9-9.8L54.2 66m22.3-41.5v27.6"/><linearGradient id="SVGID_1_" gradientUnits="userSpaceOnUse" x1="73.417" y1="23.735" x2="73.417" y2="76.925"><stop offset="0" stop-color="#0069ff"/><stop offset=".809" stop-color="#0069ff"/></linearGradient><path class="st2" d="M76.8 24.9L54.2 38.8V66l15.9 9.8 22.6-14V34.7z"/><path class="st0" d="M78.8 44.1L59 56.2v6.2l9.1 5.6 19.7-12.2v-6.1z"/><linearGradient id="SVGID_2_" gradientUnits="userSpaceOnUse" x1="81.506" y1="47.284" x2="57.33" y2="64.174"><stop offset="0" stop-color="#0069ff"/><stop offset=".151" stop-color="#2d84ff"/><stop offset=".464" stop-color="#86b8ff"/><stop offset=".72" stop-color="#c7deff"/><stop offset=".905" stop-color="#f0f6ff"/><stop offset="1" stop-color="#fff"/></linearGradient><path class="st3" d="M78.8 44.1L59 56.2l9.1 5.6 19.7-12.1z"/><linearGradient id="SVGID_3_" gradientUnits="userSpaceOnUse" x1="45.623" y1="79.392" x2="99.501" y2="45.106"><stop offset="0" stop-color="#0069ff"/><stop offset=".151" stop-color="#2d84ff"/><stop offset=".464" stop-color="#86b8ff"/><stop offset=".72" stop-color="#c7deff"/><stop offset=".905" stop-color="#f0f6ff"/><stop offset="1" stop-color="#fff"/></linearGradient><path class="st4" d="M68.1 61.8l19.7-12.1v6.1L68.1 68z"/><linearGradient id="SVGID_4_" gradientUnits="userSpaceOnUse" x1="57.498" y1="58.25" x2="110.573" y2="92.066"><stop offset="0" stop-color="#0069ff"/><stop offset=".026" stop-color="#086eff"/><stop offset=".415" stop-color="#7ab3ff"/><stop offset=".588" stop-color="#a7ceff"/><stop offset=".721" stop-color="#c8e0ff"/><stop offset=".904" stop-color="#f0f6ff"/><stop offset="1" stop-color="#fff"/></linearGradient><path class="st5" d="M68.1 68v-6.2L59 56.2v6.2z"/><defs><path id="SVGID_5_" d="M78.8 44.1L59 56.2v6.2l9.1 5.6 19.7-12.2v-6.2z"/></defs><clipPath id="SVGID_6_"><use xlink:href="#SVGID_5_" overflow="visible"/></clipPath><path class="st0" d="M78.8 32.6L59 44.8V51l9.1 5.6 19.7-12.2v-6.2z"/><linearGradient id="SVGID_7_" gradientUnits="userSpaceOnUse" x1="81.506" y1="35.864" x2="58.718" y2="51.785"><stop offset="0" stop-color="#0069ff"/><stop offset=".151" stop-color="#2d84ff"/><stop offset=".464" stop-color="#86b8ff"/><stop offset=".72" stop-color="#c7deff"/><stop offset=".905" stop-color="#f0f6ff"/><stop offset="1" stop-color="#fff"/></linearGradient><path class="st6" d="M78.8 32.6L59 44.8l9.1 5.6 19.7-12.2z"/><linearGradient id="SVGID_8_" gradientUnits="userSpaceOnUse" x1="45.623" y1="67.972" x2="99.501" y2="33.687"><stop offset="0" stop-color="#0069ff"/><stop offset=".151" stop-color="#2d84ff"/><stop offset=".464" stop-color="#86b8ff"/><stop offset=".72" stop-color="#c7deff"/><stop offset=".905" stop-color="#f0f6ff"/><stop offset="1" stop-color="#fff"/></linearGradient><path class="st7" d="M68.1 50.4l19.7-12.2v6.2L68.1 56.6z"/><linearGradient id="SVGID_9_" gradientUnits="userSpaceOnUse" x1="57.498" y1="46.83" x2="110.573" y2="80.647"><stop offset="0" stop-color="#0069ff"/><stop offset=".026" stop-color="#086eff"/><stop offset=".415" stop-color="#7ab3ff"/><stop offset=".588" stop-color="#a7ceff"/><stop offset=".721" stop-color="#c8e0ff"/><stop offset=".904" stop-color="#f0f6ff"/><stop offset="1" stop-color="#fff"/></linearGradient><path class="st8" d="M68.1 56.6v-6.2L59 44.8V51z"/><defs><path id="SVGID_10_" d="M78.8 32.6L59 44.8V51l9.1 5.6 19.7-12.2v-6.2z"/></defs><clipPath id="SVGID_11_"><use xlink:href="#SVGID_10_" overflow="visible"/></clipPath><path class="st1" d="M45.8 61.9l-15.9-9.8L7.3 66m22.4-41.5v27.6"/><linearGradient id="SVGID_12_" gradientUnits="userSpaceOnUse" x1="26.583" y1="23.735" x2="26.583" y2="76.925"><stop offset="0" stop-color="#0069ff"/><stop offset=".809" stop-color="#0069ff"/></linearGradient><path class="st9" d="M29.9 24.9L7.3 38.8V66l15.9 9.8 22.6-14V34.7z"/><path class="st0" d="M31.9 44.1L12.2 56.2v6.2l9 5.6L41 55.8v-6.1z"/><linearGradient id="SVGID_13_" gradientUnits="userSpaceOnUse" x1="34.673" y1="47.284" x2="10.556" y2="64.132"><stop offset="0" stop-color="#0069ff"/><stop offset=".151" stop-color="#2d84ff"/><stop offset=".464" stop-color="#86b8ff"/><stop offset=".72" stop-color="#c7deff"/><stop offset=".905" stop-color="#f0f6ff"/><stop offset="1" stop-color="#fff"/></linearGradient><path class="st10" d="M31.9 44.1L12.2 56.2l9 5.6L41 49.7z"/><linearGradient id="SVGID_14_" gradientUnits="userSpaceOnUse" x1="-1.21" y1="79.392" x2="52.668" y2="45.106"><stop offset="0" stop-color="#0069ff"/><stop offset=".151" stop-color="#2d84ff"/><stop offset=".464" stop-color="#86b8ff"/><stop offset=".72" stop-color="#c7deff"/><stop offset=".905" stop-color="#f0f6ff"/><stop offset="1" stop-color="#fff"/></linearGradient><path class="st11" d="M21.2 61.8L41 49.7v6.1L21.2 68z"/><linearGradient id="SVGID_15_" gradientUnits="userSpaceOnUse" x1="10.665" y1="58.25" x2="63.739" y2="92.066"><stop offset="0" stop-color="#0069ff"/><stop offset=".026" stop-color="#086eff"/><stop offset=".415" stop-color="#7ab3ff"/><stop offset=".588" stop-color="#a7ceff"/><stop offset=".721" stop-color="#c8e0ff"/><stop offset=".904" stop-color="#f0f6ff"/><stop offset="1" stop-color="#fff"/></linearGradient><path class="st12" d="M21.2 68v-6.2l-9-5.6v6.2z"/><defs><path id="SVGID_16_" d="M31.9 44.1L12.2 56.2v6.2l9 5.6L41 55.8v-6.2z"/></defs><clipPath id="SVGID_17_"><use xlink:href="#SVGID_16_" overflow="visible"/></clipPath><path class="st0" d="M31.9 32.6L12.2 44.8V51l9 5.6L41 44.4v-6.2z"/><linearGradient id="SVGID_18_" gradientUnits="userSpaceOnUse" x1="34.673" y1="35.864" x2="9.392" y2="53.526"><stop offset="0" stop-color="#0069ff"/><stop offset=".151" stop-color="#2d84ff"/><stop offset=".464" stop-color="#86b8ff"/><stop offset=".72" stop-color="#c7deff"/><stop offset=".905" stop-color="#f0f6ff"/><stop offset="1" stop-color="#fff"/></linearGradient><path class="st13" d="M31.9 32.6L12.2 44.8l9 5.6L41 38.2z"/><linearGradient id="SVGID_19_" gradientUnits="userSpaceOnUse" x1="-1.21" y1="67.972" x2="52.668" y2="33.687"><stop offset="0" stop-color="#0069ff"/><stop offset=".151" stop-color="#2d84ff"/><stop offset=".464" stop-color="#86b8ff"/><stop offset=".72" stop-color="#c7deff"/><stop offset=".905" stop-color="#f0f6ff"/><stop offset="1" stop-color="#fff"/></linearGradient><path class="st14" d="M21.2 50.4L41 38.2v6.2L21.2 56.6z"/><linearGradient id="SVGID_20_" gradientUnits="userSpaceOnUse" x1="10.665" y1="46.83" x2="63.739" y2="80.647"><stop offset="0" stop-color="#0069ff"/><stop offset=".026" stop-color="#086eff"/><stop offset=".415" stop-color="#7ab3ff"/><stop offset=".588" stop-color="#a7ceff"/><stop offset=".721" stop-color="#c8e0ff"/><stop offset=".904" stop-color="#f0f6ff"/><stop offset="1" stop-color="#fff"/></linearGradient><path class="st15" d="M21.2 56.6v-6.2l-9-5.6V51z"/><defs><path id="SVGID_21_" d="M31.9 32.6L12.2 44.8V51l9 5.6L41 44.4v-6.2z"/></defs><clipPath id="SVGID_22_"><use xlink:href="#SVGID_21_" overflow="visible"/></clipPath><path class="st16" d="M69 23.4c0-.6.5-1 1-1s1 .4 1 1c0 .5-.5 1-1 1s-1-.4-1-1zm-4.5 0c0-.6.5-1 1-1s1 .4 1 1c0 .5-.5 1-1 1s-1-.4-1-1zm-4.5 0c0-.6.5-1 1-1s1 .4 1 1c0 .5-.5 1-1 1s-1-.4-1-1zm-4.5 0c0-.6.5-1 1-1s1 .4 1 1c0 .5-.5 1-1 1s-1-.4-1-1zm-4.5 0c0-.6.5-1 1-1s1 .4 1 1c0 .5-.5 1-1 1s-1-.4-1-1zm-4.5 0c0-.6.5-1 1-1s1 .4 1 1c0 .5-.5 1-1 1s-1-.4-1-1zm-4.5 0c0-.6.5-1 1-1s1 .4 1 1c0 .5-.5 1-1 1s-1-.4-1-1zm-4.5 0c0-.6.5-1 1-1s1 .4 1 1c0 .5-.5 1-1 1s-1-.4-1-1zm23.9 53.2c0-.6.5-1 1-1 .6 0 1 .4 1 1 0 .5-.4 1-1 1s-1-.5-1-1zm-4.5 0c0-.6.5-1 1-1 .6 0 1 .4 1 1 0 .5-.4 1-1 1s-1-.5-1-1zm-4.5 0c0-.6.5-1 1-1 .6 0 1 .4 1 1 0 .5-.4 1-1 1s-1-.5-1-1zm-4.5 0c0-.6.5-1 1-1 .6 0 1 .4 1 1 0 .5-.4 1-1 1s-1-.5-1-1zm-4.5 0c0-.6.5-1 1-1 .6 0 1 .4 1 1 0 .5-.4 1-1 1s-1-.5-1-1zm-4.5 0c0-.6.5-1 1-1 .6 0 1 .4 1 1 0 .5-.4 1-1 1s-1-.5-1-1zm-4.5 0c0-.6.5-1 1-1 .6 0 1 .4 1 1 0 .5-.4 1-1 1s-1-.5-1-1zm-4.5 0c0-.6.5-1 1-1 .6 0 1 .4 1 1 0 .5-.5 1-1 1-.6 0-1-.5-1-1z"/></svg>