<svg id="Layer_1" xmlns="http://www.w3.org/2000/svg" viewBox="0 0 58 58"><style>.st0{fill:#fff}.st1{fill:url(#XMLID_2_)}.st2{fill:url(#XMLID_3_)}.st3{fill:url(#XMLID_4_)}.st4{fill:url(#XMLID_5_)}.st5{fill:none;stroke:#0069ff;stroke-width:2;stroke-miterlimit:10}</style><path class="st0" d="M0 0h58v58H0z"/><linearGradient id="XMLID_2_" gradientUnits="userSpaceOnUse" x1="24.805" y1="42.741" x2="57.662" y2="42.741"><stop offset="0" stop-color="#0069ff"/><stop offset=".995" stop-color="#0069ff" stop-opacity=".2"/></linearGradient><path id="XMLID_547_" class="st1" d="M41.2 34.5c-7 0-16.4 4.5-16.4 16.5l32.9-.1c-.1-12.1-9.6-16.4-16.5-16.4z"/><linearGradient id="XMLID_3_" gradientUnits="userSpaceOnUse" x1="32.834" y1="28.828" x2="49.595" y2="28.828"><stop offset="0" stop-color="#0069ff"/><stop offset=".995" stop-color="#0069ff" stop-opacity=".2"/></linearGradient><circle id="XMLID_546_" class="st2" cx="41.2" cy="28.8" r="8.4"/><linearGradient id="XMLID_4_" gradientUnits="userSpaceOnUse" x1=".338" y1="42.814" x2="33.195" y2="42.814"><stop offset="0" stop-color="#0069ff"/><stop offset=".995" stop-color="#0069ff" stop-opacity=".2"/></linearGradient><path id="XMLID_545_" class="st3" d="M16.7 34.6C9.7 34.6.3 39.1.3 51.1l32.9-.1c-.1-12.1-9.5-16.5-16.5-16.4z"/><linearGradient id="XMLID_5_" gradientUnits="userSpaceOnUse" x1="8.346" y1="28.901" x2="25.057" y2="28.901"><stop offset="0" stop-color="#0069ff"/><stop offset=".995" stop-color="#0069ff" stop-opacity=".2"/></linearGradient><circle id="XMLID_544_" class="st4" cx="16.7" cy="28.9" r="8.4"/><g id="XMLID_540_"><path id="XMLID_543_" class="st5" d="M29.3 12.6v-6"/><path id="XMLID_542_" class="st5" d="M19.5 12.2l4.3 4.3"/><path id="XMLID_541_" class="st5" d="M38.4 12.1l-4.3 4.2"/></g></svg>