<svg id="Layer_1" xmlns="http://www.w3.org/2000/svg" viewBox="0 0 58 58"><style>.st0{fill:#fff}.st1{fill:url(#SVGID_1_)}.st2{fill:url(#SVGID_2_)}.st3{fill:url(#SVGID_3_)}.st4{fill:url(#SVGID_4_)}.st5{fill:url(#SVGID_5_)}.st6{fill:url(#SVGID_6_)}.st7{fill:url(#SVGID_7_)}.st8{fill:url(#SVGID_8_)}.st9{fill:none;stroke:#0069ff;stroke-width:2;stroke-miterlimit:10}</style><path class="st0" d="M0 0h58v58H0z"/><linearGradient id="SVGID_1_" gradientUnits="userSpaceOnUse" x1="6.315" y1="29.266" x2="38.067" y2="57.607"><stop offset="0" stop-color="#0072ff"/><stop offset=".151" stop-color="#2d8bff"/><stop offset=".464" stop-color="#86bcff"/><stop offset=".72" stop-color="#c7e0ff"/><stop offset=".905" stop-color="#f0f6ff"/><stop offset="1" stop-color="#fff"/></linearGradient><path class="st1" d="M16.4 29H6.8c0 12.3 9.9 22.2 22.2 22.2v-9.6c-7 0-12.6-5.6-12.6-12.6z"/><linearGradient id="SVGID_2_" gradientUnits="userSpaceOnUse" x1="40.104" y1="51.207" x2="40.104" y2="6.793"><stop offset="0" stop-color="#0072ff"/><stop offset=".151" stop-color="#2d8bff"/><stop offset=".464" stop-color="#86bcff"/><stop offset=".72" stop-color="#c7e0ff"/><stop offset=".905" stop-color="#f0f6ff"/><stop offset="1" stop-color="#fff"/></linearGradient><path class="st2" d="M51.2 29h-9.6c0 7-5.6 12.6-12.6 12.6v9.6c12.3 0 22.2-9.9 22.2-22.2z"/><linearGradient id="SVGID_3_" gradientUnits="userSpaceOnUse" x1="31.558" y1="53.117" x2="51.694" y2="18.159"><stop offset="0" stop-color="#0072ff"/><stop offset=".151" stop-color="#2d8bff"/><stop offset=".464" stop-color="#86bcff"/><stop offset=".72" stop-color="#c7e0ff"/><stop offset=".905" stop-color="#f0f6ff"/><stop offset="1" stop-color="#fff"/></linearGradient><path class="st3" d="M51.2 29h-9.6c0 7-5.6 12.6-12.6 12.6v9.6c12.3 0 22.2-9.9 22.2-22.2z"/><linearGradient id="SVGID_4_" gradientUnits="userSpaceOnUse" x1="17.896" y1="51.207" x2="17.896" y2="6.793"><stop offset="0" stop-color="#0072ff"/><stop offset=".151" stop-color="#2d8bff"/><stop offset=".464" stop-color="#86bcff"/><stop offset=".72" stop-color="#c7e0ff"/><stop offset=".905" stop-color="#f0f6ff"/><stop offset="1" stop-color="#fff"/></linearGradient><path class="st4" d="M29 16.4V6.8C16.7 6.8 6.8 16.7 6.8 29h9.6c0-7 5.6-12.6 12.6-12.6z"/><linearGradient id="SVGID_5_" gradientUnits="userSpaceOnUse" x1="26.192" y1="6.287" x2="7.561" y2="35.941"><stop offset="0" stop-color="#0072ff"/><stop offset=".151" stop-color="#2d8bff"/><stop offset=".464" stop-color="#86bcff"/><stop offset=".72" stop-color="#c7e0ff"/><stop offset=".905" stop-color="#f0f6ff"/><stop offset="1" stop-color="#fff"/></linearGradient><path class="st5" d="M29 16.4V6.8C16.7 6.8 6.8 16.7 6.8 29h9.6c0-7 5.6-12.6 12.6-12.6z"/><linearGradient id="SVGID_6_" gradientUnits="userSpaceOnUse" x1="40.104" y1="51.207" x2="40.104" y2="6.793"><stop offset="0" stop-color="#0072ff"/><stop offset=".151" stop-color="#2d8bff"/><stop offset=".464" stop-color="#86bcff"/><stop offset=".72" stop-color="#c7e0ff"/><stop offset=".905" stop-color="#f0f6ff"/><stop offset="1" stop-color="#fff"/></linearGradient><path class="st6" d="M29 6.8v9.6c7 0 12.6 5.6 12.6 12.6h9.6c0-12.3-9.9-22.2-22.2-22.2z"/><linearGradient id="SVGID_7_" gradientUnits="userSpaceOnUse" x1="40.104" y1="81.52" x2="40.104" y2="-22.457"><stop offset="0" stop-color="#0072ff"/><stop offset=".151" stop-color="#2d8bff"/><stop offset=".464" stop-color="#86bcff"/><stop offset=".72" stop-color="#c7e0ff"/><stop offset=".905" stop-color="#f0f6ff"/><stop offset="1" stop-color="#fff"/></linearGradient><path class="st7" d="M29 6.8v9.6c7 0 12.6 5.6 12.6 12.6h9.6c0-12.3-9.9-22.2-22.2-22.2z"/><linearGradient id="SVGID_8_" gradientUnits="userSpaceOnUse" x1="52.746" y1="26.663" x2="17.965" y2="5.345"><stop offset="0" stop-color="#0072ff"/><stop offset=".151" stop-color="#2d8bff"/><stop offset=".464" stop-color="#86bcff"/><stop offset=".72" stop-color="#c7e0ff"/><stop offset=".905" stop-color="#f0f6ff"/><stop offset="1" stop-color="#fff"/></linearGradient><path class="st8" d="M29 6.8v9.6c7 0 12.6 5.6 12.6 12.6h9.6c0-12.3-9.9-22.2-22.2-22.2z"/><path class="st9" d="M29 36.4s-7.6-4.4-7.6-8.9c0-2.1 1.7-3.8 3.8-3.8s3.8 1.7 3.8 3.8c0-2.1 1.7-3.8 3.8-3.8s3.8 1.6 3.8 3.8c0 4.5-7.6 8.9-7.6 8.9z"/></svg>