<svg width="473" height="362" viewBox="0 0 473 362" xmlns="http://www.w3.org/2000/svg" xmlns:xlink="http://www.w3.org/1999/xlink" xmlns:figma="http://www.figma.com/figma/ns"><title>tools</title><desc>Created using Figma</desc><g figma:type="canvas"><g figma:type="frame"><use xlink:href="#a" fill="#77B0F3" figma:type="vector"/></g></g><defs><path id="a" d="M318.494 336.362a8.223 8.223 0 0 0-1.9-1.311 27.329 27.329 0 0 0-2.181-.977 328.11 328.11 0 0 1-2.18-.874 9.522 9.522 0 0 1-1.9-1.013c-.56-.39-1.028-.857-1.366-1.405-.339-.549-.524-1.223-.524-2.026v-.471c0-.559.122-1.08.333-1.562a3.97 3.97 0 0 1 .875-1.266c.368-.362.798-.32 1.283-.53.484-.21 1.011.012 1.571.012h1.402c.56 0 1.083-.222 1.567-.012.485.21.909.332 1.27.693.362.361.681.701.89 1.185.21.481.348.921.348 1.48v1.013l2.12.015v-1.027c0-.85-.124-1.648-.445-2.392a6.15 6.15 0 0 0-1.304-1.956c-.561-.559-1.205-.656-1.952-.978-.748-.32-1.538-.139-2.39-.139h-1.612c-.852 0-1.654-.181-2.408.139-.753.321-1.409.59-1.97 1.149a5.667 5.667 0 0 0-1.27 1.87c-.321.744-.429 1.457-.429 2.307v.471c0 1.072.116 1.973.456 2.707.339.732.762 1.352 1.322 1.86a7.91 7.91 0 0 0 1.887 1.265c.707.339 1.427.646 2.174.926.747.279 1.471.559 2.177.838.707.28 1.338.62 1.898 1.023.561.4.954.886 1.294 1.457.339.571.452 1.286.452 2.148v.75c0 .559-.059 1.08-.286 1.562a4.163 4.163 0 0 1-.893 1.276c-.384.365-.815.84-1.317 1.049-.502.21-1.02.5-1.58.5h-1.577c-.56 0-1.094-.29-1.602-.5-.508-.209-.954-.591-1.34-.956-.385-.368-1.064-.838-1.291-1.322-.228-.482-.713-1.05-.713-1.609v-1.361l-2.12-.01v1.371c0 .851.475 1.648.819 2.392.345.745.956 1.397 1.535 1.956.578.559 1.325 1.177 2.089 1.498.764.32 1.649.659 2.502.659h1.804c.852 0 1.661-.339 2.425-.659.764-.321 1.436-.849 2.014-1.408.577-.559.914-1.257 1.259-2 .344-.745.392-1.587.392-2.437v-.75c0-1.072-.045-1.98-.384-2.724-.339-.746-.664-1.378-1.224-1.896zm21.538-12.424c-.561-.559-1.215-.656-1.961-.978-.747-.32-1.547-.139-2.4-.139h-1.786c-.852 0-1.654-.181-2.408.139-.752.321-1.409.59-1.97 1.149-.561.558-1.092 1.125-1.413 1.87-.321.744-.572 1.457-.572 2.307v13.444c0 .85.251 1.648.572 2.392.321.745.808 1.397 1.367 1.956.561.559 1.24 1.177 1.993 1.498.754.32 1.579.659 2.43.659h1.786c.853 0 1.653-.339 2.4-.659.747-.321 1.401-.849 1.961-1.408.561-.559.733-1.257 1.055-2 .321-.745.214-1.588.214-2.437v-13.445c0-.85.108-1.648-.214-2.392s-.493-1.397-1.054-1.956zm-.852 17.792c0 .559.093 1.08-.117 1.562-.21.484-.397.907-.759 1.276-.361.365-.735.84-1.22 1.049-.484.21-.957.5-1.518.5h-1.576c-.56 0-1.083-.29-1.567-.5-.485-.209-.911-.591-1.279-.956-.367-.368-.817-.838-1.027-1.322-.21-.482-.476-1.05-.476-1.609v-13.444c0-.559.266-1.08.476-1.562.21-.484.58-.905.948-1.266s.834-.32 1.318-.53c.485-.209 1.048.012 1.608.012h1.577c.56 0 1.083-.221 1.567-.012.485.21.909.332 1.27.693.361.361.449.701.659 1.185.21.481.117.921.117 1.48v13.444h-.001zm44.411-17.442c-.561-.559-1.217-.832-1.97-1.152-.753-.32-1.556-.314-2.408-.314h-8.235v25.413h2.12v-9.53h6.115c.852 0 1.654-.559 2.408-.88.753-.32 1.409-.958 1.97-1.517.561-.558.683-1.31 1.004-2.055.321-.746.163-1.644.163-2.492v-3.108c0-.849.159-1.648-.163-2.401-.322-.75-.443-1.405-1.004-1.964zm-.954 7.473c0 .559.144 1.08-.066 1.563-.209.482-.374.905-.743 1.265-.367.36-.731 1.06-1.215 1.27-.485.21-.945.728-1.505.728h-6.01V324.94h6.01c.56 0 1.083-.047 1.567.163.485.21.911.421 1.279.789.367.365.408.753.617 1.235.21.484.066.967.066 1.526v3.108zm-97.514 16.474h13.779v-2.118h-11.659v-9.53h9.539v-2.117h-9.539v-9.53h11.659v-2.118h-13.779v25.413zm-16.205-10.589h-.136l-7.157-14.824h-1.94v25.413h2.119v-19.754l6.484 12.342h1.156l5.08-12.342v19.754h2.12v-25.413h-.57l-7.156 14.824zm134.918-3.176h-9.539v-11.648h-2.12v25.413h2.12v-11.648h9.539v11.648h2.12v-25.413h-2.12v11.648zm55.117 13.765h13.779v-2.118h-11.659v-9.53h9.539v-2.117h-9.539v-9.53h11.659v-2.118h-13.779v25.413zm-11.678-11.873a6.203 6.203 0 0 0 1.962-1.32c.561-.559.718-1.214 1.039-1.964.321-.752.198-1.552.198-2.401v-2.026c0-.849.123-1.648-.198-2.401-.321-.75-.62-1.405-1.181-1.963-.56-.558-1.143-.832-1.891-1.153-.747-.319-1.476-.313-2.328-.313h-8.182v25.413h2.12v-10.589h3.453l6.812 10.589h2.61l-6.812-11.04c.851.001 1.651-.512 2.398-.832zm-8.461-.834V324.94h5.957c.56 0 1.083-.047 1.567.163.485.21.908.421 1.27.789.362.365.435.753.645 1.235.209.484.101.967.101 1.526v2.026c0 .559.11 1.08-.101 1.563-.21.482-.389.907-.752 1.274-.361.368-.731 1.072-1.216 1.282-.484.21-.954.732-1.513.732h-5.958v-.002zm-23.319 12.707h13.779v-2.118h-11.659v-9.53h9.54v-2.117h-9.54v-9.53h11.659v-2.118h-13.779v25.413zm-53.811-11.873a8.201 8.201 0 0 0-1.9-1.311 27.307 27.307 0 0 0-2.18-.977c-.748-.296-1.475-.588-2.181-.874a9.55 9.55 0 0 1-1.9-1.013c-.561-.39-1.424-.857-1.763-1.405-.339-.549-.922-1.223-.922-2.026v-.471c0-.559.519-1.08.729-1.562.21-.484.706-.905 1.074-1.266.368-.362.898-.32 1.382-.53.485-.21 1.111.012 1.672.012h1.401c.561 0 1.083-.222 1.568-.012.484.21.908.332 1.269.693.363.361.284.701.494 1.185.21.481-.048.921-.048 1.48v1.013l2.119.015v-1.027c0-.85.274-1.648-.047-2.392s-.545-1.397-1.106-1.956c-.561-.559-1.105-.656-1.853-.978-.747-.32-1.438-.139-2.29-.139h-1.611c-.852 0-1.655-.181-2.408.139-.753.321-1.41.59-1.971 1.149-.561.558-1.345 1.125-1.666 1.87-.321.744-.826 1.457-.826 2.307v.471c0 1.072.514 1.973.852 2.707.34.732.961 1.352 1.521 1.86.561.505 1.28.926 1.987 1.265a27.56 27.56 0 0 0 2.224.926c.747.279 1.495.559 2.201.838.707.28 1.35.62 1.911 1.023.561.4.563.886.902 1.457.339.571.062 1.286.062 2.148v.75c0 .559.338 1.08.11 1.562-.228.484-.309.908-.693 1.276-.386.365-.717.84-1.218 1.049-.502.21-.92.5-1.481.5h-1.576c-.561 0-1.095-.29-1.603-.5-.507-.209-.955-.591-1.339-.956-.386-.368-.931-.838-1.159-1.322-.228-.482-.58-1.05-.58-1.609v-1.361l-2.12-.01v1.371c0 .851.342 1.648.686 2.392.345.745.89 1.397 1.468 1.956.578.559 1.292 1.177 2.056 1.498.765.32 1.616.659 2.468.659h1.804c.852 0 1.661-.339 2.425-.659.764-.321 1.436-.849 2.014-1.408a6.716 6.716 0 0 0 1.392-2 5.847 5.847 0 0 0 .525-2.437v-.75c0-1.072-.178-1.98-.516-2.724a5.862 5.862 0 0 0-1.359-1.896zm-120.685-13.37c-.345-.224-.741-.17-1.348-.17h-45.187c-.454 0-1.298-.121-1.744.216-1.042.558-1.931 1.489-1.931 2.671v26.094c0 1.628 1.293 2.368 2.286 2.368.465 0 1.052-.146 1.522-.435l11.9-7.274 8.432 12.386c.519.764 1.297 1.204 2.11 1.204s1.584-.44 2.103-1.204l10.643-15.68 9.6 4.715c.417.206.839.309 1.25.309h.001c.655 0 1.172-.265 1.582-.748.378-.445.508-1.039.508-1.72v-20.018c0-1.217-.631-2.172-1.727-2.714zm-3.005 1.948l-18.251 11.207-22.813-11.207h41.064zm-44.413 26.97c-.073.045-.371.072-.416.089-.01-.048-.256-.113-.256-.196v-24.74l12.196 17.621-11.524 7.226zm1.897-25.596l22.102 10.858-10.402 6.387-11.7-17.245zm21.889 31.333c-.123.18-.246.262-.315.262s-.192-.081-.315-.262l-8.352-12.309 11.472-7.046 7.981 3.921-10.471 15.434zm11.69-17.228l-7.034-3.456 16.077-9.873-9.043 13.329zm11.549 5.307c0 .212.004.314.005.321 0 .001-.045.04-.302-.086l-9.374-4.584 9.671-14.314v18.663zm84.699-308.757l-7.32 7.312a.537.537 0 0 0 0 .762l7.32 7.313c.21.21.551.21.762 0l7.32-7.313a.537.537 0 0 0 0-.762l-7.32-7.312a.538.538 0 0 0-.762 0zm0-4.528c.21.21.551.21.762 0l7.32-7.313a.537.537 0 0 0 0-.762l-7.32-7.312a.538.538 0 0 0-.762 0l-7.32 7.312a.537.537 0 0 0 0 .762l7.32 7.313zm9.429-10.767a.54.54 0 0 0 .763 0l7.321-7.314a.54.54 0 0 0 0-.761l-7.321-7.314a.541.541 0 0 0-.763 0l-7.319 7.314c-.21.21-.21.55 0 .761l7.319 7.314zm2.11 3.455l7.32 7.313a.538.538 0 0 0 .762 0l7.321-7.313a.537.537 0 0 0 0-.762l-7.321-7.312a.538.538 0 0 0-.762 0l-7.32 7.312a.537.537 0 0 0 0 .762zm107.229 28.55c6.45 0 8.52-2.52 8.52-5.642V31.47c0-3.121-2.07-5.643-8.52-5.643-6.409 0-8.439 2.522-8.439 5.643v16.568c0 3.122 2.03 5.643 8.439 5.643zm-6.319-21.89c0-2.442 1.693-4.122 6.339-4.122 4.687 0 6.38 1.68 6.38 4.122v15.928c0 2.442-1.693 4.123-6.38 4.123-4.646 0-6.339-1.68-6.339-4.123V31.79zm-15.133 25.26h1.501c.144 0 .297-.486.336-.63l8.877-32.922c.039-.145-.049-.334-.196-.334h-1.501c-.144 0-.297.006-.336.149l-8.877 33.161c-.038.146.05.575.196.575zm-12.425-3.37c7.251 0 9.539-3.16 9.539-6.523v-2.48c0-.72-.335-.334-1.016-.334h-3.326c-.72 0-.958-.388-.958.333v1.52c0 2.002-1.576 3.003-4.26 3.003-2.683 0-4.219-1-4.219-3.002V33.31c0-2.002 1.536-3.002 4.219-3.002 2.684 0 4.26 1 4.26 3.002v.96c0 .72.238 1.6.958 1.6h3.326c.681 0 1.016-.88 1.016-1.6v-1.92c0-3.363-2.288-6.525-9.539-6.525-7.251 0-9.54 3.162-9.54 6.524v14.807c0 3.362 2.289 6.524 9.54 6.524zm-75.462 8.098a.54.54 0 0 0 .763 0l7.321-7.313a.54.54 0 0 0 0-.76l-7.321-7.314a.54.54 0 0 0-.763 0l-7.319 7.313c-.21.21-.21.55 0 .761l7.319 7.313zm.763-18.841l7.321-7.313a.54.54 0 0 0 0-.761l-7.321-7.314a.542.542 0 0 0-.763 0l-7.319 7.314c-.21.21-.21.55 0 .761l7.319 7.313a.54.54 0 0 0 .763 0zm10.776-7.313l7.321 7.313c.21.21.551.21.762 0l7.32-7.313a.537.537 0 0 0 0-.761l-7.32-7.314a.54.54 0 0 0-.762 0l-7.321 7.314c-.21.21-.21.55 0 .761zm-11.535 36.945a.534.534 0 0 0 .755 0l26.184-26.158a.533.533 0 0 0 0-.755l-3.699-3.696-21.352 21.331a2.138 2.138 0 0 1-3.021 0l-21.352-21.33-3.699 3.695a.533.533 0 0 0 0 .755l26.184 26.158zm10.188-20.212l7.321-7.313a.537.537 0 0 0 0-.762l-7.321-7.312a.538.538 0 0 0-.762 0l-7.32 7.312a.537.537 0 0 0 0 .762l7.32 7.313a.538.538 0 0 0 .762 0zm-29.051-9.42a.54.54 0 0 0 .762 0l7.32-7.313a.539.539 0 0 0 0-.761l-7.32-7.314a.54.54 0 0 0-.762 0l-7.32 7.314a.537.537 0 0 0 0 .761l7.32 7.313zm62.544 10.935h8.853c7.251 0 9.144-3.793 9.144-7.155V32.548c0-3.362-1.893-6.208-9.144-6.208h-8.733c-.72 0-1.201.004-1.201.725V52.2c0 .68.44 1.672 1.081 1.672zm4.218-23.295h4.635c2.724 0 3.845.932 3.845 2.934v12.245c0 2.002-1.121 3.881-3.845 3.881h-4.635v-19.06zm86.223 8.857l-8.067-2.922c-1.082-.4-2.9-1.36-2.9-3.402v-1.48c0-2.401 1.713-4.082 6.359-4.082 4.647 0 6.36 1.68 6.36 4.082v1.72c0 .32.224.404.545.404h1.161c.361 0 .414-.084.414-.403v-1.961c0-3.122-2.23-5.643-8.48-5.643-6.289 0-8.479 2.521-8.479 5.643v2.16c0 2.522 2.304 4.123 3.906 4.723l7.53 2.882c1.562.6 3.403 1.56 3.403 3.721v2.841c0 2.402-1.673 4.082-6.4 4.082-4.687 0-6.319-1.68-6.319-4.082v-1.841c0-.36.445-.475.124-.475h-1.162c-.32 0-1.082.114-1.082.475v2.08c0 3.122 2.13 5.643 8.499 5.643 6.37 0 8.46-2.52 8.46-5.642v-3.522c0-2.72-1.87-4.24-3.872-5.001zM217.287 50.695h-6.36v27.53h6.36V66.578h8.48v11.647h7.419v-27.53h-7.419v10.588h-8.48V50.695zm11.068-39.767a73.53 73.53 0 0 0 4.35.01c1.313-.036 2.17-.966 2.127-2.286-.02-.642-.111-1.148-.241-1.778-.424-2.056-.385-3.828-1.601-5.946h-.371c-.182 1.06-.441 2.379-.528 3.647-.141 2.052-1.285 3.16-3.344 3.212-.327.008-.655.003-1.066.028 0 .944-.039 1.787.031 2.637.014.188.413.47.643.476zm-18.487 49.285c.838-3.44-.441-7.824-5.057-9.336-2.321-.76-4.701-.9-7.129-.608-4.444.537-7.666 2.708-9.086 7.027-1.505 4.577-1.421 9.221.107 13.795.943 2.825 2.77 4.971 5.575 6.071 3.622 1.42 7.31 1.39 10.911-.09 3.255-1.34 4.92-3.877 5.099-7.379.021-.416.202-.993-.53-1.066-1.709-.17-3.418-.336-5.174-.509-.01.178-.025.295-.02.41.128 3.291-2.215 5.311-5.463 4.783-2.394-.39-3.527-2.014-4.101-4.12-.824-3.019-.855-6.103-.246-9.155.24-1.208.713-2.436 1.361-3.481 1.06-1.71 3.271-2.258 5.357-1.575 1.681.55 2.472 1.81 2.493 3.978.005.577.001 1.154.001 1.805l5.902-.55zm-84.795 16.282c0-2.9.326-5.798.287-8.697-.011-.74.38-.926 1.099-.948.983-.03 1.776.325 2.232 1.14.525.939 1.004 1.922 1.477 2.889.648 1.326 1.235 2.698 1.974 3.97 1.233 2.123 3.211 2.977 5.615 2.92 2.157-.052 4.319-.142 6.476-.155.56-.003.746-.237.884-.695.381-1.268.807-2.52 1.174-3.791.152-.524.399-.734.971-.726 2.562.03 5.125.028 7.688 0 .554-.006.829.17.989.704a75.805 75.805 0 0 0 1.262 3.858c.09.252.404.6.623.604 2.023.046 4.048.027 6.101.027-.023-.185-.017-.28-.045-.363-2.926-8.688-5.852-17.377-8.81-26.054-.08-.233-.524-.477-.805-.484-1.697-.045-3.396.014-5.093-.04-.701-.023-1.003.187-1.23.872-2.257 6.803-4.556 13.594-6.844 20.386-.328.973-.686 1.18-1.715 1.038-1.433-.198-2.141-1.231-2.751-2.37-.921-1.724-1.827-3.455-2.758-5.217.35-.177.883-.413 1.386-.704 2.641-1.532 4.116-4.507 3.697-7.417-.479-3.32-2.23-5.369-5.418-6.136-1.157-.279-2.54-.393-3.735-.415-3.641-.067-7.909-.051-11.089-.068v27.603h6.36l-.002-1.73zm26.061-18.69c.885 3.106 1.832 6.655 2.802 9.832h-5.689c.995-3.177 1.98-6.742 2.887-9.833zm-25.43-1.88c.003-.177.299-.496.462-.5 1.231-.02 2.476-.087 3.689.074 1.575.209 2.391 1.188 2.545 2.718.168 1.675-.55 3.084-2.021 3.544-.918.286-1.928.291-2.901.378-.546.049-1.101.009-1.796.009.001-2.172-.011-4.198.022-6.223zm136.1 20.545c0-2.9.138-5.799.107-8.698-.007-.668.233-.89.936-.923 1.062-.049 1.838.359 2.325 1.237.491.886.928 1.812 1.361 2.73.523 1.114.969 2.273 1.556 3.35 1.838 3.374 4.365 4.01 7.897 3.362.235-.044.605-.247.627-.416.188-1.387.31-2.783.461-4.26-2.114.464-3.215-.639-4.043-2.196-.93-1.75-1.848-3.509-2.789-5.3.048-.023.265-.135.485-.234 3.489-1.581 5.094-4.673 4.472-8.618-.491-3.112-3.072-5.446-6.756-5.635-4.247-.22-8.557-.127-12.814-.166-.05 0-.184.06-.184.084v27.438h6.359V76.47zm.266-20.478c.004-.2.312-.559.488-.565 1.169-.04 2.35-.094 3.508.033 1.652.18 2.555 1.189 2.702 2.78.162 1.748-.626 3.232-2.214 3.592-1.413.32-2.903.297-4.506.438 0-2.284-.015-4.28.022-6.278zm-19.344 10.586h9.302c0-1.059-.046-2.762.016-3.99.04-.778-.225-1.074-.989-1.06-2.408.04-4.787-.016-7.195-.022-.389-.001-1.134-.078-1.134-.103V55.99h1.116c3.025 0 6.051-.212 9.076-.246.308-.004.871-.417.88-.59.072-1.436.04-2.34.04-4.458h-18.532v27.53h18.019v-5.294h-10.599v-6.354zM163.402 16.26c.974-.807 1.977-1.578 2.973-2.357.248-.194.517-.36.922-.638.033.625.074 1.046.074 1.469.005 5.982.003 11.966.004 17.949.001 2.063.444 2.51 2.475 2.51 2.624 0 5.247.002 7.872 0 1.72 0 2.238-.525 2.241-2.267.004-1.974-.005-3.947.004-5.921.007-1.663.702-2.35 2.379-2.35 7.44-.004 14.881-.004 22.32 0 1.726 0 2.398.676 2.405 2.419.01 2.066-.006 4.133.009 6.198.009 1.302.623 1.91 1.938 1.917 2.903.013 5.805.012 8.706 0 1.278-.005 1.903-.592 1.918-1.838.025-2.16-.009-4.318.02-6.476.01-.67-.265-.839-.884-.82-1.264.036-2.531.02-3.796.008-1.799-.018-3.051-1.162-3.127-2.967a58.878 58.878 0 0 1 .004-4.81c.035-.882.281-1.74 1.304-2.273.024.405.055.699.056.992.005 1.542-.003 3.085.004 4.626.009 1.753 1.061 2.849 2.794 2.862a506.9 506.9 0 0 0 7.501.001c1.726-.011 2.772-1.028 2.794-2.753.057-4.438.086-8.877.11-13.315.003-.614-.069-1.23-.141-1.841-.169-1.443-1.362-1.882-3.161-1.884-4.847-.005-9.693.464-14.54.464h-.761c-.351-2.118-.652-3.177-.954-4.235h-.186c-.337 1.058-.821 1.194-.982 1.916a68.784 68.784 0 0 0-.974 5.468c-.231 1.653.76 2.663 2.462 2.673 1.933.01 3.866-.015 5.794-.015-.089.887-.692 1.387-1.818 1.397-2.068.018-4.137.016-6.205-.004-1.466-.014-2.247-.993-1.997-2.451.208-1.211.424-2.422.634-3.633.153-.884-.336-1.69-1.205-1.89-.446-.103-.916-.128-1.375-.128-7.533-.008-15.065-.005-22.598-.005-2.933 0-5.866.011-8.799-.007-1.01-.006-1.726.341-2.293 1.236-1.733 2.734-3.542 5.42-5.322 8.122-.897 1.362-.875 1.34.182 2.571.436.503.754.465 1.219.08zm22.087 34.412c-1.06 0-2.829.038-4.301-.016-.73-.028-.798.27-.792.916.044 4.593.096 9.186.141 13.779.011 1.127.13 2.255.189 3.382-.068.011-.127.024-.194.036-.068-.094-.154-.178-.194-.282-2.313-5.997-5.737-11.442-8.564-17.183-.235-.479-.521-.658-1.062-.647-1.727.036-3.458.078-5.183-.012-.975-.05-1.182.28-1.178 1.188.03 8.201.018 16.402.018 24.603 0 .216-.055.46.029.64.096.203.312.489.484.493 1.594.038 2.587.022 4.707.022V59.748c0 .433.322.7.447.965.696 1.474 1.338 2.977 2.104 4.414 1.769 3.316 3.599 6.598 5.408 9.891.459.837.746 1.99 1.458 2.403.746.432 1.737.16 2.716.17 1.313.014 2.707.003 3.767.003V50.672zm173.65 94.262h-5.12v20.118h5.3v-13.306c2.119-1.119 3.821-2.104 5.688-2.944l-.369-4.656c-1.883.649-3.596 1.728-5.245 2.844l-.254-2.056zm-87.795 23.856l13.779 8.226v-16.454l-13.779-8.226v16.454zm83.483-42.149c-.469.153-.916.464-1.331.732l-.088-.44h-1.509v5.294h1.06v-3.753c1.06-.268 1.201-.503 1.664-.705l.204-1.128zm17.211 25.105c2.12-1.118 3.649-2.103 5.512-2.944l-.432-4.656c-1.883.649-3.635 1.728-5.285 2.844l-.293-2.056h-4.802v20.118h5.3v-13.306zm18.092 11.8l.374 1.506h4.156l.017-13.468c0-5.064-1.878-7.372-8.235-7.372-2.351.008-4.69.296-6.956.923l.626 3.849c1.845-.395 3.426-.613 5.312-.635 3.243 0 3.572.783 3.572 3.023v2.032h-4.266c-4.113 0-5.904 1.625-5.904 5.734 0 3.484 1.582 6.109 5.278 6.109 2.14-.002 4.234-.535 6.026-1.701zm-4.278-5.906h3.145v2.48a6.605 6.605 0 0 1-3.529 1.042c-1.574 0-1.885-.254-1.885-1.784 0-1.528.608-1.738 2.269-1.738zm-66.811-15.883h7.655l.017 23.295h5.047v-23.295h7.42v-4.236h-20.139v4.236zm31.798 14.824v-4.288c0-4.361-1.232-8.14-7.719-8.14-6.488 0-8.18 3.614-8.18 7.889v5.342c0 4.872 2.447 7.817 8.804 7.817 2.537.009 5.176-.427 7.563-1.285l-.732-3.823a21.711 21.711 0 0 1-6.267.955c-3.078 0-4.068-.955-4.068-3.37v-1.097h10.599zm-10.599-5.043c0-1.912.828-3.24 3.323-3.24s3.036 1.328 3.036 3.24v1.866h-6.359v-1.866zm56.176-2.369h3.18v15.883h5.3v-15.883h5.017l.287-4.235h-5.304v-2.909c0-1.538.37-2.406 2.36-2.406.98.014 1.992.125 2.95.33l.549-3.9c-1.416-.392-3.062-.588-4.531-.583-4.487 0-6.628 2.077-6.628 6.272v3.196h-3.18v4.235zm-38.305-22.493c-.573-.001-.959.255-1.425.588l.053-.331h-1.66v6.797l1.06-.191v-1.963c1.06.088 1.326.134 1.778.139.143.018.155.015.298-.009.82-.135 1.104-.909 1.104-1.728v-1.616c0-1.104-.19-1.686-1.208-1.686zm.148 3.327c0 .442-.355.651-.816.651-.378-.008-.244-.051-1.304-.131v-2.432c1.06-.271.895-.428 1.312-.442.47 0 .808.217.808.616v1.738zm-89.035 3.118l-13.779-8.226v16.452l13.779 8.226v-16.452zm49.817-8.306v7.412h1.06v-3.176h2.12v3.176h1.06v-7.412h-1.06v3.177h-2.12v-3.177h-1.06zm12.507 5.9a5.874 5.874 0 0 1-1.504-.208l-.174.929a6.223 6.223 0 0 0 1.74.279c1.53 0 1.834-.539 1.834-1.538 0-.998-.13-1.181-1.547-1.537-.713-.174-.713-.296-.713-.591 0-.296.095-.417.643-.417a9.43 9.43 0 0 1 1.392.138l.122-.964a7.035 7.035 0 0 0-1.522-.174c-1.453 0-1.879.496-1.879 1.434s.148 1.242 1.382 1.529c.809.182.87.269.87.634s-.079.486-.644.486zm9.47-5.854h-1.27v1.216l1.27-.026v-1.19zm3.548 1.146c.57.013 1.114.071 1.674.174l.137-1.086c-.616-.145-1.615-.218-2.247-.217-1.722 0-2.83.712-2.83 1.928v2.945c0 1.225 1.085 1.928 2.823 1.928.633.001 1.445-.072 2.06-.217l-.057-1.087a9.634 9.634 0 0 1-1.606.174c-.904 0-1.101-.304-1.101-1.008v-2.528c.001-.711.278-1.006 1.147-1.006zm6.273 3.77v-1.225c0-.99-.389-1.911-2.12-1.911s-2.12.911-2.12 1.911v1.25c0 .99.381 1.912 2.12 1.912 1.74 0 2.12-.939 2.12-1.937zm-3.18.087v-1.304c0-.582 0-.868 1.06-.868v-.017c1.06 0 1.06.287 1.06.835v1.355c0 .582-.381.868-1.06.868-.678 0-1.06-.322-1.06-.869zm63.596 22.255v5.108c0 4.152 1.524 7.974 8.48 7.974 6.939 0 8.48-3.822 8.48-7.974v-5.108c0-4.152-1.541-7.974-8.48-7.974s-8.48 3.822-8.48 7.974zm4.24-.182c0-2.267 1.536-3.475 4.24-3.475s4.24 1.207 4.24 3.492v5.42c0 2.267-1.545 3.475-4.24 3.475-2.695 0-4.24-1.19-4.24-3.475v-5.437zm-81.615-27.173v7.463h1.06v-3.987c1.06-.214 1.055-.348 1.517-.391.296 0 .603.13.603.391v3.378l1.06-.026v-3.527c0-.868-.368-1.434-1.238-1.434-.644.026-.882.185-1.942.469v-2.145l-1.06-.191zm-7.41 4.287c-1.034 0-1.479.302-1.479 1.292 0 .835.4 1.407 1.322 1.407.525-.012 1.037.131 1.479-.153l.095.63h1.043l.017-3.531c0-1.199-.469-1.897-2.06-1.897-.588.002-1.172-.003-1.74.147l.174.881c.461-.095.846-.163 1.317-.168.808 0 .881.172.881.71v.682h-1.049zm1.217 1.421c-.294.16-.622.246-.956.252-.4 0-.513-.122-.513-.486 0-.366.113-.478.53-.478h.939v.712zm11.493 1.146l1.06-.026v-4.659h-1.06v4.685zm129.112 12.527a19.56 19.56 0 0 0-8.081 2.163c-.697-1.451-2.19-2.314-3.793-2.163-2.828.144-5.578 1.063-8.105 2.34l-.479-1.551h-4.78v20.118h5.299V150.79c2.12-.926 3.683-1.517 5.541-1.737 1.156 0 1.879.538 1.879 1.615v14.384h5.3V150.79c1.059-.94 3.149-1.532 5.01-1.737 1.156 0 1.349.538 1.349 1.615v14.384h5.3v-14.931c0-3.613-1.075-5.976-4.44-5.976zm-167.27-10.068l-13.779 8.235v16.444l13.779-8.218v-16.461zm130.372 30.975h5.3v-13.306c1.06-1.118 3.473-2.103 5.336-2.944l-.52-4.656c-1.883.649-3.68 1.728-5.329 2.844l-.338-2.056h-4.449v20.118zm-146.271-22.74l-13.779-8.235v16.453l13.779 8.226v-16.444zM105.421 335.38c-2.011 0-4.727.964-4.727 1.969v-.762h-5.3V362h5.3v-9.034c0 1.005 2.714 1.968 4.727 1.968 5.449 0 8.551-4.48 8.551-9.756s-3.103-9.798-8.551-9.798zm-1.174 15.032c-1.509 0-3.553-.879-3.553-2.177v-6.155c0-1.256 2.002-2.177 3.553-2.177 2.809 0 4.485 2.26 4.485 5.276 0 2.972-1.676 5.233-4.485 5.233zm19.881-15.032c-5.239 0-8.939 4.146-8.939 9.798 0 5.778 3.682 10.202 9.131 10.202 4.694 0 7.664-2.91 8.335-6.086h-4.82c-.419 1.059-1.718 2.354-3.479 2.354-2.305 0-3.897-2.354-4.066-4.472h12.202v-2.5c0-5.486-2.873-9.296-8.364-9.296zm-3.712 8.619c.461-3.176 1.886-3.517 3.898-3.517 2.138 0 3.311 1.4 3.353 3.517h-7.251zm-35.947-8.619c-2.012 0-3.914.964-4.974 1.969v-.762h-5.3V362h5.3v-9.034c1.06 1.005 2.962 1.968 4.974 1.968 5.449 0 8.55-4.48 8.55-9.756s-3.101-9.798-8.55-9.798zm-1.174 15.032c-1.51 0-2.74-.879-3.8-2.177v-6.155c1.06-1.256 2.25-2.177 3.8-2.177 2.809 0 4.485 2.26 4.485 5.276 0 2.972-1.676 5.233-4.485 5.233zm57.677-2.22v-7.369h4.239v-4.236h-4.239v-5.294h-5.3v5.294h-3.18v4.236h3.18v8.04c0 4.145 2.381 6.029 6.194 6.029 1.383 0 2.285-.21 3.345-.587v-4.606c0 .377-1.386.628-2.182.628-1.342.001-2.057-.669-2.057-2.135zm-75.256-.501c0 1.632-1.754 2.596-3.347 2.596-2.054 0-3.013-1.34-3.013-3.308v-10.392h-5.3v11.438c0 4.146 2.414 6.909 6.606 6.909 2.18 0 3.994-.962 5.054-2.136v1.79h5.3v-18.001h-5.3v11.104zM43.96 335.38c-2.012 0-3.682.964-4.742 1.969v-.762h-5.3V362h5.3v-9.034c1.06 1.005 2.73 1.968 4.742 1.968 5.449 0 8.55-4.48 8.55-9.756s-3.101-9.798-8.55-9.798zm-1.174 15.032c-1.509 0-3.568-.879-3.568-2.177v-6.155c0-1.256 2.018-2.177 3.568-2.177 2.808 0 4.485 2.26 4.485 5.276 0 2.972-1.677 5.233-4.485 5.233zm-25.914-26.464l-5.213-4.768v-9.064H0v12.706h9.628l4.492 4.401-.34-.432v6.24l.337.418-4.494 5.257H0v11.648h11.66v-9.718l5.582-4.048h8.197v-12.706h-8.197l-.37.066zm-8.393-5.361H4.24v-4.236h4.24v4.236zm0 27.53H4.24v-4.235h4.24v4.235zm-.816-192.635l11.293 8.588c.327.311.475.406.926.425.847.036 1.316-.709 1.316-1.555v-.034c0-.212.216-.422.132-.619l-8.568-20.133c-.219-.551-.688-.904-1.28-.887-.602-.02-1.117.681-1.35 1.235L.608 162.934h3.27l3.785-9.452zm3.891-9.71l5.664 13.423-8.552-6.471 2.888-6.952zm68.3-1.908c2.63.033 5.25.342 7.817.921l.498-2.524a36.945 36.945 0 0 0-8.386-1.093c-5.898 0-9.025 1.571-9.025 5.426 0 3.071 2.168 4.641 7.674 7.098 5.508 2.458 7.107 3.31 7.107 5.017 0 1.876-2.06 3.207-6.005 3.207a30.8 30.8 0 0 1-8.705-1.467l-.746 2.457a28.458 28.458 0 0 0 9.451 1.706c5.187 0 9.239-2.013 9.239-6.074 0-2.798-1.563-4.163-7.71-6.859-5.828-2.559-7.07-3.344-7.07-5.187-.002-1.877 1.704-2.628 5.86-2.628zm103.656 13.753c0 4.675 3.98 6.995 10.589 6.995a33.172 33.172 0 0 0 7.995-1.024l-.463-2.49c-2.5.531-5.048.806-7.603.818-4.05 0-7.284-.765-7.284-4.075 0-2.253 1.989-3.497 5.116-3.497h5.969c.045 0 .092-.221.138-.224.726-.038 1.283-.82 1.245-1.545-.038-.725-.658-1.407-1.384-1.407h-5.543c-2.737 0-4.798-1.588-4.798-3.67 0-2.628 2.239-3.694 6.432-3.694a51.01 51.01 0 0 1 7.675.659l.355-2.518a40.423 40.423 0 0 0-7.781-.782c-6.466 0-9.913 2.016-9.913 6.247 0 1.911 1.065 3.652 3.126 4.881-2.555.991-3.871 3.108-3.871 5.326zm-128.393 5.289v-21.267h-3.18v17.207l-13.58-17.029c-.299-.375-1.031-.579-1.51-.546-.863-.009-1.87.674-1.87 1.536v22.127h3.18v-18.101l14.008 17.062c.298.355.892.546 1.354.513l.034.001c.847.017 1.564-.657 1.564-1.503zm86.917-4.839c0-2.594-1.847-4.918-4.585-5.703 1.849-1.057 3.057-2.889 3.057-4.833 0-3.583-2.913-5.893-7.816-5.893h-7.994c-.874 0-1.742.533-1.742 1.406v19.687c0 .866.875 2.202 1.742 2.202h9.665c4.511.001 7.673-3.248 7.673-6.866zm-15.902-13.251h6.628c2.843 0 4.477 1.437 4.477 3.586 0 2.185-1.883 3.826-4.477 3.826h-6.628v-7.412zm8.193 16.942h-8.193v-7.412h8.193c2.664 0 4.405 1.487 4.405 3.637 0 2.287-1.67 3.775-4.405 3.775zm-28.331-20.119h-3.18v23.295h3.18v-23.295zm49.817 0v21.062c0 .861.888 2.233 1.751 2.233h14.148v-3.176h-12.719v-20.119h-3.18zM40.205 31.023l1.601 4.268c3.077-1.203 5.435-3.656 6.403-6.832h-4.85c-.715 1.059-1.825 2.047-3.154 2.564zM37.099 41.09v4.238c10.6-.012 19.334-7.338 20.893-16.868h-4.306c-1.509 7.412-8.108 12.62-16.587 12.63zm4.74-25.972l-1.6 4.24c1.327.519 2.44 1.69 3.154 2.75h4.842c-.967-3.178-3.322-5.786-6.396-6.99zm-.008-.095a.19.19 0 0 1 .007.003v-.003h-.007zm-4.732-.736c-5.3.004-10.351 4.82-10.356 10.762-.002 1.492.517 2.97 1.122 4.334l4.226-1.807c-1.402-3.162-.338-6.86 2.827-8.26.802-.354 2.18-.536 2.18-.535v-4.494zM29.9 32.653c2.016 2.022 5.078 3.159 7.198 3.159V31.31c-1.06.004-3.053-.655-4.227-1.83L29.9 32.653zM9.822 78.846a9.195 9.195 0 0 0 7.372-3.199l-2.513-2.542c-1.408 1.303-2.666 2.102-4.722 2.102-3.081 0-5.21-2.566-5.21-5.644 0-3.087 2.177-5.597 5.21-5.597a6.641 6.641 0 0 1 4.595 1.999l2.522-2.903a9.279 9.279 0 0 0-7.092-2.774 29.505 29.505 0 0 0-.685-.002C4.25 60.368 0 64.52 0 69.563v.063c0 .097.303.194.304.29.076 5.008 4.505 9.005 9.517 8.93zM37.933 4.244a20.72 20.72 0 0 1 12.446 4.142l2.545-3.414C41.822-3.3 26.11-1.016 17.83 10.075a25.035 25.035 0 0 0-3.277 5.916l4.002 1.543a20.857 20.857 0 0 1 19.378-13.29zM18.875 33.537c-1.16-2.639-1.76-5.078-1.76-8.255h-4.258c-.003 3.177.716 6.847 2.114 10.024l3.904-1.769zM58.52 22.106h4.29c-.45-3.177-1.681-7.153-3.61-10.227l-3.617 2.303c1.506 2.397 2.504 5.806 2.93 7.924h.007zM30.393 43.988l1.6-3.875c-6.103-2.43-10.112-8.478-10.125-14.83h-4.242c.012 8.47 5.065 15.62 12.767 18.705zm4.406-34.037c-8.404 1.73-13.813 9.894-12.084 18.29 1.73 8.395 9.947 13.908 18.35 12.18 6.08-1.25 10.83-5.609 12.083-11.962h-4.37c-1.407 5.294-5.824 7.997-10.845 8.002-6.238.005-11.298-5.106-11.304-11.336-.007-6.232 5.045-11.236 11.283-11.242 5.042-.005 9.477 3.987 10.866 8.223h4.37c-1.73-8.471-9.946-13.883-18.35-12.155zm42.514 52.998h.28l.024-1.695h.633v-.264h-1.6v.264h.664v1.695h-.001zM55.117 64.46v-3.176h-13.78v18h13.78V75.05h-9.54v-3.177h8.48v-4.235h-8.48V64.46h9.54zm7.693-36h-4.29c-1.563 10.588-10.302 17.519-20.587 17.534-5.523.004-10.82-2.261-14.72-6.17l-3.009 2.972c9.796 9.78 25.674 9.896 35.464.11 3.931-3.93 6.443-9.152 7.142-14.446zm16.168 32.988l.696 1.063.704-1.063v1.503h.273v-1.959h-.257l-.696 1.08-.705-1.08h-.296v1.96h.28v-1.504h.001zM60.416 79.284h4.24v-7.412h8.48v-3.177h-8.48V64.46h9.54v-3.176h-13.78v18zM18.602 17.692l3.746 1.536C24.755 13.069 30.739 9.013 37.098 9V4.795c-7.42.006-15.446 5.123-18.496 12.897zM45.289 6.25l-1.537 3.998c5.107 1.992 8.848 6.564 9.933 11.859h4.306C56.858 14.694 52.023 8.878 45.29 6.25zm-8.191 73.034v-18h-4.24v6.353h-7.42v-6.354h-4.24v18.001h4.24v-7.412h7.42v7.412h4.24zm.843-70.283h-.01v.008l.01-.008zm141.892 240.283a8.866 8.866 0 0 1-1.399.115c-.952 0-1.646-.266-1.97-.799-.305-.532-.514-1.245-.514-2.139v-5.171h5.299v-3.177h-5.299v-4.888l-4.24.685v12.607c0 .97.135 1.855.306 2.653.191.798.539 1.483.995 2.054.457.552 1.078.989 1.84 1.312.761.304 1.729.456 2.891.456.914 0 1.687-.076 2.316-.228a12.287 12.287 0 0 0 1.715-.542l-.599-3.309c-.4.153-.846.276-1.341.371zm13.044 3.68a15.306 15.306 0 0 0 1.485-.229 9.946 9.946 0 0 0 1.284-.285 5.86 5.86 0 0 0 .914-.342l-.571-3.452c-.476.21-1.095.39-1.856.542-.742.134-1.504.201-2.284.201-1.218 0-2.189-.238-2.913-.751-.723-.514-1.133-1.005-1.228-2.064h9.652c.019 0 .038-.504.057-.789.02-.304.029-.589.029-.836 0-2.53-.619-4.445-1.856-5.738-1.237-1.312-2.922-1.971-5.054-1.971-.913 0-1.808.171-2.683.513a6.745 6.745 0 0 0-2.285 1.511c-.666.666-1.208 1.502-1.628 2.509-.399.989-.6 2.149-.6 3.48 0 1.103.153 2.129.457 3.08a6.901 6.901 0 0 0 1.457 2.482c.666.685 1.494 1.226 2.484 1.625 1.009.399 2.189.6 3.54.6.533 0 1.066-.029 1.599-.086zm-4.911-9.968c.134-.361.314-.882.543-1.149.229-.266.514-.579.856-.732a2.726 2.726 0 0 1 1.228-.308c.495 0 .904.059 1.227.231.342.171.619.377.828.643.229.265.39.979.485 1.321.115.342.181.405.201 1.463h-5.626c.058-1.057.144-1.126.258-1.469zm-112.71-4.883v7.891c0 1.027.224 1.968.433 2.824.21.855.621 1.598 1.116 2.225.495.608 1.191 1.084 2.029 1.426.856.342 1.937.513 3.212.513 1.257 0 2.222-.095 3.364-.284 1.142-.172 1.504-.362 2.564-.571v-14.024h-4.24v11.114c0 .038-.336.076-.68.114-.342.02-.549.029-.853.029-.99 0-1.734-.304-2.095-.913-.362-.609-.612-1.598-.612-2.967v-7.377h-4.239zm-48.729 10.589c-.089 0-.23-.603-.413-.69-.14-.067-.287.05-.432.056-.318.011-.62.634-.779.634H24.9l-2.653 4.495c1.836.624 3.863.616 5.896.155.363-.082.718.043 1.064-.073l-2.659-4.577h-.02zm-4.517-2.574a.92.92 0 0 0-1.066-.7l-.008-.012-5.394.915a10.813 10.813 0 0 0 4.342 5.429l2.09-5.046-.015-.02a.907.907 0 0 0 .05-.566zm-1.793-3.883a.919.919 0 0 0 .362-1.582l.004-.022-4.104-3.667a10.746 10.746 0 0 0-1.527 6.805l5.26-1.516.005-.018zm10.26 3.161a.943.943 0 0 0-.213-.016.922.922 0 0 0-.353.091.92.92 0 0 0-.446 1.193l-.006.009 2.112 5.096a10.766 10.766 0 0 0 4.357-5.467l-5.442-.919-.01.013zm.368-4.769a.92.92 0 0 0 .361 1.58l.005.023 5.287 1.521a10.85 10.85 0 0 0-.228-3.499 10.886 10.886 0 0 0-1.346-3.286l-4.082 3.649.003.012zm-6.58-22.866l-17.46 8.334A3.309 3.309 0 0 0 5 228.348L.693 247.067a3.28 3.28 0 0 0 .644 2.8l12.084 15.009a3.347 3.347 0 0 0 2.61 1.244l19.38-.004a3.351 3.351 0 0 0 2.61-1.242L50.1 249.862a3.285 3.285 0 0 0 .645-2.799l-4.313-18.719a3.316 3.316 0 0 0-1.806-2.244l-17.46-8.329a3.357 3.357 0 0 0-1.62-.322 3.376 3.376 0 0 0-1.282.322zm2.496 7.207c0 .091.006.213.002.297-.013.369-.094.652-.143.992-.088.728-.164 1.332-.118 1.893.04.281.205.392.34.522.004.075.016.327.025.466a13.695 13.695 0 0 1 8.675 4.187l.397-.284c.135.008.432.049.634-.069.468-.314.894-.751 1.409-1.274.236-.25.409-.488.69-.729.063-.055.16-.129.232-.186.501-.399 1.199-.356 1.558.094.36.451.245 1.139-.257 1.539-.07.057-.162.136-.23.185-.297.22-.572.333-.868.507-.625.385-1.142.705-1.553 1.09-.194.208-.18.404-.197.591-.058.053-.262.234-.37.333a13.478 13.478 0 0 1 1.957 4.521c.379 1.646.438 3.292.218 4.874l.422.123c.077.107.232.367.452.453.537.169 1.143.231 1.873.308.343.029.639.012 1.002.08.087.017.215.051.304.071.615.149 1.01.714.884 1.272-.127.557-.73.896-1.349.762l-.016-.002c-.007-.001-.012-.005-.02-.006-.085-.019-.195-.038-.27-.058-.357-.096-.617-.239-.938-.361-.691-.248-1.264-.455-1.822-.536-.283-.022-.428.113-.585.216a16.496 16.496 0 0 0-.446-.078 13.59 13.59 0 0 1-6.024 7.57c.05.121.135.376.174.422-.066.176-.165.344-.08.615.202.525.53 1.039.926 1.657.192.286.388.505.56.832.042.079.097.198.137.281.268.574.071 1.235-.444 1.483-.52.25-1.166-.013-1.445-.59-.039-.082-.095-.191-.129-.268-.148-.339-.2-.629-.303-.958-.237-.694-.432-1.269-.717-1.755-.159-.235-.355-.265-.533-.323-.033-.057-.157-.284-.223-.401a13.515 13.515 0 0 1-9.644-.025l-.237.428c-.176.047-.347.095-.45.219-.381.453-.533 1.182-.81 1.875-.103.328-.104.619-.253.958a.763.763 0 0 0-.081.265v.003l-.051.002c-.279.575-.948.838-1.467.588-.516-.247-.725-.909-.457-1.483.04-.083.087-.203.128-.281.173-.327.366-.548.558-.834.395-.618.742-1.173.944-1.698.051-.175-.025-.414-.093-.59l.19-.456a13.588 13.588 0 0 1-6.027-7.516l-.456.078c-.122-.068-.368-.23-.6-.212-.558.081-1.132.288-1.823.536-.321.123-.58.264-.938.359-.075.02-.183.041-.27.06-.008.002-.013.006-.02.007l-.016.002c-.62.133-1.221-.206-1.348-.763-.128-.557.268-1.122.884-1.271a.145.145 0 0 0 .015-.005l.009-.002c.088-.02.2-.049.279-.064.363-.069.659-.052 1.002-.081.73-.076 1.336-.138 1.873-.308.17-.07.334-.304.449-.453l.437-.127c-.49-3.393.34-6.722 2.133-9.418l-.335-.298c-.021-.13-.05-.431-.21-.603-.411-.385-.93-.705-1.554-1.09-.296-.175-.568-.287-.866-.506-.063-.047-.147-.119-.216-.174l-.016-.012c-.501-.399-.617-1.088-.256-1.538a1.01 1.01 0 0 1 .833-.369c.25.009.509.1.728.274.071.057.168.131.232.186.281.241.452.479.688.729.515.523.941.958 1.409 1.272.246.143.434.086.62.06.061.045.263.19.378.268a13.442 13.442 0 0 1 6.828-3.896 13.45 13.45 0 0 1 1.889-.29l.024-.442c.14-.134.296-.328.34-.54.045-.561-.029-1.165-.117-1.893-.049-.34-.13-.624-.143-.992-.003-.077.001-.181.002-.268l-.002-.029c0-.641.467-1.159 1.045-1.159.58 0 1.048.518 1.048 1.159zm-4.148 13.129a.921.921 0 0 0 1.463-.705l.022-.012.31-5.476a10.767 10.767 0 0 0-6.298 3.013l4.494 3.183.009-.003zm1.214 4.303l.376 1.543 1.513.679 1.51-.749.375-1.458-1.045-1.135h-1.681l-1.048 1.12zm3.515-5.025a.923.923 0 0 0 1.465.702l.016.006 4.465-3.163a10.861 10.861 0 0 0-6.26-3.015l.31 5.467.004.003zm43.546 10.901a40.632 40.632 0 0 0-1.77-2.196 18.728 18.728 0 0 0-1.77-1.854c1.142-1.123 2.188-1.973 3.14-3.019.97-1.065 1.96-2.045 2.97-3.104h-5.054c-.266 0-.59.47-.97.908-.362.437-.752.786-1.172 1.281-.419.475-.89.902-1.347 1.397-.438.494-1.319.911-1.319 1.368v-12.551l-4.24.685v21.736h4.24v-6.847c0 .38.986.846 1.462 1.397a21.04 21.04 0 0 1 1.416 1.74c.438.59.855 1.332 1.236 1.941.4.59.76 1.769 1.065 1.769h4.883c-.323 0-.723-1.465-1.199-2.225-.477-.761-1-1.665-1.572-2.426zm135.809 1.084c-.323.153-.875.229-1.655.229a11.43 11.43 0 0 1-2.256-.229 14.967 14.967 0 0 1-2.227-.685l-.714 3.452c.342.152.952.342 1.827.571.895.227 2.009.342 3.341.342 2.037 0 3.607-.381 4.711-1.142 1.124-.76 1.685-1.883 1.685-3.366 0-.628-.077-1.179-.229-1.654a3.045 3.045 0 0 0-.742-1.283c-.343-.399-.819-.761-1.428-1.085-.609-.342-1.38-.685-2.313-1.027a23.705 23.705 0 0 1-1.142-.456 8.98 8.98 0 0 1-.686-.399c-.172-.134-.285-.266-.343-.399a1.153 1.153 0 0 1-.085-.457c0-.741.666-1.113 1.999-1.113.723 0 1.37.067 1.941.2.591.134 1.134.285 1.629.457l.742-3.309c-.495-.191-1.162-.361-2-.514a13.09 13.09 0 0 0-2.626-.256c-1.827 0-3.265.409-4.312 1.226-1.047.818-1.571 1.931-1.571 3.338 0 .722.105 1.34.314 1.854.21.513.505.96.885 1.34.381.361.837.676 1.371.942a21.19 21.19 0 0 0 1.827.77c.856.322 1.494.618 1.913.884.419.247.629.542.629.884.001.438-.161.733-.485.885zm-73.313-11.981a7.28 7.28 0 0 0-.828-.057c-1.275 0-2.564.124-3.611.37-1.029.229-1.753.476-2.813.742v14.493h4.24v-11.754c0-.057.602-.105.964-.143.38-.057.771-.086 1.038-.086.591 0 1.176.057 1.69.172.514.095.978.19 1.359.285l.722-3.51a3.942 3.942 0 0 0-.824-.228 8.596 8.596 0 0 0-.969-.172 9.08 9.08 0 0 0-.968-.112zM98.62 253.021c1.237 0 2.341-.181 3.312-.542.971-.38 1.789-.913 2.456-1.598.667-.684 1.17-1.512 1.513-2.482.362-.97.543-2.054.543-3.252 0-1.178-.143-2.243-.428-3.194-.285-.97-.704-1.797-1.256-2.482a5.415 5.415 0 0 0-2.056-1.57c-.819-.38-1.761-.57-2.827-.57-.59 0-1.283.057-1.797.171-.514.115-1.625.276-1.625.485v-7.473l-4.24.685v20.965c0 .115.952.229 1.447.342a34.54 34.54 0 0 0 1.608.257c.553.076 1.138.133 1.69.171.57.058 1.146.087 1.66.087zm-2.166-11.495c0-.172.75-.313 1.168-.428a5.745 5.745 0 0 1 1.383-.171c2.019 0 3.063 1.369 3.063 4.107 0 1.312-.278 2.368-.868 3.166-.591.798-1.458 1.198-2.618 1.198-.381 0-.87-.01-1.193-.029-.323-.038-.936-.076-.936-.114v-7.729h.001zm53.574-2.31c-.495-.609-1.172-1.075-2.028-1.398-.837-.342-1.894-.514-3.169-.514-1.256 0-2.777.096-3.92.285-1.142.172-2.059.361-3.119.571v14.777h4.24V241.07c1.059-.039.899-.067 1.242-.086.342-.038.831-.057 1.135-.057.99 0 1.312.285 1.674.855.361.571.188 1.541.188 2.91v8.245h4.24v-8.759c0-1.027.339-1.958.129-2.795-.208-.836-.117-1.56-.612-2.167zm-39.115 11.609c.667.685 1.494 1.226 2.484 1.626 1.009.399 2.189.6 3.541.6.533 0 1.066-.029 1.599-.086a15.306 15.306 0 0 0 1.485-.229c.476-.076.904-.171 1.285-.285.38-.114.684-.228.913-.342l-.571-3.452c-.476.21-1.095.39-1.856.543-.742.133-1.504.2-2.284.2-1.218 0-2.189-.237-2.913-.751-.723-.514-1.133-1.005-1.227-2.064h9.65c.02 0 .039-.504.058-.789.019-.304.028-.589.028-.836 0-2.53-.619-4.445-1.856-5.738-1.237-1.312-2.922-1.971-5.053-1.971-.914 0-1.809.171-2.684.513a6.731 6.731 0 0 0-2.284 1.511c-.667.666-1.209 1.502-1.628 2.509-.4.989-.6 2.149-.6 3.48 0 1.103.152 2.129.456 3.08.324.95.809 1.777 1.457 2.481zm2.712-7.829c.134-.361.314-.882.543-1.149.229-.266.514-.579.856-.732a2.726 2.726 0 0 1 1.228-.308c.495 0 .904.059 1.227.231.343.171.619.377.828.643.229.265.39.979.485 1.321.115.342.182.405.201 1.463h-5.625c.057-1.057.143-1.126.257-1.469zm48.134-5.749a7.32 7.32 0 0 0-2.684.514 6.738 6.738 0 0 0-2.284 1.512c-.667.666-1.208 1.502-1.628 2.51-.399.989-.6 2.149-.6 3.481 0 1.103.153 2.129.457 3.08a6.9 6.9 0 0 0 1.456 2.482c.667.685 1.495 1.226 2.485 1.626 1.009.4 2.189.6 3.54.6.533 0 1.066-.029 1.6-.086a14.937 14.937 0 0 0 1.484-.229 9.964 9.964 0 0 0 1.285-.285 5.86 5.86 0 0 0 .914-.342l-.572-3.452c-.475.21-1.094.39-1.855.543-.742.133-1.505.2-2.285.2-1.218 0-2.188-.237-2.912-.751-.723-.514-1.133-1.005-1.228-2.064h9.651c.019 0 .038-.504.057-.789.019-.303.029-.589.029-.836 0-2.53-.619-4.445-1.856-5.738-1.238-1.315-2.922-1.976-5.054-1.976zm-2.827 7.219c.057-1.058.143-1.127.257-1.47.133-.361.313-.882.542-1.149.229-.266.514-.579.857-.732a2.718 2.718 0 0 1 1.227-.308c.495 0 .904.059 1.228.231.342.171.619.377.827.643.229.265.391.979.486 1.321.114.342.181.405.2 1.463h-5.624v.001zM427.977 234.1c-.686-1.679-1.539-2.307-3.313-2.122-.928.098-1.394.348-1.758 1.214-1.42 3.389-2.927 6.741-4.398 10.111-1.129 2.587-2.253 5.177-3.469 7.973 1.332 0 2.401.06 3.457-.032.38-.033.995-.381 1.052-.672.646-3.297 2.677-4.327 5.804-3.722.735.142 1.128-.217 1.338-.938.224-.768.575-1.498.996-2.562.754 1.768 1.363 3.181 1.962 4.598 1.514 3.583 1.513 3.584 5.474 3.289.036-.003.071-.036.181-.096-.148-.391-.285-.802-.456-1.198-2.304-5.275-4.695-10.516-6.87-15.843zm-5.207 9.308c.801-2.118 1.543-3.598 2.402-5.603.848 1.989 1.584 3.485 2.389 5.603h-4.791zm50.082-11.274c-.793 0-1.203.062-1.589-.011-2.588-.486-4.759.549-6.373 2.551-1.621 2.014-3.817 3.796-5.937 5.982v-7.838h-3.18v19.059h3.86c0-1.058.137-2.482-.027-3.466-.365-2.188.807-3.646 2.497-4.827 1.154 1.517 2.533 2.822 3.409 4.48 1.588 3.007 3.981 3.78 7.104 3.236.044-.007.087-.039.384-.101-2.773-3.646-5.445-7.17-8.142-10.718 2.644-2.758 5.217-5.451 7.994-8.347zm-22.296 5.886c.827-.943 1.662-1.897 2.546-2.908-4.386-4.385-11.164-4.35-15.125-.066-3.676 3.975-3.187 10.755 1.033 14.317 4.124 3.481 10.864 2.779 13.962-1.24l-2.349-2.85c-3.79 2.976-6.826 3.235-9.138.874-2.219-2.267-2.33-6.245-.24-8.634 2.25-2.572 5.164-2.434 9.311.507zm-74.278 13.858v-16.941h4.67c2.533 0 2.534.323 2.339-2.194-.005-.075-.088.076-.153.076h-15.336v2.118h6.36v16.941h2.12zm-44.001-6.11c-.003-2.314-1.274-3.706-3.269-4.544-.894-.375-1.858-.582-2.786-.877-1.181-.374-2.423-.626-3.52-1.171-1.788-.888-1.798-3.114-.003-3.997.827-.407 1.935-.671 2.802-.481 1.641.362 3.2 1.098 4.949 1.736l1.412-1.859c-2.674-2.658-7.293-3.504-10.405-1.913-1.945.995-2.975 2.59-2.962 4.814.013 2.148 1.043 3.641 2.984 4.457 1.097.46 2.271.734 3.411 1.093 1.012.319 2.042.59 3.03.97.895.344 1.61 1.049 1.354 2.028-.214.817-.689 1.813-1.357 2.201-.812.473-1.948.533-2.94.521-2.192-.026-3.917-1.223-5.568-2.69l-1.768 2.077c2.846 3.129 7.902 4.307 11.401 2.686 2.137-.993 3.239-2.659 3.235-5.051zm20.625 5.493c.083-.004.164-.045.337-.095-.062-.232-.078-.364-.129-.48-2.69-5.937-5.406-11.862-8.048-17.82-.395-.893-.994-.82-1.704-.851-.769-.034-1.28.103-1.649.937-2.277 5.151-4.627 10.268-6.951 15.396-.416.917-.826 1.837-1.252 2.786 2.868.414 2.869.414 3.973-2.008.293-.645.502-1.347.898-1.921.248-.358.761-.714 1.178-.742 1.372-.092 2.765-.146 4.129-.007 1.66.169 2.852-.161 3.166-2.008.006-.038.125-.058.254-.113.684 1.544 1.366 3.08 2.046 4.618 1.079 2.446 1.078 2.447 3.752 2.308zm-12.979-6.795c1.143-3.176 2.218-4.962 3.449-7.714 1.195 2.687 2.261 4.538 3.432 7.714h-6.881zm54.663 2.932c-.881.309-1.978.525-2.832.27-1.66-.493-3.215-1.339-4.95-2.098l-2.182 2.586c3.295 3.184 8.286 4.261 11.828 2.635 2.142-.984 3.191-2.659 3.265-5.041.075-2.402-1.032-3.975-3.14-4.908-.926-.41-1.922-.666-2.889-.983-1.009-.33-2.091-.523-3.007-1.024-.511-.278-1.07-1.093-1.015-1.606.055-.523.752-1.193 1.314-1.393.703-.251 1.613-.282 2.327-.062 1.336.412 2.595 1.074 3.993 1.677l2.089-2.948c-3.132-2.397-6.449-3.339-10.178-2.088-2.264.759-3.604 2.65-3.676 4.887-.088 2.753.797 4.2 3.363 5.269 1.017.424 2.112.659 3.165.995.885.283 1.824.478 2.62.924.459.256.97.955.935 1.415-.041.539-.547 1.324-1.03 1.493zm-36.327-14.579h-3.18v19.059h13.779v-3.176h-10.599v-15.883zm58.296 0h-15.899v3.177h5.3v15.882h4.24v-15.882h6.359v-3.177zm-114.084 7.37c1.892-1.09 3.643-2.122 5.419-3.11.769-.428 1.189-.972 1.181-1.896-.027-3.682.037-7.366-.059-11.047-.016-.619-.511-1.467-1.041-1.792-3.061-1.879-6.208-3.614-9.304-5.437-.872-.513-1.636-.473-2.483.036-1.71 1.029-3.496 1.938-5.163 3.029-1.05.686-1.874.625-2.894-.032-1.64-1.055-3.382-1.947-5.049-2.964-.943-.575-1.757-.543-2.717.019-6.203 3.627-12.404 7.204-18.619 10.809-.72.418-2.057.915-2.057 1.376v25.051c0 .438 1.147 1.298 1.79 1.673 6.589 3.841 13.158 7.623 19.755 11.858h.8c6.921-4.235 13.857-8.291 20.739-12.331.543-.319.994-1.44 1.014-2.105.103-3.28.015-6.658.064-9.941.02-1.217-.123-2.391-1.376-3.196zm4.318-5.802c-.004.297-.256.709-.516.863-2.428 1.44-4.884 2.836-7.615 4.407 0-2.294.158-4.326-.042-6.322-.225-2.243.495-3.626 2.6-4.553 1.849-.815 3.538-1.992 5.597-3.181 0 3.139.015 5.963-.024 8.786zm-9.699-15.197c.192-.108.551-.102.745.006 2.534 1.415 5.053 2.861 7.788 4.419-2.697 1.549-5.135 2.97-7.603 4.339-.288.159-.818.162-1.105.002-2.469-1.368-4.909-2.789-7.612-4.342 2.733-1.559 5.251-3.006 7.787-4.424zm.923 23.938c-1.321.763-3.351 1.613-4.41 2.549v-4.734c1.059.741 2.922 1.447 4.41 2.185zm-9.656-17.357c2.472 1.423 4.899 2.789 7.282 4.229.344.209.665.767.674 1.169.058 2.742.031 5.484.031 8.241-2.087-.336-2.768-1.179-2.963-3.112-.065-.638-.652-1.225-1.005-1.834-.019-.033-.07-.058-.111-.071-4.5-1.326-4.696-4.69-3.908-8.622zm-7.775 37.563c0 .079-.068.156-.151.339-.3-.129-.62-.23-.904-.393-5.5-3.158-11.008-6.305-16.475-9.522-.505-.297-1.052-1.044-1.057-1.587-.072-6.566-.045-13.134-.04-19.701 0-.171.048-.341.105-.732 4.092 2.351 8.009 4.599 11.924 6.85 1.923 1.105 3.869 2.175 5.744 3.355.442.279.911.94.914 1.428.028 6.654-.023 13.308-.06 19.963zm.486-23.329c-5.809-3.347-11.601-6.722-17.394-10.097-.107-.062-.177-.189-.335-.365 2.98-1.728 5.925-3.438 8.874-5.144 2.843-1.646 5.7-3.269 8.525-4.944.692-.41 1.251-.471 1.955-.029 1.421.896 2.892 1.713 3.991 2.355-.335 1.167-.762 2.129-.848 3.121-.071.818-.313 1.298-1.024 1.664-.985.509-1.933 1.09-2.889 1.653-1.743 1.027-1.762 1.818-.046 2.826 2.144 1.259 4.303 2.493 6.453 3.739.457.265.908.542 1.548.925-2.663 1.534-5.17 3.003-7.711 4.41-.27.15-.801.058-1.099-.114zm20.446 12.616c-.008.335-.42.779-.758.975-5.797 3.358-12.062 6.685-17.875 10.016-.072.041.122.038-.938.105v-3.265c0-5.547.475-11.096.43-16.643-.009-1.03.57-1.631 1.46-2.107 1.956-1.045 3.646-2.175 5.58-3.26.331-.187 1.011-.33 1.011-.586v8.528c0 2.829.812 3.096 3.3 1.674 2.415-1.38 4.999-2.756 7.658-4.272-.001 3.114.191 5.976.132 8.835z"/></defs></svg>