<svg width="42" height="42" viewBox="0 0 42 42" xmlns="http://www.w3.org/2000/svg" xmlns:xlink="http://www.w3.org/1999/xlink" xmlns:figma="http://www.figma.com/figma/ns"><title>web-apps</title><desc>Created using Figma</desc><g figma:type="canvas"><g figma:type="frame" fill="#0069FF"><use xlink:href="#a" transform="translate(1 1)" figma:type="vector"/><use xlink:href="#b" transform="translate(1 1)" figma:type="vector"/><use xlink:href="#c" transform="translate(13.79 15.11)" figma:type="vector"/></g></g><defs><path id="a" d="M0 0v-1h-1v1h1zm40 0h1v-1h-1v1zm0 40v1h1v-1h-1zM0 40h-1v1h1v-1zM0 1h40v-2H0v2zm39-1v40h2V0h-2zm1 39H0v2h40v-2zM1 40V0h-2v40h2z"/><path id="b" d="M0 0v-1h-1v1h1zm40 0h1v-1h-1v1zm0 6.127v1h1v-1h-1zm-40 0h-1v1h1v-1zM0 1h40v-2H0v2zm39-1v6.127h2V0h-2zm1 5.127H0v2h40v-2zm-39 1V0h-2v6.127h2z"/><path id="c" d="M12.881 7.241l-.787.617.787-.617zM7.206 0l.787-.617-.787-1.004-.787 1.004.787.617zM1.53 7.241l.787.617-.787-.617zm12.138-.616L7.993-.617 6.419.617l5.675 7.241 1.574-1.233zM6.418-.617L.744 6.625l1.575 1.233L7.993.617 6.419-.617zM.745 6.624C-.302 7.977-.984 9.831-1 11.682h2c-.016-1.498.444-2.729 1.317-3.824L.744 6.624zM-1 11.682a8.206 8.206 0 0 0 8.206 8.206v-2A6.206 6.206 0 0 1 1 11.682h-2zm8.206 8.206a8.207 8.207 0 0 0 8.206-8.206h-2a6.207 6.207 0 0 1-6.206 6.206v2zm8.206-8.206c-.016-1.851-.698-3.705-1.744-5.058l-1.574 1.234c.874 1.095 1.333 2.326 1.318 3.824h2z"/></defs></svg>