<svg xmlns="http://www.w3.org/2000/svg" viewBox="0 0 59 60.5"><style>.st0{fill:none;stroke:#0069FF;stroke-miterlimit:10;} .st1{fill:url(#SVGID_1_);}</style><circle class="st0" cx="55.4" cy="3.6" r="3.1"/><linearGradient id="SVGID_1_" gradientUnits="userSpaceOnUse" x1="-3913.579" y1="-720.347" x2="-3887.827" y2="-720.347" gradientTransform="rotate(90 -2328.42 1620.6)"><stop offset="0" stop-color="#0069FF" stop-opacity=".4"/><stop offset="1" stop-color="#0069FF" stop-opacity="0"/></linearGradient><circle class="st1" cx="12.5" cy="48" r="12.5"/><circle class="st0" cx="12.4" cy="47.7" r="7.4"/><line class="st0" x1="12.4" y1="48" x2="19.2" y2="45"/><polyline class="st0" points="12.4,40.1 12.4,48 19.5,49.9"/><path class="st0" d="M55.4 6.7v25.9c0 2.3-1.8 4.1-4.1 4.1H30c-2.3 0-4.1-1.8-4.1-4.1V18.3c0-2.3-1.8-4.1-4.1-4.1h-5.2c-2.3 0-4.1 1.8-4.1 4.1v21.8"/><g><rect x="31.3" y="26.5" class="st0" width="3.9" height="4.7"/><rect x="38.8" y="22.7" class="st0" width="3.9" height="8.5"/><rect x="46.3" y="17.2" class="st0" width="3.9" height="14.1"/></g></svg>
