<svg xmlns="http://www.w3.org/2000/svg" viewBox="0 0 50 60.5"><style>.st0{fill:url(#SVGID_1_);} .st1{fill:none;stroke:#0069FF;stroke-miterlimit:10;} .st2{opacity:0.3;fill:none;stroke:#0069FF;stroke-miterlimit:10;}</style><linearGradient id="SVGID_1_" gradientUnits="userSpaceOnUse" x1="25.566" y1="57.807" x2="25.566" y2="-5.339"><stop offset="0" stop-color="#0069FF" stop-opacity=".4"/><stop offset="1" stop-color="#0069FF" stop-opacity="0"/></linearGradient><path class="st0" d="M6.4 0v54.4s6.9 2.4 14.4 3.3c0-.6.2-1.1.7-1.5.9-.9 2.3-.9 3.2 0 .5.5.7 1.2.6 1.8h.3c9.1 0 19.2-3.5 19.2-3.5V0H6.4zm9.3 26.4c-.8.8-2 .8-2.8 0s-.8-2 0-2.8c.8-.8 2-.8 2.8 0 .8.8.8 2 0 2.8zm20 21.5c-.8.8-2 .8-2.8 0-.8-.8-.8-2 0-2.8.8-.8 2-.8 2.8 0s.7 2 0 2.8zm.5-36.1c-.7-.7-.7-1.8 0-2.5s1.8-.7 2.5 0 .7 1.8 0 2.5c-.8.6-1.9.6-2.5 0zm7.2 24.3c-1.1 1.1-2.8 1.1-3.8 0-1.1-1.1-1.1-2.8 0-3.8s2.8-1.1 3.8 0 1 2.7 0 3.8z"/><path class="st1" d="M20.9 57.6C9.3 56.9.5 53.7.5 49.7c0-2.1 2.5-4 6.5-5.4M43.5 44.5c3.7 1.4 6 3.2 6 5.2 0 4.4-10.7 7.9-24 8"/><path class="st2" d="M7 44.3c4.5-1.6 10.9-2.6 18-2.6 7.4 0 14 1.1 18.5 2.8"/><path class="st1" d="M32.4 46.6c-2.3.3-4.8.4-7.4.4C11.5 47 .5 43.4.5 39c0-2 2.4-3.9 6.2-5.3M44.3 34.1c3.2 1.4 5.1 3 5.1 4.9 0 3.1-5.4 5.8-13.3 7.1"/><path class="st2" d="M6.7 33.7c4.5-1.6 11-2.7 18.2-2.7 5.3 0 10.2.6 14.3 1.5"/><path class="st1" d="M38.9 34.9c-4 .9-8.8 1.4-13.9 1.4-13.5 0-24.5-3.6-24.5-8 0-2.1 2.4-3.9 6.3-5.3M43.1 22.9c3.9 1.4 6.3 3.3 6.3 5.3 0 1.9-2.1 3.7-5.5 5.1"/><path class="st2" d="M6.8 22.9c4.5-1.6 11-2.6 18.2-2.6s13.7 1 18.2 2.6"/><path class="st1" d="M39.1 11.1c6.3 1.4 10.4 3.8 10.4 6.5 0 4.4-11 8-24.5 8-3 0-6-.2-8.7-.5M12.3 24.4C5.2 23 .5 20.5.5 17.6c0-4.4 11-8 24.5-8 3.8 0 7.4.3 10.6.8"/><ellipse transform="rotate(-45 37.396 10.514)" class="st1" cx="37.4" cy="10.5" rx="1.7" ry="1.7"/><ellipse transform="rotate(-45 14.312 24.978)" class="st1" cx="14.3" cy="25" rx="2" ry="2"/><ellipse transform="rotate(-45 34.287 46.5)" class="st1" cx="34.3" cy="46.5" rx="2" ry="2"/><ellipse transform="rotate(-45 23.08 57.756)" class="st1" cx="23.1" cy="57.8" rx="2.2" ry="2.2"/><ellipse transform="rotate(-45 41.45 34.173)" class="st1" cx="41.4" cy="34.2" rx="2.7" ry="2.7"/></svg>
