<svg xmlns="http://www.w3.org/2000/svg" viewBox="0 0 55.2 55.7"><style>.st0{fill:none;stroke:#0069FF;stroke-miterlimit:10;} .st1{fill:url(#SVGID_1_);}</style><line class="st0" x1=".4" y1=".9" x2="54.8" y2="55.4"/><path class="st0" d="M22.9 23.3c2.6-2.6 6.9-2.6 9.5 0s2.6 6.9 0 9.5M44.5 9.5l.9.9c9.7 9.7 9.7 25.4 0 35M29.8 3.1c2.6.2 5.2.8 7.6 1.9M10.4 10.3c3.9-3.9 8.9-6.3 14-7"/><line class="st0" x1="12.8" y1="35.7" x2="1.6" y2="46.9"/><line class="st0" x1="19.9" y1="42.7" x2="13" y2="49.6"/><circle class="st0" cx="27.1" cy="3.2" r="2.7"/><circle class="st0" cx="41" cy="7" r="4.1"/><g><linearGradient id="SVGID_1_" gradientUnits="userSpaceOnUse" x1="27.754" y1="28.106" x2="45.377" y2="10.483"><stop offset="0" stop-color="#0069FF" stop-opacity=".4"/><stop offset="1" stop-color="#0069FF" stop-opacity="0"/></linearGradient><path class="st1" d="M45.3 10.6c-.4-.4-.7-.7-1.1-1-.7 1-1.9 1.6-3.2 1.6-2.3 0-4.1-1.8-4.1-4.1 0-.7.2-1.3.5-1.8-2.4-1-5-1.7-7.6-1.9-.1 1.4-1.2 2.6-2.7 2.6-1.4 0-2.6-1.1-2.7-2.5-5.3.7-10.4 3-14.5 7.1L45.3 46c9.8-9.8 9.8-25.7 0-35.4zM32.4 32.8l-9.5-9.5c2.6-2.6 6.9-2.6 9.5 0s2.6 6.9 0 9.5z"/></g></svg>
