<svg width="515" height="350" viewBox="0 0 515 350" xmlns="http://www.w3.org/2000/svg" xmlns:xlink="http://www.w3.org/1999/xlink"><title>drag&amp;drop</title><defs><rect id="a" width="450" height="250" rx="6"/><mask id="c" x="0" y="0" width="450" height="250" fill="#fff"><use xlink:href="#a"/></mask><rect id="b" y="270" width="450" height="80" rx="6"/><mask id="d" x="0" y="0" width="450" height="80" fill="#fff"><use xlink:href="#b"/></mask><path d="M3.24 0h101.52c1.79 0 3.24 1.45 3.24 3.24v128.52c0 1.79-1.45 3.24-3.24 3.24H3.24C1.45 135 0 133.55 0 131.76V3.24C0 1.45 1.45 0 3.24 0z" id="f"/><filter x="-8.3%" y="-4.4%" width="116.7%" height="113.3%" filterUnits="objectBoundingBox" id="e"><feOffset dy="3" in="SourceAlpha" result="shadowOffsetOuter1"/><feGaussianBlur stdDeviation="2.5" in="shadowOffsetOuter1" result="shadowBlurOuter1"/><feComposite in="shadowBlurOuter1" in2="SourceAlpha" operator="out" result="shadowBlurOuter1"/><feColorMatrix values="0 0 0 0 0 0 0 0 0 0 0 0 0 0 0 0 0 0 0.1 0" in="shadowBlurOuter1"/></filter><path d="M3.24 0H76l32 32v99.76c0 1.79-1.45 3.24-3.24 3.24H3.24C1.45 135 0 133.55 0 131.76V3.24C0 1.45 1.45 0 3.24 0z" id="h"/><filter x="-8.3%" y="-4.4%" width="116.7%" height="113.3%" filterUnits="objectBoundingBox" id="g"><feOffset dy="3" in="SourceAlpha" result="shadowOffsetOuter1"/><feGaussianBlur stdDeviation="2.5" in="shadowOffsetOuter1" result="shadowBlurOuter1"/><feComposite in="shadowBlurOuter1" in2="SourceAlpha" operator="out" result="shadowBlurOuter1"/><feColorMatrix values="0 0 0 0 0 0 0 0 0 0 0 0 0 0 0 0 0 0 0.1 0" in="shadowBlurOuter1"/></filter><path d="M5.03 14s-2.22-1.7-3-3c-.78-1.3-2.26-2.96-2-4 .26-1.04 1.22-1.37 2-.588.78.78 1.307 2.472 1.828 2.212.52-.26.13-2.733-.39-4.164-.52-1.432-1.064-4.46 0-4.46C4.53 0 4.53 1 5.03 2.5s.11 3.5.5 3.5.54-.35.54-1c0-.177.034-.326.105-.45.188-.332.633-.48 1.355-.48.992 0 .5 1.93 1 1.93s.5.04.5-1 .464-.93 1.464-.93S11.01 6 11.53 6s0-1 .5-1 1 .158 1 2.5.28 2.46-.5 3.5l-1.5 2s0 1-.536 1-.813-1-1.464-1c-.65 0-1 1-1 1h-3zm6-2V8h-1v4h1zm-3-1c0 .27.232 1 .5 1 .276 0 .5-.725.5-1V9c0-.27-.232-1-.5-1-.276 0-.5.725-.5 1v2zm-2 0c0 .27.232 1 .5 1 .276 0 .5-.725.5-1V9c0-.27-.232-1-.5-1-.276 0-.5.725-.5 1v2z" id="j"/><filter x="-34.4%" y="-25%" width="168.8%" height="164.3%" filterUnits="objectBoundingBox" id="i"><feMorphology radius="1" operator="dilate" in="SourceAlpha" result="shadowSpreadOuter1"/><feOffset dy="1" in="shadowSpreadOuter1" result="shadowOffsetOuter1"/><feGaussianBlur stdDeviation="1" in="shadowOffsetOuter1" result="shadowBlurOuter1"/><feComposite in="shadowBlurOuter1" in2="SourceAlpha" operator="out" result="shadowBlurOuter1"/><feColorMatrix values="0 0 0 0 0 0 0 0 0 0 0 0 0 0 0 0 0 0 1 0" in="shadowBlurOuter1"/></filter></defs><g fill="none" fill-rule="evenodd"><use stroke="#DFDFDF" mask="url(#c)" stroke-width="4" fill="#FAFAFA" stroke-linecap="round" stroke-dasharray="10,8" xlink:href="#a"/><use stroke="#DFDFDF" mask="url(#d)" stroke-width="4" fill="#FFF" stroke-linecap="round" stroke-dasharray="1" xlink:href="#b"/><polyline stroke="#0069FF" stroke-width="2.161" stroke-linecap="round" stroke-linejoin="round" transform="rotate(90 404.5 311)" points="402 306 407 310.999202 402 316"/><path d="M78.256 316v-5.584c0-1.568-.816-2.336-2.224-2.336-1.168 0-2.192.72-2.624 1.408-.256-.832-.96-1.408-2.112-1.408-1.184 0-2.192.768-2.528 1.232v-1.04h-1.68V316h1.68v-5.408c.352-.496 1.04-1.024 1.792-1.024.912 0 1.264.56 1.264 1.392V316h1.68v-5.408c.336-.512 1.04-1.024 1.792-1.024.912 0 1.28.56 1.28 1.392V316h1.68zm1.856 3.024l.24-1.504c.176.08.448.128.64.128.544 0 .896-.16 1.12-.672l.384-.88-3.184-7.824h1.808l2.256 5.792 2.256-5.792h1.792l-3.728 9.12c-.528 1.312-1.44 1.728-2.64 1.744-.24 0-.72-.048-.944-.112zm16.352-1.232h-9.12v-1.152h9.12v1.152zM103.92 316h-1.68v-.848c-.576.672-1.488 1.04-2.512 1.04-1.248 0-2.672-.864-2.672-2.56 0-1.792 1.408-2.528 2.672-2.528 1.056 0 1.936.336 2.512.992v-1.152c0-.896-.752-1.44-1.808-1.44-.864 0-1.632.32-2.288.992l-.704-1.168c.896-.864 2.016-1.248 3.248-1.248 1.728 0 3.232.72 3.232 2.784V316zm-3.52-.96c.72 0 1.44-.272 1.84-.8v-1.184c-.4-.528-1.12-.8-1.84-.8-.944 0-1.664.56-1.664 1.392 0 .848.72 1.392 1.664 1.392zm9.856 1.152c-.976 0-1.84-.448-2.48-1.264v4.016h-1.68v-10.672h1.68v1.056c.576-.768 1.472-1.248 2.48-1.248 2 0 3.424 1.504 3.424 4.048s-1.424 4.064-3.424 4.064zm-.496-1.488c1.328 0 2.192-1.072 2.192-2.576s-.864-2.56-2.192-2.56c-.784 0-1.6.448-1.984 1.024v3.056c.368.576 1.2 1.056 1.984 1.056zm9.76 1.488c-.976 0-1.84-.448-2.48-1.264v4.016h-1.68v-10.672h1.68v1.056c.576-.768 1.472-1.248 2.48-1.248 2 0 3.424 1.504 3.424 4.048s-1.424 4.064-3.424 4.064zm-.496-1.488c1.328 0 2.192-1.072 2.192-2.576s-.864-2.56-2.192-2.56c-.784 0-1.6.448-1.984 1.024v3.056c.368.576 1.2 1.056 1.984 1.056zm7.28 1.296v-10.672h-1.68V316h1.68zm3.024-8.672c.576 0 1.04-.464 1.04-1.04 0-.576-.464-1.04-1.04-1.04-.576 0-1.04.464-1.04 1.04 0 .576.464 1.04 1.04 1.04zm.832 8.672v-7.728h-1.68V316h1.68zm5.696.192c1.52 0 2.416-.656 2.96-1.376l-1.104-1.04c-.432.608-1.024.928-1.776.928-1.392 0-2.336-1.072-2.336-2.576s.944-2.56 2.336-2.56c.752 0 1.344.288 1.776.896l1.104-1.008c-.544-.736-1.44-1.376-2.96-1.376-2.336 0-3.984 1.712-3.984 4.048 0 2.336 1.648 4.064 3.984 4.064zM146.72 316h-1.68v-.848c-.576.672-1.488 1.04-2.512 1.04-1.248 0-2.672-.864-2.672-2.56 0-1.792 1.408-2.528 2.672-2.528 1.056 0 1.936.336 2.512.992v-1.152c0-.896-.752-1.44-1.808-1.44-.864 0-1.632.32-2.288.992l-.704-1.168c.896-.864 2.016-1.248 3.248-1.248 1.728 0 3.232.72 3.232 2.784V316zm-3.52-.96c.72 0 1.44-.272 1.84-.8v-1.184c-.4-.528-1.12-.8-1.84-.8-.944 0-1.664.56-1.664 1.392 0 .848.72 1.392 1.664 1.392zm8.032 1.152c.768 0 1.264-.224 1.568-.496l-.4-1.28c-.128.144-.416.288-.736.288-.48 0-.736-.4-.736-.928v-4.048h1.568v-1.456h-1.568v-2.112h-1.68v2.112h-1.28v1.456h1.28v4.464c0 1.296.672 2 1.984 2zm3.616-8.864c.576 0 1.04-.464 1.04-1.04 0-.576-.464-1.04-1.04-1.04-.576 0-1.04.464-1.04 1.04 0 .576.464 1.04 1.04 1.04zm.832 8.672v-7.728H154V316h1.68zm5.68.192c-2.464 0-3.968-1.856-3.968-4.064 0-2.224 1.504-4.048 3.968-4.048s3.968 1.824 3.968 4.048c0 2.208-1.504 4.064-3.968 4.064zm0-1.488c1.44 0 2.224-1.2 2.224-2.576 0-1.36-.784-2.56-2.224-2.56-1.424 0-2.224 1.2-2.224 2.56 0 1.376.8 2.576 2.224 2.576zM173.952 316v-5.44c0-1.584-.832-2.48-2.496-2.48-1.216 0-2.224.624-2.736 1.232v-1.04h-1.68V316h1.68v-5.408c.4-.512 1.136-1.024 1.984-1.024.944 0 1.568.384 1.568 1.6V316h1.68zm3.056.176c.608 0 1.12-.528 1.12-1.136 0-.592-.512-1.104-1.12-1.104-.608 0-1.12.512-1.12 1.104 0 .608.512 1.136 1.12 1.136zm7.216.016c-.976 0-1.84-.448-2.48-1.264v4.016h-1.68v-10.672h1.68v1.056c.576-.768 1.472-1.248 2.48-1.248 2 0 3.424 1.504 3.424 4.048s-1.424 4.064-3.424 4.064zm-.496-1.488c1.328 0 2.192-1.072 2.192-2.576s-.864-2.56-2.192-2.56c-.784 0-1.6.448-1.984 1.024v3.056c.368.576 1.2 1.056 1.984 1.056zm5.28 4.32c.224.064.704.112.944.112 1.2-.016 2.112-.432 2.64-1.744l3.728-9.12h-1.792l-2.256 5.792-2.256-5.792h-1.808l3.184 7.824-.384.88c-.224.512-.576.672-1.12.672-.192 0-.464-.048-.64-.128l-.24 1.504z" fill-opacity=".5" fill="#080437"/><g transform="translate(30 298)"><polygon fill="#FFF" points="0.5004 1.4999 0.5004 24.2659 16.5004 24.2659 16.5004 6.3209 12.1474 1.4999"/><g transform="translate(0 .766)"><polygon stroke="#0069FF" stroke-linecap="round" stroke-linejoin="round" points="16.5002 23.4998 0.5002 23.4998 0.5002 0.7338 12.1472 0.7338 16.5002 5.5558"/><path d="M12.9 5.556h3.6L12.15.734v3.99c0 .46.336.832.75.832" fill="#B3D9FF"/><path d="M12.9 5.556h3.6L12.15.734v3.99c0 .46.336.832.75.832z" stroke="#0069FF" stroke-linecap="round" stroke-linejoin="round"/><path d="M9.014 8.194h4.733M3.253 8.194H5.4M3.253 11.137h10.494M11.867 14.08h1.88M3.253 14.08H8.5M5.72 17.023h8.027" stroke="#B3D9FF" stroke-linecap="round"/><path d="M5.402 8.194h3.612M8.5 14.08h3.367M3.253 17.023H5.72" stroke="#0069FF" stroke-linecap="round" stroke-linejoin="round"/></g></g><g transform="translate(382 68)"><use fill="#000" filter="url(#e)" xlink:href="#f"/><use fill="#FFF" xlink:href="#f"/><path stroke="#DFDFDF" stroke-width="2" d="M3.24 1C2.003 1 1 2.003 1 3.24v128.52c0 1.237 1.003 2.24 2.24 2.24h101.52c1.237 0 2.24-1.003 2.24-2.24V3.24c0-1.237-1.003-2.24-2.24-2.24H3.24z"/></g><g transform="translate(402 48)"><use fill="#000" filter="url(#g)" xlink:href="#h"/><use fill="#FFF" xlink:href="#h"/><path stroke="#DFDFDF" stroke-width="2" d="M107 32.414L75.586 1H3.24C2.003 1 1 2.003 1 3.24v128.52c0 1.237 1.003 2.24 2.24 2.24h101.52c1.237 0 2.24-1.003 2.24-2.24V32.414z"/></g><path d="M477 48l32.4 32.4h-29.16c-1.79 0-3.24-1.45-3.24-3.24V48z" fill="#DFDFDF"/><g><path d="M456.066 93c-1.842.01-3.6.168-5.148.446-4.56.816-5.387 2.524-5.387 5.673v4.16h10.774v1.386H441.49c-3.13 0-5.872 1.906-6.73 5.533-.99 4.157-1.033 6.75 0 11.092.766 3.232 2.595 5.534 5.726 5.534h3.704v-4.987c0-3.603 3.076-6.78 6.73-6.78h10.76c2.995 0 5.386-2.5 5.386-5.547V99.12c0-2.96-2.462-5.18-5.386-5.674-1.85-.313-3.77-.454-5.612-.446zm-5.826 3.346c1.112 0 2.02.936 2.02 2.086 0 1.147-.908 2.074-2.02 2.074-1.117 0-2.022-.927-2.022-2.074 0-1.15.905-2.086 2.022-2.086z" fill="#0069FF" fill-rule="nonzero"/><path d="M468.408 104.666v4.847c0 3.757-3.144 6.92-6.73 6.92h-10.76c-2.948 0-5.387 2.556-5.387 5.546v10.393c0 2.958 2.54 4.697 5.388 5.546 3.41 1.015 6.68 1.2 10.76 0 2.712-.797 5.386-2.398 5.386-5.547v-4.16h-10.76v-1.387h16.147c3.132 0 4.3-2.212 5.387-5.534 1.125-3.42 1.077-6.707 0-11.093-.773-3.158-2.25-5.534-5.386-5.534h-4.042zm-6.052 26.32c1.117 0 2.022.927 2.022 2.074 0 1.15-.905 2.086-2.022 2.086-1.113 0-2.02-.936-2.02-2.086 0-1.147.907-2.074 2.02-2.074z" fill-opacity=".5" fill="#0069FF" fill-rule="nonzero"/><g transform="translate(413 173)"><use fill="#000" filter="url(#i)" xlink:href="#j"/><use fill="#FFF" xlink:href="#j"/><path stroke="#000" d="M3.606 7.87c-.003-.205-.01-.497-.05-.83-.093-.79-.31-1.728-.56-2.41-.3-.824-.555-1.98-.62-2.9C2.277.39 2.54-.5 3.465-.5c.928 0 1.334.486 1.666 1.586-.03-.1.266.937.373 1.256.104.314.178.657.228 1.033.036.28.057.515.07.828.316-.45.893-.634 1.727-.634.59 0 .9.303 1.064.837.078-.3.23-.52.483-.666.283-.162.49-.18 1.172-.172h.244c.664 0 .975.384 1.13 1.05.112-.076.25-.118.406-.118 1.06 0 1.5.782 1.5 3 0 .413.008.76.025 1.188.044 1.162.04 1.31-.106 1.722-.1.275-.255.537-.52.89l-1.407 1.876c-.01.135-.033.292-.077.454-.135.505-.43.87-.952.87-.38 0-.63-.177-.946-.534l-.12-.138c-.22-.254-.32-.328-.398-.328-.08 0-.202.09-.33.28-.098.146-.167.297-.198.385l-.117.335H4.86l-.134-.103c-.107-.082-.29-.228-.526-.423-.39-.324-.783-.67-1.15-1.02-.307-.295-.584-.582-.823-.857-.257-.297-.468-.577-.625-.84-.173-.288-.26-.415-.77-1.157l-.236-.346C-.29 8.437-.646 7.644-.454 6.88-.1 5.45 1.333 5.007 2.383 6.057c.253.253.474.566.75 1.026.064.105.275.466.316.534.06.1.11.18.156.25zM10.53 8l.5.5h-.5V10 8.25v.25zm-2 3c0 .067.046.256.11.407.032.074.064.13.086.158-.023-.028-.08-.065-.196-.065-.11 0-.168.037-.19.064.02-.026.052-.08.083-.154.063-.15.107-.338.107-.41V9c0-.067-.046-.256-.11-.407-.03-.074-.063-.13-.085-.158.022.028.08.065.195.065.11 0 .168-.037.19-.064-.02.026-.052.08-.082.154-.063.15-.108.338-.108.41v2zm-2 0V9c0-.072.045-.26.108-.41.03-.073.06-.128.083-.154-.022.027-.08.064-.19.064-.114 0-.173-.037-.195-.065.022.027.054.084.085.158.064.15.11.34.11.407v2c0 .072-.044.26-.107.41-.03.073-.062.128-.083.154.022-.027.08-.064.19-.064.115 0 .173.037.196.065-.022-.027-.054-.084-.086-.158-.064-.15-.11-.34-.11-.407z"/></g></g><g transform="translate(195 95)" fill="#DFDFDF"><rect y="27" width="60" height="6" rx="3"/><rect transform="rotate(-90 30 30)" y="27" width="60" height="6" rx="3"/></g></g></svg>
