<svg xmlns="http://www.w3.org/2000/svg" viewBox="0 0 62.9 57.4"><style>.st0{fill:none;stroke:#120078;stroke-width:1.5;stroke-miterlimit:10;} .st1{fill:#0069FF;} .st2{fill:#E5F0FF;} .st3{fill:#FFFFFF;}</style><circle class="st0" cx="31.5" cy="28.7" r="28"/><path class="st1" d="M15.8 56c-1.7-1-2.3-3.1-1.3-4.8 1-1.7 3.1-2.2 4.8-1.3 1.7 1 2.3 3.1 1.3 4.8-.7 1.1-1.8 1.8-3 1.8-.6 0-1.2-.1-1.8-.5zm26.7-1.3c-1-1.7-.4-3.8 1.3-4.8 1.7-1 3.8-.4 4.8 1.3 1 1.7.4 3.8-1.3 4.8-.5.3-1.2.5-1.8.5-1.2-.1-2.3-.7-3-1.8zM0 28.9c0-.1 0-.1 0 0v-.1c0-1.9 1.6-3.5 3.5-3.5S7 26.9 7 28.8v.1c0 1.9-1.6 3.5-3.5 3.5-1.9-.1-3.5-1.6-3.5-3.5zm55.9-.2c0-1.9 1.6-3.5 3.5-3.5s3.5 1.6 3.5 3.5-1.6 3.5-3.5 3.5-3.5-1.6-3.5-3.5zm0 0zM14.4 6.3c-1-1.7-.4-3.8 1.3-4.8 1.7-1 3.8-.4 4.8 1.3 1 1.7.4 3.8-1.3 4.8-.5.3-1.1.4-1.7.4-1.2 0-2.4-.6-3.1-1.7zm29.3 1.2c-1.7-1-2.2-3.1-1.3-4.8 1-1.7 3.1-2.2 4.8-1.3 1.7 1 2.2 3.1 1.3 4.8-.7 1.1-1.8 1.8-3 1.8-.7 0-1.3-.2-1.8-.5z"/><circle class="st2" cx="31.5" cy="28.7" r="18.1"/><line class="st0" x1="31.5" y1="19.7" x2="31.5" y2="37.8"/><line class="st0" x1="22.4" y1="28.7" x2="40.5" y2="28.7"/><g><path class="st3" d="M16.8 54.3c-.7-.4-1-1.3-.6-2.1.4-.7 1.3-1 2.1-.6.7.4 1 1.3.5 2.1-.3.5-.8.8-1.3.8-.2 0-.5-.1-.7-.2zm27.4-.6c-.4-.7-.2-1.7.6-2.1.7-.4 1.6-.2 2 .5.4.7.2 1.6-.5 2.1-.2.1-.5.2-.8.2-.5 0-1-.3-1.3-.7zM2 28.8v-.1c0-.8.7-1.5 1.5-1.5s1.5.7 1.5 1.5v.1c0 .8-.7 1.5-1.5 1.5S2 29.7 2 28.8zm55.9-.1c0-.8.7-1.5 1.5-1.5s1.5.7 1.5 1.5-.7 1.5-1.5 1.5-1.5-.7-1.5-1.5zM16.2 5.3c-.4-.7-.2-1.6.5-2 .7-.4 1.6-.2 2 .5.4.7.2 1.6-.5 2.1-.2 0-.5.1-.7.1-.5 0-1.1-.3-1.3-.7zm28.5.5c-.7-.4-1-1.3-.5-2 .4-.7 1.3-1 2-.6s1 1.3.6 2.1c-.4.4-.9.7-1.4.7-.2 0-.5-.1-.7-.2z"/></g></svg>
