<svg xmlns="http://www.w3.org/2000/svg" viewBox="0 0 53 57.5"><style>.st0{fill:#E5F0FF;} .st1{fill:none;stroke:#120078;stroke-width:1.5;stroke-miterlimit:10;} .st2{fill:none;stroke:#0069FF;stroke-width:1.5;stroke-miterlimit:10;}</style><rect x="1.4" y="27.8" class="st0" width="50.3" height="24.9"/><polyline class="st1" points="0.8,27.8 0.8,0.8 52.2,0.8 52.2,38.7"/><line class="st1" x1=".8" y1="9.2" x2="44.6" y2="9.2"/><line class="st2" x1="5.5" y1="4.9" x2="7.1" y2="4.9"/><line class="st2" x1="9.8" y1="4.9" x2="11.4" y2="4.9"/><line class="st2" x1="19.3" y1="19.6" x2="25.1" y2="19.6"/><line class="st2" x1="9.8" y1="19.6" x2="16.3" y2="19.6"/><line class="st2" x1="31.4" y1="25.1" x2="36.4" y2="25.1"/><line class="st2" x1="17.5" y1="25.1" x2="28.6" y2="25.1"/><line class="st2" x1="9.8" y1="25.1" x2="14.5" y2="25.1"/><line class="st2" x1="24.8" y1="30.6" x2="32.3" y2="30.6"/><line class="st2" x1="9.8" y1="30.6" x2="22.1" y2="30.6"/><line class="st2" x1="20.9" y1="36.2" x2="25.9" y2="36.2"/><line class="st2" x1="9.8" y1="36.2" x2="17.5" y2="36.2"/><polyline class="st2" points="52.2,57.5 52.2,46.5 0.8,46.5 0.8,27.8"/></svg>
