<svg aria-hidden="true" width="30" height="25" viewBox="0 0 30 25" xmlns="http://www.w3.org/2000/svg"><path d="M29.36 8.44c0-4.92-2.76-7.68-6-7.68-3 0-5.16 2.4-5.16 5.16 0 2.76 2.04 5.04 4.8 5.04.36 0 1.2-.12 1.32-.24-.24 3.84-3.24 8.52-7.08 11.16l3.6 2.88c4.68-3.36 8.52-9.6 8.52-16.32zm-17.04 0c0-4.92-2.76-7.68-6-7.68-3 0-5.16 2.4-5.16 5.16 0 2.76 2.04 5.04 4.8 5.04.48 0 1.2-.12 1.32-.24-.24 3.84-3.24 8.52-7.08 11.16l3.6 2.88c4.68-3.36 8.52-9.6 8.52-16.32z" fill="#FFF" fill-rule="evenodd" fill-opacity=".1"/></svg>
