<svg xmlns="http://www.w3.org/2000/svg" viewBox="0 0 55.6 55.2"><style>.st0{fill:url(#SVGID_1_);} .st1{fill:none;stroke:#0069FF;stroke-linecap:round;stroke-miterlimit:10;} .st2{fill:url(#SVGID_2_);} .st3{fill:#0069FF;} .st4{fill:none;stroke:#0069FF;stroke-miterlimit:10;}</style><linearGradient id="SVGID_1_" gradientUnits="userSpaceOnUse" x1="-1703.707" y1="-3675.664" x2="-1670.961" y2="-3675.664" gradientTransform="rotate(135 -1588.72 -1472.07)"><stop offset="0" stop-color="#0069FF" stop-opacity=".3"/><stop offset="1" stop-color="#0069FF" stop-opacity="0"/></linearGradient><path class="st0" d="M39.2 0c-9 0-16.4 7.3-16.4 16.4s7.3 16.4 16.4 16.4c9 0 16.4-7.3 16.4-16.4S48.2 0 39.2 0zm-8.8 12.8c-1.1 1.1-2.9 1.1-4 0s-1.1-2.9 0-4 2.9-1.1 4 0 1.1 2.9 0 4z"/><ellipse transform="rotate(-45 12.217 43.03)" class="st1" cx="12.2" cy="43" rx="5.9" ry="5.9"/><linearGradient id="SVGID_2_" gradientUnits="userSpaceOnUse" x1="-1521.783" y1="757.169" x2="-1509.986" y2="757.169" gradientTransform="rotate(-45 -1613.867 -1444.51)"><stop offset="0" stop-color="#0069FF" stop-opacity=".4"/><stop offset="1" stop-color="#0069FF" stop-opacity="0"/></linearGradient><circle class="st2" cx="12.2" cy="43" r="5.9"/><ellipse transform="rotate(-45 38.718 16.53)" class="st3" cx="38.7" cy="16.5" rx="2.3" ry="2.3"/><path class="st4" d="M27.2 13.6c-.7 1.7-1 3.4-1.1 5.3l-.3 8.4"/><path class="st4" d="M23.9 46c-.8 1.9-1.9 3.6-3.4 5l-.3.3c-4.5 4.5-11.8 4.5-16.3 0S-.6 39.5 3.9 35l.3-.3c2.9-2.9 6.7-4.5 10.7-4.7l21.5-.9c4-.2 7.8-1.8 10.7-4.7 4.5-4.5 4.5-11.8 0-16.3s-11.8-4.5-16.3 0l-.4.4"/><path class="st4" d="M25.5 32.2l-.3 8.2c0 .5-.1 1-.1 1.5M50.1 28.6c-3.4 3.4-7.9 5.4-12.7 5.6l-4.7.2M18.1 24.7l-4.7.2c-4.8.2-9.3 2.2-12.7 5.6"/><ellipse transform="rotate(-45 24.782 44.015)" class="st4" cx="24.8" cy="44" rx="2.2" ry="2.2"/><ellipse transform="rotate(-45 28.335 10.776)" class="st4" cx="28.3" cy="10.8" rx="2.9" ry="2.9"/></svg>
