<svg xmlns="http://www.w3.org/2000/svg" viewBox="0 0 83.2 83.2"><style>.st0{fill:#E5F0FF;} .st1{fill:#0069FF;}</style><circle class="st0" cx="41.6" cy="41.6" r="41.6"/><ellipse transform="rotate(-86.116 25.884 25.523)" class="st1" cx="25.9" cy="25.5" rx="2.3" ry="2.3"/><ellipse transform="rotate(-86.114 20.96 32.844)" class="st1" cx="21" cy="32.8" rx="2.3" ry="2.3"/><ellipse transform="rotate(-86.114 19.21 41.453)" class="st1" cx="19.2" cy="41.5" rx="2.3" ry="2.3"/><ellipse transform="rotate(-86.114 20.936 50.13)" class="st1" cx="20.9" cy="50.1" rx="2.3" ry="2.3"/><ellipse transform="rotate(-86.116 25.962 57.573)" class="st1" cx="26" cy="57.6" rx="2.3" ry="2.3"/><ellipse transform="rotate(-86.114 33.302 62.328)" class="st1" cx="33.3" cy="62.3" rx="2.3" ry="2.3"/><circle class="st1" cx="49.7" cy="52.3" r="2.3"/><circle class="st1" cx="54.6" cy="45.6" r="2.3"/><circle class="st1" cx="54.7" cy="37.5" r="2.3"/><circle class="st1" cx="49.7" cy="30.6" r="2.3"/><ellipse transform="rotate(-86.116 33.345 20.605)" class="st1" cx="33.3" cy="20.6" rx="2.3" ry="2.3"/><path class="st1" d="M41.9 56.8c-8.5 0-15.4-6.9-15.4-15.4S33.4 26 41.9 26v4c-6.3 0-11.4 5.1-11.4 11.4 0 6.3 5.1 11.4 11.4 11.4v4z"/><path class="st1" d="M41.7 66.1v-4c11.3 0 20.5-9.2 20.5-20.5S53 21.1 41.7 21.1v-4c13.5 0 24.5 11 24.5 24.5s-11 24.5-24.5 24.5z"/></svg>
