<svg width="158" height="44" viewBox="0 0 158 44" xmlns="http://www.w3.org/2000/svg" xmlns:xlink="http://www.w3.org/1999/xlink"><title>Spaces</title><defs><polygon id="a" points="13.0197876 16.1889655 13.0197876 0.187586207 0.625518584 0.187586207 0.625518584 16.1889655 13.0197876 16.1889655"/></defs><g fill="none" fill-rule="evenodd"><path d="M63.767 23.342c-4.09-.717-6.557-2.9-6.557-6.488 0-3.868 3.56-6.24 7.713-6.24 3.87 0 6.338 1.655 8.085 3.495l-2.59 2.744c-1.218-1.466-2.968-2.87-5.65-2.87-2.686 0-3.81 1.466-3.81 2.777 0 1.498.968 2.56 3.62 2.963l2.186.375c4.81.78 6.994 3.244 6.994 6.738 0 3.65-3.09 6.332-8.367 6.332-4.058 0-6.9-1.902-8.71-4.18l2.53-2.558c1.342 1.748 3.152 3.37 6.65 3.37 2.778 0 4.15-1.28 4.15-2.902 0-1.435-.904-2.65-3.59-3.12l-2.653-.436zM84.936 30.05c2.717 0 4.09-2.28 4.09-4.836 0-2.558-1.373-4.836-4.09-4.836-2.747 0-4.09 2.278-4.09 4.836 0 2.557 1.343 4.835 4.09 4.835m.25 3.12c-1.998 0-3.403-.75-4.277-1.468v7.174h-3.56V17.54h3.497v1.372c.936-.997 2.185-1.746 4.34-1.746 4.402 0 7.46 3.43 7.46 8.016 0 4.587-3.058 7.987-7.46 7.987M101.514 30.05c1.375 0 2.81-.563 3.592-1.312v-1.746c-.907-.343-1.905-.623-3.185-.623-1.622 0-2.716.652-2.716 1.9 0 .968.75 1.78 2.31 1.78m-5.87-1.53c0-3.493 2.843-5.115 6.37-5.115 1.155 0 2.436.31 3.092.53v-1.03c0-1.56-1.343-2.527-2.998-2.527-1.188 0-2.654.47-3.62 2.216l-2.405-2.246c1.218-2.153 3.715-3.182 6.056-3.182 3.808 0 6.525 1.872 6.525 5.77v9.89h-3.498v-1.187c-.968.842-2.404 1.53-4.37 1.53-2.778 0-5.152-1.717-5.152-4.65M115.66 25.183c0 2.776 1.78 4.772 4.182 4.772 1.905 0 2.903-.935 3.933-2.37l2.437 2.278c-1.218 1.776-3.34 3.306-6.496 3.306-4.213 0-7.68-3.4-7.68-7.987 0-4.586 3.467-8.017 7.68-8.017 2.78 0 4.747 1.153 6.214 3.057l-2.467 2.37c-.967-1.28-2.028-2.183-3.65-2.183-2.406 0-4.154 1.996-4.154 4.773M131.8 23.405h6.525c-.032-1.342-.812-2.995-3.185-2.995-1.997 0-3.06 1.528-3.34 2.995zm-.188 2.838c.187 2.308 1.75 3.712 4.028 3.712 1.81 0 3.06-.873 3.935-2.153l2.403 2.247c-1.31 1.683-3.217 3.12-6.338 3.12-4.59 0-7.68-3.245-7.68-7.894 0-4.43 2.716-8.11 7.15-8.11 4.933 0 6.992 3.96 6.992 7.83 0 .53-.03 1.247-.03 1.247h-10.46z" fill="#FFF"/><g transform="translate(144.195 16.98)"><mask id="b" fill="#fff"><use xlink:href="#a"/></mask><path d="M5.682 9.577c-2.87-.656-4.65-2.184-4.65-4.835C1.03 1.902 3.404.188 6.62.188c2.59 0 4.37 1.09 5.775 2.557l-2.278 2.433c-.686-.935-1.875-1.934-3.592-1.934-1.31 0-2.09.655-2.09 1.435 0 .748.654 1.217 1.5 1.434l2.402.56c2.746.625 4.683 2.092 4.683 4.774 0 2.65-2.06 4.74-6.056 4.74-3.185 0-5.153-1.465-6.338-2.962l2.247-2.31c1.124 1.467 2.56 2.216 4.37 2.216s2.342-.81 2.342-1.56c0-.655-.406-1.09-1.873-1.496l-2.03-.5z" fill="#FFF" mask="url(#b)"/></g><g stroke="#FFF" stroke-width="3.461"><path d="M21.92 2.35c10.81 0 19.57 8.754 19.57 19.553 0 10.396-8.12 18.897-18.368 19.516" stroke-linecap="round"/><path d="M23.12 41.42c-.396.023-.797.035-1.2.035-10.807 0-19.57-8.753-19.57-19.552 0-10.798 8.763-19.55 19.57-19.55" stroke-linecap="round" stroke-dasharray="0.08689655312176409,6.056551440008755"/><path d="M21.92 33.67c-6.503 0-11.775-5.27-11.775-11.767 0-6.498 5.272-11.765 11.776-11.765"/><path d="M21.92 10.138h.047" stroke-linecap="round"/><path d="M27.776 11.693c3.538 2.03 5.92 5.84 5.92 10.21 0 5.445-3.7 10.026-8.727 11.368" stroke-linecap="round" stroke-dasharray="0.08689655312176409,6.070344859156116"/><path d="M21.967 33.67h-.046" stroke-linecap="round"/></g></g></svg>
