<svg xmlns="http://www.w3.org/2000/svg" viewBox="0 0 375 375"><style>.st0{fill:url(#SVGID_1_);} .st1{fill:none;stroke:#0069FF;stroke-width:2.5;stroke-miterlimit:10;} .st2{fill:#0069FF;} .st3{fill:#FFFFFF;} .st4{fill:none;stroke:#0069FF;stroke-width:2;stroke-linecap:round;stroke-miterlimit:10;} .st5{fill:none;stroke:#0069FF;stroke-width:2;stroke-linecap:round;stroke-miterlimit:10;stroke-dasharray:0,5.3412;} .st6{fill:none;stroke:#0069FF;stroke-width:2;stroke-linecap:round;stroke-miterlimit:10;stroke-dasharray:0,4.9333;} .st7{fill:none;stroke:url(#SVGID_2_);stroke-width:2;stroke-linecap:round;stroke-miterlimit:10;} .st8{fill:none;stroke:url(#SVGID_3_);stroke-width:2;stroke-linecap:round;stroke-miterlimit:10;stroke-dasharray:0,4.983;} .st9{fill:none;stroke:url(#SVGID_4_);stroke-width:2;stroke-linecap:round;stroke-miterlimit:10;} .st10{fill:none;stroke:#00D688;stroke-width:2;stroke-linecap:round;stroke-miterlimit:10;} .st11{fill:none;stroke:#00D688;stroke-width:2;stroke-linecap:round;stroke-miterlimit:10;stroke-dasharray:0,4.683;} .st12{fill:none;stroke:#0069FF;stroke-width:2;stroke-linecap:round;stroke-miterlimit:10;stroke-dasharray:0,4.9171;} .st13{fill:none;stroke:url(#SVGID_5_);stroke-width:2;stroke-linecap:round;stroke-miterlimit:10;stroke-dasharray:0,4.9421;} .st14{fill:none;stroke:url(#SVGID_6_);stroke-width:2;stroke-linecap:round;stroke-miterlimit:10;} .st15{fill:none;stroke:url(#SVGID_7_);stroke-width:2;stroke-linecap:round;stroke-miterlimit:10;stroke-dasharray:0,4.9976;} .st16{fill:none;stroke:url(#SVGID_8_);stroke-width:2;stroke-linecap:round;stroke-miterlimit:10;} .st17{fill:none;stroke:#00D688;stroke-width:2;stroke-linecap:round;stroke-miterlimit:10;stroke-dasharray:0,4.9484;} .st18{fill:none;stroke:#0069FF;stroke-width:2;stroke-linecap:round;stroke-miterlimit:10;stroke-dasharray:0,5.1191;} .st19{fill:none;stroke:#FFFFFF;stroke-width:3;stroke-linecap:round;stroke-miterlimit:10;} .st20{fill:none;stroke:#0069FF;stroke-width:1.5;stroke-miterlimit:10;} .st21{opacity:0.47;} .st22{fill:url(#SVGID_9_);} .st23{fill:url(#SVGID_10_);} .st24{fill:url(#SVGID_11_);} .st25{fill:none;stroke:#0069FF;stroke-width:2;stroke-linecap:round;stroke-miterlimit:10;stroke-dasharray:0,5.0779;}</style><radialGradient id="SVGID_1_" cx="17.544" cy="799.845" r="235.114" gradientTransform="matrix(.797 0 0 .797 173.51 -450.364)" gradientUnits="userSpaceOnUse"><stop offset=".083" stop-color="#005FFF" stop-opacity=".15"/><stop offset="1" stop-color="#005FFF" stop-opacity="0"/></radialGradient><circle class="st0" cx="187.5" cy="187.5" r="187.5"/><path class="st1" d="M321.1 119.3c11 19.7 16.6 45.5 16.6 67.6 0 83.2-67.4 150.6-150.6 150.6S36.5 270 36.5 186.9c0-75.4 55.5-138 128-148.9M245.2 48c20.5 7.6 44 25.1 60.3 44.3"/><circle class="st2" cx="169.3" cy="233.4" r="4.1"/><path class="st3" d="M169.3 231c1.4 0 2.4 1 2.4 2.4s-1 2.4-2.4 2.4-2.4-1-2.4-2.4 1-2.4 2.4-2.4m0-3.4c-3.2 0-5.8 2.5-5.8 5.8s2.5 5.8 5.8 5.8c3.2 0 5.8-2.5 5.8-5.8s-2.8-5.8-5.8-5.8z"/><line class="st4" x1="177.1" y1="207.7" x2="177.1" y2="207.7"/><path class="st5" d="M172.8 204.5c-4.5-3.6-8.7-8.5-8.7-16.5 0-8.2 3.4-14.1 8.3-18.2"/><line class="st4" x1="174.6" y1="168.2" x2="174.6" y2="168.2"/><line class="st4" x1="234" y1="203.3" x2="234" y2="203.3"/><path class="st6" d="M232.1 207.9c-.5 1.1-1.1 2.2-1.7 3.2-9.3 13.9-19.3 23.6-44.3 24.2"/><line class="st4" x1="183.6" y1="235.4" x2="183.6" y2="235.4"/><linearGradient id="SVGID_2_" gradientUnits="userSpaceOnUse" x1="136.207" y1="227.156" x2="237.687" y2="227.156"><stop offset="0" stop-color="#00D688"/><stop offset="1" stop-color="#0069FF"/></linearGradient><line class="st7" x1="156.3" y1="227.2" x2="156.3" y2="227.2"/><linearGradient id="SVGID_3_" gradientUnits="userSpaceOnUse" x1="136.207" y1="180.499" x2="237.687" y2="180.499"><stop offset="0" stop-color="#00D688"/><stop offset="1" stop-color="#0069FF"/></linearGradient><path class="st8" d="M152.6 223.9c-10.9-10.4-15.4-23.6-15.4-37 0-27.5 22.2-49.7 49.7-49.7 27.5 0 49.7 22.2 49.7 49.7 0 4.9-.7 9.6-2 14.1"/><linearGradient id="SVGID_4_" gradientUnits="userSpaceOnUse" x1="136.207" y1="203.319" x2="237.687" y2="203.319"><stop offset="0" stop-color="#00D688"/><stop offset="1" stop-color="#0069FF"/></linearGradient><line class="st9" x1="234" y1="203.3" x2="234" y2="203.3"/><line class="st10" x1="174.3" y1="262.9" x2="174.3" y2="262.9"/><path class="st11" d="M169.7 261.9c-20.6-5.2-39.1-18.8-49.5-36.6"/><line class="st10" x1="119" y1="223.2" x2="119" y2="223.2"/><path class="st12" d="M191.9 109.8c36.3 2.2 65.9 29.5 71.5 65"/><linearGradient id="SVGID_5_" gradientUnits="userSpaceOnUse" x1="136.782" y1="705.697" x2="136.782" y2="613.206" gradientTransform="translate(0 -502)"><stop offset="0" stop-color="#00D688"/><stop offset="1" stop-color="#0069FF"/></linearGradient><path class="st13" d="M110.4 194.5c-.2-2.5-.3-5.1-.3-7.6 0-34.3 22.4-63.5 53.5-73.5"/><linearGradient id="SVGID_6_" gradientUnits="userSpaceOnUse" x1="292.69" y1="166.326" x2="255.129" y2="166.326"><stop offset="0" stop-color="#00D688"/><stop offset="1" stop-color="#0069FF"/></linearGradient><line class="st14" x1="290.3" y1="166.3" x2="290.3" y2="166.3"/><linearGradient id="SVGID_7_" gradientUnits="userSpaceOnUse" x1="292.69" y1="217.672" x2="255.129" y2="217.672"><stop offset="0" stop-color="#00D688"/><stop offset="1" stop-color="#0069FF"/></linearGradient><path class="st15" d="M290.9 171.3c.5 5.1.8 11.4.8 15.6 0 31.2-12.1 58.1-33.7 77.2"/><linearGradient id="SVGID_8_" gradientUnits="userSpaceOnUse" x1="292.69" y1="265.69" x2="255.129" y2="265.69"><stop offset="0" stop-color="#00D688"/><stop offset="1" stop-color="#0069FF"/></linearGradient><line class="st16" x1="256.1" y1="265.7" x2="256.1" y2="265.7"/><g><line class="st10" x1="230.2" y1="91.6" x2="230.2" y2="91.6"/><path class="st17" d="M234.5 94c17.2 10 34.5 25.4 43.9 42.6"/><line class="st10" x1="279.5" y1="138.8" x2="279.5" y2="138.8"/></g><g><line class="st4" x1="232.7" y1="282.4" x2="232.7" y2="282.4"/><path class="st18" d="M228 284.2c-12.3 4.5-27.7 7.2-40.9 7.2-57.7 0-104.6-46.9-104.6-104.6 0-7.3.7-14.4 2.2-21.2 4.3-18.1 10.9-29.1 16.7-37.7"/><line class="st4" x1="102.9" y1="125.8" x2="102.9" y2="125.8"/></g><g><circle class="st2" cx="287.1" cy="152.7" r="4.1"/><path class="st3" d="M287.1 150.4c1.4 0 2.4 1 2.4 2.4s-1 2.4-2.4 2.4-2.4-1-2.4-2.4c-.1-1.4 1-2.4 2.4-2.4m0-3.4c-3.2 0-5.8 2.5-5.8 5.8s2.5 5.8 5.8 5.8c3.2 0 5.8-2.5 5.8-5.8s-2.6-5.8-5.8-5.8z"/></g><g><circle class="st2" cx="187.1" cy="164.3" r="4.1"/><path class="st3" d="M187.1 161.9c1.4 0 2.4 1 2.4 2.4s-1 2.4-2.4 2.4-2.4-1-2.4-2.4 1.1-2.4 2.4-2.4m0-3.4c-3.2 0-5.8 2.5-5.8 5.8s2.5 5.8 5.8 5.8c3.2 0 5.8-2.5 5.8-5.8 0-3.1-2.6-5.8-5.8-5.8z"/></g><path class="st19" d="M264.4 186.5c0 42.6-34.5 77.4-77.1 77.4M110 116.4c19.2-20.9 46.7-34 77.2-34 11.2 0 21.9 1.7 31.9 4.9M209.5 186.9c0 12.4-10 22.4-22.4 22.4"/><line class="st20" x1="175.2" y1="99.4" x2="175.2" y2="48.2"/><g><rect x="286.1" y="99.1" class="st2" width="42.6" height="12.7"/></g><g><rect x="174.4" y="30" class="st2" width="49.7" height="12.7"/></g><g><rect x="202.9" y="221.6" class="st2" width="42.6" height="12.7"/></g><line class="st20" x1="287.1" y1="142.4" x2="287.1" y2="117.4"/><line class="st20" x1="244.3" y1="263.4" x2="244.3" y2="238.3"/><g><circle class="st2" cx="113.8" cy="211" r="4.1"/><path class="st3" d="M113.8 208.6c1.4 0 2.4 1 2.4 2.4s-1 2.4-2.4 2.4-2.4-1-2.4-2.4 1-2.4 2.4-2.4m0-3.4c-3.2 0-5.8 2.5-5.8 5.8 0 3.2 2.5 5.8 5.8 5.8 3.2 0 5.8-2.5 5.8-5.8s-2.6-5.8-5.8-5.8z"/></g><g class="st21"><linearGradient id="SVGID_9_" gradientUnits="userSpaceOnUse" x1="286.087" y1="607.45" x2="364.595" y2="607.45" gradientTransform="translate(0 -502)"><stop offset="0" stop-color="#0069FF"/><stop offset="1" stop-color="#0069FF" stop-opacity="0"/></linearGradient><rect x="286.1" y="99.1" class="st22" width="78.5" height="12.7"/></g><g class="st21"><linearGradient id="SVGID_10_" gradientUnits="userSpaceOnUse" x1="174.385" y1="538.357" x2="297.631" y2="538.357" gradientTransform="translate(0 -502)"><stop offset="0" stop-color="#0069FF"/><stop offset="1" stop-color="#0069FF" stop-opacity="0"/></linearGradient><rect x="174.4" y="30" class="st23" width="123.2" height="12.7"/></g><g class="st21"><linearGradient id="SVGID_11_" gradientUnits="userSpaceOnUse" x1="135" y1="730.005" x2="245.345" y2="730.005" gradientTransform="translate(0 -502)"><stop offset="0" stop-color="#0069FF" stop-opacity="0"/><stop offset="1" stop-color="#0069FF"/></linearGradient><rect x="135" y="221.6" class="st24" width="110.3" height="12.7"/></g><g><circle class="st2" cx="244.7" cy="274.6" r="4.1"/><path class="st3" d="M244.7 272.2c1.4 0 2.4 1 2.4 2.4s-1 2.4-2.4 2.4-2.4-1-2.4-2.4c.1-1.4 1.1-2.4 2.4-2.4m0-3.4c-3.2 0-5.8 2.5-5.8 5.8 0 3.2 2.5 5.8 5.8 5.8 3.2 0 5.8-2.5 5.8-5.8 0-3.2-2.5-5.8-5.8-5.8z"/></g><g><circle class="st2" cx="175.5" cy="110.1" r="4.1"/><path class="st3" d="M175.5 107.7c1.4 0 2.4 1 2.4 2.4s-1 2.4-2.4 2.4-2.4-1-2.4-2.4 1-2.4 2.4-2.4m0-3.4c-3.2 0-5.8 2.5-5.8 5.8s2.5 5.8 5.8 5.8 5.8-2.5 5.8-5.8-2.6-5.8-5.8-5.8z"/></g><path class="st25" d="M200.3 167c4.3 2.4 8.9 8.2 8.9 12.6"/><ellipse transform="rotate(-89.2 26.51 63.286)" class="st2" cx="26.5" cy="63.3" rx="2.3" ry="2.3"/><ellipse transform="rotate(-89.2 358.874 170.66)" class="st2" cx="358.9" cy="170.7" rx="2.3" ry="2.3"/><ellipse transform="rotate(-89.2 357.725 318.29)" class="st2" cx="357.7" cy="318.3" rx="2.3" ry="2.3"/><ellipse transform="rotate(-89.2 32.336 325.275)" class="st2" cx="32.3" cy="325.3" rx="2.3" ry="2.3"/><ellipse transform="rotate(-89.2 137.335 349.506)" class="st2" cx="137.3" cy="349.5" rx="2.3" ry="2.3"/></svg>
