<svg xmlns="http://www.w3.org/2000/svg" viewBox="0 0 56 55.1"><style>.st0{fill:none;stroke:#0069FF;stroke-miterlimit:10;} .st1{fill:url(#SVGID_1_);} .st2{fill:#0069FF;}</style><circle class="st0" cx="29.3" cy="28.4" r="6.8"/><ellipse transform="rotate(-45 4.145 15.738)" class="st0" cx="4.1" cy="15.7" rx="3.6" ry="3.6"/><linearGradient id="SVGID_1_" gradientUnits="userSpaceOnUse" x1="5.184" y1="4.091" x2="53.218" y2="52.491"><stop offset="0" stop-color="#0069FF" stop-opacity=".3"/><stop offset="1" stop-color="#0069FF" stop-opacity="0"/></linearGradient><path class="st1" d="M39.7 18C26.4 4.7 11-1.4 5.2 4.3c-1.8 1.8-2.4 4.6-2 7.9 1.2-.3 2.6 0 3.5.9 1.4 1.4 1.4 3.7 0 5.2-.5.5-1 .8-1.6.9 2.5 6.1 7.3 13.1 13.8 19.6 13.3 13.3 28.7 19.4 34.5 13.6 5.7-5.7-.4-21.1-13.7-34.4zM29.3 35.2c-3.8 0-6.8-3.1-6.8-6.8s3.1-6.8 6.8-6.8c3.8 0 6.8 3.1 6.8 6.8s-3 6.8-6.8 6.8z"/><circle class="st2" cx="29.3" cy="28.4" r="2.5"/><path class="st0" d="M53.3 52.4c5.8-5.7-.3-21.1-13.6-34.4S11-1.4 5.2 4.3"/><path class="st0" d="M5.2 19.5c2.6 6.1 7.3 12.9 13.7 19.3 13.3 13.3 28.7 19.4 34.5 13.6M5.2 4.3c-1.8 1.8-2.4 4.5-2.1 7.9"/><g><path class="st0" d="M5.2 52.4c5.7 5.7 21.2-.4 34.5-13.6 13-13 19.1-28 14-34.1M48.8 2.3c-7.3-1-19.3 5.1-29.9 15.7C5.6 31.3-.5 46.7 5.2 52.4"/></g><ellipse transform="rotate(-45 51.21 3.315)" class="st0" cx="51.2" cy="3.3" rx="2.8" ry="2.8"/></svg>
