<svg xmlns="http://www.w3.org/2000/svg" viewBox="0 0 50.6 61"><style>.st0{fill:url(#SVGID_1_);} .st1{fill:none;stroke:#0069FF;stroke-miterlimit:10;} .st2{fill:#040025;stroke:#0069FF;stroke-miterlimit:10;}</style><linearGradient id="SVGID_1_" gradientUnits="userSpaceOnUse" x1="19.115" y1="36.703" x2="48.186" y2="7.632"><stop offset="0" stop-color="#0069FF" stop-opacity=".4"/><stop offset="1" stop-color="#0069FF" stop-opacity="0"/></linearGradient><polygon class="st0" points="50.1,40.6 20.4,40.6 20.4,0.5 39,0.5 50.1,11.8"/><polygon class="st1" points="50.1,40.6 20.4,40.6 20.4,0.5 39,0.5 50.1,11.8"/><polyline class="st1" points="43.5,40.6 43.5,47.2 13.8,47.2 13.8,7.2 20.2,7.2"/><polyline class="st1" points="36.8,47.2 36.8,53.9 7.1,53.9 7.1,13.8 13.6,13.8"/><polyline class="st1" points="30.2,53.8 30.2,60.5 0.5,60.5 0.5,20.4 7,20.4"/><polyline class="st1" points="50.1,11.6 39.2,11.6 39.2,0.6"/><line class="st2" x1="35.1" y1="17.6" x2="35.1" y2="26.1"/><line class="st2" x1="30.8" y1="21.9" x2="39.3" y2="21.9"/></svg>
