<svg width="917" height="229" viewBox="0 0 917 229" xmlns="http://www.w3.org/2000/svg"><g fill="#66ACFF" fill-rule="evenodd"><path d="M131.1 33.1h-2.7c-1.5 0-1.5-1.5-1.5-1.5h-.1c-.7 1.4-2.5 2-4.2 2-4.5 0-7.2-3.6-7.2-7.6 0-4.7 3.4-7.6 7.2-7.6 2.3 0 3.6 1.2 4.2 2h.1s0-1.5 1.5-1.5h2.8l-.1 14.2zm-7.8-3.5c2.7 0 3.6-2.3 3.6-3.6 0-1.7-1.2-3.6-3.6-3.6-2.4 0-3.5 2.1-3.5 3.7 0 1.2.9 3.5 3.5 3.5zM136 14h1.3v5.9c1.5-1.6 3.5-1.6 4.1-1.6 3 0 7 2.1 7 7.5 0 5.1-3.6 7.7-7.2 7.7-2 0-3.5-1-4.1-2V33H133V17c0-3 3-3 3-3zm4.6 15.6c2.2 0 3.6-1.8 3.6-3.6s-1.4-3.6-3.5-3.6c-2.3 0-3.5 1.8-3.5 3.6-.1 1.9 1.3 3.6 3.4 3.6zM152.5 14h1.3v5.9c1.5-1.6 3.6-1.6 4.1-1.6 3 0 7 2.1 7 7.5 0 5.1-3.6 7.7-7.2 7.7-2 0-3.5-1-4.1-2V33h-4.2V17c.1-3 3.1-3 3.1-3zm4.6 15.6c2.2 0 3.6-1.8 3.6-3.6s-1.4-3.6-3.5-3.6c-2.3 0-3.5 1.8-3.5 3.6 0 1.9 1.3 3.6 3.4 3.6zm13.2 3.5h-4.2V21.8c0-3 2.9-3 2.9-3h1.2v14.3h.1z" fill-rule="nonzero"/><circle cx="168.3" cy="15.7" r="2.2"/><path d="M113.5 28.8c-1.1 0-1.8-.8-1.9-.9l-.6-.9-.3-.4c3.6-.6 4.7-3.8 4.7-6 0-2-.8-4-2.3-5.2-1.2-1-2.5-1.4-5.9-1.4h-6v19h4.7v-5.7l1.8 2.3.7.9c.2.3 2.1 2.5 5.2 2.5h1.9v-4.3l-2 .1zm-6-5.2h-1.7v-5.3h1.7c1.9 0 3.1.8 3.1 2.6.1.9-.2 2.7-3.1 2.7zm71 5.2c-.1 0-.7 0-1.3-.3-.4-.2-.9-.6-.9-1.8v-4.6h2.8v-3.3h-2.8V14H175s-3 0-3 3v9.6c0 4.7 3.9 6.4 6.5 6.4h.6v-4.3l-.6.1zM49.8 18.3h-4.3V17c0-3 2.9-3 2.9-3h10.4v4.3h-4.2V33h-1.8c-3 0-3.1-3-3.1-3l.1-11.7z" fill-rule="nonzero"/><path d="M71.9 33.1h-2.7c-1.5 0-1.5-1.5-1.5-1.5h-.1c-.7 1.4-2.5 2-4.2 2-4.5 0-7.2-3.6-7.2-7.6 0-4.7 3.4-7.6 7.2-7.6 2.3 0 3.6 1.2 4.2 2h.1s0-1.5 1.5-1.5h2.7v14.2zm-7.8-3.5c2.7 0 3.6-2.3 3.6-3.6 0-1.7-1.2-3.6-3.6-3.6-2.4 0-3.5 2.1-3.5 3.7-.1 1.2.9 3.5 3.5 3.5zM80 22.8c0-.3-.1-1.1-1.3-1.1-.9 0-1.2.6-1.2 1 0 .8 1.1 1.2 2.2 1.5 2.4.7 5 1.4 5 4.5 0 3-2.6 4.8-5.8 4.8-2.2 0-5.4-1-5.8-4.8h4.2c.2 1.4 1.4 1.3 1.6 1.3.7 0 1.5-.4 1.5-1.1 0-1.1-1.1-1.2-3.8-2.3-1.8-.6-3.4-1.8-3.4-3.7 0-2.8 2.6-4.7 5.5-4.7 1.9 0 5.1.7 5.5 4.5l-4.2.1zm5.7 6.5v3.8H90v-6.9s.6.9 2.3 3.4C94.5 33 98.8 33 99 33h1v-3.8h-1s-2.6 0-3.7-1.7c-.7-1.1-1.2-1.8-1.5-2.2-.1-.1-.2-.3-.2-.3l5.4-6.3h-5l-4 5.1v-6.9c0-3-3-3-3-3h-1.3v15.4zm-46-7.4c-2.1-3.4-3.5-3.8-4.8-4.2-1.1-.3-2-.6-3.8-3.6-1.3-2.2-3-4.3-4.9-5.8-2.4-2-4.2-2.4-5.2-2.4-.7 0-1.3.2-1.9.6l-.8.6c-.2-.1-.5-.1-.6-.1-.4 0-.8.1-1.1.4-.4.3-.6.8-.5 1.4.1.6.5 1.4 1.3 2.3.3.3.6.7 1 1.1-.8-.1-1.7-.2-2.5-.2-4.6 0-8.7 2.1-11.4 5.5h-.3c-1.1 0-2.1.5-2.7 1.5-.5.8-.6 1.7-.3 2.6.1.5.4.9.7 1.3-.3 1.2-.5 2.4-.5 3.7 0 8 6.5 14.5 14.5 14.5 5.5 0 10.2-3 12.7-7.5h.7c.7 0 1.3-.1 1.8-.4.7-.3 1.1-.9 1.1-1.6.1-.7-.2-1.3-.9-1.8-.4-.3-.8-.4-1.2-.6.1-.3.1-.6.2-1 1.1.4 2.1.5 3.1.5.5 0 .9 0 1.6-.1 3.5-.2 4.9-1.5 5.4-2.5.2-.9.5-2.3-.7-4.2zm-5 5.6c-.5 0-1 .1-1.5.1-2 0-3.6-.4-5.3-2.1.1.4-.2.8-.5 1-.1 0-.2.1-.4.1s-.5-.1-.8-.4c.1 4.7 4.8 3.5 4.7 5.3 0 .6-.7.9-1.8.9-1.7 0-4.4-1-6.7-3.5-.8 1-1.8 1.7-2.9 2.2.9-1.2 1.5-2.8 1.5-4.4 0-4-3.3-7.3-7.3-7.3s-7.3 3.3-7.3 7.3v.7c.3-3.5 3.2-6.2 6.7-6.2 3.7 0 6.7 3 6.7 6.7 0 2-.9 3.8-2.3 5.1 1.3-.4 2.6-.7 3.6-.7.9 0 1.6.2 1.8.7.5 1-.4 2.7-2.8 3.9-1.6.9-3.8 1.6-5.9 1.6H14c-5.4-.3-11.6-4.4-11.6-12 0-1.5.2-2.9.7-4.1-.8-.3-1.6-1.7-.8-2.9.5-.7 1.2-1 1.8-1 .5 0 .9.1 1.1.3 2.3-2.7 5.8-4.1 9.1-4.1 5.8 0 8.5 3.9 10.6 3.9 1.8 0 2.2-.8 2.4-1.2-4.9-2.5-11.1-8.3-10-9.2.1-.1.3-.1.4-.1 2.4 0 10.6 6.7 12.1 9.4-1.8-4.6-7.7-9.4-9.9-10.1.3-.2.7-.4 1.2-.4 2.5 0 6.5 3.2 9.1 7.6 4 6.6 4.9 1.7 8.6 7.8 1.7 2.9 0 4.8-4.1 5.1zm.2-6.9c-.5 0-.9.4-.8 1 .1.5.6 1 1.1 1 .5 0 .9-.4.8-1 0-.6-.5-1-1.1-1zm213.5-10.4c-.1-.3-.3-.4-.6-.4H242c-.3 0-.5.2-.6.4l-7.3 23.1c-.1.2 0 .4.1.6.1.2.3.3.5.3h4c.3 0 .5-.2.6-.4l5-17s.1-.4.6-.4.6.4.6.4l2.3 8.1h-3.1c-.3 0-.5.2-.6.5l-.9 3.2c-.1.2 0 .4.1.5.1.2.3.2.5.2h5.3l1.4 4.5c.1.3.3.4.6.4h4c.2 0 .4-.1.5-.3.1-.2.2-.4.1-.6l-7.3-23.1zm17.3 20.4c0-.2-.1-.3-.3-.4-.1-.1-.3-.1-.5-.1-.6.2-1.3.2-1.7.2-.9 0-1.3-.4-1.3-1.3v-8.9h3.6c.3 0 .6-.3.6-.6v-2.8c0-.3-.3-.6-.6-.6h-3.6v-4.3c0-.2-.1-.3-.2-.5-.1-.1-.3-.2-.5-.1l-3.7.5c-.3 0-.5.3-.5.6v3.8h-2c-.3 0-.6.3-.6.6v2.8c0 .3.3.6.6.6h2v9.4c0 3.2 1.7 4.9 5.1 4.9 1 0 2.6-.2 3.6-.6.3-.1.5-.4.4-.7l-.4-2.5zm6.8-21.3h-3.7c-.3 0-.6.3-.6.6v23.6c0 .3.3.6.6.6h3.7c.3 0 .6-.3.6-.6V9.9c0-.3-.3-.6-.6-.6zm9.4 6.5c-1.9 0-4.1.3-5.7.7-.3.1-.5.4-.4.7l.4 2.7c0 .2.1.3.3.4.1.1.3.1.5.1 1.5-.3 3.1-.5 4.4-.5 2.6 0 3.1.6 3.1 2.3v1.6h-3.9c-3.7 0-5.3 1.5-5.3 5.2 0 3.5 1.8 5.5 4.8 5.5 1.8 0 3.5-.5 5-1.4l.2.6c.1.3.3.5.6.5h3c.3 0 .6-.3.6-.6V22.4c-.3-4.8-2.3-6.6-7.6-6.6zm2.4 11.7v2.2c-.6.3-1.7.8-3 .8-1.1 0-1.5-.3-1.5-1.5 0-1.1.2-1.5 1.6-1.5h2.9zm14.1-4.5c-2.3-.6-2.3-.6-2.3-1.9 0-.8.1-1.2 2-1.2 1.3 0 3.2.2 4.4.4.2 0 .3 0 .5-.1.1-.1.2-.3.2-.4l.3-2.8c0-.3-.2-.6-.5-.7-1.4-.3-3.4-.5-5-.5-5.6 0-6.8 2.1-6.8 5.3 0 3.5.7 4.7 5 5.7 2.8.7 2.8 1.2 2.8 2 0 1.1-.1 1.5-2 1.5-1.5 0-3.2-.2-4.8-.6-.2 0-.3 0-.5.1-.1.1-.2.2-.3.4l-.5 2.6c-.1.3.1.6.4.7 1.7.5 4 .9 5.8.9 5.4 0 6.6-2.3 6.6-5.7.2-3.7-.4-4.4-5.3-5.7zm14.1 0c-2.3-.6-2.3-.6-2.3-1.9 0-.8.1-1.2 2-1.2 1.3 0 3.2.2 4.4.4.2 0 .3 0 .5-.1.1-.1.2-.3.2-.4l.3-2.8c0-.3-.2-.6-.5-.7-1.4-.3-3.4-.5-5-.5-5.6 0-6.8 2.1-6.8 5.3 0 3.5.7 4.7 5 5.7 2.8.7 2.8 1.2 2.8 2 0 1.1-.1 1.5-2 1.5-1.5 0-3.2-.2-4.8-.6-.2 0-.3 0-.5.1-.1.1-.2.2-.3.4l-.5 2.6c-.1.3.1.6.4.7 1.7.5 4 .9 5.8.9 5.4 0 6.6-2.3 6.6-5.7.3-3.7-.4-4.4-5.3-5.7zm11.9-13.7h-3.7c-.3 0-.6.3-.6.6v3.2c0 .3.3.6.6.6h3.7c.3 0 .6-.3.6-.6V9.9c0-.3-.3-.6-.6-.6zm0 6.9h-3.7c-.3 0-.6.3-.6.6v16.7c0 .3.3.6.6.6h3.7c.3 0 .6-.3.6-.6V16.8c0-.4-.3-.6-.6-.6zm9.5-.4c-1.9 0-4.1.3-5.7.7-.3.1-.5.4-.4.7l.4 2.7c0 .2.1.3.3.4.1.1.3.1.5.1 1.5-.3 3.1-.5 4.4-.5 2.6 0 3.1.6 3.1 2.3v1.6h-3.9c-3.7 0-5.3 1.5-5.3 5.2 0 3.5 1.8 5.5 4.8 5.5 1.8 0 3.5-.5 5-1.4l.2.6c.1.3.3.5.6.5h3c.3 0 .6-.3.6-.6V22.4c-.3-4.8-2.3-6.6-7.6-6.6zm2.4 11.7v2.2c-.6.3-1.7.8-3 .8-1.1 0-1.5-.3-1.5-1.5 0-1.1.2-1.5 1.6-1.5h2.9zm18.5-11.7c-1.9 0-4.6.7-6.8 1.7l-.3-.9c-.1-.3-.3-.4-.6-.4h-2.7c-.3 0-.6.3-.6.6v16.7c0 .3.3.6.6.6h3.7c.3 0 .6-.3.6-.6V21.9c1.3-.7 3.2-1.4 4.3-1.4.8 0 1.1.3 1.1 1.1v11.8c0 .3.3.6.6.6h3.7c.3 0 .6-.3.6-.6V21.2c0-3.6-1.4-5.4-4.2-5.4zM238.6 1.6c-.2-.2-.4-.3-.7-.3-.1 0-.3 0-.4.1-5 2.7-10.8 4.2-16.8 4.2s-11.8-1.4-16.8-4.2c-.1-.1-.3-.1-.4-.1-.3 0-.5.1-.7.3-.2.3-.2.8.2 1.2 2.5 1.9 5.3 3.3 8.2 4.3 3 1 6.2 1.6 9.5 1.6 3.2 0 6.4-.5 9.5-1.6 2.9-1 5.7-2.5 8.2-4.3.5-.3.4-.9.2-1.2zm-6.1 7.7h-.2c-1.4.6-2.9 1-4.3 1.3-.3.1-.5.3-.6.5-1 2.7-3.5 5.2-6.1 7.9-.1.1-.3.2-.5.2s-.4-.1-.5-.2c-2.6-2.7-5.1-5.2-6.1-7.9-.1-.2-.3-.4-.6-.5-1.3-.3-2.8-.7-4.3-1.3h-.2c-.1 0-.3 0-.4.1-.2.1-.3.4-.3.6.2 2.2 1.1 4.4 2.7 6.7 1.5 2.1 3.4 4.1 5.3 6.1 3.5 3.5 6.7 6.9 7 10.8 0 .3.3.6.7.6h4.1c.2 0 .4-.1.5-.2.1-.1.2-.3.2-.5-.1-2.6-1.1-5.2-3-7.9-.4-.6-.8-1.1-1.3-1.7-.2-.2-.1-.5 0-.6l.4-.4c1.9-1.9 3.8-3.9 5.3-6.1 1.6-2.3 2.5-4.4 2.7-6.7.2-.3 0-.5-.1-.7-.1-.1-.3-.1-.4-.1zm-16.1 16.5c1.2 1.2 2.1 2.2 2.7 3.1.2.2.3.6.1 1-.6 1.2-1 2.4-1.1 3.6-.1.3-.3.6-.7.6h-4.1c-.2 0-.4-.1-.5-.2-.1-.1-.2-.3-.2-.5.1-2.4 1-4.9 2.7-7.5.1-.1.3-.3.6-.3s.4.1.5.2zm4.4-14.4c1.3 0 2-.1 2.3-.1.3 0 .6.3.6.6v.2c-.2.5-.9 2.1-2.4 3.5-.2.2-.3.2-.5.2-.1 0-.3 0-.5-.2-1.4-1.4-2.2-3-2.4-3.5v-.2c0-.4.3-.6.6-.6s1 .1 2.3.1zm174.6 131.5h-.8l5.3-14.7h7.3c1.3 0 2.7-1 3.1-2.2l5.8-15.9c.9-2.6-.5-4.7-3.3-4.7h-10.2l-8.5 23.5-4.8 13.3c-11.5-2.7-20-13.1-20-25.4 0-12 8.1-22.1 19-25.1l-5 13.7-8.3 22.8h5.5l7.1-19.4h4.2l-7.1 19.4h5.5l6.6-18.1c.9-2.6-.5-4.7-3.3-4.7h-4.6l5.3-14.7h1.2c14.4 0 26.1 11.7 26.1 26.1 0 14.4-11.7 26.1-26.1 26.1zm15.8-34.1H407l-5.8 16h4.2l5.8-16zM633 11c.9-.1 1.9-.2 2.7.3.5.4.6 1 .6 1.6 0 .9-.4 2-1.2 2.4-.7.4-1.6.4-2.5.4-.6-.1-1.1-.4-1.4-.9-.6-1.4.2-3.5 1.8-3.8zm-26.7 1.1c.1-.5.5-1 1-.9h11.6c.4 0 .9.2 1.1.5.3.5 0 1.1 0 1.6-.1.7-.1 1.6-.9 1.9-2.8.1-5.7 0-8.5 0-.3 1.8-.5 3.6-.8 5.3v.3h6.2c.6 0 1.2.5 1.1 1.1-.1.6-.2 1.2-.3 1.9-.1.4-.4.8-.8.9-2.3.1-4.6-.1-7 .1-.4 2.5-.8 5.1-1.2 7.6-.1.5-.5.9-1 1h-2.9c-.6 0-1.1-.7-1-1.3 1.3-6.8 2.4-13.4 3.4-20zm17.1-.9c.9-.1 1.8 0 2.6 0 .5 0 1.1.4 1.1.9 0 .4-.1.9-.2 1.3l-2.1 13.5c-.1.7-.3 1.5-.1 2.2.3.7 1.4.4 1.6 1.2.2.6 0 1.3-.1 1.9-.1.8-1 1-1.7 1.2-1.4.3-3.2.1-4.2-1.1-.7-.9-.8-2.1-.6-3.1.9-5.7 1.8-11.4 2.7-17.2.2-.4.6-.8 1-.8zm33.4.9c.1-.5.5-.9 1-.9h2.6c.6 0 1.2.7 1 1.3-.6 3.7-1.2 7.5-1.8 11.2.9-.1 1.9-.3 2.5-1 1-1.2 1.9-2.5 2.5-4 .2-.6.3-1.4 1.1-1.5h2.9c.7 0 1.1.7.9 1.3-.3.9-.7 1.7-1.1 2.5-1 1.6-2.1 3.1-3.5 4.4.6 1.9 1.4 3.7 2.1 5.5.2.6.7 1.3.2 1.9-.5.7-1.5.4-2.2.4-.8-.1-1.9.3-2.3-.6-.8-1.8-1.4-3.7-2.3-5.6H659c0 .1-.1.2-.1.3-.3 1.7-.5 3.4-.8 5.1-.1.4-.4.8-.9.8h-2.7c-.4 0-.7-.3-.9-.6-.2-.3-.1-.7 0-1.1 1.2-6.4 2.2-12.9 3.2-19.4zm46.8 1.8c.1-.5.6-.8 1-.8h2.1c.6 0 1 .6.9 1.1-.1 1-.3 1.9-.4 2.9h2c.6 0 1.1.6 1 1.2l-.3 1.5c-.1.4-.5.8-.9.9-.8.1-1.6 0-2.4.1-.3 2.3-.7 4.5-1.1 6.8-.1.5-.1 1.1.2 1.6.5.6 1.2.4 1.9.4.5.2.8.7.7 1.2-.1.6-.1 1.1-.2 1.7-.2.6-.9.7-1.5.9-1.5.4-3.3.4-4.7-.5-1.3-.9-1.5-2.5-1.3-3.9.4-2.7.9-5.4 1.2-8.2-.5 0-1 .1-1.4-.3-.4-.4-.2-1-.1-1.6.1-.6.1-1.3.7-1.6.5-.2 1-.1 1.6-.1.4-1.1.7-2.2 1-3.3zm-9.5 5.5c1.1-1.1 2.3-1.9 3.8-2.4.6-.3 1.5.3 1.4 1-.1.9-.3 1.8-.5 2.7-.1.5-.5.8-.9.9-1.6.3-3.1 1.3-4.2 2.5-.3.4-.7.7-.8 1.2-.4 2.4-.7 4.7-1.1 7.1-.1.5-.5 1-1 1h-2.6c-.6 0-1.1-.6-1-1.1.7-4.7 1.5-9.3 2.2-14 0-.5.4-.9.9-1h1.9c.5 0 1 .5 1 1 0 .7-.1 1.5-.1 2.2.4-.4.7-.8 1-1.1zm-62.9-2.2c.9-.2 1.9 0 2.8-.1.5-.1 1.1.3 1.2.8.1.5-.1.9-.1 1.4-.7 4.3-1.4 8.7-2.1 13-.1.5-.5 1-1 1h-2.7c-.6-.1-1-.7-.8-1.3l2.1-13.5c-.1-.5.1-1.1.6-1.3zm54.5.3c-2.5-.5-5.1-.8-7.6-.6-2.3.3-4.6 1.3-6 3.2-1.9 2.5-2.6 5.8-2.2 8.8.2 1.5.9 2.9 2.1 3.9 1.1.9 2.6 1 4 .8 1.9-.4 3.5-1.6 4.8-2.9.1.6-.1 1.1 0 1.7 0 .5.5 1 1 1h1.7c.5 0 .9-.5 1-1 .7-4.6 1.4-9.1 2.2-13.7 0-.6-.5-1.2-1-1.2zm-4.8 7.9c-.7 1.3-1.6 2.4-2.7 3.4-.6.5-1.4 1-2.2.9-.8-.2-1.2-1-1.4-1.7-.4-1.9 0-3.9 1-5.6.5-.8 1.2-1.3 2.1-1.6 1.2-.3 2.5-.2 3.7.2l.1.1c-.1 1.4-.3 2.8-.6 4.3zm-28.3-2.5c0-1.7-.5-3.5-1.6-4.7-.8-.9-2-1.3-3.2-1.3-2-.1-3.8.9-5.2 2.2-.3.3-.5.6-.9.8 0-.6.1-1.1 0-1.7 0-.5-.5-1-1-1H639c-.5 0-1 .5-1 1-1.1 6.7-2.1 13.5-3.2 20.2-.2.6.4 1.3 1 1.2.9 0 1.9.1 2.8-.1.7-.2.7-1.1.8-1.7.3-1.5.5-3 .6-4.5 3.3.6 7.2.2 9.6-2.3 2.2-2.1 3.1-5.2 3-8.1zm-4.7 1.7c-.1 1.5-.7 3.1-1.7 4.2-1.4 1.3-3.5 1.1-5.2.7 0-.1-.1-.2-.1-.2.3-1.5.4-2.9.7-4.4.9-1.5 2.1-3.1 3.7-4 .6-.3 1.4-.2 1.9.3.7 1 .8 2.2.7 3.4zm-3.6 101.2h-21.5v-20.1h99.4v20.1h-77.9zm-11.7-13.9c1.4 3.3 2.8 6.6 4.1 9.9h1.1c1.4-3.3 2.7-6.6 4.1-9.9h.1v9.9h1.6v-12.2h-2.5c-1.3 3.1-2.5 6.1-3.8 9.2-1.3-3.1-2.6-6.2-3.9-9.2h-2.5v12.1h1.6c.1-3.2.1-6.5.1-9.8zm46.5 9.9V112h.1c1.4 3.3 2.7 6.6 4 9.9h1.1c1.4-3.3 2.7-6.6 4.1-9.9h.1v9.9h1.7v-12.2h-2.5c-1.3 3.1-2.5 6.1-3.8 9.2-1.3-3.1-2.6-6.2-3.9-9.2h-2.5v12.2c.5-.1 1-.1 1.6-.1zm-17.6-7.1l-.4-.4c-.8-.7-1.7-.9-2.8-.9-1.5.1-2.6.8-3.3 2.1-.5 1-.6 2-.4 3.1.4 1.8 1.6 2.9 3.3 3.1 1.7.1 3.4.1 5.2.1v-12.1h-1.6v5zm46.8 7.1v-4.2c0-.3 0-.5.1-.8.2-1.3 1.1-1.9 2.4-1.9.8.1 1.3.5 1.5 1.2.1.3.1.7.1 1v4.7h1.5c0-1.9.1-3.8 0-5.6-.1-1.9-1.5-2.7-2.8-2.7h-2.8v-3.8h-1.6v12.1h1.6zm-56.4-2.4c-.9 1.1-2 1.5-3.4 1-.9-.4-1.5-1-1.6-2.1h6.6c0-.6 0-1.1-.1-1.6-.2-1.1-.7-2.1-1.8-2.7-.7-.4-1.5-.5-2.3-.5-1.7 0-3.1 1-3.7 2.5-.3.7-.4 1.5-.3 2.3.1 1.4.8 2.5 2 3.2 1.1.6 2.3.7 3.6.4.9-.2 1.7-.7 2.2-1.5-.4-.4-.7-.7-1.2-1zm45-2.7c-.6 0-1.3 0-1.9.1-.6 0-1.3.1-1.9.4-.9.3-1.6.9-1.7 1.9-.2 1.1.2 2 1.3 2.5.5.2 1 .3 1.5.3h4.2v-5.6c0-1.2-.7-2.1-1.8-2.5-.9-.3-1.8-.3-2.7-.1-.8.2-1.5.5-2.1 1.1.3.3.7.6 1 .9.1-.1.2-.1.3-.2.7-.5 1.4-.7 2.2-.7 1.1 0 1.8.9 1.6 1.9zm-23.1 0c-.7 0-1.3 0-2 .1-.7 0-1.3.2-2 .4-1.2.5-1.7 1.2-1.6 2.5 0 .7.3 1.3.9 1.7.6.4 1.2.5 1.9.5h4.2v-5.6c0-1.2-.7-2.2-1.8-2.5-1.5-.5-3-.3-4.3.5-.2.1-.4.3-.6.4.3.4.7.7 1 1 .1-.1.2-.1.3-.2.7-.5 1.4-.8 2.3-.7 1.2-.1 1.9.8 1.7 1.9zm31.4 5v-1.4c-.4 0-.8.1-1.3.1s-.7-.2-.9-.7c-.1-.3-.1-.6-.1-.9v-4h2.2v-1.4h-2.2v-2.3h-1.6v2.3h-1.8v1.4h1.8v4.9c0 .8.2 1.5 1 1.8 1 .6 2 .6 2.9.2zm-38.5.1v-8.2h-1.6v8.2h1.6zm-1.6-11v1.6h1.5v-1.6h-1.5z" fill-rule="nonzero"/><path d="M717 94.9c-8.4 0-17.5.5-25.9.5-.2 0-.1.5-1.1.5V86h-15v.2c0 1 .7 2.1.7 3.2 0 1.2.7 1.6.7 3.6H664v9.3h-3V89h-17v.3c0 2.8.1 5.6.1 8.4 0 .1.1.2 0 .3 0 0 0-.1-.1-.1h-16.7c-.1 0-.4.2-.4.2v8.3h17.2c2.3 0 4.7.2 7.1.2.1 0 .3.2.4.2h65.6c.1 0-.2-.5-.2-.5V94.9s.2 0 0 0zm-25.3 29h-40.1c-.1 0-.2-.1-.3-.1-.8 0-1.7-.1-2.5-.1h-4.7v5.4h7.2c0 .1.1.3.1.4v5.4h.5c7.6 0 15.2.1 22.8.1.6 0 1.2.1 1.8.1 0 .1-.7.3-.7.5 0 2.5-.7 5.1-.7 7.6v.8h15v-11.2c1 0 1 .1 1.1.1 8.4 0 17.5.1 25.9.1.1 0 0 0 0 0v-9.2s.2.2.1.2c-8.6-.1-17.1-.1-25.5-.1zm-30.2-6.3c0 .9-.2 1.6-.8 2.2-.4.4-.9.6-1.5.7-.6 0-1.1 0-1.7-.3-.8-.5-1.2-1.2-1.3-2.1-.1-.6 0-1.2.3-1.7.4-.9 1.1-1.3 2.1-1.4 1-.1 1.9.2 2.5 1.1.3.4.4 1 .4 1.5zm-9.7-.6H647c0-1.4 1.6-2.9 3.5-2.1.8.3 1.3 1.1 1.3 2.1zm45.1.8c0 .6 0 1.2-.2 1.7-.3.7-.9 1.1-1.6 1.1-.4 0-.8 0-1.2-.1-.6-.1-.9-.5-.9-1.1 0-.5.2-.9.6-1.1.4-.2.9-.4 1.4-.4.6 0 1.2 0 1.9-.1zm-23 0c0 .7 0 1.2-.3 1.8-.3.7-.9 1-1.6 1.1-.4 0-.8 0-1.2-.1-.5-.1-.9-.4-1-1-.1-.5.1-1 .6-1.3.4-.3.9-.4 1.4-.4.7 0 1.4 0 2.1-.1zm-489.2-17.1l-9.3 4.2c.9 2 1.7 3.8 2.6 5.6 1.9-.8 3.7-1.6 5.7-2.5 1.1 4.6 2.2 9.1 3.3 13.7.8-.3 1.5-.5 2.2-.7 3-.9 6-1.3 9.1-.5 1.8.4 3.2 1.3 3.7 3.3.2 1.1 0 2.2-.6 3.1 1 2.8-.2 5.2-2.9 6.7-1.9 1.1-5.4 2-7.3 2v-2.3c2.7-.5 5.5-.8 7.5-2.9.3-.3.4-.8.6-1.1-1.8.6-3.6 1.3-5.5 1.6-1.7.3-3.4.2-5.1.1-1-.1-1.9-.7-2.2-1.8-.2-1.2.3-2.1 1.2-2.8 1.4-1 3-1.4 4.7-1.7 2-.3 3.9-.3 5.9.3-.3 1-1.7 1.9-3 1.9-1.7 0-3.4.2-5.1.8-.4.2-.9.4-1.4.7 1.3.4 2.3.3 3.4.2 1.9-.2 3.7-.7 5.3-1.7.6-.3 1.1-.8 1.5-1.3.8-1 .5-2-.6-2.5-1.3-.6-2.8-.7-4.2-.6-2.9.1-5.6 1-8.2 2.4-.2.1-.4.2-.7.3-1.1-4.7-2.2-9.3-3.4-14.1-1.7.9-3.4 1.7-5.1 2.6-1.4-3.1-2.9-6.3-4.3-9.5 4.2-2.7 8.7-4.7 13.5-6.1.5 1.6 1.4 2.9 2.9 3.6 1 .4 2 .6 3.1.3 2.4-.6 3.7-2.4 3.9-5.5 5.3-.4 10.6.1 15.8 1.5l-2.1 10.2c-2.1-.3-4.1-.5-6.3-.8-.2 4.3-.4 8.5-.6 12.7-.7-.5-1.4-1-2.2-1.6.2-4.4.4-8.9.6-13.5 2.3.2 4.5.3 6.7.5.4-1.9.8-3.9 1.2-5.9-3.7-.8-7.3-1.1-11-1.1-.9 3.1-2.7 5.1-5.9 5.7-2.9.5-5.4-.7-7.4-3.5zm148 12.5v-1.8h3.1v13.4c0 4-1.9 6.2-5.9 6.7-2.5.3-5 0-7.1-1.7l-.4-.4c.5-.7.9-1.5 1.5-2.3 1.6 1.6 3.4 2.1 5.5 1.8 2.1-.3 3.2-1.7 3.3-3.7v-1.6c-.2.1-.3.2-.3.3-3 3.4-9.2 2.3-10.3-3.1-.5-2.2-.4-4.3.6-6.3 1.8-3.7 6.6-4.6 9.6-1.7-.1 0 .1.1.4.4zm0 5.2v-2.2c0-.3-.1-.7-.3-.9-1.2-1.3-2.6-1.8-4.3-1.4-1.6.4-2.5 1.5-2.8 3.1-.1.6-.2 1.2-.1 1.9.1 1.6.7 3 2.3 3.7 1.6.7 3.1.4 4.4-.6.6-.4 1-1 .9-1.8-.2-.6-.1-1.2-.1-1.8zm-58.5 5.5v7.2h-3.1v-19.8h3.1c0 .5 0 1 .1 1.7.4-.4.7-.7 1.1-.9 3.2-2.4 7.8-1 9.2 2.9.9 2.4.9 4.8-.1 7.2-1.6 4.2-6.7 5.2-9.9 2.1 0-.1-.1-.1-.4-.4zm7.7-5.2c0-.5 0-.8-.1-1.1-.3-1.7-1-3-2.7-3.5-1.7-.6-3.2-.1-4.4 1.1-.3.3-.5.7-.5 1.1-.1 1.5 0 3.1 0 4.6 0 .3.1.7.4 1 1.1 1.2 2.6 1.7 4.2 1.4 1.6-.4 2.5-1.5 2.9-3.1.1-.6.2-1.1.2-1.5zM235 122c.5.7.9 1.3 1.4 2-.1.1-.2.2-.2.3-2.8 2.5-8 2.4-10.8-.1-2.6-2.3-3.1-6.9-1.1-10 2-3 5.9-4.1 9.1-2.6 2.6 1.2 3.7 3.5 4 6.3.1.5 0 1 0 1.7h-11c.2 1.6.9 2.7 2.2 3.3 2.2 1.2 4.3.5 6.4-.9zm-.8-4.7c0-2.1-1.7-3.7-3.9-3.7-2.1 0-3.9 1.6-4 3.7h7.9zm19.7 2.3h-11c.1 1.5.8 2.5 2 3.2 1.5.9 3.9 1.2 6.6-.9.5.6.9 1.3 1.5 2.1-.7.4-1.4.9-2.1 1.2-1.9.8-3.8 1-5.8.6-4.2-1-6.5-5.3-5.2-9.7 1.2-4 5.5-6.2 9.5-4.7 3 1.1 4.2 3.6 4.5 6.6.1.5 0 1 0 1.6zm-11-2.3h7.9c0-2-1.5-3.6-3.7-3.7-2.2-.2-3.9 1.3-4.2 3.7zm66-4.1c1.2-1.1 2.3-1.9 3.7-2.1.8-.1 1.7-.2 2.6-.1 2.1.3 3.4 1.8 3.4 4.1.1 3.4 0 6.8 0 10.2 0 .1 0 .1-.1.3h-3.1v-8.8c0-2.3-1.2-3.4-3.6-3-1.1.2-2 .7-2.6 1.5-.2.2-.3.6-.3.9v9.3h-3.1v-14.3h3.1v2zm-41.4-.1c-.4.7-.8 1.4-1.3 2.2-1.3-1.2-2.8-1.8-4.5-1.7-.6 0-1.3.3-1.9.7-.9.6-.7 1.6.2 2 .8.3 1.6.5 2.4.7 1.1.3 2.2.6 3.3 1 2.9 1.4 3 5.3.4 7-2.7 1.7-7.8 1.2-10.1-1-.1-.1-.1-.1-.2-.3.4-.7.9-1.4 1.2-2 1.4.6 2.6 1.2 3.9 1.6.7.2 1.6.1 2.4 0 1-.2 1.5-.8 1.5-1.6 0-.9-.7-1.3-1.4-1.5-1-.3-2.1-.5-3.2-.8l-1.8-.6c-3.1-1.3-2.8-5.1-.7-6.7 2.6-1.8 7.5-1.4 9.8 1zm-52.5 1h-2.3v-2.8h2.3v-3.9h3.2v3.8h2.9v2.8h-2.8c0 .3-.1.5-.1.7v7.1c.2 1.2.9 1.7 2.1 1.3.2-.1.4-.2.7-.3.2.8.5 1.5.7 2.3-1.4 1.1-3 1.1-4.6.7-1.4-.4-2-1.5-2.1-2.9-.1-2.5 0-5.1-.1-7.6.1-.3.1-.7.1-1.2zm73.3-2.7h3.1v2c1.4-1.4 2.8-2.3 4.6-2.4v3.1c-1.8-.2-3.4.4-4.6 1.9v9.7h-3.1v-14.3zm10.3 0h3.1v14.3h-3.1v-14.3zm3.5-3.8c0 1.1-.9 2-2 2-1 0-1.9-.9-1.9-1.9 0-1.1.9-2 2-2 1 0 1.9.9 1.9 1.9zm533.2-73.5l-7.4-12.9 5.8-10.3h-2.4l-4.6 8.2-4.6-8.2H818l6.3 11.1-6.7 12.1h2.3l5.6-10 5.7 10h4.1zm2.3-23.2h14.1v1.7h-10.6v8.6h10.6v1.5h-10.6v9.7h10.6v1.7h-14.1V10.9zm26.5 1.7h-5.4v21.5h-3.5V10.9h9.4c3.3 0 5.8 1.1 5.8 6 0 4.7-2.2 5.8-5.3 5.8l6.5 11.4h-4.1l-7.3-12.9h4.4c1.9 0 2.1-2.4 2.1-4.3s-.3-4.3-2.1-4.3h-.5zm47.4 21.5l-7.3-12.9 5.7-10.3h-2.4l-4.5 8.2-4.7-8.2h-4.1l6.4 11.1-6.8 12.1h2.4l5.6-10 5.7 10h4zM877 22.7c0-6.2.5-10.5 6.1-10.5s6.1 4.3 6.1 10.5-.5 10.1-6.1 10.1c-5.5 0-6.1-3.9-6.1-10.1 0-4.5 0 4.5 0 0zm16.1 0c0-8.8-1.6-12.1-10-12.1s-10 3.3-10 12.1 1.6 11.7 10 11.7 10-2.9 10-11.7zm21.5 11.6c-1.1 0-1.8-.8-1.8-1.9 0-1.1.9-1.9 1.8-1.9 1 0 1.8.7 1.8 1.9.1 1.2-.8 1.9-1.8 1.9zm0-3.4c-.8 0-1.4.6-1.4 1.5s.6 1.5 1.4 1.5c.8 0 1.4-.6 1.4-1.5.1-.9-.6-1.5-1.4-1.5zm-.4 2.6h-.3v-2.1h.8c.5 0 .8.2.8.6 0 .4-.2.5-.5.6l.6.9h-.4l-.5-.9h-.3v.9h-.2zm.4-1.2c.3 0 .5 0 .5-.3s-.2-.3-.5-.3h-.4v.6h.4zM465.7 15.4c-2.2-1.3-5.2-1.4-7.7-.7-.3-2.7-2.1-5-4.1-6.7l-.8-.7-.7.8c-1.4 1.6-1.8 4.3-1.6 6.4.1 1.5.6 3.1 1.5 4.3-.7.4-1.5.9-2.2 1.2-1.5.5-3 .9-4.6.9H441v-7h-6V.9h-7v6h-13v7h-8v7h-4.9l-.1.8c-.3 3.3.1 6.6 1.5 9.6l.6 1.2.1.1c4.1 6.9 11.2 9.8 19 9.8 15.1 0 27.5-6.7 33.2-21 3.8.2 7.7-.9 9.6-4.6l.5-.9-.8-.5zm-9.9 4.9c-5.5 14.6-17.9 21-32.5 21-6.9 0-12.4-2.4-15.9-6.3 1 .1 1.9.1 2.8.1.8 0 1.7 0 2.4-.1h.2s2.6.1 5.7-.7c.3-.1.4-.6.3-.8-.1-.3-.5-.5-.7-.4-1.8.6-3.1.9-7.1.9-1 0-3 0-4.7-.1-.4-.5-.6-1-1-1.5l-.5-.8c-1.5-2.9-2.1-6.7-1.7-9.7h42.3c3.5 0 6.9-1.4 8.5-2.8-2.9-2.3-2.6-8-.8-10.1 1.6 1.3 4.2 4 3.7 7.4 2-1 5.5-1.5 8.2 0-1.6 3.3-5.3 4.3-9.2 3.9z" fill-rule="nonzero"/><path d="M413.7 15.5h.5v4.8h-.5v-4.8zm-.9 0h.5v4.8h-.5v-4.8zm-.9 0h.5v4.8h-.5v-4.8zm-.8 0h.5v4.8h-.5v-4.8zm-.9 0h.5v4.8h-.5v-4.8zm-.8 0h.5v4.8h-.5v-4.8zm-.5-.5h5.7v5.7h-5.7V15zm11.4-6.1h.5v4.8h-.5V8.9zm-.9 0h.5v4.8h-.5V8.9zm-.9 0h.5v4.8h-.5V8.9zm-.8 0h.5v4.8h-.5V8.9zm-.9 0h.5v4.8h-.5V8.9zm-.8 0h.5v4.8h-.5V8.9zm-.5-.5h5.7v5.7h-5.7V8.4zm4.8 7.1h.5v4.8h-.5v-4.8zm-.9 0h.5v4.8h-.5v-4.8zm-.9 0h.5v4.8h-.5v-4.8zm-.8 0h.5v4.8h-.5v-4.8zm-.9 0h.5v4.8h-.5v-4.8zm-.8 0h.5v4.8h-.5v-4.8zm-.5-.5h5.7v5.7h-5.7V15zm11.4.5h.5v4.8h-.5v-4.8zm-.9 0h.5v4.8h-.5v-4.8zm-.9 0h.5v4.8h-.5v-4.8zm-.8 0h.5v4.8h-.5v-4.8zm-.9 0h.5v4.8h-.5v-4.8zm-.8 0h.5v4.8h-.5v-4.8zm-.5-.5h5.7v5.7h-5.7V15zm4.8-6.1h.5v4.8h-.5V8.9zm-.9 0h.5v4.8h-.5V8.9zm-.9 0h.5v4.8h-.5V8.9zm-.8 0h.5v4.8h-.5V8.9zm-.9 0h.5v4.8h-.5V8.9zm-.8 0h.5v4.8h-.5V8.9zm-.5-.5h5.7v5.7h-5.7V8.4zm11.4 7.1h.5v4.8h-.5v-4.8zm-.9 0h.5v4.8h-.5v-4.8zm-.9 0h.5v4.8h-.5v-4.8zm-.8 0h.5v4.8h-.5v-4.8zm-.9 0h.5v4.8h-.5v-4.8zm-.8 0h.5v4.8h-.5v-4.8zm-.5-.5h5.7v5.7h-5.7V15zm4.8-6.1h.5v4.8h-.5V8.9zm-.9 0h.5v4.8h-.5V8.9zm-.9 0h.5v4.8h-.5V8.9zm-.8 0h.5v4.8h-.5V8.9zm-.9 0h.5v4.8h-.5V8.9zm-.8 0h.5v4.8h-.5V8.9zm-.5-.5h5.7v5.7h-5.7V8.4zm4.8-6.1h.5V7h-.5V2.3zm-.9 0h.5V7h-.5V2.3zm-.9 0h.5V7h-.5V2.3zm-.8 0h.5V7h-.5V2.3zm-.9 0h.5V7h-.5V2.3zm-.8 0h.5V7h-.5V2.3zm-.5-.5h5.7v5.7h-5.7V1.8zm11.4 13.7h.5v4.8h-.5v-4.8zm-.9 0h.5v4.8h-.5v-4.8zm-.9 0h.5v4.8h-.5v-4.8zm-.8 0h.5v4.8h-.5v-4.8zm-.9 0h.5v4.8h-.5v-4.8zm-.8 0h.5v4.8h-.5v-4.8zm-.5-.5h5.7v5.7h-5.7V15zm-14 14.2c.2 0 .4 0 .6.1-.2.1-.4.4-.4.6 0 .4.3.7.7.7.3 0 .5-.1.6-.4.1.2.1.4.1.7 0 1-.8 1.8-1.8 1.8s-1.8-.8-1.8-1.8c.2-.9 1-1.7 2-1.7zm-28.4-2.5h73.5c-1.6-.4-5.1-1-4.5-3-2.9 3.4-9.9 2.4-11.7.7-2 2.9-13.4 1.8-14.2-.5-2.5 2.9-10.1 2.9-12.6 0-.8 2.2-12.3 3.3-14.2.5-1.8 1.7-8.8 2.7-11.7-.7.5 2.1-3 2.6-4.6 3zm150.6 3.1c2.3-1.9 4.5-3.9 6.8-5.8l2.4-2.1c-.6-.8-1.6-1.3-2.5-1.7-1.8-.7-3.5-.4-5.1.5-2.1 1.2-3 3.2-2.9 5.6 0 .9.3 1.9.8 2.7.1.3.3.5.5.8zm2.6 1.8c1.1.4 2.4.3 3.5.1.6-.2 2.1-.9 2.6-.8h.2c.3.2.7.4.8.7.4.8.2 1.6-.6 2l-.3.2c-2.9 1.7-6 1.4-8.8-.1-1.4-.7-2.4-1.8-3.2-3.2l-.2-.3c-1.9-3.2-1.6-6.6.5-9.6.7-1.1 1.7-1.9 2.8-2.5l.4-.2c2.7-1.6 5.6-1.5 8.4-.1 1.5.7 2.7 1.8 3.6 3.3l.2.3c.6 1.1-.2 2-1 2.6-.9.7-1.9 1.6-2.8 2.4-2.1 1.7-4.1 3.5-6.1 5.2zM567.7 17h.3c.9 0 1.5.6 1.5 1.5 0 1.3-1.2 1.6-2.2 1.6-1.4 0-2.7.8-3.6 1.8-1.2 1.2-1.7 2.6-1.7 4.3v7.4c0 .8-.5 1.5-1.4 1.5h-.2c-.9 0-1.4-.7-1.4-1.5v-7.8c0-3 1.5-5.4 3.9-7.1 1.4-1.2 3.1-1.7 4.8-1.7zm-37.9 5.2c1.2-1.2 2.4-2.4 3.6-3.5.3-.3 1.6-1.7 2.1-1.7h.6c.7.1 1.2.6 1.2 1.3v.3c0 .5-.6 1.1-.9 1.4-.7.7-1.4 1.5-2.2 2.2l-3.7 3.7c1.6 1.6 3.2 3.2 4.7 4.8l1.3 1.3c.2.2.4.4.5.6.1.2.2.4.2.7v.4c-.2.7-.6 1.3-1.4 1.3h-.2c-.5 0-1.1-.6-1.4-.9l-2.1-2.1-2.3-2.3v3.7c0 .8-.5 1.5-1.4 1.5h-.2c-.9 0-1.4-.7-1.4-1.5V12.8c0-.8.5-1.5 1.4-1.5h.2c.9 0 1.4.7 1.4 1.5v9.4zm-9.9-2c-.5-.2-1.3-.3-1.8-.3-2.5-.1-4.4 1.3-5.5 3.6-.4.8-.5 1.6-.5 2.4 0 2.6 1.4 4.4 3.7 5.5.8.4 1.9.5 2.9.5.8 0 2-.5 2.7-.8l.1-.1h.7c.7.1 1.2.6 1.2 1.3v.3c0 1.9-3.4 2.3-4.7 2.4-4.6.3-8-2.2-9.3-6.5-.2-.8-.3-1.5-.3-2.3v-.6c0-3.3 1.6-5.9 4.5-7.6 1.3-.8 2.8-1.2 4.3-1.2h.6c1.6 0 3.1.5 4.5 1.4l.2.2c.1.2.3.5.3.8v.3c0 .8-.6 1.2-1.3 1.3h-.3c-.5 0-1.6-.4-2-.6zM492.2 26c0 2.3 1.1 4 3.1 5.2.9.6 1.9.8 3 .8 2.3 0 4-1.2 5.2-3.1.6-.9.8-1.9.8-3 0-2.2-1-3.8-2.8-5-1-.7-2.1-1-3.2-1-2.5 0-4.4 1.3-5.5 3.6-.4.8-.6 1.6-.6 2.5zm5.7-9.1h.4c3.5 0 6.2 1.7 7.9 4.8.7 1.2 1 2.6 1 4v.6c0 3.3-1.6 5.9-4.5 7.6-1.3.8-2.8 1.2-4.3 1.2h-.6c-3.3 0-5.9-1.6-7.6-4.5-.8-1.3-1.2-2.8-1.2-4.3v-.6c0-3.3 1.6-5.9 4.5-7.6 1.4-.8 2.9-1.2 4.4-1.2zM472.3 26c0 2.4 1.2 4.2 3.2 5.3.8.5 1.8.7 2.7.7 2.3 0 4.1-1.1 5.3-3.1.6-.9.8-1.9.8-3 0-2.1-1-3.7-2.6-4.9-1-.7-2.1-1.1-3.4-1.1-2.5 0-4.4 1.3-5.5 3.6-.4.8-.5 1.6-.5 2.5zm12-6.8v-6.4c0-.8.5-1.5 1.4-1.5h.2c.9 0 1.4.7 1.4 1.5v13.5c0 3.3-1.6 5.9-4.5 7.6-1.3.8-2.8 1.2-4.3 1.2h-.5c-3.3 0-5.9-1.6-7.6-4.5-.8-1.3-1.2-2.8-1.2-4.3v-.6c0-3.3 1.6-5.9 4.5-7.6 1.3-.8 2.8-1.2 4.3-1.2h.6c2.2 0 4.1.9 5.7 2.3z" fill-rule="nonzero"/><g fill-rule="nonzero"><path d="M473.9 107c-.1 0-.2-.1-.3-.1.1 0 .2 0 .3.1z"/><path d="M473.5 106.9c-.3 1.8-1.1 3.5-2.2 4.7.1.3.1.7.1 1.1 0 2.2-1.1 4-2.5 5.6.4 0 .8.1 1.2.1 2 0 4-.6 5.7-2 2-1.5 3.1-3.7 3.5-5.9-1.3-1.7-3.3-3-5.4-3.5-.1-.1-.2-.1-.4-.1z"/></g><path d="M475.4 118.5c-1.5.8-3.1 1.2-4.6 1.2-1 0-2-.2-2.9-.5-1.6 1.4-3.2 2.4-4.1 2.8 1.2 1.9 3.2 3.4 5.6 4 .7.2 1.5.3 2.2.3 1.6 0 3.2-.4 4.6-1.2.2-.8.3-1.6.3-2.4 0-1.3-.3-2.8-1.1-4.2z"/><path d="M472.1 105.4c0-2.5-1-4.7-2.5-6.4h-.1c-2.2 0-4.1.8-5.9 2.4 1.7 1.8 2.3 4 2.3 6.3v.5c.4-.1.8-.1 1.1-.1h.1c1.4 0 2.9.7 3.7 2.1.8-1.5 1.3-3.1 1.3-4.8zm-16.6-6.2h-.3c-1.5 1.6-2.4 3.8-2.4 6.2v.1h.3c2.5 0 4.8 1 6.5 2.6 1.4.1 2.8.8 3.5 2.3.4-.8 1-1.3 1.6-1.6v-.3c0-2.5-1.1-5.1-3.1-6.9-1.8-1.7-4-2.4-6.1-2.4zm2.5 9c-1.4-.8-3-1.3-4.6-1.3-.5 0-1.1 0-1.6.1-2.4.4-4.5 1.8-5.8 3.6.4 2.2 1.5 4.3 3.4 5.8 1.4-1.9 3.3-3.1 5.3-3.4v-.3c0-2.5 1.6-4.1 3.3-4.5zm-8.1 10.3c-.7 1.4-1.1 2.9-1.1 4.3 0 .9.1 1.7.3 2.5 1.3.7 2.9 1.1 4.4 1.1.7 0 1.5-.1 2.2-.3-.2-.8-.3-1.7-.3-2.5 0-2 .6-3.9 1.7-5.4-1.1-1.2-2-2.5-2.3-4.1-2 .9-3.8 2.4-4.9 4.4zm7.8 8.6l-.1.1.1-.1zm5 4.8c2.1-.9 3.8-2.5 4.8-4.7-2.4-1-4.1-2.8-5-4.9-.8-.4-2.7-1.5-4.5-3.1-.7 1.3-1 2.8-1 4.2 0 1.3.2 2.5.8 3.7 1.1 2.2 2.9 3.9 4.9 4.8zm-4.9-4.8h-.1.1zm34.7-6.5l-8 9.5h7c.7 0 1.4.6 1.4 1.4 0 .7-.6 1.4-1.4 1.4h-10.1c-.7 0-1.4-.7-1.4-1.4 0-.3.1-.7.4-1l8-9.5h-7c-.7 0-1.4-.6-1.4-1.4 0-.7.6-1.4 1.4-1.4h10c1 0 1.6.7 1.6 1.5-.2.4-.3.7-.5.9zm16.1 5.9h-10.5c.2 2.3 2 4 4.4 4 1.7 0 3.2-.7 4.4-1.9.2-.2.5-.3.8-.3.4 0 .8.2 1.1.5.2.2.3.5.3.8 0 .4-.2.8-.5 1.1-1.4 1.5-3.8 2.5-6.2 2.5-4.3 0-7.8-3.5-7.8-7.8s3.4-7.8 7.7-7.8c4.3 0 7.5 3.3 7.5 7.7 0 .8-.6 1.2-1.2 1.2zm-6.3-6c-2.3 0-3.8 1.5-4.2 3.7h8.4c-.3-2.1-1.9-3.7-4.2-3.7zm40.9 12.7c-.9 0-1.7-.7-1.7-1.7v-.8c-.9 1.6-2.7 2.6-4.9 2.6-4.3 0-7.4-3.3-7.4-7.8 0-4.4 3-7.8 7.4-7.8 2.2 0 4 1.1 4.9 2.6v-8.8c0-.9.8-1.6 1.7-1.6.9 0 1.7.7 1.7 1.6v19.9c0 1-.7 1.8-1.7 1.8zm-6.1-12.5c-2.7 0-4.4 2.2-4.4 4.8 0 2.6 1.7 4.8 4.4 4.8s4.4-2.1 4.4-4.8c.1-2.7-1.7-4.8-4.4-4.8zm24.7 5.8h-10.5c.2 2.3 2 4 4.5 4 1.7 0 3.2-.7 4.4-1.9.2-.2.5-.3.8-.3.4 0 .8.2 1.1.5.2.2.3.5.3.8 0 .4-.2.8-.5 1.1-1.4 1.5-3.8 2.5-6.2 2.5-4.3 0-7.8-3.5-7.8-7.8s3.4-7.8 7.7-7.8c4.3 0 7.5 3.3 7.5 7.7-.1.8-.7 1.2-1.3 1.2zm-6.2-6c-2.3 0-3.8 1.5-4.2 3.7h8.4c-.4-2.1-2-3.7-4.2-3.7zm15.7 12.8c-1.7 0-3.8-.5-5.4-1.5-.5-.3-.8-.8-.8-1.3 0-.2.1-.3.1-.5.2-.5.6-.8 1.1-.8.2 0 .5.1.7.2 1.3.7 2.7 1.2 4.2 1.2 1.7 0 3.5-.5 3.5-1.8 0-1-.9-1.4-4.4-2.6-2.8-1-4.3-2.3-4.3-4.4 0-2.5 2.5-4.1 5.8-4.1 2.2 0 3.7.5 5.1 1.2.6.3.9.7.9 1.3 0 .2 0 .3-.1.5-.2.5-.7.9-1.3.9-.2 0-.3 0-.5-.1-1.2-.6-2.5-.9-3.9-.9-1.8 0-2.9.4-2.9 1.5s.9 1.3 3.4 2.1c3.1 1 5.3 2.1 5.3 4.6-.1 2.4-2.4 4.5-6.5 4.5zm21.6-.2c-.4 0-.9-.2-1.2-.5l-5.6-6.4-1.7 1.3v3.9c0 .9-.7 1.7-1.6 1.7-.9 0-1.6-.7-1.6-1.7v-19.9c0-.9.7-1.7 1.6-1.7.9 0 1.6.8 1.6 1.7v12.1l7.1-5.5c.3-.2.6-.3.9-.3.5 0 .9.2 1.2.6.2.3.4.6.4 1 0 .5-.2.9-.6 1.2l-4.8 3.8 5.4 6.2c.2.3.4.6.4 1 0 .9-.7 1.5-1.5 1.5zm-73.2-15.4c-3.9 0-7 3-7 7v7c0 .9.7 1.7 1.7 1.7.9 0 1.7-.7 1.7-1.7v-6.9c0-2.3 1.3-4.1 3.7-4.1 2.4 0 3.7 1.8 3.7 4.1v6.9c0 .9.8 1.7 1.7 1.7.9 0 1.7-.7 1.7-1.7v-7c-.2-4-3.4-7-7.2-7zm71.4-6.1c0-.9.7-1.6 1.6-1.6.9 0 1.6.7 1.6 1.6 0 .9-.7 1.6-1.6 1.6-.9 0-1.6-.7-1.6-1.6zm2.9 0c0-.7-.6-1.3-1.3-1.3-.7 0-1.3.6-1.3 1.3 0 .7.6 1.3 1.3 1.3.8 0 1.3-.5 1.3-1.3zm-1.9.7v-1.4c0-.1.1-.2.2-.2h.6c.4 0 .6.2.6.6 0 .2-.1.4-.3.5l.3.5v.1c0 .1-.1.2-.2.2s-.2-.1-.2-.1l-.3-.6h-.3v.5c0 .1-.1.2-.2.2-.1-.1-.2-.2-.2-.3zm1-1.1c0-.1-.1-.2-.3-.2h-.3v.3h.3c.2.1.3.1.3-.1z" fill-rule="nonzero"/><path d="M744.07 27.12h6.47v6.364h-6.47V27.12zm18.516-19.692h-6.173V1.81h6.173v5.62zm-6.173 2.776h6.173v23.28h-6.173v-23.28zm26.612 17.086c.954-1.267 1.43-3.068 1.43-5.403 0-2.335-.476-4.133-1.43-5.393-.954-1.26-2.32-1.89-4.1-1.89-1.78 0-3.15.63-4.112 1.89-.96 1.26-1.442 3.058-1.442 5.393s.482 4.136 1.443 5.403c.96 1.268 2.33 1.9 4.11 1.9 1.78 0 3.148-.632 4.102-1.9zm4.87 3.364c-1.966 2.428-4.95 3.642-8.95 3.642-4 0-6.983-1.214-8.948-3.642-1.965-2.427-2.948-5.35-2.948-8.767 0-3.36.982-6.272 2.947-8.735 1.965-2.464 4.947-3.695 8.948-3.695 4 0 6.984 1.23 8.95 3.695 1.964 2.463 2.947 5.375 2.947 8.735 0 3.417-.983 6.34-2.948 8.767z"/><g fill-rule="nonzero"><path d="M42.4 109H38c-.2 0-.4.2-.5.4l-.4 1.9-.4 1.9c0 .2.1.4.3.4h4.5c.2 0 .4-.2.5-.4l.4-1.9.4-1.9c-.1-.2-.2-.4-.4-.4zm-13.9 26.1h3.7-3.7zm94.8-22.6l.2.8c.1.2-.1.4-.3.4l.1-1.2zm-.2-.8l.2.8-.2-.8zm-63.4 4.5l-.9 3.1.9-3.1zm4.6 6.8h-1 1zm-.3 4.6h-5.8H64zm1.2-4.6h-1 1zm-.7 4.2l1-3.9-1 3.9zM86 109.4l-1.9 8.9 1.9-8.9zm-4.9 0l-1.4 6.6 1.4-6.6zm4.6-.4h-4c-.2 0-.4.2-.5.4l-1.4 6.6-1.4 6.6c0 .2-.3.4-.5.4H75c-2.8 0-2.5-2-1.9-4.6v-.1l.1-.3v-.1l.1-.7.1-.7c0-.2.1-.5.1-.8l.7-3.2.7-3.2c0-.2-.1-.4-.3-.4h-4.1c-.2 0-.4.2-.5.4l-.9 4.2-.9 4.2-.1.4c-1 4.7-.8 9.2 4.8 9.3h9c.2 0 .4-.2.5-.4l1.9-8.9 1.9-8.9c-.2 0-.3-.2-.5-.2zm16.1 14.1c.2 0 .4.2.3.4l-.4 1.9.1-2.3zm-.5 4.3l.4-1.9-.4 1.9zm-.5.4h-7.4 7.4zm-9.8-7.1c0-.2.2-.6.5-.6H91c-.3 2.3 0 .6 0 .6z"/><path d="M101.8 123.1c.2 0 .4.2.3.4l-.4 1.9-.1.3.2-2.6zm-7.2 4.7h-.2.2zm1 0h-1 1zm5.2 0h-5.2 5.2zm.5-.4l.3-1.6-.3 1.6zm-7 .4h-.2.2zm-.6 0h-.3.3zm.3 0h-.2.2zm-59.1-7.1l.6-2.8-.7 3.2-.7 3.2.6-2.8c0-.2.1-.6.2-.8zm6.5-5.5l-1.3 6 1.3-6zm-5.3 0l-.6 2.8.6-2.8z"/><path d="M41.1 114.8h-4.5c-.2 0-.4.2-.5.4l-.6 2.8-.6 2.8c0 .2-.1.6-.2.8l-.6 2.8-.6 2.8c0 .2-.1.6-.2.8 0 0-.8 2.5-2.2 2.5h-1.4c-.2 0-.4.2-.5.4l-.5 1.9-.5 1.9c-.1.2.1.4.3.4h3.7c3.5 0 5.4-1.9 6.5-7.5l1.4-6.4 1.3-6c.1-.3-.1-.4-.3-.4zm63.5 12.8c-.2 0-.4-.2-.3-.4l3.4-15.8-3.1 16.2zm4.7-.4l1.4-6.7-1.4 6.7z"/><path d="M104.3 127.4v-.6l1.6-7.5-1.7 7.9c0 .2.1.4.3.4h.4c-.1 0-.5-.1-.6-.2zm4.7.1c-.1 0-.4.1-.6.1h.4c.2 0 .4-.2.5-.4l.1-.4c-.1.2-.2.7-.4.7zm1-3.7l.6-3-.6 3zm-.6 3l.6-3-.6 3zm1.2-5.9c0-.2.1-.6.2-.8l.6-3-.7 3.4-.1.4zm-2.9-9.7c0 .2-.1.5-.1.7l-1.6 7.5 1.7-7.9v-.3z"/><path d="M123.4 113.3l-.2-.8-.2-.8-.1-.4c-.4-1.4-1.4-2.2-3.7-2.2h-10.7c-.2 0-.4.2-.5.4l-.2.8-.2.9-.1.3-1.7 7.9-1.6 7.5c0 .2-.1.5 0 .6 0 .1.5.2.7.2h3.4c.2 0 .5 0 .6-.1.1 0 .3-.5.3-.7l.6-3 .6-3 .1-.4.7-3.4.6-3c0-.2.3-.4.5-.4h10.6c.4 0 .6-.2.5-.4z"/><path d="M137.1 106.3h-4.2c-.2 0-.5.2-.6.3l-7.5 11c-.1.2-.3.2-.3-.1l-.6-2.4c0-.2-.3-.4-.5-.4h-4.8c-.2 0-.4.2-.3.4l2.2 7.6c.1.2.1.6 0 .8l-.9 3.7c-.1.2.1.4.3.4h4.8c.2 0 .5-.2.5-.4l.9-3.7c.1-.2.2-.5.3-.7l12.2-16.2c.1-.2.1-.3-.2-.3h-1.3zm-38.3 9.5c0 .2-.3.4-.5.4h-6.1c-.2 0-.3-.1-.3-.3v-.1c.6-1.6 1.8-2.6 4-2.6 2.5 0 3 1.2 2.9 2.6zm-1.8-7c-7.9 0-9.7 4.8-10.8 9.6-1 4.9-1 9.5 7.2 9.5h7.5c.2 0 .4-.2.5-.4l.3-1.6.1-.3.4-1.9c0-.2-.1-.4-.3-.4h-7.3c-2.9 0-3.8-.8-3.5-3h11.7c.2 0 .4-.1.4-.3v-.1c1.7-6.7 1.2-11.1-6.2-11.1zm-37.2 7l-.1.4-.9 3.1-.9 3.1c-.1.2-.3.4-.5.4h-4.7c-3.5 0-4.4-2.8-3.5-6.9.9-4.2 2.6-6.8 6-7 4.8-.3 5.8 3 4.6 6.9zm3.2 6.8s2.2-5.3 2.7-8.4c.7-4.1-1.4-10.1-9.4-10.1-7.9 0-11.4 5.7-12.7 11.9-1.3 6.3.4 11.8 8.3 11.7h12c.2 0 .5-.2.5-.4l1-3.9c.1-.2-.1-.4-.3-.4h-2s-.1-.2-.1-.4z"/><path d="M102.4 119c0 .1-.1.3-.3.3-.1 0-.3-.1-.3-.3 0-.1.1-.3.3-.3.2 0 .3.2.3.3zm-100-6.9c-2.2 3.2-1.9 7.3-.2 10.6 0 .1.1.2.1.2 0 .1.1.1.1.2v.1c0 .1.1.1.1.2.1.1.1.2.2.3 0 .1.1.1.1.2.1.1.1.2.2.3l.1.1c.1.1.2.3.3.4v.1c.1.1.2.2.2.3l.1.1c.1.1.1.2.2.3l.1.1c.1.1.2.2.3.4l.8.8c.1.1.2.2.4.3l.5.5c.1.1.2.1.3.2l.1.1c.1.1.2.1.3.2l.1.1c.1.1.2.1.3.2l.1.1c.1.1.3.2.5.3 0 0 .1 0 .1.1.1.1.2.1.3.2.1 0 .1.1.2.1s.2.1.2.1h.2c.1.1.3.1.4.2h.1c.1.1.3.1.5.2h.1c.1.1.3.1.4.2h.1c.2.1.3.1.5.2h.1c.2 0 .3.1.5.1 10.6 1.9 13.7-6.4 13.7-6.4-2.6 3.4-7.2 4.3-11.5 3.3-.2 0-.3-.1-.5-.1H13c-.2 0-.3-.1-.5-.2h-.1c-.1 0-.3-.1-.4-.2h-.1c-.1-.1-.3-.1-.4-.2h-.1c-.1-.1-.3-.1-.4-.2 0 0-.1 0-.1-.1-.1 0-.2-.1-.3-.1-.1 0-.1-.1-.2-.1-.1-.1-.2-.1-.3-.2 0 0-.1 0-.1-.1-.2-.1-.3-.2-.5-.3l-.1-.1c-.1-.1-.2-.1-.3-.2 0 0-.1 0-.1-.1-.1-.1-.2-.1-.3-.2l-.1-.1c-.1-.1-.2-.1-.3-.2l-.1-.1-.3-.3c-.1-.1-.2-.2-.4-.3l-.1-.1-.3-.3-.1-.1-.3-.3c-.1-.1-.2-.2-.3-.4l-.1-.1c-.1-.1-.2-.2-.2-.3L6 122c-.1-.1-.2-.2-.3-.4-2.4-3.3-3.3-7.8-1.4-11.6l-1.9 2.1z"/><path d="M9.2 109.4c-1.6 2.3-1.5 5.3-.3 7.8.2.4.4.8.7 1.2.2.3.5.7.8 1l.5.5c.1.1.2.2.4.3.1.1.3.2.4.4l.1.1c.1.1.3.2.4.3.1 0 .1.1.2.1 0 0 .1 0 .1.1.1.1.2.1.3.2.1.1.2.1.3.2 0 0 .1 0 .1.1.1 0 .1.1.2.1.1.1.3.1.4.2h.1c.1 0 .2.1.3.1 0 0 .1 0 .1.1.1 0 .2.1.3.1h.1c.2 0 .3.1.5.1 8.2 1.4 10.1-4.9 10.1-4.9-1.7 2.5-5 3.6-8.5 2.7-.2 0-.3-.1-.5-.1h-.1c-.1 0-.2-.1-.3-.1 0 0-.1 0-.1-.1-.1 0-.2-.1-.3-.1h-.1c-.1-.1-.3-.1-.4-.2-.1 0-.1-.1-.2-.1 0 0-.1 0-.1-.1-.1 0-.2-.1-.3-.2h-.1c-.1-.1-.2-.1-.3-.2 0 0-.1 0-.1-.1-.1 0-.1-.1-.2-.1-.2-.1-.3-.2-.4-.3l-.1-.1c-1.5-1.2-2.8-2.9-3.3-4.8-.6-2-.5-4.2.6-5.9"/><path d="M14.9 107.4c-.9 1.4-1 3.1-.4 4.6.7 1.6 2.1 2.9 3.7 3.5.1 0 .1 0 .2.1h.1c.1 0 .2.1.3.1 4.5.9 5.7-2.3 6.1-2.8-1.1 1.5-2.9 1.9-5.1 1.4-.2 0-.4-.1-.5-.2l-.6-.3c-.4-.2-.8-.4-1.1-.7-2-1.5-3.2-4.4-1.9-6.7"/></g><path d="M484.2 209.7c0-2 0-3.4-.1-4.8h3.2l.1 2.8h.1c.7-2.1 2.5-3.2 4.1-3.2.4 0 .6 0 .9.1v3.5c-.4-.1-.7-.1-1.1-.1-1.8 0-3 1.1-3.4 2.8-.1.3-.1.7-.1 1.1v7.7h-3.8l.1-9.9zm12.8 3.6c.1 2.7 2.2 3.9 4.6 3.9 1.7 0 3-.3 4.1-.7l.6 2.6c-1.3.5-3 .9-5.2.9-4.8 0-7.6-3-7.6-7.5 0-4.1 2.5-8 7.3-8s6.4 4 6.4 7.2c0 .7-.1 1.3-.1 1.6H497zm6.6-2.6c0-1.4-.6-3.6-3.1-3.6-2.3 0-3.3 2.1-3.4 3.6h6.5zm15.9 2.6c0 .4 0 .8-.1 1.1-.4 1.6-1.7 2.7-3.2 2.7-2.4 0-3.7-2-3.7-4.7s1.3-4.9 3.8-4.9c1.7 0 2.9 1.2 3.2 2.6.1.3.1.7.1 1l-.1 2.2zm3.7-14.1l-3.7-1.1v8.4h-.1c-.7-1.1-2.1-1.9-4.2-1.9-3.6 0-6.7 2.9-6.6 7.9 0 4.6 2.8 7.6 6.3 7.6 2.1 0 3.9-1 4.8-2.7h.1l.2 2.3h3.3c-.1-1-.1-2.6-.1-4.2v-16.3zm10 5.4c-1.1 0-2.1.3-3 .9-.9.5-1.6 1.3-2 2.1h-.1v-6.9l-1.5-.4v19.6h1.5v-9.1c0-.6 0-1 .2-1.5.6-1.8 2.4-3.4 4.5-3.4 3 0 4.1 2.4 4.1 5.1v8.8h1.5v-8.9c-.1-5.6-3.8-6.3-5.2-6.3zm18.3 11.6c0 1.2 0 2.4.2 3.5h-1.4l-.2-2.1h-.1c-.7 1.1-2.4 2.5-4.7 2.5-3 0-4.4-2.1-4.4-4.1 0-3.4 3-5.5 9.1-5.4v-.4c0-1.5-.3-4.4-3.8-4.4-1.3 0-2.7.3-3.7 1.1l-.5-1.1c1.4-.9 3-1.3 4.4-1.3 4.3 0 5.1 3.2 5.1 5.9v5.8zm-1.5-4.4c-3.2-.1-7.5.4-7.5 4 0 2.1 1.4 3.1 3 3.1 2.5 0 3.9-1.5 4.4-3 .1-.3.2-.6.2-.9v-3.2h-.1zm7.3-10.1v3.3h4.2v1.2h-4.2v9.6c0 1.9.6 3.1 2.2 3.1.8 0 1.3-.1 1.7-.2l.2 1.1c-.5.2-1.2.4-2 .4-1.1 0-2-.3-2.6-1-.7-.8-.9-2-.9-3.5v-9.4h-2.5v-1.2h2.5v-2.7l1.4-.7zm-108-6c-1.1 0-1.8.1-2.5.2-.7 0-1.2-.5-1.4-.8-.2-.2-.8-.5-1.2.3-.3.8.3 1.6.8 1.7 0 0 .9 1.6 1.5.9.5-.5.7-.8 3.2-.9 1.2-.1 1.3-.4 1.3-.7.1-.3-.6-.7-1.7-.7zm6-3.8c-.3 0-.6.2-.8.2-.8.1-1.5.4-2 .6v.1s0 .1.1.1h.4c1.3-.1 2.5.1 2.5.5 0 .3-.5.6-1.4.8l-.1.1s0 .1.1.1c.4.1.8.2 1.2.2 1.4 0 2.5-.7 2.5-1.3 0-.6-1.1-1.4-2.5-1.4z" fill-rule="nonzero"/><path d="M473.2 208.8c0-11.9-9.7-21.8-21.6-21.8-12 0-21.6 9.6-21.6 21.5 0 2.4.4 4.7 1.1 6.9h1.5c1.3 0 2.6-.3 3.6-.9.3-.1.6-.2.9-.2.7 0 1.2.3 1.6.9.3.5.5.8.8 1l.1.1c.1 0 .2.1.2.1.3.1.6.2 1.1.2.3 0 .7-.1.8-.4v-.2c0-.2-.2-.4-.5-.5-.6-.2-.7-.6-1.1-1.2-.1-.1-.1-.2-.2-.3-.3-.4-.8-.7-.9-1.6v-.2c0-.8.5-1.7 1.5-1.8.2 0 .5 0 .8.1.1 0 .3.1.4.2.9.5 1.5 1.6 1.8 2 .1.3.7.6 1.1.2.4-.4.8-.4 1.1.1.3.4 2.2 3 4.3 3.1 2.1.1 3.3-.5 4.2-.4.7 0 1 .4 1.3.4.7.1 1.1-.5 1.9-.5.6 0 1.2.4 1.9.4h-.1c.7-.1 1.7-.8 1.7-.5v.4h.5s-.5 1.4-.6 1.9c-.1.3 0 1-.2 1.6-.2.6-.8 1.4-.9 1.6-.5.8-.9 1-1.4 1.8-.5.9-1.3 1.8-1.5 2.1v.1c0 .2 1.6-.1 2.1-.7l.1-.1c.5-.5 1.5-2 2.9-2.3.8-.2 1.1-.5 1.1-.8v.3l-.1.4h.1v-1c0-.1 0-.3.2-.3 1-.4 2.4-.7 3.9-.7.9 0 1.8.5 2.6.7v.4c2.2-5 3.5-7.8 3.5-12.1zm-4.1-.8c-1 5.7-10.4 7.6-19.4 4.9-8.6-2.6-16.2-7.8-15.3-10.9.5-1.8 3.3-2.5 7.1-2.1-.6 1.2-.5 2.5 2 4 3 1.7 8.2 3.2 9.6 3.1.5-.1 1-.3.5-.6s-.9-.9-1.1-2c-.1-.6-.3-1.4-3.6-2.1-7-1.3-6.7-3.3-6.5-4.5 0 0 .6-2.8.9-3.8.3-1 .9-3.2 5.4-2.2 2.6.6 4-.1 4.7-.3 2-.5 4.1-.2 5.3 1.1 1.2 1.3 2.9 5.2 3.7 8.1.4 1.5.3 2.2.1 2.7-.1.3-.2.6-.8 1.4-.1.2 0 .3.2.2 1.4-.7 1.7-1.6 1.9-2.3 3.6.8 5.8 2.7 5.3 5.3z" fill-rule="nonzero"/><path d="M455.5 218.8c-.5.4-1 0-1.4-.3-.8-.5-1.4-.2-1.6.2-.2.4 0 .8.5.7.6-.1.6 0 1.1.3.8.5 1.4.2 1.7 0 .3-.2.4-.4.5-.6.3-.4.1-.8-.1-.9-.3.3-.5.5-.7.6zM202 188v36.8c0 2.3-1.8 4.1-4.1 4.1h-36.8c-2.3 0-4.1-1.8-4.1-4.1V188c0-2.3 1.8-4.1 4.1-4.1h36.8c2.3 0 4.1 1.8 4.1 4.1zm-30.4 3.6c-1.5 0-2.8 1.2-2.8 2.7 0 1.5 1.3 2.7 2.8 2.7 1.5 0 2.8-1.2 2.8-2.7 0-1.5-1.3-2.7-2.8-2.7zm18.5 26.3c2.4 0 4.2-1.9 5.4-5.6l-1.8-.7c-.9 2.5-1.7 2.9-2.3 2.9-.6 0-.9-.4-.9-1.2 0-.3.1-.7.2-1.2l1.3-4.6c.3-1.1.4-2 .4-2.9 0-3.5-2.2-5.3-4.7-5.3-2.4 0-4.8 2.2-6 4.5l.9-3.9h-6.9l-1 4h3.2l-2 7.6c-1.6 3.5-4.4 3.2-4.8 3.1-.6-.2-1-.3-1-1.1 0-.5.1-1 .3-1.8l3-11.9h-7.7l-1 4h3.3l-2.1 8.1c-.1.6-.2 1.1-.2 1.7 0 2.4 1.2 4.2 4 4.2 2.3 0 4.2-.9 5.5-3.1l-.8 3.1h4.5l2.6-10.2c.6-2.6 1.9-4.8 3.8-4.8 1.5 0 2.4 1 2.4 2.5 0 .5 0 1-.2 1.5l-1.3 4.8c-.2.7-.4 1.9-.4 2.5 0 2.2 1.5 3.8 4.3 3.8z"/><path d="M286 218.8c-.6 1.1-1.1 2.2-1.7 3.4h-5.7c3.5-6.8 6.9-13.5 10.4-20.2h8.2c.6 6.7 1.2 13.4 1.9 20.2h-5.5l-.3-3.3c-2.4-.1-4.8-.1-7.3-.1zm6.4-12.6h-.1c-1.4 2.8-2.8 5.6-4.2 8.6 1.8-.1 3.4.1 5-.1-.3-2.9-.5-5.7-.7-8.5zm46.4 16c.5-2.5 1.1-4.9 1.6-7.4.1-.6.3-1.3.4-1.9.1-.9-.3-1.3-1.2-1.4-1.7-.1-2.5.5-2.9 2.3-.6 2.6-1.1 5.1-1.7 7.7-.1.2-.1.5-.2.7h-4.6l3-14.1h4.5c-.1.6-.2 1.1-.3 1.7.2-.2.3-.2.4-.4.9-1.1 2.2-1.5 3.5-1.5h1.6c1.8.1 2.4.8 2.7 2.6.1-.1.1-.1.2-.1.9-1.7 2.4-2.4 4.2-2.4.8 0 1.7.1 2.4.3 1.3.3 1.9 1.3 2 2.6 0 1.4-.4 2.7-.7 4-.5 2.4-1 4.9-1.6 7.3h-4.7c.4-2.1.9-4.2 1.3-6.3.2-.9.4-1.9.6-2.8.2-1.1-.2-1.5-1.3-1.6-1.4 0-2.2.5-2.6 1.9-.4 1.5-.7 2.9-1 4.4-.3 1.4-.6 2.9-.9 4.4h-4.7zm-37.1-30.5c-.4-.3-.6-.4-.8-.6-2.6-2.1-5.7-3.2-9-3.6-2-.3-3.9-.4-5.9-.2-4 .4-7.6 1.8-10.7 4.4-4 3.3-6.4 7.6-7.1 12.7-.2 1.3-.1 2.7-.1 4v1.2c-.6.1-.7-.3-.8-.6-.3-.9-.7-1.9-.9-2.8-1.4-6.7.2-12.7 4.8-17.8 3.3-3.6 7.4-5.7 12.2-6.2 5.2-.6 10 .4 14.2 3.8 1.4 1.2 2.7 2.5 3.6 4.2.2.4.4.8.5 1.5zm12.8 30.5h-5.4c-.7-1.8-1.4-3.7-2.2-5.7h-.8l-1.2 5.7h-4.7c1.4-6.8 2.9-13.5 4.3-20.2h4.7c-.7 3.8-1.6 7.5-2.4 11.3.3 0 .5 0 .7.1 1.3-1.8 2.6-3.5 3.9-5.3h5.1c-1.8 2.3-3.6 4.5-5.4 6.8 1.2 2.4 2.3 4.8 3.4 7.3zm13.9 0h-4.6c.1-.4.1-.9.2-1.3-.2 0-.3 0-.3.1-1.4 1.5-3.2 1.4-5.1 1.4-.5 0-1-.1-1.5-.3-1.3-.4-1.9-1.1-1.9-2.4 0-1.5.3-2.9 1.2-4.2 1-1.4 2.4-1.8 4-2 .8-.1 1.6-.1 2.4 0 1 .1 1.9.3 2.3 1.4.3-1.2.8-2.4.6-3.7-1.4-1.1-3.2-.6-3.9 1h-4.5c.1-.3.1-.6.2-.9.6-1.9 1.8-3 3.7-3.3 2.1-.3 4.3-.3 6.4 0 2.6.3 3.2 1.7 2.9 4-.4 2.5-1 4.9-1.5 7.3-.2 1-.4 2-.6 2.9zm-3.6-4.9c-.2-.5-.5-.8-.9-.8-.6 0-1.2-.2-1.8-.1-1.6.1-2.2 1.2-1.8 2.5.2.1.4.4.6.4.9 0 1.9.1 2.8-.1.8-.3.9-1.2 1.1-1.9zm-.7 3.4s-.1-.1 0 0c-.1 0-.1 0 0 0-.1 0 0 0 0 0zm36.7-8.5h-4.6c.2-1.4.8-2.5 1.9-3.4.9-.7 2-.9 3-1 1.9 0 3.7.1 5.6.1.2 0 .5.1.7.2 1.3.4 2 1.2 2 2.5 0 .8 0 1.6-.2 2.4l-1.8 8.4c0 .2-.1.4-.2.6h-4.6c.1-.5.3-1 .4-1.5h-.2c-1 1.3-2.3 1.6-3.8 1.7-.9 0-1.9-.1-2.9-.3-1.4-.3-2.1-1.1-2.1-2.5s.3-2.8 1.1-4c1-1.5 2.4-2 4.1-2.1.7-.1 1.5 0 2.2 0 1.1 0 2 .3 2.5 1.5.3-1.2.8-2.4.6-3.7-.7-.6-1.4-.6-2.2-.5-.7.3-1.2.8-1.5 1.6zm-1.7 6.4c.3.5.7.7 1.2.7h1.1c1.6 0 2.1-.5 2.3-2.1-.1-.4-.5-.7-.9-.7-.5 0-1.1-.1-1.6-.1-1.5 0-2.1.7-2.1 2.2zm14.9 3.6h-4.7l3-14.1h4.7c-1 4.7-1.9 9.4-3 14.1zm-72.8-24c-7.9-5.1-16.3-6.8-25.4-3.3 0-.1-.1-.1-.1-.2.2-.2.3-.4.6-.6 2.3-1.8 5-3 7.8-3.4 3.7-.6 7.3-.2 10.7 1.4 2.4 1.1 4.3 2.7 5.9 4.8.3.4.5.8.7 1.2-.1.1-.1.1-.2.1zM282 178.5c.1.7-.3.7-.6.9-1.4.5-2.8 1-4 1.6-6.8 3.5-11.4 8.9-13.2 16.3-1.9 7.9-.3 15.2 4.8 21.5 3.1 3.9 7 6.5 11.7 8.1.5.2 1.1.2 1.3.9-.3.4-.7.4-1.1.4-2.8 0-5.5-.4-8.1-1.3-8.7-3.2-14.3-9.2-16.4-18.2-1.8-7.8 0-14.9 5.1-21.2 3.8-4.6 8.7-7.5 14.6-8.6 1.6-.3 3.3-.3 4.9-.4.3-.2.7-.1 1 0zm93.4 28.2c-1.4 0-2.6-1.2-2.6-2.6 0-1.4 1.2-2.6 2.6-2.6 1.4 0 2.6 1.3 2.6 2.6.1 1.5-1.1 2.7-2.6 2.6zM630 194.3c7.5 4.3 14.9 8.6 22.3 12.9v11.5c-3.7 2.1-7.4 4.2-11.1 6.4-3.7-2.1-7.3-4.2-11-6.4-3.7 2.1-7.4 4.2-11.2 6.4l-22.2-12.9v-11.5c3.7-2.1 7.4-4.2 11.1-6.4 3.7 2.1 7.3 4.2 11 6.4 3.6-2.1 7.3-4.2 11.1-6.4zm-22.2 12.8c2.9-1.7 5.7-3.3 8.6-5-2.9-1.7-5.7-3.3-8.6-4.9-2.8 1.6-5.7 3.2-8.6 4.9 3 1.7 5.8 3.3 8.6 5zm33.3 6.5c2.2-1.1 8.1-4.6 8.4-5l-8.4-4.8c-2.8 1.6-5.7 3.2-8.6 4.9 3 1.6 5.8 3.2 8.6 4.9zm-2.6-11.4c-2.9-1.7-5.8-3.3-8.6-4.9-2.9 1.6-5.7 3.2-8.6 4.9 2.9 1.7 5.7 3.3 8.6 5 2.9-1.7 5.7-3.3 8.6-5zM619 213.6c2.8-1.6 5.6-3.3 8.6-5-2.9-1.7-5.7-3.3-8.6-4.9-2.8 1.6-5.6 3.2-8.6 4.9 2.9 1.7 5.7 3.3 8.6 5zm97.4.5c.8.1 1.3.1 1.9.1v2.7h-7v-2.6c.6-.1 1.1-.1 1.6-.2 0-2.1.1-4.2 0-6.2 0-1-.9-1.5-2-1.4-1.1.1-2 .7-2.9 1.5v6.1c.5.1 1 .1 1.7.2v2.7h-6.8v-2.7c.6-.1 1.1-.1 1.7-.2 0-2 .1-4.1 0-6.1-.1-1.3-.9-1.7-2.2-1.5-.9.2-1.6.5-2.6 1.4v6.2c.6.1 1 .1 1.6.2v2.7h-6.9v-2.6c.5-.1 1.1-.1 1.8-.2v-7.5c-.6-.1-1.2-.1-1.8-.2v-2.7h5.1c0 .5.1 1.1.2 1.8 1.2-1.1 2.4-2 4-2.1 1.7-.1 3 .5 3.9 2 .3-.2.6-.4.9-.7 1.1-.8 2.2-1.4 3.6-1.4 2.7 0 4.2 1.5 4.3 4.2v5.2c-.1.4-.1.8-.1 1.3zm7.7 2v3.9c.7.1 1.4.1 2.1.2v2.6h-7.4v-2.6c.5-.1 1.1-.1 1.6-.2.3-.9.4-12.1.1-13.5-.5-.1-1.1-.1-1.7-.2v-2.7h5c0 .1.1.3.1.5s.1.4.1.7c.2-.2.4-.2.6-.4 2.4-2 6.8-1.3 8.4 2 1.4 2.8 1.3 5.6-.6 8.2-1.8 2.5-4.8 3.2-7.5 1.8-.1 0-.4-.1-.8-.3zm0-2.9c2.2 1.5 4.4 1.4 5.6-.2 1.3-1.7 1.1-4.6-.4-5.9-1.3-1.2-3.8-1-5.2.7v5.4zm-51.2-12.5c-2.6-1.7-6.6-1-8.6 1.5-2.3 2.8-2.1 7.5.5 10 2.8 2.7 6.9 2.4 10.6-.7.8.7 1.6 1.5 2.4 2.3-1.7 1.9-3.7 3-6 3.3-4.1.6-7.8-.1-10.5-3.5-2.6-3.3-2.9-7.1-1.4-10.9 1.5-3.7 4.5-5.7 8.5-6.1 1.9-.2 3.8 0 5.6.8 1.1.5 2.2 1.1 2.7 2.2.3.7.6 1.5.5 2.2-.1 1.5-1.1 2.2-2.6 2-1.3-.2-2.1-1.2-1.9-2.7.2-.1.2-.2.2-.4zm104.4 10.7h-9.5c.3 1.5 1.1 2.2 2.3 2.6 1.6.5 3.3.3 4.9-.2.6-.2 1.2-.5 1.9-.8-.1 1-.2 2-.3 2.9-2.7 1.8-7.3 1.8-9.9-.1-2.2-1.6-3.1-4.7-2.3-7.7.8-2.7 3.2-4.6 6-4.7 3.2-.1 5.6 1.3 6.5 3.9.6 1.3.7 2.6.4 4.1zM774 209c-.1-1.8-1.1-2.8-2.8-2.9-1.8-.1-3 1-3.4 2.9h6.2zm-24.4 1.3c0 4-3.1 6.9-7.2 6.9s-7-2.9-7.1-6.9c0-4 3-7 7.1-7 4.2.1 7.2 2.9 7.2 7zm-3.5 0c0-2.1-1.3-3.8-3.1-4-2-.3-3.7 1-4.1 3.1-.4 2.4.7 4.5 2.6 5h.2c2.6.3 4.4-1.5 4.4-4.1zm-60.2-6.9c4.1 0 7.2 2.9 7.2 6.9s-3.1 7-7.2 6.9c-4.1 0-7-2.9-7-6.9s2.9-6.9 7-6.9zm-3.6 7.1c.1.3.1.8.3 1.3.5 1.6 1.7 2.5 3.3 2.5 1.6 0 2.9-.9 3.5-2.5.4-1.1.4-2.2 0-3.3-.5-1.4-1.8-2.4-3.3-2.4-2.2.1-3.8 1.8-3.8 4.4zm76.5-4.3c-2.3-.7-3.5-.3-4 1.3.4.3.8.6 1.3.8.8.3 1.7.5 2.6.8.6.2 1.3.4 1.9.7 2.5 1.2 2.9 4.2.7 6-.6.5-1.3.9-2.1 1.1-2.2.6-4.4.3-6.5-.7-.7-.4-1.3-.9-1.5-1.7-.3-1.1.2-2.2 1.2-2.5 1.2-.3 2.1.4 2.3 1.6 0 .2 0 .4.1.6 2.2.9 4 .5 4.6-.9-.2-.8-.9-1-1.6-1.2l-3-.9c-.4-.1-.8-.3-1.3-.5-3-1.3-2.3-4.8-.5-6.2 2.1-1.6 6.1-1.5 8.2.2.6.5 1 1.1 1 1.9 0 1-.5 1.7-1.5 1.8-1.2.1-1.8-.4-2-1.5.1-.3.1-.5.1-.7zm138.8-95.3c-1.6.6-3.3-.2-3.9-1.8-.6-1.6.2-3.3 1.8-3.9l16.9-6.2c1.6-.6 3.3.2 3.9 1.8.6 1.6-.2 3.3-1.8 3.9l-16.9 6.2zm0 9.1c-1.6.6-3.3-.2-3.9-1.8-.6-1.6.2-3.3 1.8-3.9l16.9-6.2c1.6-.6 3.3.2 3.9 1.8.6 1.6-.2 3.3-1.8 3.9l-16.9 6.2zm0 9.1c-1.6.6-3.3-.2-3.9-1.8-.6-1.6.2-3.3 1.8-3.9l16.9-6.2c1.6-.6 3.3.2 3.9 1.8.6 1.6-.2 3.3-1.8 3.9l-16.9 6.2zm-139.3-21.6h13.4v3.6h-8.6v3.2h8.2v3.7h-8.2v3.3h8.7v3.6h-13.5v-17.4zm34.1 0h4.7v17.4h-4.7v-17.4zm22 .5l-.3 3.7c-3.8-2.2-9.7-1.5-9.8 4.3-.1 5.8 6 6.7 9.9 4.7l.2 3.8c-6.9 2.1-15.1 0-15.1-8.5.1-8.2 8.4-10.5 15.1-8zm14-.2l-.3 3.6c-2.4-1.3-6.9-1.4-6.9.7 0 3.1 8.1.9 8.1 7.4 0 6.4-7.7 6.5-12.7 5l.4-3.8c3.1 1.5 7.6 1.8 7.6-.8 0-2.8-8.1-1.2-8.1-7.4-.2-5.1 6.1-6.5 11.9-4.7zm14.3 0l-.3 3.6c-2.4-1.3-6.9-1.4-6.9.7 0 3.1 8.1.9 8.1 7.4 0 6.4-7.7 6.5-12.7 5l.4-3.8c3.1 1.5 7.6 1.8 7.6-.8 0-2.8-8.1-1.2-8.1-7.4-.2-5.1 6.1-6.5 11.9-4.7zm21.8-.3h6l5.7 11.2v-11.2h4.4v17.4h-5.7l-6-11.4v11.4h-4.4v-17.4zm-10.9-.4c4.9 0 8.7 2.9 8.7 9.2 0 6-3.8 9.1-8.7 9.1-4.9 0-8.7-3-8.7-9.1 0-6.4 3.8-9.2 8.7-9.2zm-3.8 9.1c0 2.7 1.1 5.7 3.8 5.7 2.7 0 3.8-3 3.8-5.7 0-2.4-1.1-5.7-3.8-5.7-2.7.1-3.8 3.1-3.8 5.7zm-70.2-1.4h2.6c1.2 0 2.2-.7 2.2-2 0-1.1-.9-1.9-2.1-1.9h-2.7v3.9zm-4.5-7.3h8.5c2.3 0 5.6 1 5.6 4.6 0 2.3-1.1 3.6-3 4.2.1 0 1.1.4 1.6 1.8 0 0 2.4 6.8 2.5 6.8h-5l-1.8-5.2c-.3-.8-.9-1.3-1.7-1.3h-1.9v6.6h-4.6v-17.5h-.2z" fill-rule="nonzero"/></g></svg>