<svg xmlns="http://www.w3.org/2000/svg" viewBox="0 0 140 140"><style>.st0{fill:url(#SVGID_1_)}.st1{fill:none;stroke:#0069ff;stroke-width:2.5;stroke-miterlimit:10}.st2{fill:#0069ff}.st3{fill:#fff}.st4{fill:none;stroke-miterlimit:10}.st4,.st5,.st6{stroke:#0069ff;stroke-width:2;stroke-linecap:round}.st5{fill:none;stroke-miterlimit:10;stroke-dasharray:0,4.625}.st6{stroke-dasharray:0,4.9364}.st6,.st7,.st8{fill:none;stroke-miterlimit:10}.st7{stroke-width:2;stroke-linecap:round;stroke:url(#SVGID_2_)}.st8{stroke:url(#SVGID_3_);stroke-dasharray:0,4.9644}.st10,.st8,.st9{stroke-width:2;stroke-linecap:round}.st9{fill:none;stroke-miterlimit:10;stroke:url(#SVGID_4_)}.st10{stroke:#00d688}.st10,.st11,.st12{fill:none;stroke-miterlimit:10}.st11{stroke-width:2;stroke-linecap:round;stroke:#00d688;stroke-dasharray:0,4.5051}.st12{stroke:#0069ff;stroke-dasharray:0,4.9171}.st12,.st13,.st14{stroke-width:2;stroke-linecap:round}.st13{fill:none;stroke-miterlimit:10;stroke-dasharray:0,4.9421;stroke:url(#SVGID_5_)}.st14{stroke:url(#SVGID_6_)}.st14,.st15,.st16{fill:none;stroke-miterlimit:10}.st15{stroke-width:2;stroke-linecap:round;stroke-dasharray:0,5.2887;stroke:url(#SVGID_7_)}.st16{stroke:url(#SVGID_8_)}.st16,.st17,.st18{stroke-width:2;stroke-linecap:round}.st17{fill:none;stroke-miterlimit:10;stroke:#00d688;stroke-dasharray:0,5.3332}.st18{stroke:#0069ff;stroke-dasharray:0,5.0659}.st18,.st19,.st20{fill:none;stroke-miterlimit:10}.st19{stroke-linecap:round;stroke:#fff;stroke-width:3}.st20{stroke:#0069ff;stroke-width:1.5}.st21{opacity:.47}.st22{fill:url(#SVGID_9_)}.st23{fill:url(#SVGID_10_)}.st24{fill:url(#SVGID_11_)}.st25{fill:none;stroke:#0069ff;stroke-width:2;stroke-linecap:round;stroke-miterlimit:10;stroke-dasharray:0,5.0779}</style><radialGradient id="SVGID_1_" cx="-78.161" cy="810.595" r="86.849" gradientTransform="matrix(.806 0 0 .806 132.998 -583.336)" gradientUnits="userSpaceOnUse"><stop offset="0" stop-color="#005FFF" stop-opacity=".15"/><stop offset="1" stop-color="#005FFF" stop-opacity="0"/></radialGradient><circle class="st0" cx="70" cy="70" r="70"/><path class="st1" d="M121.8 43.7c4.2 7.6 6.4 17.5 6.4 26 0 32-25.9 58-58 58s-58-25.9-58-58c0-29 21.4-53.1 49.3-57.3m31.1 3.9c7.9 2.9 16.9 9.7 23.2 17.1"/><circle class="st2" cx="63.4" cy="87.7" r="1.6"/><path class="st3" d="M63.4 86.7c.5 0 .9.4.9.9s-.4.9-.9.9-.9-.4-.9-.9c-.1-.5.3-.9.9-.9m0-1.3c-1.2 0-2.2 1-2.2 2.2 0 1.2 1 2.2 2.2 2.2s2.2-1 2.2-2.2c0-1.2-1.1-2.2-2.2-2.2z"/><path class="st5" d="M62.9 74.7c-.9-1.2-1.5-2.6-1.5-4.6 0-2.6.9-4.6 2.3-6.1"/><path class="st6" d="M86 80.4c-3.1 4.3-6.9 7.4-14.6 7.9"/><linearGradient id="SVGID_2_" gradientUnits="userSpaceOnUse" x1="50.012" y1="85.266" x2="90.307" y2="85.266"><stop offset="0" stop-color="#00D688"/><stop offset="1" stop-color="#0069FF"/></linearGradient><linearGradient id="SVGID_3_" gradientUnits="userSpaceOnUse" x1="50.012" y1="66.171" x2="90.307" y2="66.171"><stop offset="0" stop-color="#00D688"/><stop offset="1" stop-color="#0069FF"/></linearGradient><path class="st8" d="M54.9 81.7c-2.7-3.6-3.9-7.7-3.9-12 0-10.6 8.6-19.1 19.1-19.1s19.1 8.6 19.1 19.1c0 1.4-.1 2.7-.4 3.9"/><linearGradient id="SVGID_4_" gradientUnits="userSpaceOnUse" x1="50.012" y1="76.09" x2="90.307" y2="76.09"><stop offset="0" stop-color="#00D688"/><stop offset="1" stop-color="#0069FF"/></linearGradient><path class="st11" d="M60.9 97.8c-6.5-2.2-12.1-6.6-15.8-12.2"/><path class="st12" d="M72.1 40.1c14 .8 25.4 11.4 27.5 25"/><linearGradient id="SVGID_5_" gradientUnits="userSpaceOnUse" x1="50.849" y1="578.971" x2="50.849" y2="541.999" gradientTransform="translate(0 -502)"><stop offset="0" stop-color="#00D688"/><stop offset="1" stop-color="#0069FF"/></linearGradient><path class="st13" d="M40.7 72.7c-.1-1-.1-2-.1-2.9 0-13.2 8.6-24.4 20.6-28.3"/><linearGradient id="SVGID_6_" gradientUnits="userSpaceOnUse" x1="111.48" y1="61.849" x2="95.791" y2="61.849"><stop offset="0" stop-color="#00D688"/><stop offset="1" stop-color="#0069FF"/></linearGradient><linearGradient id="SVGID_7_" gradientUnits="userSpaceOnUse" x1="111.48" y1="82.72" x2="95.791" y2="82.72"><stop offset="0" stop-color="#00D688"/><stop offset="1" stop-color="#0069FF"/></linearGradient><path class="st15" d="M110.4 67.1c0 1 .1 1.9.1 2.6 0 11.4-4.2 21.3-11.7 28.6"/><linearGradient id="SVGID_8_" gradientUnits="userSpaceOnUse" x1="111.48" y1="100.099" x2="95.791" y2="100.099"><stop offset="0" stop-color="#00D688"/><stop offset="1" stop-color="#0069FF"/></linearGradient><path class="st17" d="M91.4 35.8c5.1 3.4 10 8 13.1 13.1"/><path class="st18" d="M83 108.2c-4.1 1.2-8.7 1.8-12.8 1.8C48 110 30 92 30 69.7c0-2.8.3-5.6.8-8.2 1.5-6.1 3.6-10.1 5.6-13.2"/><circle class="st2" cx="108.7" cy="56.6" r="1.6"/><path class="st3" d="M108.7 55.7c.5 0 .9.4.9.9s-.4.9-.9.9-.9-.4-.9-.9c-.1-.5.4-.9.9-.9m0-1.3c-1.2 0-2.2 1-2.2 2.2s1 2.2 2.2 2.2c1.2 0 2.2-1 2.2-2.2s-.9-2.2-2.2-2.2z"/><circle class="st2" cx="70.2" cy="61.1" r="1.6"/><path class="st3" d="M70.2 60.1c.5 0 .9.4.9.9s-.4 1-.9 1-.9-.4-.9-.9.4-1 .9-1m0-1.3c-1.2 0-2.2 1-2.2 2.2s1 2.2 2.2 2.2c1.2 0 2.2-1 2.2-2.2 0-1.1-.9-2.2-2.2-2.2z"/><path class="st19" d="M100 69.6c0 16.4-13.3 29.8-29.7 29.8M40.6 42.6c7.4-8 18-13.1 29.7-13.1 4.3 0 8.4.7 12.3 1.9m-3.7 38.4c0 4.8-3.9 8.6-8.6 8.6"/><path class="st20" d="M65.7 36.1V16.4"/><path class="st2" d="M108.3 36h16.4v4.9h-16.4zm-43-26.6h19.1v4.9H65.3zm11 73.7h16.4V88H76.3z"/><path class="st20" d="M108.7 52.6V43M92.2 99.2v-9.6"/><circle class="st2" cx="42" cy="79" r="1.6"/><path class="st3" d="M42 78.1c.5 0 .9.4.9.9s-.4.9-.9.9-.9-.4-.9-.9.4-.9.9-.9m0-1.3c-1.2 0-2.2 1-2.2 2.2 0 1.2 1 2.2 2.2 2.2s2.2-1 2.2-2.2c0-1.2-1-2.2-2.2-2.2z"/><g class="st21"><linearGradient id="SVGID_9_" gradientUnits="userSpaceOnUse" x1="108.324" y1="540.415" x2="138.545" y2="540.415" gradientTransform="translate(0 -502)"><stop offset="0" stop-color="#0069FF"/><stop offset="1" stop-color="#0069FF" stop-opacity="0"/></linearGradient><path class="st22" d="M108.3 36h30.2v4.9h-30.2z"/></g><g class="st21"><linearGradient id="SVGID_10_" gradientUnits="userSpaceOnUse" x1="65.324" y1="513.818" x2="112.767" y2="513.818" gradientTransform="translate(0 -502)"><stop offset="0" stop-color="#0069FF"/><stop offset="1" stop-color="#0069FF" stop-opacity="0"/></linearGradient><path class="st23" d="M65.3 9.4h47.4v4.9H65.3z"/></g><g class="st21"><linearGradient id="SVGID_11_" gradientUnits="userSpaceOnUse" x1="50.163" y1="587.592" x2="92.64" y2="587.592" gradientTransform="translate(0 -502)"><stop offset="0" stop-color="#0069FF" stop-opacity="0"/><stop offset="1" stop-color="#0069FF"/></linearGradient><path class="st24" d="M50.2 83.1h42.5V88H50.2z"/></g><circle class="st2" cx="92.4" cy="103.5" r="1.6"/><path class="st3" d="M92.4 102.6c.5 0 .9.4.9.9s-.4.9-.9.9-.9-.4-.9-.9.4-.9.9-.9m0-1.3c-1.2 0-2.2 1-2.2 2.2 0 1.2 1 2.2 2.2 2.2s2.2-1 2.2-2.2c0-1.2-.9-2.2-2.2-2.2z"/><circle class="st2" cx="65.7" cy="40.2" r="1.6"/><path class="st3" d="M65.7 39.3c.5 0 .9.4.9.9s-.4.9-.9.9-.9-.4-.9-.9.4-.9.9-.9m0-1.3c-1.2 0-2.2 1-2.2 2.2s1 2.2 2.2 2.2 2.2-1 2.2-2.2S67 38 65.7 38z"/><path class="st25" d="M75.3 62.1c1.7.9 3.4 3.2 3.4 4.8"/></svg>