<svg xmlns="http://www.w3.org/2000/svg" xmlns:xlink="http://www.w3.org/1999/xlink" x="0px" y="0px"
	 viewBox="0 0 1398.3 264" style="enable-background:new 0 0 1398.3 264;" xml:space="preserve">
<style type="text/css">
	.st0{opacity:0.3;clip-path:url(#SVGID_2_);fill:none;stroke:#FFFFFF;stroke-miterlimit:10;}
	.st1{clip-path:url(#SVGID_2_);}
	.st2{fill:url(#SVGID_3_);}
	.st3{fill:url(#SVGID_4_);}
	.st4{opacity:0.5;fill:#FFFFFF;}
	.st5{fill:url(#SVGID_5_);}
	.st6{fill:url(#SVGID_6_);}
	.st7{fill:url(#SVGID_7_);}
	.st8{fill:url(#SVGID_8_);}
	.st9{fill:url(#SVGID_9_);}
	.st10{fill:url(#SVGID_10_);}
	.st11{fill:url(#SVGID_11_);}
	.st12{opacity:0.3;clip-path:url(#SVGID_2_);}
	.st13{fill:none;stroke:#FFFFFF;stroke-linecap:round;stroke-miterlimit:10;}
	.st14{fill:none;stroke:#FFFFFF;stroke-linecap:round;stroke-miterlimit:10;stroke-dasharray:0,4.0075;}
	.st15{fill:none;stroke:#FFFFFF;stroke-linecap:round;stroke-miterlimit:10;stroke-dasharray:0,3.9683;}
	.st16{fill:none;stroke:#FFFFFF;stroke-linecap:round;stroke-miterlimit:10;stroke-dasharray:0,4.0252;}
	.st17{fill:none;stroke:#FFFFFF;stroke-linecap:round;stroke-miterlimit:10;stroke-dasharray:0,3.9932;}
	.st18{fill:none;stroke:#FFFFFF;stroke-linecap:round;stroke-miterlimit:10;stroke-dasharray:0,3.9911;}

		.st19{opacity:0.3;clip-path:url(#SVGID_2_);fill:none;stroke:#FFFFFF;stroke-linecap:round;stroke-miterlimit:10;stroke-dasharray:0,4;}
	.st20{opacity:0.5;clip-path:url(#SVGID_2_);fill:#FFFFFF;}
</style>
<g>
	<defs>
		<rect id="SVGID_1_" width="1398.3" height="264"/>
	</defs>
	<clipPath id="SVGID_2_">
		<use xlink:href="#SVGID_1_"  style="overflow:visible;"/>
	</clipPath>
	<polygon class="st0" points="849.9,46.6 543,46.6 266.6,179.7 75.3,419.6 7,718.7 75.3,1017.9 266.6,1257.8 543,1390.9
		849.9,1390.9 1126.3,1257.8 1317.6,1017.9 1385.9,718.7 1317.6,419.6 1126.3,179.7 	"/>
	<polyline class="st0" points="849.9,46.6 696.4,164.6 543,46.6 	"/>
	<polyline class="st0" points="266.6,179.7 480,224.6 543,46.6 	"/>
	<polyline class="st0" points="266.6,179.7 294.4,388.5 75.3,419.6 	"/>
	<polyline class="st0" points="1126.6,179.7 1098.7,388.5 1317.9,419.6 	"/>
	<polyline class="st0" points="1126.3,179.7 912.8,224.6 849.9,46.6 	"/>
	<polyline class="st0" points="294.4,388.5 480,224.6 696.4,164.6 912.8,224.6 1098.7,388.5 	"/>
	<line class="st0" x1="805.1" y1="322.4" x2="913.3" y2="224.6"/>
	<line class="st0" x1="587.9" y1="322.4" x2="479.7" y2="224.6"/>
	<line class="st0" x1="696.4" y1="164.6" x2="696.4" y2="321.1"/>
	<g class="st1">
		<radialGradient id="SVGID_3_" cx="543.3846" cy="47.2029" r="13.3971" gradientUnits="userSpaceOnUse">
			<stop  offset="0" style="stop-color:#FFFFFF;stop-opacity:0"/>
			<stop  offset="1" style="stop-color:#FFFFFF;stop-opacity:0.1"/>
		</radialGradient>
		<circle class="st2" cx="543.4" cy="47.2" r="13.4"/>
		<radialGradient id="SVGID_4_" cx="543.3846" cy="47.2029" r="19.9082" gradientUnits="userSpaceOnUse">
			<stop  offset="0" style="stop-color:#FFFFFF;stop-opacity:0"/>
			<stop  offset="1" style="stop-color:#FFFFFF;stop-opacity:0.1"/>
		</radialGradient>
		<circle class="st3" cx="543.4" cy="47.2" r="19.9"/>
		<circle class="st4" cx="543.4" cy="47.2" r="2.7"/>
	</g>
	<g class="st1">
		<radialGradient id="SVGID_5_" cx="849.9274" cy="46.9501" r="9.2495" gradientUnits="userSpaceOnUse">
			<stop  offset="0" style="stop-color:#FFFFFF;stop-opacity:0"/>
			<stop  offset="1" style="stop-color:#FFFFFF;stop-opacity:0.1"/>
		</radialGradient>
		<circle class="st5" cx="849.9" cy="47" r="9.2"/>
		<circle class="st4" cx="849.9" cy="47" r="2.2"/>
	</g>
	<g class="st1">
		<radialGradient id="SVGID_6_" cx="913.3986" cy="224.8695" r="13.3971" gradientUnits="userSpaceOnUse">
			<stop  offset="0" style="stop-color:#FFFFFF;stop-opacity:0"/>
			<stop  offset="1" style="stop-color:#FFFFFF;stop-opacity:0.1"/>
		</radialGradient>
		<circle class="st6" cx="913.4" cy="224.9" r="13.4"/>
		<radialGradient id="SVGID_7_" cx="913.3986" cy="224.8695" r="28.9504" gradientUnits="userSpaceOnUse">
			<stop  offset="0" style="stop-color:#FFFFFF;stop-opacity:0"/>
			<stop  offset="1" style="stop-color:#FFFFFF;stop-opacity:0.1"/>
		</radialGradient>
		<circle class="st7" cx="913.4" cy="224.9" r="29"/>
		<circle class="st4" cx="913.4" cy="224.9" r="2.7"/>
	</g>
	<g class="st1">
		<radialGradient id="SVGID_8_" cx="266.7607" cy="180.1168" r="9.2495" gradientUnits="userSpaceOnUse">
			<stop  offset="0" style="stop-color:#FFFFFF;stop-opacity:0"/>
			<stop  offset="1" style="stop-color:#FFFFFF;stop-opacity:0.1"/>
		</radialGradient>
		<circle class="st8" cx="266.8" cy="180.1" r="9.2"/>
		<circle class="st4" cx="266.8" cy="180.1" r="2.2"/>
	</g>
	<g class="st1">
		<radialGradient id="SVGID_9_" cx="479.8573" cy="224.5751" r="13.8593" gradientUnits="userSpaceOnUse">
			<stop  offset="0" style="stop-color:#FFFFFF;stop-opacity:0"/>
			<stop  offset="1" style="stop-color:#FFFFFF;stop-opacity:0.1"/>
		</radialGradient>
		<circle class="st9" cx="479.9" cy="224.6" r="13.9"/>
		<circle class="st4" cx="479.9" cy="224.6" r="2.2"/>
	</g>
	<g class="st1">
		<radialGradient id="SVGID_10_" cx="1126.8573" cy="180.5751" r="13.8593" gradientUnits="userSpaceOnUse">
			<stop  offset="0" style="stop-color:#FFFFFF;stop-opacity:0"/>
			<stop  offset="1" style="stop-color:#FFFFFF;stop-opacity:0.1"/>
		</radialGradient>
		<circle class="st10" cx="1126.9" cy="180.6" r="13.9"/>
		<circle class="st4" cx="1126.9" cy="180.6" r="2.2"/>
	</g>
	<g class="st1">
		<radialGradient id="SVGID_11_" cx="696.1106" cy="165.1168" r="9.2495" gradientUnits="userSpaceOnUse">
			<stop  offset="0" style="stop-color:#FFFFFF;stop-opacity:0"/>
			<stop  offset="1" style="stop-color:#FFFFFF;stop-opacity:0.1"/>
		</radialGradient>
		<circle class="st11" cx="696.1" cy="165.1" r="9.2"/>
		<circle class="st4" cx="696.1" cy="165.1" r="2.2"/>
	</g>
	<g class="st12">
		<g>
			<line class="st13" x1="696.4" y1="159.6" x2="696.4" y2="159.6"/>
			<path class="st14" d="M692.9,157.7c-120.4-63.1-296.2-73.1-424.5,21.2"/>
			<line class="st13" x1="266.8" y1="180.1" x2="266.8" y2="180.1"/>
		</g>
	</g>
	<g class="st12">
		<g>
			<line class="st13" x1="1127.1" y1="179.3" x2="1127.1" y2="179.3"/>
			<path class="st15" d="M1125,182.7c-39.6,62.8-133.2,73.3-202.8,45.7"/>
			<line class="st13" x1="920.4" y1="227.6" x2="920.4" y2="227.6"/>
		</g>
	</g>
	<g class="st12">
		<g>
			<line class="st13" x1="482.9" y1="222.6" x2="482.9" y2="222.6"/>
			<line class="st13" x1="480.4" y1="224.6" x2="480.4" y2="224.6"/>
			<path class="st16" d="M477.6,221.8c-53.1-52.1-150.1-65.4-209-42.4"/>
			<line class="st13" x1="266.8" y1="180.1" x2="266.8" y2="180.1"/>
			<path class="st17" d="M268.8,176.7C316.1,97.4,404.9,41.9,541.1,47.2"/>
			<line class="st13" x1="543.1" y1="47.3" x2="543.1" y2="47.3"/>
		</g>
	</g>
	<g class="st12">
		<g>
			<line class="st13" x1="1127.1" y1="179.3" x2="1127.1" y2="179.3"/>
			<path class="st18" d="M1124,176.8C995.3,72.2,825.9,82.2,697.1,164.5"/>
			<line class="st13" x1="695.4" y1="165.6" x2="695.4" y2="165.6"/>
		</g>
	</g>
	<path class="st19" d="M905.8,226c-85.6,9.8-144.7,50.7-158.7,149.3"/>
	<path class="st19" d="M1131.1,180.6c100.7,42.7,130.7,112.7,129.3,194"/>
	<path class="st19" d="M696.1,165.1c-38.3,50.2-57.7,120.8-9,203.5"/>
	<circle class="st20" cx="1018.9" cy="202.1" r="2"/>
	<circle class="st20" cx="1120.9" cy="219.1" r="2"/>
	<circle class="st20" cx="545.9" cy="206.6" r="2"/>
	<circle class="st20" cx="275.5" cy="246.6" r="2"/>
	<circle class="st20" cx="696.4" cy="243.6" r="2"/>
	<circle class="st20" cx="489.4" cy="197.6" r="2"/>
	<circle class="st20" cx="244.5" cy="207.1" r="2"/>
	<circle class="st20" cx="465.1" cy="84.6" r="2"/>
	<circle class="st20" cx="801.8" cy="46.6" r="2"/>
	<circle class="st20" cx="880.4" cy="133.3" r="2"/>
	<circle class="st20" cx="932.4" cy="86.6" r="2"/>
	<path class="st19" d="M303.8,395.3c13.3-122,76.7-150.7,176.7-170.7c52-134,169-228,370-177c124-3,231,59,274,133"/>
</g>
</svg>
