<svg width="705px" height="42px" viewBox="0 0 705 42" version="1.1" xmlns="http://www.w3.org/2000/svg" xmlns:xlink="http://www.w3.org/1999/xlink">
    <g id="Page-1" stroke="none" stroke-width="1" fill="none" fill-rule="evenodd">
        <g id="Customer-Logos-01" transform="translate(0.000000, -1.000000)">
            <g id="Page-1_2_" transform="translate(159.000000, 0.000000)" fill-rule="nonzero" fill="#FFFFFF">
                <g id="Group_2_" transform="translate(0.310688, 0.707125)">
                    <path d="M90.3,22 C90.6,20.9 90.5,19.9 90,19.2 C89.5,18.6 88.7,18.1 87.8,18 L69.3,17.8 C69.2,17.8 69.1,17.7 69,17.7 C68.9,17.6 68.9,17.5 69,17.4 C69.1,17.2 69.2,17.1 69.4,17.1 L88,16.9 C90.2,16.8 92.6,15 93.4,12.9 L94.5,10.1 C94.5,10 94.6,9.9 94.5,9.8 C93.3,4.4 88.4,0.3 82.7,0.3 C77.4,0.3 72.8,3.7 71.2,8.5 C70.1,7.8 68.9,7.3 67.4,7.4 C64.8,7.6 62.8,9.7 62.5,12.3 C62.4,12.9 62.5,13.6 62.6,14.2 C58.4,14.3 55,17.7 55,22 C55,22.4 55,22.7 55.1,23.2 C55.1,23.4 55.3,23.5 55.4,23.5 L89.6,23.5 C89.8,23.5 90,23.4 90,23.2 L90.3,22 L90.3,22 Z" id="Shape_9_"></path>
                    <path d="M96.2,10.1 L95.7,10.1 C95.6,10.1 95.5,10.2 95.4,10.3 L94.7,12.9 C94.4,14 94.5,15 95,15.7 C95.5,16.3 96.3,16.8 97.2,16.9 L101.1,17.1 C101.2,17.1 101.3,17.2 101.4,17.2 C101.5,17.3 101.5,17.4 101.4,17.5 C101.3,17.7 101.2,17.8 101,17.8 L97,18 C94.8,18.1 92.4,19.9 91.6,22 L91.4,23 C91.3,23.1 91.4,23.3 91.6,23.3 L105.7,23.3 C105.9,23.3 106,23.2 106,23 C106.2,22.1 106.4,21.2 106.4,20.2 C106.3,14.7 101.7,10.1 96.2,10.1" id="Shape_8_"></path>
                    <g id="Shape_7_" transform="translate(0.000000, 27.036445)">
                        <polygon points="12.3 0.3 14.6 0.3 14.6 6.7 18.7 6.7 18.7 8.7 12.3 8.7"></polygon>
                        <path d="M21.1,4.5 C21.1,2.1 23,0.1 25.7,0.1 C28.4,0.1 30.2,2 30.2,4.5 C30.2,7 28.3,8.9 25.6,8.9 C23,8.8 21.1,6.9 21.1,4.5 M27.8,4.5 C27.8,3.2 26.9,2.2 25.7,2.2 C24.5,2.2 23.6,3.3 23.6,4.4 C23.6,5.5 24.5,6.6 25.7,6.6 C27,6.8 27.8,5.7 27.8,4.5"></path>
                        <path d="M33,5 L33,0.3 L35.3,0.3 L35.3,5 C35.3,6.2 35.9,6.8 36.9,6.8 C37.9,6.8 38.5,6.3 38.5,5.1 L38.5,0.3 L40.8,0.3 L40.8,5 C40.8,7.8 39.2,8.9 36.9,8.9 C34.5,8.8 33,7.6 33,5"></path>
                        <path d="M44.4,0.3 L47.7,0.3 C50.7,0.3 52.5,2 52.5,4.5 C52.5,7 50.7,8.8 47.7,8.8 L44.5,8.8 L44.5,0.4 L44.4,0.4 L44.4,0.3 Z M47.7,6.6 C49.1,6.6 50,5.9 50,4.5 C50,3.1 49,2.4 47.7,2.4 L46.7,2.4 L46.7,6.7 L47.7,6.7 L47.7,6.6 Z"></path>
                        <polygon points="58.2 3.7 62.1 3.7 62.1 5.6 58.2 5.6 58.2 8.7 55.8 8.7 55.8 0.3 62.5 0.3 62.5 2.3 58.2 2.3"></polygon>
                        <polygon points="65.8 0.3 68.2 0.3 68.2 6.7 72.2 6.7 72.2 8.7 65.8 8.7"></polygon>
                        <path d="M78.3,0.2 L80.6,0.2 L84.2,8.7 L81.6,8.7 L81,7.2 L77.7,7.2 L77.1,8.7 L74.7,8.7 L78.3,0.2 L78.3,0.2 Z M80.4,5.4 L79.4,3.1 L78.4,5.4 L80.4,5.4 L80.4,5.4 Z"></path>
                        <path d="M87.2,0.3 L91.1,0.3 C92.4,0.3 93.2,0.6 93.9,1.3 C94.4,1.8 94.6,2.5 94.6,3.2 C94.6,4.5 94,5.3 92.9,5.8 L94.9,8.8 L92.2,8.8 L90.5,6.2 L89.4,6.2 L89.4,8.8 L87.1,8.8 L87.1,0.3 L87.2,0.3 Z M91.1,4.3 C91.8,4.3 92.4,3.9 92.4,3.3 C92.4,2.7 91.9,2.3 91.1,2.3 L89.6,2.3 L89.6,4.3 L91.1,4.3 L91.1,4.3 Z"></path>
                        <polygon points="98 0.3 104.8 0.3 104.8 2.2 100.3 2.2 100.3 3.5 104.4 3.5 104.4 5.4 100.3 5.4 100.3 6.7 104.9 6.7 104.9 8.7 98 8.7"></polygon>
                        <path d="M7.2,5.5 C6.9,6.2 6.1,6.8 5.3,6.8 C4,6.8 3.2,5.7 3.2,4.6 C3.2,3.5 4.1,2.4 5.3,2.4 C6.3,2.4 7,3 7.3,3.8 L9.7,3.8 C9.3,1.8 7.6,0.3 5.2,0.3 C2.6,0.3 0.6,2.2 0.6,4.7 C0.6,7.2 2.5,9.1 5.1,9.1 C7.3,9.1 9,7.6 9.6,5.7 L7.2,5.7 L7.2,5.5 Z"></path>
                    </g>
                </g>
            </g>
            <g id="Group" transform="translate(602.000000, 17.000000)" fill-rule="nonzero" fill="#FFFFFF">
                <path d="M67.6,17 C68.9,17 70.2,16.5 71.2,15.6 L73,17.5 C71.8,18.7 70.2,19.6 67.6,19.6 C63.2,19.6 60.4,16.7 60.4,12.8 C60.4,8.9 63.4,6 67.2,6 C71.6,6 74,9.3 73.8,13.9 L63.5,13.9 C63.9,15.7 65.2,17 67.6,17 L67.6,17 Z M70.7,11.6 C70.4,9.8 69.4,8.5 67.2,8.5 C65.2,8.5 63.9,9.6 63.5,11.6 L70.7,11.6 Z"></path>
                <polygon points="0 16.8 7.9 8.8 0.2 8.8 0.2 6.2 11.6 6.2 11.6 8.8 3.6 16.9 11.7 16.9 11.7 19.4 0 19.4"></polygon>
                <path d="M20.6,17 C21.9,17 23.2,16.5 24.2,15.6 L26,17.5 C24.8,18.7 23.2,19.6 20.6,19.6 C16.2,19.6 13.4,16.7 13.4,12.8 C13.4,8.9 16.4,6 20.2,6 C24.6,6 27,9.3 26.8,13.9 L16.5,13.9 C16.9,15.7 18.2,17 20.6,17 L20.6,17 Z M23.7,11.6 C23.4,9.8 22.4,8.5 20.2,8.5 C18.2,8.5 16.9,9.6 16.5,11.6 L23.7,11.6 Z"></path>
                <path d="M43.9,12.8 C43.9,8.6 47,6 50.5,6 C52.2,6 53.9,6.8 54.9,8 L54.9,0.2 L57.7,0.2 L57.7,19.4 L54.9,19.4 L54.9,17.6 C53.9,18.9 52.2,19.7 50.5,19.7 C47.1,19.6 43.9,17 43.9,12.8 M55.1,12.8 C55.1,10.5 53.3,8.5 50.9,8.5 C48.5,8.5 46.7,10.4 46.7,12.8 C46.7,15.2 48.5,17.1 50.9,17.1 C53.3,17 55.1,15.1 55.1,12.8"></path>
                <path d="M75.6,16.6 L78.1,15.3 C78.8,16.5 80.1,17.3 81.5,17.2 C83.1,17.2 83.9,16.4 83.9,15.5 C83.9,14.4 82.4,14.2 80.7,13.9 C78.5,13.4 76.1,12.7 76.1,10 C76.1,7.9 78.1,6 81.2,6 C83.7,6 85.5,7 86.5,8.6 L84.2,9.9 C83.6,9 82.6,8.4 81.2,8.4 C79.7,8.4 78.9,9.1 78.9,10 C78.9,10.9 80.1,11.2 82,11.6 C84.2,12.1 86.6,12.8 86.6,15.5 C86.6,17.3 85,19.8 81.3,19.7 C78.7,19.6 76.7,18.5 75.6,16.6"></path>
                <polygon points="94.3 13.5 92.1 15.9 92.1 19.4 89.3 19.4 89.3 0.2 92.1 0.2 92.1 12.7 98.1 6.2 101.5 6.2 96.3 11.8 101.6 19.4 98.4 19.4"></polygon>
                <path d="M35.5,5.9 C32.2,5.9 29.4,8.1 29.4,11.6 L29.4,19.3 L32.3,19.3 L32.3,12 C32.3,9.8 33.5,8.6 35.7,8.6 C37.9,8.6 38.9,9.9 38.9,12 L38.9,19.3 L41.8,19.3 L41.8,11.6 C41.6,8.1 38.8,5.9 35.5,5.9"></path>
                <path d="M100.7,4.5 C101.1,4.1 101.7,4.1 102.1,4.5 C102.5,4.9 102.5,5.5 102.1,5.9 C101.7,6.3 101.1,6.3 100.7,5.9 C100.3,5.5 100.3,4.9 100.7,4.5 C100.7,4.5 100.7,4.5 100.7,4.5 Z M101.9,5.8 C102.2,5.5 102.2,5 101.9,4.7 C101.6,4.4 101.1,4.4 100.8,4.7 C100.5,5 100.5,5.5 100.8,5.8 C101.2,6.1 101.6,6.1 101.9,5.8 C101.9,5.8 101.9,5.8 101.9,5.8 Z M101.5,4.6 L101.8,4.9 C102,5.1 102,5.3 101.9,5.5 C101.8,5.6 101.6,5.6 101.5,5.6 L101.4,6 L101.2,5.8 L101.3,5.3 L101.4,5.4 C101.5,5.5 101.6,5.5 101.6,5.4 C101.6,5.4 101.6,5.4 101.6,5.4 C101.7,5.3 101.6,5.2 101.6,5.2 C101.6,5.2 101.6,5.2 101.6,5.2 L101.5,5.1 L100.9,5.7 L100.7,5.5 L101.5,4.6 Z"></path>
            </g>
            <path d="M39.7,20.5 C39.5,18.8 38.5,17.4 36.8,16 L35.8,15.3 L35.1,16.3 C34.3,17.6 33.8,19.3 34,21 C34.1,21.6 34.3,22.6 34.9,23.6 C34.3,23.9 33.1,24.4 31.5,24.3 L1.2,24.3 L1.1,24.7 C0.8,26.4 0.8,31.6 4.2,35.7 C6.8,38.8 10.7,40.3 15.8,40.3 C26.8,40.3 35,35.2 38.8,26 C40.3,26 43.5,26 45.2,22.8 C45.2,22.7 45.3,22.5 45.6,21.9 L45.8,21.6 L44.9,21 C43.8,20.4 41.5,20.1 39.7,20.5 Z M25.5,9.2 L20.9,9.2 L20.9,13.4 L25.5,13.4 L25.5,9.2 Z M25.5,14.3 L20.9,14.3 L20.9,18.5 L25.5,18.5 L25.5,14.3 Z M20,14.3 L15.4,14.3 L15.4,18.5 L20,18.5 L20,14.3 Z M14.6,14.3 L9.9,14.3 L9.9,18.5 L14.5,18.5 L14.5,14.3 L14.6,14.3 Z M9.1,19.3 L4.5,19.3 L4.5,23.5 L9.1,23.5 L9.1,19.3 Z M14.6,19.3 L9.9,19.3 L9.9,23.5 L14.5,23.5 L14.5,19.3 L14.6,19.3 Z M20,19.3 L15.4,19.3 L15.4,23.5 L20,23.5 L20,19.3 Z M25.5,19.3 L20.9,19.3 L20.9,23.5 L25.5,23.5 L25.5,19.3 Z M30.9,19.3 L26.3,19.3 L26.3,23.5 L30.9,23.5 L30.9,19.3 Z M110.7,25.7 C109.5,24.5 108,23.8 106.2,23.8 C104.5,23.8 103,24.4 101.7,25.7 C100.5,26.9 99.8,28.5 99.8,30.2 C99.8,31.9 100.4,33.5 101.7,34.7 C102.9,35.9 104.4,36.6 106.2,36.6 C107.8,36.6 109.2,36.1 110.3,35.1 C110.5,34.9 110.6,34.6 110.6,34.2 C110.6,33.9 110.5,33.6 110.3,33.4 C110.1,33.2 109.8,33.1 109.5,33.1 C109.2,33.1 108.9,33.2 108.7,33.4 C108.3,33.7 108,33.9 107.5,34.1 C107.1,34.3 106.6,34.3 106.1,34.3 C105.7,34.3 105.2,34.2 104.8,34.1 C104.4,34 104,33.8 103.7,33.5 C103.4,33.3 103.1,33 102.8,32.6 C102.5,32.2 102.4,31.9 102.2,31.5 L111.1,31.5 C111.4,31.5 111.7,31.4 111.9,31.2 C112.1,31 112.2,30.7 112.2,30.4 C112.2,29.5 112,28.7 111.7,27.9 C111.8,27 111.3,26.3 110.7,25.7 Z M102.4,29 C102.5,28.6 102.7,28.2 103,27.9 C103.3,27.6 103.5,27.3 103.9,27 C104.2,26.8 104.6,26.6 105,26.4 C105.4,26.3 105.8,26.2 106.3,26.2 C106.7,26.2 107.1,26.3 107.5,26.4 C107.9,26.5 108.3,26.7 108.6,27 C108.9,27.2 109.2,27.5 109.5,27.9 C109.8,28.2 109.9,28.6 110.1,29 L102.4,29 Z M123.1,24.6 C122.9,24.4 122.6,24.2 122.3,24.1 C122,24 121.6,23.9 121.3,23.9 C120.9,23.9 120.6,23.8 120.2,23.8 C119.4,23.8 118.7,23.9 118.1,24.2 C117.5,24.5 116.8,24.8 116.3,25.2 L116.3,25 C116.3,24.7 116.2,24.4 116,24.2 C115.8,24 115.5,23.9 115.2,23.9 C114.9,23.9 114.6,24 114.4,24.2 C114.2,24.4 114.1,24.7 114.1,25 L114.1,35.4 C114.1,35.7 114.2,36 114.4,36.2 C114.6,36.4 114.9,36.5 115.2,36.5 C115.5,36.5 115.8,36.4 116,36.2 C116.2,36 116.3,35.7 116.3,35.4 L116.3,30.2 C116.3,29.6 116.4,29.1 116.6,28.6 C116.8,28.1 117.1,27.7 117.4,27.3 C117.8,26.9 118.2,26.7 118.7,26.4 C119.2,26.2 119.7,26.1 120.2,26.1 C120.8,26.1 121.3,26.2 121.7,26.4 C121.9,26.5 122.1,26.5 122.2,26.5 C122.4,26.5 122.5,26.5 122.7,26.4 C122.8,26.3 123,26.3 123.1,26.1 C123.2,26 123.3,25.9 123.4,25.7 C123.5,25.5 123.5,25.4 123.5,25.2 C123.4,25.1 123.3,24.8 123.1,24.6 Z M79,27.4 C79.4,27 79.8,26.8 80.3,26.5 C80.8,26.3 81.3,26.2 81.8,26.2 C82.3,26.2 82.8,26.3 83.2,26.5 C83.6,26.7 84,26.9 84.4,27.2 C84.6,27.4 84.9,27.5 85.2,27.5 C85.5,27.5 85.8,27.4 86,27.2 C86.2,27 86.3,26.7 86.3,26.3 C86.3,25.9 86.2,25.6 85.9,25.4 C84.7,24.4 83.4,23.9 81.8,23.9 C80.1,23.9 78.6,24.5 77.3,25.8 C76.1,27 75.4,28.6 75.4,30.3 C75.4,32 76,33.6 77.3,34.8 C78.5,36 80,36.7 81.8,36.7 C83.4,36.7 84.8,36.2 85.9,35.2 C86.1,34.9 86.3,34.7 86.3,34.3 C86.3,34 86.2,33.7 86,33.5 C85.8,33.3 85.5,33.2 85.2,33.2 C84.9,33.2 84.7,33.3 84.5,33.5 C84.1,33.8 83.7,34.1 83.3,34.2 C82.9,34.3 82.4,34.4 81.9,34.4 C81.4,34.4 80.8,34.3 80.4,34.1 C79.9,33.9 79.5,33.6 79.1,33.2 C78.7,32.8 78.5,32.4 78.2,31.9 C77.9,31.4 77.9,30.9 77.9,30.3 C77.9,29.7 78,29.2 78.2,28.7 C78.4,28.2 78.7,27.7 79,27.4 Z M98.6,25 C98.6,24.8 98.6,24.7 98.5,24.5 C98.4,24.4 98.4,24.2 98.2,24.1 C98.1,24 98,23.9 97.8,23.8 C97.7,23.7 97.5,23.7 97.3,23.7 C97.1,23.7 96.9,23.8 96.7,23.9 L90,28.3 L90,19.4 C90,19.1 89.9,18.8 89.7,18.6 C89.5,18.4 89.2,18.3 88.9,18.3 C88.6,18.3 88.3,18.4 88.1,18.6 C87.9,18.8 87.8,19.1 87.8,19.4 L87.8,35.2 C87.8,35.5 87.9,35.8 88.1,36 C88.3,36.2 88.6,36.4 88.9,36.4 C89.2,36.4 89.5,36.3 89.7,36 C89.9,35.8 90,35.5 90,35.2 L90,31.1 L91.4,30.2 L96.6,36.1 C96.8,36.3 97.1,36.4 97.4,36.4 C97.6,36.4 97.7,36.4 97.9,36.3 C98,36.2 98.2,36.2 98.3,36 C98.4,35.9 98.5,35.8 98.6,35.6 C98.7,35.5 98.7,35.3 98.7,35.1 C98.7,34.8 98.6,34.5 98.4,34.3 L93.5,28.8 L98.2,25.7 C98.5,25.8 98.6,25.4 98.6,25 Z M72.3,25.7 C71.1,24.5 69.6,23.8 67.8,23.8 C66.1,23.8 64.6,24.4 63.3,25.7 C62.1,26.9 61.4,28.5 61.4,30.2 C61.4,31.9 62,33.5 63.3,34.7 C64.5,35.9 66,36.6 67.8,36.6 C69.5,36.6 71,36 72.3,34.7 C73.5,33.5 74.2,32 74.2,30.2 C74.2,29.3 74,28.5 73.7,27.8 C73.4,27.1 73,26.3 72.3,25.7 Z M71.5,31.8 C71.3,32.3 71,32.7 70.7,33.1 C70.3,33.5 69.9,33.8 69.4,34 C68.9,34.2 68.4,34.3 67.9,34.3 C67.3,34.3 66.8,34.2 66.3,34 C65.8,33.8 65.4,33.5 65,33.1 C64.6,32.7 64.4,32.3 64.2,31.8 C64,31.3 63.9,30.8 63.9,30.3 C63.9,29.8 64,29.2 64.2,28.8 C64.4,28.3 64.7,27.9 65,27.5 C65.4,27.1 65.8,26.9 66.3,26.6 C66.8,26.4 67.3,26.3 67.9,26.3 C68.4,26.3 69,26.4 69.4,26.6 C69.8,26.8 70.3,27.1 70.7,27.5 C71.1,27.9 71.3,28.3 71.5,28.8 C71.7,29.3 71.8,29.8 71.8,30.3 C71.8,30.8 71.7,31.3 71.5,31.8 Z M59,18.4 C58.7,18.4 58.4,18.5 58.2,18.7 C58,18.9 57.9,19.2 57.9,19.5 L57.9,25.2 C56.8,24.3 55.4,23.8 53.9,23.8 C52.2,23.8 50.7,24.4 49.4,25.7 C48.2,26.9 47.5,28.5 47.5,30.2 C47.5,31.9 48.1,33.5 49.4,34.7 C50.6,35.9 52.1,36.6 53.9,36.6 C55.6,36.6 57.1,36 58.4,34.7 C59.6,33.5 60.3,32 60.3,30.2 L60.3,19.6 C60.3,19.3 60.2,19 60,18.8 C59.6,18.5 59.4,18.4 59,18.4 Z M57.5,31.8 C57.3,32.3 57,32.7 56.7,33.1 C56.3,33.5 55.9,33.8 55.4,34 C54.9,34.2 54.4,34.3 53.9,34.3 C53.3,34.3 52.8,34.2 52.3,34 C51.8,33.8 51.4,33.5 51,33.1 C50.6,32.7 50.4,32.3 50.2,31.8 C50,31.3 49.9,30.8 49.9,30.3 C49.9,29.8 50,29.2 50.2,28.8 C50.4,28.3 50.7,27.9 51,27.5 C51.4,27.1 51.8,26.9 52.3,26.6 C52.8,26.3 53.3,26.3 53.9,26.3 C54.4,26.3 55,26.4 55.4,26.6 C55.8,26.8 56.3,27.1 56.7,27.5 C57.1,27.9 57.3,28.3 57.5,28.8 C57.7,29.3 57.8,29.8 57.8,30.3 C57.9,30.8 57.8,31.3 57.5,31.8 Z" fill="#FFFFFF" fill-rule="nonzero"></path>
            <g id="Group" transform="translate(439.000000, 9.000000)">
                <path d="M67.6,18.9 C66.5,18.9 65.8,19.8 65.8,21.1 C65.8,22.4 66.4,24 68.1,24 C68.4,24 68.9,23.9 69.2,23.6 C69.6,23.2 69.9,22.5 69.9,21.7 C69.8,20 69,18.9 67.6,18.9 Z"></path>
                <path d="M8.5,27.6 C8.2,26.8 8.1,25.6 8,24.5 C7.9,25.8 7.8,26.9 7.6,27.6 L8.5,27.6 Z"></path>
                <path d="M107.7,19.3 C108,19.3 108.8,19.3 109.4,19.3 C110.3,19.3 110.8,19.2 111.1,19 C111.9,18.6 112.2,17.8 112.2,16.9 C112.2,14.9 110.8,14.1 108.7,14.1 C108.6,14.1 108.2,14.1 107.9,14.1 C107.8,14.1 107.7,14.4 107.7,14.5 C107.7,15.3 107.7,17.5 107.7,19 C107.6,19.2 107.6,19.3 107.7,19.3 Z"></path>
                <path d="M79.4,19 C79,19 78.6,19.1 78.3,19.3 C77.5,19.8 77.1,20.8 77.1,22.2 C77.1,24.9 78.5,26.8 80.4,26.8 C81,26.8 81.4,26.6 81.8,26.3 C82.4,25.8 82.7,24.8 82.7,23.4 C82.7,20.8 81.4,19 79.4,19 Z"></path>
                <path d="M65.3,30 C65.3,30.6 65.5,31.1 66,31.5 C66.6,32 67.4,32.3 68.5,32.3 C70.6,32.3 71.6,31.2 71.6,30 C71.6,29.2 71.2,28.7 70.4,28.4 C69.8,28.2 68.7,28 67.5,28 C67.1,28 66.8,28.1 66.6,28.2 C65.7,28.9 65.3,29.4 65.3,30 Z"></path>
                <path d="M42.9,19 L42.9,19 C42.5,19 42.1,19.1 41.8,19.3 C41,19.8 40.6,20.8 40.6,22.2 C40.6,24.9 42,26.8 43.9,26.8 C44.5,26.8 44.9,26.6 45.3,26.3 C45.9,25.8 46.2,24.8 46.2,23.4 C46.2,20.8 44.8,19 42.9,19 Z"></path>
                <path d="M96.4,15.1 C95.4,14.5 94,14.2 92.5,14.2 C92.1,14.2 91.6,14.2 91.3,14.3 C91.2,14.3 91.1,14.5 91.1,14.6 C91.1,15 91.1,18.2 91.1,20.1 C91.1,22 91.1,24.7 91.1,25 C91.1,25.3 91.3,25.8 91.6,26 C92.1,26.4 93.1,26.6 93.9,26.6 C95,26.6 96.1,26.4 97.2,25.4 C98.3,24.4 99.1,22.9 99.1,20.4 C99.1,18.1 98.2,16.2 96.4,15.1 Z"></path>
                <path d="M119.7,25.3 C119.7,25 119.6,24.9 119.2,24.9 L118.8,24.9 L118.8,25.7 L119.2,25.7 C119.6,25.7 119.7,25.6 119.7,25.3 Z"></path>
                <path d="M108.9,20.4 C108.8,20.4 107.9,20.4 107.7,20.4 C107.6,20.4 107.6,20.5 107.6,20.5 C107.6,22 107.6,24.3 107.6,25.2 C107.6,25.6 107.9,26.2 108.3,26.3 C108.7,26.5 109.5,26.6 110.1,26.6 C111.7,26.6 113.2,25.7 113.2,23.6 C113.1,21.5 111.6,20.4 108.9,20.4 Z"></path>
                <path d="M119.3,24.2 C118.4,24.2 117.6,24.9 117.6,25.9 C117.6,26.8 118.3,27.5 119.3,27.5 C120.2,27.5 120.9,26.8 120.9,25.9 C120.9,24.9 120.2,24.2 119.3,24.2 Z M119.7,27 L119.2,26 L118.8,26 L118.8,27 L118.5,27 L118.5,24.7 L119.2,24.7 C119.7,24.7 119.9,24.9 119.9,25.3 C119.9,25.6 119.7,25.9 119.4,25.9 L119.9,26.9 L119.7,26.9 L119.7,27 Z"></path>
                <path d="M8,24.6 C8.2,22.3 8.3,19.3 8.2,16.3 C8.2,14.8 8.2,2.5 7.8,0.9 L8.1,21.5 C8.1,21.4 8,22.9 8,24.6 Z" fill="#FFFFFF" fill-rule="nonzero"></path>
                <path d="M99.3,14.8 C98.1,13.7 96.3,13.2 94.3,13.2 C91.8,13.2 90.9,13.3 89.6,13.3 C88.9,13.3 87.4,13.2 87,13.2 C86.9,13.3 86.5,14 86.6,14.1 C87.2,14.2 87.6,14.2 87.9,14.3 C88.5,14.4 88.8,14.6 88.9,15.3 C88.9,16.2 88.9,18.9 88.9,20.3 C88.9,22.2 88.9,24 88.9,25.4 C88.9,26.2 88.8,26.4 88.3,26.6 C88,26.7 87.9,26.7 87.4,26.8 C87.2,26.8 87,27.5 87.1,27.7 L87.1,27.7 C89.1,27.7 91.5,27.8 92.9,27.8 C95.6,27.8 97.4,27.2 98.8,26.1 C100.2,25.1 101.7,23.3 101.7,20.1 C101.6,17.9 100.8,16.1 99.3,14.8 Z M97.3,25.4 C96.2,26.4 95.1,26.6 94,26.6 C93.1,26.6 92.1,26.4 91.7,26 C91.4,25.8 91.3,25.3 91.2,25 C91.2,24.7 91.2,22 91.2,20.1 C91.2,18.2 91.2,15 91.2,14.6 C91.2,14.5 91.3,14.3 91.4,14.3 C91.7,14.2 92.1,14.2 92.6,14.2 C94.1,14.2 95.5,14.5 96.5,15.1 C98.3,16.2 99.2,18.1 99.2,20.5 C99.1,22.9 98.4,24.4 97.3,25.4 Z" fill="#FFFFFF" fill-rule="nonzero"></path>
                <path d="M112.3,19.5 C112.3,19.5 112.3,19.4 112.3,19.5 C113.5,18.9 114.5,17.8 114.5,16.5 C114.5,13.8 112,13.2 110.2,13.2 C108.7,13.2 107.5,13.2 106,13.2 C104.4,13.2 103.8,13.1 103.6,13.1 C103.5,13.2 103.1,13.9 103.2,14 C103.7,14.1 104.3,14.1 104.6,14.2 C105,14.3 105.3,14.5 105.3,15.2 C105.3,16 105.3,17.7 105.3,20.2 C105.3,22 105.3,24.6 105.3,25.3 C105.2,26.1 105.2,26.3 104.6,26.5 C104.2,26.6 103.9,26.6 103.5,26.7 C103.4,26.8 103,27.6 103.2,27.6 C104.8,27.6 107.6,27.7 108.7,27.7 C110.1,27.7 111.4,27.5 112.6,27.1 C114.4,26.3 115.7,25.1 115.7,23.1 C115.6,21 114.1,19.9 112.3,19.5 Z M107.6,14.7 C107.6,14.6 107.7,14.4 107.8,14.3 C108.1,14.3 108.5,14.3 108.6,14.3 C110.7,14.3 112.1,15.1 112.1,17.1 C112.1,18 111.7,18.8 111,19.2 C110.7,19.3 110.2,19.5 109.3,19.5 C108.7,19.5 107.9,19.5 107.6,19.5 C107.6,19.5 107.5,19.4 107.5,19.4 C107.6,17.7 107.6,15.5 107.6,14.7 Z M110.1,26.6 C109.5,26.6 108.7,26.6 108.3,26.3 C107.9,26.1 107.7,25.6 107.6,25.2 C107.5,24.3 107.6,21.9 107.6,20.5 C107.6,20.5 107.7,20.4 107.7,20.4 C107.9,20.4 108.8,20.4 108.9,20.4 C111.6,20.4 113.2,21.6 113.2,23.6 C113.1,25.7 111.7,26.6 110.1,26.6 Z" fill="#FFFFFF" fill-rule="nonzero"></path>
                <path d="M36.9,26.9 C36.4,26.8 36,26.7 35.7,26.6 C35.5,26.5 35.3,26.2 35.3,26.1 C35.3,25.6 35.3,25 35.3,24.2 C35.3,23.4 35.3,22.5 35.3,21.8 C35.3,19.4 34.2,18 32.2,18 C31.4,18 30.2,18.6 28.9,19.5 C28.9,19.5 28.8,19.6 28.8,19.6 C28.7,19.6 28.7,19.6 28.7,19.5 C28.1,18.5 27.3,18 26.3,18 C25.7,18 24.5,18.4 23.2,19.4 C23.2,19.4 23.1,19.5 23.1,19.5 C23,19.5 22.9,19.4 22.9,19.3 C22.9,19 22.9,18.8 22.9,18.5 C22.9,18.4 22.9,18.3 22.9,18.3 C22.9,18.1 22.8,18 22.8,18 C22.1,18.3 20.3,18.7 19.6,18.8 C19.3,18.8 19.2,19 19.2,19.1 C19.2,19.2 19.3,19.3 19.5,19.4 C20,19.6 20.4,19.7 20.7,19.9 C20.9,20.1 20.9,20.3 20.9,20.5 L20.9,20.5 C20.9,22.1 20.9,24.5 20.9,25.7 C20.9,26.2 20.7,26.5 20.3,26.6 C20.1,26.7 19.8,26.7 19.4,26.8 C19.4,26.8 19.3,26.9 19.3,27.1 C19.3,27.3 19.3,27.5 19.4,27.6 C19.6,27.6 19.9,27.6 20.2,27.6 C20.6,27.6 21.1,27.6 21.9,27.6 C22.5,27.6 23.1,27.6 23.5,27.6 C23.8,27.6 24,27.6 24.2,27.6 C24.3,27.4 24.3,26.9 24.3,26.8 C24.2,26.8 24,26.8 23.9,26.7 C23.7,26.7 23.5,26.6 23.4,26.6 C22.9,26.5 22.8,26.2 22.8,25.9 C22.8,25.1 22.8,23.2 22.8,21.7 C22.8,21.2 22.8,20.8 22.8,20.5 C22.8,20.3 22.9,20.1 23,20 C23.7,19.5 24.5,19.2 25.1,19.2 C26.2,19.2 26.9,19.8 27.1,21 C27.2,21.7 27.2,24.7 27.1,25.7 C27.1,26.1 26.9,26.3 26.6,26.4 C26.4,26.5 26.2,26.5 25.9,26.5 C25.8,26.5 25.7,26.5 25.6,26.6 C25.6,26.6 25.5,26.8 25.5,27 C25.5,27.2 25.5,27.4 25.6,27.4 C25.8,27.4 26.2,27.4 26.5,27.4 C27,27.4 27.5,27.4 27.8,27.4 C28.9,27.4 29.6,27.4 30.3,27.4 C30.3,27.4 30.4,27.3 30.4,27.2 C30.5,27 30.4,26.7 30.4,26.6 C30.1,26.6 29.9,26.5 29.7,26.5 C29.6,26.5 29.5,26.5 29.4,26.4 C29.2,26.3 28.9,26.2 28.9,25.8 C28.9,25.1 28.9,24.3 28.9,23.3 C28.9,22.8 28.9,22.4 28.9,21.9 C28.9,21.1 28.9,20.6 28.8,20.2 L28.8,20.2 C28.8,20.1 28.8,20 28.9,20 C29.7,19.4 30.5,19.2 31,19.2 C32.4,19.2 33,20.2 33.1,21 C33.2,21.8 33.2,25.2 33.1,25.6 C33.1,26.1 33,26.3 32.6,26.5 C32.4,26.6 32.2,26.6 31.8,26.7 C31.7,26.8 31.8,27.3 31.8,27.5 C32.4,27.5 33.1,27.4 34.4,27.4 C35,27.4 35.6,27.4 36,27.4 C36.2,27.4 36.4,27.4 36.5,27.4 C36.9,27.6 37,27.1 36.9,26.9 L36.9,26.9 Z" fill="#FFFFFF" fill-rule="nonzero"></path>
                <path d="M43.7,18 C42.7,18 41.5,18.3 40.5,18.9 C39.1,19.8 38.4,21.1 38.4,22.8 C38.4,25.2 39.7,27.8 43.2,27.8 C44.2,27.8 45.4,27.3 46,26.9 C47.4,26 48.2,24.5 48.2,22.6 C48.3,20 46.4,18 43.7,18 Z M45.3,26.4 C44.9,26.7 44.4,26.9 43.9,26.9 C41.9,26.9 40.6,25 40.6,22.3 C40.6,20.8 41,19.9 41.8,19.4 C42.1,19.2 42.5,19.1 42.9,19.1 L42.9,19.1 C44.9,19.1 46.2,20.9 46.2,23.6 C46.2,24.9 45.9,25.9 45.3,26.4 Z" fill="#FFFFFF" fill-rule="nonzero"></path>
                <path d="M80.2,18 C79.2,18 78,18.3 77,18.9 C75.6,19.8 74.9,21.1 74.9,22.8 C74.9,25.2 76.2,27.8 79.7,27.8 C80.7,27.8 81.9,27.3 82.5,26.9 C83.9,26 84.7,24.5 84.7,22.6 C84.8,20 82.9,18 80.2,18 Z M81.8,26.4 C81.4,26.7 80.9,26.9 80.4,26.9 C78.4,26.9 77.1,25 77.1,22.3 C77.1,20.8 77.5,19.9 78.3,19.4 C78.6,19.2 79,19.1 79.4,19.1 C81.4,19.1 82.7,20.9 82.7,23.6 C82.7,24.9 82.4,25.9 81.8,26.4 Z" fill="#FFFFFF" fill-rule="nonzero"></path>
                <path d="M71.6,19.9 C71.6,19.9 71.8,20 72.1,20 C72.1,20 72.2,20 72.2,20 C72.6,20 72.9,19.8 73.1,19.6 C73.3,19.3 73.4,18.9 73.4,18.6 C73.4,18.3 73.3,18.2 73.3,18.2 C73,18.5 72.6,18.7 71.8,18.7 C71.3,18.7 70.9,18.6 70.5,18.5 C69.7,18.2 69.2,18 68.2,18 L68.1,18 C67.2,18 65.7,18.5 65.1,19 C64.3,19.6 63.8,20.6 63.8,21.6 C63.8,23.2 64.5,24.3 66,24.8 C66,24.8 66.1,24.9 66.1,24.9 C66.1,24.9 66.1,25 66.1,25 C65.9,25.2 65.5,25.4 65.2,25.6 C65,25.7 64.7,25.9 64.6,26 C64.4,26.1 64.4,26.2 64.5,26.4 C64.5,26.4 64.5,26.4 64.5,26.5 C64.6,26.8 64.9,27.4 65.9,27.8 C65.9,27.8 66,27.8 66,27.9 C66,27.9 66,28 65.9,28 C64.7,28.8 64.2,29.3 64,29.5 C63.6,29.9 63.6,30.4 63.6,30.5 C63.6,31.1 63.9,32 64.7,32.6 C65.5,33.2 66.4,33.5 67.7,33.5 C68.7,33.5 69.6,33.3 70.5,32.9 C72.3,32 73.4,30.6 73.4,29 C73.4,28 72.8,27.1 71.9,26.8 C71.2,26.6 69.7,26.5 68.6,26.4 C68.4,26.4 68.2,26.4 68,26.4 C67.1,26.3 66.9,26 66.9,25.7 C66.9,25.3 67.3,25.1 67.5,25.1 L67.5,25.1 C67.5,25.1 67.7,25.1 67.8,25.1 C68,25.1 68.1,25.1 68.1,25.1 L68.1,25.1 C69,25 69.8,24.7 70.5,24.2 C71.2,23.6 71.9,22.9 71.9,21.2 C71.9,21 71.8,20.5 71.8,20.3 C71.8,20.3 71.8,20.3 71.8,20.3 C71.5,20 71.5,19.9 71.6,19.9 L71.6,19.9 Z M67.4,28.1 C68.7,28.1 69.7,28.2 70.3,28.5 C71.1,28.8 71.5,29.3 71.5,30.1 C71.5,31.2 70.6,32.4 68.4,32.4 C67.3,32.4 66.5,32.2 65.9,31.6 C65.4,31.2 65.2,30.7 65.2,30.1 C65.2,29.5 65.6,28.9 66.5,28.4 C66.7,28.2 67,28.1 67.4,28.1 Z M69.2,23.6 C68.9,23.9 68.4,24 68.1,24 C66.4,24 65.8,22.4 65.8,21.1 C65.8,19.8 66.5,18.9 67.6,18.9 C69,18.9 69.9,19.9 69.9,21.7 C69.8,22.5 69.6,23.2 69.2,23.6 Z" fill="#FFFFFF" fill-rule="nonzero"></path>
                <path d="M60.5,26.5 C60.4,26.5 60.3,26.2 60.3,26.2 C60.3,25.5 60.3,23.4 60.3,22 C60.3,20.9 60.1,19.9 59.6,19.2 C59,18.4 58.2,17.9 57.2,17.9 C56.3,17.9 55.1,18.5 54.1,19.4 C54.1,19.4 53.9,19.6 53.9,19.3 C53.9,19.1 53.9,18.6 54,18.3 C54,18 53.8,17.9 53.8,17.9 C53.1,18.2 51.3,18.7 50.6,18.7 C50.1,18.8 50,19.3 50.5,19.4 L50.5,19.4 C50.5,19.4 50.5,19.4 50.5,19.4 C51.1,19.6 51.4,19.7 51.7,19.9 C51.9,20.1 51.9,20.3 51.9,20.5 C51.9,22.1 51.9,24.4 51.9,25.7 C51.9,26.2 51.7,26.4 51.4,26.5 C51.4,26.5 51.4,26.5 51.4,26.5 L51.4,26.5 C51.4,26.5 51.4,26.5 51.4,26.5 C51.1,26.6 50.9,26.6 50.5,26.7 C50.4,26.8 50.4,27.5 50.5,27.6 C50.7,27.6 51.9,27.5 52.9,27.5 C54.3,27.5 55,27.6 55.3,27.6 C55.4,27.4 55.5,26.8 55.4,26.7 C55,26.7 54.7,26.6 54.4,26.6 C54,26.5 53.9,26.3 53.9,25.9 C53.9,24.8 53.9,22.5 53.9,20.9 C53.9,20.5 54,20.3 54.2,20.1 C54.7,19.7 55.4,19.4 56.1,19.4 C56.8,19.4 57.2,19.6 57.5,19.9 C57.9,20.3 58.1,20.8 58.2,21.2 C58.3,22.1 58.3,23.8 58.3,25.4 C58.3,26.2 58.2,26.4 57.9,26.5 C57.8,26.6 57.4,26.6 56.9,26.7 C56.8,26.8 56.8,27.5 56.9,27.6 C57.5,27.6 58.2,27.5 59.2,27.5 C60.5,27.5 61.3,27.6 61.6,27.6 C61.7,27.4 61.8,26.8 61.7,26.7 C61.3,26.8 60.9,26.7 60.5,26.5 Z" fill="#FFFFFF" fill-rule="nonzero"></path>
                <path d="M119.3,24 C118.3,24 117.5,24.8 117.5,25.8 C117.5,26.8 118.3,27.6 119.3,27.6 C120.3,27.6 121.1,26.8 121.1,25.8 C121.1,24.8 120.3,24 119.3,24 Z M119.3,27.5 C118.4,27.5 117.6,26.8 117.6,25.9 C117.6,25 118.3,24.2 119.3,24.2 C120.2,24.2 120.9,24.9 120.9,25.9 C120.9,26.8 120.2,27.5 119.3,27.5 Z" fill="#FFFFFF" fill-rule="nonzero"></path>
                <path d="M120,25.3 C120,24.9 119.8,24.7 119.3,24.7 L118.6,24.7 L118.6,27 L118.9,27 L118.9,26 L119.3,26 L119.8,27 L120.1,27 L119.6,26 C119.9,25.9 120,25.7 120,25.3 Z M118.9,25.7 L118.9,24.9 L119.3,24.9 C119.7,24.9 119.8,25 119.8,25.3 C119.8,25.6 119.7,25.7 119.4,25.7 L118.9,25.7 Z" fill="#FFFFFF" fill-rule="nonzero"></path>
                <path d="M10.3,27.6 L10.3,27.6 C10.2,27.6 10.2,27.6 10.3,27.6 C10.2,27.6 10.3,27.6 10.3,27.6 Z" fill="#FFFFFF" fill-rule="nonzero"></path>
                <path d="M7.4,28.7 C7.4,28.7 7.3,28.7 7.4,28.7 C7.9,30 7.8,32.3 7.8,32.3 L8.7,32.6 C8.7,32.6 8.5,30.3 8.8,29.2 C8.9,28.9 9.1,28.6 9.3,28.3 C9.3,28.3 9.2,28.3 9.2,28.3 C8.6,28.9 8.1,29.3 8.1,29.3 C8.1,29.3 7.7,29.1 7.4,28.7 Z" fill="#FFFFFF" fill-rule="nonzero"></path>
                <path d="M14.8,13.4 C13.1,6 9.2,3.6 8.7,2.7 C8.2,2 7.8,0.9 7.8,0.9 L7.8,0.9 C8.2,2.4 8.1,14.8 8.2,16.3 C8.3,19.4 8.2,22.3 8,24.6 C8,25.7 8.1,26.9 8.5,27.7 C8.7,28.1 8.9,28.4 9.2,28.5 C9.2,28.5 9.2,28.5 9.3,28.5 C9.4,28.4 9.8,28.1 10.3,27.7 C10.3,27.7 10.3,27.7 10.3,27.7 C12.2,25.7 16.1,21.1 14.8,13.4 Z" fill="#FFFFFF" fill-rule="nonzero"></path>
                <path d="M8.1,21.4 L7.8,0.8 C7.8,0.8 7.8,0.7 7.8,0.7 C7.8,1.4 7.7,1.6 7.1,2.3 C6.1,3 1.2,7.2 0.8,15.6 C0.4,23.4 6.4,28.1 7.3,28.7 C7.4,28.7 7.4,28.8 7.4,28.8 C7.5,28.6 7.6,28.2 7.7,27.7 C7.8,26.9 8,25.9 8.1,24.6 C8,22.9 8.1,21.4 8.1,21.4 Z" fill="#FFFFFF" fill-rule="nonzero"></path>
            </g>
            <g id="Group" transform="translate(310.000000, 17.000000)" fill-rule="nonzero" fill="#FFFFFF">
                <g transform="translate(29.000000, 0.000000)">
                    <path d="M10.3,6.8 C11.1,7.1 11.1,7.4 10.5,8.5 C9.9,9.7 9.7,9.7 9,9.4 C8.1,9 6.9,8.7 6.1,8.7 C4.8,8.7 4,9.2 4,9.8 C4,12.1 11.2,10.8 11.2,15.7 C11.2,18.1 9.1,19.7 6,19.7 C4.4,19.7 2.3,19.2 0.9,18.4 C0.2,18 0.2,17.8 0.8,16.7 C1.3,15.7 1.5,15.6 2.2,15.9 C3.4,16.4 4.9,16.8 5.9,16.8 C7.1,16.8 7.8,16.3 7.8,15.6 C7.8,13.4 0.5,14.4 0.5,9.8 C0.5,7.3 2.6,5.7 5.7,5.7 C7.2,5.8 9,6.2 10.3,6.8 Z"></path>
                    <path d="M16.1,1.1 L16.1,19.1 C16.1,19.4 15.8,19.7 15.4,19.7 L13.5,19.7 C13.1,19.7 12.8,19.4 12.8,19.1 L12.8,1.1 C12.8,0.2 13,0.1 14.4,0.1 C16,0.1 16.1,0.2 16.1,1.1 Z"></path>
                    <path d="M29.5,11.2 L29.5,18.9 C29.5,19.3 29.2,19.6 28.8,19.6 L27,19.6 C26.6,19.6 26.3,19.3 26.3,18.9 L26.3,18.1 C25.3,19.2 23.8,19.8 22.4,19.8 C19.6,19.8 17.7,18.2 17.7,15.7 C17.7,13.1 19.8,11.4 23,11.4 C24.2,11.4 25.3,11.6 26.2,12 L26.2,11.1 C26.2,9.7 25.1,8.8 23.2,8.8 C22.3,8.8 21.2,9.2 20.3,9.7 C19.6,10.1 19.5,10.1 18.7,9 C18,7.9 18,7.7 18.7,7.3 C20,6.5 21.8,5.9 23.4,5.9 C27.2,5.8 29.5,7.8 29.5,11.2 Z M20.8,15.7 C20.8,16.6 21.6,17.2 22.8,17.2 C24.2,17.2 25.5,16.5 26.3,15.4 L26.3,14.2 C25.5,13.9 24.6,13.7 23.8,13.7 C22,13.7 20.8,14.5 20.8,15.7 Z"></path>
                    <path d="M42.4,6.9 C43.1,7.3 43.1,7.5 42.4,8.7 C41.7,9.8 41.6,9.9 40.8,9.5 C40.2,9.2 39.3,8.9 38.6,8.9 C36.2,8.9 34.7,10.5 34.7,12.8 C34.7,15.3 36.3,16.9 38.6,16.9 C39.4,16.9 40.4,16.6 41.1,16.2 C41.8,15.8 41.9,15.8 42.7,16.9 C43.4,17.9 43.3,18.1 42.8,18.5 C41.7,19.2 40.1,19.8 38.6,19.8 C34.2,19.8 31.3,17 31.3,12.8 C31.3,8.6 34.2,5.8 38.6,5.8 C39.8,5.8 41.4,6.3 42.4,6.9 Z"></path>
                    <path d="M56.7,17.9 C57.2,18.6 57,18.8 55.7,19.3 C54.3,19.8 54.1,19.8 53.6,19.1 L49.7,13.9 L47.9,15.6 L47.9,19 C47.9,19.3 47.6,19.6 47.2,19.6 L45.3,19.6 C44.9,19.6 44.6,19.3 44.6,19 L44.6,1 C44.6,0.1 44.8,-7.10542736e-15 46.2,-7.10542736e-15 C47.8,-7.10542736e-15 47.8,0.1 47.8,1 L47.8,11.2 L53.2,6 C53.8,5.4 54.1,5.5 55.2,6.2 C56.4,7 56.4,7.2 55.9,7.7 L51.9,11.6 L56.7,17.9 Z"></path>
                </g>
                <g>
                    <rect id="Rectangle-path" transform="translate(12.488420, 12.457990) rotate(-18.518296) translate(-12.488420, -12.457990) " x="10.78846" y="10.8080288" width="3.3999201" height="3.29992245"></rect>
                    <g>
                        <rect id="Rectangle-path" transform="translate(12.488520, 12.458390) rotate(-18.518296) translate(-12.488520, -12.458390) " x="10.78856" y="10.8084288" width="3.3999201" height="3.29992245"></rect>
                        <path d="M23.6,9.2 C21.1,0.9 17.5,-1 9.2,1.5 C0.9,4 -1,7.6 1.5,15.9 C4,24.2 7.6,26.1 15.9,23.6 C24.1,21 26.1,17.4 23.6,9.2 Z M19.4,14.5 L17.8,15 L18.3,16.6 C18.5,17.3 18.2,18 17.5,18.2 C17.4,18.2 17.2,18.3 17.1,18.3 C16.6,18.3 16.1,18 15.9,17.4 L15.4,15.8 L12.2,16.9 L12.7,18.5 C12.9,19.2 12.6,19.9 11.9,20.1 C11.8,20.1 11.6,20.2 11.5,20.2 C11,20.2 10.5,19.9 10.3,19.3 L9.8,17.7 L8.2,18.2 C8.1,18.2 7.9,18.3 7.8,18.3 C7.3,18.3 6.8,18 6.6,17.4 C6.4,16.7 6.7,16 7.4,15.8 L9,15.3 L8,12.2 L6.4,12.7 C6.3,12.7 6.1,12.8 6,12.8 C5.5,12.8 5,12.5 4.8,11.9 C4.6,11.2 4.9,10.5 5.6,10.3 L7.2,9.8 L6.7,8.2 C6.5,7.5 6.8,6.8 7.5,6.6 C8.2,6.4 8.9,6.7 9.1,7.4 L9.6,9 L12.8,7.9 L12.3,6.3 C12.1,5.6 12.4,4.9 13.1,4.7 C13.8,4.5 14.5,4.8 14.7,5.5 L15.2,7.1 L16.8,6.6 C17.5,6.4 18.2,6.7 18.4,7.4 C18.6,8.1 18.3,8.8 17.6,9 L16,9.5 L17,12.6 L18.6,12.1 C19.3,11.9 20,12.2 20.2,12.9 C20.4,13.6 20,14.3 19.4,14.5 Z"></path>
                    </g>
                </g>
            </g>
        </g>
    </g>
</svg>
