<svg id="Layer_1" xmlns="http://www.w3.org/2000/svg" xmlns:xlink="http://www.w3.org/1999/xlink" viewBox="0 0 413.9 278.6"><style>.st0{fill:url(#SVGID_1_);} .st1{fill:none;stroke:url(#SVGID_2_);stroke-width:3;stroke-miterlimit:10;} .st2{fill:none;stroke:url(#SVGID_3_);stroke-width:3;stroke-miterlimit:10;} .st3{fill:none;stroke:url(#SVGID_4_);stroke-width:3;stroke-miterlimit:10;} .st4{fill:none;stroke:#0080FF;stroke-width:3;stroke-miterlimit:10;} .st5{opacity:0.4;} .st6{fill:none;stroke:#0080FF;stroke-miterlimit:10;} .st7{fill:url(#SVGID_5_);} .st8{fill:none;stroke:#00D688;stroke-width:2;stroke-linecap:round;stroke-miterlimit:10;} .st9{fill:none;stroke:#00D688;stroke-width:2;stroke-linecap:round;stroke-miterlimit:10;stroke-dasharray:0,3.7242;} .st10{fill:none;stroke:#00D688;stroke-width:2;stroke-linecap:round;stroke-miterlimit:10;stroke-dasharray:0,3.7679;} .st11{fill:none;stroke:#00D688;stroke-width:2;stroke-linecap:round;stroke-miterlimit:10;stroke-dasharray:0,4.0149;} .st12{fill:none;stroke:#00D688;stroke-width:2;stroke-linecap:round;stroke-miterlimit:10;stroke-dasharray:0,4.3347;} .st13{fill:none;stroke:#FFFFFF;stroke-width:9;stroke-linecap:round;stroke-miterlimit:10;} .st14{fill:none;stroke:#FFFFFF;stroke-width:8;stroke-linecap:round;stroke-miterlimit:10;} .st15{fill:url(#SVGID_6_);} .st16{fill:none;stroke:#FFFFFF;stroke-width:2;stroke-miterlimit:10;} .st17{fill:none;stroke:#0080FF;stroke-width:2;stroke-miterlimit:10;} .st18{opacity:0.5;fill:none;stroke:#0080FF;stroke-width:2;stroke-miterlimit:10;enable-background:new ;} .st19{fill:none;stroke:url(#SVGID_7_);stroke-width:2;stroke-linecap:round;stroke-miterlimit:10;} .st20{fill:none;stroke:url(#SVGID_8_);stroke-width:2;stroke-linecap:round;stroke-miterlimit:10;stroke-dasharray:0,3.9928;} .st21{fill:none;stroke:url(#SVGID_9_);stroke-width:2;stroke-linecap:round;stroke-miterlimit:10;} .st22{fill:none;stroke:url(#SVGID_10_);stroke-width:2;stroke-linecap:round;stroke-miterlimit:10;stroke-dasharray:0,3.8042;} .st23{fill:none;stroke:url(#SVGID_11_);stroke-width:2;stroke-linecap:round;stroke-miterlimit:10;} .st24{fill:none;stroke:url(#SVGID_12_);stroke-width:2;stroke-linecap:round;stroke-miterlimit:10;} .st25{fill:none;stroke:url(#SVGID_13_);stroke-width:2;stroke-linecap:round;stroke-miterlimit:10;stroke-dasharray:0,4.0173;} .st26{fill:none;stroke:url(#SVGID_14_);stroke-width:2;stroke-linecap:round;stroke-miterlimit:10;} .st27{fill:none;stroke:url(#SVGID_15_);stroke-width:2;stroke-linecap:round;stroke-miterlimit:10;stroke-dasharray:0,4;} .st28{fill:none;stroke:url(#SVGID_16_);stroke-width:2;stroke-linecap:round;stroke-miterlimit:10;} .st29{fill:none;stroke:url(#SVGID_17_);stroke-width:2;stroke-linecap:round;stroke-miterlimit:10;stroke-dasharray:0,4.0369;} .st30{fill:none;stroke:url(#SVGID_18_);stroke-width:2;stroke-linecap:round;stroke-miterlimit:10;} .st31{fill:none;stroke:url(#SVGID_19_);stroke-width:2;stroke-linecap:round;stroke-miterlimit:10;} .st32{fill:none;stroke:url(#SVGID_20_);stroke-width:2;stroke-linecap:round;stroke-miterlimit:10;stroke-dasharray:0,3.9294;} .st33{fill:none;stroke:url(#SVGID_21_);stroke-width:2;stroke-linecap:round;stroke-miterlimit:10;} .st34{fill:none;stroke:url(#SVGID_22_);stroke-width:2;stroke-linecap:round;stroke-miterlimit:10;stroke-dasharray:0,4.0528;} .st35{fill:none;stroke:url(#SVGID_23_);stroke-width:2;stroke-linecap:round;stroke-miterlimit:10;} .st36{fill:none;stroke:url(#SVGID_24_);stroke-width:2;stroke-linecap:round;stroke-miterlimit:10;stroke-dasharray:0,4;} .st37{fill:none;stroke:url(#SVGID_25_);stroke-width:2;stroke-linecap:round;stroke-miterlimit:10;} .st38{fill:none;stroke:url(#SVGID_26_);stroke-width:2;stroke-linecap:round;stroke-miterlimit:10;stroke-dasharray:0,4.2803;} .st39{fill:none;stroke:url(#SVGID_27_);stroke-width:2;stroke-linecap:round;stroke-miterlimit:10;} .st40{fill:#0080FF;} .st41{opacity:0.13;fill:#00D688;enable-background:new ;} .st42{fill:#00D688;} .st43{fill:none;stroke:#00D688;stroke-miterlimit:10;} .st44{opacity:0.33;enable-background:new ;} .st45{clip-path:url(#SVGID_29_);fill:none;stroke:#0080FF;stroke-width:3;stroke-miterlimit:10;} .st46{clip-path:url(#SVGID_31_);fill:none;stroke:#0080FF;stroke-width:3;stroke-miterlimit:10;}</style><linearGradient id="SVGID_1_" gradientUnits="userSpaceOnUse" x1="330.487" y1="61.55" x2="118.976" y2="61.55" gradientTransform="matrix(1 0 0 -1 0 208)"><stop offset="0" stop-color="#0072FF" stop-opacity="0"/><stop offset=".564" stop-color="#0068FF" stop-opacity=".085"/><stop offset="1" stop-color="#005DFF" stop-opacity=".15"/></linearGradient><path class="st0" d="M225,22.9L119,84.7v123.5L225,270l106-61.8V84.7L225,22.9z M224.9,176.8c-15.4,0-27.8-12.5-27.8-27.8 c0-17.2,27.8-36.4,27.8-36.4s27.8,19.2,27.8,36.4C252.8,164.3,240.3,176.8,224.9,176.8z"/><linearGradient id="SVGID_2_" gradientUnits="userSpaceOnUse" x1="225.5" y1="-59" x2="225.5" y2="61" gradientTransform="matrix(1 0 0 -1 0 208)"><stop offset="0" stop-color="#00D688"/><stop offset="1" stop-color="#0080FF"/></linearGradient><path class="st1" d="M225.5 147L225.5 267"/><linearGradient id="SVGID_3_" gradientUnits="userSpaceOnUse" x1="224.445" y1="91.3" x2="330.955" y2="91.3" gradientTransform="matrix(1 0 0 -1 0 208)"><stop offset="0" stop-color="#0080FF"/><stop offset="1" stop-color="#00D688"/></linearGradient><path class="st2" d="M330.2 86.1L225.2 147.3"/><linearGradient id="SVGID_4_" gradientUnits="userSpaceOnUse" x1="332.724" y1="-.646" x2="117.273" y2="123.745" gradientTransform="matrix(1 0 0 -1 0 208)"><stop offset="0" stop-color="#00D688"/><stop offset="1" stop-color="#0080FF"/></linearGradient><path class="st3" d="M225.3 268.3L118.5 207.3 118.5 85.6 225.3 24.7 331.5 85.6 331.5 207.3z"/><path class="st4" d="M118.3 85.1L225.5 147.1"/><g class="st5"><path class="st6" d="M332.8 206.8L225.5 146.2 225.5 24M119.6 207.2L225.8 146.2"/></g><linearGradient id="SVGID_5_" gradientUnits="userSpaceOnUse" x1="204.442" y1="62.25" x2="245.784" y2="62.25" gradientTransform="matrix(1 0 0 -1 0 208)"><stop offset="0" stop-color="#0080FF"/><stop offset="1" stop-color="#0069FF" stop-opacity=".1"/></linearGradient><path class="st7" d="M204.4,148.9c0,11.4,9.3,20.7,20.7,20.7s20.7-9.3,20.7-20.7c0-12.8-20.7-27-20.7-27S204.4,136.1,204.4,148.9z"/><path class="st8" d="M372 179.3L372 179.3"/><path class="st9" d="M368.8 177.5L350.9 167.5"/><path class="st8" d="M349.2 166.6L349.2 166.6"/><path class="st10" d="M349.2 162.8L349.1 149.7"/><path class="st8" d="M349.1 147.8L349.1 147.8M351.5 269.8L351.5 269.8"/><path class="st11" d="M348 267.8L304.1 243.6"/><path class="st8" d="M302.3 242.6L302.3 242.6"/><path class="st12" d="M298.5 244.6L288.9 249.7"/><path class="st8" d="M287 250.8L287 250.8"/><path class="st13" d="M337.2 140.3L324.6 133.2M257.6 58.4L282.6 44"/><path class="st14" d="M275.5 244.8L267.5 240.2"/><linearGradient id="SVGID_6_" gradientUnits="userSpaceOnUse" y1="172.5" x2="81" y2="172.5" gradientTransform="matrix(1 0 0 -1 0 208)"><stop offset="0" stop-color="#0080FF"/><stop offset=".498" stop-color="#0072FF" stop-opacity=".552"/><stop offset="1" stop-color="#0069FF" stop-opacity=".1"/></linearGradient><path class="st15" d="M0 7L81 7 81 64 0 64z"/><path class="st16" d="M32 19L54 19M14 19L26 19M14 24L45 24M45 30L54 30M14 30L39 30M45 52L54 52M14 52L39 52M14 40L32 40M32 46L47 46M14 46L26 46"/><path class="st17" d="M1 1L4 1M7 1L10 1M13 1L16 1"/><path class="st18" d="M81.5 64L117.9 84.6"/><path class="st17" d="M95.9 72.2L117.9 84.6"/><linearGradient id="SVGID_7_" gradientUnits="userSpaceOnUse" x1="232.816" y1="27.2" x2="409.531" y2="27.2" gradientTransform="matrix(1 0 0 -1 0 208)"><stop offset="0" stop-color="#0080FF"/><stop offset="1" stop-color="#00D688"/></linearGradient><path class="st19" d="M408.5 180.8L408.5 180.8"/><linearGradient id="SVGID_8_" gradientUnits="userSpaceOnUse" x1="232.816" y1="76.95" x2="409.531" y2="76.95" gradientTransform="matrix(1 0 0 -1 0 208)"><stop offset="0" stop-color="#0080FF"/><stop offset="1" stop-color="#00D688"/></linearGradient><path class="st20" d="M405.1 178.8L236.6 83.3"/><linearGradient id="SVGID_9_" gradientUnits="userSpaceOnUse" x1="232.816" y1="125.7" x2="409.531" y2="125.7" gradientTransform="matrix(1 0 0 -1 0 208)"><stop offset="0" stop-color="#0080FF"/><stop offset="1" stop-color="#00D688"/></linearGradient><path class="st21" d="M234.8 82.3L234.8 82.3"/><linearGradient id="SVGID_10_" gradientUnits="userSpaceOnUse" x1="232.816" y1="133.6" x2="409.531" y2="133.6" gradientTransform="matrix(1 0 0 -1 0 208)"><stop offset="0" stop-color="#0080FF"/><stop offset="1" stop-color="#00D688"/></linearGradient><path class="st22" d="M238.2 80.5L259.7 68.3"/><linearGradient id="SVGID_11_" gradientUnits="userSpaceOnUse" x1="232.816" y1="140.6" x2="409.531" y2="140.6" gradientTransform="matrix(1 0 0 -1 0 208)"><stop offset="0" stop-color="#0080FF"/><stop offset="1" stop-color="#00D688"/></linearGradient><path class="st23" d="M261.4 67.4L261.4 67.4"/><g><linearGradient id="SVGID_12_" gradientUnits="userSpaceOnUse" x1="164" y1="-59.3" x2="315.765" y2="-59.3" gradientTransform="matrix(1 0 0 -1 0 208)"><stop offset="0" stop-color="#0080FF"/><stop offset="1" stop-color="#00D688"/></linearGradient><path class="st24" d="M314.8 267.3L314.8 267.3"/><linearGradient id="SVGID_13_" gradientUnits="userSpaceOnUse" x1="164" y1="-15.75" x2="315.765" y2="-15.75" gradientTransform="matrix(1 0 0 -1 0 208)"><stop offset="0" stop-color="#0080FF"/><stop offset="1" stop-color="#00D688"/></linearGradient><path class="st25" d="M311.3 265.3L166.7 182.2"/><linearGradient id="SVGID_14_" gradientUnits="userSpaceOnUse" x1="164" y1="26.8" x2="315.765" y2="26.8" gradientTransform="matrix(1 0 0 -1 0 208)"><stop offset="0" stop-color="#0080FF"/><stop offset="1" stop-color="#00D688"/></linearGradient><path class="st26" d="M165 181.2L165 181.2"/><linearGradient id="SVGID_15_" gradientUnits="userSpaceOnUse" x1="164" y1="62.5" x2="315.765" y2="62.5" gradientTransform="matrix(1 0 0 -1 0 208)"><stop offset="0" stop-color="#0080FF"/><stop offset="1" stop-color="#00D688"/></linearGradient><path class="st27" d="M165 177L165 114"/><linearGradient id="SVGID_16_" gradientUnits="userSpaceOnUse" x1="164" y1="96.5" x2="315.765" y2="96.5" gradientTransform="matrix(1 0 0 -1 0 208)"><stop offset="0" stop-color="#0080FF"/><stop offset="1" stop-color="#00D688"/></linearGradient><path class="st28" d="M165 111.5L165 111.5"/><linearGradient id="SVGID_17_" gradientUnits="userSpaceOnUse" x1="164" y1="139.4" x2="315.765" y2="139.4" gradientTransform="matrix(1 0 0 -1 0 208)"><stop offset="0" stop-color="#0080FF"/><stop offset="1" stop-color="#00D688"/></linearGradient><path class="st29" d="M168.5 109.4L310.1 27.8"/><linearGradient id="SVGID_18_" gradientUnits="userSpaceOnUse" x1="164" y1="181.2" x2="315.765" y2="181.2" gradientTransform="matrix(1 0 0 -1 0 208)"><stop offset="0" stop-color="#0080FF"/><stop offset="1" stop-color="#00D688"/></linearGradient><path class="st30" d="M311.9 26.8L311.9 26.8"/></g><g><linearGradient id="SVGID_19_" gradientUnits="userSpaceOnUse" x1="232.506" y1="-2.785" x2="261.56" y2="-19.56" gradientTransform="matrix(1 0 0 -1 0 208)"><stop offset="0" stop-color="#0080FF"/><stop offset="1" stop-color="#00D688"/></linearGradient><path class="st31" d="M247.6 219.5L247.6 219.5"/><linearGradient id="SVGID_20_" gradientUnits="userSpaceOnUse" x1="232.61" y1="-2.604" x2="261.665" y2="-19.379" gradientTransform="matrix(1 0 0 -1 0 208)"><stop offset="0" stop-color="#0080FF"/><stop offset="1" stop-color="#00D688"/></linearGradient><path class="st32" d="M244.2 217.5L235.9 212.3"/><linearGradient id="SVGID_21_" gradientUnits="userSpaceOnUse" x1="232.706" y1="-2.438" x2="261.761" y2="-19.212" gradientTransform="matrix(1 0 0 -1 0 208)"><stop offset="0" stop-color="#0080FF"/><stop offset="1" stop-color="#00D688"/></linearGradient><path class="st33" d="M234.2 211.3L234.2 211.3"/><linearGradient id="SVGID_22_" gradientUnits="userSpaceOnUse" x1="246.252" y1="21.024" x2="275.307" y2="4.25" gradientTransform="matrix(1 0 0 -1 0 208)"><stop offset="0" stop-color="#0080FF"/><stop offset="1" stop-color="#00D688"/></linearGradient><path class="st34" d="M237.7 209.3L285.2 182.2"/><linearGradient id="SVGID_23_" gradientUnits="userSpaceOnUse" x1="258.94" y1="43.001" x2="287.995" y2="26.226" gradientTransform="matrix(1 0 0 -1 0 208)"><stop offset="0" stop-color="#0080FF"/><stop offset="1" stop-color="#00D688"/></linearGradient><path class="st35" d="M287 181.2L287 181.2"/><linearGradient id="SVGID_24_" gradientUnits="userSpaceOnUse" x1="271.78" y1="65.287" x2="300.81" y2="48.527" gradientTransform="matrix(1 0 0 -1 0 208)"><stop offset="0" stop-color="#0080FF"/><stop offset="1" stop-color="#00D688"/></linearGradient><path class="st36" d="M287 177L287 126"/><linearGradient id="SVGID_25_" gradientUnits="userSpaceOnUse" x1="283.708" y1="85.9" x2="312.763" y2="69.126" gradientTransform="matrix(1 0 0 -1 0 208)"><stop offset="0" stop-color="#0080FF"/><stop offset="1" stop-color="#00D688"/></linearGradient><path class="st37" d="M287 124L287 124"/><linearGradient id="SVGID_26_" gradientUnits="userSpaceOnUse" x1="283.773" y1="86.013" x2="312.828" y2="69.238" gradientTransform="matrix(1 0 0 -1 0 208)"><stop offset="0" stop-color="#0080FF"/><stop offset="1" stop-color="#00D688"/></linearGradient><path class="st38" d="M290.7 126.1L300.1 131.3"/><linearGradient id="SVGID_27_" gradientUnits="userSpaceOnUse" x1="283.864" y1="86.171" x2="312.919" y2="69.396" gradientTransform="matrix(1 0 0 -1 0 208)"><stop offset="0" stop-color="#0080FF"/><stop offset="1" stop-color="#00D688"/></linearGradient><path class="st39" d="M302 132.3L302 132.3"/></g><g><ellipse transform="rotate(-60 120.023 85.248)" class="st40" cx="120" cy="85.2" rx="6.2" ry="6.2"/></g><circle class="st41" cx="81.1" cy="63.1" r="17"/><circle class="st42" cx="81.4" cy="63.4" r="4"/><circle class="st43" cx="81.1" cy="63.1" r="17"/><g class="st44"><defs><path id="SVGID_28_" d="M204.5,148.9c0,11.4,9.3,20.7,20.7,20.7c11.4,0,20.7-9.3,20.7-20.7c0-12.8-20.7-27.1-20.7-27.1 S204.5,136.1,204.5,148.9z"/></defs><clipPath id="SVGID_29_"><use xlink:href="#SVGID_28_" overflow="visible"/></clipPath><path class="st45" d="M330.9 85.5L224.7 147.6"/><g><defs><path id="SVGID_30_" d="M204.5,148.9c0,11.4,9.3,20.7,20.7,20.7c11.4,0,20.7-9.3,20.7-20.7c0-12.8-20.7-27.1-20.7-27.1 S204.5,136.1,204.5,148.9z"/></defs><clipPath id="SVGID_31_"><use xlink:href="#SVGID_30_" overflow="visible"/></clipPath><path class="st46" d="M118.3 85.1L225.5 147.1"/></g></g><path class="st42" d="M413.9 182.5c0 2.6-2.1 4.8-4.8 4.8s-4.8-2.1-4.8-4.8c0-3 4.8-8.7 4.8-8.7S413.9 179.5 413.9 182.5zM356.8 273.1c0 3-2.5 5.5-5.5 5.5s-5.5-2.5-5.5-5.5c0-3.4 5.5-10 5.5-10S356.8 269.6 356.8 273.1zM375.9 180.4c0 2.3-1.9 4.2-4.2 4.2s-4.2-1.9-4.2-4.2c0-2.6 4.2-7.5 4.2-7.5S375.9 177.8 375.9 180.4zM317.5 26.5c0 3.1-2.5 5.6-5.6 5.6s-5.6-2.5-5.6-5.6c0-3.5 5.6-10.2 5.6-10.2S317.5 23.1 317.5 26.5zM319 269.5c0 2-1.6 3.7-3.7 3.7-2 0-3.7-1.6-3.7-3.7 0-2.3 3.7-6.6 3.7-6.6S319 267.3 319 269.5z"/></svg>