<svg id="Layer_1" xmlns="http://www.w3.org/2000/svg" viewBox="0 0 399 201.6"><style>.st0{fill:none;stroke:#0072FF;stroke-linecap:round;stroke-miterlimit:10;} .st1{fill:url(#SVGID_1_);} .st2{fill:url(#SVGID_2_);} .st3{fill:url(#SVGID_3_);} .st4{fill:url(#SVGID_4_);} .st5{fill:url(#SVGID_5_);} .st6{fill:url(#SVGID_6_);} .st7{fill:url(#SVGID_7_);} .st8{fill:url(#SVGID_8_);} .st9{fill:url(#SVGID_9_);} .st10{fill:url(#SVGID_10_);} .st11{fill:url(#SVGID_11_);} .st12{fill:#FFFFFF;stroke:#0072FF;stroke-width:2;stroke-linecap:round;stroke-miterlimit:10;} .st13{fill:url(#SVGID_12_);} .st14{fill:url(#SVGID_13_);} .st15{fill:none;stroke:#00D688;stroke-width:2;stroke-linecap:round;stroke-miterlimit:10;} .st16{fill:none;stroke:#00D688;stroke-width:2;stroke-linecap:round;stroke-miterlimit:10;stroke-dasharray:0,5.2865;} .st17{fill:none;stroke:#00D688;stroke-width:2;stroke-linecap:round;stroke-miterlimit:10;stroke-dasharray:0,5.1468;} .st18{fill:url(#SVGID_14_);} .st19{fill:url(#SVGID_15_);} .st20{fill:url(#SVGID_16_);} .st21{fill:url(#SVGID_17_);} .st22{fill:url(#SVGID_18_);} .st23{fill:url(#SVGID_19_);} .st24{fill:url(#SVGID_20_);} .st25{fill:url(#SVGID_21_);} .st26{fill:#FFFFFF;stroke:url(#SVGID_22_);stroke-width:3;stroke-miterlimit:10;} .st27{fill:url(#SVGID_23_);} .st28{fill:url(#SVGID_24_);} .st29{fill:url(#SVGID_25_);} .st30{fill:url(#SVGID_26_);} .st31{fill:url(#SVGID_27_);} .st32{fill:url(#SVGID_28_);}</style><path class="st0" d="M0.5 68.6H73.8V138.7H0.5z"/><linearGradient id="SVGID_1_" gradientUnits="userSpaceOnUse" x1=".591" y1="58.05" x2="49.404" y2="58.05" gradientTransform="matrix(1 0 0 -1 0 204)"><stop offset="0" stop-color="#005AFF" stop-opacity="0"/><stop offset="1" stop-color="#005AFF" stop-opacity=".3"/></linearGradient><path class="st1" d="M0.7 152.6L48.8 152.6 48.8 139.3 0.7 139.3z"/><linearGradient id="SVGID_2_" gradientUnits="userSpaceOnUse" x1="-392.144" y1="-7741.406" x2="-370.606" y2="-7741.406" gradientTransform="translate(419.644 7847.556)"><stop offset="0" stop-color="#005AFF" stop-opacity="0"/><stop offset="1" stop-color="#005AFF" stop-opacity=".3"/></linearGradient><path class="st2" d="M27.5 73.4L48.8 73.4 48.8 138.9 27.5 138.9z"/><linearGradient id="SVGID_3_" gradientUnits="userSpaceOnUse" x1="38.8" y1="116" x2="38.8" y2="92.995"><stop offset="0" stop-color="#0080FF"/><stop offset="1" stop-color="#0069FF" stop-opacity=".3"/></linearGradient><path class="st3" d="M55.4,111.3c0,0.3-0.3,0.7-1.3,1.2c-1.8,0.9-11.1,4.8-13,5.7c-2,1.1-3,1.1-4.6,0.3c-1.6-0.8-11.3-4.8-13-5.5 c-0.9-0.4-1.3-0.8-1.3-1.1v-2.1c0.2,0.2,0.7,0.4,1.1,0.8c1.7,0.8,11.6,4.8,13.1,5.5c1.6,0.8,2.6,0.8,4.6-0.3c2-1.1,11.2-4.8,13-5.7 l0,0c0.9-0.4,1.3-0.9,1.3-1.1l0,0C55.4,108.9,55.4,111.1,55.4,111.3z M55.4,106.4c0,0.3-0.3,0.7-1.3,1.2c-0.1,0.1-0.3,0.1-0.4,0.2 c-0.3,0.1-0.7,0.3-1,0.4c-3.3,1.4-9.9,4.2-11.6,5.1c-2,1.1-3,1.1-4.6,0.3c-1.3-0.7-8.1-3.4-11.6-4.9c-0.4-0.2-0.9-0.3-1.2-0.5l0,0 c-0.1-0.1-0.2-0.1-0.3-0.1c-0.9-0.4-1.3-0.8-1.3-1.1v-2.2c0.2,0.2,0.7,0.4,1.1,0.8c0.5,0.2,1.8,0.9,3.4,1.4 c0.7,0.3,1.3,0.5,2.1,0.9c3.3,1.3,6.9,2.8,7.8,3.3c1.6,0.8,2.6,0.8,4.6-0.3c1.1-0.7,4.8-2.1,7.9-3.5c0.7-0.3,1.2-0.5,1.8-0.8 c1.5-0.7,2.8-1.2,3.4-1.5l0,0c0.9-0.4,1.3-0.9,1.3-1.1l0,0C55.4,104,55.4,106.1,55.4,106.4z"/><linearGradient id="SVGID_4_" gradientUnits="userSpaceOnUse" x1="38.755" y1="116" x2="38.755" y2="92.995"><stop offset="0" stop-color="#0080FF"/><stop offset="1" stop-color="#0069FF" stop-opacity=".3"/></linearGradient><path class="st4" d="M54.2,98.4c-1.7-0.7-11.1-4.2-12.8-5c-1.8-0.7-2.5-0.7-4.6,0.1c-2.1,0.8-11.8,4.6-13.6,5.2 c-0.9,0.3-1.2,0.7-1.2,1v2.4c0,0.3,0.4,0.7,1.3,1.1c0.1,0,0.1,0.1,0.2,0.1c0.2,0.1,0.7,0.3,1.1,0.5c1.2,0.5,3,1.3,4.8,2.1 c0.9,0.3,1.8,0.8,2.7,1.1c2,0.9,3.6,1.5,4.2,1.8c1.6,0.8,2.6,0.8,4.6-0.3c0.8-0.3,2.3-1.1,4.2-1.8c0.9-0.3,1.7-0.8,2.6-1.1 c1.8-0.9,3.8-1.6,5-2.2c0.3-0.2,0.7-0.3,0.9-0.4c0.1-0.1,0.3-0.1,0.4-0.1c0.9-0.4,1.5-0.9,1.5-1.2s0-2.3,0-2.3 C55.6,99,55,98.7,54.2,98.4z M36.5,94.7l2.6,1.1l2.5-0.9l-0.7,1.6l2.6,1l-3.3,0.3l-0.8,1.8l-1.1-1.8l-0.1-0.1l-3.8-0.3l2.8-1 L36.5,94.7z M31.2,101c-0.4,0-0.9,0-1.3-0.1c-1.3-0.2-2.3-0.7-2.3-1.3c0-0.8,1.6-1.3,3.6-1.3c1.4,0,2.7,0.3,3.3,0.9 c0.1,0.2,0.2,0.3,0.2,0.5C34.5,100.5,33,101.1,31.2,101z M40.6,102.8l-1.3,2l-3.3-1.3l-2.2-0.9l7.7-1.2L40.6,102.8z M47.8,100.7 l-0.9,0.3l-0.4,0.1l-4.1-1.5l1.3-0.5l3.1-1.3l4,1.6L47.8,100.7z"/><path class="st0" d="M336.1 68.6H398.40000000000003V138.7H336.1z"/><linearGradient id="SVGID_5_" gradientUnits="userSpaceOnUse" x1="3258.898" y1="58.05" x2="3309.436" y2="58.05" gradientTransform="rotate(180 1828.99 102)"><stop offset="0" stop-color="#005AFF" stop-opacity="0"/><stop offset="1" stop-color="#005AFF" stop-opacity=".3"/></linearGradient><path class="st5" d="M349.1 139.3H398.90000000000003V152.60000000000002H349.1z"/><linearGradient id="SVGID_6_" gradientUnits="userSpaceOnUse" x1="3287.553" y1="97.8" x2="3309.091" y2="97.8" gradientTransform="rotate(180 1828.99 102)"><stop offset="0" stop-color="#005AFF" stop-opacity="0"/><stop offset="1" stop-color="#005AFF" stop-opacity=".3"/></linearGradient><path class="st6" d="M349.1 73.4H370.3V139H349.1z"/><linearGradient id="SVGID_7_" gradientUnits="userSpaceOnUse" x1="361.031" y1="113" x2="361.031" y2="89.367"><stop offset="0" stop-color="#0080FF"/><stop offset="1" stop-color="#0069FF" stop-opacity=".3"/></linearGradient><path class="st7" d="M344.8,106.1c0,0-1.2,9.6,9.8,9.6c0,0,9,0.5,13.7-7c3.3,1,7.8-0.2,9-2.5c0,0-1.9-1.6-6.1-1.8 c0,0,0-4.3-2.7-6.6c0,0-1.8,2.4-1.6,7.6c-0.4,0.2-1,0.3-1.5,0.4h-20.6L344.8,106.1L344.8,106.1z"/><linearGradient id="SVGID_8_" gradientUnits="userSpaceOnUse" x1="348.65" y1="113" x2="348.65" y2="89.367"><stop offset="0" stop-color="#0080FF"/><stop offset="1" stop-color="#0069FF" stop-opacity=".3"/></linearGradient><path class="st8" d="M346.5 99.5H350.8V103.8H346.5z"/><linearGradient id="SVGID_9_" gradientUnits="userSpaceOnUse" x1="355.45" y1="113" x2="355.45" y2="89.367"><stop offset="0" stop-color="#0080FF"/><stop offset="1" stop-color="#0069FF" stop-opacity=".3"/></linearGradient><path class="st9" d="M353.3 99.5H357.6V103.8H353.3z"/><linearGradient id="SVGID_10_" gradientUnits="userSpaceOnUse" x1="355.5" y1="113" x2="355.5" y2="89.367"><stop offset="0" stop-color="#0080FF"/><stop offset="1" stop-color="#0069FF" stop-opacity=".3"/></linearGradient><path class="st10" d="M353.1 91.5H357.90000000000003V96.3H353.1z"/><linearGradient id="SVGID_11_" gradientUnits="userSpaceOnUse" x1="362.25" y1="113" x2="362.25" y2="89.367"><stop offset="0" stop-color="#0080FF"/><stop offset="1" stop-color="#0069FF" stop-opacity=".3"/></linearGradient><path class="st11" d="M360.1 99.5H364.40000000000003V103.8H360.1z"/><path class="st12" d="M49.4 51.1H127.5V151.3H49.4z"/><linearGradient id="SVGID_12_" gradientUnits="userSpaceOnUse" x1="46.637" y1="44.1" x2="126.137" y2="44.1" gradientTransform="matrix(1 0 0 -1 0 204)"><stop offset="0" stop-color="#005AFF" stop-opacity="0"/><stop offset="1" stop-color="#005AFF" stop-opacity=".3"/></linearGradient><path class="st13" d="M46.8 167.5L125.2 167.5 125.2 152.3 46.8 152.3z"/><linearGradient id="SVGID_13_" gradientUnits="userSpaceOnUse" x1="3306.658" y1="44.1" x2="3381.357" y2="44.1" gradientTransform="rotate(180 1828.99 102)"><stop offset="0" stop-color="#005AFF" stop-opacity="0"/><stop offset="1" stop-color="#005AFF" stop-opacity=".3"/></linearGradient><path class="st14" d="M277.5 152.3H351.2V167.5H277.5z"/><path class="st12" d="M273.8 51.1H349.4V151.3H273.8z"/><path class="st15" d="M97 32.7L97 32.7"/><path class="st16" d="M97 27.4L97 3.6"/><path class="st15" d="M97 1L97 1"/><path class="st17" d="M102.2 1L135.6 1"/><path class="st15" d="M138.2 1L138.2 1"/><g><path class="st15" d="M262.7 1L262.7 1"/><path class="st17" d="M267.8 1L301.3 1"/><path class="st15" d="M303.8 1L303.8 1"/><path class="st16" d="M303.8 6.3L303.8 30.1"/><path class="st15" d="M303.8 32.7L303.8 32.7"/></g><g><path class="st15" d="M303.8 168.9L303.8 168.9"/><path class="st16" d="M303.8 174.2L303.8 198"/><path class="st15" d="M303.8 200.6L303.8 200.6"/><path class="st17" d="M298.7 200.6L265.2 200.6"/><path class="st15" d="M262.7 200.6L262.7 200.6"/></g><g><path class="st15" d="M138.2 200.6L138.2 200.6"/><path class="st17" d="M133.1 200.6L99.6 200.6"/><path class="st15" d="M97 200.6L97 200.6"/><path class="st16" d="M97 195.4L97 171.6"/><path class="st15" d="M97 168.9L97 168.9"/></g><linearGradient id="SVGID_14_" gradientUnits="userSpaceOnUse" x1="3358.628" y1="98.8" x2="3380.258" y2="98.8" gradientTransform="rotate(180 1828.99 102)"><stop offset="0" stop-color="#005AFF" stop-opacity="0"/><stop offset="1" stop-color="#005AFF" stop-opacity=".3"/></linearGradient><path class="st18" d="M278 59.1H299.3V151.3H278z"/><linearGradient id="SVGID_15_" gradientUnits="userSpaceOnUse" x1="-318.115" y1="-7742.355" x2="-294.63" y2="-7742.355" gradientTransform="translate(419.644 7847.556)"><stop offset="0" stop-color="#005AFF" stop-opacity="0"/><stop offset="1" stop-color="#005AFF" stop-opacity=".3"/></linearGradient><path class="st19" d="M101.6 59.1L124.7 59.1 124.7 151.3 101.6 151.3z"/><g><linearGradient id="SVGID_16_" gradientUnits="userSpaceOnUse" x1="277.25" y1="119.5" x2="277.25" y2="76.974"><stop offset="0" stop-color="#0080FF"/><stop offset="1" stop-color="#0069FF" stop-opacity=".3"/></linearGradient><path class="st20" d="M271.1,101.3c0,8.6,5,16.2,12.3,19.7L273,92.4C271.7,95.1,271.1,98.1,271.1,101.3z"/><linearGradient id="SVGID_17_" gradientUnits="userSpaceOnUse" x1="292.15" y1="119.5" x2="292.15" y2="76.974"><stop offset="0" stop-color="#0080FF"/><stop offset="1" stop-color="#0069FF" stop-opacity=".3"/></linearGradient><path class="st21" d="M307.1,94.6c0.2-1.4-1.4-0.2-2.6-0.6c-1.8-0.5-2.6-2.4-2.4-4.4c0.3-3,2.1-3.9,4.7-3.5 c1.4,0.2,2.1,2.3,2.9,0.9c0-0.2-1.2-1.2-2-1.8c-3.9-3.6-9.1-5.7-14.8-5.7c-7.6,0-14.4,3.9-18.3,9.8c0.5,0,1.1,0,1.4,0 c2.3,0,5.7-0.3,5.7-0.3c1.2,0,1.4,1.7,0.2,1.8c0,0-1.2,0.2-2.6,0.2l6.7,20l4.8-14.4l-2.1-5.6c-1.2,0-2.3-0.2-2.3-0.2 c-1.2,0-1.1-1.8,0.2-1.8c0,0,3.6,0.3,5.7,0.3c2.3,0,5.7-0.3,5.7-0.3c1.2,0,1.4,1.7,0.2,1.8c0,0-1.2,0.2-2.6,0.2l6.8,20.1l2.1-7.3 C305.9,101,307,96.4,307.1,94.6z"/><linearGradient id="SVGID_18_" gradientUnits="userSpaceOnUse" x1="293.65" y1="119.5" x2="293.65" y2="76.974"><stop offset="0" stop-color="#0080FF"/><stop offset="1" stop-color="#0069FF" stop-opacity=".3"/></linearGradient><path class="st22" d="M293.4,103.1l-6.5,19.1c2,0.6,4.1,0.9,6.2,0.9c2.6,0,5-0.5,7.3-1.2c0-0.2-0.2-0.2-0.2-0.3L293.4,103.1z"/><linearGradient id="SVGID_19_" gradientUnits="userSpaceOnUse" x1="309.35" y1="119.5" x2="309.35" y2="76.974"><stop offset="0" stop-color="#0080FF"/><stop offset="1" stop-color="#0069FF" stop-opacity=".3"/></linearGradient><path class="st23" d="M312.7,92.5c0.2,0.8-8.8,27.7-8.8,27.7c6.5-3.8,10.9-10.9,10.9-18.9C314.8,97.5,314.1,95.5,312.7,92.5z"/></g><g><linearGradient id="SVGID_20_" gradientUnits="userSpaceOnUse" x1="105.35" y1="124" x2="105.35" y2="74.99"><stop offset="0" stop-color="#0080FF"/><stop offset="1" stop-color="#0069FF" stop-opacity=".3"/></linearGradient><path class="st24" d="M105.6,126.8c-0.6,0-1.4-0.2-1.8-0.5l-6.2-3.5c-0.9-0.5-0.5-0.6-0.2-0.8c1.2-0.5,1.4-0.5,2.8-1.2 c0.2,0,0.3,0,0.5,0l4.6,2.8c0.2,0.2,0.5,0.2,0.6,0l18-10.3c0.2-0.2,0.3-0.3,0.3-0.5v-21c0-0.2-0.2-0.5-0.3-0.5l-18-10.3 c-0.2-0.2-0.5-0.2-0.6,0l-18,10.3c-0.2,0.2-0.3,0.3-0.3,0.5v20.8c0,0.2,0.2,0.5,0.3,0.5l3.7,2.2c2.6,1.4,4.3-0.3,4.3-1.8V93.1 c0-0.3,0.3-0.5,0.5-0.5h2.3c0.3,0,0.5,0.2,0.5,0.5v20.5c0,3.5-2,5.5-5.4,5.5c-1.1,0-1.8,0-4.2-1.1l-4.3-2.5 c-1.1-0.8-1.1-1.5-1.1-2.8V91.8c0-1.4,0.8-2.6,1.8-3.2l18-10.3c1.1-0.6,2.6-0.6,3.9,0l18,10.3c1.2,0.6,1.8,2,1.8,3.2v20.8 c0,1.4-0.8,2.6-1.8,3.2l-18,10.3C106.8,126.7,106.2,126.8,105.6,126.8z"/><linearGradient id="SVGID_21_" gradientUnits="userSpaceOnUse" x1="110.911" y1="124" x2="110.911" y2="74.99"><stop offset="0" stop-color="#0080FF"/><stop offset="1" stop-color="#0069FF" stop-opacity=".3"/></linearGradient><path class="st25" d="M111.2,113.7c-6.6,0-8-3.7-8-6.8c0-0.3,0.2-0.5,0.5-0.5h2c0.2,0,0.5,0.2,0.5,0.5c0.3,2.5,1.2,3.5,5.2,3.5 c3.2,0,4.6-1.7,4.6-3.7c0-1.2-0.5-2-5.4-2.6c-4.2-0.5-6.8-1.5-6.8-5.5c0-3.7,2.6-6.9,6.9-6.9c4.9,0,7.2,2.2,7.5,6.5 c0,0.2,0,0.3-0.2,0.5s-0.2,0.2-0.3,0.2h-2c-0.2,0-0.5-0.2-0.5-0.5c-0.5-2.5-1.5-3.4-4.8-3.4c-3.5,0-3.9,2.6-3.9,3.7 c0,1.4,0.5,1.7,5.2,2.5c4.6,0.8,6.9,1.8,6.9,5.7C118.9,110.6,116.1,113.7,111.2,113.7z"/></g><linearGradient id="SVGID_22_" gradientUnits="userSpaceOnUse" x1="201" y1="170" x2="201" y2="36.6" gradientTransform="matrix(1 0 0 -1 0 204)"><stop offset="0" stop-color="#00D688"/><stop offset="1" stop-color="#0080FF"/></linearGradient><path class="st26" d="M125.5 35.5H276.5V165.9H125.5z"/><g><linearGradient id="SVGID_23_" gradientUnits="userSpaceOnUse" x1="218.1" y1="123.5" x2="218.1" y2="73.909"><stop offset="0" stop-color="#0080FF"/><stop offset="1" stop-color="#0069FF" stop-opacity=".3"/></linearGradient><path class="st27" d="M231.8 91.8L221.9 77.6 204.4 77.6 212.5 91.8z"/><linearGradient id="SVGID_24_" gradientUnits="userSpaceOnUse" x1="217.9" y1="123.5" x2="217.9" y2="73.909"><stop offset="0" stop-color="#0080FF"/><stop offset="1" stop-color="#0069FF" stop-opacity=".3"/></linearGradient><path class="st28" d="M204 130L231.8 95.9 214.2 95.9z"/><linearGradient id="SVGID_25_" gradientUnits="userSpaceOnUse" x1="200.55" y1="123.5" x2="200.55" y2="73.909"><stop offset="0" stop-color="#0080FF"/><stop offset="1" stop-color="#0069FF" stop-opacity=".3"/></linearGradient><path class="st29" d="M200.5 131.7L209.7 95.9 191.4 95.9z"/><linearGradient id="SVGID_26_" gradientUnits="userSpaceOnUse" x1="183.4" y1="123.5" x2="183.4" y2="73.909"><stop offset="0" stop-color="#0080FF"/><stop offset="1" stop-color="#0069FF" stop-opacity=".3"/></linearGradient><path class="st30" d="M196.9 77.6L179.8 77.6 169.9 91.8 188.8 91.8z"/><linearGradient id="SVGID_27_" gradientUnits="userSpaceOnUse" x1="200.65" y1="123.5" x2="200.65" y2="73.909"><stop offset="0" stop-color="#0080FF"/><stop offset="1" stop-color="#0069FF" stop-opacity=".3"/></linearGradient><path class="st31" d="M200.5 78.2L193.4 91.8 207.9 91.8z"/><linearGradient id="SVGID_28_" gradientUnits="userSpaceOnUse" x1="183.7" y1="123.5" x2="183.7" y2="73.909"><stop offset="0" stop-color="#0080FF"/><stop offset="1" stop-color="#0069FF" stop-opacity=".3"/></linearGradient><path class="st32" d="M170.1 95.9L197.3 130.5 187.1 95.9z"/></g></svg>