<svg id="Layer_1" xmlns="http://www.w3.org/2000/svg" viewBox="0 0 286.9 374.9"><style>.st0{stroke:#0072ff;stroke-width:2}.st0,.st1,.st2{fill:none;stroke-linecap:round;stroke-miterlimit:10}.st1{stroke:#0072ff;stroke-width:2;stroke-dasharray:0,4.9934}.st2{stroke-dasharray:0,4.9974}.st2,.st3,.st4{stroke:#0072ff;stroke-width:2}.st3{fill:none;stroke-linecap:round;stroke-miterlimit:10;stroke-dasharray:0,5.0157}.st4{stroke-dasharray:0,5.0371}.st4,.st5,.st6{fill:none;stroke-linecap:round;stroke-miterlimit:10}.st5{stroke-dasharray:0,4.9699;stroke:#0072ff;stroke-width:2}.st6{stroke:url(#SVGID_1_);stroke-width:2.5}.st7{fill:url(#SVGID_2_)}.st8{fill:url(#SVGID_3_)}.st9{fill:#0072ff}.st10{fill:url(#SVGID_4_)}</style><path class="st1" d="M99 30.7c7.2-3 24.4-5.1 44.5-5.1 22.6 0 41.5 2.7 46.7 6.3"/><path class="st2" d="M50.7 75.5c9.6-8.6 47.5-15 92.7-15 48.5 0 88.6 7.4 94.4 16.9"/><path class="st3" d="M11.4 133.7c11-12.2 65.9-21.4 132.1-21.4 69.8 0 127.2 10.3 133.5 23.5"/><path class="st4" d="M3.1 202.3c11.6-12.2 70-21.4 140.4-21.4 74.2 0 135.1 10.3 141.8 23.5"/><path class="st5" d="M33.9 264.4c10.6-9.3 55.6-16.3 109.5-16.3 57.5 0 104.8 7.9 111.2 18.1"/><linearGradient id="SVGID_1_" gradientUnits="userSpaceOnUse" x1="143.75" y1="62.659" x2="143.75" y2="375.617" gradientTransform="matrix(1 0 0 -1 0 375.617)"><stop offset=".151" stop-color="#0080FF"/><stop offset="1" stop-color="#00D688"/></linearGradient><path class="st6" d="M22 189.9C22 98.7 143.8 1.6 143.8 1.6s121.7 100.2 121.7 188.3c0 67.3-54.5 121.8-121.8 121.8S22 257.1 22 189.9z"/><linearGradient id="SVGID_2_" gradientUnits="userSpaceOnUse" x1="28.3" y1="217.359" x2="258.3" y2="217.359" gradientTransform="matrix(1 0 0 -1 0 375.617)"><stop offset="0" stop-color="#FFF" stop-opacity=".2"/><stop offset=".354" stop-color="#FFF" stop-opacity=".768"/><stop offset=".738" stop-color="#FFF"/><stop offset="1" stop-color="#FFF"/></linearGradient><path class="st7" d="M28.3 189.7c0-86.2 115-177.9 115-177.9s115 94.7 115 177.9c0 63.5-51.5 115-115 115s-115-51.5-115-115z"/><linearGradient id="SVGID_3_" gradientUnits="userSpaceOnUse" x1="143.3" y1="73.484" x2="143.3" y2="291.493" gradientTransform="matrix(1 0 0 -1 0 375.617)"><stop offset="0" stop-color="#0069FF" stop-opacity=".5"/><stop offset=".215" stop-color="#0069FF" stop-opacity=".3"/><stop offset="1" stop-color="#0069FF" stop-opacity=".05"/></linearGradient><path class="st8" d="M28.3 189.7c0-86.2 115-177.9 115-177.9s115 94.7 115 177.9c0 63.5-51.5 115-115 115s-115-51.5-115-115z"/><circle class="st9" cx="192.9" cy="95.9" r="3.1"/><circle class="st9" cx="142.5" cy="42.4" r="3.1"/><circle class="st9" cx="203.2" cy="230" r="3.1"/><circle class="st9" cx="149.6" cy="289.4" r="3.1"/><circle class="st9" cx="73.9" cy="160.4" r="3.1"/><linearGradient id="SVGID_4_" gradientUnits="userSpaceOnUse" x1="68.7" y1="15.409" x2="220.1" y2="15.409" gradientTransform="matrix(1 0 0 -1 0 375.617)"><stop offset="0" stop-color="#005DFF" stop-opacity=".15"/><stop offset=".436" stop-color="#0068FF" stop-opacity=".085"/><stop offset="1" stop-color="#0072FF" stop-opacity="0"/></linearGradient><ellipse class="st10" cx="144.4" cy="360.2" rx="75.7" ry="14.7"/><path class="st1" d="M187.9 37c-7.2 3-24.4 5.1-44.5 5.1-22.6 0-41.5-2.7-46.7-6.3"/><path class="st2" d="M236.2 84c-9.6 8.6-47.5 15-92.7 15-48.5 0-88.6-7.4-94.4-16.9"/><path class="st3" d="M275.5 142.7c-11 12.2-65.9 21.4-132.1 21.4-69.8 0-127.2-10.3-133.5-23.5"/><path class="st4" d="M283.8 211.2c-11.6 12.2-70 21.4-140.4 21.4-74.2 0-135.1-10.3-141.8-23.5"/><path class="st5" d="M253 272.8c-10.6 9.3-55.6 16.3-109.5 16.3-57.5 0-104.8-7.9-111.2-18.1"/></svg>