<svg id="Layer_1" xmlns="http://www.w3.org/2000/svg" xmlns:xlink="http://www.w3.org/1999/xlink" viewBox="0 0 2000 500"><style>.st0,.st1,.st2,.st3{clip-path:url(#SVGID_2_)}.st0{opacity:.75;stroke:#fff;stroke-width:1.5;stroke-linecap:round;stroke-miterlimit:10;stroke-dasharray:0,5;fill:none}.st1{fill:url(#SVGID_3_)}.st2{fill:url(#SVGID_4_)}.st3{opacity:.3;fill:none;stroke:#fff;stroke-linecap:round;stroke-miterlimit:10}.st4{fill:#fff}.st4,.st5,.st6,.st7{clip-path:url(#SVGID_2_)}.st5{fill:url(#SVGID_5_)}.st6{fill:url(#SVGID_6_)}.st7{fill:none;stroke:#fff;stroke-linecap:round;stroke-miterlimit:10}</style><defs><path id="SVGID_1_" d="M0 0h2000v500H0z"/></defs><clipPath id="SVGID_2_"><use xlink:href="#SVGID_1_" overflow="visible"/></clipPath><path class="st0" d="M1224.2 420.1c13-16.5 27.6-31.5 48.6-36.9 36.3-9.3 52.3 13.8 83.5 13.8 73.4 0 93.7-128.5 162.9-128.5C1569 268.5 1567 141 1636 116c61.3-22.2 63-52 129-116M899.2 440c21.9 17.7 37.4 39.8 61.4 45.3 43.9 10.1 79.3-30.4 115.6-30.4s41.3 22.1 77.6 22.1c32.8 0 49.5-30.3 70.4-56.9"/><path class="st0" d="M597.7 503.4c12.4-20.8 20.4-46.1 36.3-46.1 27.8 0 27 21.4 60.8 21.4 44.7 0 70.1-62.2 140.5-62.2 28.6 0 48 10.6 64 23.5m-514.4 60c26.8-28.4 42.8-83.5 69.8-83.5 24 0 43.1 52.5 67.2 86.3"/><linearGradient id="SVGID_3_" gradientUnits="userSpaceOnUse" x1="838.494" y1="251.836" x2="1.8" y2="251.836"><stop offset="0" stop-color="#FFF" stop-opacity=".2"/><stop offset="1" stop-color="#FFF" stop-opacity="0"/></linearGradient><path class="st1" d="M366.3 209.4c60.5 11.3 65 90.8 114.8 90.8 69.2 0 89.4 112.7 162.9 112.7 31.2 0 34.6-15.5 76.8-15.5 57.4 0 72.6 57 125.7 57 36.3 0 41.3-19 77.6-19s54.8 22.5 97.9 22.5c43 0 52.3-28.9 118.1-28.9 86.9 0 120.7 69 165.4 69 33.8 0 32.9-21.1 60.8-21.1 27 0 31.2 26.1 73.4 26.1 45.8 0 68.3-47.9 103.8-47.9 23.1 0 39 25.9 60.4 44.8 12.2 10.8-1604.6 0-1604.6 0l1-500 143.2-1.1C180.2 13.8 209 35.5 239 63c60 55 39 130 127.3 146.4z"/><linearGradient id="SVGID_4_" gradientUnits="userSpaceOnUse" x1="677.071" y1="271.658" x2="1.879" y2="271.658"><stop offset="0" stop-color="#FFF" stop-opacity=".15"/><stop offset="1" stop-color="#FFF" stop-opacity="0"/></linearGradient><path class="st2" d="M366.3 255.4c55.1 8.4 65 90.8 114.8 90.8 69.2 0 89.4 100.7 162.9 100.7 31.2 0 34.6-12 76.8-12 57.4 0 72.6 65.5 125.7 65.5 36.3 0 41.3-19 77.6-19s54.8 22.5 97.9 22.5c43 0-1022.7-4-1022.7-4L-1 42c85-11 135.7 12.9 196 51 65 41 76 148 171.3 162.4z"/><path class="st0" d="M774.7 418.5c-12.6-15.8-26.9-30.1-47.3-35.2-36.3-9.3-52.3 13.8-83.5 13.8-73.4 0-93.7-128.5-162.9-128.5-49.8 0-59.8-100.3-114.8-111.5-55-11.3-37.7-104.5-112.4-157"/><path class="st3" d="M1603.7 500c-21.3-18.9-37.3-44.8-60.4-44.8-35.4 0-57.9 47.9-103.8 47.9-42.2 0-46.4-26.1-73.4-26.1-27.8 0-27 21.1-60.8 21.1-33.5 0-60.9-38.7-109-58.2"/><path class="st0" d="M1209.1 430.8c-13.6-4.4-28.8-7.1-46.1-7.1-65.8 0-75.1 28.9-118.1 28.9s-61.6-22.5-97.9-22.5c-13.2 0-22.2 2.5-30.1 5.7m717.8 65.2c-25.6-18.7-42.5-51.3-68.4-51.3-35.4 0-57.9 47.9-103.8 47.9-42.2 0-46.4-26.1-73.4-26.1-27.8 0-27 21.1-60.8 21.1-35.8 0-64.6-44.3-119.3-61.9"/><circle class="st4" cx="837.3" cy="430.7" r="3"/><circle class="st4" cx="1285.3" cy="397.7" r="3"/><circle class="st4" cx="456.7" cy="455.3" r="3"/><circle class="st4" cx="1518.3" cy="300" r="3"/><circle class="st4" cx="815.4" cy="436" r="2.1"/><ellipse class="st4" cx="634" cy="477" rx="2.1" ry="1.7"/><circle class="st4" cx="1484" cy="311.3" r="2.1"/><circle class="st4" cx="484" cy="464" r="2.1"/><linearGradient id="SVGID_5_" gradientUnits="userSpaceOnUse" x1="2003.063" y1="250.195" x2="1321.386" y2="250.195"><stop offset="0" stop-color="#FFF" stop-opacity="0"/><stop offset="1" stop-color="#FFF" stop-opacity=".3"/></linearGradient><path class="st5" d="M1633.9 209.4c-56.3 0-65 90.8-114.8 90.8-69.2 0-89.4 112.7-162.9 112.7-31.2 0-34.6-15.5-76.8-15.5-57.4 0-72.6 57-125.7 57-36.3 0-41.3-19-77.6-19s-54.8 22.5-97.9 22.5S925.9 429 860.1 429c-86.9 0-120.7 69-165.4 69-33.8 0-32.9-21.1-60.8-21.1-27 0-31.2 26.1-73.4 26.1-45.8 0-68.3-47.9-103.8-47.9-23.1 0-39 25.9-60.4 44.8h1606.6l-1.5-501.3-148.3-1.3C1819 9 1789.6 29.6 1765 64c-24 33.6-75.3 145.4-131.1 145.4z"/><linearGradient id="SVGID_6_" gradientUnits="userSpaceOnUse" x1="2001.563" y1="253" x2="1153.522" y2="253"><stop offset="0" stop-color="#FFF" stop-opacity="0"/><stop offset="1" stop-color="#FFF" stop-opacity=".3"/></linearGradient><path class="st6" d="M1633.9 255.4c-56.7 5.1-65 90.8-114.8 90.8-69.2 0-89.4 112.7-162.9 112.7-31.2 0-34.6-15.5-76.8-15.5-57.4 0-72.6 57-125.7 57-36.3 0-41.3-19-77.6-19s-54.8 22.5-97.9 22.5S925.9 475 860.1 475c-36.2 0-63.1 11.9-85.5 25.9l1226.9-1L2000 2c-31.4 0-102 3-193.7 90-41.3 39.2-90.3 156-172.4 163.4z"/><path class="st0" d="M1421.3 501c41.4-30.9 65.7-97 118.7-97 49.8 0 58.7-89.1 114.8-90.8C1725 311 1772.5 230.3 1821 158c41.3-61.6 93.9-127.7 167.6-160.1"/><circle class="st4" cx="477" cy="300.7" r="3"/><circle class="st4" cx="522.6" cy="316" r="2.1"/><circle class="st4" cx="717" cy="398" r="3"/><path class="st7" d="M803.7 440.2c-24.9-16.9-44.4-42.8-83-42.8-42.2 0-45.6 15.5-76.8 15.5-73.4 0-93.7-112.7-162.9-112.7-49.8 0-54-82.3-114.8-90.8C279.7 197.3 297 110 231 56c-32-26.2-57-43.9-86.1-56"/><path class="st3" d="M911.7 436.3c-25.8 3.6-33.6 18.2-65.4 18.2-17.3 0-30.6-6.1-42.7-14.3"/><path class="st7" d="M1000 455.9c-28.7-5.6-46.5-20.5-76-20.5-4.5 0-8.6.3-12.3.8"/><path class="st3" d="M1091.1 436.2c-26.3 8.5-40 21.8-69.2 21.8-8.1 0-15.3-.8-21.9-2.1"/><path class="st7" d="M1196.4 440c-16.1-6.5-34.6-10.8-56.4-10.8-21.2 0-36.5 3-49 7"/><path class="st7" d="M396.5 500c21.3-18.9 37.3-44.8 60.4-44.8 35.4 0 57.9 47.9 103.8 47.9 42.2 0 46.4-26.1 73.4-26.1 27.8 0 27 21.1 60.8 21.1 44.7 0 78.5-69 165.4-69 65.8 0 75.1 28.9 118.1 28.9s61.6-22.5 97.9-22.5c36.3 0 41.3 19 77.6 19 53.2 0 68.3-57 125.7-57 42.2 0 45.6 15.5 76.8 15.5 73.4 0 93.7-112.7 162.9-112.7 49.8 0 58.6-90.8 114.8-90.8 50.4 0 93.3-83.8 125.7-136.8 21.8-35.5 51-59.7 89.4-73.8"/><circle class="st4" cx="234" cy="59.3" r="3"/><circle class="st4" cx="262.3" cy="92" r="2.1"/><circle class="st4" cx="1745.7" cy="96" r="3"/><circle class="st4" cx="1817.7" cy="14" r="2.1"/></svg>