<svg id="Layer_1" xmlns="http://www.w3.org/2000/svg" xmlns:xlink="http://www.w3.org/1999/xlink" viewBox="0 0 342.4 374.9"><style>.st0{stroke:url(#SVGID_1_)}.st0,.st1,.st2{fill:none;stroke-width:3;stroke-linecap:round;stroke-miterlimit:10}.st1{stroke-dasharray:0,7.9626;stroke:url(#SVGID_2_)}.st2{stroke:url(#SVGID_3_)}.st3{fill:url(#SVGID_4_)}.st4{fill:#fff}.st5{fill:none;stroke:url(#SVGID_5_);stroke-width:2.5;stroke-linecap:round;stroke-miterlimit:10}.st6{fill:url(#SVGID_6_)}.st7{opacity:.5;fill:url(#SVGID_7_);enable-background:new}.st8{fill:url(#SVGID_8_)}.st9{fill:url(#SVGID_9_)}.st10{fill:url(#SVGID_10_)}.st11{fill:url(#SVGID_11_)}.st12{fill:url(#SVGID_12_)}.st13{fill:url(#SVGID_13_)}.st14{stroke:url(#SVGID_14_)}.st14,.st15,.st16{fill:none;stroke-width:3;stroke-linecap:round;stroke-miterlimit:10}.st15{stroke-dasharray:0,7.9828;stroke:url(#SVGID_15_)}.st16{stroke:url(#SVGID_16_)}.st17{opacity:.16;fill:#0080ff;enable-background:new}.st18{clip-path:url(#SVGID_18_);fill:url(#XMLID_4_)}.st19{clip-path:url(#SVGID_20_);fill:url(#XMLID_5_)}.st20{clip-path:url(#SVGID_22_);fill:url(#XMLID_6_)}.st21{clip-path:url(#SVGID_24_);fill:url(#XMLID_10_)}.st22{fill:none}</style><linearGradient id="SVGID_1_" gradientUnits="userSpaceOnUse" x1="-.009" y1="188.809" x2="342.409" y2="188.809" gradientTransform="matrix(1 0 0 -1 0 380.617)"><stop offset="0" stop-color="#0080FF"/><stop offset="1" stop-color="#00D688"/></linearGradient><linearGradient id="SVGID_2_" gradientUnits="userSpaceOnUse" x1="-.009" y1="203.659" x2="342.409" y2="203.659" gradientTransform="matrix(1 0 0 -1 0 380.617)"><stop offset="0" stop-color="#0080FF"/><stop offset="1" stop-color="#00D688"/></linearGradient><path class="st1" d="M336.1 185.8c-18-11.6-85-20.2-164.9-20.2-85.6 0-156.3 9.9-168 22.7"/><linearGradient id="SVGID_3_" gradientUnits="userSpaceOnUse" x1="-.009" y1="188.809" x2="342.409" y2="188.809" gradientTransform="matrix(1 0 0 -1 0 380.617)"><stop offset="0" stop-color="#0080FF"/><stop offset="1" stop-color="#00D688"/></linearGradient><linearGradient id="SVGID_4_" gradientUnits="userSpaceOnUse" x1="171.2" y1="199.909" x2="171.2" y2="50.109" gradientTransform="matrix(1 0 0 -1 0 380.617)"><stop offset="0" stop-color="#0069FF" stop-opacity=".3"/><stop offset="1" stop-color="#0069FF" stop-opacity="0"/></linearGradient><path class="st3" d="M1.5 206.9c.8-14.5 76.5-26.2 169.7-26.2s169 11.7 169.7 26.2v123.6H1.5V206.9z"/><path class="st4" d="M49.9 189.9C49.9 98.7 171.7 1.6 171.7 1.6s121.7 100.2 121.7 188.3c0 67.3-54.5 121.8-121.8 121.8S49.9 257.1 49.9 189.9z"/><linearGradient id="SVGID_5_" gradientUnits="userSpaceOnUse" x1="171.65" y1="27.659" x2="171.65" y2="340.617" gradientTransform="matrix(1 0 0 -1 0 340.617)"><stop offset=".151" stop-color="#0080FF"/><stop offset="1" stop-color="#00D688"/></linearGradient><path class="st5" d="M49.9 189.9C49.9 98.7 171.7 1.6 171.7 1.6s121.7 100.2 121.7 188.3c0 67.3-54.5 121.8-121.8 121.8S49.9 257.1 49.9 189.9z"/><linearGradient id="SVGID_6_" gradientUnits="userSpaceOnUse" x1="56.2" y1="182.359" x2="286.2" y2="182.359" gradientTransform="matrix(1 0 0 -1 0 340.617)"><stop offset="0" stop-color="#FFF" stop-opacity=".2"/><stop offset=".06" stop-color="#FFF" stop-opacity=".248"/><stop offset="1" stop-color="#FFF"/></linearGradient><path class="st6" d="M56.2 189.7c0-86.2 115-177.9 115-177.9s115 94.7 115 177.9c0 63.5-51.5 115-115 115s-115-51.5-115-115z"/><linearGradient id="SVGID_7_" gradientUnits="userSpaceOnUse" x1="171.2" y1="38.434" x2="171.2" y2="256.443" gradientTransform="matrix(1 0 0 -1 0 340.617)"><stop offset="0" stop-color="#0069FF" stop-opacity=".5"/><stop offset=".215" stop-color="#0069FF" stop-opacity=".3"/><stop offset="1" stop-color="#0069FF" stop-opacity=".05"/></linearGradient><path class="st7" d="M56.2 189.7c0-86.2 115-177.9 115-177.9s115 94.7 115 177.9c0 63.5-51.5 115-115 115s-115-51.5-115-115z"/><linearGradient id="SVGID_8_" gradientUnits="userSpaceOnUse" x1="96.6" y1="-19.591" x2="248" y2="-19.591" gradientTransform="matrix(1 0 0 -1 0 340.617)"><stop offset="0" stop-color="#005DFF" stop-opacity=".15"/><stop offset=".436" stop-color="#0068FF" stop-opacity=".085"/><stop offset="1" stop-color="#0072FF" stop-opacity="0"/></linearGradient><ellipse class="st8" cx="172.3" cy="360.2" rx="75.7" ry="14.7"/><linearGradient id="SVGID_9_" gradientUnits="userSpaceOnUse" x1="69.749" y1="99.059" x2="223.475" y2="99.059" gradientTransform="matrix(1 0 0 -1 0 340.617)"><stop offset="0" stop-color="#0069FF" stop-opacity=".5"/><stop offset=".215" stop-color="#0069FF" stop-opacity=".3"/><stop offset="1" stop-color="#0069FF" stop-opacity=".05"/></linearGradient><path class="st9" d="M171.2 205.1c-56.3 0-102.1-5.7-103.2-12.8 2.5 54.8 47.7 98.5 103.2 98.5s100.7-43.7 103.2-98.5c-1.1 7.1-46.9 12.8-103.2 12.8z"/><linearGradient id="SVGID_10_" gradientUnits="userSpaceOnUse" x1="274.4" y1="188.509" x2="274.4" y2="188.509" gradientTransform="matrix(1 0 0 -1 0 380.617)"><stop offset=".151" stop-color="#0080FF"/><stop offset="1" stop-color="#00D688"/></linearGradient><linearGradient id="SVGID_11_" gradientUnits="userSpaceOnUse" x1="68" y1="188.609" x2="68" y2="188.609" gradientTransform="matrix(1 0 0 -1 0 380.617)"><stop offset=".151" stop-color="#0080FF"/><stop offset="1" stop-color="#00D688"/></linearGradient><path class="st11" d="M68 192v-.2.2z"/><linearGradient id="SVGID_12_" gradientUnits="userSpaceOnUse" x1="69.749" y1="148.559" x2="223.475" y2="148.559" gradientTransform="matrix(1 0 0 -1 0 340.617)"><stop offset="0" stop-color="#0069FF" stop-opacity=".5"/><stop offset=".215" stop-color="#0069FF" stop-opacity=".3"/><stop offset="1" stop-color="#0069FF" stop-opacity=".05"/></linearGradient><path class="st12" d="M171.2 179c-56.7 0-102.7 5.8-103.2 12.9v.4c1 7.1 46.8 12.8 103.2 12.8 56.3 0 102.1-5.7 103.2-12.8v-.4c-.5-7.1-46.5-12.9-103.2-12.9z"/><linearGradient id="SVGID_13_" gradientUnits="userSpaceOnUse" x1="69.749" y1="148.559" x2="223.475" y2="148.559" gradientTransform="matrix(1 0 0 -1 0 340.617)"><stop offset="0" stop-color="#0069FF" stop-opacity=".5"/><stop offset=".215" stop-color="#0069FF" stop-opacity=".3"/><stop offset="1" stop-color="#0069FF" stop-opacity=".05"/></linearGradient><path class="st13" d="M171.2 179c-56.7 0-102.7 5.8-103.2 12.9v.4c1 7.1 46.8 12.8 103.2 12.8 56.3 0 102.1-5.7 103.2-12.8v-.4c-.5-7.1-46.5-12.9-103.2-12.9z"/><linearGradient id="SVGID_14_" gradientUnits="userSpaceOnUse" x1="-.009" y1="188.809" x2="342.409" y2="188.809" gradientTransform="matrix(1 0 0 -1 0 380.617)"><stop offset="0" stop-color="#0080FF"/><stop offset="1" stop-color="#00D688"/></linearGradient><linearGradient id="SVGID_15_" gradientUnits="userSpaceOnUse" x1="-.009" y1="173.609" x2="342.409" y2="173.609" gradientTransform="matrix(1 0 0 -1 0 380.617)"><stop offset="0" stop-color="#0080FF"/><stop offset="1" stop-color="#00D688"/></linearGradient><path class="st15" d="M5.9 198.1c17.5 11.7 84.9 20.4 165.3 20.4 86.3 0 157.5-10 168.3-23"/><linearGradient id="SVGID_16_" gradientUnits="userSpaceOnUse" x1="-.009" y1="188.809" x2="342.409" y2="188.809" gradientTransform="matrix(1 0 0 -1 0 380.617)"><stop offset="0" stop-color="#0080FF"/><stop offset="1" stop-color="#00D688"/></linearGradient><path id="XMLID_14_" class="st17" d="M117.3 144.4H225v6.2H117.3z"/><path id="XMLID_13_" class="st17" d="M117.3 132H225v6.2H117.3z"/><path id="XMLID_12_" class="st17" d="M117.3 119.5H225v6.2H117.3z"/><path id="XMLID_11_" class="st17" d="M117.3 107.1H225v6.2H117.3z"/><defs><path id="SVGID_17_" d="M117.3 107.1h56.5v6.2h-56.5z"/></defs><clipPath id="SVGID_18_"><use xlink:href="#SVGID_17_" overflow="visible"/></clipPath><linearGradient id="XMLID_4_" gradientUnits="userSpaceOnUse" x1="225" y1="270.359" x2="117.4" y2="270.359" gradientTransform="matrix(1 0 0 -1 0 380.617)"><stop offset="0" stop-color="#00D688"/><stop offset=".117" stop-color="#00D28E"/><stop offset=".266" stop-color="#00C69E"/><stop offset=".434" stop-color="#00B3B8"/><stop offset=".613" stop-color="#0099DC"/><stop offset=".757" stop-color="#0080FF"/></linearGradient><path id="XMLID_2_" class="st18" d="M117.4 107.2H225v6.1H117.4z"/><defs><path id="SVGID_19_" d="M117.3 144.4h74.6v6.2h-74.6z"/></defs><clipPath id="SVGID_20_"><use xlink:href="#SVGID_19_" overflow="visible"/></clipPath><linearGradient id="XMLID_5_" gradientUnits="userSpaceOnUse" x1="2341.574" y1="1477.072" x2="2449.174" y2="1477.072" gradientTransform="matrix(-1 0 0 1 2566.574 -1329.563)"><stop offset="0" stop-color="#00D688"/><stop offset=".135" stop-color="#00D38C"/><stop offset=".275" stop-color="#00CA99"/><stop offset=".417" stop-color="#00BBAD"/><stop offset=".56" stop-color="#00A6CA"/><stop offset=".704" stop-color="#008BEF"/><stop offset=".757" stop-color="#0080FF"/></linearGradient><path id="XMLID_9_" class="st19" d="M117.4 144.4H225v6.2H117.4z"/><defs><path id="SVGID_21_" d="M117.3 132h27.2v6.2h-27.2z"/></defs><clipPath id="SVGID_22_"><use xlink:href="#SVGID_21_" overflow="visible"/></clipPath><linearGradient id="XMLID_6_" gradientUnits="userSpaceOnUse" x1="210.923" y1="245.509" x2="125.458" y2="245.509" gradientTransform="matrix(1 0 0 -1 0 380.618)"><stop offset="0" stop-color="#00D688"/><stop offset=".135" stop-color="#00D38C"/><stop offset=".275" stop-color="#00CA99"/><stop offset=".417" stop-color="#00BBAD"/><stop offset=".56" stop-color="#00A6CA"/><stop offset=".704" stop-color="#008BEF"/><stop offset=".757" stop-color="#0080FF"/></linearGradient><path id="XMLID_8_" class="st20" d="M117.4 132H225v6.2H117.4z"/><defs><path id="SVGID_23_" d="M117.3 119.5h94.5v6.2h-94.5z"/></defs><clipPath id="SVGID_24_"><use xlink:href="#SVGID_23_" overflow="visible"/></clipPath><linearGradient id="XMLID_10_" gradientUnits="userSpaceOnUse" x1="2341.574" y1="1452.272" x2="2449.174" y2="1452.272" gradientTransform="matrix(-1 0 0 1 2566.574 -1329.563)"><stop offset="0" stop-color="#00D688"/><stop offset=".117" stop-color="#00D28E"/><stop offset=".266" stop-color="#00C69E"/><stop offset=".434" stop-color="#00B3B8"/><stop offset=".613" stop-color="#0099DC"/><stop offset=".757" stop-color="#0080FF"/></linearGradient><path id="XMLID_7_" class="st21" d="M117.4 119.6H225v6.2H117.4z"/><path id="XMLID_1_" class="st22" d="M117.4 113.3v-6.1"/></svg>