<svg id="Layer_1" xmlns="http://www.w3.org/2000/svg" viewBox="0 0 292.2 308.6"><style>.st0{fill:#fff;stroke:#0080ff;stroke-width:1.5;stroke-miterlimit:10}.st1{fill:url(#SVGID_1_)}.st2{fill:url(#SVGID_2_)}.st3{fill:url(#SVGID_3_)}.st4{fill:url(#SVGID_4_)}.st5{fill:url(#SVGID_5_)}.st6,.st7{fill:none;stroke:#0080ff;stroke-miterlimit:10}.st6{opacity:.35;enable-background:new}.st7{stroke-width:1.5}.st8{opacity:.35;stroke:url(#SVGID_6_);enable-background:new}.st10,.st11,.st8,.st9{fill:none;stroke-miterlimit:10}.st9{opacity:.3;stroke:#0080ff;enable-background:new}.st10,.st11{stroke-width:1.5}.st10{stroke-linecap:round;stroke:#0080ff}.st11{stroke:url(#SVGID_7_)}.st12{stroke:#00d688}.st12,.st13,.st14,.st15{fill:none;stroke-miterlimit:10}.st13{stroke:url(#SVGID_8_)}.st14{stroke:url(#SVGID_9_)}.st15{stroke:url(#SVGID_10_)}.st15,.st16,.st17{opacity:.35;enable-background:new}.st16{fill:none;stroke-miterlimit:10;stroke:url(#SVGID_11_)}.st17{stroke:url(#SVGID_12_)}.st17,.st18,.st19,.st20{fill:none;stroke-miterlimit:10}.st18{stroke-linecap:round;stroke:#0080ff}.st19{stroke:url(#SVGID_13_)}.st20{stroke:url(#SVGID_14_)}.st21{fill:url(#SVGID_15_)}.st22{fill:url(#SVGID_16_)}.st23{fill:url(#SVGID_17_)}.st24{fill:url(#SVGID_18_)}.st25{opacity:.35;stroke:url(#SVGID_19_);enable-background:new}.st25,.st26,.st27,.st28{fill:none;stroke-miterlimit:10}.st26{opacity:.35;enable-background:new;stroke:url(#SVGID_20_)}.st27{stroke:url(#SVGID_21_);stroke-width:1.5}.st28{stroke:#0080ff;stroke-width:2.5}.st29{fill:url(#SVGID_22_)}.st30,.st31{fill:none;stroke:url(#SVGID_23_);stroke-miterlimit:10}.st31{stroke:url(#SVGID_24_);stroke-width:1.5}.st32{stroke:url(#SVGID_25_)}.st32,.st33,.st34,.st35{fill:none;stroke-miterlimit:10}.st33{stroke:url(#SVGID_26_);stroke-width:1.5}.st34,.st35{stroke:url(#SVGID_27_);stroke-width:2;stroke-linecap:round;stroke-dasharray:0,5}.st35{stroke:url(#SVGID_28_)}</style><path class="st0" d="M65.2 145.3l40.2 23.1v46.4L65.2 238l-40.1-23.2v-46.4zm80.3 0l40.2 23.1v46.4L145.5 238l-40.1-23.2v-46.4z"/><linearGradient id="SVGID_1_" gradientUnits="userSpaceOnUse" x1="145.55" y1="115.577" x2="145.55" y2="182.577" gradientTransform="matrix(1 0 0 -1 0 201.154)"><stop offset="0" stop-color="#005AFF" stop-opacity=".3"/><stop offset="1" stop-color="#005AFF" stop-opacity="0"/></linearGradient><path class="st1" d="M145.5 18.6l30 17.7v32l-30 17.3-29.9-17.3v-32z"/><linearGradient id="SVGID_2_" gradientUnits="userSpaceOnUse" x1="145.75" y1="-24.123" x2="145.75" y2="42.877" gradientTransform="matrix(1 0 0 -1 0 201.154)"><stop offset="0" stop-color="#005AFF" stop-opacity=".3"/><stop offset="1" stop-color="#005AFF" stop-opacity="0"/></linearGradient><path class="st2" d="M145.8 158.3l29.9 17.8V208l-29.9 17.3-30-17.3v-31.9z"/><linearGradient id="SVGID_3_" gradientUnits="userSpaceOnUse" x1="65.25" y1="-24.123" x2="65.25" y2="42.877" gradientTransform="matrix(1 0 0 -1 0 201.154)"><stop offset="0" stop-color="#005AFF" stop-opacity=".3"/><stop offset="1" stop-color="#005AFF" stop-opacity="0"/></linearGradient><path class="st3" d="M65.3 158.3l29.9 17.8V208l-29.9 17.3-30-17.3v-31.9z"/><linearGradient id="SVGID_4_" gradientUnits="userSpaceOnUse" x1="105.25" y1="-93.623" x2="105.25" y2="-26.623" gradientTransform="matrix(1 0 0 -1 0 201.154)"><stop offset="0" stop-color="#005AFF" stop-opacity=".3"/><stop offset="1" stop-color="#005AFF" stop-opacity="0"/></linearGradient><path class="st4" d="M105.3 227.8l29.9 17.8v31.9l-29.9 17.3-30-17.3v-31.9z"/><linearGradient id="SVGID_5_" gradientUnits="userSpaceOnUse" x1="259.4" y1="9.077" x2="259.4" y2="64.377" gradientTransform="matrix(1 0 0 -1 0 201.154)"><stop offset="0" stop-color="#005AFF" stop-opacity=".3"/><stop offset="1" stop-color="#005AFF" stop-opacity="0"/></linearGradient><path class="st5" d="M259.5 136.8l24.4 14.5v26.3l-24.4 14.5-24.6-14.5v-26.3z"/><path class="st6" d="M25.1 215l40.1-29 40.2 29m-40.2-29v-40.1"/><path class="st7" d="M105.4 168.9l-40.2 29-40.1-29m40.1 29V238"/><path class="st6" d="M105.4 215l40.1-29 40.2 29m-40.2-29v-40.1"/><path class="st7" d="M185.7 168.9l-40.2 29-40.1-29m40.1 29V238"/><linearGradient id="SVGID_6_" gradientUnits="userSpaceOnUse" x1="105.35" y1="-53.967" x2="105.35" y2="-84.03" gradientTransform="matrix(1 0 0 -1 0 201.154)"><stop offset="0" stop-color="#0080FF"/><stop offset=".456" stop-color="#00A8C7"/><stop offset="1" stop-color="#00D688"/></linearGradient><path class="st8" d="M65.2 284.8l40.2-29 40.1 29"/><path class="st9" d="M105.4 255.8v-40.1"/><path class="st10" d="M145.5 238.7l-40.1 29-40.2-29"/><linearGradient id="SVGID_7_" gradientUnits="userSpaceOnUse" x1="105.4" y1="-66.523" x2="105.4" y2="-106.623" gradientTransform="matrix(1 0 0 -1 0 201.154)"><stop offset="0" stop-color="#0080FF"/><stop offset="1" stop-color="#00D688"/></linearGradient><path class="st11" d="M105.4 267.7v40.1"/><path class="st12" d="M17.3 22.7L.5 10.5"/><linearGradient id="SVGID_8_" gradientUnits="userSpaceOnUse" x1="17.027" y1="184.577" x2="34.458" y2="184.577" gradientTransform="matrix(1 0 0 -1 0 201.154)"><stop offset="0" stop-color="#00D688"/><stop offset="1" stop-color="#0080FF"/></linearGradient><path class="st13" d="M34.2 10.5L17.3 22.7"/><linearGradient id="SVGID_9_" gradientUnits="userSpaceOnUse" x1="17.3" y1="178.509" x2="17.3" y2="161.709" gradientTransform="matrix(1 0 0 -1 0 201.154)"><stop offset="0" stop-color="#00D688"/><stop offset="1" stop-color="#0080FF"/></linearGradient><path class="st14" d="M17.3 22.7v16.8"/><path class="st9" d="M17.3 17.7l16.9 12.1"/><linearGradient id="SVGID_10_" gradientUnits="userSpaceOnUse" x1="8.9" y1="183.923" x2="8.9" y2="170.929" gradientTransform="matrix(1 0 0 -1 0 201.154)"><stop offset="0" stop-color="#0080FF"/><stop offset=".456" stop-color="#00A8C7"/><stop offset="1" stop-color="#00D688"/></linearGradient><path class="st15" d="M.5 29.8l16.8-12.1"/><linearGradient id="SVGID_11_" gradientUnits="userSpaceOnUse" x1="17.3" y1="183.518" x2="17.3" y2="200.318" gradientTransform="matrix(1 0 0 -1 0 201.154)"><stop offset="0" stop-color="#0080FF"/><stop offset=".456" stop-color="#00A8C7"/><stop offset="1" stop-color="#00D688"/></linearGradient><path class="st16" d="M17.3 17.7V.9"/><linearGradient id="SVGID_12_" gradientUnits="userSpaceOnUse" x1="275.6" y1="42.182" x2="275.6" y2="18.117" gradientTransform="matrix(1 0 0 -1 0 201.154)"><stop offset="0" stop-color="#0080FF"/><stop offset=".456" stop-color="#00A8C7"/><stop offset="1" stop-color="#00D688"/></linearGradient><path class="st17" d="M259.5 159.4l32.2 23.3"/><path class="st9" d="M227.4 182.7l32.1-23.3m0 0v-32.1"/><path class="st18" d="M259.5 169l-32.1-23.3"/><linearGradient id="SVGID_13_" gradientUnits="userSpaceOnUse" x1="259.248" y1="43.827" x2="291.988" y2="43.827" gradientTransform="matrix(1 0 0 -1 0 201.154)"><stop offset="0" stop-color="#0080FF"/><stop offset="1" stop-color="#00D688"/></linearGradient><path class="st19" d="M291.7 145.7L259.5 169"/><linearGradient id="SVGID_14_" gradientUnits="userSpaceOnUse" x1="259.5" y1="32.177" x2="259.5" y2=".077" gradientTransform="matrix(1 0 0 -1 0 201.154)"><stop offset="0" stop-color="#0080FF"/><stop offset="1" stop-color="#00D688"/></linearGradient><path class="st20" d="M259.5 169v32.1"/><linearGradient id="SVGID_15_" gradientUnits="userSpaceOnUse" x1="105.35" y1="94.515" x2="105.35" y2="134.068" gradientTransform="matrix(1 0 0 -1 0 201.154)"><stop offset="0" stop-color="#005AFF" stop-opacity="0"/><stop offset="1" stop-color="#005AFF" stop-opacity=".2"/></linearGradient><path class="st21" d="M105.4 75.5l40.1 23.1-40.1 24.4-40.2-24.4z"/><linearGradient id="SVGID_16_" gradientUnits="userSpaceOnUse" x1="94.48" y1="66.64" x2="63.943" y2="70.421" gradientTransform="matrix(1 0 0 -1 0 201.154)"><stop offset="0" stop-color="#005AFF" stop-opacity="0"/><stop offset="1" stop-color="#005AFF" stop-opacity=".2"/></linearGradient><path class="st22" d="M105.4 123v45.2L65.2 145V98.6z"/><linearGradient id="SVGID_17_" gradientUnits="userSpaceOnUse" x1="-1899.784" y1="1875.458" x2="-1934.393" y2="1827.181" gradientTransform="scale(1 -1) rotate(-59.2 -2650.476 -921.606)"><stop offset="0" stop-color="#005AFF" stop-opacity="0"/><stop offset="1" stop-color="#005AFF" stop-opacity=".2"/></linearGradient><path class="st23" d="M145.5 145l-40.1 23.3V123l40.1-24.4z"/><linearGradient id="SVGID_18_" gradientUnits="userSpaceOnUse" x1="93.391" y1="87.681" x2="117.36" y2="63.712" gradientTransform="matrix(1 0 0 -1 0 201.154)"><stop offset="0" stop-color="#0080FF"/><stop offset="1" stop-color="#0080FF" stop-opacity=".1"/></linearGradient><path class="st24" d="M121.9 126.1c0 9.1-7.4 16.5-16.5 16.5s-16.5-7.4-16.5-16.5c0-10.8 16.5-24.2 16.5-24.2s16.5 13.8 16.5 24.2z"/><linearGradient id="SVGID_19_" gradientUnits="userSpaceOnUse" x1="145.248" y1="140.127" x2="185.988" y2="140.127" gradientTransform="matrix(1 0 0 -1 0 201.154)"><stop offset="0" stop-color="#0080FF"/><stop offset=".456" stop-color="#00A8C7"/><stop offset="1" stop-color="#00D688"/></linearGradient><path class="st25" d="M145.5 46.5l40.2 29.1"/><path class="st9" d="M105.4 75.6l40.1-29.1"/><linearGradient id="SVGID_20_" gradientUnits="userSpaceOnUse" x1="145.5" y1="154.677" x2="145.5" y2="194.737" gradientTransform="matrix(1 0 0 -1 0 201.154)"><stop offset="0" stop-color="#0080FF"/><stop offset=".456" stop-color="#00A8C7"/><stop offset="1" stop-color="#00D688"/></linearGradient><path class="st26" d="M145.5 46.5v-40"/><path class="st10" d="M145.5 58.5l-40.1-29.1"/><linearGradient id="SVGID_21_" gradientUnits="userSpaceOnUse" x1="154.122" y1="137.346" x2="177.041" y2="177.044" gradientTransform="matrix(1 0 0 -1 0 201.154)"><stop offset="0" stop-color="#0080FF"/><stop offset="1" stop-color="#00D688"/></linearGradient><path class="st27" d="M185.7 29.4l-40.2 29.1"/><path class="st10" d="M145.5 58.5v40"/><path class="st28" d="M105.4 75.5l40.1 23.2v46.4l-40.1 23.1-40.2-23.1V98.7z"/><linearGradient id="SVGID_22_" gradientUnits="userSpaceOnUse" x1="17.25" y1="168.446" x2="17.25" y2="193.146" gradientTransform="matrix(1 0 0 -1 0 201.154)"><stop offset="0" stop-color="#005AFF" stop-opacity=".3"/><stop offset="1" stop-color="#005AFF" stop-opacity="0"/></linearGradient><path class="st29" d="M17.3 8l10.9 6.5v11.8l-10.9 6.4-11-6.4V14.5z"/><linearGradient id="SVGID_23_" gradientUnits="userSpaceOnUse" x1="-.01" y1="191.149" x2="34.666" y2="171.129" gradientTransform="matrix(1 0 0 -1 0 201.154)"><stop offset="0" stop-color="#00D688"/><stop offset="1" stop-color="#0080FF"/></linearGradient><path class="st30" d="M17.3.6l16.9 9.7v19.4l-16.9 9.8L.5 29.7V10.3z"/><linearGradient id="SVGID_24_" gradientUnits="userSpaceOnUse" x1="105.35" y1="-12.957" x2="105.35" y2="-107.489" gradientTransform="matrix(1 0 0 -1 0 201.154)"><stop offset="0" stop-color="#0080FF"/><stop offset="1" stop-color="#00D688"/></linearGradient><path class="st31" d="M105.4 215l40.1 23.2v46.4l-40.1 23.2-40.2-23.2v-46.4z"/><linearGradient id="SVGID_25_" gradientUnits="userSpaceOnUse" x1="292.182" y1="18.358" x2="226.893" y2="56.052" gradientTransform="matrix(1 0 0 -1 0 201.154)"><stop offset="0" stop-color="#00D688"/><stop offset="1" stop-color="#0080FF"/></linearGradient><path class="st32" d="M259.5 126.8l32.2 18.6v37.1l-32.2 18.6-32.1-18.6v-37.1z"/><linearGradient id="SVGID_26_" gradientUnits="userSpaceOnUse" x1="166.009" y1="184.412" x2="125.092" y2="113.541" gradientTransform="matrix(1 0 0 -1 0 201.154)"><stop offset="0" stop-color="#00D688"/><stop offset="1" stop-color="#0080FF"/></linearGradient><path class="st33" d="M145.5 5.8L185.7 29v46.4l-40.2 23.1-40.1-23.1V29z"/><linearGradient id="SVGID_27_" gradientUnits="userSpaceOnUse" x1="37.4" y1="150.127" x2="97.2" y2="150.127" gradientTransform="matrix(1 0 0 -1 0 201.154)"><stop offset="0" stop-color="#00D688"/><stop offset=".682" stop-color="#09D"/><stop offset="1" stop-color="#0080FF"/></linearGradient><path class="st34" d="M96.2 69.8L38.4 32.3"/><linearGradient id="SVGID_28_" gradientUnits="userSpaceOnUse" x1="151.2" y1="79.077" x2="221.2" y2="79.077" gradientTransform="matrix(1 0 0 -1 0 201.154)"><stop offset="0" stop-color="#0080FF"/><stop offset=".318" stop-color="#09D"/><stop offset="1" stop-color="#00D688"/></linearGradient><path class="st35" d="M220.2 142.1l-68-40"/></svg>