<svg id="Layer_1" xmlns="http://www.w3.org/2000/svg" xmlns:xlink="http://www.w3.org/1999/xlink" viewBox="0 0 343.4 340.7"><style>.st0{fill:url(#SVGID_1_)}.st1,.st2,.st3{stroke-miterlimit:10}.st1{fill:none;stroke:#0080ff;stroke-width:3}.st2,.st3{stroke-width:1.5;stroke-linecap:round}.st2{fill:#fff;stroke:url(#SVGID_2_)}.st3{stroke:url(#SVGID_3_)}.st3,.st4{fill:#fff}.st5,.st6{clip-path:url(#SVGID_5_);fill:url(#SVGID_6_)}.st6{fill:url(#SVGID_7_)}.st7{fill:none;stroke:url(#SVGID_8_);stroke-width:2.5;stroke-linecap:round;stroke-miterlimit:10}.st8,.st9{clip-path:url(#SVGID_10_);fill:url(#SVGID_11_)}.st9{fill:url(#SVGID_12_)}.st10{fill:none;stroke:url(#SVGID_13_);stroke-width:2.5;stroke-linecap:round;stroke-miterlimit:10}.st11{stroke:url(#SVGID_14_)}.st11,.st12,.st13{fill:none;stroke-width:2;stroke-linecap:round;stroke-miterlimit:10}.st12{stroke-dasharray:0,4.9818;stroke:url(#SVGID_15_)}.st13{stroke:url(#SVGID_16_)}.st14{stroke:url(#SVGID_17_)}.st14,.st15,.st16{fill:none;stroke-width:2;stroke-linecap:round;stroke-miterlimit:10}.st15{stroke-dasharray:0,5.0217;stroke:url(#SVGID_18_)}.st16{stroke:url(#SVGID_19_)}.st17{stroke:url(#SVGID_20_)}.st17,.st18,.st19{fill:none;stroke-width:2;stroke-linecap:round;stroke-miterlimit:10}.st18{stroke-dasharray:0,5.0285;stroke:url(#SVGID_21_)}.st19{stroke:url(#SVGID_22_)}.st20{stroke:url(#SVGID_23_)}.st20,.st21,.st22{fill:none;stroke-width:2;stroke-linecap:round;stroke-miterlimit:10}.st21{stroke-dasharray:0,5.049;stroke:url(#SVGID_24_)}.st22{stroke:url(#SVGID_25_)}.st23{stroke:url(#SVGID_26_)}.st23,.st24,.st25{fill:none;stroke-width:2;stroke-linecap:round;stroke-miterlimit:10}.st24{stroke-dasharray:0,5.0118;stroke:url(#SVGID_27_)}.st25{stroke:url(#SVGID_28_)}.st26{stroke:url(#SVGID_29_)}.st26,.st27,.st28{fill:none;stroke-width:2;stroke-linecap:round;stroke-miterlimit:10}.st27{stroke-dasharray:0,4.9691;stroke:url(#SVGID_30_)}.st28{stroke:url(#SVGID_31_)}.st29{fill:#0080ff}.st30{fill:none;stroke:#fff;stroke-width:2;stroke-miterlimit:10}.st31,.st32{clip-path:url(#SVGID_33_);fill:url(#SVGID_34_)}.st32{fill:url(#SVGID_35_)}.st33{fill:none;stroke:#0080ff;stroke-width:2;stroke-linecap:round;stroke-miterlimit:10}.st34,.st35{clip-path:url(#SVGID_37_);fill:url(#SVGID_38_)}.st35{fill:url(#SVGID_39_)}.st36,.st37{clip-path:url(#SVGID_41_);fill:url(#SVGID_42_)}.st37{fill:url(#SVGID_43_)}.st38,.st39{clip-path:url(#SVGID_45_);fill:url(#SVGID_46_)}.st39{fill:url(#SVGID_47_)}</style><radialGradient id="SVGID_1_" cx="159.004" cy="156.071" r="153.822" gradientTransform="translate(13.58 15) scale(.9956)" gradientUnits="userSpaceOnUse"><stop offset="0" stop-color="#005FFF" stop-opacity=".15"/><stop offset="1" stop-color="#005FFF" stop-opacity="0"/></radialGradient><circle class="st0" cx="171.9" cy="170.4" r="153.1"/><path class="st1" d="M171.7 148.5v44.4m-22.2-22.2h44.4"/><linearGradient id="SVGID_2_" gradientUnits="userSpaceOnUse" y1="65.117" x2="128.783" y2="65.117"><stop offset="0" stop-color="#0080FF"/><stop offset="1" stop-color="#00D688"/></linearGradient><circle class="st2" cx="64.4" cy="65.1" r="63.6"/><linearGradient id="SVGID_3_" gradientUnits="userSpaceOnUse" x1="213.851" y1="275.961" x2="343.385" y2="275.961"><stop offset="0" stop-color="#00D688"/><stop offset="1" stop-color="#0080FF"/></linearGradient><circle class="st3" cx="278.6" cy="276" r="64"/><path class="st4" d="M64.4 26c21.6 0 39.1 17.5 39.1 39.1S86 104.2 64.4 104.2 25.3 86.7 25.3 65.1 42.8 26 64.4 26m0-5C40 21 20.3 40.8 20.3 65.1c0 24.4 19.7 44.1 44.1 44.1s44.1-19.7 44.1-44.1c0-24.3-19.7-44.1-44.1-44.1z"/><defs><circle id="SVGID_4_" cx="64.4" cy="65.1" r="44.1"/></defs><clipPath id="SVGID_5_"><use xlink:href="#SVGID_4_" overflow="visible"/></clipPath><linearGradient id="SVGID_6_" gradientUnits="userSpaceOnUse" x1="28.032" y1="90.438" x2="100.75" y2="90.438"><stop offset="0" stop-color="#007EFF"/><stop offset="1" stop-color="#0080FF" stop-opacity=".2"/></linearGradient><path class="st5" d="M64.2 72.2c-15.4.1-36.3 9.9-36.2 36.5l72.7-.3c-.1-26.6-21-36.3-36.5-36.2z"/><linearGradient id="SVGID_7_" gradientUnits="userSpaceOnUse" x1="46.097" y1="57.539" x2="83.08" y2="57.539"><stop offset="0" stop-color="#007EFF"/><stop offset="1" stop-color="#0080FF" stop-opacity=".2"/></linearGradient><circle class="st6" cx="64.6" cy="57.5" r="18.5"/><path class="st4" d="M64.4 26c21.6 0 39.1 17.5 39.1 39.1S86 104.2 64.4 104.2 25.3 86.7 25.3 65.1 42.8 26 64.4 26m0-5C40 21 20.3 40.8 20.3 65.1c0 24.4 19.7 44.1 44.1 44.1s44.1-19.7 44.1-44.1c0-24.3-19.7-44.1-44.1-44.1z"/><linearGradient id="SVGID_8_" gradientUnits="userSpaceOnUse" x1="19.032" y1="65.117" x2="109.751" y2="65.117"><stop offset="0" stop-color="#0080FF"/><stop offset="1" stop-color="#00D688"/></linearGradient><circle class="st7" cx="64.4" cy="65.1" r="44.1"/><defs><circle id="SVGID_9_" cx="278.6" cy="276" r="44.1"/></defs><clipPath id="SVGID_10_"><use xlink:href="#SVGID_9_" overflow="visible"/></clipPath><linearGradient id="SVGID_11_" gradientUnits="userSpaceOnUse" x1="242.259" y1="301.282" x2="314.977" y2="301.282"><stop offset="0" stop-color="#007EFF"/><stop offset="1" stop-color="#0080FF" stop-opacity=".2"/></linearGradient><path class="st8" d="M278.5 283c-15.4.1-36.3 9.9-36.2 36.5l72.7-.3c-.1-26.6-21.1-36.2-36.5-36.2z"/><linearGradient id="SVGID_12_" gradientUnits="userSpaceOnUse" x1="260.324" y1="268.383" x2="297.307" y2="268.383"><stop offset="0" stop-color="#007EFF"/><stop offset="1" stop-color="#0080FF" stop-opacity=".2"/></linearGradient><circle class="st9" cx="278.8" cy="268.4" r="18.5"/><path class="st4" d="M278.6 236.9c21.6 0 39.1 17.5 39.1 39.1s-17.5 39.1-39.1 39.1-39.1-17.5-39.1-39.1 17.6-39.1 39.1-39.1m0-5c-24.4 0-44.1 19.7-44.1 44.1 0 24.4 19.7 44.1 44.1 44.1s44.1-19.7 44.1-44.1c0-24.4-19.7-44.1-44.1-44.1z"/><linearGradient id="SVGID_13_" gradientUnits="userSpaceOnUse" x1="233.259" y1="275.961" x2="323.977" y2="275.961"><stop offset="0" stop-color="#00D688"/><stop offset="1" stop-color="#0080FF"/></linearGradient><circle class="st10" cx="278.6" cy="276" r="44.1"/><linearGradient id="SVGID_14_" gradientUnits="userSpaceOnUse" x1="65.566" y1="273.894" x2="192.994" y2="273.894"><stop offset="0" stop-color="#0080FF"/><stop offset="1" stop-color="#00D688"/></linearGradient><linearGradient id="SVGID_15_" gradientUnits="userSpaceOnUse" x1="65.566" y1="215.222" x2="192.994" y2="215.222"><stop offset="0" stop-color="#0080FF"/><stop offset="1" stop-color="#00D688"/></linearGradient><path class="st12" d="M187.1 274.7c-5 .7-10.2 1.1-15.4 1.1-58.1 0-105.1-47.1-105.1-105.1 0-5.5.4-10.9 1.2-16.1"/><linearGradient id="SVGID_16_" gradientUnits="userSpaceOnUse" x1="65.566" y1="152.133" x2="192.994" y2="152.133"><stop offset="0" stop-color="#0080FF"/><stop offset="1" stop-color="#00D688"/></linearGradient><linearGradient id="SVGID_17_" gradientUnits="userSpaceOnUse" x1="149.379" y1="67.762" x2="277.819" y2="67.762"><stop offset="0" stop-color="#00D688"/><stop offset="1" stop-color="#0080FF"/></linearGradient><linearGradient id="SVGID_18_" gradientUnits="userSpaceOnUse" x1="149.379" y1="126.52" x2="277.819" y2="126.52"><stop offset="0" stop-color="#00D688"/><stop offset="1" stop-color="#0080FF"/></linearGradient><path class="st15" d="M155.3 66.9c5.3-.8 10.8-1.3 16.4-1.3 58.1 0 105.1 47.1 105.1 105.1 0 5.7-.5 11.3-1.3 16.7"/><linearGradient id="SVGID_19_" gradientUnits="userSpaceOnUse" x1="149.379" y1="189.915" x2="277.819" y2="189.915"><stop offset="0" stop-color="#00D688"/><stop offset="1" stop-color="#0080FF"/></linearGradient><linearGradient id="SVGID_20_" gradientUnits="userSpaceOnUse" x1="42.162" y1="297.156" x2="195.965" y2="297.156"><stop offset="0" stop-color="#0080FF"/><stop offset="1" stop-color="#00D688"/></linearGradient><linearGradient id="SVGID_21_" gradientUnits="userSpaceOnUse" x1="42.162" y1="225.731" x2="195.965" y2="225.731"><stop offset="0" stop-color="#0080FF"/><stop offset="1" stop-color="#00D688"/></linearGradient><path class="st18" d="M190 298c-6 .9-12.1 1.3-18.3 1.3-71 0-128.5-57.5-128.5-128.5 0-6.3.5-12.5 1.3-18.5"/><linearGradient id="SVGID_22_" gradientUnits="userSpaceOnUse" x1="42.162" y1="149.72" x2="195.965" y2="149.72"><stop offset="0" stop-color="#0080FF"/><stop offset="1" stop-color="#00D688"/></linearGradient><linearGradient id="SVGID_23_" gradientUnits="userSpaceOnUse" x1="147.172" y1="44.343" x2="301.224" y2="44.343"><stop offset="0" stop-color="#00D688"/><stop offset="1" stop-color="#0080FF"/></linearGradient><linearGradient id="SVGID_24_" gradientUnits="userSpaceOnUse" x1="147.172" y1="116.089" x2="301.224" y2="116.089"><stop offset="0" stop-color="#00D688"/><stop offset="1" stop-color="#0080FF"/></linearGradient><path class="st21" d="M153.2 43.5c6.1-.9 12.2-1.3 18.5-1.3 71 0 128.5 57.5 128.5 128.5 0 6.5-.5 13-1.4 19.3"/><linearGradient id="SVGID_25_" gradientUnits="userSpaceOnUse" x1="147.172" y1="192.475" x2="301.224" y2="192.475"><stop offset="0" stop-color="#00D688"/><stop offset="1" stop-color="#0080FF"/></linearGradient><linearGradient id="SVGID_26_" gradientUnits="userSpaceOnUse" x1="17.843" y1="320.468" x2="203.508" y2="320.468"><stop offset="0" stop-color="#0080FF"/><stop offset="1" stop-color="#00D688"/></linearGradient><linearGradient id="SVGID_27_" gradientUnits="userSpaceOnUse" x1="17.843" y1="233.679" x2="203.508" y2="233.679"><stop offset="0" stop-color="#0080FF"/><stop offset="1" stop-color="#00D688"/></linearGradient><path class="st24" d="M197.6 321.4c-8.4 1.4-17.1 2.2-25.9 2.2-84.4 0-152.8-68.4-152.8-152.8 0-9.2.8-18.2 2.4-26.9"/><linearGradient id="SVGID_28_" gradientUnits="userSpaceOnUse" x1="17.843" y1="141.32" x2="203.508" y2="141.32"><stop offset="0" stop-color="#0080FF"/><stop offset="1" stop-color="#00D688"/></linearGradient><linearGradient id="SVGID_29_" gradientUnits="userSpaceOnUse" x1="138.197" y1="21.339" x2="325.542" y2="21.339"><stop offset="0" stop-color="#00D688"/><stop offset="1" stop-color="#0080FF"/></linearGradient><linearGradient id="SVGID_30_" gradientUnits="userSpaceOnUse" x1="138.197" y1="108.124" x2="325.542" y2="108.124"><stop offset="0" stop-color="#00D688"/><stop offset="1" stop-color="#0080FF"/></linearGradient><path class="st27" d="M144.1 20.4c9-1.6 18.2-2.5 27.6-2.5 84.4 0 152.8 68.4 152.8 152.8 0 9.4-.9 18.7-2.5 27.6"/><linearGradient id="SVGID_31_" gradientUnits="userSpaceOnUse" x1="138.197" y1="200.81" x2="325.542" y2="200.81"><stop offset="0" stop-color="#00D688"/><stop offset="1" stop-color="#0080FF"/></linearGradient><circle class="st29" cx="31.1" cy="119.2" r="3.2"/><circle class="st29" cx="50.8" cy="3.2" r="3.2"/><circle class="st29" cx="64" cy="128.7" r="2.7"/><circle class="st29" cx="315.4" cy="223.3" r="3.2"/><circle class="st29" cx="340" cy="258.1" r="2.5"/><circle class="st29" cx="299" cy="336.8" r="3.2"/><circle class="st30" cx="171.8" cy="170.7" r="46.4"/><circle class="st30" cx="171.8" cy="170.7" r="73.7"/><circle class="st4" cx="226.7" cy="28.9" r="15.9"/><defs><circle id="SVGID_32_" cx="226.7" cy="28.9" r="15.9"/></defs><clipPath id="SVGID_33_"><use xlink:href="#SVGID_32_" overflow="visible"/></clipPath><linearGradient id="SVGID_34_" gradientUnits="userSpaceOnUse" x1="213.538" y1="38.003" x2="239.802" y2="38.003"><stop offset="0" stop-color="#007EFF"/><stop offset="1" stop-color="#0080FF" stop-opacity=".2"/></linearGradient><path class="st31" d="M226.6 31.4c-5.6 0-13.1 3.6-13.1 13.2l26.3-.1c0-9.6-7.6-13.1-13.2-13.1z"/><linearGradient id="SVGID_35_" gradientUnits="userSpaceOnUse" x1="220.063" y1="26.121" x2="233.42" y2="26.121"><stop offset="0" stop-color="#007EFF"/><stop offset="1" stop-color="#0080FF" stop-opacity=".2"/></linearGradient><circle class="st32" cx="226.7" cy="26.1" r="6.7"/><path class="st4" d="M226.7 16.9c6.6 0 11.9 5.4 11.9 11.9 0 6.6-5.4 11.9-11.9 11.9s-11.9-5.4-11.9-11.9c-.1-6.5 5.3-11.9 11.9-11.9m0-4c-8.8 0-15.9 7.1-15.9 15.9s7.1 15.9 15.9 15.9 15.9-7.1 15.9-15.9c0-8.7-7.1-15.9-15.9-15.9z"/><circle class="st33" cx="226.7" cy="28.9" r="15.9"/><circle class="st4" cx="289.7" cy="119.9" r="15.9"/><defs><circle id="SVGID_36_" cx="289.7" cy="119.9" r="15.9"/></defs><clipPath id="SVGID_37_"><use xlink:href="#SVGID_36_" overflow="visible"/></clipPath><linearGradient id="SVGID_38_" gradientUnits="userSpaceOnUse" x1="276.589" y1="129.017" x2="302.852" y2="129.017"><stop offset="0" stop-color="#007EFF"/><stop offset="1" stop-color="#0080FF" stop-opacity=".2"/></linearGradient><path class="st34" d="M289.7 122.4c-5.6 0-13.1 3.6-13.1 13.2l26.3-.1c-.1-9.6-7.7-13.1-13.2-13.1z"/><linearGradient id="SVGID_39_" gradientUnits="userSpaceOnUse" x1="283.113" y1="117.135" x2="296.47" y2="117.135"><stop offset="0" stop-color="#007EFF"/><stop offset="1" stop-color="#0080FF" stop-opacity=".2"/></linearGradient><circle class="st35" cx="289.8" cy="117.1" r="6.7"/><path class="st4" d="M289.7 107.9c6.6 0 11.9 5.4 11.9 11.9 0 6.6-5.4 11.9-11.9 11.9-6.6 0-11.9-5.4-11.9-11.9s5.3-11.9 11.9-11.9m0-4c-8.8 0-15.9 7.1-15.9 15.9s7.1 15.9 15.9 15.9 15.9-7.1 15.9-15.9c.1-8.7-7.1-15.9-15.9-15.9z"/><circle class="st33" cx="289.7" cy="119.9" r="15.9"/><circle class="st4" cx="43.3" cy="183.8" r="15.9"/><defs><circle id="SVGID_40_" cx="43.3" cy="183.8" r="15.9"/></defs><clipPath id="SVGID_41_"><use xlink:href="#SVGID_40_" overflow="visible"/></clipPath><linearGradient id="SVGID_42_" gradientUnits="userSpaceOnUse" x1="30.162" y1="192.947" x2="56.425" y2="192.947"><stop offset="0" stop-color="#007EFF"/><stop offset="1" stop-color="#0080FF" stop-opacity=".2"/></linearGradient><path class="st36" d="M43.2 186.4c-5.6 0-13.1 3.6-13.1 13.2l26.3-.1c0-9.7-7.6-13.2-13.2-13.1z"/><linearGradient id="SVGID_43_" gradientUnits="userSpaceOnUse" x1="36.686" y1="181.065" x2="50.044" y2="181.065"><stop offset="0" stop-color="#007EFF"/><stop offset="1" stop-color="#0080FF" stop-opacity=".2"/></linearGradient><circle class="st37" cx="43.4" cy="181.1" r="6.7"/><path class="st4" d="M43.3 171.9c6.6 0 11.9 5.4 11.9 11.9s-5.4 11.9-11.9 11.9c-6.6 0-11.9-5.4-11.9-11.9s5.3-11.9 11.9-11.9m0-4c-8.8 0-15.9 7.1-15.9 15.9s7.1 15.9 15.9 15.9 15.9-7.1 15.9-15.9-7.1-15.9-15.9-15.9z"/><circle class="st33" cx="43.3" cy="183.8" r="15.9"/><circle class="st4" cx="118.8" cy="313.5" r="15.9"/><defs><circle id="SVGID_44_" cx="118.8" cy="313.5" r="15.9"/></defs><clipPath id="SVGID_45_"><use xlink:href="#SVGID_44_" overflow="visible"/></clipPath><linearGradient id="SVGID_46_" gradientUnits="userSpaceOnUse" x1="105.715" y1="322.636" x2="131.978" y2="322.636"><stop offset="0" stop-color="#007EFF"/><stop offset="1" stop-color="#0080FF" stop-opacity=".2"/></linearGradient><path class="st38" d="M118.8 316c-5.6 0-13.1 3.6-13.1 13.2l26.3-.1c-.1-9.6-7.6-13.1-13.2-13.1z"/><linearGradient id="SVGID_47_" gradientUnits="userSpaceOnUse" x1="112.239" y1="310.754" x2="125.596" y2="310.754"><stop offset="0" stop-color="#007EFF"/><stop offset="1" stop-color="#0080FF" stop-opacity=".2"/></linearGradient><circle class="st39" cx="118.9" cy="310.8" r="6.7"/><path class="st4" d="M118.8 301.6c6.6 0 11.9 5.4 11.9 11.9 0 6.6-5.4 11.9-11.9 11.9-6.6 0-11.9-5.4-11.9-11.9 0-6.6 5.4-11.9 11.9-11.9m0-4c-8.8 0-15.9 7.1-15.9 15.9s7.1 15.9 15.9 15.9 15.9-7.1 15.9-15.9-7.1-15.9-15.9-15.9z"/><circle class="st33" cx="118.8" cy="313.5" r="15.9"/></svg>