<svg id="Layer_1" xmlns="http://www.w3.org/2000/svg" viewBox="0 0 147.5 228"><style>.st0{fill:url(#SVGID_1_)}.st1,.st2{fill:none;stroke:url(#SVGID_2_);stroke-width:2;stroke-linecap:round;stroke-miterlimit:10}.st2{stroke:url(#SVGID_3_);stroke-dasharray:0,4.9935}.st3{fill:url(#SVGID_4_)}.st4{fill:#fff}.st5{fill:none;stroke:url(#SVGID_5_);stroke-width:3;stroke-miterlimit:10}.st6{fill:url(#SVGID_6_)}.st7{fill:url(#SVGID_7_)}.st8{fill:#0080ff}.st9{fill:url(#SVGID_8_)}.st10{fill:none;stroke:url(#SVGID_9_);stroke-width:3;stroke-linecap:round;stroke-miterlimit:10;stroke-dasharray:0,5}</style><linearGradient id="SVGID_1_" gradientUnits="userSpaceOnUse" x1="1060.442" y1="-577.972" x2="1060.442" y2="-411.191" gradientTransform="rotate(180 567.09 -198.736)"><stop offset="0" stop-color="#005AFF" stop-opacity="0"/><stop offset="1" stop-color="#0071FF" stop-opacity=".4"/></linearGradient><path class="st0" d="M73.7 180.7c35.7 0 64.4-28.7 64.4-64.4 0-48.3-64.4-102.7-64.4-102.7S9.3 67.9 9.3 116.3c0 35.7 28.7 64.4 64.4 64.4z"/><linearGradient id="SVGID_2_" gradientUnits="userSpaceOnUse" x1="147.481" y1="1" x2="0" y2="1"><stop offset="0" stop-color="#0080FF"/><stop offset=".318" stop-color="#09D"/><stop offset="1" stop-color="#00D688"/></linearGradient><linearGradient id="SVGID_3_" gradientUnits="userSpaceOnUse" x1="147.481" y1="96.151" x2="0" y2="96.151"><stop offset="0" stop-color="#0080FF"/><stop offset=".318" stop-color="#09D"/><stop offset="1" stop-color="#00D688"/></linearGradient><path class="st2" d="M70 4.3C55.1 17.7 1 69.9 1 116.9c0 40.3 32.4 72.7 72.7 72.7s72.7-32.4 72.7-72.7C146.5 67.6 87 12.7 75.6 2.6"/><linearGradient id="SVGID_4_" gradientUnits="userSpaceOnUse" x1="21.065" y1="116.935" x2="126.434" y2="116.935"><stop offset="0" stop-color="#0080FF"/><stop offset="1" stop-color="#0080FF" stop-opacity=".2"/></linearGradient><circle class="st3" cx="73.7" cy="116.9" r="52.7"/><circle class="st4" cx="73.7" cy="116.9" r="46.7"/><linearGradient id="SVGID_5_" gradientUnits="userSpaceOnUse" x1="114.685" y1="96.468" x2="32.814" y2="96.468"><stop offset="0" stop-color="#00D688"/><stop offset="1" stop-color="#0080FF"/></linearGradient><path class="st5" d="M34.3 116.9c0-21.8 17.7-39.4 39.4-39.4s39.4 17.7 39.4 39.4"/><linearGradient id="SVGID_6_" gradientUnits="userSpaceOnUse" x1="52.238" y1="136.712" x2="95.261" y2="136.712"><stop offset="0" stop-color="#005AFF" stop-opacity=".15"/><stop offset=".959" stop-color="#005AFF" stop-opacity="0"/></linearGradient><path class="st6" d="M52.2 133.7h43v5.9h-43z"/><linearGradient id="SVGID_7_" gradientUnits="userSpaceOnUse" x1="95.888" y1="84.809" x2="68.756" y2="111.942"><stop offset="0" stop-color="#0072FF"/><stop offset="1" stop-color="#0072FF" stop-opacity="0"/></linearGradient><path class="st7" d="M73.7 84.2c-9 0-17.2 3.7-23.2 9.6L65.8 109c2-2 4.8-3.3 7.9-3.3 5.5 0 10.1 4 11 9.2l21.2-3.9c-2.7-15.2-16.1-26.8-32.2-26.8z"/><path class="st8" d="M106.6 112.2l-.4-2.3-44.7 7.6.5 3.2z"/><circle class="st8" cx="73.7" cy="116.9" r="4.5"/><linearGradient id="SVGID_8_" gradientUnits="userSpaceOnUse" x1="31.036" y1="217.76" x2="116.444" y2="217.76"><stop offset="0" stop-color="#005DFF" stop-opacity=".15"/><stop offset=".436" stop-color="#0068FF" stop-opacity=".085"/><stop offset="1" stop-color="#0072FF" stop-opacity="0"/></linearGradient><ellipse class="st9" cx="73.7" cy="217.8" rx="42.7" ry="10.2"/><linearGradient id="SVGID_9_" gradientUnits="userSpaceOnUse" x1="54.457" y1="136.712" x2="93.042" y2="136.712"><stop offset="0" stop-color="#0080FF"/><stop offset="1" stop-color="#00D688"/></linearGradient><path class="st10" d="M56 136.7h35.5"/></svg>