<?xml version="1.0" encoding="utf-8"?>
<!-- Generator: Adobe Illustrator 21.1.0, SVG Export Plug-In . SVG Version: 6.00 Build 0)  -->
<svg version="1.1" id="Layer_1" xmlns="http://www.w3.org/2000/svg" xmlns:xlink="http://www.w3.org/1999/xlink" x="0px" y="0px"
   viewBox="0 0 219.5 166.9" style="enable-background:new 0 0 219.5 166.9;" xml:space="preserve">
<style type="text/css">
  .st0{fill:none;stroke:url(#SVGID_1_);stroke-width:1.3154;stroke-linecap:round;stroke-miterlimit:10;stroke-dasharray:0,3.2884;}
  .st1{fill:url(#SVGID_2_);}
  .st2{fill:url(#SVGID_3_);}
  .st3{fill:url(#SVGID_4_);}
  .st4{fill:url(#SVGID_5_);}
  .st5{fill:url(#SVGID_6_);}
  .st6{fill:none;stroke:url(#SVGID_7_);stroke-miterlimit:10;}
  .st7{fill:none;stroke:url(#SVGID_8_);stroke-width:1.3154;stroke-linecap:round;stroke-miterlimit:10;stroke-dasharray:0,3.2884;}
  .st8{fill:url(#SVGID_9_);}
  .st9{fill:url(#SVGID_10_);}
  .st10{fill:none;stroke:url(#SVGID_11_);stroke-width:2;stroke-linecap:round;stroke-miterlimit:10;stroke-dasharray:0,5.1121;}
  .st11{fill:none;stroke:url(#SVGID_12_);stroke-width:2;stroke-linecap:round;stroke-miterlimit:10;stroke-dasharray:0,5.1121;}
  .st12{fill:none;stroke:url(#SVGID_13_);stroke-width:2;stroke-linecap:round;stroke-miterlimit:10;stroke-dasharray:0,5.1121;}
</style>
<g>
  <g>
    <g>
      <g>
        <linearGradient id="SVGID_1_" gradientUnits="userSpaceOnUse" x1="196.0297" y1="114.8903" x2="196.0297" y2="114.8903">
          <stop  offset="0" style="stop-color:#FFFFFF"/>
          <stop  offset="1" style="stop-color:#FFFFFF;stop-opacity:0"/>
        </linearGradient>
        <path class="st0" d="M196,114.9"/>
        <linearGradient id="SVGID_2_" gradientUnits="userSpaceOnUse" x1="173.2129" y1="122.9009" x2="214.2445" y2="122.9009">
          <stop  offset="0" style="stop-color:#005AFF;stop-opacity:0.15"/>
          <stop  offset="0.9594" style="stop-color:#005AFF;stop-opacity:0"/>
        </linearGradient>
        <polygon class="st1" points="214.2,85.4 214.2,135.3 173.2,160.4 173.2,110.8         "/>
        <linearGradient id="SVGID_3_" gradientUnits="userSpaceOnUse" x1="70.8858" y1="95.2698" x2="197.2129" y2="95.2698">
          <stop  offset="0.1317" style="stop-color:#005AFF;stop-opacity:0.2"/>
          <stop  offset="0.9594" style="stop-color:#005AFF;stop-opacity:0"/>
        </linearGradient>
        <path class="st2" d="M46.9,31.2v50l126.2,78.1l0.1-48.5L46.9,31.2z M79.7,95.7L52,77.5V41.4l27.7,19.2L79.7,95.7z"/>
        <linearGradient id="SVGID_4_" gradientUnits="userSpaceOnUse" x1="46.8858" y1="59.4775" x2="214.1137" y2="59.4775">
          <stop  offset="4.055892e-02" style="stop-color:#005AFF;stop-opacity:0"/>
          <stop  offset="1" style="stop-color:#005AFF;stop-opacity:0.15"/>
        </linearGradient>
        <polygon class="st3" points="173.1,110.8 214.1,85.4 87.9,8.2 46.9,31.2        "/>
        <g>
          <g>

              <linearGradient id="SVGID_5_" gradientUnits="userSpaceOnUse" x1="111.819" y1="-109.5091" x2="149.5447" y2="-109.5091" gradientTransform="matrix(1 0 0 -1 0 -28.3032)">
              <stop  offset="0" style="stop-color:#0072FF"/>
              <stop  offset="1" style="stop-color:#0072FF;stop-opacity:0.2"/>
            </linearGradient>
            <path class="st4" d="M149.6,86.8c0,10.5-8.4,18.9-18.9,18.9s-18.9-8.4-18.9-18.9c0-12.4,18.9-30.1,18.9-30.1
              S149.6,75,149.6,86.8z"/>
          </g>
        </g>
        <g>
          <g>

              <linearGradient id="SVGID_6_" gradientUnits="userSpaceOnUse" x1="155.835" y1="-137.8805" x2="193.5607" y2="-137.8805" gradientTransform="matrix(1 0 0 -1 0 -28.3032)">
              <stop  offset="0" style="stop-color:#0072FF"/>
              <stop  offset="1" style="stop-color:#0072FF;stop-opacity:0.2"/>
            </linearGradient>
            <path class="st5" d="M193.6,115.2c0,10.5-8.4,18.9-18.9,18.9c-10.5,0-18.9-8.4-18.9-18.9c0-12.4,18.9-30.1,18.9-30.1
              S193.6,103.4,193.6,115.2z"/>
          </g>
        </g>
        <g>
          <linearGradient id="SVGID_7_" gradientUnits="userSpaceOnUse" x1="40.046" y1="83.4403" x2="219.5389" y2="83.4403">
            <stop  offset="0" style="stop-color:#00D688"/>
            <stop  offset="1" style="stop-color:#0072FF"/>
          </linearGradient>
          <path class="st6" d="M94.5,117.6l45.5,28.1l33.3,20.6l45.8-28V82.6l-19-11.7l-72.9-45.1L86.3,0.6l-45.8,28v55.7l26.9,16.6
            L94.5,117.6"/>
        </g>
      </g>
      <linearGradient id="SVGID_8_" gradientUnits="userSpaceOnUse" x1="-32.4302" y1="84.2509" x2="-32.4302" y2="84.2509">
        <stop  offset="0" style="stop-color:#FFFFFF"/>
        <stop  offset="1" style="stop-color:#FFFFFF;stop-opacity:0"/>
      </linearGradient>
      <path class="st7" d="M-32.4,84.3"/>
      <g>
        <g>

            <linearGradient id="SVGID_9_" gradientUnits="userSpaceOnUse" x1="67.441" y1="-84.9937" x2="105.1667" y2="-84.9937" gradientTransform="matrix(1 0 0 -1 0 -28.3032)">
            <stop  offset="0" style="stop-color:#0072FF"/>
            <stop  offset="1" style="stop-color:#0072FF;stop-opacity:0.2"/>
          </linearGradient>
          <path class="st8" d="M105.2,62.3c0,10.5-8.4,18.9-18.9,18.9s-18.9-8.4-18.9-18.9c0-12.4,18.9-30.1,18.9-30.1
            S105.2,50.5,105.2,62.3z"/>
        </g>
      </g>
    </g>
  </g>
  <linearGradient id="SVGID_10_" gradientUnits="userSpaceOnUse" x1="2.3248" y1="80.1174" x2="99.8248" y2="174.1174">
    <stop  offset="1.482372e-03" style="stop-color:#005AFF;stop-opacity:0.2"/>
    <stop  offset="0.9589" style="stop-color:#005AFF;stop-opacity:5.000000e-02"/>
  </linearGradient>
  <polygon class="st9" points="5.6,69.2 5.6,105.4 32.3,122.1 32.4,86.9  "/>
  <linearGradient id="SVGID_11_" gradientUnits="userSpaceOnUse" x1="6.4979" y1="54.6757" x2="53.438" y2="54.6757">
    <stop  offset="0" style="stop-color:#00D688"/>
    <stop  offset="0.8489" style="stop-color:#0080FF"/>
  </linearGradient>
  <line class="st10" x1="52.4" y1="41.9" x2="7.5" y2="67.5"/>
  <linearGradient id="SVGID_12_" gradientUnits="userSpaceOnUse" x1="33.2684" y1="108.6449" x2="80.2666" y2="108.6449">
    <stop  offset="0.1511" style="stop-color:#0080FF"/>
    <stop  offset="1" style="stop-color:#00D688"/>
  </linearGradient>
  <line class="st11" x1="79.3" y1="95.5" x2="34.3" y2="121.8"/>
  <linearGradient id="SVGID_13_" gradientUnits="userSpaceOnUse" x1="33.3631" y1="73.9936" x2="80.7135" y2="73.9936">
    <stop  offset="0" style="stop-color:#00D688"/>
    <stop  offset="0.8489" style="stop-color:#0080FF"/>
  </linearGradient>
  <line class="st12" x1="79.7" y1="61.3" x2="34.4" y2="86.7"/>
</g>
</svg>
