<?xml version="1.0" encoding="utf-8"?>
<!-- Generator: Adobe Illustrator 21.1.0, SVG Export Plug-In . SVG Version: 6.00 Build 0)  -->
<svg version="1.1" id="Layer_1" xmlns="http://www.w3.org/2000/svg" xmlns:xlink="http://www.w3.org/1999/xlink" x="0px" y="0px"
	 viewBox="0 0 185.8 176.5" style="enable-background:new 0 0 185.8 176.5;" xml:space="preserve">
<style type="text/css">
	.st0{fill:none;stroke:url(#SVGID_1_);stroke-width:2;stroke-linecap:round;stroke-miterlimit:10;stroke-dasharray:0,5.1121;}
	.st1{fill:none;stroke:url(#SVGID_2_);stroke-width:1.3154;stroke-linecap:round;stroke-miterlimit:10;stroke-dasharray:0,3.2884;}
	.st2{fill:url(#SVGID_3_);}
	.st3{fill:url(#SVGID_4_);}
	.st4{fill:url(#SVGID_5_);}
	.st5{fill:url(#SVGID_6_);}
	.st6{fill:url(#SVGID_7_);}
	.st7{fill:none;stroke:url(#SVGID_8_);stroke-miterlimit:10;}
	.st8{fill:url(#SVGID_9_);}
	.st9{fill:none;stroke:#0072FF;stroke-width:2;stroke-linecap:round;stroke-miterlimit:10;stroke-dasharray:0,5.1121;}
	.st10{fill:none;stroke:#0072FF;stroke-miterlimit:10;}
</style>
<g>
	<linearGradient id="SVGID_1_" gradientUnits="userSpaceOnUse" x1="88.9334" y1="57.5915" x2="156.6366" y2="57.5915">
		<stop  offset="0" style="stop-color:#00D688"/>
		<stop  offset="0.8489" style="stop-color:#0080FF"/>
	</linearGradient>
	<line class="st0" x1="155.6" y1="77.9" x2="89.9" y2="37.3"/>
	<g>
		<g>
			<linearGradient id="SVGID_2_" gradientUnits="userSpaceOnUse" x1="155.9837" y1="124.5449" x2="155.9837" y2="124.5449">
				<stop  offset="0" style="stop-color:#FFFFFF"/>
				<stop  offset="1" style="stop-color:#FFFFFF;stop-opacity:0"/>
			</linearGradient>
			<path class="st1" d="M156,124.5"/>
			<linearGradient id="SVGID_3_" gradientUnits="userSpaceOnUse" x1="133.1668" y1="132.5554" x2="174.1984" y2="132.5554">
				<stop  offset="0" style="stop-color:#005AFF;stop-opacity:0.15"/>
				<stop  offset="0.9594" style="stop-color:#005AFF;stop-opacity:0"/>
			</linearGradient>
			<polygon class="st2" points="174.2,95 174.2,145 133.2,170.1 133.2,120.5 			"/>
			
				<linearGradient id="SVGID_4_" gradientUnits="userSpaceOnUse" x1="7066.1924" y1="104.9243" x2="7192.5195" y2="104.9243" gradientTransform="matrix(-1 0 0 1 7199.3589 0)">
				<stop  offset="4.055892e-02" style="stop-color:#005AFF;stop-opacity:0"/>
				<stop  offset="1" style="stop-color:#005AFF;stop-opacity:0.15"/>
			</linearGradient>
			<polygon class="st3" points="6.8,40.9 6.8,90.9 133,168.9 133.2,120.5 			"/>
			<linearGradient id="SVGID_5_" gradientUnits="userSpaceOnUse" x1="6.8397" y1="69.132" x2="174.0677" y2="69.132">
				<stop  offset="4.055892e-02" style="stop-color:#005AFF;stop-opacity:0"/>
				<stop  offset="1" style="stop-color:#005AFF;stop-opacity:0.15"/>
			</linearGradient>
			<polygon class="st4" points="133,120.4 174.1,95 47.9,17.8 6.8,40.9 			"/>
			<g>
				<g>
					
						<linearGradient id="SVGID_6_" gradientUnits="userSpaceOnUse" x1="71.7729" y1="30.438" x2="109.4986" y2="30.438" gradientTransform="matrix(1 0 0 -1 0 121.2983)">
						<stop  offset="0" style="stop-color:#0072FF"/>
						<stop  offset="1" style="stop-color:#0072FF;stop-opacity:0.2"/>
					</linearGradient>
					<path class="st5" d="M109.5,96.5c0,10.5-8.4,18.9-18.9,18.9S71.7,107,71.7,96.5c0-12.4,18.9-30.1,18.9-30.1
						S109.5,84.7,109.5,96.5z"/>
				</g>
			</g>
			<g>
				<g>
					
						<linearGradient id="SVGID_7_" gradientUnits="userSpaceOnUse" x1="115.7889" y1="2.0666" x2="153.5146" y2="2.0666" gradientTransform="matrix(1 0 0 -1 0 121.2983)">
						<stop  offset="0" style="stop-color:#0072FF"/>
						<stop  offset="1" style="stop-color:#0072FF;stop-opacity:0.2"/>
					</linearGradient>
					<path class="st6" d="M153.6,124.8c0,10.5-8.4,18.9-18.9,18.9c-10.5,0-18.9-8.4-18.9-18.9c0-12.4,18.9-30.1,18.9-30.1
						S153.6,113.1,153.6,124.8z"/>
				</g>
			</g>
			<g>
				<linearGradient id="SVGID_8_" gradientUnits="userSpaceOnUse" x1="0" y1="93.0948" x2="179.4928" y2="93.0948">
					<stop  offset="0.1368" style="stop-color:#00D688"/>
					<stop  offset="1" style="stop-color:#0072FF"/>
				</linearGradient>
				<path class="st7" d="M87.1,35.5L46.3,10.2l-45.8,28v55.7l26.9,16.6l27.1,16.8 M54.5,127.3l45.5,28.1l33.3,20.6l45.8-28V92.3
					l-19-11.7"/>
			</g>
		</g>
		<g>
			<g>
				
					<linearGradient id="SVGID_9_" gradientUnits="userSpaceOnUse" x1="27.395" y1="54.9534" x2="65.1207" y2="54.9534" gradientTransform="matrix(1 0 0 -1 0 121.2983)">
					<stop  offset="0" style="stop-color:#0072FF"/>
					<stop  offset="1" style="stop-color:#0072FF;stop-opacity:0.2"/>
				</linearGradient>
				<path class="st8" d="M65.2,72c0,10.5-8.4,18.9-18.9,18.9S27.4,82.4,27.4,72c0-12.4,18.9-30.1,18.9-30.1S65.2,60.2,65.2,72z"/>
			</g>
		</g>
	</g>
	<line class="st9" x1="126" y1="54.2" x2="126" y2="17.6"/>
	<rect x="125.6" y="0.5" class="st10" width="59.7" height="14.2"/>
</g>
</svg>
