<?xml version="1.0" encoding="UTF-8" standalone="no"?>
<!DOCTYPE svg PUBLIC "-//W3C//DTD SVG 1.1//EN" "http://www.w3.org/Graphics/SVG/1.1/DTD/svg11.dtd">
<svg width="100%" height="100%" viewBox="0 0 197 179" version="1.1" xmlns="http://www.w3.org/2000/svg" xmlns:xlink="http://www.w3.org/1999/xlink" xml:space="preserve" style="fill-rule:evenodd;clip-rule:evenodd;stroke-linecap:round;stroke-miterlimit:10;">
    <g>
        <path d="M148.3,131.3l-49.9,16.7l-49.8,-16.7l49.8,-16.7l49.9,16.7Z" style="fill:url(#_Linear1);fill-rule:nonzero;"/>
        <g>
            <g>
                <g>
                    <path d="M174.6,145.9" style="fill:none;stroke:#0069ff;stroke-width:1.5px;"/>
                    <path d="M174.6,149.2l0,1.6" style="fill:none;stroke:#0069ff;stroke-width:1.5px;stroke-dasharray:0,3.26;"/>
                    <path d="M174.6,152.5" style="fill:none;stroke:#0069ff;stroke-width:1.5px;"/>
                </g>
                <g>
                    <path d="M163.7,149.6" style="fill:none;stroke:#0069ff;stroke-width:1.5px;"/>
                    <path d="M163.7,152.8l0,1.6" style="fill:none;stroke:#0069ff;stroke-width:1.5px;stroke-dasharray:0,3.26;"/>
                    <path d="M163.7,156.1" style="fill:none;stroke:#0069ff;stroke-width:1.5px;"/>
                </g>
                <g>
                    <path d="M152.8,153.2" style="fill:none;stroke:#0069ff;stroke-width:1.5px;"/>
                    <path d="M152.8,156.4l0,1.7" style="fill:none;stroke:#0069ff;stroke-width:1.5px;stroke-dasharray:0,3.26;"/>
                    <path d="M152.8,159.7" style="fill:none;stroke:#0069ff;stroke-width:1.5px;"/>
                </g>
                <g>
                    <path d="M142,156.8" style="fill:none;stroke:#0069ff;stroke-width:1.5px;"/>
                    <path d="M142,160.1l0,1.6" style="fill:none;stroke:#0069ff;stroke-width:1.5px;stroke-dasharray:0,3.26;"/>
                    <path d="M142,163.3" style="fill:none;stroke:#0069ff;stroke-width:1.5px;"/>
                </g>
                <g>
                    <path d="M131.1,160.4" style="fill:none;stroke:#0069ff;stroke-width:1.5px;"/>
                    <path d="M131.1,163.7l0,1.6" style="fill:none;stroke:#0069ff;stroke-width:1.5px;stroke-dasharray:0,3.26;"/>
                    <path d="M131.1,166.9" style="fill:none;stroke:#0069ff;stroke-width:1.5px;"/>
                </g>
                <g>
                    <path d="M120.2,164" style="fill:none;stroke:#0069ff;stroke-width:1.5px;"/>
                    <path d="M120.2,167.3l0,1.6" style="fill:none;stroke:#0069ff;stroke-width:1.5px;stroke-dasharray:0,3.26;"/>
                    <path d="M120.2,170.6" style="fill:none;stroke:#0069ff;stroke-width:1.5px;"/>
                </g>
                <g>
                    <path d="M109.4,167.7" style="fill:none;stroke:#0069ff;stroke-width:1.5px;"/>
                    <path d="M109.4,170.9l0,1.7" style="fill:none;stroke:#0069ff;stroke-width:1.5px;stroke-dasharray:0,3.26;"/>
                    <path d="M109.4,174.2" style="fill:none;stroke:#0069ff;stroke-width:1.5px;"/>
                </g>
            </g>
            <g>
                <g>
                    <path d="M22.5,145.9" style="fill:none;stroke:#0069ff;stroke-width:1.5px;"/>
                    <path d="M22.5,149.2l0,1.6" style="fill:none;stroke:#0069ff;stroke-width:1.5px;stroke-dasharray:0,3.26;"/>
                    <path d="M22.5,152.5" style="fill:none;stroke:#0069ff;stroke-width:1.5px;"/>
                </g>
                <g>
                    <path d="M33.3,149.6" style="fill:none;stroke:#0069ff;stroke-width:1.5px;"/>
                    <path d="M33.3,152.8l0,1.6" style="fill:none;stroke:#0069ff;stroke-width:1.5px;stroke-dasharray:0,3.26;"/>
                    <path d="M33.3,156.1" style="fill:none;stroke:#0069ff;stroke-width:1.5px;"/>
                </g>
                <g>
                    <path d="M44.2,153.2" style="fill:none;stroke:#0069ff;stroke-width:1.5px;"/>
                    <path d="M44.2,156.4l0,1.7" style="fill:none;stroke:#0069ff;stroke-width:1.5px;stroke-dasharray:0,3.26;"/>
                    <path d="M44.2,159.7" style="fill:none;stroke:#0069ff;stroke-width:1.5px;"/>
                </g>
                <g>
                    <path d="M55.1,156.8" style="fill:none;stroke:#0069ff;stroke-width:1.5px;"/>
                    <path d="M55.1,160.1l0,1.6" style="fill:none;stroke:#0069ff;stroke-width:1.5px;stroke-dasharray:0,3.26;"/>
                    <path d="M55.1,163.3" style="fill:none;stroke:#0069ff;stroke-width:1.5px;"/>
                </g>
                <g>
                    <path d="M65.9,160.4" style="fill:none;stroke:#0069ff;stroke-width:1.5px;"/>
                    <path d="M65.9,163.7l0,1.6" style="fill:none;stroke:#0069ff;stroke-width:1.5px;stroke-dasharray:0,3.26;"/>
                    <path d="M65.9,166.9" style="fill:none;stroke:#0069ff;stroke-width:1.5px;"/>
                </g>
                <g>
                    <path d="M76.8,164" style="fill:none;stroke:#0069ff;stroke-width:1.5px;"/>
                    <path d="M76.8,167.3l0,1.6" style="fill:none;stroke:#0069ff;stroke-width:1.5px;stroke-dasharray:0,3.26;"/>
                    <path d="M76.8,170.6" style="fill:none;stroke:#0069ff;stroke-width:1.5px;"/>
                </g>
                <g>
                    <path d="M87.7,167.7" style="fill:none;stroke:#0069ff;stroke-width:1.5px;"/>
                    <path d="M87.7,170.9l0,1.7" style="fill:none;stroke:#0069ff;stroke-width:1.5px;stroke-dasharray:0,3.26;"/>
                    <path d="M87.7,174.2" style="fill:none;stroke:#0069ff;stroke-width:1.5px;"/>
                </g>
                <g>
                    <path d="M98.5,171.3" style="fill:none;stroke:#0069ff;stroke-width:1.5px;"/>
                    <path d="M98.5,174.5l0,1.7" style="fill:none;stroke:#0069ff;stroke-width:1.5px;stroke-dasharray:0,3.26;"/>
                    <path d="M98.5,177.8" style="fill:none;stroke:#0069ff;stroke-width:1.5px;"/>
                </g>
            </g>
        </g>
        <path d="M0,134.9l98.4,-32.9l98.4,32.9l0,-5.1l-98.4,-32.9l-98.4,32.9l0,5.1Z" style="fill:url(#_Linear2);fill-rule:nonzero;"/>
        <path d="M196.8,129.8l-98.4,32.9l-98.4,-32.9l0,5.1l98.4,32.9l98.4,-32.9l0,-5.1Z" style="fill:url(#_Linear3);fill-rule:nonzero;"/>
    </g>
    <rect x="75.2" y="36" width="47" height="95.8" style="fill:url(#_Linear4);"/>
    <g>
        <path id="XMLID_1713_" d="M121.8,34.7c0,12.7 -10.3,23.1 -23.1,23.1c-12.8,0 -23.1,-10.4 -23.1,-23.1c0,-16.5 23.1,-34.1 23.1,-34.1c0,0 23.1,18.2 23.1,34.1Z" style="fill:#fff;"/>
        <g>
            <path id="XMLID_1711_" d="M121.8,34.7c0,12.7 -10.3,23.1 -23.1,23.1c-12.8,0 -23.1,-10.4 -23.1,-23.1c0,-16.5 23.1,-34.1 23.1,-34.1c0,0 23.1,18.2 23.1,34.1Z" style="fill:none;stroke:#0069ff;stroke-width:1px;stroke-linecap:butt;"/>
            <path id="XMLID_1709_" d="M114.4,34.4c0,8.7 -7.1,15.8 -15.8,15.8c-8.7,0 -15.8,-7.1 -15.8,-15.8c0,-11.3 15.8,-23.3 15.8,-23.3c0,0 15.8,12.5 15.8,23.3Z" style="fill:url(#_Linear5);"/>
            <path id="XMLID_1708_" d="M103.2,34.6c0,2.6 -2.1,4.7 -4.7,4.7c-2.6,0 -4.7,-2.1 -4.7,-4.7c0,-2.6 4.7,-7.7 4.7,-7.7c0,0 4.7,5.1 4.7,7.7Z" style="fill:#0069ff;"/>
        </g>
    </g>
    <rect x="0.9" y="75.9" width="47" height="55.9" style="fill:url(#_Linear6);"/>
    <g>
        <path id="XMLID_1705_" d="M47.4,77.4c0,12.7 -10.3,23.1 -23.1,23.1c-12.8,0 -23,-10.4 -23,-23.1c0,-16.5 23.1,-34.1 23.1,-34.1c0,0 23,18.2 23,34.1Z" style="fill:#fff;"/>
        <g>
            <path id="XMLID_1703_" d="M47.4,77.4c0,12.7 -10.3,23.1 -23.1,23.1c-12.8,0 -23,-10.4 -23,-23.1c0,-16.5 23.1,-34.1 23.1,-34.1c0,0 23,18.2 23,34.1Z" style="fill:none;stroke:#0069ff;stroke-width:1px;stroke-linecap:butt;"/>
            <path id="XMLID_1701_" d="M40.1,77.1c0,8.7 -7.1,15.8 -15.8,15.8c-8.7,0 -15.7,-7.1 -15.7,-15.8c0,-11.3 15.8,-23.3 15.8,-23.3c0,0 15.7,12.5 15.7,23.3Z" style="fill:url(#_Linear7);"/>
            <path id="XMLID_1700_" d="M28.9,77.3c0,2.6 -2.1,4.7 -4.7,4.7c-2.6,0 -4.7,-2.1 -4.7,-4.7c0,-2.6 4.7,-7.7 4.7,-7.7c0,0 4.7,5.1 4.7,7.7Z" style="fill:#0069ff;"/>
        </g>
    </g>
    <rect x="149.2" y="75.9" width="47" height="55.9" style="fill:url(#_Linear8);"/>
    <g>
        <path id="XMLID_1717_" d="M195.8,77.4c0,12.7 -10.3,23.1 -23.1,23.1c-12.7,0 -23.1,-10.3 -23.1,-23.1c0,-16.5 23.1,-34.1 23.1,-34.1c0,0 23.1,18.2 23.1,34.1Z" style="fill:#fff;"/>
        <g>
            <path id="XMLID_1715_" d="M195.8,77.4c0,12.7 -10.3,23.1 -23.1,23.1c-12.7,0 -23.1,-10.3 -23.1,-23.1c0,-16.5 23.1,-34.1 23.1,-34.1c0,0 23.1,18.2 23.1,34.1Z" style="fill:none;stroke:#0069ff;stroke-width:1px;stroke-linecap:butt;"/>
            <path id="XMLID_1707_" d="M188.4,77.1c0,8.7 -7.1,15.8 -15.8,15.8c-8.7,0 -15.8,-7.1 -15.8,-15.8c0,-11.3 15.8,-23.3 15.8,-23.3c0,0 15.8,12.5 15.8,23.3Z" style="fill:url(#_Linear9);"/>
            <path id="XMLID_1706_" d="M177.2,77.3c0,2.6 -2.1,4.7 -4.7,4.7c-2.6,0 -4.7,-2.1 -4.7,-4.7c0,-2.6 4.7,-7.7 4.7,-7.7c0,0 4.7,5.1 4.7,7.7Z" style="fill:#0069ff;"/>
        </g>
    </g>
    <defs>
        <linearGradient id="_Linear1" x1="0" y1="0" x2="1" y2="0" gradientUnits="userSpaceOnUse" gradientTransform="matrix(99.68,0,0,99.68,48.6184,131.324)"><stop offset="0" style="stop-color:#0069ff;stop-opacity:0"/><stop offset="1" style="stop-color:#0069ff;stop-opacity:1"/></linearGradient>
        <linearGradient id="_Linear2" x1="0" y1="0" x2="1" y2="0" gradientUnits="userSpaceOnUse" gradientTransform="matrix(196.752,0,0,196.752,0,115.877)"><stop offset="0" style="stop-color:#0069ff;stop-opacity:0.498039"/><stop offset="1" style="stop-color:#0069ff;stop-opacity:0.0980392"/></linearGradient>
        <linearGradient id="_Linear3" x1="0" y1="0" x2="1" y2="0" gradientUnits="userSpaceOnUse" gradientTransform="matrix(196.752,0,0,196.752,1.628e-09,148.802)"><stop offset="0" style="stop-color:#0069ff;stop-opacity:1"/><stop offset="1" style="stop-color:#00da88;stop-opacity:1"/></linearGradient>
        <linearGradient id="_Linear4" x1="0" y1="0" x2="1" y2="0" gradientUnits="userSpaceOnUse" gradientTransform="matrix(5.82505e-15,95.1303,-95.1303,5.82505e-15,98.6836,36.6688)"><stop offset="0" style="stop-color:#0069ff;stop-opacity:0.14902"/><stop offset="1" style="stop-color:#0069ff;stop-opacity:0"/></linearGradient>
        <linearGradient id="_Linear5" x1="0" y1="0" x2="1" y2="0" gradientUnits="userSpaceOnUse" gradientTransform="matrix(-33.4407,-41.8508,41.8508,-33.4407,108.805,46.8537)"><stop offset="0" style="stop-color:#0069ff;stop-opacity:0.298039"/><stop offset="1" style="stop-color:#0069ff;stop-opacity:0"/></linearGradient>
        <linearGradient id="_Linear6" x1="0" y1="0" x2="1" y2="0" gradientUnits="userSpaceOnUse" gradientTransform="matrix(3.39467e-15,55.4392,-55.4392,3.39467e-15,24.3588,76.3599)"><stop offset="0" style="stop-color:#0069ff;stop-opacity:0.14902"/><stop offset="1" style="stop-color:#0069ff;stop-opacity:0"/></linearGradient>
        <linearGradient id="_Linear7" x1="0" y1="0" x2="1" y2="0" gradientUnits="userSpaceOnUse" gradientTransform="matrix(-33.4407,-41.8508,41.8508,-33.4407,34.4801,89.5537)"><stop offset="0" style="stop-color:#0069ff;stop-opacity:0.298039"/><stop offset="1" style="stop-color:#0069ff;stop-opacity:0"/></linearGradient>
        <linearGradient id="_Linear8" x1="0" y1="0" x2="1" y2="0" gradientUnits="userSpaceOnUse" gradientTransform="matrix(3.39467e-15,55.4392,-55.4392,3.39467e-15,172.681,76.3599)"><stop offset="0" style="stop-color:#0069ff;stop-opacity:0.14902"/><stop offset="1" style="stop-color:#0069ff;stop-opacity:0"/></linearGradient>
        <linearGradient id="_Linear9" x1="0" y1="0" x2="1" y2="0" gradientUnits="userSpaceOnUse" gradientTransform="matrix(-33.4407,-41.8508,41.8508,-33.4407,182.803,89.5537)"><stop offset="0" style="stop-color:#0069ff;stop-opacity:0.298039"/><stop offset="1" style="stop-color:#0069ff;stop-opacity:0"/></linearGradient>
    </defs>
</svg>
