<?xml version="1.0" encoding="UTF-8" standalone="no"?>
<!DOCTYPE svg PUBLIC "-//W3C//DTD SVG 1.1//EN" "http://www.w3.org/Graphics/SVG/1.1/DTD/svg11.dtd">
<svg width="100%" height="100%" viewBox="0 0 235 126" version="1.1" xmlns="http://www.w3.org/2000/svg" xmlns:xlink="http://www.w3.org/1999/xlink" xml:space="preserve" style="fill-rule:evenodd;clip-rule:evenodd;stroke-linecap:round;stroke-miterlimit:10;">
    <g>
        <path d="M51.1,0.8l183.1,0l0,123.9l-183.1,0" style="fill:#fff;fill-rule:nonzero;"/>
        <g>
            <path d="M51.1,0.8" style="fill:none;stroke:url(#_Linear1);stroke-width:1.5px;"/>
            <path d="M55.1,0.8l177.1,0" style="fill:none;stroke:url(#_Linear2);stroke-width:1.5px;stroke-dasharray:0,3.98;"/>
            <path d="M234.2,0.8" style="fill:none;stroke:url(#_Linear3);stroke-width:1.5px;"/>
            <path d="M234.2,4.7l0,118" style="fill:none;stroke:url(#_Linear4);stroke-width:1.5px;stroke-dasharray:0,4;"/>
            <path d="M234.2,124.7" style="fill:none;stroke:url(#_Linear5);stroke-width:1.5px;"/>
            <path d="M230.2,124.7l-177.1,0" style="fill:none;stroke:url(#_Linear6);stroke-width:1.5px;stroke-dasharray:0,3.98;"/>
            <path d="M51.1,124.7" style="fill:none;stroke:url(#_Linear7);stroke-width:1.5px;"/>
        </g>
    </g>
    <g>
        <path d="M49,124c-26.3,0 -48.5,-21.3 -48.5,-47.6c0,-40.1 48.5,-73.4 48.5,-73.4c0,0 48.5,34 48.5,73.5c0,26.2 -22.2,47.5 -48.5,47.5Z" style="fill:#fff;fill-rule:nonzero;stroke:url(#_Linear8);stroke-width:1px;"/>
        <path d="M49,115.5c-22.4,0 -40.5,-18.1 -40.5,-40.5c0,-31.6 40.5,-61 40.5,-61c0,0 40.5,28.7 40.5,61c0,22.4 -18.1,40.5 -40.5,40.5Z" style="fill:url(#_Linear9);fill-rule:nonzero;"/>
        <g>
            <path d="M49,88.3c-8.2,0 -14.9,-6.7 -14.9,-14.9c0,-11 13.4,-21.7 14,-22.1l0.9,-0.7l0.9,0.7c0.6,0.4 14,10.9 14,22.1c0,8.2 -6.7,14.9 -14.9,14.9Z" style="fill:url(#_Linear10);fill-rule:nonzero;"/>
            <path d="M49,52.5c0,0 13.4,10.3 13.4,21c0,7.4 -6,13.4 -13.4,13.4c-7.4,0 -13.4,-6 -13.4,-13.4c0,-10.5 13.4,-21 13.4,-21m0,-3.8l-1.8,1.4c-0.6,0.5 -14.5,11.5 -14.5,23.3c0,9 7.4,16.4 16.4,16.4c9,0 16.4,-7.4 16.4,-16.4c0,-12 -14,-22.9 -14.6,-23.3l-1.9,-1.4Z" style="fill:#fff;fill-rule:nonzero;"/>
        </g>
    </g>
    <path d="M222,112l-123,0c30,0 29.1,-31 49.8,-31c22.5,0 12.2,31 73.2,31Z" style="fill:url(#_Linear11);fill-rule:nonzero;"/>
    <path d="M222,112l-123,0c65.7,0 64.8,-46 88.2,-46c21.6,0 16.9,46 34.8,46Z" style="fill:url(#_Linear12);fill-rule:nonzero;"/>
    <path d="M99,112c65.7,0 64.8,-46 88.2,-46c21.6,0 16.9,46 34.7,46" style="fill:none;stroke:#fff;stroke-width:1px;stroke-linecap:butt;"/>
    <g>
        <rect x="114" y="19.1" width="98.6" height="5.4" style="fill:#0069ff;fill-opacity:0.23;"/>
        <rect x="114" y="30.3" width="98.6" height="5.4" style="fill:#0069ff;fill-opacity:0.23;"/>
        <rect x="114" y="41.6" width="98.6" height="5.4" style="fill:#0069ff;fill-opacity:0.23;"/>
        <rect x="114" y="19.1" width="27.1" height="5.4" style="fill:url(#_Linear13);"/>
        <rect x="114" y="30.3" width="75" height="5.4" style="fill:url(#_Linear14);"/>
        <rect x="114" y="41.6" width="50.3" height="5.4" style="fill:url(#_Linear15);"/>
        <path d="M114,16.2l0,34.8" style="fill:none;stroke:#0069ff;stroke-width:1px;stroke-linecap:butt;"/>
    </g>
    <path d="M222,112l-123,0" style="fill:none;stroke:url(#_Linear16);stroke-width:1px;stroke-linecap:butt;"/>
    <defs>
        <linearGradient id="_Linear1" x1="0" y1="0" x2="1" y2="0" gradientUnits="userSpaceOnUse" gradientTransform="matrix(184.549,0,0,184.549,50.371,0.75)"><stop offset="0" style="stop-color:#00d688;stop-opacity:0"/><stop offset="0.58" style="stop-color:#00d688;stop-opacity:1"/><stop offset="1" style="stop-color:#00d688;stop-opacity:1"/></linearGradient>
        <linearGradient id="_Linear2" x1="0" y1="0" x2="1" y2="0" gradientUnits="userSpaceOnUse" gradientTransform="matrix(184.549,0,0,184.549,50.371,0.75)"><stop offset="0" style="stop-color:#00d688;stop-opacity:0"/><stop offset="0.58" style="stop-color:#00d688;stop-opacity:1"/><stop offset="1" style="stop-color:#00d688;stop-opacity:1"/></linearGradient>
        <linearGradient id="_Linear3" x1="0" y1="0" x2="1" y2="0" gradientUnits="userSpaceOnUse" gradientTransform="matrix(184.549,0,0,184.549,50.371,0.75)"><stop offset="0" style="stop-color:#00d688;stop-opacity:0"/><stop offset="0.58" style="stop-color:#00d688;stop-opacity:1"/><stop offset="1" style="stop-color:#00d688;stop-opacity:1"/></linearGradient>
        <linearGradient id="_Linear4" x1="0" y1="0" x2="1" y2="0" gradientUnits="userSpaceOnUse" gradientTransform="matrix(184.549,0,0,184.549,50.371,63.7045)"><stop offset="0" style="stop-color:#00d688;stop-opacity:0"/><stop offset="0.58" style="stop-color:#00d688;stop-opacity:1"/><stop offset="1" style="stop-color:#00d688;stop-opacity:1"/></linearGradient>
        <linearGradient id="_Linear5" x1="0" y1="0" x2="1" y2="0" gradientUnits="userSpaceOnUse" gradientTransform="matrix(184.549,0,0,184.549,50.371,124.66)"><stop offset="0" style="stop-color:#00d688;stop-opacity:0"/><stop offset="0.58" style="stop-color:#00d688;stop-opacity:1"/><stop offset="1" style="stop-color:#00d688;stop-opacity:1"/></linearGradient>
        <linearGradient id="_Linear6" x1="0" y1="0" x2="1" y2="0" gradientUnits="userSpaceOnUse" gradientTransform="matrix(184.549,0,0,184.549,50.371,124.66)"><stop offset="0" style="stop-color:#00d688;stop-opacity:0"/><stop offset="0.58" style="stop-color:#00d688;stop-opacity:1"/><stop offset="1" style="stop-color:#00d688;stop-opacity:1"/></linearGradient>
        <linearGradient id="_Linear7" x1="0" y1="0" x2="1" y2="0" gradientUnits="userSpaceOnUse" gradientTransform="matrix(184.549,0,0,184.549,50.371,124.66)"><stop offset="0" style="stop-color:#00d688;stop-opacity:0"/><stop offset="0.58" style="stop-color:#00d688;stop-opacity:1"/><stop offset="1" style="stop-color:#00d688;stop-opacity:1"/></linearGradient>
        <linearGradient id="_Linear8" x1="0" y1="0" x2="1" y2="0" gradientUnits="userSpaceOnUse" gradientTransform="matrix(98.0296,0,0,98.0296,0,63.4495)"><stop offset="0" style="stop-color:#0069ff;stop-opacity:1"/><stop offset="0.15" style="stop-color:#0069ff;stop-opacity:1"/><stop offset="1" style="stop-color:#00d688;stop-opacity:1"/></linearGradient>
        <linearGradient id="_Linear9" x1="0" y1="0" x2="1" y2="0" gradientUnits="userSpaceOnUse" gradientTransform="matrix(70.788,40.5339,-40.5339,70.788,16.4599,49.2205)"><stop offset="0" style="stop-color:#0069ff;stop-opacity:0.2"/><stop offset="1" style="stop-color:#0069ff;stop-opacity:0.0470588"/></linearGradient>
        <linearGradient id="_Linear10" x1="0" y1="0" x2="1" y2="0" gradientUnits="userSpaceOnUse" gradientTransform="matrix(20.7395,-20.7395,20.7395,20.7395,39.415,81.8341)"><stop offset="0" style="stop-color:#0069ff;stop-opacity:1"/><stop offset="0.15" style="stop-color:#0070f8;stop-opacity:1"/><stop offset="0.36" style="stop-color:#0083e4;stop-opacity:1"/><stop offset="0.62" style="stop-color:#00a1c4;stop-opacity:1"/><stop offset="0.91" style="stop-color:#00cc97;stop-opacity:1"/><stop offset="1" style="stop-color:#00da88;stop-opacity:1"/></linearGradient>
        <linearGradient id="_Linear11" x1="0" y1="0" x2="1" y2="0" gradientUnits="userSpaceOnUse" gradientTransform="matrix(122.972,0,0,122.972,98.9954,96.4989)"><stop offset="0" style="stop-color:#0069ff;stop-opacity:0"/><stop offset="1" style="stop-color:#0069ff;stop-opacity:1"/></linearGradient>
        <linearGradient id="_Linear12" x1="0" y1="0" x2="1" y2="0" gradientUnits="userSpaceOnUse" gradientTransform="matrix(122.972,0,0,122.972,98.9954,88.9891)"><stop offset="0" style="stop-color:#0069ff;stop-opacity:0"/><stop offset="1" style="stop-color:#0069ff;stop-opacity:1"/></linearGradient>
        <linearGradient id="_Linear13" x1="0" y1="0" x2="1" y2="0" gradientUnits="userSpaceOnUse" gradientTransform="matrix(27.1402,0,0,27.1402,114.015,21.762)"><stop offset="0" style="stop-color:#0069ff;stop-opacity:0"/><stop offset="1" style="stop-color:#0069ff;stop-opacity:1"/></linearGradient>
        <linearGradient id="_Linear14" x1="0" y1="0" x2="1" y2="0" gradientUnits="userSpaceOnUse" gradientTransform="matrix(74.9564,0,0,74.9564,114.015,33.0266)"><stop offset="0" style="stop-color:#0069ff;stop-opacity:0"/><stop offset="1" style="stop-color:#0069ff;stop-opacity:1"/></linearGradient>
        <linearGradient id="_Linear15" x1="0" y1="0" x2="1" y2="0" gradientUnits="userSpaceOnUse" gradientTransform="matrix(50.2506,0,0,50.2506,114.015,44.2911)"><stop offset="0" style="stop-color:#0069ff;stop-opacity:0"/><stop offset="1" style="stop-color:#0069ff;stop-opacity:1"/></linearGradient>
        <linearGradient id="_Linear16" x1="0" y1="0" x2="1" y2="0" gradientUnits="userSpaceOnUse" gradientTransform="matrix(122.972,0,0,122.972,98.9954,111.988)"><stop offset="0" style="stop-color:#0069ff;stop-opacity:0"/><stop offset="1" style="stop-color:#0069ff;stop-opacity:1"/></linearGradient>
    </defs>
</svg>
