<?xml version="1.0" encoding="UTF-8" standalone="no"?>
<!DOCTYPE svg PUBLIC "-//W3C//DTD SVG 1.1//EN" "http://www.w3.org/Graphics/SVG/1.1/DTD/svg11.dtd">
<svg width="100%" height="100%" viewBox="0 0 354 216" version="1.1" xmlns="http://www.w3.org/2000/svg" xmlns:xlink="http://www.w3.org/1999/xlink" xml:space="preserve" style="fill-rule:evenodd;clip-rule:evenodd;stroke-linecap:round;stroke-miterlimit:10;">
    <path id="XMLID_1795_" d="M344,165.2l-66,-38.9l-66.6,39l0,-161.9l132.6,0l0,161.8Z" style="fill:url(#_Linear1);fill-rule:nonzero;"/>
    <g id="XMLID_1693_">
        <path id="XMLID_1791_" d="M344.6,165.5l-66.6,39.2l-67.1,-39.2l67.1,-39.2l66.6,39.2Z" style="fill:url(#_Linear2);fill-rule:nonzero;"/>
        <path id="XMLID_1695_" d="M210.9,165.5l66.5,-39.2l67.2,39.2l0,4.9l-67.2,-39.2l-66.5,39.2l0,-4.9Z" style="fill:url(#_Linear3);fill-rule:nonzero;"/>
        <g id="XMLID_1760_">
            <g id="XMLID_1783_">
                <g id="XMLID_8_">
                    <path d="M203,184.8" style="fill:none;stroke:#0072ff;stroke-width:1.5px;"/>
                    <path d="M206.6,182.7l5.4,-3.1" style="fill:none;stroke:#0072ff;stroke-width:1.5px;stroke-dasharray:0,4.2;"/>
                    <path d="M213.8,178.5" style="fill:none;stroke:#0072ff;stroke-width:1.5px;"/>
                </g>
                <g>
                    <path d="M211.3,189.8" style="fill:none;stroke:#0072ff;stroke-width:1.5px;"/>
                    <path d="M215,187.7l5.4,-3.2" style="fill:none;stroke:#0072ff;stroke-width:1.5px;stroke-dasharray:0,4.2;"/>
                    <path d="M222.2,183.4" style="fill:none;stroke:#0072ff;stroke-width:1.5px;"/>
                </g>
                <g>
                    <path d="M219.7,194.7" style="fill:none;stroke:#0072ff;stroke-width:1.5px;"/>
                    <path d="M223.4,192.6l5.4,-3.2" style="fill:none;stroke:#0072ff;stroke-width:1.5px;stroke-dasharray:0,4.2;"/>
                    <path d="M230.6,188.4" style="fill:none;stroke:#0072ff;stroke-width:1.5px;"/>
                </g>
                <g>
                    <path d="M228.1,199.6" style="fill:none;stroke:#0072ff;stroke-width:1.5px;"/>
                    <path d="M231.7,197.5l5.5,-3.1" style="fill:none;stroke:#0072ff;stroke-width:1.5px;stroke-dasharray:0,4.2;"/>
                    <path d="M239,193.3" style="fill:none;stroke:#0072ff;stroke-width:1.5px;"/>
                </g>
                <g>
                    <path d="M236.5,204.6" style="fill:none;stroke:#0072ff;stroke-width:1.5px;"/>
                    <path d="M240.1,202.5l5.5,-3.2" style="fill:none;stroke:#0072ff;stroke-width:1.5px;stroke-dasharray:0,4.2;"/>
                    <path d="M247.4,198.2" style="fill:none;stroke:#0072ff;stroke-width:1.5px;"/>
                </g>
                <g>
                    <path d="M244.9,209.5" style="fill:none;stroke:#0072ff;stroke-width:1.5px;"/>
                    <path d="M248.5,207.4l5.5,-3.2" style="fill:none;stroke:#0072ff;stroke-width:1.5px;stroke-dasharray:0,4.2;"/>
                    <path d="M255.8,203.2" style="fill:none;stroke:#0072ff;stroke-width:1.5px;"/>
                </g>
                <g id="XMLID_7_">
                    <path d="M253.3,214.4" style="fill:none;stroke:#0072ff;stroke-width:1.5px;"/>
                    <path d="M256.9,212.3l5.4,-3.2" style="fill:none;stroke:#0072ff;stroke-width:1.5px;stroke-dasharray:0,4.2;"/>
                    <path d="M264.2,208.1" style="fill:none;stroke:#0072ff;stroke-width:1.5px;"/>
                </g>
            </g>
            <g id="XMLID_1776_">
                <g id="XMLID_6_">
                    <path d="M353,184.8" style="fill:none;stroke:#0072ff;stroke-width:1.5px;"/>
                    <path d="M349.4,182.7l-5.4,-3.1" style="fill:none;stroke:#0072ff;stroke-width:1.5px;stroke-dasharray:0,4.2;"/>
                    <path d="M342.2,178.5" style="fill:none;stroke:#0072ff;stroke-width:1.5px;"/>
                </g>
                <g>
                    <path d="M344.6,189.8" style="fill:none;stroke:#0072ff;stroke-width:1.5px;"/>
                    <path d="M341,187.7l-5.4,-3.2" style="fill:none;stroke:#0072ff;stroke-width:1.5px;stroke-dasharray:0,4.2;"/>
                    <path d="M333.8,183.4" style="fill:none;stroke:#0072ff;stroke-width:1.5px;"/>
                </g>
                <g>
                    <path d="M336.3,194.7" style="fill:none;stroke:#0072ff;stroke-width:1.5px;"/>
                    <path d="M332.6,192.6l-5.4,-3.2" style="fill:none;stroke:#0072ff;stroke-width:1.5px;stroke-dasharray:0,4.2;"/>
                    <path d="M325.4,188.4" style="fill:none;stroke:#0072ff;stroke-width:1.5px;"/>
                </g>
                <g>
                    <path d="M327.9,199.6" style="fill:none;stroke:#0072ff;stroke-width:1.5px;"/>
                    <path d="M324.2,197.5l-5.4,-3.1" style="fill:none;stroke:#0072ff;stroke-width:1.5px;stroke-dasharray:0,4.2;"/>
                    <path d="M317,193.3" style="fill:none;stroke:#0072ff;stroke-width:1.5px;"/>
                </g>
                <g>
                    <path d="M319.5,204.6" style="fill:none;stroke:#0072ff;stroke-width:1.5px;"/>
                    <path d="M315.9,202.5l-5.5,-3.2" style="fill:none;stroke:#0072ff;stroke-width:1.5px;stroke-dasharray:0,4.2;"/>
                    <path d="M308.6,198.2" style="fill:none;stroke:#0072ff;stroke-width:1.5px;"/>
                </g>
                <g>
                    <path d="M311.1,209.5" style="fill:none;stroke:#0072ff;stroke-width:1.5px;"/>
                    <path d="M307.5,207.4l-5.5,-3.2" style="fill:none;stroke:#0072ff;stroke-width:1.5px;stroke-dasharray:0,4.2;"/>
                    <path d="M300.2,203.2" style="fill:none;stroke:#0072ff;stroke-width:1.5px;"/>
                </g>
                <g id="XMLID_5_">
                    <path d="M302.7,214.4" style="fill:none;stroke:#0072ff;stroke-width:1.5px;"/>
                    <path d="M299.1,212.3l-5.4,-3.2" style="fill:none;stroke:#0072ff;stroke-width:1.5px;stroke-dasharray:0,4.2;"/>
                    <path d="M291.8,208.1" style="fill:none;stroke:#0072ff;stroke-width:1.5px;"/>
                </g>
            </g>
            <g id="XMLID_1761_">
                <g id="XMLID_1769_">
                    <g id="XMLID_4_">
                        <path d="M352,150.2" style="fill:none;stroke:#0072ff;stroke-width:1.5px;"/>
                        <path d="M348.4,152.3l-5.4,3.1" style="fill:none;stroke:#0072ff;stroke-width:1.5px;stroke-dasharray:0,4.2;"/>
                        <path d="M341.2,156.5" style="fill:none;stroke:#0072ff;stroke-width:1.5px;"/>
                    </g>
                    <g>
                        <path d="M343.6,145.2" style="fill:none;stroke:#0072ff;stroke-width:1.5px;"/>
                        <path d="M340,147.3l-5.4,3.2" style="fill:none;stroke:#0072ff;stroke-width:1.5px;stroke-dasharray:0,4.2;"/>
                        <path d="M332.8,151.6" style="fill:none;stroke:#0072ff;stroke-width:1.5px;"/>
                    </g>
                    <g>
                        <path d="M335.3,140.3" style="fill:none;stroke:#0072ff;stroke-width:1.5px;"/>
                        <path d="M331.6,142.4l-5.4,3.2" style="fill:none;stroke:#0072ff;stroke-width:1.5px;stroke-dasharray:0,4.2;"/>
                        <path d="M324.4,146.6" style="fill:none;stroke:#0072ff;stroke-width:1.5px;"/>
                    </g>
                    <g>
                        <path d="M326.9,135.4" style="fill:none;stroke:#0072ff;stroke-width:1.5px;"/>
                        <path d="M323.2,137.5l-5.4,3.1" style="fill:none;stroke:#0072ff;stroke-width:1.5px;stroke-dasharray:0,4.2;"/>
                        <path d="M316,141.7" style="fill:none;stroke:#0072ff;stroke-width:1.5px;"/>
                    </g>
                    <g>
                        <path d="M318.5,130.4" style="fill:none;stroke:#0072ff;stroke-width:1.5px;"/>
                        <path d="M314.9,132.5l-5.5,3.2" style="fill:none;stroke:#0072ff;stroke-width:1.5px;stroke-dasharray:0,4.2;"/>
                        <path d="M307.6,136.8" style="fill:none;stroke:#0072ff;stroke-width:1.5px;"/>
                    </g>
                    <g>
                        <path d="M310.1,125.5" style="fill:none;stroke:#0072ff;stroke-width:1.5px;"/>
                        <path d="M306.5,127.6l-5.5,3.2" style="fill:none;stroke:#0072ff;stroke-width:1.5px;stroke-dasharray:0,4.2;"/>
                        <path d="M299.2,131.8" style="fill:none;stroke:#0072ff;stroke-width:1.5px;"/>
                    </g>
                    <g id="XMLID_3_">
                        <path d="M301.7,120.6" style="fill:none;stroke:#0072ff;stroke-width:1.5px;"/>
                        <path d="M298.1,122.7l-5.4,3.2" style="fill:none;stroke:#0072ff;stroke-width:1.5px;stroke-dasharray:0,4.2;"/>
                        <path d="M290.8,126.9" style="fill:none;stroke:#0072ff;stroke-width:1.5px;"/>
                    </g>
                </g>
                <g id="XMLID_1762_">
                    <g id="XMLID_2_">
                        <path d="M201.9,150.2" style="fill:none;stroke:#0072ff;stroke-width:1.5px;"/>
                        <path d="M205.5,152.3l5.4,3.1" style="fill:none;stroke:#0072ff;stroke-width:1.5px;stroke-dasharray:0,4.2;"/>
                        <path d="M212.7,156.5" style="fill:none;stroke:#0072ff;stroke-width:1.5px;"/>
                    </g>
                    <g>
                        <path d="M210.3,145.2" style="fill:none;stroke:#0072ff;stroke-width:1.5px;"/>
                        <path d="M213.9,147.3l5.4,3.2" style="fill:none;stroke:#0072ff;stroke-width:1.5px;stroke-dasharray:0,4.2;"/>
                        <path d="M221.1,151.6" style="fill:none;stroke:#0072ff;stroke-width:1.5px;"/>
                    </g>
                    <g>
                        <path d="M218.6,140.3" style="fill:none;stroke:#0072ff;stroke-width:1.5px;"/>
                        <path d="M222.3,142.4l5.4,3.2" style="fill:none;stroke:#0072ff;stroke-width:1.5px;stroke-dasharray:0,4.2;"/>
                        <path d="M229.5,146.6" style="fill:none;stroke:#0072ff;stroke-width:1.5px;"/>
                    </g>
                    <g>
                        <path d="M227,135.4" style="fill:none;stroke:#0072ff;stroke-width:1.5px;"/>
                        <path d="M230.6,137.5l5.5,3.1" style="fill:none;stroke:#0072ff;stroke-width:1.5px;stroke-dasharray:0,4.2;"/>
                        <path d="M237.9,141.7" style="fill:none;stroke:#0072ff;stroke-width:1.5px;"/>
                    </g>
                    <g>
                        <path d="M235.4,130.4" style="fill:none;stroke:#0072ff;stroke-width:1.5px;"/>
                        <path d="M239,132.5l5.5,3.2" style="fill:none;stroke:#0072ff;stroke-width:1.5px;stroke-dasharray:0,4.2;"/>
                        <path d="M246.3,136.8" style="fill:none;stroke:#0072ff;stroke-width:1.5px;"/>
                    </g>
                    <g>
                        <path d="M243.8,125.5" style="fill:none;stroke:#0072ff;stroke-width:1.5px;"/>
                        <path d="M247.4,127.6l5.5,3.2" style="fill:none;stroke:#0072ff;stroke-width:1.5px;stroke-dasharray:0,4.2;"/>
                        <path d="M254.7,131.8" style="fill:none;stroke:#0072ff;stroke-width:1.5px;"/>
                    </g>
                    <g id="XMLID_1_">
                        <path d="M252.2,120.6" style="fill:none;stroke:#0072ff;stroke-width:1.5px;"/>
                        <path d="M255.8,122.7l5.4,3.2" style="fill:none;stroke:#0072ff;stroke-width:1.5px;stroke-dasharray:0,4.2;"/>
                        <path d="M263.1,126.9" style="fill:none;stroke:#0072ff;stroke-width:1.5px;"/>
                    </g>
                </g>
            </g>
        </g>
        <path id="XMLID_1759_" d="M304.2,166l-26.3,15.5l-26.5,-15.5l26.5,-15.5l26.3,15.5Z" style="fill:#fff;fill-rule:nonzero;"/>
        <path id="XMLID_1793_" d="M344.6,170.4l-66.6,39.2l-67.1,-39.2l0,-4.9l67.1,39.2l66.6,-39.2l0,4.9Z" style="fill:url(#_Linear4);fill-rule:nonzero;"/>
    </g>
    <path id="XMLID_1930_" d="M329.1,111.3c0,28.4 -23,51.4 -51.4,51.4c-28.4,0 -51.4,-23 -51.4,-51.4c0,-36.7 51.4,-74.4 51.4,-74.4c0,0 51.4,39.1 51.4,74.4Z" style="fill:#fff;fill-opacity:0.3;"/>
    <path id="XMLID_1688_" d="M329.1,99.3c0,28.4 -23,51.4 -51.4,51.4c-28.4,0 -51.4,-23 -51.4,-51.4c0,-36.7 51.4,-74.4 51.4,-74.4c0,0 51.4,39.1 51.4,74.4Z" style="fill:#fff;fill-opacity:0.5;"/>
    <path id="XMLID_1934_" d="M329.1,87.2c0,28.4 -23,51.4 -51.4,51.4c-28.4,0 -51.4,-23 -51.4,-51.4c0,-36.7 51.4,-74.4 51.4,-74.4c0,0 51.4,39.1 51.4,74.4Z" style="fill:#fff;"/>
    <g>
        <path id="XMLID_1806_" d="M329.1,76.1c0,28.4 -23,51.4 -51.4,51.4c-28.4,0 -51.4,-23 -51.4,-51.4c0,-36.7 51.4,-74.4 51.4,-74.4c0,0 51.4,39.1 51.4,74.4Z" style="fill:#fff;stroke:url(#_Linear5);stroke-width:1px;"/>
        <path id="XMLID_1804_" d="M312.8,75.4c0,19.4 -15.7,35.1 -35.1,35.1c-19.4,0 -35.1,-15.7 -35.1,-35.1c0,-25.1 35.1,-50.3 35.1,-50.3c0,0 35.1,26.2 35.1,50.3Z" style="fill:url(#_Linear6);"/>
        <path id="XMLID_1775_" d="M287.8,75.9c0,5.8 -4.7,10.5 -10.5,10.5c-5.8,0 -10.5,-4.7 -10.5,-10.5c0,-5.8 10.5,-15.5 10.5,-15.5c0,0 10.5,9.7 10.5,15.5Z" style="fill:url(#_Linear7);"/>
    </g>
    <path id="XMLID_1683_" d="M344,165.6l-66,39.1l0,-203l66,1.7l0,162.2Z" style="fill:url(#_Linear8);fill-rule:nonzero;"/>
    <g>
        <path d="M8,15.9l118,0l0,193.7l-118,0l0,-193.7Z" style="fill:url(#_Linear9);fill-rule:nonzero;"/>
        <g>
            <g opacity="0.61">
                <path d="M50.7,33.4l31.5,0" style="fill:none;stroke:#fff;stroke-width:2px;stroke-linecap:butt;"/>
                <path d="M23.7,33.4l18,0" style="fill:none;stroke:#fff;stroke-width:2px;stroke-linecap:butt;"/>
                <path d="M23.7,40.9l45,0" style="fill:none;stroke:#fff;stroke-width:2px;stroke-linecap:butt;"/>
                <path d="M68.7,48.4l13.5,0" style="fill:none;stroke:#0069ff;stroke-width:1.5px;"/>
                <path d="M23.7,48.4l37.1,0" style="fill:none;stroke:#fff;stroke-width:2px;stroke-linecap:butt;"/>
                <path d="M68.7,77.4l13.5,0" style="fill:none;stroke:#fff;stroke-width:2px;stroke-linecap:butt;"/>
                <path d="M23.7,77.4l37.1,0" style="fill:none;stroke:#fff;stroke-width:2px;stroke-linecap:butt;"/>
                <path d="M23.7,62.4l27,0" style="fill:none;stroke:#fff;stroke-width:2px;stroke-linecap:butt;"/>
                <path d="M50.7,69.9l21.4,0" style="fill:none;stroke:#0069ff;stroke-width:1.5px;"/>
                <path d="M23.7,69.9l18,0" style="fill:none;stroke:#fff;stroke-width:2px;stroke-linecap:butt;"/>
                <path d="M50.7,91.4l31.5,0" style="fill:none;stroke:#fff;stroke-width:2px;stroke-linecap:butt;"/>
                <path d="M23.7,91.4l18,0" style="fill:none;stroke:#0069ff;stroke-width:1.5px;"/>
            </g>
        </g>
        <g>
            <g opacity="0.61">
                <path d="M23.7,105.3l45,0" style="fill:none;stroke:#fff;stroke-width:2px;stroke-linecap:butt;"/>
                <path d="M68.7,112.8l13.5,0" style="fill:none;stroke:#0069ff;stroke-width:1.5px;"/>
                <path d="M23.7,112.8l37.1,0" style="fill:none;stroke:#fff;stroke-width:2px;stroke-linecap:butt;"/>
                <path d="M68.7,141.8l13.5,0" style="fill:none;stroke:#fff;stroke-width:2px;stroke-linecap:butt;"/>
                <path d="M23.7,141.8l37.1,0" style="fill:none;stroke:#fff;stroke-width:2px;stroke-linecap:butt;"/>
                <path d="M23.7,126.7l27,0" style="fill:none;stroke:#fff;stroke-width:2px;stroke-linecap:butt;"/>
                <path d="M50.7,134.2l21.4,0" style="fill:none;stroke:#fff;stroke-width:2px;stroke-linecap:butt;"/>
                <path d="M23.7,134.2l18,0" style="fill:none;stroke:#0069ff;stroke-width:1.5px;"/>
                <path d="M50.7,155.7l31.5,0" style="fill:none;stroke:#fff;stroke-width:2px;stroke-linecap:butt;"/>
                <path d="M23.7,155.7l18,0" style="fill:none;stroke:#0069ff;stroke-width:1.5px;"/>
            </g>
        </g>
        <path d="M10.2,9.1l57.4,0" style="fill:none;stroke:#0072ff;stroke-width:1.5px;stroke-dasharray:0,4;"/>
        <path d="M0.5,0.5l132.7,0.5l0.7,164.5l-133.1,-0.5l-0.3,-164.5Z" style="fill:none;stroke:url(#_Linear10);stroke-width:1px;"/>
    </g>
    <path d="M137.9,77.4l85.3,0" style="fill:#fff;fill-rule:nonzero;stroke:url(#_Linear11);stroke-width:1.5px;stroke-dasharray:0,4;"/>
    <defs>
        <linearGradient id="_Linear1" x1="0" y1="0" x2="1" y2="0" gradientUnits="userSpaceOnUse" gradientTransform="matrix(9.73366e-15,-158.963,158.963,9.73366e-15,277.674,163.71)"><stop offset="0" style="stop-color:#0069ff;stop-opacity:0.2"/><stop offset="1" style="stop-color:#0069ff;stop-opacity:0"/></linearGradient>
        <linearGradient id="_Linear2" x1="0" y1="0" x2="1" y2="0" gradientUnits="userSpaceOnUse" gradientTransform="matrix(131.661,0,0,131.661,212.427,165.529)"><stop offset="0" style="stop-color:#0069ff;stop-opacity:0.0980392"/><stop offset="1" style="stop-color:#0069ff;stop-opacity:0.298039"/></linearGradient>
        <linearGradient id="_Linear3" x1="0" y1="0" x2="1" y2="0" gradientUnits="userSpaceOnUse" gradientTransform="matrix(142.125,0,0,142.125,221.541,148.384)"><stop offset="0" style="stop-color:#0069ff;stop-opacity:0.0980392"/><stop offset="1" style="stop-color:#0069ff;stop-opacity:0.4"/></linearGradient>
        <linearGradient id="_Linear4" x1="0" y1="0" x2="1" y2="0" gradientUnits="userSpaceOnUse" gradientTransform="matrix(142.124,0,0,142.124,221.541,187.567)"><stop offset="0" style="stop-color:#0069ff;stop-opacity:1"/><stop offset="0.55" style="stop-color:#60a1ff;stop-opacity:1"/><stop offset="1" style="stop-color:#b3d2ff;stop-opacity:1"/></linearGradient>
        <linearGradient id="_Linear5" x1="0" y1="0" x2="1" y2="0" gradientUnits="userSpaceOnUse" gradientTransform="matrix(103.873,0,0,103.873,225.694,64.5619)"><stop offset="0" style="stop-color:#0080ff;stop-opacity:1"/><stop offset="0.15" style="stop-color:#0080ff;stop-opacity:1"/><stop offset="1" style="stop-color:#00d688;stop-opacity:1"/></linearGradient>
        <linearGradient id="_Linear6" x1="0" y1="0" x2="1" y2="0" gradientUnits="userSpaceOnUse" gradientTransform="matrix(-44.9877,-56.3019,56.3019,-44.9877,300.048,103.322)"><stop offset="0" style="stop-color:#0069ff;stop-opacity:0.4"/><stop offset="1" style="stop-color:#0069ff;stop-opacity:0.0980392"/></linearGradient>
        <linearGradient id="_Linear7" x1="0" y1="0" x2="1" y2="0" gradientUnits="userSpaceOnUse" gradientTransform="matrix(16.1604,16.1603,-16.1603,16.1604,269.725,68.0275)"><stop offset="0" style="stop-color:#0069ff;stop-opacity:1"/><stop offset="1" style="stop-color:#0069ff;stop-opacity:0.2"/></linearGradient>
        <linearGradient id="_Linear8" x1="0" y1="0" x2="1" y2="0" gradientUnits="userSpaceOnUse" gradientTransform="matrix(1.23867e-14,-202.29,202.29,1.23867e-14,311.014,205.798)"><stop offset="0" style="stop-color:#0069ff;stop-opacity:0.0980392"/><stop offset="1" style="stop-color:#0069ff;stop-opacity:0"/></linearGradient>
        <linearGradient id="_Linear9" x1="0" y1="0" x2="1" y2="0" gradientUnits="userSpaceOnUse" gradientTransform="matrix(1.16902e-14,190.915,-190.915,1.16902e-14,66.9932,18.5165)"><stop offset="0" style="stop-color:#0069ff;stop-opacity:1"/><stop offset="1" style="stop-color:#0069ff;stop-opacity:0"/></linearGradient>
        <linearGradient id="_Linear10" x1="0" y1="0" x2="1" y2="0" gradientUnits="userSpaceOnUse" gradientTransform="matrix(1.01665e-14,166.031,-166.031,1.01665e-14,67.1814,0)"><stop offset="0" style="stop-color:#0069ff;stop-opacity:1"/><stop offset="1" style="stop-color:#00d688;stop-opacity:1"/></linearGradient>
        <linearGradient id="_Linear11" x1="0" y1="0" x2="1" y2="0" gradientUnits="userSpaceOnUse" gradientTransform="matrix(86.8328,0,0,86.8328,137.111,77.4212)"><stop offset="0" style="stop-color:#00d688;stop-opacity:1"/><stop offset="1" style="stop-color:#0069ff;stop-opacity:1"/></linearGradient>
    </defs>
</svg>
