<?xml version="1.0" encoding="UTF-8" standalone="no"?>
<!DOCTYPE svg PUBLIC "-//W3C//DTD SVG 1.1//EN" "http://www.w3.org/Graphics/SVG/1.1/DTD/svg11.dtd">
<svg width="100%" height="100%" viewBox="0 0 1319 500" version="1.1" xmlns="http://www.w3.org/2000/svg" xmlns:xlink="http://www.w3.org/1999/xlink" xml:space="preserve" style="fill-rule:evenodd;clip-rule:evenodd;stroke-linecap:round;stroke-miterlimit:10;">
    <g>
        <path id="XMLID_1588_" d="M1072.4,427.9l0,88l-180.9,0l0,-88l90.8,-53l90.1,53Z" style="fill:url(#_Linear1);fill-rule:nonzero;"/>
        <path id="XMLID_1585_" d="M1072.4,428.6l-90.1,53l-90.8,-53l90.8,-53l90.1,53Z" style="fill:url(#_Linear2);fill-rule:nonzero;"/>
        <path id="XMLID_1581_" d="M1071.4,380.8l-89,-45.5l-90,43.1l0,-248.9l179,0l0,251.3Z" style="fill:url(#_Linear3);fill-rule:nonzero;"/>
        <g id="XMLID_1563_">
            <path id="XMLID_1580_" d="M1072.2,382.9l-89.8,52.9l-90.7,-52.9l0,-6.6l90.7,52.9l89.8,-52.9l0,6.6Z" style="fill:url(#_Linear4);fill-rule:nonzero;"/>
            <path id="XMLID_1578_" d="M1072.2,376.3l-89.8,52.9l-90.7,-52.9l90.7,-52.9l89.8,52.9Z" style="fill:#0080ff;fill-rule:nonzero;"/>
            <path id="XMLID_1575_" d="M1012.5,375.7l-30.2,17.8l-30.6,-17.8l30.6,-17.8l30.2,17.8Z" style="fill:#fff;fill-rule:nonzero;"/>
            <g id="XMLID_1564_">
                <path d="M1043.3,375.7l0,0.1" style="fill:none;stroke:url(#_Linear5);stroke-width:2px;"/>
                <path d="M1039,378.3l-54.4,32" style="fill:none;stroke:url(#_Linear6);stroke-width:2px;stroke-dasharray:0.1,4.95;"/>
                <path d="M982.4,411.6l-0.1,0" style="fill:none;stroke:url(#_Linear7);stroke-width:2px;"/>
                <path d="M978,409.1l-54.9,-32.1" style="fill:none;stroke:url(#_Linear8);stroke-width:2px;stroke-dasharray:0.1,4.99;"/>
                <path d="M920.9,375.8l0,-0.1" style="fill:none;stroke:url(#_Linear9);stroke-width:2px;"/>
                <path d="M925.2,373.2l55,-32.1" style="fill:none;stroke:url(#_Linear10);stroke-width:2px;stroke-dasharray:0.1,4.99;"/>
                <path d="M982.3,339.9l0.1,-0.1l0,0.1" style="fill:none;stroke:url(#_Linear11);stroke-width:2px;"/>
                <path d="M986.7,342.4l54.5,32" style="fill:none;stroke:url(#_Linear12);stroke-width:2px;stroke-dasharray:0.1,4.95;"/>
            </g>
        </g>
        <g id="XMLID_1559_">
            <path id="XMLID_1562_" d="M1071.4,214.3c0,49.4 -40.1,89.5 -89.5,89.5c-49.4,0 -89.5,-40.1 -89.5,-89.5c0,-63.9 89.5,-132.1 89.5,-132.1c0,0 89.5,70.7 89.5,132.1Z" style="fill:none;stroke:#fff;stroke-width:1px;stroke-linecap:butt;"/>
            <path id="XMLID_1561_" d="M1043,213.2c0,33.8 -27.4,61.1 -61.1,61.1c-33.7,0 -61.1,-27.4 -61.1,-61.1c0,-43.7 61.1,-90.3 61.1,-90.3c0,0 61.1,48.3 61.1,90.3Z" style="fill:url(#_Linear13);"/>
            <path id="XMLID_1560_" d="M999.5,214c0,10.1 -8.2,18.3 -18.3,18.3c-10.1,0 -18.3,-8.2 -18.3,-18.3c0,-10.1 18.3,-29.8 18.3,-29.8c0,0 18.3,19.7 18.3,29.8Z" style="fill:url(#_Linear14);"/>
        </g>
        <path id="XMLID_1558_" d="M1071.1,377.4l-89,51.8l0,-377.4l89,-5.9l0,331.5Z" style="fill:url(#_Linear15);fill-rule:nonzero;"/>
        <g id="XMLID_1480_">
            <g id="XMLID_1546_">
                <path id="XMLID_8_" d="M882.4,401l14.7,-8.6" style="fill:none;stroke:#fff;stroke-width:1px;stroke-linecap:butt;"/>
                <path d="M893.7,407.7l14.7,-8.6" style="fill:none;stroke:#fff;stroke-width:1px;stroke-linecap:butt;"/>
                <path d="M905.1,414.3l14.6,-8.5" style="fill:none;stroke:#fff;stroke-width:1px;stroke-linecap:butt;"/>
                <path d="M916.4,421l14.6,-8.6" style="fill:none;stroke:#fff;stroke-width:1px;stroke-linecap:butt;"/>
                <path d="M927.7,427.6l14.7,-8.5" style="fill:none;stroke:#fff;stroke-width:1px;stroke-linecap:butt;"/>
                <path d="M939,434.3l14.7,-8.6" style="fill:none;stroke:#fff;stroke-width:1px;stroke-linecap:butt;"/>
                <path id="XMLID_7_" d="M950.3,440.9l14.7,-8.5" style="fill:none;stroke:#fff;stroke-width:1px;stroke-linecap:butt;"/>
            </g>
            <g id="XMLID_1534_">
                <path id="XMLID_6_" d="M1082.3,401l-14.7,-8.6" style="fill:none;stroke:#fff;stroke-width:1px;stroke-linecap:butt;"/>
                <path d="M1070.9,407.7l-14.6,-8.6" style="fill:none;stroke:#fff;stroke-width:1px;stroke-linecap:butt;"/>
                <path d="M1059.6,414.3l-14.6,-8.5" style="fill:none;stroke:#fff;stroke-width:1px;stroke-linecap:butt;"/>
                <path d="M1048.3,421l-14.7,-8.6" style="fill:none;stroke:#fff;stroke-width:1px;stroke-linecap:butt;"/>
                <path d="M1037,427.6l-14.7,-8.5" style="fill:none;stroke:#fff;stroke-width:1px;stroke-linecap:butt;"/>
                <path d="M1025.7,434.3l-14.7,-8.6" style="fill:none;stroke:#fff;stroke-width:1px;stroke-linecap:butt;"/>
                <path id="XMLID_5_" d="M1014.4,440.9l-14.7,-8.5" style="fill:none;stroke:#fff;stroke-width:1px;stroke-linecap:butt;"/>
            </g>
            <g id="XMLID_1481_">
                <g id="XMLID_1522_">
                    <path id="XMLID_4_" d="M1082.3,355.5l-14.7,8.6" style="fill:none;stroke:#fff;stroke-width:1px;stroke-linecap:butt;"/>
                    <path d="M1070.9,348.9l-14.6,8.5" style="fill:none;stroke:#fff;stroke-width:1px;stroke-linecap:butt;"/>
                    <path d="M1059.6,342.2l-14.6,8.6" style="fill:none;stroke:#fff;stroke-width:1px;stroke-linecap:butt;"/>
                    <path d="M1048.3,335.6l-14.7,8.5" style="fill:none;stroke:#fff;stroke-width:1px;stroke-linecap:butt;"/>
                    <path d="M1037,328.9l-14.7,8.6" style="fill:none;stroke:#fff;stroke-width:1px;stroke-linecap:butt;"/>
                    <path d="M1025.7,322.2l-14.7,8.6" style="fill:none;stroke:#fff;stroke-width:1px;stroke-linecap:butt;"/>
                    <path id="XMLID_3_" d="M1014.4,315.6l-14.7,8.6" style="fill:none;stroke:#fff;stroke-width:1px;stroke-linecap:butt;"/>
                </g>
                <g id="XMLID_1482_">
                    <path id="XMLID_2_" d="M879.6,355.5l14.7,8.6" style="fill:none;stroke:#fff;stroke-width:1px;stroke-linecap:butt;"/>
                    <path d="M890.9,348.9l14.7,8.5" style="fill:none;stroke:#fff;stroke-width:1px;stroke-linecap:butt;"/>
                    <path d="M902.2,342.2l14.7,8.6" style="fill:none;stroke:#fff;stroke-width:1px;stroke-linecap:butt;"/>
                    <path d="M913.5,335.6l14.7,8.5" style="fill:none;stroke:#fff;stroke-width:1px;stroke-linecap:butt;"/>
                    <path d="M924.9,328.9l14.6,8.6" style="fill:none;stroke:#fff;stroke-width:1px;stroke-linecap:butt;"/>
                    <path d="M936.2,322.2l14.7,8.6" style="fill:none;stroke:#fff;stroke-width:1px;stroke-linecap:butt;"/>
                    <path id="XMLID_1_" d="M947.5,315.6l14.7,8.6" style="fill:none;stroke:#fff;stroke-width:1px;stroke-linecap:butt;"/>
                </g>
            </g>
        </g>
    </g>
    <g>
        <path id="XMLID_1555_" d="M670.2,445.3l59.5,35l60.1,-35l-60.1,-35.1l-59.5,35.1Z" style="fill:url(#_Linear16);fill-rule:nonzero;"/>
        <g id="XMLID_1543_">
            <path id="XMLID_1552_" d="M670,428.8l60.1,35.4l59.9,-35.1l0,-208.8l-120,0l0,208.5Z" style="fill:url(#_Linear17);fill-rule:nonzero;"/>
            <g id="XMLID_1545_">
                <path d="M670.3,428.9l-0.1,0.1l0.1,0" style="fill:none;stroke:#fff;stroke-width:2px;"/>
                <path d="M674.4,431.4l53.2,31.4" style="fill:none;stroke:#fff;stroke-width:2px;stroke-dasharray:0.1,4.84;"/>
                <path d="M729.7,464l0.1,0" style="fill:none;stroke:#fff;stroke-width:2px;"/>
                <path d="M734,461.5l53.6,-31.3" style="fill:none;stroke:#fff;stroke-width:2px;stroke-dasharray:0.1,4.87;"/>
                <path d="M789.8,429l0,-0.1" style="fill:none;stroke:#fff;stroke-width:2px;"/>
                <path d="M785.5,426.5l-53.6,-31.3" style="fill:none;stroke:#fff;stroke-width:2px;stroke-dasharray:0.1,4.87;"/>
                <path d="M729.8,394l-0.1,-0.1l0,0.1" style="fill:none;stroke:#fff;stroke-width:2px;"/>
                <path d="M725.5,396.4l-53.1,31.3" style="fill:none;stroke:#fff;stroke-width:2px;stroke-dasharray:0.1,4.84;"/>
            </g>
        </g>
        <path id="XMLID_1542_" d="M670,428.6l60,35.6l0,-243.9l-60,0l0,208.3Z" style="fill:url(#_Linear18);fill-rule:nonzero;"/>
    </g>
    <g>
        <path id="XMLID_1622_" d="M1152.5,183.9l31.3,18.4l31.6,-18.4l-31.6,-18.4l-31.3,18.4Z" style="fill:url(#_Linear19);fill-rule:nonzero;"/>
        <g id="XMLID_1596_">
            <path id="XMLID_1619_" d="M1152.4,175.3l31.6,18.6l31.5,-18.5l0,-188.4l-63.1,0l0,188.3Z" style="fill:url(#_Linear20);fill-rule:nonzero;"/>
            <g id="XMLID_1617_">
                <path d="M1152.6,175.3l-0.1,0l0.1,0" style="fill:none;stroke:#fff;stroke-width:2px;"/>
                <path d="M1157,177.9l24.6,14.5" style="fill:none;stroke:#fff;stroke-width:2px;stroke-dasharray:0.1,5.09;"/>
                <path d="M1183.8,193.7l0,0.1l0.1,-0.1" style="fill:none;stroke:#fff;stroke-width:2px;"/>
                <path d="M1188.3,191.1l24.9,-14.5" style="fill:none;stroke:#fff;stroke-width:2px;stroke-dasharray:0.1,5.12;"/>
                <path d="M1211,172.7l-24.9,-14.5" style="fill:none;stroke:#fff;stroke-width:2px;stroke-dasharray:0.1,5.12;"/>
                <path d="M1183.9,156.9l-0.1,0" style="fill:none;stroke:#fff;stroke-width:2px;"/>
                <path d="M1179.4,159.5l-24.6,14.5" style="fill:none;stroke:#fff;stroke-width:2px;stroke-dasharray:0.1,5.09;"/>
            </g>
        </g>
        <path id="XMLID_1590_" d="M1152.4,175.1l31.6,18.8l0,-206.9l-31.6,0l0,188.1Z" style="fill:url(#_Linear21);fill-rule:nonzero;"/>
    </g>
    <g>
        <path id="XMLID_1541_" d="M838.5,151.9l-35.9,21.2l-36.3,-21.2l36.3,-21.1l35.9,21.1Z" style="fill:url(#_Linear22);fill-rule:nonzero;"/>
        <g id="XMLID_1528_">
            <path id="XMLID_1533_" d="M838.7,139.4l-36.3,21.4l-36.2,-21.3l0,-145l72.5,0l0,144.9Z" style="fill:url(#_Linear23);fill-rule:nonzero;"/>
            <g id="XMLID_1531_">
                <path d="M835,141.6l-30.6,18" style="fill:none;stroke:#fff;stroke-width:2px;stroke-dasharray:0.1,4.07;"/>
                <path d="M799,158.6l-30.8,-18.1" style="fill:none;stroke:#fff;stroke-width:2px;stroke-dasharray:0.1,4.1;"/>
                <path d="M766.4,139.5l-0.1,0l0.1,0" style="fill:none;stroke:#fff;stroke-width:2px;"/>
                <path d="M769.9,137.4l30.9,-18" style="fill:none;stroke:#fff;stroke-width:2px;stroke-dasharray:0.1,4.1;"/>
                <path d="M802.6,118.4l0,-0.1l0,0.1" style="fill:none;stroke:#fff;stroke-width:2px;"/>
                <path d="M806.2,120.4l30.5,18" style="fill:none;stroke:#fff;stroke-width:2px;stroke-dasharray:0.1,4.07;"/>
            </g>
        </g>
    </g>
    <g>
        <path id="XMLID_1594_" d="M1294.3,509.3l-59.3,34.8l-59.7,-34.8l59.7,-34.9l59.3,34.9Z" style="fill:url(#_Linear24);fill-rule:nonzero;"/>
        <g id="XMLID_1582_">
            <path id="XMLID_1591_" d="M1294.5,488.7l-59.8,35.2l-59.6,-35l0,-198.9l119.4,0l0,198.7Z" style="fill:url(#_Linear25);fill-rule:nonzero;"/>
            <g id="XMLID_1589_">
                <path d="M1289.8,491.4l-52.5,30.9" style="fill:none;stroke:#fff;stroke-width:2px;stroke-dasharray:0.1,5.19;"/>
                <path d="M1230.8,521.2l-53.4,-31.2" style="fill:none;stroke:#fff;stroke-width:2px;stroke-dasharray:0.1,4.85;"/>
                <path d="M1179.5,486.3l53.4,-31.2" style="fill:none;stroke:#fff;stroke-width:2px;stroke-dasharray:0.1,4.85;"/>
                <path d="M1235,453.9l0.1,0" style="fill:none;stroke:#fff;stroke-width:2px;"/>
                <path d="M1239.6,456.6l52.4,30.8" style="fill:none;stroke:#fff;stroke-width:2px;stroke-dasharray:0.1,5.19;"/>
            </g>
        </g>
    </g>
    <defs>
        <linearGradient id="_Linear1" x1="0" y1="0" x2="1" y2="0" gradientUnits="userSpaceOnUse" gradientTransform="matrix(8.50886e-15,138.96,-138.96,8.50886e-15,981.909,375.373)"><stop offset="0" style="stop-color:#005bff;stop-opacity:0.8"/><stop offset="1" style="stop-color:#005bff;stop-opacity:0.0980392"/></linearGradient>
        <linearGradient id="_Linear2" x1="0" y1="0" x2="1" y2="0" gradientUnits="userSpaceOnUse" gradientTransform="matrix(6.39636e-15,104.46,-104.46,6.39636e-15,981.909,375.967)"><stop offset="0" style="stop-color:#005bff;stop-opacity:0.344"/><stop offset="1" style="stop-color:#005bff;stop-opacity:0.128157"/></linearGradient>
        <linearGradient id="_Linear3" x1="0" y1="0" x2="1" y2="0" gradientUnits="userSpaceOnUse" gradientTransform="matrix(2.3299e-14,-380.502,380.502,2.3299e-14,981.906,559.581)"><stop offset="0" style="stop-color:#fff;stop-opacity:1"/><stop offset="1" style="stop-color:#fff;stop-opacity:0"/></linearGradient>
        <linearGradient id="_Linear4" x1="0" y1="0" x2="1" y2="0" gradientUnits="userSpaceOnUse" gradientTransform="matrix(199.394,109.6,-109.6,199.394,970.104,374.596)"><stop offset="0" style="stop-color:#fff;stop-opacity:1"/><stop offset="0.03" style="stop-color:#fff;stop-opacity:1"/><stop offset="0.81" style="stop-color:#00ffb2;stop-opacity:1"/><stop offset="1" style="stop-color:#00ffb2;stop-opacity:1"/></linearGradient>
        <linearGradient id="_Linear5" x1="0" y1="0" x2="1" y2="0" gradientUnits="userSpaceOnUse" gradientTransform="matrix(126.424,0,0,126.424,918.896,375.731)"><stop offset="0" style="stop-color:#fff;stop-opacity:1"/><stop offset="0.03" style="stop-color:#fff;stop-opacity:1"/><stop offset="1" style="stop-color:#7cffd7;stop-opacity:1"/></linearGradient>
        <linearGradient id="_Linear6" x1="0" y1="0" x2="1" y2="0" gradientUnits="userSpaceOnUse" gradientTransform="matrix(126.424,0,0,126.424,918.894,394.305)"><stop offset="0" style="stop-color:#fff;stop-opacity:1"/><stop offset="0.03" style="stop-color:#fff;stop-opacity:1"/><stop offset="1" style="stop-color:#7cffd7;stop-opacity:1"/></linearGradient>
        <linearGradient id="_Linear7" x1="0" y1="0" x2="1" y2="0" gradientUnits="userSpaceOnUse" gradientTransform="matrix(126.424,0,0,126.424,918.894,411.688)"><stop offset="0" style="stop-color:#fff;stop-opacity:1"/><stop offset="0.03" style="stop-color:#fff;stop-opacity:1"/><stop offset="1" style="stop-color:#7cffd7;stop-opacity:1"/></linearGradient>
        <linearGradient id="_Linear8" x1="0" y1="0" x2="1" y2="0" gradientUnits="userSpaceOnUse" gradientTransform="matrix(126.424,0,0,126.424,918.894,393.048)"><stop offset="0" style="stop-color:#fff;stop-opacity:1"/><stop offset="0.03" style="stop-color:#fff;stop-opacity:1"/><stop offset="1" style="stop-color:#7cffd7;stop-opacity:1"/></linearGradient>
        <linearGradient id="_Linear9" x1="0" y1="0" x2="1" y2="0" gradientUnits="userSpaceOnUse" gradientTransform="matrix(126.424,0,0,126.424,918.894,375.731)"><stop offset="0" style="stop-color:#fff;stop-opacity:1"/><stop offset="0.03" style="stop-color:#fff;stop-opacity:1"/><stop offset="1" style="stop-color:#7cffd7;stop-opacity:1"/></linearGradient>
        <linearGradient id="_Linear10" x1="0" y1="0" x2="1" y2="0" gradientUnits="userSpaceOnUse" gradientTransform="matrix(126.424,0,0,126.424,918.894,357.159)"><stop offset="0" style="stop-color:#fff;stop-opacity:1"/><stop offset="0.03" style="stop-color:#fff;stop-opacity:1"/><stop offset="1" style="stop-color:#7cffd7;stop-opacity:1"/></linearGradient>
        <linearGradient id="_Linear11" x1="0" y1="0" x2="1" y2="0" gradientUnits="userSpaceOnUse" gradientTransform="matrix(126.424,0,0,126.424,918.894,339.776)"><stop offset="0" style="stop-color:#fff;stop-opacity:1"/><stop offset="0.03" style="stop-color:#fff;stop-opacity:1"/><stop offset="1" style="stop-color:#7cffd7;stop-opacity:1"/></linearGradient>
        <linearGradient id="_Linear12" x1="0" y1="0" x2="1" y2="0" gradientUnits="userSpaceOnUse" gradientTransform="matrix(126.424,0,0,126.424,918.894,358.415)"><stop offset="0" style="stop-color:#fff;stop-opacity:1"/><stop offset="0.03" style="stop-color:#fff;stop-opacity:1"/><stop offset="1" style="stop-color:#7cffd7;stop-opacity:1"/></linearGradient>
        <linearGradient id="_Linear13" x1="0" y1="0" x2="1" y2="0" gradientUnits="userSpaceOnUse" gradientTransform="matrix(-129.765,-162.4,162.4,-129.765,1043.42,289.432)"><stop offset="0" style="stop-color:#fff;stop-opacity:1"/><stop offset="1" style="stop-color:#fff;stop-opacity:0"/></linearGradient>
        <linearGradient id="_Linear14" x1="0" y1="0" x2="1" y2="0" gradientUnits="userSpaceOnUse" gradientTransform="matrix(58.5275,50.3987,-50.3987,58.5275,976.932,207.529)"><stop offset="0" style="stop-color:#fff;stop-opacity:1"/><stop offset="0.03" style="stop-color:#fff;stop-opacity:1"/><stop offset="0.62" style="stop-color:#00ffb2;stop-opacity:1"/><stop offset="1" style="stop-color:#00ffb2;stop-opacity:1"/></linearGradient>
        <linearGradient id="_Linear15" x1="0" y1="0" x2="1" y2="0" gradientUnits="userSpaceOnUse" gradientTransform="matrix(2.57876e-14,-421.144,421.144,2.57876e-14,1026.61,419.707)"><stop offset="0" style="stop-color:#d0e1ff;stop-opacity:1"/><stop offset="0.21" style="stop-color:#d0e1ff;stop-opacity:1"/><stop offset="0.26" style="stop-color:#d5e4ff;stop-opacity:0.933333"/><stop offset="0.48" style="stop-color:#ecf3ff;stop-opacity:0.596078"/><stop offset="0.7" style="stop-color:#fafcff;stop-opacity:0.27451"/><stop offset="0.89" style="stop-color:#fff;stop-opacity:0"/><stop offset="1" style="stop-color:#fff;stop-opacity:0"/></linearGradient>
        <linearGradient id="_Linear16" x1="0" y1="0" x2="1" y2="0" gradientUnits="userSpaceOnUse" gradientTransform="matrix(4.20462e-15,68.6667,-68.6667,4.20462e-15,730.011,411.079)"><stop offset="0" style="stop-color:#005bff;stop-opacity:0.698039"/><stop offset="1" style="stop-color:#005bff;stop-opacity:0.298039"/></linearGradient>
        <linearGradient id="_Linear17" x1="0" y1="0" x2="1" y2="0" gradientUnits="userSpaceOnUse" gradientTransform="matrix(1.84368e-14,-301.096,301.096,1.84368e-14,730.011,626.852)"><stop offset="0" style="stop-color:#fff;stop-opacity:1"/><stop offset="1" style="stop-color:#fff;stop-opacity:0"/></linearGradient>
        <linearGradient id="_Linear18" x1="0" y1="0" x2="1" y2="0" gradientUnits="userSpaceOnUse" gradientTransform="matrix(9.2582e-15,-151.198,151.198,9.2582e-15,700.025,442.776)"><stop offset="0" style="stop-color:#fff;stop-opacity:0.2"/><stop offset="1" style="stop-color:#fff;stop-opacity:0"/></linearGradient>
        <linearGradient id="_Linear19" x1="0" y1="0" x2="1" y2="0" gradientUnits="userSpaceOnUse" gradientTransform="matrix(2.21234e-15,36.1303,-36.1303,2.21234e-15,1183.99,165.903)"><stop offset="0" style="stop-color:#005bff;stop-opacity:0.698039"/><stop offset="1" style="stop-color:#005bff;stop-opacity:0.298039"/></linearGradient>
        <linearGradient id="_Linear20" x1="0" y1="0" x2="1" y2="0" gradientUnits="userSpaceOnUse" gradientTransform="matrix(1.56341e-14,-255.324,255.324,1.56341e-14,1183.99,331.775)"><stop offset="0" style="stop-color:#fff;stop-opacity:1"/><stop offset="1" style="stop-color:#fff;stop-opacity:0"/></linearGradient>
        <linearGradient id="_Linear21" x1="0" y1="0" x2="1" y2="0" gradientUnits="userSpaceOnUse" gradientTransform="matrix(7.85078e-15,-128.213,128.213,7.85078e-15,1168.21,175.682)"><stop offset="0" style="stop-color:#fff;stop-opacity:0.2"/><stop offset="1" style="stop-color:#fff;stop-opacity:0"/></linearGradient>
        <linearGradient id="_Linear22" x1="0" y1="0" x2="1" y2="0" gradientUnits="userSpaceOnUse" gradientTransform="matrix(2.61258e-15,42.6667,-42.6667,2.61258e-15,802.439,131.413)"><stop offset="0" style="stop-color:#005bff;stop-opacity:0.698039"/><stop offset="1" style="stop-color:#005bff;stop-opacity:0.298039"/></linearGradient>
        <linearGradient id="_Linear23" x1="0" y1="0" x2="1" y2="0" gradientUnits="userSpaceOnUse" gradientTransform="matrix(1.26241e-14,-206.167,206.167,1.26241e-14,802.439,212.685)"><stop offset="0" style="stop-color:#fff;stop-opacity:0.4"/><stop offset="1" style="stop-color:#fff;stop-opacity:0"/></linearGradient>
        <linearGradient id="_Linear24" x1="0" y1="0" x2="1" y2="0" gradientUnits="userSpaceOnUse" gradientTransform="matrix(4.25109e-15,69.4256,-69.4256,4.25109e-15,1234.78,475.235)"><stop offset="0" style="stop-color:#005bff;stop-opacity:0.698039"/><stop offset="1" style="stop-color:#005bff;stop-opacity:0.298039"/></linearGradient>
        <linearGradient id="_Linear25" x1="0" y1="0" x2="1" y2="0" gradientUnits="userSpaceOnUse" gradientTransform="matrix(1.32377e-14,-216.188,216.188,1.32377e-14,1234.78,523.869)"><stop offset="0" style="stop-color:#fff;stop-opacity:0.298039"/><stop offset="1" style="stop-color:#fff;stop-opacity:0"/></linearGradient>
    </defs>
</svg>
