<?xml version="1.0" encoding="UTF-8" standalone="no"?>
<!DOCTYPE svg PUBLIC "-//W3C//DTD SVG 1.1//EN" "http://www.w3.org/Graphics/SVG/1.1/DTD/svg11.dtd">
<svg width="100%" height="100%" viewBox="0 0 1313 294" version="1.1" xmlns="http://www.w3.org/2000/svg" xmlns:xlink="http://www.w3.org/1999/xlink" xml:space="preserve" style="fill-rule:evenodd;clip-rule:evenodd;stroke-linecap:round;stroke-miterlimit:10;">
    <g>
        <path id="XMLID_1893_" d="M73.4,245.4l59.5,35l60.1,-35l-60.1,-35.1l-59.5,35.1Z" style="fill:url(#_Linear1);fill-rule:nonzero;"/>
        <g id="XMLID_1886_">
            <path id="XMLID_1890_" d="M73.2,228.9l60.1,35.4l59.9,-35.1l0,-230.7l-120,0l0,230.4Z" style="fill:url(#_Linear2);fill-rule:nonzero;"/>
            <g id="XMLID_1888_">
                <path d="M73.5,229l-0.1,0.1l0.1,0" style="fill:none;stroke:#fff;stroke-width:2px;"/>
                <path d="M77.6,231.6l53.2,31.3" style="fill:none;stroke:#fff;stroke-width:2px;stroke-dasharray:0.1,4.84;"/>
                <path d="M132.9,264.1l0.1,0" style="fill:none;stroke:#fff;stroke-width:2px;"/>
                <path d="M137.2,261.6l53.7,-31.3" style="fill:none;stroke:#fff;stroke-width:2px;stroke-dasharray:0.1,4.87;"/>
                <path d="M193,229.1l0,-0.1" style="fill:none;stroke:#fff;stroke-width:2px;"/>
                <path d="M188.7,226.6l-53.6,-31.3" style="fill:none;stroke:#fff;stroke-width:2px;stroke-dasharray:0.1,4.87;"/>
                <path d="M133,194.1l-0.1,-0.1l0,0.1" style="fill:none;stroke:#fff;stroke-width:2px;"/>
                <path d="M128.7,196.5l-53.1,31.3" style="fill:none;stroke:#fff;stroke-width:2px;stroke-dasharray:0.1,4.84;"/>
            </g>
        </g>
        <path id="XMLID_1885_" d="M73.2,228.7l60,35.6l0,-265.8l-60,0l0,230.2Z" style="fill:url(#_Linear3);fill-rule:nonzero;"/>
    </g>
    <g>
        <path id="XMLID_1902_" d="M1009.3,175.9l39.9,23.5l40.3,-23.5l-40.3,-23.5l-39.9,23.5Z" style="fill:url(#_Linear4);fill-rule:nonzero;"/>
        <g id="XMLID_1895_">
            <path id="XMLID_1899_" d="M1009.2,164.9l40.3,23.7l40.1,-23.5l0,-166.6l-80.4,0l0,166.4Z" style="fill:url(#_Linear5);fill-rule:nonzero;"/>
            <g id="XMLID_1897_">
                <path d="M1009.4,165l-0.1,0l0.1,0" style="fill:none;stroke:#fff;stroke-width:2px;"/>
                <path d="M1013.7,167.6l33.3,19.6" style="fill:none;stroke:#fff;stroke-width:2px;stroke-dasharray:0.1,5.05;"/>
                <path d="M1049.2,188.5l0.1,0" style="fill:none;stroke:#fff;stroke-width:2px;"/>
                <path d="M1053.7,185.9l33.6,-19.6" style="fill:none;stroke:#fff;stroke-width:2px;stroke-dasharray:0.1,5.08;"/>
                <path d="M1085.1,162.4l-33.6,-19.6" style="fill:none;stroke:#fff;stroke-width:2px;stroke-dasharray:0.1,5.08;"/>
                <path d="M1049.3,141.5l-0.1,0" style="fill:none;stroke:#fff;stroke-width:2px;"/>
                <path d="M1044.9,144.1l-33.4,19.6" style="fill:none;stroke:#fff;stroke-width:2px;stroke-dasharray:0.1,5.05;"/>
            </g>
        </g>
        <path id="XMLID_1894_" d="M1009.2,164.7l40.2,23.9l0,-190.1l-40.2,0l0,166.2Z" style="fill:url(#_Linear6);fill-rule:nonzero;"/>
    </g>
    <g>
        <path id="XMLID_1884_" d="M313.7,125.5l-31.4,18.5l-31.7,-18.5l31.7,-18.5l31.4,18.5Z" style="fill:url(#_Linear7);fill-rule:nonzero;"/>
        <g id="XMLID_1832_">
            <path id="XMLID_1881_" d="M313.8,114.6l-31.7,18.6l-31.6,-18.5l0,-117.7l63.3,0l0,117.6Z" style="fill:url(#_Linear8);fill-rule:nonzero;"/>
            <g id="XMLID_1879_">
                <path d="M313.7,114.6l0,0.1" style="fill:none;stroke:#fff;stroke-width:2px;"/>
                <path d="M310.3,116.7l-26.2,15.4" style="fill:none;stroke:#fff;stroke-width:2px;stroke-dasharray:0.1,3.95;"/>
                <path d="M282.4,133.1l-0.1,0" style="fill:none;stroke:#fff;stroke-width:2px;"/>
                <path d="M278.8,131.1l-26.4,-15.4" style="fill:none;stroke:#fff;stroke-width:2px;stroke-dasharray:0.1,3.98;"/>
                <path d="M250.7,114.7l-0.1,-0.1l0.1,0" style="fill:none;stroke:#fff;stroke-width:2px;"/>
                <path d="M254.1,112.6l26.5,-15.4" style="fill:none;stroke:#fff;stroke-width:2px;stroke-dasharray:0.1,3.98;"/>
                <path d="M282.3,96.2l0,-0.1l0.1,0.1" style="fill:none;stroke:#fff;stroke-width:2px;"/>
                <path d="M285.8,98.2l26.2,15.4" style="fill:none;stroke:#fff;stroke-width:2px;stroke-dasharray:0.1,3.95;"/>
            </g>
        </g>
    </g>
    <g>
        <path id="XMLID_1911_" d="M1302.3,275.1l-67.3,39.6l-67.8,-39.6l67.8,-39.6l67.3,39.6Z" style="fill:url(#_Linear9);fill-rule:nonzero;"/>
        <g id="XMLID_1898_">
            <path id="XMLID_1908_" d="M1302.5,251.7l-67.9,39.9l-67.7,-39.7l0,-253.4l135.6,0l0,253.2Z" style="fill:url(#_Linear10);fill-rule:nonzero;"/>
            <g id="XMLID_1906_">
                <path d="M1302.2,251.8l0.1,0l-0.1,0" style="fill:none;stroke:#fff;stroke-width:2px;"/>
                <path d="M1298.8,253.9l-62,36.5" style="fill:none;stroke:#fff;stroke-width:2px;stroke-dasharray:0.1,4.01;"/>
                <path d="M1235.1,291.4l-0.1,0" style="fill:none;stroke:#fff;stroke-width:2px;"/>
                <path d="M1231.5,289.4l-62.6,-36.5" style="fill:none;stroke:#fff;stroke-width:2px;stroke-dasharray:0.1,4.03;"/>
                <path d="M1170.7,249.8l62.5,-36.5" style="fill:none;stroke:#fff;stroke-width:2px;stroke-dasharray:0.1,4.03;"/>
                <path d="M1235,212.2l0.1,0" style="fill:none;stroke:#fff;stroke-width:2px;"/>
                <path d="M1238.5,214.3l62,36.5" style="fill:none;stroke:#fff;stroke-width:2px;stroke-dasharray:0.1,4.01;"/>
            </g>
        </g>
    </g>
    <g>
        <path id="XMLID_1920_" d="M357.3,288.8l40.2,23.7l40.6,-23.7l-40.6,-23.7l-40.2,23.7Z" style="fill:url(#_Linear11);fill-rule:nonzero;"/>
        <g id="XMLID_1913_">
            <path id="XMLID_1917_" d="M357.2,277.7l40.6,23.9l40.5,-23.7l0,-133.4l-81.1,0l0,133.2Z" style="fill:url(#_Linear12);fill-rule:nonzero;"/>
            <g id="XMLID_1915_">
                <path d="M357.4,277.8l-0.1,0l0.1,0" style="fill:none;stroke:#fff;stroke-width:2px;"/>
                <path d="M361.8,280.4l33.5,19.7" style="fill:none;stroke:#fff;stroke-width:2px;stroke-dasharray:0.1,5.08;"/>
                <path d="M402,298.9l33.9,-19.8" style="fill:none;stroke:#fff;stroke-width:2px;stroke-dasharray:0.1,5.12;"/>
                <path d="M433.7,275.2l-33.9,-19.8" style="fill:none;stroke:#fff;stroke-width:2px;stroke-dasharray:0.1,5.12;"/>
                <path d="M397.6,254.1l-0.1,0" style="fill:none;stroke:#fff;stroke-width:2px;"/>
                <path d="M393.1,256.7l-33.5,19.8" style="fill:none;stroke:#fff;stroke-width:2px;stroke-dasharray:0.1,5.08;"/>
            </g>
        </g>
        <path id="XMLID_1907_" d="M357.2,277.5l40.5,24.1l0,-157.1l-40.5,0l0,133Z" style="fill:url(#_Linear13);fill-rule:nonzero;"/>
    </g>
    <path id="XMLID_1926_" d="M944.4,310.6l-24.6,14.5l-24.5,-14.4l0,-148.7l49.1,0l0,148.6Z" style="fill:url(#_Linear14);fill-rule:nonzero;"/>
    <defs>
        <linearGradient id="_Linear1" x1="0" y1="0" x2="1" y2="0" gradientUnits="userSpaceOnUse" gradientTransform="matrix(4.20462e-15,68.6667,-68.6667,4.20462e-15,133.215,211.181)"><stop offset="0" style="stop-color:#005bff;stop-opacity:0.698039"/><stop offset="1" style="stop-color:#005bff;stop-opacity:0.298039"/></linearGradient>
        <linearGradient id="_Linear2" x1="0" y1="0" x2="1" y2="0" gradientUnits="userSpaceOnUse" gradientTransform="matrix(1.61086e-14,-263.074,263.074,1.61086e-14,133.215,263.066)"><stop offset="0" style="stop-color:#fff;stop-opacity:0.2"/><stop offset="1" style="stop-color:#fff;stop-opacity:0"/></linearGradient>
        <linearGradient id="_Linear3" x1="0" y1="0" x2="1" y2="0" gradientUnits="userSpaceOnUse" gradientTransform="matrix(1.47543e-14,-240.956,240.956,1.47543e-14,103.229,240.954)"><stop offset="0" style="stop-color:#fff;stop-opacity:0.0980392"/><stop offset="1" style="stop-color:#fff;stop-opacity:0"/></linearGradient>
        <linearGradient id="_Linear4" x1="0" y1="0" x2="1" y2="0" gradientUnits="userSpaceOnUse" gradientTransform="matrix(2.82028e-15,46.0587,-46.0587,2.82028e-15,1049.42,152.984)"><stop offset="0" style="stop-color:#005bff;stop-opacity:0.698039"/><stop offset="1" style="stop-color:#005bff;stop-opacity:0.298039"/></linearGradient>
        <linearGradient id="_Linear5" x1="0" y1="0" x2="1" y2="0" gradientUnits="userSpaceOnUse" gradientTransform="matrix(1.10262e-14,-180.072,180.072,1.10262e-14,1049.42,179.44)"><stop offset="0" style="stop-color:#fff;stop-opacity:0.2"/><stop offset="1" style="stop-color:#fff;stop-opacity:0"/></linearGradient>
        <linearGradient id="_Linear6" x1="0" y1="0" x2="1" y2="0" gradientUnits="userSpaceOnUse" gradientTransform="matrix(1.01985e-14,-166.554,166.554,1.01985e-14,1029.31,171.915)"><stop offset="0" style="stop-color:#fff;stop-opacity:0.0980392"/><stop offset="1" style="stop-color:#fff;stop-opacity:0"/></linearGradient>
        <linearGradient id="_Linear7" x1="0" y1="0" x2="1" y2="0" gradientUnits="userSpaceOnUse" gradientTransform="matrix(2.28356e-15,37.2933,-37.2933,2.28356e-15,282.182,107.581)"><stop offset="0" style="stop-color:#005bff;stop-opacity:0.698039"/><stop offset="1" style="stop-color:#005bff;stop-opacity:0.298039"/></linearGradient>
        <linearGradient id="_Linear8" x1="0" y1="0" x2="1" y2="0" gradientUnits="userSpaceOnUse" gradientTransform="matrix(8.0955e-15,-132.21,132.21,8.0955e-15,282.182,130.305)"><stop offset="0" style="stop-color:#fff;stop-opacity:0.2"/><stop offset="1" style="stop-color:#fff;stop-opacity:0"/></linearGradient>
        <linearGradient id="_Linear9" x1="0" y1="0" x2="1" y2="0" gradientUnits="userSpaceOnUse" gradientTransform="matrix(4.88963e-15,79.8537,-79.8537,4.88963e-15,1234.72,236.697)"><stop offset="0" style="stop-color:#005bff;stop-opacity:0.698039"/><stop offset="1" style="stop-color:#005bff;stop-opacity:0.298039"/></linearGradient>
        <linearGradient id="_Linear10" x1="0" y1="0" x2="1" y2="0" gradientUnits="userSpaceOnUse" gradientTransform="matrix(1.78441e-14,-291.417,291.417,1.78441e-14,1234.72,289.915)"><stop offset="0" style="stop-color:#fff;stop-opacity:0.298039"/><stop offset="1" style="stop-color:#fff;stop-opacity:0"/></linearGradient>
        <linearGradient id="_Linear11" x1="0" y1="0" x2="1" y2="0" gradientUnits="userSpaceOnUse" gradientTransform="matrix(2.84095e-15,46.3962,-46.3962,2.84095e-15,397.73,265.697)"><stop offset="0" style="stop-color:#005bff;stop-opacity:0.698039"/><stop offset="1" style="stop-color:#005bff;stop-opacity:0.298039"/></linearGradient>
        <linearGradient id="_Linear12" x1="0" y1="0" x2="1" y2="0" gradientUnits="userSpaceOnUse" gradientTransform="matrix(9.52075e-15,-155.486,155.486,9.52075e-15,397.73,300.86)"><stop offset="0" style="stop-color:#fff;stop-opacity:0.2"/><stop offset="1" style="stop-color:#fff;stop-opacity:0"/></linearGradient>
        <linearGradient id="_Linear13" x1="0" y1="0" x2="1" y2="0" gradientUnits="userSpaceOnUse" gradientTransform="matrix(8.72028e-15,-142.413,142.413,8.72028e-15,377.47,287.791)"><stop offset="0" style="stop-color:#fff;stop-opacity:0.0980392"/><stop offset="1" style="stop-color:#fff;stop-opacity:0"/></linearGradient>
        <linearGradient id="_Linear14" x1="0" y1="0" x2="1" y2="0" gradientUnits="userSpaceOnUse" gradientTransform="matrix(9.92865e-15,-162.147,162.147,9.92865e-15,919.853,324.138)"><stop offset="0" style="stop-color:#fff;stop-opacity:0.2"/><stop offset="1" style="stop-color:#fff;stop-opacity:0"/></linearGradient>
    </defs>
</svg>
