<?xml version="1.0" encoding="UTF-8" standalone="no"?>
<!DOCTYPE svg PUBLIC "-//W3C//DTD SVG 1.1//EN" "http://www.w3.org/Graphics/SVG/1.1/DTD/svg11.dtd">
<svg width="100%" height="100%" viewBox="0 0 419 195" version="1.1" xmlns="http://www.w3.org/2000/svg" xmlns:xlink="http://www.w3.org/1999/xlink" xml:space="preserve" style="fill-rule:evenodd;clip-rule:evenodd;stroke-linecap:round;stroke-miterlimit:10;">
    <g>
        <g>
            <g opacity="0.1">
                <path d="M185.1,140.2l117.1,39.3l116.8,-39.1l-116.8,-39.2l-117.1,39Z" style="fill:#fff;fill-opacity:0.8;fill-rule:nonzero;"/>
                <path d="M185.1,140.2l117.1,39.3l116.8,-39.1l-116.8,-39.2l-117.1,39Z" style="fill:url(#_Linear1);fill-rule:nonzero;"/>
                <path d="M243,140.7l59.2,19.9l59.1,-19.8l-59.1,-19.8l-59.2,19.7Z" style="fill:#fff;fill-rule:nonzero;"/>
                <g>
                    <path d="M211.3,152.4l0,11.5l1,0.3l0,-11.8l-1,0Z" style="fill:#0080ff;fill-rule:nonzero;"/>
                    <path d="M224.2,156.7l0,11.5l1,0.3l0,-11.8l-1,0Z" style="fill:#0080ff;fill-rule:nonzero;"/>
                    <path d="M237.1,161l0,11.5l1,0.3l0,-11.8l-1,0Z" style="fill:#0080ff;fill-rule:nonzero;"/>
                    <path d="M250,165.3l0,11.5l1,0.3l0,-11.8l-1,0Z" style="fill:#0080ff;fill-rule:nonzero;"/>
                    <path d="M262.9,169.6l0,11.5l1,0.4l0,-11.9l-1,0Z" style="fill:#0080ff;fill-rule:nonzero;"/>
                    <path d="M275.8,173.9l0,11.5l1,0.4l0,-11.9l-1,0Z" style="fill:#0080ff;fill-rule:nonzero;"/>
                    <path d="M288.7,178.2l0,11.6l1,0.3l0,-11.9l-1,0Z" style="fill:#0080ff;fill-rule:nonzero;"/>
                    <path d="M391.8,152.4l0,11.9l1,-0.3l0,-11.6l-1,0Z" style="fill:#0080ff;fill-rule:nonzero;"/>
                    <path d="M378.9,156.7l0,11.9l1,-0.3l0,-11.6l-1,0Z" style="fill:#0080ff;fill-rule:nonzero;"/>
                    <path d="M366,161l0,11.9l1,-0.3l0,-11.6l-1,0Z" style="fill:#0080ff;fill-rule:nonzero;"/>
                    <path d="M353.1,165.3l0,12l1,-0.4l0,-11.6l-1,0Z" style="fill:#0080ff;fill-rule:nonzero;"/>
                    <path d="M340.3,169.6l0,12l1,-0.4l0,-11.6l-1,0Z" style="fill:#0080ff;fill-rule:nonzero;"/>
                    <path d="M327.4,173.9l0,12l1,-0.3l0,-11.7l-1,0Z" style="fill:#0080ff;fill-rule:nonzero;"/>
                    <path d="M314.5,178.2l0,12l1,-0.3l0,-11.7l-1,0Z" style="fill:#0080ff;fill-rule:nonzero;"/>
                    <path d="M301.6,182.5l0,11.6l0.6,0.2l0.4,-0.1l0,-11.7l-1,0Z" style="fill:#0080ff;fill-rule:nonzero;"/>
                </g>
                <path d="M419,146.4l-116.8,-39.1l-116.7,39.1l0,-6l116.7,-39.1l116.8,39.1l0,6Z" style="fill:#0072ff;fill-opacity:0.16;fill-rule:nonzero;"/>
                <path d="M185.5,140.4l116.2,38.5l117,-39l0.3,6.5l-116.8,39.1l-116.7,-39.1l0,-6Z" style="fill:url(#_Linear2);fill-rule:nonzero;"/>
                <path d="M361.3,145.8l-59.2,-19.8l-59.1,19.8l0,-5l59.1,-19.8l59.2,19.8l0,5Z" style="fill:#0072ff;fill-opacity:0.16;fill-rule:nonzero;"/>
            </g>
        </g>
        <g>
            <g opacity="0.27">
                <path d="M185.1,106.4l117.1,39.3l116.8,-39.1l-116.8,-39.2l-117.1,39Z" style="fill:#fff;fill-opacity:0.8;fill-rule:nonzero;"/>
                <path d="M185.1,106.4l117.1,39.3l116.8,-39.1l-116.8,-39.2l-117.1,39Z" style="fill:url(#_Linear3);fill-rule:nonzero;"/>
                <path d="M243,107l59.2,19.8l59.1,-19.7l-59.1,-19.9l-59.2,19.8Z" style="fill:#fff;fill-rule:nonzero;"/>
                <g>
                    <path d="M211.3,118.7l0,11.4l1,0.4l0,-11.8l-1,0Z" style="fill:#0080ff;fill-rule:nonzero;"/>
                    <path d="M224.2,123l0,11.5l1,0.3l0,-11.8l-1,0Z" style="fill:#0080ff;fill-rule:nonzero;"/>
                    <path d="M237.1,127.3l0,11.5l1,0.3l0,-11.8l-1,0Z" style="fill:#0080ff;fill-rule:nonzero;"/>
                    <path d="M250,131.6l0,11.5l1,0.3l0,-11.8l-1,0Z" style="fill:#0080ff;fill-rule:nonzero;"/>
                    <path d="M262.9,135.9l0,11.5l1,0.3l0,-11.8l-1,0Z" style="fill:#0080ff;fill-rule:nonzero;"/>
                    <path d="M275.8,140.2l0,11.5l1,0.4l0,-11.9l-1,0Z" style="fill:#0080ff;fill-rule:nonzero;"/>
                    <path d="M288.7,144.5l0,11.5l1,0.4l0,-11.9l-1,0Z" style="fill:#0080ff;fill-rule:nonzero;"/>
                    <path d="M391.8,118.7l0,11.9l1,-0.4l0,-11.5l-1,0Z" style="fill:#0080ff;fill-rule:nonzero;"/>
                    <path d="M378.9,123l0,11.9l1,-0.3l0,-11.6l-1,0Z" style="fill:#0080ff;fill-rule:nonzero;"/>
                    <path d="M366,127.3l0,11.9l1,-0.3l0,-11.6l-1,0Z" style="fill:#0080ff;fill-rule:nonzero;"/>
                    <path d="M353.1,131.6l0,11.9l1,-0.3l0,-11.6l-1,0Z" style="fill:#0080ff;fill-rule:nonzero;"/>
                    <path d="M340.3,135.9l0,12l1,-0.4l0,-11.6l-1,0Z" style="fill:#0080ff;fill-rule:nonzero;"/>
                    <path d="M327.4,140.2l0,12l1,-0.4l0,-11.6l-1,0Z" style="fill:#0080ff;fill-rule:nonzero;"/>
                    <path d="M314.5,144.5l0,12l1,-0.3l0,-11.7l-1,0Z" style="fill:#0080ff;fill-rule:nonzero;"/>
                    <path d="M301.6,148.8l0,11.6l0.6,0.2l0.4,-0.1l0,-11.7l-1,0Z" style="fill:#0080ff;fill-rule:nonzero;"/>
                </g>
                <path d="M419,112.7l-116.8,-39.1l-116.7,39.1l0,-6l116.7,-39.1l116.8,39.1l0,6Z" style="fill:#0072ff;fill-opacity:0.16;fill-rule:nonzero;"/>
                <path d="M185.5,106.6l116.7,39.1l116.8,-39.1l0,6.1l-116.8,39.1l-116.7,-39.1l0,-6.1Z" style="fill:url(#_Linear4);fill-rule:nonzero;"/>
                <path d="M361.3,112.1l-59.2,-19.8l-59.1,19.8l0,-5l59.1,-19.9l59.2,19.9l0,5Z" style="fill:#0072ff;fill-opacity:0.16;fill-rule:nonzero;"/>
            </g>
        </g>
        <g>
            <g opacity="0.66">
                <path d="M185.1,72.7l117.1,39.3l116.8,-39.1l-116.8,-39.2l-117.1,39Z" style="fill:#fff;fill-opacity:0.8;fill-rule:nonzero;"/>
                <path d="M185.1,72.7l117.1,39.3l116.8,-39.1l-116.8,-39.2l-117.1,39Z" style="fill:url(#_Linear5);fill-rule:nonzero;"/>
                <path d="M243,73.2l59.2,19.9l59.1,-19.8l-59.1,-19.8l-59.2,19.7Z" style="fill:#fff;fill-rule:nonzero;"/>
                <g>
                    <path d="M211.3,85l0,11.4l1,0.3l0,-11.7l-1,0Z" style="fill:#0080ff;fill-rule:nonzero;"/>
                    <path d="M224.2,89.3l0,11.4l1,0.4l0,-11.8l-1,0Z" style="fill:#0080ff;fill-rule:nonzero;"/>
                    <path d="M237.1,93.6l0,11.5l1,0.3l0,-11.8l-1,0Z" style="fill:#0080ff;fill-rule:nonzero;"/>
                    <path d="M250,97.9l0,11.5l1,0.3l0,-11.8l-1,0Z" style="fill:#0080ff;fill-rule:nonzero;"/>
                    <path d="M262.9,102.2l0,11.5l1,0.3l0,-11.8l-1,0Z" style="fill:#0080ff;fill-rule:nonzero;"/>
                    <path d="M275.8,106.5l0,11.5l1,0.3l0,-11.8l-1,0Z" style="fill:#0080ff;fill-rule:nonzero;"/>
                    <path d="M288.7,110.8l0,11.5l1,0.4l0,-11.9l-1,0Z" style="fill:#0080ff;fill-rule:nonzero;"/>
                    <path d="M391.8,85l0,11.9l1,-0.4l0,-11.5l-1,0Z" style="fill:#0080ff;fill-rule:nonzero;"/>
                    <path d="M378.9,89.3l0,11.9l1,-0.4l0,-11.5l-1,0Z" style="fill:#0080ff;fill-rule:nonzero;"/>
                    <path d="M366,93.6l0,11.9l1,-0.3l0,-11.6l-1,0Z" style="fill:#0080ff;fill-rule:nonzero;"/>
                    <path d="M353.1,97.9l0,11.9l1,-0.3l0,-11.6l-1,0Z" style="fill:#0080ff;fill-rule:nonzero;"/>
                    <path d="M340.3,102.2l0,11.9l1,-0.3l0,-11.6l-1,0Z" style="fill:#0080ff;fill-rule:nonzero;"/>
                    <path d="M327.4,106.5l0,12l1,-0.4l0,-11.6l-1,0Z" style="fill:#0080ff;fill-rule:nonzero;"/>
                    <path d="M314.5,110.8l0,12l1,-0.4l0,-11.6l-1,0Z" style="fill:#0080ff;fill-rule:nonzero;"/>
                    <path d="M301.6,115.1l0,11.5l0.6,0.3l0.4,-0.1l0,-11.7l-1,0Z" style="fill:#0080ff;fill-rule:nonzero;"/>
                </g>
                <path d="M419,79l-116.8,-39.1l-116.7,39.1l0,-6.1l116.7,-39.1l116.8,39.1l0,6.1Z" style="fill:#0072ff;fill-opacity:0.16;fill-rule:nonzero;"/>
                <path d="M185.5,72.9l116.7,39.1l116.8,-39.1l0,6.1l-116.8,39.1l-116.7,-39.1l0,-6.1Z" style="fill:url(#_Linear6);fill-rule:nonzero;"/>
                <path d="M361.3,78.4l-59.2,-19.8l-59.1,19.8l0,-5.1l59.1,-19.8l59.2,19.8l0,5.1Z" style="fill:#0072ff;fill-opacity:0.16;fill-rule:nonzero;"/>
            </g>
        </g>
        <g>
            <path d="M185.1,39l117.1,39.3l116.8,-39.1l-116.8,-39.2l-117.1,39Z" style="fill:#fff;fill-opacity:0.8;fill-rule:nonzero;"/>
            <path d="M185.1,39l117.1,39.3l116.8,-39.1l-116.8,-39.2l-117.1,39Z" style="fill:url(#_Linear7);fill-rule:nonzero;"/>
            <path d="M243,39.5l59.2,19.9l59.1,-19.8l-59.1,-19.8l-59.2,19.7Z" style="fill:#fff;fill-rule:nonzero;"/>
            <g>
                <path d="M211.3,51.3l0,11.4l1,0.3l0,-11.7l-1,0Z" style="fill:#0080ff;fill-rule:nonzero;"/>
                <path d="M224.2,55.6l0,11.4l1,0.3l0,-11.7l-1,0Z" style="fill:#0080ff;fill-rule:nonzero;"/>
                <path d="M237.1,59.9l0,11.4l1,0.4l0,-11.8l-1,0Z" style="fill:#0080ff;fill-rule:nonzero;"/>
                <path d="M250,64.2l0,11.5l1,0.3l0,-11.8l-1,0Z" style="fill:#0080ff;fill-rule:nonzero;"/>
                <path d="M262.9,68.5l0,11.5l1,0.3l0,-11.8l-1,0Z" style="fill:#0080ff;fill-rule:nonzero;"/>
                <path d="M275.8,72.8l0,11.5l1,0.3l0,-11.8l-1,0Z" style="fill:#0080ff;fill-rule:nonzero;"/>
                <path d="M288.7,77.1l0,11.5l1,0.3l0,-11.8l-1,0Z" style="fill:#0080ff;fill-rule:nonzero;"/>
                <path d="M391.8,51.3l0,11.8l1,-0.3l0,-11.5l-1,0Z" style="fill:#0080ff;fill-rule:nonzero;"/>
                <path d="M378.9,55.6l0,11.9l1,-0.4l0,-11.5l-1,0Z" style="fill:#0080ff;fill-rule:nonzero;"/>
                <path d="M366,59.9l0,11.9l1,-0.4l0,-11.5l-1,0Z" style="fill:#0080ff;fill-rule:nonzero;"/>
                <path d="M353.1,64.2l0,11.9l1,-0.3l0,-11.6l-1,0Z" style="fill:#0080ff;fill-rule:nonzero;"/>
                <path d="M340.3,68.5l0,11.9l1,-0.3l0,-11.6l-1,0Z" style="fill:#0080ff;fill-rule:nonzero;"/>
                <path d="M327.4,72.8l0,11.9l1,-0.3l0,-11.6l-1,0Z" style="fill:#0080ff;fill-rule:nonzero;"/>
                <path d="M314.5,77.1l0,12l1,-0.4l0,-11.6l-1,0Z" style="fill:#0080ff;fill-rule:nonzero;"/>
                <path d="M301.6,81.4l0,11.5l0.6,0.2l0.4,-0.1l0,-11.6l-1,0Z" style="fill:#0080ff;fill-rule:nonzero;"/>
            </g>
            <path d="M419,45.3l-116.8,-39.1l-116.7,39.1l0,-6.1l116.7,-39.1l116.8,39.1l0,6.1Z" style="fill:#0072ff;fill-opacity:0.16;fill-rule:nonzero;"/>
            <path d="M185.5,39.2l116.7,39.1l116.8,-39.1l0,6l-116.8,39.1l-116.7,-39.1l0,-6Z" style="fill:url(#_Linear8);fill-rule:nonzero;"/>
            <path d="M361.3,44.7l-59.2,-19.9l-59.1,19.9l0,-5.1l59.1,-19.8l59.2,19.8l0,5.1Z" style="fill:#0072ff;fill-opacity:0.16;fill-rule:nonzero;"/>
        </g>
    </g>
    <g>
        <path d="M61.7,168.4c-33.1,0 -61.2,-26.9 -61.2,-60c0,-50.6 61.2,-90 61.2,-90c0,0 61.2,40.2 61.2,90c-0.1,33.1 -28.1,60 -61.2,60Z" style="fill:#fff;fill-rule:nonzero;stroke:url(#_Linear9);stroke-width:1px;"/>
        <path d="M61.7,144.6c-21.7,0 -39.3,-17.6 -39.3,-39.3c0,-30.7 39.3,-57.6 39.3,-57.6c0,0 39.3,26.3 39.3,57.6c0,21.7 -17.6,39.3 -39.3,39.3Z" style="fill:url(#_Linear10);fill-rule:nonzero;"/>
        <path d="M61.7,144.6c-21.7,0 -39.3,-17.6 -39.3,-39.3c0,-30.7 39.3,-57.6 39.3,-57.6c0,0 39.3,26.3 39.3,57.6c0,21.7 -17.6,39.3 -39.3,39.3Z" style="fill:none;stroke:url(#_Linear11);stroke-width:1px;"/>
        <path d="M61.7,121.5c-9.3,0 -16.9,-7.6 -16.9,-16.9c0,-13.2 16.9,-25.1 16.9,-25.1c0,0 16.9,11.7 16.9,25.1c0,9.3 -7.6,16.9 -16.9,16.9Z" style="fill:url(#_Linear12);fill-rule:nonzero;"/>
    </g>
    <path d="M96.7,42l84,0" style="fill:none;stroke:#00d688;stroke-width:1.5px;stroke-dasharray:0,4;"/>
    <g>
        <circle cx="89.9" cy="42" r="3" style="fill:#00d688;"/>
        <path d="M89.9,39.5c1.4,0 2.5,1.1 2.5,2.5c0,1.4 -1.1,2.5 -2.5,2.5c-1.4,0 -2.5,-1.1 -2.5,-2.5c0,-1.4 1.2,-2.5 2.5,-2.5m0,-1c-1.9,0 -3.5,1.5 -3.5,3.5c0,1.9 1.5,3.5 3.5,3.5c2,0 3.5,-1.5 3.5,-3.5c0,-2 -1.6,-3.5 -3.5,-3.5Z" style="fill:#fff;fill-rule:nonzero;"/>
    </g>
    <path d="M121.7,77l59,0" style="fill:none;stroke:#00d688;stroke-width:1.5px;stroke-dasharray:0,4;"/>
    <g>
        <circle cx="115.2" cy="77" r="3" style="fill:#00d688;"/>
        <path d="M115.2,74.5c1.4,0 2.5,1.1 2.5,2.5c0,1.4 -1.1,2.5 -2.5,2.5c-1.4,0 -2.5,-1.1 -2.5,-2.5c0,-1.4 1.1,-2.5 2.5,-2.5m0,-1c-1.9,0 -3.5,1.5 -3.5,3.5c0,1.9 1.5,3.5 3.5,3.5c2,0 3.5,-1.5 3.5,-3.5c-0.1,-2 -1.6,-3.5 -3.5,-3.5Z" style="fill:#fff;fill-rule:nonzero;"/>
    </g>
    <path d="M107,109.3l73.7,0" style="fill:#fff;fill-rule:nonzero;stroke:url(#_Linear13);stroke-width:1.5px;stroke-dasharray:0,4;"/>
    <g>
        <circle cx="101.4" cy="109.3" r="3" style="fill:#0069ff;"/>
        <path d="M101.4,106.9c1.4,0 2.5,1.1 2.5,2.5c0,1.4 -1.1,2.5 -2.5,2.5c-1.4,0 -2.5,-1.1 -2.5,-2.5c0,-1.4 1.1,-2.5 2.5,-2.5m0,-1c-1.9,0 -3.5,1.5 -3.5,3.5c0,1.9 1.5,3.5 3.5,3.5c2,0 3.5,-1.5 3.5,-3.5c-0.1,-2 -1.6,-3.5 -3.5,-3.5Z" style="fill:#fff;fill-rule:nonzero;"/>
    </g>
    <defs>
        <linearGradient id="_Linear1" x1="0" y1="0" x2="1" y2="0" gradientUnits="userSpaceOnUse" gradientTransform="matrix(-233.853,2.86388e-14,-2.86388e-14,-233.853,418.978,140.305)"><stop offset="0" style="stop-color:#0072ff;stop-opacity:0.698039"/><stop offset="0.36" style="stop-color:#6af;stop-opacity:0.803922"/><stop offset="0.67" style="stop-color:#b8d8ff;stop-opacity:0.898039"/><stop offset="0.89" style="stop-color:#ebf4ff;stop-opacity:0.964706"/><stop offset="1" style="stop-color:#fff;stop-opacity:1"/></linearGradient>
        <linearGradient id="_Linear2" x1="0" y1="0" x2="1" y2="0" gradientUnits="userSpaceOnUse" gradientTransform="matrix(-233.464,2.85911e-14,-2.85911e-14,-233.464,418.978,162.709)"><stop offset="0" style="stop-color:#0053ff;stop-opacity:1"/><stop offset="1" style="stop-color:#00da88;stop-opacity:1"/></linearGradient>
        <linearGradient id="_Linear3" x1="0" y1="0" x2="1" y2="0" gradientUnits="userSpaceOnUse" gradientTransform="matrix(-233.853,2.86388e-14,-2.86388e-14,-233.853,418.978,106.586)"><stop offset="0" style="stop-color:#0072ff;stop-opacity:0.698039"/><stop offset="0.36" style="stop-color:#6af;stop-opacity:0.803922"/><stop offset="0.67" style="stop-color:#b8d8ff;stop-opacity:0.898039"/><stop offset="0.89" style="stop-color:#ebf4ff;stop-opacity:0.964706"/><stop offset="1" style="stop-color:#fff;stop-opacity:1"/></linearGradient>
        <linearGradient id="_Linear4" x1="0" y1="0" x2="1" y2="0" gradientUnits="userSpaceOnUse" gradientTransform="matrix(-233.464,2.85911e-14,-2.85911e-14,-233.464,418.978,129.209)"><stop offset="0" style="stop-color:#0053ff;stop-opacity:1"/><stop offset="1" style="stop-color:#00da88;stop-opacity:1"/></linearGradient>
        <linearGradient id="_Linear5" x1="0" y1="0" x2="1" y2="0" gradientUnits="userSpaceOnUse" gradientTransform="matrix(-233.853,2.86388e-14,-2.86388e-14,-233.853,418.978,72.8669)"><stop offset="0" style="stop-color:#0072ff;stop-opacity:0.698039"/><stop offset="0.36" style="stop-color:#6af;stop-opacity:0.803922"/><stop offset="0.67" style="stop-color:#b8d8ff;stop-opacity:0.898039"/><stop offset="0.89" style="stop-color:#ebf4ff;stop-opacity:0.964706"/><stop offset="1" style="stop-color:#fff;stop-opacity:1"/></linearGradient>
        <linearGradient id="_Linear6" x1="0" y1="0" x2="1" y2="0" gradientUnits="userSpaceOnUse" gradientTransform="matrix(-233.464,2.85911e-14,-2.85911e-14,-233.464,418.978,95.4905)"><stop offset="0" style="stop-color:#0053ff;stop-opacity:1"/><stop offset="1" style="stop-color:#00da88;stop-opacity:1"/></linearGradient>
        <linearGradient id="_Linear7" x1="0" y1="0" x2="1" y2="0" gradientUnits="userSpaceOnUse" gradientTransform="matrix(-233.853,2.86388e-14,-2.86388e-14,-233.853,418.978,39.1479)"><stop offset="0" style="stop-color:#0072ff;stop-opacity:0.698039"/><stop offset="0.36" style="stop-color:#6af;stop-opacity:0.803922"/><stop offset="0.67" style="stop-color:#b8d8ff;stop-opacity:0.898039"/><stop offset="0.89" style="stop-color:#ebf4ff;stop-opacity:0.964706"/><stop offset="1" style="stop-color:#fff;stop-opacity:1"/></linearGradient>
        <linearGradient id="_Linear8" x1="0" y1="0" x2="1" y2="0" gradientUnits="userSpaceOnUse" gradientTransform="matrix(-233.464,2.85911e-14,-2.85911e-14,-233.464,418.978,61.7715)"><stop offset="0" style="stop-color:#0053ff;stop-opacity:1"/><stop offset="1" style="stop-color:#00da88;stop-opacity:1"/></linearGradient>
        <linearGradient id="_Linear9" x1="0" y1="0" x2="1" y2="0" gradientUnits="userSpaceOnUse" gradientTransform="matrix(123.339,0,0,123.339,0,93.3429)"><stop offset="0" style="stop-color:#0080ff;stop-opacity:1"/><stop offset="0.15" style="stop-color:#0080ff;stop-opacity:1"/><stop offset="1" style="stop-color:#00d688;stop-opacity:1"/></linearGradient>
        <linearGradient id="_Linear10" x1="0" y1="0" x2="1" y2="0" gradientUnits="userSpaceOnUse" gradientTransform="matrix(67.5284,38.6674,-38.6674,67.5284,31.1178,81.6374)"><stop offset="0" style="stop-color:#0069ff;stop-opacity:0.4"/><stop offset="1" style="stop-color:#0069ff;stop-opacity:0.0980392"/></linearGradient>
        <linearGradient id="_Linear11" x1="0" y1="0" x2="1" y2="0" gradientUnits="userSpaceOnUse" gradientTransform="matrix(74.8955,27.2597,-27.2597,74.8955,26.7694,84.6613)"><stop offset="0" style="stop-color:#0069ff;stop-opacity:0"/><stop offset="0.88" style="stop-color:#0069ff;stop-opacity:0.878431"/><stop offset="1" style="stop-color:#0069ff;stop-opacity:1"/></linearGradient>
        <linearGradient id="_Linear12" x1="0" y1="0" x2="1" y2="0" gradientUnits="userSpaceOnUse" gradientTransform="matrix(29.0014,16.6065,-16.6065,29.0014,48.6142,94.3013)"><stop offset="0" style="stop-color:#0069ff;stop-opacity:1"/><stop offset="1" style="stop-color:#0069ff;stop-opacity:0.2"/></linearGradient>
        <linearGradient id="_Linear13" x1="0" y1="0" x2="1" y2="0" gradientUnits="userSpaceOnUse" gradientTransform="matrix(75.1941,0,0,75.1941,106.289,109.347)"><stop offset="0" style="stop-color:#0080ff;stop-opacity:1"/><stop offset="0.15" style="stop-color:#0080ff;stop-opacity:1"/><stop offset="1" style="stop-color:#00d688;stop-opacity:1"/></linearGradient>
    </defs>
</svg>
