<svg width="23px" height="26px" viewBox="0 0 23 26" version="1.1" xmlns="http://www.w3.org/2000/svg" xmlns:xlink="http://www.w3.org/1999/xlink" xml:space="preserve" style="fill-rule:evenodd;clip-rule:evenodd;stroke-linejoin:round;stroke-miterlimit:1.41421;">
  <path id="path0_stroke" d="M5.49,3.031l0.181,-0.728l-0.73,-0.174l-0.181,0.728l0.73,0.174Zm16.514,3.937l0.73,0.174l0.181,-0.728l-0.73,-0.174l-0.181,0.728Zm-4.485,18.032l-0.181,0.728l0.729,0.174l0.181,-0.728l-0.729,-0.174Zm-16.515,-3.937l-0.729,-0.174l-0.181,0.728l0.729,0.174l0.181,-0.728Zm4.305,-17.304l16.514,3.937l0.362,-1.456l-16.514,-3.937l-0.362,1.456Zm15.966,3.035l-4.486,18.032l1.459,0.348l4.486,-18.032l-1.459,-0.348Zm-3.575,17.478l-16.514,-3.937l-0.363,1.456l16.515,3.937l0.362,-1.456Zm-15.966,-3.035l4.486,-18.032l-1.46,-0.348l-4.485,18.032l1.459,0.348Z" style="fill:rgb(0,105,255);fill-rule:nonzero;"/>
  <path d="M16.399,3.931c0.327,-1.28 -0.436,-2.613 -1.634,-2.88c-1.199,-0.266 -2.506,0.534 -2.833,1.813l-2.615,-0.64l-0.817,3.254l9.643,2.293l0.817,-3.253l-2.561,-0.587Z" style="fill:white;fill-rule:nonzero;"/>
  <path d="M16.399,3.931l-0.726,-0.185l-0.191,0.744l0.75,0.172l0.167,-0.731Zm-4.467,-1.067l-0.178,0.729l0.721,0.176l0.184,-0.719l-0.727,-0.186Zm-2.615,-0.64l0.178,-0.728l-0.724,-0.177l-0.181,0.723l0.727,0.182Zm-0.817,3.254l-0.727,-0.183l-0.185,0.737l0.738,0.175l0.174,-0.729Zm9.643,2.293l-0.174,0.73l0.721,0.171l0.18,-0.718l-0.727,-0.183Zm0.817,-3.253l0.727,0.182l0.187,-0.742l-0.747,-0.171l-0.167,0.731Zm-1.834,-0.401c0.419,-1.643 -0.54,-3.429 -2.198,-3.798l-0.326,1.464c0.739,0.165 1.305,1.045 1.071,1.963l1.453,0.371Zm-2.198,-3.798c-1.61,-0.358 -3.3,0.704 -3.723,2.36l1.454,0.371c0.231,-0.904 1.156,-1.442 1.943,-1.267l0.326,-1.464Zm-2.818,1.817l-2.615,-0.64l-0.356,1.457l2.615,0.64l0.356,-1.457Zm-3.52,-0.094l-0.817,3.253l1.454,0.365l0.818,-3.253l-1.455,-0.365Zm-0.264,4.165l9.643,2.294l0.347,-1.46l-9.642,-2.293l-0.348,1.459Zm10.544,1.747l0.817,-3.254l-1.455,-0.365l-0.817,3.253l1.455,0.366Zm0.257,-4.167l-2.56,-0.587l-0.335,1.462l2.56,0.587l0.335,-1.462Z" style="fill:rgb(0,105,255);fill-rule:nonzero;"/>
  <path d="M8.835,17.05l-0.634,0.401l0.39,0.617l0.627,-0.373l-0.383,-0.645Zm-2.759,-2.959l2.125,3.36l1.268,-0.802l-2.125,-3.36l-1.268,0.802Zm3.142,3.604l7.899,-4.693l-0.766,-1.29l-7.899,4.693l0.766,1.29Z" style="fill:rgb(0,105,255);fill-rule:nonzero;"/>
</svg>
