<svg width="37px" height="47px" viewBox="0 0 37 47" xmlns="http://www.w3.org/2000/svg">
  <linearGradient x1="-1.39275766%" y1="49.9140659%" x2="101.279109%" y2="49.9140659%" id="linearGradient-1">
    <stop stop-color="#0080FF" offset="15.11%"></stop>
    <stop stop-color="#00D688" offset="100%"></stop>
  </linearGradient>
  <linearGradient x1="11.8225108%" y1="35.6223729%" x2="97.9103896%" y2="74.2223729%" id="linearGradient-2">
      <stop stop-color="#0069FF" stop-opacity="0.4" offset="0%"></stop>
      <stop stop-color="#0069FF" stop-opacity="0.1" offset="100%"></stop>
  </linearGradient>
  <linearGradient x1="11.7776925%" y1="35.2833333%" x2="98.8108208%" y2="74.0579365%" id="linearGradient-3">
    <stop stop-color="#0069FF" offset="0%"></stop>
    <stop stop-color="#0069FF" stop-opacity="0.2" offset="100%"></stop>
  </linearGradient>
  <path d="M18.4,46.1 C8.7,46.1 0.5,38.2 0.5,28.5 C0.5,13.7 18.4,0.6 18.4,0.6 C18.4,0.6 36.4,14 36.4,28.5 C36.4,38.3 28.1,46.1 18.4,46.1 Z" stroke="url(#linearGradient-1)" fill="#FFFFFF" stroke-linecap="round"></path>
  <path d="M18.4,39.2 C12,39.2 6.9,34 6.9,27.7 C6.9,18.7 18.4,9.7 18.4,9.7 C18.4,9.7 30,18.4 30,27.6 C30,34 24.8,39.2 18.4,39.2 Z" fill="url(#linearGradient-2)"></path>
  <path d="M18.4,32.4 C15.7,32.4 13.5,30.2 13.5,27.5 C13.5,23.6 18.4,19.8 18.4,19.8 C18.4,19.8 23.3,23.6 23.3,27.5 C23.4,30.2 21.2,32.4 18.4,32.4 Z" fill="url(#linearGradient-3)"></path>
</svg>
