<svg width="57px" height="47px" viewBox="0 0 59 47" version="1.1" xmlns="http://www.w3.org/2000/svg" xml:space="preserve" style="fill-rule:evenodd;clip-rule:evenodd;stroke-linecap:round;">
  <path id="Shape" d="M57.499,25.811l-2.199,-1.811c-4.2,-1.7 -14.1,-2.9 -25.7,-2.9c-13,0 -23.9,1.5 -27,3.6l-1.521,1.708" style="fill:none;stroke:#0069ff;stroke-width:1.5px;stroke-dasharray:0,3.05;"/>
  <path id="Shape1" d="M29.6,46.1c-9.7,0 -17.9,-7.9 -17.9,-17.6c0,-14.8 17.9,-27.9 17.9,-27.9c0,0 17.9,13.4 17.9,27.9c0,9.8 -8.2,17.6 -17.9,17.6Z" style="fill:#fff;fill-opacity:0.709804;stroke:url(#_Linear1);stroke-width:1px;"/>
  <path id="Shape2" d="M29.6,42.9c-8.1,0 -14.7,-6.6 -14.7,-14.7c0,-11.5 14.7,-23 14.7,-23c0,0 14.7,11.3 14.7,23c0,8.1 -6.6,14.7 -14.7,14.7Z" style="fill:url(#_Linear2);fill-rule:nonzero;"/>
  <path id="Shape3" d="M4,27.8c4.2,1.7 14.1,2.9 25.7,2.9c13,0 23.9,-1.5 27,-3.6" style="fill:none;stroke:#0069ff;stroke-width:1.5px;stroke-dasharray:0,3.05;"/>
  <defs>
    <linearGradient id="_Linear1" x1="0" y1="0" x2="1" y2="0" gradientUnits="userSpaceOnUse" gradientTransform="matrix(36.8591,0,0,36.8591,11.1874,23.3109)">
      <stop offset="0" style="stop-color:#0080ff;stop-opacity:1"/>
      <stop offset="0.15" style="stop-color:#0080ff;stop-opacity:1"/>
      <stop offset="1" style="stop-color:#00d688;stop-opacity:1"/>
    </linearGradient>
    <linearGradient id="_Linear2" x1="0" y1="0" x2="1" y2="0" gradientUnits="userSpaceOnUse" gradientTransform="matrix(25.3478,14.5144,-14.5144,25.3478,18.402,18.7691)">
      <stop offset="0" style="stop-color:#0069ff;stop-opacity:1"/>
      <stop offset="1" style="stop-color:#0069ff;stop-opacity:0.2"/>
    </linearGradient>
  </defs>
</svg>
