<svg xmlns="http://www.w3.org/2000/svg" viewBox="0 0 284.9 270"><circle fill="#0052EE" cx="133.7" cy="133.7" r="133.7"/><path fill="#FFD800" d="M76.3 183.3c-14 5-35.7 22.1-38.1 38.4s6.2 33.7 20.6 41.7c11.2 6.2 24.6 6.8 37.4 6.5 11.5-.3 23.6-1.4 32.8-8.2 10.8-8 15.3-22.5 13.8-35.9-1.5-13.3-8.3-25.6-16.5-36.2-6.1-7.9-14-15.7-23.9-16.5l-26.1 10.2z"/><path fill="#F49F00" d="M114 201.8c10-1.7 13.7-11.4 10.3-14.7-5.8-7-13-13.3-21.9-14l-22.7 8.7c-3.5.8-7.9 3.3-11.1 5 15.1 11.8 26.7 18.1 45.4 15z" opacity=".55"/><path fill="#1289FF" d="M201.2 128s21.9 29.9 56.2 16.1c0 0 14.4-2.2 15.3 8.1 0 0 2.3 13.3-5.2 14.8 0 0-5.4 3.5-19.5.2 0 0-54.7-9.6-56.7-25l9.9-14.2z"/><path fill="#1F9AFF" d="M256.2 147.6s15.3-2.5 16.3 8.9c.3-2.5.1-4.4.1-4.4-.8-10.4-15.3-8.1-15.3-8.1-34.2 13.9-56.2-16.1-56.2-16.1l-2.7 3.8c5.8 7.2 27 29.4 57.8 15.9z"/><path fill="#FF8DB8" d="M238.9 153.4s.2-2.4-5.1-5.5c-11.4-6.7-33.1-19.7-31.6-41.1l-74.7-8.1-4.4 28.2 40.2 40.9s47.7 5.5 75.6-14.4z"/><path fill="#F86A9A" d="M128.1 120.2l28.6 29.1s45 17.3 72.6 5.8c-41.2-24.8-73.7-30.1-101.2-34.9z"/><path fill="#1F9AFF" d="M138.9 41.1s-19.4-31.8-52.1-40c0 0-4.5-.8-7.4.3-1.9.9-2.7 2.4-2.2 5.2 0 0 .3 1.7 1.4 3.8.7 1.4 1.8 2.9 3.2 4.7 0 0 2.4 3 3.3 6.1.8 1.8 1.2 3.9 1.9 6.1 1.7 6.8 3.3 16.5 2.7 27.8l49.2-14z"/><path fill="#1289FF" d="M134 42.5c-18.2-5-37.9-8.2-46-9.4 1 6.6 1.9 13.7 1.5 22.2L134 42.5z"/><path fill="#FFF" d="M179.2 143.6c-1.9-.8-4.7.9-7.5 2.8-.6-5.5-2.3-6.2-2.3-6.2-1.8-.8-5.1 1-7.8 2.8.5-7-2.5-7.7-2.5-7.7-2.5-.9-7.4 1.4-9.8 2.9 8.6 10.6 21.4 14.7 32.7 14.8.6-8.3-2.8-9.4-2.8-9.4z"/><path fill="#1289FF" d="M25.2 72.6c-9-23.8-7.2-45.1-7.2-45.1-.3-13.2 16.6 21.3 16.6 21.3 3.5 6.8 5.7 10.5 10 11.4 3.4.7 10.7-.9 10.7-.9 20.5-5.6 50-15.9 71.9-19.1 35-5 62.7-5.6 62.7-5.6 33.3-.5 53.7 2 67.5 5.4 15.6 3.8 21.4 10 21.4 10 16.6 17.3-6.3 35.9-6.3 35.9-3.4 3.6-5.5 6.5-6.9 9.4-2.9 5.9-2.9 10.6-2.9 10.6-.5 4.9-1.3 9.4-2.3 13.5-3 1.3-13.2 5.3-29.9 6.4-18.9 1.2-47.7 1.3-79.7-15.8 0 0-10.8-5.9-14.5-2.2 0 0-6.5 5.3 6.4 22.2 0 0 30.6 37.6 97.2 23.3l-29 15.8c-73 15-117.6-22.1-117.6-22.1-16.9-11.7-33.3-37.9-39.1-45.6-10.7-14.2-16.6-13.8-16.6-13.8-3.4 2.5-10.2 9.1-13 12.2-4 4.3-3.9.3-3.9.3-1.4-9.5 4.5-27.5 4.5-27.5z"/><path fill="#1F9AFF" d="M52.2 76.1c-5.9.2-9-.1-13.7-2.5 0 0-12.4-4.6-20.5-46.5 0-12.3 16.6 21.6 16.6 21.6 3.5 6.8 5.7 10.5 10 11.4 3.4.7 10.7-.9 10.7-.9 20.5-5.6 50-15.9 71.9-19.1 35-5 62.7-5.6 62.7-5.6 33.3-.5 53.7 2 67.5 5.4 15.6 3.8 21.4 10 21.4 10 4.2 4.3 5.8 8.8 6 12.9-20.6-.1-141.6 5.7-232.6 13.3z"/><path fill="#FFF" d="M138 78.3c1 14 12.9 24.5 26.6 23.5 13.7-1 24-13.1 22.9-27.1-1-14-12.9-24.5-26.6-23.5-13.6 1-23.9 13.2-22.9 27.1z"/><path fill="#FFD800" d="M140.9 75.7c.7 10.3 9.5 18.1 19.6 17.4 10.1-.7 17.7-9.7 17-20-.7-10.3-9.5-18.1-19.6-17.4-10.2.7-17.8 9.7-17 20z"/><path fill="#35356D" d="M144 74.8c.5 7.4 6.8 13 14 12.4 7.2-.5 12.6-6.9 12.1-14.3s-6.8-13-14-12.4c-7.2.5-12.6 6.9-12.1 14.3z"/><path fill="#FFF" d="M159.7 76c.2 2.3 2.2 4 4.5 3.9 2.3-.2 4-2.2 3.9-4.5-.2-2.3-2.2-4-4.5-3.9-2.4.2-4.1 2.2-3.9 4.5z"/><path fill="#DEEBF3" d="M261.3 118.9c1-3.1 1.1-7.9 2.2-13.8.6-3.5 1.7-8.4 3.2-11.6 0 0-16.7 0-39.3 1.9-17.3 1.4-41.5 6.8-64.3 20.4 27.1 11.2 50.6 11.4 67.7 10.4 23.7-1.4 30.5-7.3 30.5-7.3zM240.1 153c-3 .6-8.3 1.2-11.1 1.6-30.9 4.4-52.5-2.1-66.5-9.5-11.3-6-17.6-12.6-19.4-14.5-2.3 1.9-4.7 4-7.1 6.1-9.2 8.1-19.5 16.4-34.3 16.2 0 0 23.3 21.2 60.8 24.6 15.8 1.4 34.2 1 54.1-5.5 7.1-2.4 11.1-4.5 15.4-7.9 6-4.6 8.1-11.1 8.1-11.1z"/><path fill="#DEEBF3" d="M225.9 155s15.2-1.4 7.2-6.5c0 0-25.2-13.4-29-29.4l3.6-.3s5.2 16.5 30.6 29.3c0 0 7.3 4.1-5.5 11.7l-6.9-4.8z"/><path fill="#0A2688" d="M126.3 92.8c-3.7-19.3-.1-31.2 0-31.7l2.3.7c0 .1-3.5 11.9 0 30.6l-2.3.4zM117.7 92.8c-3.6-19.3-.1-31.2 0-31.7l2.3.7c0 .1-3.5 11.9 0 30.6l-2.3.4zM109.2 92.8c-3.6-19.3-.1-31.2 0-31.7l2.3.7c0 .1-3.5 11.9 0 30.6l-2.3.4z" opacity=".26"/><path fill="#1F9AFF" d="M45.2 61.5c3.1-1 2.9-4.7 6.5-4.9 2.3-.1 6.9 3.3 8.2 4.9"/><path fill="#1289FF" d="M43 88.6c0 9.4 5.9 9.1 14.1 7.6M94.9 124.3s-40.1 9.3-35.4 38.7c0 0 4.7 28.8 44 25.9 0 0 16.2-.9 17.7-12.3 0 0 1.6-7.4-2.8-14-1.9-2.8-5-5-9.9-5 0 0-8.2 0-16.4 6.6 0 0-9.4.1-9.7-8.1 0 0-1.4-9.4 19.9-10.4l-7.4-21.4z"/><path fill="#1F9AFF" d="M90 134.5c-11.1 4.4-15 9.9-16 14.7-1.6 7.3 2.8 11.6 2.8 11.6 6.5 5.8 15.2 4.6 15.2 4.6-.5-10.2 5.2-10.7 5.2-10.7 3.9-.5 5.9 3.7 5.9 3.7 7.4-2.6 11.5.6 11.5.6.3 11.6-17.2 13.8-17.2 13.8-18.4 2.7-26.7-6.8-26.7-6.8-7.8-7.2-6.6-17.6-1.8-24.2 5.9-8 16-12.4 16-12.4s8.2-4.1 9.9-1.3c.1.1 3 3.4-4.8 6.4z"/><path fill="#FFD800" d="M99.8 160.7s-1.7-17.2 13.3-27.2l6.7 4.4 6.7 2.8 2.2 10 2.2 7.2s-15.6-5.6-21.7 4.4c.1.1-4.4 4-9.4-1.6z"/><path fill="#1289FF" d="M252.5 150.2s.8-7.7.4-15.4c0 0-.5-5.4 4.5-4.3 0 0 4.1 1.1 4.1 7.4 0 0 .3 8.3-1.8 13.6l-7.2-1.3z"/><path fill="#1F9AFF" d="M254.1 148.4c.2-2.9.1-4.8-.2-8.7 0 0-.3-3.9 2.6-4.4 1.2-.2 2.4.2 3.3.9.5.4 1.1 1 1.6 1.9v-.1c0-3.9-1.6-5.8-2.8-6.7-.7-.5-1.6-.8-2.5-.8-3.7-.1-3.3 4.4-3.3 4.4.1 9.1-.5 14.3-.5 14.3l1.8-.8z"/><path fill="#F49F00" d="M113.8 135.8l-5 11.2s-1.7 3.3 2.9 2.5c0 0 3.3-2.1 5-2.5 0 0 2.1 6.2 9.6 7.5 0 0-.4-5-4.2-9.6 0 0-6.7-5-8.3-9.1z" opacity=".55"/><path fill="#F49F00" d="M89.6 229c6.8 2.1 14.7 4.6 14.7 13 0 7.5-7.9 10.8-14.7 10.5v3.9h-5.3v-3.9C73 250.3 71 245.7 71 242.2c0-3 1.9-5.3 5.5-5.3 2.7 0 4.8 1.6 4.8 3.3 0 1.4-.6 2.4-1.5 3-.7.5-1.4.9-1.4 1.4 0 .9 2.4 2.8 5.9 3.2v-10.5c-10-4.5-13.1-7.8-13.1-13.2 0-5.8 6.6-10.8 13.1-11.1v-3.6h5.3v3.6c8.1.6 14 4.9 14 9.8 0 2.8-1.9 5.9-6.2 5.9-2.8 0-5-1.6-5-3.8 0-1.4 1.5-2.3 2.6-2.8.9-.3 1.3-.9 1.3-1.6 0-.9-3.3-2.7-6.7-2.9V229zm-5.2-11.3c-1.7 0-4.9 1.4-4.9 4.5 0 2.6 1.9 4.2 4.9 5.3v-9.8zm5.2 30.1c2.7 0 5.3-1.1 5.3-3.9 0-1.8-1.9-3.6-5.3-5.1v9z"/><path fill="#F49F00" d="M87 226.4c6.8 2.1 14.7 4.6 14.7 13 0 7.5-7.9 10.8-14.7 10.5v3.9h-5.3v-3.9c-11.3-2.2-13.3-6.8-13.3-10.3 0-3 1.9-5.3 5.5-5.3 2.7 0 4.8 1.6 4.8 3.3 0 1.4-.6 2.4-1.5 3-.7.5-1.4.9-1.4 1.4 0 .9 2.4 2.8 5.9 3.2v-10.5c-10-4.5-13.1-7.8-13.1-13.2 0-5.8 6.6-10.8 13.1-11.1v-3.6H87v3.6c8.1.6 14 4.9 14 9.8 0 2.8-1.9 5.9-6.2 5.9-2.8 0-5-1.6-5-3.8 0-1.4 1.5-2.3 2.6-2.8.9-.3 1.3-.9 1.3-1.6 0-.9-3.3-2.7-6.7-2.9v11.4zm-5.3-11.3c-1.7 0-4.9 1.4-4.9 4.5 0 2.6 1.9 4.2 4.9 5.3v-9.8zm5.3 30c2.7 0 5.3-1.1 5.3-3.9 0-1.8-1.9-3.6-5.3-5.1v9z" opacity=".37"/><path fill="#FFF" d="M139.3 229.5l-2.7 13.6-13.5 2.7 14 3.2 2.7 17.6 2.3-17.2 14.4-3.2-14-2.7M155.9 216.4l-1.7 8.6-8.6 1.7 8.9 1.9 1.7 11.1 1.4-10.8 9.1-2-8.8-1.7"/><circle fill="#7FDDFF" cx="129.5" cy="118" r="9.6"/><path fill="#C7FFFF" d="M138 115c0 .2.1.4.1.5 0 5-4.1 9.1-9.1 9.1-3.9 0-7.3-2.5-8.5-6.1.3 4.8 4.2 8.5 9 8.5 5 0 9.1-4 9.1-9.1 0-1-.2-2-.6-2.9z"/><path fill="#FFF" d="M122.9 114.7c0 2.7 2.2 4.8 4.8 4.8 2.7 0 4.8-2.2 4.8-4.8 0-2.7-2.1-4.8-4.8-4.8-2.6 0-4.8 2.2-4.8 4.8z"/><circle fill="#7FDDFF" cx="112.1" cy="110.4" r="7.2"/><path fill="#C7FFFF" d="M118.4 108.1v.4c0 3.7-3 6.8-6.8 6.8-3 0-5.4-1.9-6.4-4.5.2 3.6 3.1 6.4 6.7 6.4 3.7 0 6.8-3 6.8-6.8.2-.8 0-1.5-.3-2.3z"/><path fill="#FFF" d="M107.1 108c0 2 1.6 3.6 3.6 3.6s3.6-1.6 3.6-3.6-1.6-3.6-3.6-3.6-3.6 1.6-3.6 3.6z"/><circle fill="#7FDDFF" cx="96.5" cy="104.2" r="5.2"/><path fill="#C7FFFF" d="M101.1 102.6v.3c0 2.7-2.2 4.9-4.9 4.9-2.1 0-3.9-1.4-4.6-3.3.1 2.6 2.3 4.6 4.9 4.6 2.7 0 4.9-2.2 4.9-4.9 0-.6-.1-1.1-.3-1.6z"/><path fill="#FFF" d="M93 102.5c0 1.4 1.2 2.6 2.6 2.6 1.4 0 2.6-1.2 2.6-2.6 0-1.4-1.2-2.6-2.6-2.6-1.5 0-2.6 1.1-2.6 2.6z"/><circle fill="#7FDDFF" cx="84.6" cy="105.8" r="4.1"/><path fill="#C7FFFF" d="M88.2 104.5v.2c0 2.1-1.7 3.8-3.8 3.8-1.7 0-3.1-1.1-3.6-2.6.1 2 1.8 3.6 3.8 3.6 2.1 0 3.8-1.7 3.8-3.8 0-.4-.1-.8-.2-1.2z"/><path fill="#FFF" d="M81.8 104.4c0 1.1.9 2 2 2s2-.9 2-2-.9-2-2-2-2 .9-2 2z"/><circle fill="#7FDDFF" cx="71.6" cy="112.6" r="4.1"/><path fill="#C7FFFF" d="M75.2 111.3v.2c0 2.1-1.7 3.8-3.8 3.8-1.7 0-3.1-1.1-3.6-2.6.1 2 1.8 3.6 3.8 3.6 2.1 0 3.8-1.7 3.8-3.8.1-.3 0-.7-.2-1.2z"/><path fill="#FFF" d="M68.8 111.2c0 1.1.9 2 2 2s2-.9 2-2-.9-2-2-2c-1 0-2 .9-2 2z"/><circle fill="#7FDDFF" cx="54.5" cy="115.6" r="3.5"/><path fill="#C7FFFF" d="M57.6 114.4v.2c0 1.8-1.5 3.3-3.3 3.3-1.4 0-2.6-.9-3.1-2.2.1 1.7 1.5 3.1 3.3 3.1 1.8 0 3.3-1.5 3.3-3.3 0-.3-.1-.7-.2-1.1z"/><path fill="#FFF" d="M52.1 114.4c0 1 .8 1.7 1.7 1.7 1 0 1.7-.8 1.7-1.7 0-1-.8-1.7-1.7-1.7-.9-.1-1.7.7-1.7 1.7z"/><circle fill="#7FDDFF" cx="63.8" cy="116.5" r="2"/><path fill="#C7FFFF" d="M65.5 115.9v.1c0 1-.8 1.9-1.9 1.9-.8 0-1.5-.5-1.7-1.2.1 1 .9 1.7 1.8 1.7 1 0 1.9-.8 1.9-1.9 0-.2 0-.4-.1-.6z"/><circle fill="#FFF" cx="63.4" cy="115.8" r="1"/><circle fill="#7FDDFF" cx="76.3" cy="106.4" r="2"/><path fill="#C7FFFF" d="M78 105.8v.1c0 1-.8 1.9-1.9 1.9-.8 0-1.5-.5-1.7-1.2.1 1 .9 1.7 1.8 1.7 1 0 1.9-.8 1.9-1.9 0-.2 0-.4-.1-.6z"/><circle fill="#FFF" cx="75.9" cy="105.7" r="1"/><circle fill="#7FDDFF" cx="90.4" cy="110.5" r="2"/><path fill="#C7FFFF" d="M92.1 109.9v.1c0 1-.8 1.9-1.9 1.9-.8 0-1.5-.5-1.7-1.2.1 1 .9 1.7 1.8 1.7 1 0 1.9-.8 1.9-1.9.1-.2 0-.4-.1-.6z"/><circle fill="#FFF" cx="90" cy="109.8" r="1"/><circle fill="#7FDDFF" cx="46.1" cy="113.1" r="2"/><path fill="#C7FFFF" d="M47.8 112.5v.1c0 1-.8 1.9-1.9 1.9-.8 0-1.5-.5-1.7-1.2.1 1 .9 1.7 1.8 1.7 1 0 1.9-.8 1.9-1.9 0-.2 0-.4-.1-.6z"/><circle fill="#FFF" cx="45.7" cy="112.4" r="1"/><circle fill="#7FDDFF" cx="40" cy="109.1" r="2.5"/><path fill="#C7FFFF" d="M42.1 108.3v.1c0 1.3-1 2.3-2.3 2.3-1 0-1.9-.7-2.2-1.6.1 1.2 1.1 2.2 2.3 2.2 1.3 0 2.3-1 2.3-2.3.1-.2 0-.4-.1-.7z"/><circle fill="#FFF" cx="39.5" cy="108.3" r="1.2"/></svg>