<svg xmlns="http://www.w3.org/2000/svg" viewBox="0 0 314.2 270"><circle fill="#0052EE" cx="147.6" cy="135" r="135"/><circle fill="#00D1F3" cx="174" cy="63.8" r="16.3"/><circle fill="#B8FFF3" cx="174" cy="63.8" r="12"/><path fill="#1F9AFF" d="M215.8 131s11.9-25.8 33.1-27.8c0 0 10.6 0 5.3 7.9 0 0-9.3 21.2-4 44.4L215.8 131z"/><path fill="#1289FF" d="M220.7 133.6c10.4-7.6 22.9-10.3 29.8-11.3-1.8 8.3-3.1 20-.3 32.3l-29.5-21z"/><path fill="#1289FF" d="M132.3 176.7c-18.5-19.9-4-35.8-4-35.8 10.6-12.6 38-15.9 63.6-15.9 23.8 0 43.7 7.3 43.7 7.3s41.1 14.6 38.4 59c0 0-2 57-68.9 57 0 0-61.6 1.3-67.6-45 .1-.1-1-22.1-5.2-26.6z"/><path fill="#1289FF" d="M272.2 145s-9.8 17.2-14.7 42.3c0 0 11 27.6 14.1 30.1 0 0 6.1-.6-1.2-27-.1 0 11.6-58.3 1.8-45.4zm-91.5 52.3s-4.1 25.1-29.8 26.5c-9.9 1.3-23.8-1.3-35.1-8.6 0 0-15.2-9.9-1.3-9.3 0 0 8.6.7 11.9.7 0 0 31.1 3.3 34.4-8.6"/><path fill="#1F9AFF" d="M185.5 151.4s-33.9-1.7-62.4 2c.9-7.6 5.3-12.4 5.3-12.4 10.6-12.6 38-15.9 63.6-15.9 23.8 0 43.7 7.3 43.7 7.3s41.1 14.6 38.4 59c0-.1-17.6-35.5-88.6-40z"/><path fill="#FFF" d="M238.1 158.2c-.9 12.6-11.6 22.1-24 21.2-12.3-.9-21.6-11.8-20.7-24.4.9-12.6 11.6-22.1 24-21.2 12.3.9 21.6 11.8 20.7 24.4z"/><path fill="#FFD800" d="M229 153.7c-.7 9.3-8.6 16.3-17.7 15.6-9.1-.7-15.9-8.7-15.3-18 .7-9.3 8.6-16.3 17.7-15.7 9.1.8 15.9 8.8 15.3 18.1z"/><path fill="#35356D" d="M222.9 151.6c-.5 6.6-6.1 11.7-12.6 11.2s-11.4-6.2-10.9-12.9 6.1-11.7 12.6-11.2 11.4 6.2 10.9 12.9z"/><path fill="#FFF" d="M208.8 152.7c-.1 2.1-2 3.6-4 3.5-2.1-.1-3.6-1.9-3.5-4 .2-2.1 2-3.6 4-3.5 2.1.1 3.6 1.9 3.5 4z"/><path fill="#0A2688" d="M246.7 181.4l-2.5-.9c3.5-10.6 2.6-23.7 2.6-23.8l2.7-.2c0 .6.9 13.8-2.8 24.9zm6.1 2.7l-2.5-.9c3.5-10.6 2.6-23.7 2.6-23.8l2.7-.2c0 .6.9 13.8-2.8 24.9zm6.1 2.7l-2.5-.9c3.5-10.6 2.6-23.7 2.6-23.8l2.7-.2c0 .5 1 13.8-2.8 24.9z" opacity=".26"/><path fill="#DEEBF3" d="M235.1 205.5s1.7 2.8 3.5 5.7c3.6 5.8 10 14 20.4 16.2-9.8 12.3-26.4 21.5-53.8 21.5 0 0-25.9.5-45.8-11.8-11.5-6.8-20.3-18.4-22.4-34.8 0 0-.4-3-.9-8.2-.6-6.6-1.1-9.8-2.2-12.9-.4-1.2-2.1-4.5-3.6-6.7 13.5-2 82-9.6 104.8 31z"/><path fill="#1289FF" d="M242.9 209.9s-1.9 14.1 9.3 21.9c4.2 3.1 11.5 4.6 18.5 5 11.6 1 27.1-1.4 37.6-8.5 0 0 6.6-4.7 5.8-7.9-.2-1.1-1-2-5-1.8 0 0-8.6.7-11.9.7 0 0-31.1 3.3-34.4-8.6l-19.9-.8z"/><path fill="#1F9AFF" d="M296.6 227.1c-4.1.7-7.6 1.2-12.8 1.3 0 0-19.5.7-22.2-8.3 0 0-1.8-5.8 4-5.6 7.3 6.2 31.8 4.6 31.8 4.6 4-.2 11.9-.7 11.9-.7 1.1-.1 2 0 2.7 0 2.3 1-.4 5.8-15.4 8.7z"/><path fill="#FF8DB8" d="M149.9 192.3c5.3 3.3 8.8 4.3 16.2 4.8 9.3.6 13.9-.5 24.2-3.1 9.1-2.4 19.8-5.8 29.5-5.8 10.5 0 11.7 8.7 5.6 16-12.1 14.4-37.9 18.4-57 16.2-17.5-2.1-29.9-11.5-29.6-26.8.1-3.7 2.2-12.6 6.5-6.5-.1.1 2.2 3.7 4.6 5.2z"/><path fill="#F86A9A" d="M224.3 205.3c-12.4 13.5-37.4 17.3-56 15.1-8.3-1-15.4-3.6-20.6-7.7 32-12 64-11.3 76.6-7.4z"/><path fill="#FFF" d="M191.1 212.1c1.9-.7 4.6 1.2 7.2 3.3.9-5.4 2.7-6 2.7-6 1.9-.7 5 1.3 7.5 3.3 0-7 3-7.5 3-7.5 2.5-.7 7 1.7 9.3 3.4-8.6 7-20.9 10.7-33.2 12 .2-7.6 3.5-8.5 3.5-8.5z"/><path fill="#FF68B4" d="M135.1 115.4c-14.9 3.4-27.6 4.6-44.8 0-16.2-4.3-31.4-17.1-28.2-34 1.1-5.9 3.9-11 7.9-15.3 10.5-11.3 22.7-12.8 32.7-13 5.9-.1 14.2-.1 24.4 4.6 3.2 1.4 4.9 3 6.5 6.5 2.9 6.3-1.6 18-1.6 18s12.6.3 20.1-1c-.1 0 7.9 28.5-17 34.2z"/><path fill="#FFF" d="M125.1 68.6c.6 3.4-2.3 6.3-5.7 5.7-1.9-.4-3.4-1.9-3.8-3.8-.7-3.4 2.3-6.4 5.7-5.7 1.9.4 3.4 1.9 3.8 3.8z"/><path d="M122.6 69.6c0 1.3-1 2.3-2.3 2.3-1.3 0-2.3-1-2.3-2.3 0-1.3 1-2.3 2.3-2.3 1.3 0 2.3 1 2.3 2.3z"/><path fill="#FF68B4" d="M63.3 92.3c-5.2 2.1-18.3 14.8-21.9 6.3-2.8-6.7 14.6-7.5 6.7-12-3.5-2.1-7.1-1.7-7.7-6.9-.5-4.4 2.4-7.6 6.5-7.3 8.5.5 11.7 11.5 18.8 14.1l-2.4 5.8zm56-35.9l2.5 1.5c.2-.3 19-33.2 37.8-30.8.3 0 4.2.2 7.6 4 3.9 4.3 5.7 11.7 5.1 21.4l2.9.2c.7-10.7-1.3-18.7-5.9-23.7-4.3-4.7-9.3-4.8-9.5-4.8-18.5-2.8-39.6 30.8-40.5 32.2z"/><path fill="#FF68B4" d="M172.5 51.3c-.2 4.3-4.1 7.4-4.7 12.2-.6 5.4 1.7 9 6.7 9 4.9 0 6.9-5.2 6-9.9-.5-2.8-3-7.7-4-10.6-1.1-3.3-1.3-6.1-1.4-7.6l-2.6 6.9zM142 82.4s-.3-11.8.3-14.4c0 0 3.4 11.2 3.4 16.1l-3.7-1.7zm-4.1 1.2s-.3-11.8.3-14.4c0 0 3.4 11.2 3.4 16.1l-3.7-1.7z"/><path fill="#C42581" d="M132.3 82.1s-6.4.5-11.8-.4c-6.3-1-11.8-4.1-12.5-14.5h1.6s0 10.6 9.8 12.7c3.9.9 7.5.7 12.9.7v1.5z"/><ellipse fill="#FFE600" cx="174" cy="63.8" rx="4.5" ry="5.9"/><path fill="#FF68B4" d="M102.2 55.1c2-2.7 1.4-6.7-.8-9.3-2.2-2.6-5.5-3.8-8.9-4.2-3.3-.4-6.7 0-10.1.1-6.8.3-13.7-.2-20.4-1.6 1.3 5 5.5 7.4 10.8 9.8 3.9 2.6 3.9 5.4 4.3 8.1.3 2.9.3 5.9 0 8.8"/><path fill="#FFADE2" d="M147.6 106.3c-5.6 1.5-11.6 3.5-17 1.5-2.3-.8-4.4-2.3-6.7-3.2-10-3.6-21.7 5.5-31.2.9-2.6-1.2-4.7-3.4-7.3-4.6-5.7-2.5-12.7-.1-18.8-.3 5.4 7.2 14.3 12.4 23.5 14.8 17.2 4.6 29.9 3.4 44.8 0 7.3-1.7 11.8-5.3 14.4-9.6-.6.2-1.2.3-1.7.5z"/><circle fill="#FFADE2" cx="102" cy="74.6" r="4.5"/><circle fill="#FFADE2" cx="93.6" cy="73.5" r="2.2"/><circle fill="#FFADE2" cx="84.9" cy="73.8" r="2.5"/><circle fill="#FFADE2" cx="78" cy="76.9" r="1.7"/><circle fill="#FFADE2" cx="68.7" cy="76.3" r="3.1"/><circle fill="#FFADE2" cx="60.6" cy="70.7" r="2.8"/><circle fill="#FFADE2" cx="50.6" cy="66.8" r="1.7"/><path fill="#0000D0" d="M3.6 159.7C.9 165.8.1 172.6 0 179.4c-.3 14.3 5.6 35.2 29.4 41.2 32.1 8.1 73.5 3.2 105.2-23.2-6.9-.9-11.1-8.3-14.2-14.9-2.7-5.6-5.4-11.2-8-16.9-18-39.8-69.8-30.1-81.3-27.2-11.4 2.8-22.5 10-27.5 21.3z"/><path d="M31.2 161.1c0-.2.1-.3.3-.3h1.9c.2 0 .3.1.3.3v14.3c0 .2-.1.3-.3.3h-1.9c-.2 0-.3-.1-.3-.3v-5.9h-2.4v5.9c0 .2-.1.3-.3.3h-1.9c-.2 0-.3-.1-.3-.3v-14.3c0-.2.1-.3.3-.3h1.9c.2 0 .3.1.3.3v5.9h2.4v-5.9zm12.7 1.9c0 .2-.1.3-.3.3H39v3.7h3.5c.2 0 .3.1.3.3v1.8c0 .2-.1.3-.3.3H39v3.8h4.6c.2 0 .3.1.3.3v1.9c0 .2-.1.3-.3.3h-6.8c-.2 0-.3-.1-.3-.3v-14.3c0-.2.1-.3.3-.3h6.8c.2 0 .3.1.3.3v1.9zm11.3-2.2c.3 0 .4.2.3.4l-3.4 8.3v5.8c0 .2-.1.4-.4.4h-1.8c-.2 0-.4-.1-.4-.4v-5.8l-3.4-8.3c-.1-.3 0-.4.3-.4h1.9c.2 0 .4.1.4.3l2.1 5.3 2.1-5.3c.1-.2.2-.3.4-.3h1.9zm4.8 0c.2 0 .3.1.3.3l-.1 10.1c0 .2-.1.3-.3.3h-1.8c-.2 0-.3-.1-.3-.3l-.1-10.1c0-.2.1-.3.3-.3h2zm-2.2 12.8c0-.2.1-.4.4-.4h1.7c.2 0 .4.1.4.4v1.7c0 .2-.1.4-.4.4h-1.7c-.2 0-.4-.1-.4-.4v-1.7zm10.8-12.5c0-.2.1-.3.3-.3h4.5c1.7 0 2.7.9 2.7 2.7v9.5c0 1.7-.9 2.7-2.7 2.7h-4.5c-.2 0-.3-.1-.3-.3v-14.3zm4.3 12.1c.5 0 .7-.2.7-.7V164c0-.5-.3-.8-.7-.8h-1.7v10h1.7zm8.2-12.4c.2 0 .3.1.3.3v14.3c0 .2-.1.3-.3.3h-1.9c-.2 0-.3-.1-.3-.3v-14.3c0-.2.1-.3.3-.3h1.9zm3.1.3c0-.2.1-.3.3-.3H89c1.7 0 2.7.9 2.7 2.7v9.5c0 1.7-.9 2.7-2.7 2.7h-4.5c-.2 0-.3-.1-.3-.3v-14.3zm4.2 12.1c.5 0 .7-.2.7-.7V164c0-.5-.3-.8-.7-.8h-1.7v10h1.7zm-64.8 9.9c.3 0 .4.2.3.4l-3.4 8.3v5.8c0 .2-.1.4-.4.4h-1.8c-.2 0-.4-.1-.4-.4v-5.8l-3.4-8.3c-.1-.3 0-.4.3-.4h1.9c.2 0 .4.1.4.3l2.1 5.3 2.1-5.3c.1-.2.2-.3.4-.3h1.9zm1.5 2.7c0-1.7.9-2.7 2.7-2.7h2.1c1.7 0 2.7.9 2.7 2.7v9.5c0 1.7-.9 2.7-2.7 2.7h-2.1c-1.7 0-2.7-.9-2.7-2.7v-9.5zm4.3 9.8c.5 0 .7-.2.7-.7v-8.6c0-.5-.3-.7-.7-.7h-1.1c-.5 0-.7.3-.7.7v8.6c0 .5.3.7.7.7h1.1zm13-12.5c.2 0 .4.2.4.4v11.8c0 1.7-.9 2.7-2.7 2.7H38c-1.7 0-2.7-.9-2.7-2.7v-11.8c0-.2.2-.4.4-.4h1.8c.2 0 .4.2.4.4v11.3c0 .5.3.7.7.7h1c.5 0 .7-.2.7-.7v-11.3c0-.2.2-.4.4-.4h1.7zM57.1 198c-.2 0-.4-.1-.4-.3l-2.3-5.5-.7 1.3v4.1c0 .2-.1.4-.4.4h-1.8c-.2 0-.4-.1-.4-.4v-14.1c0-.2.1-.4.4-.4h1.8c.2 0 .4.1.4.4v5.8l2.9-5.9c.1-.2.2-.3.4-.3h2c.3 0 .4.2.3.4L56 190l3.4 7.5c.1.2 0 .4-.3.4h-2zm11.8-14.9c.2 0 .3.1.3.3v14.3c0 .2-.1.3-.3.3H67c-.2 0-.3-.1-.3-.2l-2.8-7.9h-.1v7.9c0 .2-.1.3-.3.3h-1.9c-.2 0-.3-.1-.3-.3v-14.3c0-.2.1-.3.3-.3h1.8c.2 0 .3.1.3.2l2.8 7.9h.1v-7.8c0-.2.1-.3.3-.3h2zm3.1 2.7c0-1.7.9-2.7 2.7-2.7h2.1c1.7 0 2.7.9 2.7 2.7v9.5c0 1.7-.9 2.7-2.7 2.7h-2.1c-1.7 0-2.7-.9-2.7-2.7v-9.5zm4.2 9.8c.5 0 .7-.2.7-.7v-8.6c0-.5-.3-.7-.7-.7h-1.1c-.5 0-.7.3-.7.7v8.6c0 .5.3.7.7.7h1.1zm17.5-12.5c.2 0 .4.1.4.4l-1.6 14.1c0 .2-.1.4-.4.4h-1.8c-.2 0-.4-.1-.4-.3l-1.9-8.4-2 8.4c-.1.2-.2.3-.4.3h-1.9c-.2 0-.4-.1-.4-.4l-1.5-14.1c0-.2.1-.4.4-.4H84c.2 0 .4.1.4.4l.7 8.7h.1l1.8-8.7c.1-.2.2-.3.4-.3h1.1c.2 0 .4.1.4.3l1.8 8.7h.1l.8-8.7c0-.2.2-.4.4-.4h1.7zm2.1 12.8c0-.2.1-.4.4-.4h1.7c.2 0 .4.1.4.4v1.7c0 .2-.1.4-.4.4h-1.7c-.2 0-.4-.1-.4-.4v-1.7zm5.2 0c0-.2.1-.4.4-.4h1.7c.2 0 .4.1.4.4v1.7c0 .2-.1.4-.4.4h-1.7c-.2 0-.4-.1-.4-.4v-1.7zm5.2 0c0-.2.1-.4.4-.4h1.7c.2 0 .4.1.4.4v1.7c0 .2-.1.4-.4.4h-1.7c-.2 0-.4-.1-.4-.4v-1.7z" fill="#DEEBF3"/></svg>