<svg xmlns="http://www.w3.org/2000/svg" xmlns:xlink="http://www.w3.org/1999/xlink" viewBox="0 0 277.2 270"><circle fill="#0052EE" cx="142.2" cy="135" r="135"/><defs><circle id="a" cx="142.2" cy="135" r="135"/></defs><clipPath id="b"><use xlink:href="#a" overflow="visible"/></clipPath><g clip-path="url(#b)" fill="#0000D0"><path d="M125.2 207.5c3.3 5.7-8 12.5-25.4 15-17.3 2.6-34.1 0-37.4-5.8-3.3-5.7 8-12.5 25.4-15 17.3-2.5 34.1.1 37.4 5.8zm-55.4 16.6c2 3.5-4.9 7.7-15.6 9.2s-21 0-23-3.6c-2-3.5 4.9-7.7 15.6-9.2 10.6-1.5 20.9.1 23 3.6zM290 193.9c3.3 6.3-7.9 13.7-25 16.5-17.1 2.8-33.6 0-36.9-6.3-3.3-6.3 7.9-13.7 25-16.5s33.6 0 36.9 6.3zm-159.7 45.9c2 3.5-4.9 7.7-15.6 9.2-10.7 1.6-21 0-23-3.6-2-3.5 4.9-7.7 15.6-9.2s21 .1 23 3.6zm47 5.6c2 3.5-4.9 7.7-15.6 9.2-10.7 1.6-21 0-23-3.6-2-3.5 4.9-7.7 15.6-9.2 10.6-1.5 20.9.1 23 3.6zm-90.5-2.2c1.2 2-2.8 4.4-8.9 5.3-6.1.9-12 0-13.2-2-1.2-2 2.8-4.4 8.9-5.3 6.1-.9 12.1 0 13.2 2zm-26.7-29.6c1.2 2-2.8 4.4-8.9 5.3-6.1.9-12 0-13.2-2-1.2-2 2.8-4.4 8.9-5.3 6.1-1 12-.1 13.2 2zm114.6 6.5c3.3 5.7-8 12.5-25.4 15s-34.1 0-37.4-5.8c-3.3-5.7 8-12.5 25.4-15 17.3-2.6 34.1 0 37.4 5.8z" opacity=".57"/><path d="M108.8 228.9c2.1 3.6-5.9 8-17.9 9.8-12 1.8-23.5.3-25.6-3.4-2.1-3.6 5.9-8 17.9-9.8 12.1-1.8 23.5-.2 25.6 3.4zM211 203.6c2.1 3.6-5.9 8-17.9 9.8-12 1.8-23.5.3-25.6-3.4-2.1-3.6 5.9-8 17.9-9.8s23.4-.2 25.6 3.4zM68.8 166.7c3.3 5.7-8 12.5-25.4 15-17.3 2.6-34.1 0-37.4-5.8s8-12.5 25.4-15 34.1.1 37.4 5.8zm-55.5 16.6c2 3.5-4.9 7.7-15.6 9.2-10.7 1.6-21 0-23-3.6-2-3.5 4.9-7.7 15.6-9.2s21 .1 23 3.6zM73.9 199c2 3.5-4.9 7.7-15.6 9.2-10.7 1.6-21 0-23-3.6s4.9-7.7 15.6-9.2c10.6-1.5 20.9.1 23 3.6zm-18.5-52c2 3.5-4.9 7.7-15.6 9.2s-21 0-23-3.6c-2-3.5 4.9-7.7 15.6-9.2s21 .1 23 3.6zm-36.3 9.5c2 3.5-4.9 7.7-15.6 9.2-10.7 1.6-21 0-23-3.6-2-3.5 4.9-7.7 15.6-9.2 10.7-1.5 21 .1 23 3.6zm11.3 45.9c1.2 2-2.8 4.4-8.9 5.3-6.1.9-12 0-13.2-2s2.8-4.4 8.9-5.3c6.1-.9 12 0 13.2 2zM3.6 172.8c1.2 2-2.8 4.4-8.9 5.3-6.1.9-12 0-13.2-2s2.8-4.4 8.9-5.3c6.1-1 12-.1 13.2 2z" opacity=".57"/><path d="M118.3 179.3c3.3 5.7-8 12.5-25.4 15-17.3 2.6-34.1 0-37.4-5.8-3.3-5.7 8-12.5 25.4-15s34.1 0 37.4 5.8zm-65.9 8.8c2.1 3.6-5.9 8-17.9 9.8-12 1.8-23.5.3-25.6-3.4-2.1-3.6 5.9-8 17.9-9.8 12-1.8 23.5-.2 25.6 3.4zm62.7-27.8c2.1 3.6-5.9 8-17.9 9.8-12 1.8-23.5.3-25.6-3.4-2.1-3.6 5.9-8 17.9-9.8s23.5-.2 25.6 3.4z" opacity=".57"/></g><g opacity=".57" clip-path="url(#b)"><path fill="#0000D0" d="M195.2 232.6c1.6 2.8-3.9 6.1-12.4 7.4-8.5 1.2-16.7 0-18.3-2.8-1.6-2.8 3.9-6.1 12.4-7.4 8.5-1.3 16.7-.1 18.3 2.8z"/></g><g opacity=".38" clip-path="url(#b)"><path fill="#231F20" d="M152.2 173h69.6c3.3 0 5.2 3.8 3.2 6.5l-43 52.1c-.8 1-1.9 1.5-3.2 1.5h-144c-4.3 0-4.2-4.6-4.1-7.6l119.8-52.1c.5-.3 1.1-.4 1.7-.4z"/></g><path fill="#001B49" d="M.2 104c-.9-2.6.8-5.4 3.5-5.7l118.8-15.7c2.1-.2 4.1 1 4.8 3l29.4 77-112.6 49.2c-2.3 1-5.1-.2-5.9-2.6L.2 104z"/><path fill="#FFD800" d="M17.1 107.1l104-15.4c1.2-.2 2.4.5 2.8 1.7l25.2 64.5c.5 1.3-.2 2.7-1.5 3.3l-97.4 38.9c-1.4.5-2.9-.2-3.4-1.6L15 110.4c-.5-1.5.5-3.1 2.1-3.3z"/><path fill="#F49F00" d="M33 119.1l81.8-14.5c.7-.1 1.5.3 1.7 1l21.3 53.7c.3.8-.1 1.7-.9 2l-78.5 28.1c-.8.3-1.7-.1-2-1l-24.6-67.3c-.3-.9.3-1.8 1.2-2z" opacity=".55"/><path fill="#FFF" d="M34.9 115.4l81.8-14.5c.7-.1 1.5.3 1.7 1l21.3 53.7c.3.8-.1 1.7-.9 2l-78.5 28.1c-.8.3-1.7-.1-2-1l-24.6-67.3c-.3-.9.3-1.9 1.2-2z"/><path fill="#DAE8EB" d="M34.9 115.4l81.8-14.5c.7-.1 1.5.3 1.7 1l1.9 5.1-84.4 16.6-2.2-6.1c-.3-1 .3-2 1.2-2.1z"/><circle fill="#DEEBF3" cx="72.9" cy="93.7" r="1.8"/><path fill="#DEEBF3" d="M158.1 162.3h65.1c3.1 0 4.9 3.6 3 6.1L186 217.1c-.7.9-1.8 1.4-3 1.4H48.4c-4 0-3.9-4.3-3.8-7.1l112-48.7c.5-.3 1-.4 1.5-.4z"/><path fill="#2E89DC" d="M156 166.7h24.8v1.7l-48.6 41c-.5.6-1.2.9-1.9.9H78l.1-2.4 76.9-41c.3-.1.6-.2 1-.2zm25.5 12.9h20.6c.5 0 .8.6.4 1L190 194.1c-.5.6-1.2.9-2 .9h-23.4c-.5 0-.8-.7-.4-1l15.7-13.8c.5-.4 1-.6 1.6-.6z" opacity=".2"/><path fill="#DEEBF3" d="M164.108 163.925l.978 1.63-84.197 50.533-.98-1.63zm7.278-.158l1.062 1.575-74.305 50.07-1.062-1.577zm5.444 1.007l1.153 1.51-64.8 49.43-1.153-1.51z"/><path fill="#DEEBF3" d="M158.5 179.3h10.3v1.4h-10.3zm-11.1 19h-11.1c-.5 0-.9-.4-.9-.9s.4-.9.9-.9h11.1c.5 0 .9.4.9.9s-.4.9-.9.9zm-6.9 6h-12.1c-.5 0-.9-.4-.9-.9s.4-.9.9-.9h12.1c.5 0 .9.4.9.9s-.3.9-.9.9zm23.6-29.3h12.1v1.2h-12.1zm5.4-4h12.1v.9h-12.1zm-48.3 27.1h12.1v1.9h-12.1zm8.8-6.3h11.4v1.9H130zm7.6-5h10.9v1.4h-10.9zm8.1-5h9.3v1.4h-9.3zm6.4-4.6h8.8v1.2h-8.8zm7.5-4.8h8.1v.9h-8.1zm-57.7 29.2h13.6v1.9h-13.6zm10.1-6.3h12.9v1.9H112z"/><path fill="#DEEBF3" d="M120.6 190h12.3v1.9h-12.3zm8.9-4.7H140v1.4h-10.5zm7.5-4.7h10v1.4h-10zm8.3-4.9h9.2v1.2h-9.2zm-51.5 21.9h14.5v1.9H93.8zm9.9-5.2h13v1.9h-13zm9.4-5h12.1v1.9h-12.1zm8.4-4.4H133v1.4h-11.5zm9.7-4.9h9.9v1.2h-9.9zm8.6-4.4h8.9v1.2h-8.9zm7.9-4.1h7.7v.9h-7.7zM66.5 203h16.8v1.9H66.5z"/><path fill="#DEEBF3" d="M78.7 197.1h16.8v1.9H78.7zm12.6-5.9h14.6v1.9H91.3z"/><circle fill="#F05B43" cx="39.6" cy="118.7" r="1.7"/><circle fill="#EE812B" cx="45" cy="117.6" r="1.7"/><circle fill="#199D5F" cx="50.5" cy="116.6" r="1.7"/><defs><circle id="c" cx="142.2" cy="135" r="135"/></defs><clipPath id="d"><use xlink:href="#c" overflow="visible"/></clipPath><g clip-path="url(#d)"><path fill="#1F9AFF" d="M138 120.2c-16.7 0-30.3-13.6-30.3-30.3s13.6-30.3 30.3-30.3 30.3 13.6 30.3 30.3-13.6 30.3-30.3 30.3z"/><path fill="#0045EE" d="M138 61.5c15.7 0 28.5 12.8 28.5 28.5s-12.8 28.5-28.5 28.5-28.5-12.8-28.5-28.5 12.8-28.5 28.5-28.5m0-3.6c-17.7 0-32.1 14.4-32.1 32.1s14.4 32 32.1 32c17.7 0 32.1-14.4 32.1-32.1s-14.4-32-32.1-32z"/><circle fill="#99E2FF" cx="138" cy="89.9" r="21"/><path fill="#FF68B4" d="M250.9 109.4s-3.5 46.8-75.7 23c0 0-12.9 37.7 30.7 47.7 26 6 48.1 8 78.1 0 28.2-7.5 54.8-29.8 49.2-59.3-1.9-10.2-6.8-19.2-13.8-26.7-18.4-19.6-39.6-22.4-56.9-22.6-10.3-.2-24.7-.1-42.6 8-5.5 2.5-8.5 5.2-11.3 11.3-2.4 5.2-3.4 25-3.4 25s26.8 5.6 45.7-6.4z"/><path fill="#FFF" d="M219.7 96.5c-1.4 7.3 4.9 13.6 12.2 12.2 4.1-.8 7.4-4.1 8.2-8.1 1.5-7.3-4.9-13.7-12.3-12.3-4 .8-7.3 4.1-8.1 8.2z"/><path d="M221.6 98.5c0 2.7 2.2 4.9 4.9 4.9s4.9-2.2 4.9-4.9-2.2-4.9-4.9-4.9-4.9 2.2-4.9 4.9z"/><path fill="#FF68B4" d="M233.3 77.1l-4.3 2.7c-.4-.6-33.2-57.9-65.9-53.7-.6 0-7.4.3-13.3 6.9-6.8 7.5-9.9 20.4-8.8 37.4l-5.1.3c-1.1-18.7 2.3-32.6 10.3-41.3 7.5-8.1 16.2-8.4 16.5-8.4 32.3-5 69.1 53.6 70.6 56.1z"/><path fill="#FF68B4" d="M140.7 68.2c.4 7.6 7.2 12.9 8.2 21.2 1.1 9.3-2.9 15.7-11.6 15.7-8.5 0-12.1-9-10.5-17.3.9-4.9 5.3-13.5 7-18.5 2-5.8 2.3-10.6 2.4-13.3l4.5 12.2zm49.3 71.1s.5-20.5-.5-25c0 0-6 19.5-6 28.1l6.5-3.1zm7 2s.5-20.5-.5-25c0 0-6 19.5-6 28.1l6.5-3.1z"/><ellipse fill="#FFD800" cx="138" cy="89.9" rx="7.9" ry="10.3"/><path fill="#FF68B4" d="M263.1 74.9c-3.5-4.7-2.4-11.8 1.4-16.2s9.7-6.7 15.5-7.4c5.8-.7 11.7-.1 17.5.2 11.9.6 23.9-.4 35.6-2.9-2.3 8.7-9.5 13-18.9 17.1-6.8 4.6-6.9 9.4-7.4 14.2-.6 5.1-.6 10.3.1 15.4"/><path fill="#FFADE2" d="M184.1 164.1c9.7 2.7 20.1 6.1 29.6 2.7 4.1-1.5 7.6-4.1 11.7-5.6 17.4-6.4 37.8 9.5 54.4 1.5 4.5-2.2 8.2-5.9 12.8-8 9.9-4.4 22.2-.2 32.8-.5-9.4 12.5-21.4 24.8-37.5 29.1-30.1 8-48.1 10.1-73.3 5.9-12.9-2.1-29.1-10.1-34.9-24.9 1 .2 3.4-.5 4.4-.2z"/></g><path fill="#FFF" d="M99.1 59.9l-1.3 6.4-6.5 1.3 6.7 1.5 1.3 8.4 1.1-8.1 6.9-1.5-6.7-1.3m-12-16.8l-.8 4.1-4.1.8 4.2 1 .8 5.3.7-5.2 4.4-.9-4.3-.8m15.6-9.5l-.5 2.6-2.7.5 2.8.7.5 3.4.4-3.4 2.8-.6-2.7-.5"/><path fill="#1F9AFF" d="M106.8 147.7c2.1 7.8-2.5 15.8-10.3 17.9-7.8 2.1-15.8-2.5-17.9-10.3-1.7-6.4 3-27 4.7-34.1.3-1.1 1.6-1.4 2.4-.6 5 5.3 19.4 20.7 21.1 27.1z"/><path fill="#FFF" d="M83.9 149.8c-.2-.7-1.2-.5-1.3.2-.2 3.2.3 7.8 3.9 10.3 4.4 3 9.5 1.4 12.3-.1.6-.3.4-1.3-.3-1.2-4.1 0-11.8-1.1-14.6-9.2z" opacity=".51"/></svg>