<svg xmlns="http://www.w3.org/2000/svg" viewBox="0 0 42 42"><switch><g><path fill="none" stroke="#000" stroke-width="2" stroke-miterlimit="10" d="M13.6 35.5L2.8 25.6M39 25.8l-10.6 9.7"/><path fill="none" stroke="#0069FF" stroke-width="2" stroke-miterlimit="10" d="M37.4 18.8H4.7c-2 0-3.6 1.6-3.6 3.6v.1c0 2 1.6 3.6 3.6 3.6h32.7c2 0 3.6-1.6 3.6-3.6v-.1c0-2-1.6-3.6-3.6-3.6z"/><path fill="none" stroke="#000" stroke-width="2" stroke-miterlimit="10" d="M13.6 35.5h14.8V41H13.6z"/><path fill="#FFF" stroke="#00D688" stroke-width="2" stroke-miterlimit="10" d="M21 4.5v19.1M27 8.5v15.1M33.1 14.6v9M15 13.6v10"/><circle cx="27" cy="5" r="1.2"/><circle cx="33" cy="11.3" r="1.2"/><circle cx="20.9" cy="1.4" r="1.2"/><circle cx="14.8" cy="10.2" r="1.2"/><path fill="#FFF" stroke="#00D688" stroke-width="2" stroke-miterlimit="10" d="M8.9 9.5v14.1"/><circle cx="8.9" cy="6.3" r="1.2"/></g></switch></svg>