<svg xmlns="http://www.w3.org/2000/svg" viewBox="0 0 42 42"><switch><g><path fill="none" stroke="#0069FF" stroke-width="2" stroke-linejoin="round" stroke-miterlimit="10" d="M1 24.3L7 18l17 16L40 2"/><path fill="none" stroke="#00D688" stroke-width="2" stroke-linejoin="round" stroke-miterlimit="10" d="M1 40.8L24 18l16 15.9v-16"/><path d="M7.3 3.5c-.4 0-.8-.2-1.1-.4 0-.1-.1-.2-.1-.3-.1 0-.1-.1-.2-.2s0-.2-.1-.3V2v-.3c0-.1 0-.2.1-.3l.2-.2c0-.1.1-.2.2-.2.3-.4.9-.5 1.4-.4.1 0 .2 0 .3.1.1 0 .2.1.3.1.1.1.2.1.2.2.2.2.3.6.3 1v.3c0 .1-.1.2-.1.3s-.1.2-.1.2c-.1.1-.2.2-.2.3s-.2.1-.3.2c0 0-.1.1-.2.1s-.2.1-.3.1h-.3zM5.8 17.9c0-.8.7-1.5 1.5-1.5s1.5.7 1.5 1.5-.7 1.5-1.5 1.5-1.5-.6-1.5-1.5zM7.3 35.4c-.4 0-.8-.2-1.1-.4-.1-.1-.2-.3-.3-.5-.1-.2-.1-.4-.1-.6 0-.4.2-.8.4-1.1l.2-.2c.1-.1.2-.1.3-.1.1 0 .2-.1.3-.1.5-.1 1 .1 1.4.4.3.3.4.7.4 1.1 0 .2 0 .4-.1.6-.1.2-.2.3-.3.5-.1.1-.3.2-.5.3-.2 0-.4.1-.6.1zM23.5 3.5c-.4 0-.8-.2-1.1-.4-.2-.3-.4-.7-.4-1.1 0-.4.2-.8.4-1.1.4-.4.9-.5 1.4-.4.1 0 .2 0 .3.1.1 0 .2.1.3.1.1 0 .2.1.2.2.2.3.4.7.4 1.1 0 .4-.2.8-.4 1.1l-.2.2c-.1.1-.2.1-.3.1-.1 0-.2.1-.3.1h-.3zM22 17.9c0-.8.7-1.5 1.5-1.5s1.5.7 1.5 1.5-.7 1.5-1.5 1.5-1.5-.6-1.5-1.5zM23.5 35.4c-.4 0-.8-.2-1.1-.4-.1-.1-.2-.3-.3-.5-.1-.2-.1-.4-.1-.6 0-.4.2-.8.4-1.1.1-.1.2-.1.2-.2.1-.1.2-.1.3-.1.1 0 .2-.1.3-.1h.6c.1 0 .2.1.3.1.1 0 .2.1.3.1.1.1.2.1.2.2.3.3.4.7.4 1.1 0 .2 0 .4-.1.6-.1.2-.2.3-.3.5-.1.1-.3.2-.5.3-.2 0-.4.1-.6.1z"/><g><path d="M39.7 3.5h-.3c-.1 0-.2-.1-.3-.1-.1 0-.2-.1-.3-.1-.1-.1-.2-.1-.2-.2s-.1-.1-.2-.2-.1-.2-.1-.2-.1-.2-.1-.3v-.3-.3c0-.1 0-.2.1-.3 0-.1.1-.2.1-.3 0-.1.1-.2.2-.2.6-.6 1.6-.6 2.1 0l.2.2.2.2c0 .1.1.2.1.3v.6c0 .1 0 .2-.1.3 0 .1-.1.2-.1.2 0 .1-.1.2-.2.2l-.2.2c-.1.1-.2.1-.2.1-.1 0-.2.1-.3.1-.2.1-.3.1-.4.1zM38.2 17.9c0-.8.7-1.5 1.5-1.5s1.5.7 1.5 1.5-.7 1.5-1.5 1.5-1.5-.6-1.5-1.5zM39.7 35.4c-.2 0-.4 0-.6-.1-.2-.1-.4-.2-.5-.3s-.2-.3-.3-.5c-.1-.2-.1-.4-.1-.6v-.3c0-.1 0-.2.1-.3s.1-.2.1-.3c0-.1.1-.2.2-.2.6-.6 1.6-.6 2.1 0 .1.1.1.2.2.2.1.1.1.2.1.3s.1.2.1.3v.3c0 .2 0 .4-.1.6-.1.2-.2.3-.3.5-.2.2-.6.4-1 .4z"/></g><g><path fill="none" stroke="#000" stroke-width="2" stroke-miterlimit="10" d="M42 41H1V0"/></g></g></switch></svg>