<svg data-name="Layer 1" xmlns="http://www.w3.org/2000/svg" viewBox="0 0 31.14 31.12"><title>_500startups</title><path d="M.32 31.11H.13a.11.11 0 0 1-.13-.13v-.12V.27C0 0 0 0 .27 0h30.57c.29 0 .29 0 .29.29v30.54c0 .25.06.28-.29.28H.32zm28.58-2c.28 0 .27 0 .27-.28V2.2v-.14c0-.05 0-.14-.14-.14H2.24c-.3 0-.28 0-.28.28v26.63c0 .32 0 .28.27.28H28.9z"/><path d="M22.36 19.4h-1.39a2.42 2.42 0 0 1-.54-.08 1.43 1.43 0 0 1-.89-.72 3.2 3.2 0 0 1-.35-1 8.9 8.9 0 0 1-.14-1.61v-1.58a5.23 5.23 0 0 1 .28-1.48 2 2 0 0 1 .45-.74 1.33 1.33 0 0 1 .79-.39 7.35 7.35 0 0 1 .82-.06h1.85c.26 0 .53 0 .79.06a1.42 1.42 0 0 1 1.09.74 3.11 3.11 0 0 1 .35 1 10.1 10.1 0 0 1 .17 1.93 11.75 11.75 0 0 1-.12 2 3.83 3.83 0 0 1-.24.91 2.72 2.72 0 0 1-.22.42 1.38 1.38 0 0 1-1 .62c-.25 0-.51 0-.77.05h-.93zm1.46-3.84c0-.48 0-1-.06-1.44a3.59 3.59 0 0 0-.12-.65.45.45 0 0 0-.46-.38h-1.69a.44.44 0 0 0-.42.34 1 1 0 0 0 0 .12 6.89 6.89 0 0 0-.1.73v1.79c0 .36 0 .72.07 1.09a2.69 2.69 0 0 0 .1.5.4.4 0 0 0 .36.31h1.79a.44.44 0 0 0 .42-.38 4.08 4.08 0 0 0 .1-.6c-.02-.47-.01-.95.01-1.43zM15.4 11.68h1.42a2.6 2.6 0 0 1 .4.05 1.43 1.43 0 0 1 1 .72 2.85 2.85 0 0 1 .32.83 7 7 0 0 1 .18 1.41v1.65a5.9 5.9 0 0 1-.28 1.74 3 3 0 0 1-.28.58 1.38 1.38 0 0 1-1 .65 4.48 4.48 0 0 1-.59 0h-2.5a2.31 2.31 0 0 1-.54-.08 1.43 1.43 0 0 1-.88-.7 3.12 3.12 0 0 1-.35-1 8.58 8.58 0 0 1-.14-1.61v-1.65a5 5 0 0 1 .28-1.44 2 2 0 0 1 .46-.74 1.32 1.32 0 0 1 .77-.38c.28 0 .56-.05.84-.06h.91zm1.46 3.88c0-.47 0-.94-.06-1.4a3.85 3.85 0 0 0-.16-.69.44.44 0 0 0-.47-.37h-1.69a.44.44 0 0 0-.42.34 1.79 1.79 0 0 0-.06.25c0 .27-.07.55-.08.82v1.9a9.34 9.34 0 0 0 .09 1 1.41 1.41 0 0 0 .1.34.37.37 0 0 0 .3.24h1.83a.44.44 0 0 0 .42-.38 4.58 4.58 0 0 0 .11-.66c.06-.48.07-.93.09-1.39zM9.39 13.1H7.46a.1.1 0 0 0-.12.11v.37c0 .35-.06.7-.08 1.05a.18.18 0 0 0 0 .14c.06 0 .11 0 .15-.05a1.34 1.34 0 0 1 .6-.31 2.36 2.36 0 0 1 .4 0h1.58a2.64 2.64 0 0 1 .55.08 1.26 1.26 0 0 1 .86.69 2.71 2.71 0 0 1 .24 1 8.17 8.17 0 0 1 0 1.51 3.41 3.41 0 0 1-.12.69 1.42 1.42 0 0 1-1.37 1.09H7.02a2.81 2.81 0 0 1-.6-.1 1 1 0 0 1-.73-.65 2.59 2.59 0 0 1-.17-.62c0-.31 0-.62-.06-.93 0-.13 0-.14.14-.14h1.44c.13 0 .13 0 .14.14s0 .29 0 .44a1.14 1.14 0 0 0 0 .15.4.4 0 0 0 .39.32H9.39a.39.39 0 0 0 .36-.31 2.34 2.34 0 0 0 .07-.38 5 5 0 0 0 0-1.1 1 1 0 0 0 0-.12.41.41 0 0 0-.41-.34h-1a2 2 0 0 0-1.15.32.37.37 0 0 1-.34 0l-1.16-.35c-.18-.05-.14-.07-.13-.19s0-.43 0-.65l.14-2.1v-.81-.14c0-.05 0-.17.19-.17h5.31a.08.08 0 0 1 .1.09V12.97c0 .18 0 .18-.19.18H9.32z"/></svg>