<svg id="Layer_1" data-name="Layer 1" xmlns="http://www.w3.org/2000/svg" viewBox="0 0 54.45 21.59"><defs><style>.cls-1{fill:#6b6b6d}.cls-2{fill:#6c6c6e}</style></defs><title>_a16z</title><g id="zqhRFm.tif"><path class="cls-1" d="M309.89 289.2c.32.51.21.74-.37 1a12.88 12.88 0 0 0-6.85 8.61 1 1 0 0 0 0 .22l.38-.24a5.76 5.76 0 0 1 5.88-.44 5.16 5.16 0 0 1 2.92 4.76 7 7 0 0 1-1.7 5.41 6.28 6.28 0 0 1-3.65 2.14.46.46 0 0 0-.15.1h-2.55a.29.29 0 0 0-.1-.09c-2.51-.44-3.85-2.16-4.6-4.39a12 12 0 0 1 .73-9.09 14.5 14.5 0 0 1 9.11-7.9 2.24 2.24 0 0 0 .25-.12h.69zm-7.71 14.8c.08.8.15 1.69.28 2.58a5.68 5.68 0 0 0 .37 1.21 3 3 0 0 0 1.23 1.54 2.5 2.5 0 0 0 3.68-1.39 9.13 9.13 0 0 0 .43-4.53 5.56 5.56 0 0 0-1-2.78 2.62 2.62 0 0 0-2.91-1 2.27 2.27 0 0 0-1.85 2c-.12.73-.15 1.48-.23 2.37z" transform="translate(-272.61 -289.2)"/><path class="cls-2" d="M294 289.2c0 .52.08 1 .08 1.55 0 1.83-.08 3.66-.09 5.49v11.42c0 1.23.24 1.45 1.46 1.49h1.32a.4.4 0 0 1 .5.52 1.3 1.3 0 0 0 0 .29c0 .34-.09.46-.44.45-1.31 0-2.61-.06-3.92-.06-1.91 0-3.82 0-5.74.06a.46.46 0 0 1-.57-.58c0-.43 0-.72.59-.69a20.29 20.29 0 0 0 2.06 0 .88.88 0 0 0 1-1q.11-1.91.12-3.82v-9.37a5.18 5.18 0 0 0-.11-1 .65.65 0 0 0-.86-.58q-1.35.33-2.69.72c-.31.09-.51.12-.63-.26s-.29-.61.18-.85c2.31-1.19 4.6-2.4 6.9-3.6.11-.06.21-.14.32-.2h.52z" transform="translate(-272.61 -289.2)"/><path class="cls-1" d="M272.61 300.67c.9-2.69 5.16-4.12 7.89-3.51a2.56 2.56 0 0 1 2.11 2.58c0 2.33.05 4.67.09 7a5.4 5.4 0 0 0 .11 1.21 1.17 1.17 0 0 0 .46.73.86.86 0 0 0 1.06-.29c.27-.37.48-.26.76-.06s.18.48 0 .73a3 3 0 0 1-2.41 1.62.65.65 0 0 0-.2.09h-.39a1.08 1.08 0 0 0-.24-.11 2.5 2.5 0 0 1-2-1.63 1.93 1.93 0 0 0-.14-.24l-.15.11a5.73 5.73 0 0 1-4 1.77.39.39 0 0 0-.15.09h-.59a.81.81 0 0 0-.2-.1 2 2 0 0 1-1.63-1.46 3.55 3.55 0 0 1 .82-3.77 7.2 7.2 0 0 1 1.68-1.16c1.16-.62 2.37-1.17 3.55-1.77a.65.65 0 0 0 .36-.4 23.73 23.73 0 0 0-.2-2.63 1.14 1.14 0 0 0-.95-.89 3.37 3.37 0 0 0-2 .11 1 1 0 0 0-.84 1.38 3.8 3.8 0 0 1 0 .87 1.41 1.41 0 0 1-1.13 1.32 1.42 1.42 0 0 1-1.75-.54v-1.08zm6.85 2.78c-.79.48-1.51.86-2.18 1.32a2.74 2.74 0 0 0-1.14 2.93 1.35 1.35 0 0 0 2 1.07 2.9 2.9 0 0 0 .84-.58 1.38 1.38 0 0 0 .41-.79c.1-1.27.07-2.55.07-3.95z" transform="translate(-272.61 -289.2)"/><path class="cls-2" d="M327.06 306.56l-1.53 2.77a3.13 3.13 0 0 1-.69 1.21 3.07 3.07 0 0 1-1.34 0l-8.28-.15h-.64c-.57 0-.68-.21-.36-.69.75-1.15 1.51-2.29 2.27-3.43l4.92-7.38.24-.38h-3.46a2.73 2.73 0 0 0-1.92 1c-.66.72-1.3 1.46-1.93 2.22a.53.53 0 0 1-.91-.52q.84-1.93 1.64-3.88a.39.39 0 0 1 .5-.29c1.54.17 3.08.37 4.62.44 1.73.07 3.46 0 5.2 0a2.26 2.26 0 0 1 .58.16 2.41 2.41 0 0 1-.2.57q-3.58 5.29-7.19 10.58l-.29.46a3.58 3.58 0 0 0 .41.05h2.55a3.35 3.35 0 0 0 2.37-.77 27.08 27.08 0 0 0 2.17-2c.61-.64.58-.67 1.29-.27v.39z" transform="translate(-272.61 -289.2)"/></g></svg>