<svg data-name="Layer 1" xmlns="http://www.w3.org/2000/svg" viewBox="0 0 41.37 33.05"><title>_atlantaTechVillage</title><path d="M32.83 17.33h-4.64L20.7 6.62l-.18.24-7.25 10.31a.38.38 0 0 1-.25.16H8.53L20.7 0zM28.82 26.86a.64.64 0 0 1-.68-.21 55.5 55.5 0 0 0-2.09-2l-.16-.13v2.39h-1.3v-5a.64.64 0 0 1 .65.16c.68.69 1.39 1.37 2.09 2l.21.2v-2.33h1.29v4.93zM40.03 26.87l-.29-.6h-2l-.29.6h-1.26a1.41 1.41 0 0 1 .06-.29l2.13-4.63.06-.1h.55l2.31 5h-1.33zm-1.27-3l-.54 1.27h1.1zM2.25 21.86h.54c.76 1.65 1.54 3.3 2.31 5H3.78l-.29-.6H1.54l-.29.61H0a1 1 0 0 1 0-.27l2.16-4.69zm-.29 3.3h1.11l-.56-1.27zM22.44 26.88h-1.32l-.3-.61h-1.94l-.3.61h-1.24a.83.83 0 0 1 0-.25l2.19-4.76h.57c.78 1.64 1.6 3.29 2.34 5.01zm-2.6-3l-.54 1.27h1.1zM10.09 23.06H8.9v3.81H7.63v-3.8H6.42v-1.13h3.67v1.13zM31.18 23.07v-1.13h3.66v1.11H33.7v3.82h-1.3v-3.8h-1.22zM12.46 21.93h1.24v3.81h1.79v1.14h-3.05v-4.95zM13.88 33h-.52v-1.18h-1.39v1.17h-.52v-2.8h.51v1.13h1.38v-1.13h.53V33zM39.36 30.19h1.91v.44H39.9v.71h1.32v.49h-1.33v.73h1.43v.45h-2V30.2zM5.63 30.63H4.24v.7h1.33v.48H4.24v.74H5.7V33h-2v-2.8h1.92v.44zM37.59 30.3v.42a6.91 6.91 0 0 0-.76-.1 1 1 0 0 0-.92 1.52.94.94 0 0 0 1.16.36v-.79h.51v1.16a1.94 1.94 0 0 1-2-.24 1.81 1.81 0 0 1-.09-2 1.94 1.94 0 0 1 2.1-.33zM33.16 33l-.32-.75h-.94l.17-.47h.57l-.44-1-.93 2.27h-.57l1.19-2.81h.59l1.22 2.82h-.57zM18.7 32.33l.87-2.14h.63L18.97 33h-.59l-1.18-2.8h.64zM9.7 32.44v.41a1.93 1.93 0 0 1-2.07-.31 1.81 1.81 0 0 1 0-1.95 2 2 0 0 1 2.1-.32v.41a8 8 0 0 0-.91-.08.82.82 0 0 0-.89.93.86.86 0 0 0 .91 1 7.88 7.88 0 0 0 .86-.09zM1.34 30.63V33H.8v-2.36H.01v-.45h2.13v.43h-.8zM28.09 32.56h1.12V33h-1.63v-2.81h.51v2.37zM24.18 30.19h.52v2.36h1.12V33h-1.63v-2.81zM21.8 30.18h.5V33h-.5v-2.82z"/></svg>