<svg id="Layer_1" xmlns="http://www.w3.org/2000/svg" viewBox="0 0 623.1 129.9"><style>.st0{fill:#525252;} .st1{fill:#FC9C26;}</style><path class="st0" d="M19.7 1.9V41c3.6-3.5 7.4-6.2 11.6-8s8.6-2.6 13.3-2.6c10.3 0 19 3.9 26.2 11.6 7.2 7.8 10.8 17.7 10.8 29.8 0 11.7-3.7 21.5-11.1 29.3-7.4 7.9-16.2 11.8-26.4 11.8-4.5 0-8.8-.8-12.7-2.4-3.9-1.6-7.8-4.2-11.6-7.9v8.4H0V1.9h19.7zm20.7 46.5c-6.2 0-11.4 2.1-15.4 6.4-4.1 4.2-6.2 9.8-6.2 16.6 0 7 2.1 12.7 6.2 17s9.2 6.5 15.4 6.5c6 0 11.1-2.2 15.2-6.6 4.1-4.4 6.2-10 6.2-16.8 0-6.7-2-12.3-6.1-16.6-4-4.3-9.1-6.5-15.3-6.5zm218.5-18.1c7.4 0 14.4 1.9 21 5.6s11.7 8.7 15.3 15.1c3.7 6.4 5.5 13.2 5.5 20.6s-1.9 14.3-5.5 20.8c-3.7 6.5-8.7 11.5-15.1 15.1S266.7 113 259 113c-11.3 0-21-4-29-12s-12-17.8-12-29.2c0-12.3 4.5-22.5 13.6-30.7 7.9-7.2 17-10.8 27.3-10.8zm.3 18.6c-6.2 0-11.3 2.1-15.3 6.4-4.1 4.3-6.1 9.7-6.1 16.4 0 6.8 2 12.4 6.1 16.6 4 4.2 9.1 6.4 15.3 6.4 6.2 0 11.3-2.1 15.4-6.4s6.2-9.8 6.2-16.5-2-12.2-6.1-16.4c-4-4.4-9.2-6.5-15.5-6.5zm98.5-5.5l-12.2 12.3c-4.9-4.9-9.4-7.4-13.5-7.4-2.2 0-3.9.5-5.2 1.4-1.3.9-1.9 2.1-1.9 3.5 0 1.1.4 2 1.2 2.9.8.9 2.8 2.1 5.9 3.7l7.2 3.6c7.6 3.7 12.9 7.6 15.7 11.4 2.8 3.9 4.2 8.5 4.2 13.7 0 7-2.6 12.8-7.7 17.4-5.1 4.7-12 7-20.7 7-11.5 0-19.7-4.5-26.6-13.4l11.3-13.2c2.3 2.7 5 4.9 8.2 6.5 3.1 1.7 5.9 2.5 8.3 2.5 2.6 0 4.7-.6 6.3-1.9 1.6-1.3 2.4-2.7 2.4-4.3 0-3-2.9-6-8.6-8.9l-6.6-3.3c-12.8-6.4-19.1-14.4-19.1-24 0-6.2 2.4-11.5 7.2-15.9 4.8-4.4 10.9-6.6 18.4-6.6 5.1 0 9.9 1.1 14.4 3.4 4.4 2.2 8.2 5.4 11.4 9.6zm17.6-40.2H395v29.1h11.7v17.1H395V111h-19.7V49.3h-10.1V32.2h10.1v-29z"/><path class="st1" d="M413.3 4.5h20.8l26.8 75.6 27.3-75.6H509L470.6 111H451L413.3 4.5zm209.8 18.7l-14.2 13.5c-9.7-10.2-20.5-15.3-32.6-15.3-10.2 0-18.8 3.5-25.8 10.4S540 47.3 540 57.5c0 7.1 1.6 13.4 4.6 18.9 3.1 5.5 7.5 9.8 13.1 13 5.7 3.1 11.9 4.7 18.9 4.7 5.9 0 11.3-1.1 16.1-3.3 4.9-2.2 10.3-6.2 16.1-12l13.8 14.4c-7.9 7.7-15.3 13-22.3 16s-15 4.5-24 4.5c-16.6 0-30.1-5.2-40.7-15.7-10.6-10.5-15.8-23.9-15.8-40.3 0-10.6 2.4-20 7.2-28.3s11.7-14.9 20.6-19.9c8.9-5 18.6-7.5 28.9-7.5 8.8 0 17.2 1.9 25.4 5.6 8.3 3.5 15.3 8.8 21.2 15.6z"/><path class="st1" d="M126.9 36c-10.8 7.5-17.3 19.9-17.3 33 0 22.2 18 40.2 40.2 40.2S190 91.2 190 69c0-13.2-6.5-25.5-17.3-33-4.7-3.2-5.8-9.7-2.6-14.3 3.2-4.7 9.7-5.9 14.4-2.6 16.4 11.4 26.2 30 26.2 50 0 33.6-27.2 60.8-60.8 60.8s-60.8-27.2-60.8-60.8c0-20 9.8-38.6 26.2-50 4.7-3.2 11.1-2.1 14.4 2.6 3 4.6 1.9 11-2.8 14.3z"/><path class="st1" d="M149.8 0c5.4 0 9.7 4.4 9.7 9.7v56.9c0 5.4-4.4 9.7-9.7 9.7-5.4 0-9.7-4.4-9.7-9.7V9.7c-.1-5.3 4.3-9.7 9.7-9.7z"/></svg>