<svg id="Layer_1" xmlns="http://www.w3.org/2000/svg" viewBox="0 0 718.4 205"><style>.st0{fill:#231F20;}</style><path class="st0" d="M214.1 94.2c.2 0 .4-.1.6-.2.2-.2.4-.5.4-.8v-.6c0-.4-.1-1-.1-1.6 0-.8-.2-2-.3-2.2-.1-.4-.4-.7-.8-.8-21.9-5-33-9.8-51.4-22.6-.2-.1-.4-.2-.6-.2h-.2c-.3.1-.5.2-.6.5-.4.8-.9 1.6-1.3 2.3-.3.5-.6 1-.8 1.5-.3.5-.1 1 .3 1.3 18.7 12.9 31 18.1 54.7 23.3-.1.1 0 .1.1.1z"/><path class="st0" d="M75.3 144.8l-4.1-2.9c-.2-.1-.4-.2-.6-.2-.2 0-.3 0-.5.1-13.3 7.4-22 10.4-37.7 14.6-.9.2-1.7.4-2.6.4-1.3 0-2.7-.3-3.9-.8-.9-.4-1.5-1.1-1.8-2-.5-1.5-.7-3.2-.4-4.8 2.3-20 .8-39.9-4.6-59.2v-.1c-.6-2.2-.4-4.5.7-6.5s2.9-3.4 5.1-4.1c29-9.6 56.7-22.7 82.6-38.9 1.8-.9 3.7-1.4 5.7-1.4.8 0 1.7.1 2.5.2.7.2 1.5.2 2.2.2h.9c2.6 0 5.1 1.2 6.8 3.2 8.1 8.6 12.6 13 21.6 19.6.2.1.4.2.6.2h.2c.3-.1.5-.2.7-.5.3-.6.7-1.1 1.1-1.7.4-.7.9-1.3 1.3-2.1.2-.4.1-1-.3-1.3-8.6-6.3-12.7-10.4-19.7-17.8-2.2-2.3-3.1-5.4-2.6-8.5.5-2.8-.2-5.6-1.9-7.9-1.7-2.3-4.1-3.8-6.9-4.3-.6-.1-1.2-.1-1.7-.1-5.2 0-9.6 3.7-10.5 8.9-.5 2.8-2.1 5.3-4.6 6.9-25 15.6-51.9 28.3-79.8 37.6-1 .3-2.1.5-3.2.5-1.7 0-3.3-.4-4.8-1.2s-3.2-1.3-4.9-1.3c-3.7 0-7.1 2-8.9 5.2-2.6 4.7-1.1 10.6 3.5 13.5 2.1 1.3 3.7 3.4 4.3 5.9 4.6 17.2 6 34.8 4.1 52.5-.3 2.8-1.8 5.4-4.1 7-2.6 1.8-4.2 4.5-4.8 7.6-.5 3.1.2 6.2 2 8.8 2.2 3.1 5.8 4.9 9.6 4.9 2.5 0 4.8-.8 6.8-2.2 1.6-1.2 3-2.8 3.8-4.6 1.3-2.7 3.6-4.7 6.5-5.5 17.2-4.6 27.4-8 42.2-16.5.3-.2.5-.5.5-.8.1-.1-.1-.4-.4-.6z"/><path class="st0" d="M244.5 92.9c-.9-6.4-6.5-11.2-13-11.2h-.5c-2.8 0-5.5-1.2-7.4-3.3-13.8-15.7-26-32.8-36.3-51-1.5-2.6-1.7-5.8-.6-8.6 1.4-3.4 1.3-7.1-.1-10.5-1.4-3.4-4.1-6-7.5-7.3-1.6-.6-3.3-1-5.1-1-5.6 0-10.6 3.4-12.7 8.6-1.9 4.7-1 10 2.2 13.9 2.3 2.7 2.9 6.4 1.8 9.7-7.7 22.2-18.2 41.8-31.4 58.5-13.6 17.2-30.4 31.7-50 43.3-.3.2-.5.5-.5.8s.2.7.4.9l4.1 2.8c.2.1.4.2.6.2.2 0 .4 0 .5-.1 40.1-24.2 68.2-60.5 83.6-108 .2-.4.6-.8 1-1.1.3-.2.7-.3 1.1-.3.8 0 1.6.5 2 1.2C187.7 50.3 200.9 69 216 86c1.8 2.1 2.7 4.8 2.5 7.5-.1 1.5 0 3.1.4 4.6.7 2.6.3 5.5-1.1 7.8-12.1 19.7-21.3 41.1-27.3 63.4-.8 2.8-2.7 5.2-5.4 6.4-1.5.6-2.8 1.5-4.1 2.6-1.8 1.7-4.2 2.6-6.7 2.6-1.1 0-2.1-.2-3.1-.5-60.8-20.1-105.9-47.7-146.1-89.6l-.9-.9c-.2-.2-.4-.3-.7-.3-.2 0-.3 0-.5.1-.4.2-.6.7-.5 1.1.9 4.2 2.7 8.6 2.8 8.8.1.1.1.3.2.4 42.8 41.6 86 67.5 144.4 86.7 3.2 1.1 5.7 3.7 6.5 6.9 1.8 6.7 7.9 11.4 14.8 11.4 1.3 0 2.6-.2 3.9-.5 4-1 7.3-3.6 9.4-7.1s2.6-7.7 1.6-11.6c-.6-2.1-1.6-4.2-3-5.9-2.1-2.5-2.8-5.9-1.9-9 5.7-20.5 14.2-40.2 25.2-58.5 1.5-2.6 4.1-4.3 7.1-4.7 7.1-1 12-7.6 11-14.8z"/><g><path class="st0" d="M316.9 32.4c8.4 0 14.5 2.7 20.1 7.7.7.7.7 1.7.1 2.3l-5.1 5.2c-.6.7-1.4.7-2.1 0-3.5-3.1-8.2-4.9-12.8-4.9-10.6 0-18.5 8.9-18.5 19.4 0 10.4 8 19.2 18.6 19.2 5 0 9.2-1.9 12.7-4.7.7-.6 1.6-.5 2.1 0l5.2 5.3c.7.6.5 1.7-.1 2.2-5.6 5.5-12.8 8.1-20.2 8.1-16.6 0-30-13.2-30-29.9 0-16.5 13.4-29.9 30-29.9z"/><path class="st0" d="M373.5 32.4c16.6 0 29.9 13.4 29.9 30s-13.3 29.9-29.9 29.9-29.9-13.2-29.9-29.9c.1-16.6 13.3-30 29.9-30zm0 49.1c10.5 0 19.1-8.6 19.1-19 0-10.5-8.6-19.2-19.1-19.2s-19 8.7-19 19.2c0 10.4 8.5 19 19 19z"/><path class="st0" d="M414.4 34.9c0-.8.7-1.6 1.5-1.6h19.7c16.1 0 29.2 13.1 29.2 29 0 16.1-13.1 29.2-29.2 29.2h-19.7c-.8 0-1.5-.8-1.5-1.6v-55zm20.2 46.5c10.8 0 18.7-8.2 18.7-19s-7.9-19-18.7-19h-9.5v38h9.5z"/><path class="st0" d="M475.8 34.9c0-.8.7-1.6 1.6-1.6h33.8c.9 0 1.6.8 1.6 1.6v6.8c0 .8-.7 1.6-1.6 1.6h-24.6v13.6h20.5c.8 0 1.6.8 1.6 1.6v6.9c0 .9-.8 1.6-1.6 1.6h-20.5v14.6h24.6c.9 0 1.6.8 1.6 1.6V90c0 .8-.7 1.6-1.6 1.6h-33.8c-.9 0-1.6-.8-1.6-1.6V34.9z"/><path class="st0" d="M541.3 68.3H538c-.6 0-.7-.4-.7-.8l.1-.8c.1-.4.5-.8.9-.8h3.3l1.2-8.8c1-7.1 4.8-10.4 9.9-10.4 2.8 0 5 1.5 5.9 2.7.2.4.2.8-.1 1l-.8.7c-.3.3-.7.4-1 0-.7-.7-2.4-1.9-4-1.9-3.7 0-6.4 2.5-7.2 8.2l-1.2 8.5h7.9c.5 0 .7.3.7.7l-.1.9c-.1.4-.4.7-.9.7H544l-5.7 40.1c-.1.4-.5.8-.9.8h-1.1c-.4 0-.8-.4-.7-.8l5.7-40z"/><path class="st0" d="M568.1 65.2c5.4 0 9.5 5.1 9.5 11.2 0 8.1-6 14.8-13.1 14.8-5.4 0-9.5-5-9.5-11.2-.1-8 5.8-14.8 13.1-14.8zm-3.4 23.5c5.3 0 10-5.4 10-12 0-4.9-2.9-8.9-7.1-8.9-5.3 0-10.1 5.4-10.1 11.9.1 5 3 9 7.2 9z"/><path class="st0" d="M586.7 66.7c.1-.4.5-.8.9-.8h.8c.3 0 .6.3.6.7l-.1 2.3c.6-.9 3.2-3.7 7.4-3.7 1.7 0 2.8.5 3.3.7.5.3.7.6.5 1.1l-.6 1.2c-.2.4-.6.6-1.1.3-.3-.2-1.3-.8-2.7-.8-4.3 0-6.9 4-7.1 4.3l-2.5 17.7c-.1.5-.3.8-.9.8h-1.3c-.4 0-.6-.4-.6-.8l3.4-23z"/><g><path class="st0" d="M283.6 168.4l25.9-56c.3-.5.7-.9 1.4-.9h.8c.8 0 1.2.4 1.4.9l25.6 56c.5 1.1-.2 2.2-1.4 2.2h-7.2c-1.2 0-1.8-.5-2.4-1.7l-4.1-9h-24.9l-4.1 9c-.3.8-1.1 1.7-2.4 1.7H285c-1.2-.1-1.9-1.1-1.4-2.2zm35.9-17.7l-8.3-18.3h-.3l-8.2 18.3h16.8z"/><path class="st0" d="M344.7 113.9c0-.8.7-1.6 1.6-1.6h7.9c.9 0 1.6.8 1.6 1.6v34c0 7.1 4.8 12.6 12.1 12.6 7.2 0 12.1-5.6 12.1-12.6v-34.1c0-.8.7-1.6 1.6-1.6h7.9c.8 0 1.6.8 1.6 1.6v34.6c0 12.6-10.1 22.9-23.2 22.9s-23.1-10.2-23.1-22.9v-34.5h-.1z"/><path class="st0" d="M401.9 162.4l3-5.2c.7-1.2 2.1-1.2 2.8-.6.4.3 7.2 5.2 12.6 5.2 4.3 0 7.6-2.8 7.6-6.4 0-4.2-3.6-7.2-10.6-10-7.8-3.2-15.6-8.2-15.6-18 0-7.4 5.5-16 18.7-16 8.5 0 15 4.3 16.6 5.6.8.5 1.1 1.9.5 2.7l-3.2 4.7c-.7 1-1.9 1.7-2.9 1-.7-.4-7-4.6-11.6-4.6-4.7 0-7.3 3.2-7.3 5.8 0 3.9 3.1 6.6 9.8 9.3 8.1 3.2 17.4 8.1 17.4 18.8 0 8.6-7.4 16.5-19.1 16.5-10.5 0-16.6-4.9-18.3-6.5-.7-.6-1.1-1-.4-2.3z"/><path class="st0" d="M458.2 122.3h-12.7c-.9 0-1.6-.8-1.6-1.6v-6.8c0-.8.7-1.6 1.6-1.6h36.4c.9 0 1.6.8 1.6 1.6v6.8c0 .8-.7 1.6-1.6 1.6h-12.7V169c0 .8-.8 1.6-1.6 1.6h-7.7c-.8 0-1.6-.7-1.6-1.6v-46.7h-.1z"/><path class="st0" d="M492.1 113.9c0-.8.7-1.6 1.6-1.6h23.8c10 0 18.1 8 18.1 17.9 0 7.7-5.1 13.9-12.3 16.8l11.4 21.1c.6 1.1 0 2.4-1.4 2.4h-8.7c-.7 0-1.2-.4-1.3-.7l-11.1-22h-9.3V169c0 .8-.7 1.6-1.6 1.6h-7.7c-.9 0-1.6-.7-1.6-1.6l.1-55.1zm24.5 25c4.4 0 8.2-3.8 8.2-8.5 0-4.4-3.8-8.1-8.2-8.1H503v16.6h13.6z"/><path class="st0" d="M540 168.4l25.9-56c.2-.5.7-.9 1.4-.9h.8c.8 0 1.2.4 1.4.9l25.6 56c.5 1.1-.2 2.2-1.4 2.2h-7.2c-1.2 0-1.8-.5-2.4-1.7l-4.1-9h-24.9l-4.1 9c-.3.8-1.1 1.7-2.4 1.7h-7.2c-1.3-.1-1.9-1.1-1.4-2.2zm35.9-17.7l-8.3-18.3h-.2l-8.2 18.3h16.7z"/><path class="st0" d="M602.7 113.9c0-.8.7-1.6 1.6-1.6h7.7c.8 0 1.6.8 1.6 1.6v46.7h21.2c.9 0 1.6.8 1.6 1.6v6.8c0 .8-.7 1.6-1.6 1.6h-30.4c-.9 0-1.6-.7-1.6-1.6l-.1-55.1z"/><path class="st0" d="M644.7 113.9c0-.8.7-1.6 1.6-1.6h7.7c.8 0 1.6.8 1.6 1.6V169c0 .8-.7 1.6-1.6 1.6h-7.7c-.8 0-1.6-.7-1.6-1.6v-55.1z"/><path class="st0" d="M663.2 168.4l25.9-56c.2-.5.7-.9 1.4-.9h.8c.8 0 1.2.4 1.4.9l25.6 56c.5 1.1-.2 2.2-1.4 2.2h-7.2c-1.2 0-1.8-.5-2.4-1.7l-4.1-9h-24.9l-4.1 9c-.3.8-1.1 1.7-2.4 1.7h-7.2c-1.2-.1-1.9-1.1-1.4-2.2zm35.9-17.7l-8.3-18.3h-.2l-8.2 18.3h16.7z"/></g></g></svg>