<svg id="Layer_1" data-name="Layer 1" xmlns="http://www.w3.org/2000/svg" viewBox="0 0 125.05 12.02"><defs><style>.cls-1{fill:#87c226}.cls-2{fill:#54504f}</style></defs><title>_crunchFund</title><g id="XXrRWB.tif"><path class="cls-1" d="M340.59 298.07v8.11h-2v-11.56a11.84 11.84 0 0 1 1.66 0 1.27 1.27 0 0 1 .62.53q2.54 3.26 5.06 6.53a2 2 0 0 0 .69.63v-7.72h2v11.61a7.09 7.09 0 0 1-1.36 0 1.39 1.39 0 0 1-.7-.53c-1.83-2.33-3.63-4.67-5.45-7-.11-.16-.26-.3-.52-.6zM352 306.23V294.7a1.83 1.83 0 0 1 .37-.08c1.43 0 2.86-.05 4.29 0a5.66 5.66 0 0 1 5.36 3.5 5.75 5.75 0 0 1-4.28 7.95 7.34 7.34 0 0 1-1.32.14c-1.42.03-2.88.02-4.42.02zm2.06-1.67a13.78 13.78 0 0 0 3.31-.27 3.92 3.92 0 0 0 3-3.88 3.73 3.73 0 0 0-3.1-3.83 21 21 0 0 0-3.19 0v8zM325.53 294.77h2.07v6.45a6.19 6.19 0 0 0 .38 1.88 2.49 2.49 0 0 0 1.47 1.3 2.73 2.73 0 0 0 2.8-.38 2.78 2.78 0 0 0 1.14-2.52v-6.15-.68h2v6.61a8.29 8.29 0 0 1-.27 1.92 4.19 4.19 0 0 1-4.59 3.13h-1.14a4.15 4.15 0 0 1-3.78-3.74 30.34 30.34 0 0 1-.13-3.26c.03-1.53.05-3.03.05-4.56zM316.6 306.15h-2v-11.5h8.54v1.78h-6.49v3.2h5.73v1.81h-5.78v4.71z" transform="translate(-237.46 -294.41)"/><path class="cls-2" d="M277 297v9.21h-1.2v-11.52a1.4 1.4 0 0 1 1.71.58c2 2.64 4.12 5.26 6.19 7.88l.58.7v-9.18h1.25a5.34 5.34 0 0 1 .05.55v10.12c0 .33.08.73-.34.85a.93.93 0 0 1-1.06-.42c-2.11-2.73-4.26-5.43-6.39-8.14l-.57-.71zM260 306.12a1.8 1.8 0 0 1-2.33-1c-.67-1-1.46-2-2.16-2.95a1 1 0 0 0-1-.48h-2.7v4.45h-1.29v-11.39h2.58c1 0 2-.12 3-.07a3.54 3.54 0 0 1 3.45 2.62 3.21 3.21 0 0 1-1.84 3.8c-.35.16-.72.27-1.17.44zm-8.14-10.26v4.67h3.7a2.85 2.85 0 0 0 1.14-.19 2.35 2.35 0 0 0 1.67-2.51 2.26 2.26 0 0 0-2.28-2c-1.37-.03-2.77.03-4.22.03zM303.07 301v4.09c0 1.34 0 1.21-1.26 1v-11.43H303v5.06h6.69v-5.06H311v11.5h-1.28V301h-6.69zM262.77 294.61h1.16v6.54a7 7 0 0 0 .28 1.91 2.82 2.82 0 0 0 2.26 2 3.52 3.52 0 0 0 4.49-2.48 1.64 1.64 0 0 0 0-.53v-6.62c0-.65.15-.76.78-.71a.46.46 0 0 1 .5.54c0 2.26 0 4.52-.06 6.77a4.09 4.09 0 0 1-2.52 3.89 5.33 5.33 0 0 1-5.34-.49 3.72 3.72 0 0 1-1.62-3c.01-2.55.07-5.14.07-7.82zM298.94 296.39l-.71.79-.54-.41a4.68 4.68 0 0 0-5.44-.51 4.94 4.94 0 0 0-2.11 5.15 4.54 4.54 0 0 0 7.22 2.9l.19-.14c.81-.61.81-.61 1.52.16-1.39 1.94-4.19 2.49-6.49 1.75a5.86 5.86 0 0 1-3.85-5.1 6.81 6.81 0 0 1 1.5-4.65 5.81 5.81 0 0 1 3.49-1.86c1.83-.3 4.54.46 5.22 1.92zM247.83 296.37l-.93.79a5 5 0 0 0-4.6-1.43 4.26 4.26 0 0 0-2.55 1.67 5.14 5.14 0 0 0 .53 6.63c1.35 1.28 4 2.09 6.79-.47l.69.91c-1.82 2.38-6.18 2.58-8.43.47a6.34 6.34 0 0 1-.15-8.84 6.1 6.1 0 0 1 8.65.27z" transform="translate(-237.46 -294.41)"/></g></svg>