<svg id="Layer_1" xmlns="http://www.w3.org/2000/svg" viewBox="0 0 439 69.5"><style>.st0{fill:#515254;} .st1{fill:#F27B2C;} .st2{fill:#F27B2B;}</style><path class="st0" d="M18.6 55.6c-2.2 2.3-4.8 3.4-7.7 3.4s-5.4-1-7.5-3.1C1.1 53.6 0 50.7 0 47c0-3.6 1.1-6.6 3.4-8.9C5.5 36 8 35 10.9 35s5.5 1.1 7.7 3.4v-11c0-.6.2-1.1.6-1.5s.9-.6 1.5-.6 1.1.2 1.5.6.6.9.6 1.5v29.3c0 .6-.2 1.1-.6 1.4-.4.4-.9.6-1.5.6s-1.1-.2-1.5-.6-.6-.9-.6-1.4v-1.1zm0-13.3c-2.1-2.3-4.4-3.4-7.1-3.4-3.4 0-5.7 1.5-6.8 4.6-.4 1-.6 2.2-.6 3.5 0 2.6.7 4.6 2.1 6.1 1.3 1.4 3.1 2 5.3 2 2.7 0 5.1-1.1 7.1-3.4v-9.4z"/><path class="st1" d="M40.9 28.5c0 .6-.2 1.2-.7 1.6-.5.5-1 .7-1.6.7h-.3c-.6 0-1.2-.2-1.6-.7-.5-.5-.7-1-.7-1.6v-.2c0-.6.2-1.2.7-1.6.5-.5 1-.7 1.6-.7h.3c.6 0 1.2.2 1.6.7.5.5.7 1 .7 1.6v.2z"/><path class="st0" d="M37 35.9c.4-.4.9-.6 1.5-.6s1.1.2 1.5.6.6.9.6 1.5v19.4c0 .6-.2 1.1-.6 1.4-.4.4-.9.6-1.5.6s-1.1-.2-1.5-.6-.6-.9-.6-1.4V37.4c0-.6.2-1.1.6-1.5z"/><path class="st0" d="M70.5 38.5v-1.1c0-.6.2-1.1.6-1.5s.9-.6 1.4-.6c.6 0 1.1.2 1.5.6s.6.9.6 1.5v20.2c0 3.8-.9 6.8-2.8 8.8-1.8 2-4.5 3.1-7.9 3.1-3.6 0-6.8-.8-9.7-2.3-.5-.3-.8-.8-.8-1.4s.2-1.1.5-1.5.7-.6 1.1-.6c.4 0 .7.1 1 .2 2.3 1.1 4.8 1.7 7.5 1.7 4.6 0 6.9-2.5 6.9-7.4v-3c-2.1 2.3-4.7 3.4-7.7 3.4-2.9 0-5.3-1-7.4-2.9-2.4-2.2-3.6-5.2-3.6-8.9s1.2-6.7 3.6-8.9c2-1.9 4.5-2.9 7.5-2.9 3 .1 5.6 1.2 7.7 3.5zm0 3.7c-.8-.9-1.8-1.6-2.9-2.3-1.1-.7-2.3-1-3.6-1-1.3 0-2.5.2-3.4.5-.9.3-1.7.8-2.4 1.4-1.5 1.4-2.2 3.4-2.2 6.1 0 3.9 1.6 6.4 4.7 7.5.9.3 2.1.5 3.4.5 2.2 0 4.4-1.1 6.5-3.3l-.1-9.4z"/><path class="st1" d="M92.8 28.5c0 .6-.2 1.2-.7 1.6-.5.5-1 .7-1.6.7h-.3c-.6 0-1.2-.2-1.6-.7s-.7-1-.7-1.6v-.2c0-.6.2-1.2.7-1.6.5-.5 1-.7 1.6-.7h.3c.6 0 1.2.2 1.6.7.5.5.7 1 .7 1.6v.2z"/><path class="st0" d="M88.8 35.9c.4-.4.9-.6 1.5-.6s1.1.2 1.5.6.6.9.6 1.5v19.4c0 .6-.2 1.1-.6 1.4-.4.4-.9.6-1.5.6s-1.1-.2-1.5-.6-.6-.9-.6-1.4V37.4c.1-.6.3-1.1.6-1.5z"/><path class="st0" d="M114.5 55.4c.8 0 1.4-.1 1.7-.2.3-.1.7-.2 1.1-.2s.8.1 1.1.5c.3.3.5.8.5 1.4 0 .6-.3 1-.9 1.3-1.3.6-2.4.9-3.3.9s-1.8 0-2.5-.1c-.8-.1-1.5-.3-2.2-.8-1.7-1-2.5-2.7-2.5-5.1v-14h-3.2c-.6 0-.9-.3-.9-.9 0-.3.1-.5.4-.8l6.1-6c.3-.3.5-.4.8-.4.2 0 .4.1.6.3s.2.4.2.6v3.6h5.1c.5 0 .9.2 1.3.5.3.3.5.8.5 1.3s-.2.9-.5 1.3c-.3.3-.8.5-1.3.5h-5.1v13.6c0 1.1.3 1.9 1 2.4.6.2 1.2.3 2 .3z"/><path class="st0" d="M130.6 36.7c2.5-1.1 5.2-1.6 7.9-1.6 3.1 0 5.5.9 7.1 2.8 1.5 1.6 2.3 3.7 2.3 6.1v12.8c0 .6-.2 1.1-.6 1.4-.4.4-.9.6-1.5.6s-1.1-.2-1.4-.6c-.4-.4-.6-.9-.6-1.4v-1.2c-.8.8-1.9 1.6-3.3 2.3-1.4.7-3.1 1.1-5.2 1.1s-3.8-.6-5.2-1.8c-1.4-1.3-2.2-2.9-2.2-5 0-2.2.8-4 2.5-5.2 1.8-1.4 4.5-2.1 7.9-2.1h5.5v-.4c0-2-.5-3.5-1.5-4.3-1-.9-2.5-1.3-4.6-1.3-1.7 0-3.8.4-6 1.1-.2.1-.5.1-.8.1s-.6-.2-.9-.5c-.3-.3-.5-.8-.5-1.5-.1-.6.3-1.1 1.1-1.4zm1.4 15.1c0 2.4 1.6 3.6 4.8 3.6 1.4 0 2.7-.3 4-1 1.2-.7 2.2-1.5 3-2.3v-3.9h-4.9c-2.1 0-3.8.3-5 .8-1.3.6-1.9 1.5-1.9 2.8z"/><path class="st0" d="M161.2 25.9c.4-.4.9-.6 1.5-.6s1.1.2 1.5.6.6.9.6 1.5v29.3c0 .6-.2 1.1-.6 1.4-.4.4-.9.6-1.5.6s-1.1-.2-1.5-.6-.6-.9-.6-1.4V27.4c0-.6.2-1.1.6-1.5z"/><path d="M188.2 55.2c2.6 0 5.1-1.4 7.4-4.3V37.3c0-.6.2-1.1.6-1.4.4-.4.9-.6 1.5-.6s1 .2 1.4.6c.4.4.6.9.6 1.4v19.4c0 .6-.2 1.1-.6 1.5-.4.4-.9.6-1.4.6-.6 0-1.1-.2-1.5-.6s-.6-.9-.6-1.5v-1.9c-1.2 1.3-2.2 2.1-3.1 2.7-1.7 1-3.3 1.5-4.9 1.5-1.6 0-2.8-.2-3.8-.7s-1.8-1.1-2.5-1.9c-1.4-1.7-2.1-3.7-2.1-6.2V37.3c0-.6.2-1.1.6-1.4.4-.4.9-.6 1.5-.6s1.1.2 1.4.6c.4.4.6.9.6 1.4v12.4c0 1.7.4 3.1 1.2 4 .6 1 1.9 1.5 3.7 1.5z"/><path d="M224.6 38.9c-2.6 0-5.1 1.4-7.4 4.3v13.5c0 .6-.2 1.1-.6 1.4-.4.4-.9.6-1.5.6s-1.1-.2-1.4-.6c-.4-.4-.6-.9-.6-1.4V37.4c0-.6.2-1.1.6-1.5.4-.4.9-.6 1.4-.6.6 0 1.1.2 1.5.6s.6.9.6 1.5v1.8c1.2-1.3 2.2-2.2 3.1-2.7 1.7-1 3.3-1.5 4.9-1.5 1.6 0 2.8.2 3.8.7s1.8 1.1 2.5 1.9c1.4 1.7 2.1 3.7 2.1 6.2v12.8c0 .6-.2 1.1-.6 1.4-.4.4-.9.6-1.5.6s-1.1-.2-1.4-.6c-.4-.4-.6-.9-.6-1.4V44.4c0-1.7-.4-3.1-1.2-4-.6-1-1.9-1.5-3.7-1.5z"/><path d="M262.7 55.6c-2.2 2.3-4.8 3.4-7.7 3.4-2.9 0-5.4-1-7.5-3.1-2.3-2.3-3.4-5.2-3.4-8.9 0-3.6 1.1-6.6 3.4-8.8 2.1-2.1 4.6-3.1 7.5-3.1s5.5 1.1 7.7 3.4v-11c0-.6.2-1.1.6-1.5s.9-.6 1.5-.6 1.1.2 1.5.6.6.9.6 1.5v29.3c0 .6-.2 1.1-.6 1.4-.4.4-.9.6-1.5.6s-1.1-.2-1.5-.6-.6-.9-.6-1.4v-1.2zm0-13.3c-2-2.3-4.4-3.4-7.1-3.4-3.4 0-5.7 1.5-6.8 4.6-.4 1-.6 2.2-.6 3.5 0 2.6.7 4.6 2.1 6.1 1.3 1.4 3.1 2 5.3 2 2.7 0 5.1-1.1 7.1-3.4v-9.4z"/><path class="st2" d="M285.6 28.5c0 .6-.2 1.2-.7 1.6-.5.5-1 .7-1.6.7h-.2c-.6 0-1.2-.2-1.6-.7-.5-.5-.7-1-.7-1.6v-.2c0-.6.2-1.2.7-1.6.5-.5 1-.7 1.6-.7h.3c.6 0 1.2.2 1.6.7.5.5.7 1 .7 1.6v.2h-.1z"/><path d="M281.7 35.9c.4-.4.9-.6 1.5-.6s1.1.2 1.5.6.6.9.6 1.5v19.4c0 .6-.2 1.1-.6 1.4-.4.4-.9.6-1.5.6s-1.1-.2-1.5-.6-.6-.9-.6-1.4V37.4c0-.6.2-1.1.6-1.5z"/><path d="M316.4 36.5c.4-.8 1-1.2 2-1.2.5 0 .9.2 1.3.6.4.4.6.8.6 1.1 0 .5-.1.9-.2 1.3l-7.8 18.8c-.2.5-.5.8-1 1.2-.4.3-.9.5-1.5.5h-.5c-.6 0-1.1-.2-1.5-.5-.4-.3-.8-.7-1-1.2l-7.9-18.8c-.2-.4-.2-.8-.2-1.2s.2-.8.6-1.2.8-.6 1.3-.6c1 0 1.6.4 2 1.2l6.9 17.5 6.9-17.5z"/><path class="st2" d="M337.5 28.5c0 .6-.2 1.2-.7 1.6-.5.5-1 .7-1.6.7h-.3c-.6 0-1.2-.2-1.6-.7-.5-.5-.7-1-.7-1.6v-.2c0-.6.2-1.2.7-1.6.5-.5 1-.7 1.6-.7h.3c.6 0 1.2.2 1.6.7.5.5.7 1 .7 1.6v.2z"/><path d="M333.6 35.9c.4-.4.9-.6 1.5-.6s1.1.2 1.5.6.6.9.6 1.5v19.4c0 .6-.2 1.1-.6 1.4-.4.4-.9.6-1.5.6s-1.1-.2-1.5-.6-.6-.9-.6-1.4V37.4c0-.6.2-1.1.6-1.5z"/><path d="M368 55.6c-2.2 2.3-4.8 3.4-7.7 3.4-2.9 0-5.4-1-7.5-3.1-2.3-2.3-3.4-5.2-3.4-8.9 0-3.6 1.1-6.6 3.4-8.8 2.1-2.1 4.6-3.1 7.5-3.1s5.5 1.1 7.7 3.4v-11c0-.6.2-1.1.6-1.5s.9-.6 1.5-.6 1.1.2 1.5.6.6.9.6 1.5v29.3c0 .6-.2 1.1-.6 1.4-.4.4-.9.6-1.5.6s-1.1-.2-1.5-.6-.6-.9-.6-1.4v-1.2zm0-13.3c-2-2.3-4.4-3.4-7.1-3.4-3.4 0-5.7 1.5-6.8 4.6-.4 1-.6 2.2-.6 3.5 0 2.6.7 4.6 2.1 6.1 1.3 1.4 3.1 2 5.3 2 2.7 0 5.1-1.1 7.1-3.4v-9.4z"/><path d="M390.6 53.4c1.3 1.2 3.1 1.8 5.4 1.8s4.3-.4 5.8-1.2c.5-.3 1-.4 1.4-.4s.8.2 1.1.5c.4.3.5.7.5 1.1 0 .8-.3 1.3-1 1.7-.6.3-1.2.6-1.7.9-.5.2-1.1.5-1.7.6-1.4.4-2.9.6-4.7.6-3.7 0-6.6-1-8.6-3.1s-3.1-5-3.1-8.8c0-3.3.9-6.1 2.6-8.3 1.9-2.5 4.7-3.7 8.2-3.7 3.4 0 6 1.1 8 3.4 1.8 2.1 2.7 4.8 2.7 7.9 0 .6-.2 1.1-.6 1.4-.4.4-.9.6-1.5.6h-15.3c.4 2.1 1.2 3.8 2.5 5zm4.3-14.8c-2.7 0-4.6 1.2-5.9 3.6-.5.8-.7 1.9-.8 3h13.3c-.1-2.1-.9-3.8-2.3-5.1-1.1-1-2.6-1.5-4.3-1.5z"/><path d="M434.8 55.6c-2.2 2.3-4.8 3.4-7.7 3.4-2.9 0-5.4-1-7.5-3.1-2.3-2.3-3.4-5.2-3.4-8.9 0-3.6 1.1-6.6 3.4-8.8 2.1-2.1 4.6-3.1 7.5-3.1s5.5 1.1 7.7 3.4v-11c0-.6.2-1.1.6-1.5s.9-.6 1.5-.6 1.1.2 1.5.6.6.9.6 1.5v29.3c0 .6-.2 1.1-.6 1.4-.4.4-.9.6-1.5.6s-1.1-.2-1.5-.6-.6-.9-.6-1.4v-1.2zm0-13.3c-2-2.3-4.4-3.4-7.1-3.4-3.4 0-5.7 1.5-6.8 4.6-.4 1-.6 2.2-.6 3.5 0 2.6.7 4.6 2.1 6.1 1.3 1.4 3.1 2 5.3 2 2.7 0 5.1-1.1 7.1-3.4v-9.4z"/><path class="st1" d="M92.9 28.4h-5.2c0-12.8-10.4-23.3-23.3-23.3-12.8 0-23.3 10.4-23.3 23.3h-5.2C35.9 12.7 48.7 0 64.3 0c15.8 0 28.6 12.7 28.6 28.4z"/><path class="st2" d="M285.6 28.5c0 .6-.2 1.2-.7 1.6-.5.5-1 .7-1.6.7h-.2c-.6 0-1.2-.2-1.6-.7-.5-.5-.7-1-.7-1.6v-.2c0-.6.2-1.2.7-1.6.5-.5 1-.7 1.6-.7h.3c.6 0 1.2.2 1.6.7.5.5.7 1 .7 1.6v.2h-.1z"/><path class="st2" d="M337.5 28.5c0 .6-.2 1.2-.7 1.6-.5.5-1 .7-1.6.7h-.3c-.6 0-1.2-.2-1.6-.7-.5-.5-.7-1-.7-1.6v-.2c0-.6.2-1.2.7-1.6.5-.5 1-.7 1.6-.7h.3c.6 0 1.2.2 1.6.7.5.5.7 1 .7 1.6v.2z"/><path class="st2" d="M337.6 28.4h-5.2c0-12.8-10.4-23.3-23.3-23.3-12.8 0-23.3 10.4-23.3 23.3h-5.2C280.6 12.7 293.4 0 309 0c15.9 0 28.6 12.7 28.6 28.4z"/></svg>