<svg id="Layer_1" xmlns="http://www.w3.org/2000/svg" viewBox="0 0 172 155"><style>.st0{fill:#0D1CCD;}</style><path class="st0" d="M84.1 122.6c34.4 0 61.3-28 61.4-61.1.1-34.1-28-61.4-61.2-61.5-33.9-.1-61.7 27.8-61.4 61.2-.4 32.6 26.3 61.4 61.2 61.4zm.2-117.4c32 .1 56.5 26.4 56 57-.5 30.3-25.5 55.2-56.2 55.1-30.6-.1-55.9-24.8-56-56.2.2-31.7 25.6-56 56.2-55.9zM73.5 152.7c-.3 0-.7-.1-1-.3-1.3-.5-2-1.7-2.4-2.9-.4-.9.6-1.3 1-1.9 1.3-1.7 1.3-3.5.5-5.4-.9-2-2.5-2.9-4.5-3s-4 0-6-.1c-.9 0-1.2.4-1.2 1.3v13.1c0 .9.5 1.1 1.3 1.1 1.2 0 1.5-.1 1.5-1.1.1-.9 0-1.8.1-2.7.1-.4.4-.9.8-1 2-.6 3.2 0 4.2 1.8 1.7 3.2 4.3 4.1 7.8 2.8-.3-.9-.8-1.8-2.1-1.7zm-6-6.1c-1.2.2-2.6.2-3.8.3-.6 0-.8-.4-.8-1v-1.4-.8c.1-1.5.1-1.6 1.7-1.6 1 0 2 .1 3 .3 1.1.2 1.5 1 1.5 2.1-.1 1.1-.5 1.9-1.6 2.1zm-61.1-7c-1.6-.1-3.3-.1-4.9-.1-1.5 0-1.5.1-1.5 1.5V153.6c0 .7.1 1.3 1 1.2 2.2-.1 4.5.1 6.7-.4 3.6-.7 5.7-4.1 5.4-8.1-.4-3.6-3.2-6.5-6.7-6.7zm0 12.1c-.2 0-.4.1-.6.1-2.7.4-2.9.1-2.9-2.6v-2.1c0-1.2-.1-2.5 0-3.7 0-.4.4-.9.7-1 2.8-.8 5.6.8 6.3 3.5s-.9 5.2-3.5 5.8zm113-4.6c-.4-3.4-3.7-4.9-6.6-3.2-.2.1-.4.3-.6.5-.4.4-.8.3-1.2-.1-1.7-1.5-3.6-1.6-5.4-.2-.5.4-.7.4-1-.2-.5-.7-1.4-.5-2.1-.3-.7.2-.5.9-.5 1.4v8c0 .8.2 1.3 1.2 1.3 1.4 0 1.6-.1 1.6-1.6v-1.4c0-1 0-1.9.1-2.9.1-.9.3-1.8 1.3-2.2 1.6-.7 3.1.1 3.2 1.9.1 1.7.1 3.4.1 5.1 0 1 .7 1 1.4 1s1.4 0 1.4-1v-3.9c0-.6.1-1.2.2-1.8.3-1.1 1.2-1.6 2.3-1.6 1.1 0 1.7.6 1.9 1.8.1.5.1 1.1.1 1.6v3.7c0 1.1.3 1.2 1.4 1.2s1.3-.2 1.4-1.3v-2.7c-.1-.9 0-2-.2-3.1zm-68.9-3.5c-1.5 0-2.6.7-3.6 1.6-2.9-2.1-4-2.1-6.9-.3-.7-1.1-1.3-1.4-2.2-1.1-.8.2-.7.9-.7 1.5v8c0 1.1.3 1.3 1.3 1.3s1.3-.2 1.3-1.4v-3.1c0-.8.1-1.6.3-2.4.3-1.1 1.2-1.6 2.4-1.5 1 .1 1.6.7 1.8 1.9.1.6 0 1.2 0 1.8v3.5c0 .9.5 1.1 1.3 1.1 1.2 0 1.4-.1 1.4-1.2.1-1.2 0-2.3 0-3.5 0-.7.1-1.5.4-2.2.3-1.1 1.3-1.6 2.4-1.5 1 .1 1.6.7 1.8 1.9.1.6 0 1.2 0 1.8v3.5c0 1 .6 1.1 1.3 1.1s1.5.1 1.4-1c0-2.3.1-4.5-.1-6.8.2-1.7-1.4-3-3.6-3zm121.4-3.2c0-1.1-.3-1.3-1.4-1.3-.9 0-1.2.4-1.2 1.2v4.4c-.9-.5-1.4-.8-2-1.1-2-.9-4.3-.3-5.5 1.3-1.2 1.6-1.6 3.4-1.1 5.4.9 3.8 4.1 5.2 7.5 3.4.5-.3.7-.5 1.3.1 1 1 2.4.5 2.5-.8-.1-4.2-.1-8.4-.1-12.6zm-5.7 11.5c-1.6 0-2.8-1.2-2.9-2.9 0-1.8 1.2-3 2.9-3s3 1.2 3 3c.1 1.6-1.3 2.9-3 2.9zm-32.7-6.6h-5.1c-1.2 0-1.3-.2-1.4-1.5 0-1.4.2-1.7 1.4-1.7h5.1c1.1 0 1.2-.2 1.2-1.4s-.1-1.4-1.2-1.4h-8.2c-.9 0-1.2.4-1.2 1.2V153.3c0 1.2.2 1.3 1.3 1.3 1.2 0 1.5-.2 1.5-1.3.1-1.1 0-2.2 0-3.3.1-1.4.2-1.5 1.6-1.5h4.9c1.1 0 1.2-.2 1.2-1.4.1-1.6 0-1.8-1.1-1.8zm-113.3-1.7c-3.5 0-5.9 2.2-5.9 5.6s2.4 5.7 5.9 5.8c3.3 0 5.9-2.5 5.9-5.8-.1-3.1-2.6-5.5-5.9-5.6zm-.2 8.7c-1.7-.1-3-1.4-2.9-3 .1-1.7 1.3-2.8 3.1-2.8s2.9 1.3 2.9 3c0 1.6-1.4 2.8-3.1 2.8zm74-9c-3.5 0-5.8 2.4-5.8 5.8 0 3.3 2.4 5.6 5.8 5.6 4.3-.1 6-3 5.9-5.7 0-3.5-2.4-5.8-5.9-5.7zm0 8.6c-1.8 0-2.9-1.2-2.9-3s1.2-2.9 3-2.9 2.9 1.2 2.9 3c0 1.7-1.2 2.9-3 2.9zm-13.1-8.6c-3.5 0-5.8 2.3-5.8 5.7-.1 2.8 1.8 5.7 5.9 5.6 4.2-.1 5.7-2.9 5.7-5.6.1-3.4-2.3-5.7-5.8-5.7zm0 8.6c-1.7 0-3-1.2-3-2.9s1.2-2.9 3-2.9 2.9 1.1 2.9 2.9c.1 1.7-1.1 2.9-2.9 2.9zm77.6-5.2c-.2-2.6-2.3-4-4.8-3.3-.6.2-1.1.4-1.6.8-.5.3-.7.4-1.1-.2-.5-.7-1.4-.5-2.1-.3-.8.2-.5 1-.6 1.6v8c0 .3.2.9.5 1 1.2.6 2.2 0 2.3-1.4v-1.2c0-1-.1-2.1.1-3.1.1-1 .3-1.9 1.4-2.3 1.7-.6 3 .2 3.1 2.1.1 1.6 0 3.3.1 4.9 0 1 .3 1.2 1.5 1.2.8 0 1.4-.1 1.3-1.1 0-2.3.1-4.5-.1-6.7zm-13.6-3.1c-.7 0-1.4 0-1.5 1v3.9c0 .7-.2 1.5-.4 2.2-.4.9-1.3 1.4-2.3 1.3-.9-.1-1.4-.7-1.6-1.6-.1-.7-.1-1.4-.1-2v-3.5c-.1-1-.4-1.2-1.5-1.2-.8 0-1.3.3-1.3 1.2v6.1c0 .5.2.9.3 1.4.6 1.8 2.2 2.7 4.1 2.3.9-.2 1.7-.7 2.7-1.1 0 0 .1.2.2.3.6.9 1.4.6 2.2.5.2 0 .5-.5.5-.7v-9c0-1.1-.6-1.1-1.3-1.1zm-111 .1c-1.1.1-2.1.6-3.3 1 0 .1-.1-.1-.2-.2-.4-1-1.2-.7-1.9-.6s-.6.8-.6 1.3v8.2c0 1.2.2 1.3 1.3 1.3 1.2 0 1.4-.1 1.5-1.4v-3.9c.1-1.9.9-2.8 2.8-2.9.5 0 1.1.1 1.7.1 0-.6.1-1.2.1-1.7-.1-1-.3-1.3-1.4-1.2zm39.9-68.1c0 1.8.1 1.9 1.9 1.9h2.7c1.7 0 1.7-.1 1.7-1.8v-6.6c0-1 .4-1.4 1.3-1.3h5.7c1 0 1.5.4 1.9 1.2.5 1 1.1 2.1 1.6 3.1 1.1 2.3 3 3.9 5.1 5.2 1.6.9 3.3 1.3 5.1 1.3.9 0 1.2-.4 1.2-1.2v-2.7s-.3-1.4-1.3-1.5c-1.7-.3-2.8-1.4-3.7-2.7-.7-.9-1.3-2-1.8-3-.9-1.7-.9-1.5.5-2.9 5.5-5.1 4.5-15.3-3.4-18.6-1.5-.6-3.3-.7-5-.8-3.2-.1-6.4 0-9.6 0h-2.9c-.8 0-1.1.4-1.1 1.1v14.9c.1 5 .1 9.7.1 14.4zm7.3-24c2.6.1 5.2 0 7.8.2 2.6.3 4 2.1 4 4.6 0 2.6-1.3 4.4-3.9 4.7-2.6.3-5.3.2-8 .2-.7 0-1-.4-1-1v-3.9-3.7c.1-.7.3-1.1 1.1-1.1zm-31 26.2c1.9 0 3.8.1 5.8 0 4-.2 7.5-1.6 10.3-4.5 6-6.5 6.1-15.6.8-22.2-2.3-2.9-5.4-4.8-9-5.2-4.5-.4-9-.3-13.5-.4-1 0-1.3.5-1.3 1.4v29.7c0 .9.4 1.2 1.2 1.2h5.7zm-.8-24.2c0-1.6.1-1.7 1.6-1.7 1.9 0 3.8 0 5.7.3 4.2.6 7.2 4.1 7.5 8.3.2 2.8-.3 5.3-2 7.5-1.3 1.7-3 2.9-5.1 3.2s-4.2.3-6.3.4c-1.2 0-1.4-.2-1.4-1.5v-8.4-8.1zm55.5 22.3v1.4c0 .6.3.9.9.9h3.7c1.8 0 1.8 0 1.8-1.8v-9.7c0-1.4.1-1.5 1.5-1.6h11.7s1.2-.4 1.2-1.3v-3.5c0-1.4-.1-1.5-1.5-1.5h-9.2c-4.2 0-3.6.5-3.6-3.6 0-3.4-.4-3 3.1-3.1h9.5c1.9 0 1.9 0 1.9-2v-2.9c0-1.5 0-1.6-1.6-1.6h-17.5c-1.7 0-1.8 0-1.8 1.9v14.2c-.1 4.9-.1 9.5-.1 14.2z"/></svg>