<svg id="Layer_1" xmlns="http://www.w3.org/2000/svg" viewBox="0 0 316.8 100.4"><style>.st0{fill:#EC2D24;} .st1{fill:#B52425;} .st2{fill:#154C53;}</style><path class="st0" d="M56.4.1c.1.1.2.2.4.2 2.8.7 4.9 2.4 6.2 5C69.9 19 76.9 32.8 83.8 46.5c.6 1.2 1.2 2.5 1.8 3.7H64.4c-4.9-9.8-9.9-19.7-14.8-29.5-.3-.6-.7-.7-1.3-.7H33.4c-.3 0-.7 0-1.1.1.2.4.3.7.4 1 2.7 6.2 5.5 12.5 8.2 18.7 1.5 3.5 3 7 4.5 10.4H23.3C16.6 35.8 9.9 21.3 3.2 6.9 2.2 4.8 1.1 2.6.1.5.2.3.2.1.3 0c.3-.1.6 0 .8 0C19.6.1 38 .1 56.4.1z"/><path class="st1" d="M64.4 50.3h21.2c-2.1 4.2-4.2 8.5-6.4 12.7-4.9 9.7-9.8 19.5-14.7 29.2-2.7 5.4-7.2 8.2-13.3 8.2H0v-.5c.3-.4.5-.8.7-1.3 7.5-16.1 15-32.3 22.5-48.4h22.1c-.1.3-.2.7-.3 1-3.9 8.8-7.7 17.6-11.6 26.4-.4.9-.8 1.8-1.2 2.8h16.3c.3 0 .8-.4.9-.7 5.1-9.7 10.1-19.6 15-29.4z"/><path class="st2" d="M281 74.5h-7.3V46.4h-.3c-.6 2.5-1.3 5.1-1.9 7.6-1.3 5-2.6 10-3.8 15-.2.7-.4.9-1.1.9-3.1 0-3.1.1-3.8-2.9-1.7-6.6-3.3-13.1-5-19.7-.1-.3-.2-.6-.6-.9v28.2h-7.3V22.9h6.9c.2 0 .6.7.7 1.1 2 7.1 4 14.2 6.1 21.3.6 2.1 1.2 4.2 2 6.4 2.7-9.5 5.4-19.1 8.2-28.7h7.3c-.1 17-.1 34.2-.1 51.5z"/><path class="st2" d="M180.2 22.8h6.8c3.9 9.9 7.7 19.9 11.6 29.8h.2V22.8h7.5v51.7h-6.7c-3.9-10.1-7.7-20.3-11.6-30.5-.1 0-.2.1-.3.1v30.4h-7.4c-.1-17.2-.1-34.4-.1-51.7z"/><path class="st2" d="M316.8 48.7v20.8c-.1 3.3-1.6 4.9-4.9 5h-17c-2.6-.2-4-1.6-4.2-4.2v-1.2-41-1.3c.2-2.5 1.7-4 4.2-4 5.9 0 11.8-.1 17.6 0 2.8 0 4.3 1.8 4.3 5.1v20.8zm-18.4 19.1h10.5V29.6h-10.5v38.2z"/><path class="st2" d="M112.8 74.5V22.7H128.7c6 0 9.8 3.8 9.8 9.8v32.3c0 5.8-3.5 9.5-9.3 9.7-5.3.1-10.6.1-15.8.1-.2-.1-.4-.1-.6-.1zm7.8-6.7c2.1 0 4 .1 6 0 2.7-.1 4.2-1.7 4.2-4.4v-5.8-23.7c0-2.5-1.1-4.1-3.4-4.3-2.2-.2-4.5-.1-6.8-.1v38.3z"/><path class="st2" d="M224 22.7h8.2c3.3 17.2 6.6 34.5 10 51.8h-7.7c-.5-3.2-1-6.4-1.6-9.7h-9.6c-.5 3.2-1 6.4-1.6 9.7H214c3.3-17.3 6.7-34.5 10-51.8zm7.8 35.2c-1.2-7.3-2.4-14.5-3.5-21.8h-.4c-1.2 7.2-2.4 14.5-3.5 21.8h7.4z"/><path class="st2" d="M144.5 22.7h7.5c.3 0 .7.6.8 1 1.5 5.3 2.9 10.7 4.4 16 .4 1.6.9 3.2 1.5 4.8 2-7.3 4-14.5 6-21.8h8.1c-.4 1.2-.7 2.4-1.1 3.5-3 9.4-6 18.9-8.9 28.3-.2.6-.3 1.3-.3 2v17.8h-7.8v-1.2-16.2c0-1.3-.3-2.6-.7-3.8-3-9.7-6.1-19.5-9.2-29.2-.1-.3-.2-.7-.3-1.2z"/></svg>