<svg data-name="Layer 1" xmlns="http://www.w3.org/2000/svg" viewBox="0 0 30.7 24.34"><title>_ef</title><path d="M.01 14.8c0-.29.06-.59.11-.88a8.31 8.31 0 0 1 4.93-6.77 7.92 7.92 0 0 1 7.73.52 7.82 7.82 0 0 1 3.2 4.2 11.77 11.77 0 0 1 .64 4v1H4.52a3.93 3.93 0 0 0 .31 1.21 4.25 4.25 0 0 0 3.52 2.68 6.49 6.49 0 0 0 4.89-1.34c.11-.08.21-.18.32-.28l1.9 2.9c-.29.23-.57.47-.87.68a9.41 9.41 0 0 1-3.85 1.5c-.41.07-.84.1-1.25.15H8.18c-.34 0-.69-.08-1-.13a8.23 8.23 0 0 1-7-7.36c0-.29-.07-.59-.1-.88v-1.16zm12.45-1a4.23 4.23 0 0 0-1.11-2.63 3.8 3.8 0 0 0-2.87-1.14 3.74 3.74 0 0 0-2.78 1.05 4.55 4.55 0 0 0-1.27 2.72h8zM24.96 0c.33 0 .65.08 1 .14a4.92 4.92 0 0 1 2.65 1.32l.08.09v.06l-1.6 2.63-.08-.16a2.39 2.39 0 0 0-2.38-.47 1.78 1.78 0 0 0-1.24 1.54c-.09.54-.08 1.09-.11 1.65h3.16c.11 0 .18 0 .18.15V10.71h-3.29v13.14h-4.32V10.77h-2.68V6.85h2.68v-.89a7.18 7.18 0 0 1 .22-1.89 5 5 0 0 1 4-4c.25-.05.52-.08.77-.12h1zM30.7 21.74c0 .15-.06.31-.11.46a2.7 2.7 0 0 1-5.28-.08 2.88 2.88 0 0 1 2.07-3.47 2.67 2.67 0 0 1 3 1.49 6.46 6.46 0 0 1 .28.89v.71z"/></svg>