<svg data-name="Layer 1" xmlns="http://www.w3.org/2000/svg" viewBox="0 0 112.87 20.18"><title>_elevator</title><path d="M99.11.1h7.29c3.26 0 6 1.89 6 5.93s-4.06 5.29-4.06 5.29l4.6 8.85h-2.51l-4.32-8.84h-4.74v8.77h-2.26V.1zm2.19 9.37h4a13.16 13.16 0 0 0 2-.13c2.2-.37 3.26-1.68 3.16-3.78a3.36 3.36 0 0 0-3.34-3.39c-1.88-.14-3.78 0-5.81 0V9.5zM96.87 5.19C96.41 1.98 93.64.02 89.96.05s-6.46 2-6.73 5.28a58.17 58.17 0 0 0 0 9.54c.27 3.27 3 5.26 6.72 5.3s6.46-1.92 6.92-5.13a69.06 69.06 0 0 0 0-9.85zm-2.14 8.9a4.52 4.52 0 0 1-4.77 4.15 4.42 4.42 0 0 1-4.62-4.29 55.37 55.37 0 0 1 0-7.72 4.42 4.42 0 0 1 4.63-4.27 4.52 4.52 0 0 1 4.76 4.16 65.74 65.74 0 0 1 0 7.98zM12.04.1v2H2.22v7h8.38v1.92H2.23v7.09h9.82v1.99h-12V.1h12zM41.11.1v2h-9.8v7h8.38v1.92h-8.37v7.09h9.79v1.99h-12V.1h12zM55.69 20.1l7.52-20h1.5l7.15 20h-2.13l-1.58-4.5h-8.74l-1.73 4.5h-2zM63.9 3.82l-3.79 9.69h7.33zM45.15.07l5.27 15.59L55.68.07h2.01l-6.52 20.07h-1.51L43.14.07h2.01zM14.77 20.14V.02h2.05v18.02h10.2v2.14l-12.25-.04zM74.89 20.16V2.18h-5.66V0H82.8v2.18h-5.79v17.96l-2.12.02z"/></svg>