<svg id="Layer_1" xmlns="http://www.w3.org/2000/svg" viewBox="0 0 488 114.1"><style>.st0{fill:#1C446A;} .st1{fill:#66A816;}</style><path class="st0" d="M488 83c-3.5 5.9-9 7.8-15.4 7.7-4.3-.1-8.6-.5-12.9-.8-1.4-.1-2.7-.6-2.5-2.4s1.3-2.5 3.1-2.3c4 .4 7.9.7 11.9.8 1.8 0 3.6-.5 5.4-.8 5.3-1 7.2-6.9 3.8-11.3-1.8-2.3-4.4-4-6.8-5.6-3.2-2.1-6.7-3.6-9.9-5.7-3.8-2.5-5.9-6.2-5.8-10.9.1-5.9 2.8-9.3 8.5-10.5 5.9-1.3 11.9-.5 17.8.1 2.9.3 1.8 2.5 1.6 4.8-2.1-.2-4-.3-5.9-.6-4.1-.5-8.3-.6-12.3.6-4.5 1.4-6.2 5.5-3.6 9.4 1 1.5 2.5 2.7 4 3.7 1.8 1.2 3.7 2.3 5.6 3.2 5.7 2.6 10.4 6.2 13.4 11.8V83z"/><path class="st1" d="M75 0c2.2 3.4 2.2 3.5-.1 6.4-3.6 4.6-7.2 9.1-10.8 13.7-3.9 4.9-8 4.1-11.1.2-3.8-4.9-7.5-9.8-11.6-14.4C39.5 3.7 40.8 2 41 0h4c2.8 2.7 5.4 5.7 8.4 8.1 3.8 3.1 6.5 3 10.1 0 3-2.5 5.7-5.4 8.5-8.1h3z"/><path class="st1" d="M0 40c2.4-1.7 4.6-1.2 6.8.6 4.5 3.6 9.2 7.1 13.8 10.6s4.8 7.1 0 10.8c-4.7 3.6-9.5 7.3-14.1 11-2.2 1.7-4.2 1.5-6.3 0v-3c2.8-2.8 5.7-5.5 8.3-8.5 3-3.6 4.2-5.2-.4-10.3C5.6 48.4 2.8 45.7.2 43 0 42 0 41 0 40z"/><path class="st1" d="M41 114c-1.1-2.7-.7-4.7 1.4-7 3.6-3.9 6.8-8.1 9.9-12.4 3.6-5.1 9-4.8 12.2-.2 3.3 4.6 7 8.8 10.4 13.3 2.3 3 2.3 3 .1 6.4h-3c-2.8-2.7-5.5-5.6-8.5-8.1-3.6-3.1-6.3-3.1-10.1 0-3 2.5-5.6 5.4-8.4 8.1-1.3-.1-2.7-.1-4-.1z"/><path class="st0" d="M17.5 11.8c1.6 1.1 3.4 2 4.9 3.2 6 4.9 11.9 10.1 18 15 3.9 3.1 8.1 5.8 12.3 8.5 3.9 2.5 7.9 2.4 11.7-.2 5.8-4.1 11.6-8.2 17.3-12.6 4.5-3.5 8.7-7.3 13-10.9.9-.7 1.9-1.3 2.9-2 1.9-1.3 3.6-.7 4.9.7 1.5 1.5 1.4 3.3.1 4.9-3.5 4-7.1 7.9-10.6 12-4.3 5.1-8.4 10.3-12.5 15.5-.7.9-1.2 2-1.9 2.9-3.5 5.1-3.7 10.2-.1 15.3 3.8 5.3 7.6 10.5 11.7 15.5 3.3 4.1 7.1 7.9 10.6 11.9 1.1 1.2 2.1 2.6 3.1 3.9 1.2 1.5.6 2.8-.2 4.1-.9 1.4-2.5 1.9-4 1.3-1.4-.5-2.7-1.4-3.8-2.3-5.7-4.6-11.1-9.5-16.9-14-4.3-3.4-8.9-6.4-13.4-9.5-4.1-2.8-8.4-3-12.5 0-6.1 4.4-12.1 8.8-18 13.3-4.2 3.3-8.2 6.8-12.3 10.2-.9.7-1.9 1.4-2.9 1.9-1.9 1-3.5.6-4.9-1-1.3-1.5-1.1-3 .1-4.5 3.7-4.3 7.5-8.5 11.1-12.8 4.1-5 8.1-10.1 12.2-15.1.7-.9 1.2-2 1.9-2.9 3.7-5.3 3.3-10.6-.4-15.7-4.6-6.1-9.3-12.1-14.1-18-3.3-4-6.9-7.7-10.2-11.6-1.9-2.2-1.8-4.2 0-5.7.7-.6 1.8-.8 2.9-1.3z"/><path class="st0" d="M314 79.5V60.3v-33c0-3.8.1-3.8 4.7-3.9.2 1.1.4 2.2.4 3.3v59.5c0 1.6.7 3.7-1.5 4.3-2.1.5-3.6-.8-4.7-2.7-6.6-10.5-13.4-21-20.1-31.5-3.9-6.2-7.8-12.3-11.8-18.5-.4-.7-1-1.2-2.2-2.7v51.3c-.1 4.7-.8 5.1-5.6 2.9v-4.8-55c0-1 .1-2 0-3-.3-2 1-2.7 2.5-3.2 1.6-.5 2.5.4 3.3 1.6 1.4 2.2 2.8 4.5 4.3 6.7 9.5 14.8 18.9 29.7 28.4 44.5.5 1.1 1.2 1.9 2.3 3.4z"/><path class="st0" d="M142.3 88.4V65.2 28.7c0-4.4.2-4.5 4.5-4.5h30c2.7.3 3.3 1.1 2.3 4-.1.4-.5.8-.9 1.4h-30v24c1.1.1 2.3.3 3.6.3h23.5c1.6 0 2.5.9 2.4 2.5-.2 1.4-.9 2.5-2.6 2.5h-26.7c-.8 4.2-.3 8.3-.4 12.4s0 8.3 0 13h26.5c1.7 0 3.4.5 5.5.8-.6 1.8-1 3-1.3 4.1-11.5 1.3-32.3.8-36.4-.8z"/><path class="st0" d="M226.1 65.5c0-3.5-.1-7 0-10.5.1-8.3 4.3-13.5 12.9-14.1 3.6-.2 7.3-.3 10.9.1 6.7.6 11.2 4.3 11.7 10.9.6 8.9.6 18 .1 27-.4 6.5-4.4 9.7-10.9 11.2-5 1.1-9.9.8-14.8-.2-5.5-1.2-9.2-5.7-9.7-11.8v-1c-.2-3.9-.2-7.7-.2-11.6zm30.9.3h-.3v-11c0-1-.4-1.9-.6-2.9-.6-2.9-2.5-4.8-5.1-5.7-3.8-1.3-7.8-1.6-11.8-.7-5.4 1.2-7.8 3.7-8 9.2-.3 7.5-.3 15 0 22.5.2 4.1 2.2 7.5 6.8 8 3.6.5 7.3.8 10.8.4 4.4-.5 7.3-3.1 7.5-7.9.3-4 .5-8 .7-11.9z"/><path class="st0" d="M336 70.8c0 1.9-.1 3 0 4.2.6 6.8 4.3 10.6 11.2 11 3.6.2 7.3-.4 10.9-.6 1.8-.1 3.6-.3 5.3-.4.7 3.8.7 4.1-1.8 4.5-5.7.9-11.4 2-17.3.8-7.9-1.6-12.4-5.5-13-13.3-.6-8.4-.5-17-.1-25.4.2-4.9 4.6-9.3 9.5-10.2 4.7-.9 9.5-1.4 14.3-.2 4.9 1.3 8.6 3.8 9.3 9.1.4 3.4.4 6.9 0 10.3-.5 3.7-2.9 6.1-6.4 7.6-4.9 2-10 2.2-15.1 2.7-2.1 0-4.2-.1-6.8-.1zm-.1-3.7c6.1-.7 11.7-1.3 17.2-2.1 2.6-.4 4.9-1.8 5.6-4.4.7-2.7 1.1-5.6.9-8.3-.4-4.4-3-6.8-7.5-7.3-2.3-.3-4.7-.2-7-.1-5.6.3-8.9 3.6-9.2 9.2-.1 4.1 0 8 0 13z"/><path class="st0" d="M413.9 41.5c4.6-1.5 5.1-1.3 5.1 2.8 0 10.2.2 20.3 0 30.5-.2 8.2 3.4 11.8 11.4 11.2 3-.2 5.9-.6 8.9-1.1 2.9-.4 3.2-.9 3.3-3.9V46.1c0-1.2 0-2.3.1-3.5.3-2 2.1-2.1 3.4-2.1.7 0 1.5 1.5 1.8 2.4.3 1.1.1 2.3.1 3.5v36.4c0 4.4 0 4.5-4 5.6-6.6 1.7-13.2 3.2-20.1 1.6-6.3-1.4-9.4-4.9-9.8-11.3-.1-1.3-.1-2.7-.1-4-.1-10.9-.1-21.9-.1-33.2z"/><path class="st0" d="M388.7 61.7c3.8-6.4 7.3-12.4 10.8-18.4 1.7-2.8 2.3-3 6.5-2-.7 1.3-1.2 2.7-1.9 3.8-3.3 5.6-6.6 11.1-10 16.6-1.6 2.5-1.8 4.6 0 7.3 3.4 5.1 6.4 10.4 9.6 15.7 1 1.6 1.7 3.4 2.6 5.2-4.3 1-5 .8-6.9-2.4-2.6-4.4-5.1-8.9-7.7-13.3-.9-1.5-1.9-3-3.2-4.9-3.7 6.4-7.2 12.3-10.5 18.2-1.1 1.9-2.3 3.2-4.6 3.2-.7 0-1.4-.6-2.5-1.1 4.9-8.2 9.6-16.1 14.4-24.2-3.8-6.4-7.7-12.8-11.4-19.2-.7-1.1-1.4-2.3-1.9-3.5-.6-1.5.5-2.6 2.1-2.3 1.9.4 3.1 1.5 4.1 3.2 2.5 4.7 5.2 9.2 7.9 13.8.7 1.3 1.5 2.5 2.6 4.3z"/><path class="st0" d="M185.2 41.8c3-1.7 4.6-1.6 5.7.9.9 2.1 1.4 4.4 2.1 6.6l9 29.4c.2.6.4 1.1 1 2.6.7-1.7 1-2.4 1.3-3.3 3.3-10.6 6.5-21.2 9.8-31.7.4-1.3.7-2.6 1.3-3.8 1-2.1 2.3-2.3 5.6-.9-5.2 16.4-10.3 32.9-16 49-3.9.4-4.7-2.2-5.5-4.5-2.9-8.8-5.6-17.6-8.4-26.5-2.1-6-4-11.9-5.9-17.8z"/><path class="st1" d="M117 42.3c-1.7 1.8-3.3 3.5-4.9 5.2-1.4 1.4-2.9 2.8-4.1 4.4-3 3.9-2.9 6.4.4 10.1 2.2 2.5 4.6 4.7 7 7.1 1.1 1.2 1.7 2.3.6 3.9s-2.6 1.4-4 1c-.9-.3-1.7-1-2.4-1.6-4.8-3.6-9.5-7.1-14.2-10.8-3.6-2.8-3.6-6.8-.1-9.6 5-4 10.2-8 15.3-11.8 2.7-2.2 4.1-1.7 6.4 2.1z"/></svg>