<svg data-name="Layer 1" xmlns="http://www.w3.org/2000/svg" viewBox="0 0 78.87 22.3"><title>_factory</title><path d="M12.01 0v3.37H3.84v3.81h5.05v3.12H3.8v7.54H-.01V0h12z"/><path d="M13.39 8.6H9.76c0-.3.08-.58.15-.86a4.11 4.11 0 0 1 2.7-3 8.62 8.62 0 0 1 3-.55 11.19 11.19 0 0 1 3.33.34 4.37 4.37 0 0 1 1.79.92 3.1 3.1 0 0 1 1 2.42v7a8.23 8.23 0 0 0 .34 2.49c0 .13.1.26.16.4h-3.49a.18.18 0 0 1-.23-.17c-.08-.39-.18-.78-.27-1.17a5.39 5.39 0 0 1-3 1.43 7 7 0 0 1-3.05-.1 3.63 3.63 0 0 1-2.35-1.77 4.15 4.15 0 0 1-.45-2.21 3.78 3.78 0 0 1 .44-1.7 3.57 3.57 0 0 1 2-1.59 11.14 11.14 0 0 1 2.27-.49c.87-.12 1.75-.23 2.61-.39a2.87 2.87 0 0 0 .88-.35 1 1 0 0 0 .5-.92 2.11 2.11 0 0 0-.17-.93 1.36 1.36 0 0 0-1-.75 4.45 4.45 0 0 0-1.95-.06 1.88 1.88 0 0 0-1.64 1.81v.09zm4.72 2.7a2.73 2.73 0 0 1-1.21.47l-1.56.24a4 4 0 0 0-1.63.55 1.66 1.66 0 0 0-.68 1.81 1.41 1.41 0 0 0 1.15 1.17 4.44 4.44 0 0 0 1.47.1 2.42 2.42 0 0 0 2.38-2 7.75 7.75 0 0 0 .1-1.26c0-.32-.01-.7-.01-1.08zM65.38 4.45h3.7a.19.19 0 0 1 .22.16l2.83 8.65.08.24h.05l2.87-9.05h3.74l-.23.63-5.26 14.23a5.24 5.24 0 0 1-1 1.71 3.69 3.69 0 0 1-2.36 1.17 14.17 14.17 0 0 1-3.28 0 .16.16 0 0 1-.11-.11v-2.84l.9.08a7.53 7.53 0 0 0 1.21 0 1.52 1.52 0 0 0 1.35-1.69 2.71 2.71 0 0 0-.16-.79q-2.26-6.09-4.53-12.17zM43.45 11.24a7.76 7.76 0 0 1 .73-3.52 5.86 5.86 0 0 1 3.65-3.14 7.89 7.89 0 0 1 4.88 0 5.85 5.85 0 0 1 3.93 3.92 8.19 8.19 0 0 1 0 5.41 5.83 5.83 0 0 1-3.88 3.77 7.79 7.79 0 0 1-5.11-.06 6 6 0 0 1-3.89-4.33 7.67 7.67 0 0 1-.31-2.05zm3.6-.07a7.18 7.18 0 0 0 .27 2 3 3 0 0 0 5.71.35 6.53 6.53 0 0 0 0-4.58A2.73 2.73 0 0 0 50.47 7a2.82 2.82 0 0 0-3 1.82 6.47 6.47 0 0 0-.42 2.35zM35.56 9.2h-3.35a.16.16 0 0 1-.19-.16 2.32 2.32 0 0 0-1.61-1.95 2.76 2.76 0 0 0-3.57 1.52 6.13 6.13 0 0 0 0 5.07 2.52 2.52 0 0 0 2 1.63 2.73 2.73 0 0 0 3.25-2.19c0-.14.06-.28.09-.43h3.47a6.47 6.47 0 0 1-.38 1.6 5.5 5.5 0 0 1-4.41 3.64 7.46 7.46 0 0 1-4.11-.31 5.92 5.92 0 0 1-3.75-4.1 8.1 8.1 0 0 1 .42-5.72 5.79 5.79 0 0 1 4.18-3.38 7.56 7.56 0 0 1 5.19.56 4.84 4.84 0 0 1 2.77 4v.22z"/><path d="M43.76 7.15h-2.62v6.86a2.63 2.63 0 0 0 0 .43 1 1 0 0 0 1.07.88h1.52v2.74c-.38 0-.77.08-1.15.09a11.24 11.24 0 0 1-2.5-.1 5.29 5.29 0 0 1-.94-.26 2.5 2.5 0 0 1-1.63-2.23 6.86 6.86 0 0 1 0-.71V7.16h-2v-2.7h2V.56h3.61v3.89h2.64v2.7zM61.29 4.47v2.75a4.38 4.38 0 0 1 3.48-2.8v3.35c-.21 0-.42 0-.63.08a3.07 3.07 0 0 0-2.49 2.4 6 6 0 0 0-.21 1.63v5.9h-3.61V4.47h3.43z"/></svg>