<svg id="Layer_1" xmlns="http://www.w3.org/2000/svg" viewBox="0 0 618.3 38.6"><style>.st0{fill:#F9ED2E;}</style><path d="M36.5 6.4H6v9.5h21.2v5.5H6v16.4H0V.9h36.5v5.5z"/><path d="M61.8 37.8h-6V.9h6v36.9z"/><path d="M126.2 37.8h-7l-9.8-14H93.6v14h-6V.9h26.1c3.8 0 6.8 1 8.9 3.1 2.2 2.1 3.3 4.9 3.3 8.5 0 3.1-.9 5.6-2.6 7.5-1.6 1.8-3.9 2.9-6.7 3.4l9.6 14.4zm-13.4-19.6c4.6 0 6.9-1.9 6.9-5.7 0-4.1-2.5-6.1-7.5-6.1H93.6v11.8h19.2z"/><path d="M180.9 9.6c-5.4-2.8-10.8-4.2-16.4-4.2-3.7 0-6.5.4-8.5 1.3s-3 2.1-3 3.7 1.1 2.8 3.2 3.6c1.5.5 3.9.9 7.3 1.1 5 .3 8.3.6 9.9.8 4.5.6 7.9 1.7 10 3.4 2.2 1.7 3.2 4 3.2 7.1 0 3.9-1.7 6.9-5.1 9.1-3.4 2.1-8.3 3.2-14.6 3.2-9.2 0-16.4-2.1-21.5-6.2l3.3-4.4c5.7 3.5 11.8 5.3 18.3 5.3 4.2 0 7.5-.6 9.8-1.8 2.2-1.2 3.3-2.7 3.3-4.7 0-2.3-1.5-3.9-4.4-4.7-1.5-.4-5.7-.8-12.4-1.3-6-.4-10.1-1.2-12.5-2.4-2.8-1.4-4.2-3.8-4.2-7.2 0-3.5 1.6-6.2 4.8-8.2 3.2-2 7.7-3 13.5-3 7.8 0 14.3 1.8 19.6 5.4l-3.6 4.1z"/><path d="M241.7 6.4h-17.3v31.3h-6V6.4h-17.3V.9h40.6v5.5z"/><path d="M310.2 37.8h-6V7.6h-.2l-18.8 24-18.6-24h-.2v30.1h-6V.9h7.5l17.3 22.3L302.6.9h7.5v36.9z"/><path d="M375.3 37.8h-6.6l-4.2-8.2h-24.4l-4.2 8.2h-6.6L348.4 1h7.5l19.4 36.8zM361.7 24l-9.2-17.9-9.4 17.9h18.6z"/><path d="M431.1 37.8h-7l-9.8-14h-15.9v14h-6V.9h26.1c3.8 0 6.8 1 8.9 3.1 2.2 2.1 3.2 4.9 3.2 8.5 0 3.1-.9 5.6-2.6 7.5-1.6 1.8-3.9 2.9-6.7 3.4l9.8 14.4zm-13.4-19.6c4.6 0 6.9-1.9 6.9-5.7 0-4.1-2.5-6.1-7.5-6.1h-18.7v11.8h19.3z"/><path d="M494.9 37.8h-7.7l-17.3-19.4-10.9 8.2v11.2h-6V.9h6V20L484.3.9h8.6l-18.5 13.9 20.5 23z"/><g><path class="st0" d="M531.6 1.1c0-.1.1.1 0 0z"/><path class="st0" d="M549.1 1.1c0-.1.1.1 0 0z"/><path class="st0" d="M549.4 1.1c0-.1.1.1 0 0z"/><path class="st0" d="M549.6 1.1c0-.1.1.1 0 0z"/><path class="st0" d="M530.8 1.9c.1-.7.1.7 0 0z"/><path class="st0" d="M531.1 1.9c0-.1.1.1 0 0z"/><path class="st0" d="M531.4 2.1c0-.1.1.1 0 0z"/><path class="st0" d="M575.3 36c-.1.4-.5.2-.5.9-.3-.5-.6-.9-.8-.2-.6-1.1-.4.6-1.1-.5-.2.1.1.3-.1.6-.7-.3-1.7.4-2.7.6-.2.1-1.3-.6-1 .5-.6-.5-1-.3-1.6.3-.2-1.3-1.2.7-1.6-.5-.7-.3-2.5.6-3.1.6-.5 0-1.2-1.3-1.7.1-.3-1.5-1 .7-1.2-.8-1.2 2.1-2.8-.5-4.4 1.1-.3.1-.3-.6-.5-.6-.7 1.3-34.7-.6-35.6-.3-.8-.5 0-2.9-.2-3.4-.1-.3-.1-1.6-.2-2.7-.3-1.7-.1-2.6 0-4.2-.5-.5-.4-2.2-.2-3.1.9.2.8-1.7 1.3-2.4-.5-.3-.6-1.2-.6-2.1 0-.3.2-.2.2-.4.4.4.4-2-.1-2.1.1-1.7-.4-6-.6-7.7.2.1.5-.6.1-.4.2-.5.8-.1 1-.5-.2-.3-.6-.2-.9-.4.2-.8-.1-.8-.1-1.7.2.1.2-.3.3-.4 0-.3-.2-.2-.3-.4.1-.3.1-.8.4-.7.1-.7-.4-.2-.2-1 .1-.1.2-.3.4-.2.4-2.1 1.6-2.9 2.4-2.2.2-.1 17.1-1.1 17.4-.9-.2.9.2.1.4 0 0 .7.2.9.6.8-.2.9.2.7.4 1 .3-.8 13.4-.3 13.6-1.3.4-.2.9.3.6 1 .1 0 .2 0 .2.2.8-.8 2.1.5 2.9-.4.1-.6-.3-.2-.2-1 .2-.4.1 0 .4 0 0 .4 0 .7-.1.8.8 1.1 2.6-.2 3.3.7.2-.2.3-.3.3-.9h.1c1.1.4 4.6.8 5.3.1.6.2.7.7 1.1-.3.3.7.8-.2 1 .6.3-.8.6-.7.8-1.5.4 0 .4.8.6 1.2.4-.4.5.2.7 0 .3.2-.1.6-.2.6.2.6.6.3.8 0 0-.3-.2-.2-.4-.2.4-.9 1.4-.8 2-.7.8 0 1.4.6 2-.1.1 0 .1-.3.1-.6.2.2.3.8.5 1 3.6-1.5 5.7.8 8.2-1.5h.7c0 .2 0 .4.1.4-.4.7-.9.7-1.5 1.5.3 1.4 1-1.2 1.2-.1-.2 0-.3.2-.3.4.2.1.3-.1.3-.4.1 0 .3-.1.1-.2.1-.7.3.2.2.6.7-.2 1.2.6 1.4-.7.2 0 .1.7.3.6.4-.2-.3-.8 0-.8.4.3.5.4.5 1 .1 0 .3 0 .3-.2.2 0 .3-.1.4-.2 0 .3.3.2.4.2-.1-.2-.1-.3-.1-.6h.1c.1.2-1.4.5-1.4.8.3 0 1.9-1.2 1.4-.8.1-.6-1.1-.3-.9-.2.1.9-.3-.3-.2.6.5.4.9.4 1.2-.3.1-.1.2-.3.4-.2 0 .6-.3.5-.3 1.1 1.1-.8 4.9.6 6.4-.4 0 .3 0 .5.1.6.3-1.1 1-1.1 1.4-.1-.6.5-1.4-.6-1.5 1.1-.4.1 0-.3-.1-.8-.5 0-.8.4-1.1-.1-.3.4-4.2.7-4.2.5-.2.1-.2.3-.1.6-.3.1-.2-.7-.6-.4 0-.2-.1-.1-.1 0-.1 0-.2.1-.2.4-.1 0-.2 0-.2-.4.3-.2-.1-.8-.3-.6 0 .4.3.1.3.6-.4 0 0 .3-.2.6-.4-.1.1-.8-.4-.6 0 .4-.3.5-.4 1.1-.1 0-.1-.2-.1-.4.1-.1 0-.2 0 0-.2-.1 1.1-.6.9-.2-.4-.7-.6.9-1.1.7.1-.7.2-.7.5-.4-.1-1.1-.9.2-1.1-.4.1.7.5.6 0 1 .2.7.5 0 .8.4 0 .3-.1.4 0 .6h-.5c-.2.8.4 0 .4.6.2-.1.2-.3.1-.6.4-.2.3.7.5 0v.6h.5c0-.2-.2-.1-.2-.4.3.1-.6-.8-.5.2h-.1c-.1-.3-.3-.1-.2.2-.5-.1 1.3.2 1.1.6h-.2c-.1-.3-.1 0 0 0 0 .3-.9.3-.9 0 .1.1.2.2.3.2v.4c.3.1.2-.6.5-.4 0 .8-.6.3-.5 1.3-.4-.2 1.1.1.8-.2 0-.4-1.1-.1-1-.4.1.3.1 0 0 0V8c-.2.2 1.2.5.8.5.2-.9-.8.2-1.3-.3.2.7.2.6-.3.6 0-.3 0-.5.1-.6.2-.1.3-.6.5-.2 0-.6-.4-.3-.4-.8-.2 0 0 .7-.1 1.1-.2-.1-.1-.8-.4-.6 0 .3.1.3-.1 1.1-.3-.1-.2-.1-.5 0 .3-.5-.3-.3-.3-.8v-.4c.1-.3.4 0 .4-.4.1 0 .1.4.1.6-.2.1 0 .3 0 0 .1-.2.2-.6.4-.6-.7-1-1.6 1.3-.9.9 0 .2-.1.3 0 .4-.2.2-.3.3-.7.5.2-.2.3-.7.1-1.1.5.1-.2-.6.3-.4-.6-.5-.9 1.5-1.6 1.5-.5.1-.3.1-.8.3 0 .4.2.5.4.4h.1c-.1.4-.7.3-.6-.2-.1.3-.3.3-.3.9-.1-.1-.2-.2-.3-.2V10c-.1 0-.1.2 0 .2-.1.6-.2-.2-.4 0 0 1.1.3 0 .4.8-.1 0-.1.1-.1.2.1 0 .1-.1.1-.2.2-.2.8.3.7-.5h.2c.2.5.2.4.1 1 .2-.7.8-.5 1-1.1.2.1.1.7.4.4v.2c.1-.1.1-.2 0-.2 0-.5.2-.6.1-1.3-.5.6-.6 1.2-1.6.9.1-.4.3-.5.6-.4 0-.3-.1-.4-.3-.4 0-.4.3-.2.3-.6.2.7.3 0 .6 0 .2 0 .8.8.7.2.2 0 0 .7.1 1-.1 0-.2-.1-.3-.2-.1 1.3.6-.3.3 1 .3-.5.6-.7.6-1.3.3 0 .3 1 .2 1.2.3-.1.3-.8.3-1.5.2.1.4.1.4.6-.1.1 0 .3 0 0 .4.2.2-.7.7-.5 0 .3-.2.4-.2.6-.2-.1-.4.1-.5.2 0 .6.6-.2.4.6-.1 0-.1.3-.3.2-.4-.2-1.2 0-1.7.3 0 .3.7 0 .9.4v.4c-.5-.4-.6.2-1.1.5 0 .5.4.1.6.2-.1.5-.4.5-.7.2.5 1.2 1.3-.4 1.9-.3 0 .3.1.3.1.6 0-.2.4-.9.4 0 .4-.3 1-.4 1.6-.7.1.1-1.4.2-1.2.2 0-.3 1.3-.7 1.2-.2-.9-.1-.9-.8-.8-.5-.1 0-.1.1-.1.2-.1.1 0 .2 0 0 .1 0 .1-.1.1-.2.2 0 .4 0 .3-.4.7.5 1.4.2 2.1.1.1-1.3-.3-.9-.3-1.4-.2.1-.2.5-.5.4-.2-1.3-1.6.4-1.8-.3.2-.4.7-.2.4-1.1.6 1.4 1.7-.5 2.3.5.2-.1-.1-.6.2-.8.4-.1 0 .3 0 .6.3.2.7.1 1.1-.3.2.5.4-.8.8-.7 0 .2.2.2.3.2 0-.2-.2-.2-.3-.2.1-.5.6-1.2.8-.7-.7-.1.1 1.3 0 0 .1 0 .2-.2.2-.4.5.1-2.3.3-1.7-.1.1.3.1.3 0 .6.2-.1.5-.5.6.2-.1 0-.2.1-.2.2h-.4c-.1.4.5.7.4 0 .1 0 .2-.1.2-.2h.3c0 .6-.3.5-.4.9 0 .3.5.3.5 0 .1-.1.1-.5.2-.6h.3c0 .2.1.2.2.2 0-.2-.1-.2-.2-.2.1-.8.3-.1.6-.5-.1.3-.1.7-.1 1.3.2-.3 0-1.2.5-.9v.6h-.3c0 .3.3.3.3 0 .4-.2.6.4.8 0 0 .2.1.2.2.2 0-.2-.1-.2-.2-.2-.2-.5-.5-.1-.7-.4.1-.8.6-.2.8 0 .3-.1-.1-.4 0-.8.3.3 1.5.9 1.6.1.1 0 .1-.3.1-.4.1 0 .1.4.1.6.1-.1.1-.5.1-.8-.3-.1-.4.1-.3.6-.3.1-.2-.7-.3-1 .1 0 .1 0 .1-.2.2.1.4.5.6.2v.4c.1-.1.1-.4 0-.4 0-.3.2-.2.4-.2.1.7-.2.5-.2.9h-.2c0 .4.1.5.1.8-.4.6-1.3.3-1.8.7h-.1c0 .2.1.1.1 0 .8 0 2 .5 2.6-.1.5 0 .9.3 1.2.1.2.5-.4.6-.5.7-1.4.4-4.1-.6-5.2.3-.2-.4-.3-.7-.5-1 .2.9-.2.5-.4 1.1h-.1V10c-.1.1-.1.4 0 .4 0 .2.1.1.1 0h.3c0 .3-.1.4-.3.4 0 .3.3.1.2.6-.2-.3-.6.4-.6-.6-.5.1-.6.3-.8.5-.3-.2.1-.4.1-.6 0-.5-.6.1-.3-.6-.3-.2-.3.3-.4.6-.1-.2 2.7-.2 2.5-.2-.1 0-.1.2 0 .4-.2-.1-.5.7-.5-.2-.6-.1-.9.6-1.2 1.1.1-.6 0-.8-.3-.6-.1-.2-.9-.4-.3-.6-.2-.6-.5.3-.8 0 .1.5.3.6.6.4-.2.4 0 .6.1.8h-.4c0-1.2-.4.8 0 0-.1.3.5.3.4 0h.1c.1.2.1.1.1 0 .1.3.4.2.5 0 .1.6.7-.6.7.4.4-.4.4-.3.8-.5 0-.2-.1-.2-.2-.2.4-.7-2.3.4-2.1.6.3 0 .4-.5.7-.7-.2.9.4.7.4.2.1.1.2.3.2.6.5-.1 1 .1 1-.5.3.7 1.7.5 2.1-.5.3.2.1.3.1.8.4-.3.7.3.8-.5.4.6.6.1.9.4.3-.1.2-1.6.6-.9-.1.2-.6.6-.1.6.9.7 4.5.5 5.4.3 1.2.5-.9-.1.8.8-3.2.3-1.3.2-4.2 0-.3 0-.1.8-.4.7 0-.3.1-.3.1-.6-.3.4-.5-.2-.8.3.2.4.2.5-.2.4 0 .3.3.1.2.6-.3-.2-.3.3-.5.2.3-.9-.3-1.1-.6-.8 0-.2.1-.2.2-.2-.9-.3-3.1-.8-3.9.2.2.2.7.5 1.2.6-1.6-.1-.3 1.2-1.5.2-.3.3-.7.4-.8 0-1.9 1.6-2.8 0-5 1.4 1.2.5 1.4-.3 2.5-.2.4-.2 1.1.2 1.4-.3.1 0 .1.3.1.6 1.1-1.3-.1-.2 1-1.1.1.1.2.3.3.6.4-.7 2 .2 2.2-1v.6c1 .1 1.8-.4 2.6-.3.3 0 .5.5.8.6.5.1 1.6-.8 1.7-.1 1.6-.5-.1-.5 1.4-.1 0 .9-.5-.2-.4.6-.1 0-.1-.2-.1-.4-1.4.5.6-.1-1.1-.1-.9 0-1.9.6-2.8.6-.3 0-1.1-.7-1 .1-.4-.3-1.5.2-1.7-.3-.5.5-2.5.5-3.2.2-.5.6 1.8.4 1.2.5.2.8-2 .6-1.6.5.4-.1.8-.3 1.2-.5 1.6.6 3.4-.1 4.8.2 0 .5.5.5.2 0 .3.5.7-.4.9.2h-.2c0 .3.2.2.2 0 .3-.8.3.2.7-.2v.6c.5-.4 1.7-.2 1.9.1.5-.6 1.2-.5 1.8-.3-.3 0-1.1 1-1.6.5.4 1.1 1.6-.3 1.9.7.3-.3.5-.5.9-.3 0-.4-.2-.5-.4-.4 0-.2.1-.3 0-.4 0-.3.2-.2.4-.2 0 .2-.1.2-.2.2.3.5 1.1.2 1.1-.5 1.4.7-2.4.2-1.2.2-.1 1.3-1.5.6-2.1.5.2-.1 0-.3 0 0-.7.4 3.1-.1 2.5.3.2.8-3.7-.2-3.4.6v.4c-.9-.3 3 .7 1.9-.1-4.1.9-6.7 0-10.5 1.1.7.8-1.2-.2-.4.1-.8.9 1 .3-.2.6-.1-.7.3-.3.5-.4 0-.5-.4-.1-.5-.2-.4 1.4-1.4.4-1.8.9 0 .5.5-.1.3.6-.4.2-1.2-.2-1.6.7-.1 0-.1 0-.1-.2 0-.1 0-.2-.1-.2 0-.5.4-.1.6-.2.1 0 .1-.2 0-.4.1 0 .2-.1.2-.2h.2c.1.3.1 0 0 0 1-.4 0-1.4-.2 0-.1 0-.2.1-.2.2-.5.2-.8-.1-.9.5-.1 0-.2.1-.2.4-.3-.3.7 0 .6-.6.4-.1-.5.4-.2-.7-.1-.1.6.2.1.1-.1.1-.1.8-.3.2.1-.1 0-.3 0 0-.3.2.1.7 0 1-.2.1-.5-.9-.7-.2h-.3c-.1.5 0 .7.3.6-.3.2-.8.1-1.2-.4 0 .8-.8.6-1.2.5-.2.5-1.7 1.3-2.3.9.1-1 1.1-.7.9-1-.4.6-1.6.9-2.2.9 0-.3 1.5-.5 1.4-.6-.2.1-1.9.4-1.9.9-.1 0 1.3-.3 1.2-.4-.2.5-2.4.4-2.8.3-.1.1-.1.5-.2.6.2.6.5-.7.6.2-.2.3-.2.1-.5.5 0 .3.2.2.3.4 0 .5-.5-.1-.3.6-.2 0-.2-.5-.1-.8-.1-.6-.2.6-.5.2 0-.5.3-.2.3-.6-.3-.5-1.2.4-1.8.7.2.2.6.2.7-.2.2 0 .1.5 0 .6.2 0 .2-.2.2-.6.6-.1 1.2.8 1 1.6.3.2.2-.3.4-.4.1.3.1 0 0 0 .6-.4 1.2-1.7 2-1.2 0 .2-.2.2-.3.2 0 .2.1.2.2.2-.2.7-.4-.5-.8-.2-.2.8-.4.2-.5.9.1.1.5.2.6.8.3-.5-.4-.7.1-1.1.2-.1.4.6.5 0 .4.4-.2.6-.1 1.1-.4-.1-.4.5-.7.4.2.5.7 0 .7-.4.4 0 .6-.3.8-.5-.4-.2-.6-.6-.4-1.6.1 0 .2.2.2.4-.1 0-.1.1-.1.2.1 0 .1-.1.1-.2.6.2.8-.6 1.3-.7-.2 1.1-.5.7-1.1.9v.6c.2 0 .6-1.1.6 0-.1.1-.2.2-.2.4.3-.1.8.1 1-.3-.1-.3-.3-.4-.3-1 .4.4.2.1.2-.6.2 0 .3.3.6.2 0 .4 0 .6.1.8.2 0 .3-.4.6-.2.1-.7-.4-.2-.2-1-.2.2-.3.7-.5.2 0-.3.2-.2.2-.4 0-.6-.5.6-.6-.2.4 0 1.5-.3 1.7-.6.5.4-.1-.7.5.1.5-.3 2.2-1.1 2.8-.9 0 .3-.3.1-.3.4-.2 0-.2.2-.3.2 0 .5.6.2.3-.2.5.1-.8-.3-.4-.5 0 .4.1.5.3.4 0 .2-.1.3-.1.4 1-.5 1.9-.8 3.1-1v.4c-.1.1 0 .2 0 0 .1-.1.1-.4 0-.4.4-.7.1.9.4.8.3 0 .3-.5.4-.7.3.6 1.4.4 1.6.1.4.3-2.1.7-1.7-.1.2.1.1.6.4.4-1.5.6-1.4.6-2.6.6-.1.4 0 .6-.3.8-.3-.1.1-.4 0-.8-.3-.3-.6.7-.7 0 0 .8-.6.3-.8 1.1-.1 0-.3 0-.3.2-.2-.1-.2-.3-.1-.6-.5-.1-.8.1-1.1.3 0-.4.1-.4.2-.6-.3-.7.7.5.4-.2-.2.3.1 1.3-.4 1.3-.1-.2-.1-.9.2-.9-.3-.3-.7.8-1 .5.1.4.5 0 .2.6.3-.1.5.1.7.2 0 .5-.4.1-.5.2 0 .4.2.5.4.4 0 .3.2.2.2 0h.5v.4c1.3-.1 1.1-.3 2.7 0 0 .3.3.1.2.6-.4-.3-1.2.4-1.8-.1-.1.6.1.5.1 1 .2-.2.5 0 .5-.7.2 0 .1.5.3.4.1.7-.5.1-.6.7-.1 0-.1-.2-.2-.2-.1.4.2.5.2.2.2.8.6-.1.9.4.6-.4 1.6-.1 2.7-.4 0 .3-.2.2-.2.4h-.2c0 .3.2.2.2 0 .1.1.6-.1.3-.2.7.1-1.4-.1-.7-.3 0 .2-.1.3-.1.4.8-.2.8-.3 1.6-.1 0 .2.1.2.2.2 0-.2-.1-.2-.2-.2.6-.5 1.3.1 1.8-.3.3.1-.1.5 0 .8-.3-.1-.3-.5-.6-.6 0 .4.1.5.3.4-1.6.5-2.8.2-4 .2v-.2c-.1 0-.1.2 0 .2-1.6.3-.2.5-1.6.3-.1 0-.1.3-.1.6-.2-.4-.5-.5-.9-.4 0 .2.1.2.2.2-1.7.5-2.1-.3-3.8.5-.2-.7-1 0-1.4.1-.9.1-1.9-.4-2.7.4-.4.2-.1.8-.4 1.1-.7-1.1-1.9-.2-2.9-.1 0 .5.6-.1.4.8.7-.5.8 1.1 1.2.4-.2-.2-.2-.8-.5-.6.4-.2.9-.4 1.4-.3 0 .2-.1.3-.1.6.4.3 0-.9.4-.7-.1.7.3.1.2.8-.2-.1-.4.1-.5.2 2.9 2.4-1.4 2.5 1.4-.1h.5c-.2 1.8-1 2.4-1.6 2.9-.9.6-1.8 0-3.2-.3.7.6 1.5 2 2.1 2M521.3 2.4c.2-.1.5.2.4-.4-.2-.1-.3 0-.4.4zm.7-.1c.1.2 0-.1 0 0zm62.2-1.1c.1.2 0-.1 0 0zm-.3.5c-.2.1-.7-.2-.7.2-.5-.3-1.8-.5-2 .5.6-.4 1-.2 1.6-.1-.1.5.3.6.3.2-.2.1-.2-.2-.3-.2.1-.6.4.4.4-.4.3.1.5.3.7-.2.2-.2 0-.3 0 0zm-43.2 1.8c-.2.7.4-.5 0 0zm15.1.7c.2 0 .5 0 .4-.6h-.3c0 .3-.1.3-.1.6zm2.7.3c.8.3 1 .4 1.9-.5-.3-.4-1.8-.7-1.9.5zm1.9-.6c.2 0 .3-.2.4-.6-.2.1-.4 0-.4.6zm1.8-.4c-.2-.4-.6-.2-1-.2.1 1.2.7.7 1 .2zM567 3c-.1.1-1.8.2-1.8.4.1-.1 1.8-.2 1.8-.4zm.4-.1c-.1.1-.3 0-.3.3.1 0 .3 0 .3-.3zm1.6-.1c-.5 0-1 .1-1.5.1.2 1.5 1.4.9 1.5-.1zm.3.6c-.2.2 0 .3 0 0 .2.4.7.2.7-.6-.4.4-.6-.3-.7.6zm3.4-.7h-1c.1 1.1 1 1.1 1 0zm.1 0c.2-.6-.5-.5-.5-.2.2.2.3.2.5.2zm.9-.1h.2v-.4h-.2v.4zm.8 0c.2-.6-.4-.6-.4-.2.1-.1.2.2.4.2zm1-.5c0 .4-.3-.2-.6 0-.1 1.1.8.6.6 0zm.5.4c.2-.1.5.2.4-.4h-.4v.4zm3-.4c.1.3.1 0 0 0-.1-.3-.1.1 0 0zm.3.2h.2v-.4h-.2v.4zm.3 0h.2v-.4h-.2v.4zm1.1-.3c0-.2-.3-.2-.3 0-.1.5.4.5.3 0zm.4 0c-.1.2 0 .3 0 0 .2-.1 0-.2 0 0zm-26.6 1.7c.1.1-.1-.1 0 0zm25.4-1.2c.2 0 .2-.2.3-.4-.2 0-.3 0-.3.4zm-60.2 1.6c.1.1 0-.1 0 0zm63.6-1.4c.2 0 .3-.2.3-.4-.1 0-.3 0-.3.4zM555.9 5c.1.2 0-.1 0 0zm13.1-.2c.4.4.4-1.3 0-.8v.8zm.7-.6c.1.2-.1-.1 0 0zm3.9-.3h.3c0-.4.1-1.1-.2-.8-.1.2-.2.4-.1.8zm1.8-.7c0 .1-.1-.1 0 0zm4.4-.3c.2.7.2-.8 0 0zm.4.6c.2-.1.5-.2.4-.9-.3 0-.4.3-.4.9zm2.1-.3c.2.1.4.4.5-.2-.1 0-.1-.4-.2-.4 0 .4-.3.1-.3.6zM561.4 5c.1.2-.1-.1 0 0zm.7-.3c-.1.1-.3 0-.3.3.1-.1.3 0 .3-.3zm5.4-.1c.2.9.3-1.1 0 0zm.4.3h.4c0-.5-.1-.7-.4-.5v.5zm13.5-1.6c.1.9.6-1.2.1-.2 0 0-.1-.1-.1.2zm.7-.3c.1.8.1-.8 0 0zm-12.7.9c.1.1 0-.1 0 0zm2-.1c.1.1 0-.1 0 0zm12.4.2c-.7.2-1.5.2-2 .9.6-.3 1.8-.2 2.1-.5 0 0 0-.3-.1-.4.7.5 1.3.1 1.7-.3-.1 0-.3.1-.3-.2.3 0 .5-.1.6-.5-.6.3-2 0-2 1zm12.1-1.4c-.1.1-.2 0-.2.2.1-.1.2 0 .2-.2zm-9.9.8c-.1 0-.1.2 0 .2 0 .4.2 1.2.3.6-.2 0-.1-.7-.3-.6v-.2c.1-.1-.1-.2 0 0zm.8 0c.2.9.8.5 1-.1-.4-.3-.6 0-1 .1zm-.5.6c.2.1.4-.1.4-.4-.1 0-.1 0-.1-.2h-.2c0 .3-.1.5-.1.6zm.9-.5c-.3-.6-.3.8 0 0zm.3 0c.1.1 0-.1 0 0zm1.4-.3c-.1 0-.3 0-.3.2.2 0 .3 0 .3-.2zm.9-.1c-.2.1-.6-.2-.6.2.2 0 .6.3.6-.2zm-9.1 3.4c-.4.1-.7-.7-.9.3.5 0 .6.6.9-.3.1-.1.1-.3.3-.3-.2.9.3 1.7-.4 1.2.2 1.4 1.3.7 1.7.2.3-.1.4.2.6.3.1-.7-.1-1.1.6-1.2.1 1.1.8-.2 1.3.8.2-2 1-.2 1.8-.4-.2-.7.2-1-.2-1.5-.4.6-1.4 0-1.8-.2.7.4.8-1 1.1-.4.1-.6-.1-1.8-.3-.9 0 1.4-2.6.1-2.7 2.2-.4-.6-1.3.5-1-.8-.3.6-1.1-.1-1 1zm-.3-1.1c0-.3.2-.2.3 0 0-.4.1-.4.2-.6-.2 0-.3.1-.4.2 0-.2-.1-.3-.2-.4-.1.3-.1.8.1.8zm1.2-.7c-.2-.4-.4.3-.6-.2 0 .8.5.6.6.2zm-61.4 1.7c-.1.1-.2 0-.2.2 0 0 .2 0 .2-.2zm58.8-.9c.4-.6 1 .5 1.1-.5-.2-.1-1-.5-1.1.5zm-18.4.6c-1.4-.2-1 .7 0 0zM583.2 5c-.1.2.1.3 0 0 .4.7.3-.7 0 0zm-21.4 1.2c-.1 0-.3 0-.3.2.1 0 .3.1.3-.2zm15.9-.6c-.1.1 0 .2 0 0 .9.2.4-.7 0 0zm1.2-.3c-.1 0-.3 0-.3.2.1 0 .3 0 .3-.2zm-59.8 2.2c.2 0 .3-.2.4-.4-.2 0-.5-.2-.4.4zm38-.6c.2.8.1-.8 0 0zm.7 0c-.2 0-.3 0-.4-.2-.1.6.5.5.4.2zm18.9-.9h.2v-.4h-.2V6zm.7-.4c-.1 0-.4-.1-.4.2.1.3.4.3.4-.2zm-19.1 1.2c-.6-.2-.2.7 0 0zm.4.4c.1-.1.5.2.5-.2-.2-.3-.5-.3-.5.2zm-39.3 1.1c.2 0 .3-.1.4-.2 0-.4-.1-.5-.2-.6.1.6-.2.5-.2.8zm37.6-1c.2.7.6-.2 0 0 0-.3-.1 0 0 0zm3.3-.4c-.2.1-.6-.2-.6.2.1-.1.5.3.6-.2zm21.1-.9c-.1.1.1.2 0 0 .2-.2 0-.3 0 0zm-23.9 1.5c.1.1 0-.1 0 0zm.6 0c-.2.7.4-.6 0 0zm2.6-.4c-.1.1-.2 0-.2.2 0 0 .2 0 .2-.2zm25.9-1.2c.2.8.1-.7 0 0zm-28.8 1.8c.1.1 0-.1 0 0zm.9-.3c-.1.1-.2 0-.2.2.1 0 .2 0 .2-.2zm4.8 0c.1.1-.1-.1 0 0zm.4-.2c-.1.1-.2 0-.2.2.1-.1.2 0 .2-.2zm.3.2c.1.1-.1-.1 0 0zm21.5-1.2c-.1 0-.3 0-.3.2.1 0 .3 0 .3-.2zm-25.2 1.6c-.1 0-.2 0-.2.2 0-.1.2 0 .2-.2zm7.6-.3c.1.2 0-.1 0 0zm18.5-1c.1.9.1-.8 0 0zm-31.1 2.4c.1.1 0-.1 0 0zm28.4-1.4c.3 0 .5-.1.6-.4-.3 0-.6-.1-.6.4zm3.7-.4c.1.2-.1-.1 0 0zm-5.7.9h.2v-.4h-.2V8zm.8.2c.3 0 .4-.1.4-.6-.2.1-.5.1-.4.6zm.7-.2h.2v-.4h-.2V8zm4.4-.5c-.5-.5-.2.7 0 0zm.1.2h.2v-.4h-.2v.4zm-48.7 2.2c.1.1 0-.1 0 0zm42.7-1.6c-.1.1-.2 0-.2.2.1-.1.2 0 .2-.2zm.5.1c0 .2-.1 0 0 0zm1-.2c-.1.1-.2 0-.2.2 0 0 .2 0 .2-.2zm-2.8.5c-.1.2.1.3 0 0 .2-.1 0-.2 0 0zm-.7.3c.1.1 0-.1 0 0zm-59.3 1.6c-.1.1-.2 0-.2.2.1-.1.2 0 .2-.2zM581 9.1c0 .2-.1 0 0 0zm12.5-.7v.4c.3.3.3-.7.1-.6 0 .1 0 .2-.1.2zm-2-.3c-.1.1-.2 0-.2.2.1 0 .2 0 .2-.2zM584 9.2c0 .1-.1-.1 0 0zm6.8-.4c.1.7 2.9.3 2.8.2.1.7-2.3.3-2 .2-.3.1-.6-.3-.4-.8h2.6c0 .2-3.1.4-3 .4zm-9.5.5c-.1.1-.2 0-.2.2 0 0 .2 0 .2-.2zm-60.2 2.1c-.2.7.3-.6 0 0zm60.4-1.4c0-.2-.2-.3-.2 0 .1-.1.1.3.2 0zm2.3-.2c.1.2-.1-.1 0 0zm9.7-.6c-.6-.4-.8.8 0 0zm0 .1h.2c.1-.5-.3-.6-.3-.2 0 0 .1 0 .1.2zm-1.1.6c.3-1.1-.5-.5 0 0zm-.4-.5c.1.1 0-.1 0 0zM521.3 12c.1.8.1-.8 0 0zm56.3-1.6c-.1.1-.2 0-.2.2.1-.1.2 0 .2-.2zm1 .1c-.2.7.4-.5 0 0zm7.6-.6c-.1 1.2.4.1 0 0zm2 0c.1.2-.1 0 0 0zm1.6 0c.1.1 0-.1 0 0zm1.7.5c.1.3.1 0 0 0v-.2c.1-.1 0-.2 0 0-.1 0-.1-.4-.2-.4-.1.3-.1.6.2.6zm.3-.4c-.2.7.3-.6 0 0zm1.1-.1c.1.1 0-.1 0 0zm.4 0c.1.1 0-.1 0 0zm.3 0c.1.1 0-.1 0 0zm-1.9.5c-.1-.8.5-.1.3-.9h-.3c0 .2-.2.9 0 .9zm.6-.6c-.1 0-.2 0-.2.2.1-.1.2 0 .2-.2zm-72.1 3.1c.1.1 0-.1 0 0zm64-1.4c-.1.1 0 .2 0 0 .1 0 .1-.2.2-.2 0 .7-.1 1.4-.4.7-.1.2-.1.5-.1.8.2.2.3-.6.4 0-.1 0-.1.1-.1.2.3-.3.5-.6.7-1.1-.5.5-.3-.5-.1-.8-.2.1-.7-.4-.6.4zm-.6.2c.1.2 0-.1 0 0zm9.6-.4c.2.9.1-.8 0 0zm-16.3 1.8c.3 0 .2-.6.4-.9-.2 0-.4-.1-.4.2.1.1 0 .6 0 .7zm6.9-.8c-.1.1-.5-.2-.5.2.1 0 .5.3.5-.2zm6.6-.4c-.1.1-.2 0-.2.2.1 0 .2 0 .2-.2zm-23.5 2.4c-.1 0-.3 0-.3.2.1 0 .3 0 .3-.2zm19.7-.2c.7 1 1-.4 2.1.2-.1-.5 0-.8.3-.7 0 .3-.2.5 0 .6.7-.7 2.2-.1 3.1-.8-2.3-.5-3.1.2-5.5.7zm11.6-1.3c-.1.1-.2 0-.2.2.1 0 .2 0 .2-.2zm-5.4.7c0 .1-.1-.1 0 0zm.6-.2c-.7-.2-.2.6 0 0zm-73.2 5.5c.3-.2.4.2.6.4.1-.8-.2-.9-.5-.8.2-.4 0-.9-.2-1-.3.3 0 .9.1 1.4zm67.5-2.6c.3.8.2-.7 0 0zm-.5.3c.1.1 0-.1 0 0zm1 .8c0-.8.5-.1.6-1.1-.4.2-.5.2-.7 0 0 .5-.2.9.1 1.1zm4.1-.7c.1-.5 0-.7-.3-.6-.1.6.2.4.3.6zm-3.1-.2c-.1.1-.2 0-.2.2.1-.1.2 0 .2-.2zm.8.1c.1.2 0 0 0 0zm1.8-.1c0 .2-.1 0 0 0zm-4.1.7c.1.3.2 0 0 0v-.4c-.3 0 1 .1.8.5.3.4-1.1-.3-.8-.1zM520.4 19c-.1.1-.2 0-.2.2 0-.1.2 0 .2-.2zm67.5-2.1c-.5.6.3.6 0 0zm4.2 0c0-.2-.2-.3-.2 0 .1-.1.1.3.2 0zm-5.1.5c0 .1-.1-.1 0 0zm6.7-.6c.1.1 0-.1 0 0zm-7.3.9c0 .1-.1-.1 0 0zm5.4 0c.6-.3 1.3.7 1.6-.3-.6.4-1.3-.5-1.6.3zm6.1-.3c.4.6.3-.8 0 0zm2.8.1c0 .1-.1-.1 0 0zm-12.2.8c-.1.1-.5-.2-.5.2.1-.1.5.3.5-.2zm4.8.4c.1.1-.1-.1 0 0zm-4.9 1.3c.1.8.1-.9 0 0zm-.5.4c.2 0 .4 0 .3-.4h-.2c0 .2-.1.3-.1.4zm-.5-.1c-.1.1-.2 0-.2.2.1 0 .2 0 .2-.2zm1.8.3c0 .1-.1-.1 0 0zm-4.6 1.1h.2v-.4h-.2v.4zm-.3.3c0 .1-.1-.1 0 0zm-.3.8c0-.3.2-.4.2-.6-.2-.2-.5.5-.2.6zm-3.8 0c.1.1 0-.1 0 0zm8.8-.5c-.1 0-.3 0-.3.2.1-.1.3 0 .3-.2zm.8-.1c-.1.1-.2 0-.2.2.1 0 .2 0 .2-.2zm.4.2c.1.1-.1-.1 0 0zm-1.7.4c.1.1 0-.1 0 0zm-10.9 1.1c.1.1 0-.1 0 0zm8.4-.3c.3 0 .6.1.6-.4-.2.1-.5 0-.6.4zm-12.6.7c-.5-.5-.2.7 0 0zm3 .1c.2 0 .4 0 .3-.4h-.2c0 .2 0 .2-.1.4zm8.9-.7c.1.1 0-.1 0 0zm2.2-.2c0 .1-.1-.1 0 0zm-2.8.7c-.3 0-.6-.1-.6.4.3 0 .8.6.9-.3-.5.2.2-.8-.3-.6v.5zm-8.5.4c-.6.6.4-.4 0 0zm-1 .5c.1.8.1-.9 0 0zm-3.3.2c-.1.1-.2 0-.2.2.1 0 .2 0 .2-.2zm3 0c-.3 0-.5.1-.6.5.2-.2.7.3.6-.5.2-.1 0-.2 0 0zm1.3-.1c.2.9.1-.8 0 0zm1.3.2c0 .1 0 .2.1.2.1-.6.2.2.4 0 .1-.8-.4-.2-.5-.6v.4zm5.4-.3h.2v-.4h-.2v.4zm-6.5.7c.1.2.4.2.6.2 0-.2 0-.6-.1-.6 0 .9-.4-.1-.5.4zm7.6-.6c-.1.2 0 .3 0 0h.3c0 .2-.1.2-.1.4h.3V25c-.1.1-.5-.2-.5.2zm1 .2c0 .2.1.4.2.4 0-.1.2-.8 0-.8 0 .2-.1.3-.2.4-.1-.2-.2-.3-.3-.4 0 .4.1.4.3.4zm-2.1.1c-.1.8.4.3.6.4 0-.9-.4-.6-.6-.4zm.7 0c.1.1 0-.1 0 0zm-5.4.5c0 .1-.1-.1 0 0zm-4.4.5c.1.1 0-.1 0 0zm.3 0c-.1.1 0 .2 0 0 .2-.2 0-.3 0 0zm3.4.1c.2-.1.4.6.5 0-.1 0-.1-.2 0-.2s.3 0 .3-.2c-.3-.2-.6-.3-.8.4zm0-.4c-.1.1-.2 0-.2.2 0 0 .2 0 .2-.2zm2.3-.1c-.1.1-.2 0-.2.2.1 0 .2 0 .2-.2zm6.5-.1c.1.1 0-.1 0 0zm-.1-.1c0 .1-.1-.1 0 0zm-12.4.8c-.1.1-.2 0-.2.2.1 0 .2 0 .2-.2zm5.7-.2c-.5-.7-.4.8 0 0zm2 .1h.2c.1-.5-.3-.6-.3-.2 0 0 .1.1.1.2zm.6 0c.1.1 0-.1 0 0zm-4.9.3c-.1.1-.2 0-.2.2 0-.1.2 0 .2-.2zm-58.2 2c.1.1 0-.1 0 0zm57.7-1.4c0 .1-.1-.1 0 0zm1.3-.3c-.1 0-.3 0-.3.2.1 0 .2.1.3-.2zm-3.5.9c.1.2 0-.1 0 0zm-.5 0c.1.1 0-.1 0 0zm.5-.3c-.1 0-.3 0-.3.2.2 0 .3.1.3-.2zm5 0c0 .1-.1-.1 0 0zm-.9.9c.7.3 2.8.3 3.6-.6-1.4 0-2.6-.4-3.6.6zm4-.5c.1.2 0 0 0 0zm4.1-.3v.2c.3.2.3-.3.5-.2 1 0-.3-.5-.5 0v-.2c-.2 0-.3.2-.3.4.2.1.2-.1.3-.2zm-8.8.8c0 .1-.1-.1 0 0zm.6.2c.2-.6-.4-.6-.4-.2.1.1.2.3.4.2zm9.1-.4c.1.2 0-.1 0 0zm3-.1c-.1 0-.2 0-.2.2.1-.1.2 0 .2-.2zm-16.5 1.3c.1.2 0 0 0 0zm5 .6c-.1 0-.3 0-.3.2.1 0 .3.1.3-.2zm-3.6.8c-.2 0-.1-.5-.3-.4-.1.5.2 1 .3.4zm.2.4c.1-.1.5.2.5-.2-.2-.3-.4-.1-.5.2zm2.8.5c-.1 0-.1-.3-.3-.2-.2.6.3.6.3.2zm-1.1.5c-.6 0-.6 0-1.2-.1 0 .7 1 .4 1.2.1zm1.2 2.1c.2-.6-.4-.6-.4-.2.1 0 .2.3.4.2zm2.1-.3c-.1 0-.2 0-.2.2.1-.1.2 0 .2-.2zm-59.2 2.6c.1.1-.1-.1 0 0zm43.9.5c.1.1 0-.1 0 0z"/><path class="st0" d="M597.6 1.8c-.3 0 .1-.8 0 0z"/><path class="st0" d="M571.8 3.1c0-.5.5.2 0 0z"/><path class="st0" d="M598.4 2.8c.1-.8.1.7 0 0z"/><path class="st0" d="M597.2 3c.2-.6.3.7 0 0z"/><path class="st0" d="M597.7 3c0-.2.2-.2.3-.2 0 .2-.1.1-.3.2z"/><path class="st0" d="M600.2 3.2c0-.1.1.1 0 0z"/><path class="st0" d="M606.2.8c0-.1.1-.2.1 0h-.1z"/><path class="st0" d="M596 2.3c-.1.3-.4.2-.6.4 0-.5.3-.4.6-.4z"/><path class="st0" d="M596.8 2.5c0-.1.1.1 0 0z"/><path class="st0" d="M604 3c0-.1.1.1 0 0z"/><path class="st0" d="M606.2.8V1c-.6-.1-.2.3-.6.7-.2-.8-1.2-.3-1.2.5-.3-.4-.3-.3-.6-.8-.2-.1 0 .6.1.6-.2.7-.2-.8-.7-.4 0-.6-.7.3-.6-.6.8.5 2.1-.4 3.6-.2z"/><path class="st0" d="M606.3.8c.2.1.6-.3.6.2s-.7.6-.9.5c0-.3.2-.2.2-.4 0-.1.1-.1.1-.3z"/><path class="st0" d="M607 .8c.3-.2.3.3.6.2-.1.3-.8.4-.6-.2z"/><path class="st0" d="M608.7 1.1c-.4 0 0-.8 0 0z"/><path class="st0" d="M603.4 3.2s.1.2 0 0z"/><path class="st0" d="M603.6 3.2c0-.2.1-.2.2-.2 0 .2-.1.2-.2.2z"/><path class="st0" d="M599 3.4c0-.2.2-.1 0 0z"/><path class="st0" d="M599.6 3.4c0-.2.1-.1.2-.2 0 .2-.1.1-.2.2z"/><path class="st0" d="M600.2 3.7c-.5.3-.1-.5 0 0z"/><path class="st0" d="M608 1.4c.1-.9.1.8 0 0z"/><path class="st0" d="M608.2 1.4c0-.1.1.1 0 0z"/><path class="st0" d="M608.7 1.1c.1 0 0 .3 0 0z"/><path class="st0" d="M595.5 2.9h.2v.4h-.2v-.4z"/><path class="st0" d="M598.7 3.9c-.1.1-.2.3-.3.4-.3-.3.2-1.2.3-.4z"/><path class="st0" d="M597.9 3.7c0-.1.1.1 0 0z"/><path class="st0" d="M599 3.4c0 .3-.3.2-.2.6-.3-.2-.4.1-.8 0 .2-.8.5-.3 1-.6z"/><path class="st0" d="M600.2 3.9v-.2c.1 0 .2.2 0 .2z"/><path class="st0" d="M602.3 3.7c0-.1.1.1 0 0z"/><path class="st0" d="M602.5 3.7c.3-.8.2.6 0 0z"/><path class="st0" d="M602.5 1.9c0-.2.1-.2.2-.2 0 .1-.1.1-.2.2z"/><path class="st0" d="M602.8 1.8c.1-.8-.1 1.3 0 0z"/><path class="st0" d="M603.3 1.6c0 .2.1.3.2.4 0 .3-.3.2-.4.2-.1-.3-.1-.7.2-.6z"/><path class="st0" d="M599.7 3.8c0-.2.1-.2.2-.2 0 .1-.1.1-.2.2z"/><path class="st0" d="M600.2 3.9c0 .6-.4-.1 0 0z"/><path class="st0" d="M603.7 3.8c-.1 0 0-.3 0 0z"/><path class="st0" d="M596.3 3.4s.1.1 0 0z"/><path class="st0" d="M603.8 4.1c0-.1.1.1 0 0z"/><path class="st0" d="M603.7 3.8c.1 0 .1.3 0 0z"/><path class="st0" d="M604 4c0-.1.1.1 0 0z"/><path class="st0" d="M607.3 3.1c-.2-.4-.7-.1-1.1-.2.2.3.4.4.8.4-1.5.1-2.3.4-4 0-.3-.1-.2.4-.3.6-.8-1 .8.1-.3-.2 0-.2.2-.3 0-.4 1.8-.4.7-.2 3.8-.8-.1-.3-.4-.4-.7-.4.5-.3 1.2-.3 1.8-.1-.2.6-.4-.3-.8 0 .4 1 .9.3 1.6.3-.1.7-.7.3-.8.8zm-4.1.4c0 .1-.1-.1 0 0z"/><path class="st0" d="M607.5 2c0-.3.6-.3.3.2.1-.1-.3-.2-.3-.2z"/><path class="st0" d="M601.8 4.4c.1-.7.1.7 0 0z"/><path class="st0" d="M602.2 4.4c-.1-.1.1.1 0 0z"/><path class="st0" d="M604.6 2.4c0-.1.1.1 0 0z"/><path class="st0" d="M608 2.2c-.1-.1 0 .2 0 0z"/><path class="st0" d="M608.5 2.2c0-.1.1.1 0 0z"/><path class="st0" d="M610.9 2.1c0-.1.1.1 0 0z"/><path class="st0" d="M617.9 1.3c.1.1.2.4.3.4 0 .5-.5.1-.7.2 0-.4.3-.2.4-.6z"/><path class="st0" d="M600.3 4.7c-.1-.1 0 .1 0 0z"/><path class="st0" d="M602.3 4.8c0-.3.1-.2 0 0z"/><path class="st0" d="M608.3 2.6c0-.1.1.2 0 0z"/><path class="st0" d="M608.7 2.6c0-.5.5-.1.8-.2-.1.4-.6.1-.8.2z"/><path class="st0" d="M610.2 2.5c0-.5.4-.1.6-.2 0 .5-.4.1-.6.2z"/><path class="st0" d="M613.4 2.4c0 .3-.2.2-.3 0 0-.3.2-.2.3 0z"/><path class="st0" d="M609.2 3c.1-.8.2.8 0 0z"/><path class="st0" d="M616.2 2.4c-.1-.1.1.2 0 0z"/><path class="st0" d="M618.1 2.3c.3-.8.2.7 0 0z"/><path class="st0" d="M607.3 3.1h.4c0 .3-.3.2-.2.6-.1-.1-.2-.3-.2-.6z"/><path class="st0" d="M607.9 3.3c0-.4.5-.3.3.2h-.2c0-.2-.1-.2-.1-.2z"/><path class="st0" d="M608.3 3.2s.1.2 0 0z"/><path class="st0" d="M609.6 3.2c0-.2.1-.2.2-.2 0 .2-.2.1-.2.2z"/><path class="st0" d="M617.4 2.4c.2-.1.1.3 0 0z"/><path class="st0" d="M594.5 4.8s.1.2 0 0z"/><path class="st0" d="M603.8 5.3s.1 0 0 0c.1.1 0 .2 0 0z"/><path class="st0" d="M609 3.2c-.2.7-.7-.2 0 0z"/><path class="st0" d="M611.6 3.3c0-.9.5 0 0 0z"/><path class="st0" d="M603.3 4.1c0-.2.2-.2.3-.2 0 .2-.2.2-.3.2z"/><path class="st0" d="M604 4.1c.3-.5-.3.7 0 0z"/><path class="st0" d="M605 4c.1-.8.1.9 0 0z"/><path class="st0" d="M605.9 4.6v-.2c-.2.1-.1.2 0 .2 0 .2-.2.2-.3.2-.1-.8.4-.3.3-1.1.2 0 .1.5.1.8l-.1.1z"/><path class="st0" d="M611.6 3.3c0 .2-.2.1 0 0z"/><path class="st0" d="M597.6 6.1s.1.2 0 0z"/><path class="st0" d="M599.2 6.1c0-.1.1.1 0 0z"/><path class="st0" d="M600.1 6c0-.1.1.1 0 0z"/><path class="st0" d="M597.5 6c-.4.2 0-.6 0 0z"/><path class="st0" d="M598.4 5.9s.1.2 0 0z"/><path class="st0" d="M604.4 4.3c-.1 0-.1-.3 0 0z"/><path class="st0" d="M606.5 4.2c-.1.1-.2 0-.2.2-.4-.1.2-.9.2-.2z"/><path class="st0" d="M607.1 4.1c-.1 0 .1.2 0 0z"/><path class="st0" d="M595.4 6.1c.1 0 .1-.3.3-.2 0 .2-.1.3-.1.6-.1-.1-.2-.3-.2-.4z"/><path class="st0" d="M596.9 5.6c0-.1.1.1 0 0z"/><path class="st0" d="M598.1 5.5s.1.2 0 0z"/><path class="st0" d="M597.5 6c.1.1.2.3.4.2.1.3-.5.3-.4-.2z"/><path class="st0" d="M602.7 4.6c0-.1.1-.2.1 0h-.1z"/><path class="st0" d="M604.4 4.3c.3 0-.1.8 0 0z"/><path class="st0" d="M602.8 4.2c.2-.1.2.2.4.2-.1.6-.2.6-.1 1.3h-.7c-.4-.2.2-.3.3-.2 0-.4-.1-.5-.3-.4 0-.3.2-.3.3-.4.1.3.1 0 0 0 .1-.2.1-.4.1-.5z"/><path class="st0" d="M608.8 4.3c-.1 0-.1-.3 0 0z"/><path class="st0" d="M612.1 3.9c0-.1.1.1 0 0z"/><path class="st0" d="M528.5 7.5c-.1 0 0-.3 0 0z"/><path class="st0" d="M595.1 6.1c.1-.1 0 .2 0 0z"/><path class="st0" d="M598.1 5.6c0-.1.1.1 0 0z"/><path class="st0" d="M602.7 4.6c0 .2-.2.1 0 0z"/><path class="st0" d="M602.8 4.6c.2-.1.1.3 0 0z"/><path class="st0" d="M603.3 5.4c-.2 0-.1-.6-.2-.6.1-.7.3.1.2.6z"/><path class="st0" d="M604.6 4.3c-.4.6-.7 1-1 1.3.2-.9.5-1.3 1-1.3z"/><path class="st0" d="M608.8 4.3c.4.3-.4.7 0 0z"/><path class="st0" d="M597.5 5.5c.8-.2 1.3.3 2-.1.9.5 1.6.2 2.1-.7-.3 1.4.4-.2.5 1.2-1.7.1-2.8.5-4.6-.2v-.2z"/><path class="st0" d="M610.8 4.3c-.1 0 .1.2 0 0z"/><path class="st0" d="M595.1 6.1c-.3.5-.4.3-.9.4.1-.7.6-.5.9-.4z"/><path class="st0" d="M596.8 6.2c.3-.5-.2.6 0 0z"/><path class="st0" d="M597.8 5.9c.1.1.2.2.3.2 0 .4-.2.4-.3.2v-.4z"/><path class="st0" d="M599.2 6.1h-.5c.1.3.5.2.6.5.7.2-1.3.4-1.2-.1.1-.6.3.2.5 0 0-.3-.2-.4-.4-.4.2-.7.6.1.9-.4 0 .1.1.2.1.4z"/><path class="st0" d="M603.5 5.2c.3-.8.4.6 0 0z"/><path class="st0" d="M610.9 4.6c.1.1.1.5.3.4 0 .8-.6 0-.3-.4z"/><path class="st0" d="M597.5 6.3c0-.2.1-.2.2-.2 0 .2-.1.2-.2.2z"/><path class="st0" d="M598 6.5v.4c-.3-.1-.4.1-.3.6-.2-.5 2.5-.5 2.2-.7 0-.2 0-.4-.2-.4 0-.1 0-.2.1-.2s.1 0 .1-.2c.1 0 .1.3.1.6.4 0-2.3-.1-2-.1z"/><path class="st0" d="M604.5 5.3c0-.1.1.1 0 0z"/><path class="st0" d="M605.9 5.3c-.1-.1 0 .1 0 0z"/><path class="st0" d="M609.5 5.3c0-.4.1-.5.3-.4 0 .2-.1.4-.3.4z"/><path class="st0" d="M610 5.1c.1-.4.2 0 .3 0 0 .3-.1 0-.3 0z"/><path class="st0" d="M594.5 6.4c0-.1.1.1 0 0z"/><path class="st0" d="M595.2 6.3c.1-.8.1.7 0 0z"/><path class="st0" d="M599.4 6.6c-.1.6-.4-.2-.6 0 .2-.6.3 0 .6 0z"/><path class="st0" d="M607 5.4c-.1-.1.1.1 0 0z"/><path class="st0" d="M608.1 5.4c0-.3.2-.2.3-.2 0 .2-.2.1-.3.2z"/><path class="st0" d="M605.1 5.5c0-.9.5-.1 0 0z"/><path class="st0" d="M611.5 5.2c-.1-.1.1.1 0 0z"/><path class="st0" d="M593.8 6.6c0-.4.4-.1.5-.2-.1.6-.3.6-.5.2z"/><path class="st0" d="M594.8 6.5c-.1-.1 0 .1 0 0z"/><path class="st0" d="M595.6 6.2h.4c.1.6-.2.4-.4.4v-.4z"/><path class="st0" d="M596.2 6.8c.1-.8.1.7 0 0z"/><path class="st0" d="M599.4 6.6c0-.1.1-.2 0 0 .1 0 .1 0 0 0z"/><path class="st0" d="M604 5.6c0-.1.1.1 0 0z"/><path class="st0" d="M609.5 5.3c-.1.6-.5-.2 0 0z"/><path class="st0" d="M592.9 6.8c.1.1.2.2.2 0 .4.2-.3.8-.2 0z"/><path class="st0" d="M593.5 7c0-.1.1.1 0 0z"/><path class="st0" d="M596.5 6.8c.1.6-.1 1.7.3 1.7-.1.3-.3.3-.5.4.1-.7 0-1.3-.3-1.3 0-.7.4-.1.5-.8z"/><path class="st0" d="M599.7 7.2c.1.5-.5-.1-.4.4-.1.3-.4.4-.2.8-.2 0-.3.3-.6.2.1-.5.4-.7.5-1.2-.1-.6-.5.3-.6-.2.2-1.2.8.3 1.3 0z"/><path class="st0" d="M599.5 6.6c.2-.1.2.2.4.2 0 .2-.1.3-.1.6-.1 0-.1-.2-.2-.2.1-.3 0-.4-.1-.6z"/><path class="st0" d="M604.8 5.8c-.1-.1.1.1 0 0z"/><path class="st0" d="M605.1 5.5c0 .3-.1.2 0 0z"/><path class="st0" d="M594.9 7.2c-.2 0-.1.5-.2.6-.1-.3-.1 0 0 0v.4c-.1 0-.2 0-.2-.4-.1 0-.1.2-.2.2-.1-.6-.3.3-.5 0v-.4c.1 0 .1-.2.2-.2.2.7.2-.4.4-.2 0 .2-.1.2-.1.4.2 0 .2-.2.4-.2 0-.4-.3-.4-.5-.4.1-.5.6-.4.7 0v.2z"/><path class="st0" d="M597.5 7.6v-.4c.3-.4.6-.6.7.3-.2-.3-.4-.1-.7.1z"/><path class="st0" d="M599.7 6.8c0-.2.2-.2.3-.2 0 .2-.2.2-.3.2z"/><path class="st0" d="M609.3 5.8c-.1-.1.1.1 0 0z"/><path class="st0" d="M593.3 7.4c0-.1.1.1 0 0z"/><path class="st0" d="M593.6 7.3c-.1 0-.1-.1 0-.2v.2z"/><path class="st0" d="M594.3 7.1c0-.1.1-.2.1 0h-.1z"/><path class="st0" d="M595 7.2c.1-.6.6-.3.9-.2 0 .6-.2.3-.4.2-.1 1.7.3 1 .5 1.9-.5-.2-.8.2-1.3-.1.1-.6.3-.3.4 0 .4-.4.4-1.8-.1-1.8z"/><path class="st0" d="M597.5 7.6c0 .1.1.2.2.2-.3.6-.5.1-.8.6 0-.5.5-1.2-.1-.9-.1-.6.3-.3.5-.4 0 .4-.1.4-.1.8.2 0 .2-.1.3-.3z"/><path class="st0" d="M597.5 7.3c-.1 0 0-.3 0 0z"/><path class="st0" d="M598.1 6.9c.1.5 1-.3.9.5-.5-.1-.7 0-1-.1 0-.2 0-.2.1-.4z"/><path class="st0" d="M602.4 6.7c-.2-.4-.3.1-.7 0 0-.5.9-1 .7 0z"/><path class="st0" d="M602.8 6.3c0-.2.1-.2.2-.2 0 .1-.1.1-.2.2z"/><path class="st0" d="M603.9 6.2c-.2-.1-.2.2-.3.2.1.6.2.3.3 0 0 1.2-.9.4-1 .5.4-.2.4-1 1-.9v.2z"/><path class="st0" d="M607.6 5.8c-.1-.1.1.1 0 0z"/><path class="st0" d="M609.7 5.7c0-.1.1.1 0 0z"/><path class="st0" d="M600 7.3c0-.2.2-.2.2 0-.1.3-.1 0-.2 0z"/><path class="st0" d="M599.8 7.2c-.2.3-.3.1-.7.2.1-.3.5-.5.7-.2z"/><path class="st0" d="M600.2 5.8c0-.8-.1 1.3 0 0z"/><path class="st0" d="M600.6 5.8c0-.2.1-.2.2-.2.1.2-.1.2-.2.2z"/><path class="st0" d="M603.9 6.4v-.2c.1 0 .1.2 0 .2z"/><path class="st0" d="M594.9 7.2h.1c0 .1-.1.2-.1 0z"/><path class="st0" d="M600.7 6.9c-.4-.2-.8 0-1.2-.4.1-.8-.4-.3-.7-.4-.2-.4 1-.2 1.3-.3-.2 1 .4.4.6.8-.1.1-.1.2 0 .3zm-.8-.6c.1.8.1-.9 0 0z"/><path class="st0" d="M604.1 5.7c.3-.1.4.5.2.8-.1-.1-.2-.5-.2-.8z"/><path class="st0" d="M605.2 5.8c.2-.8.2.8 0 0z"/><path class="st0" d="M599.2 7.6c.1 0 .2.3.3 0 .4.3-.2.4-.2.8-.1-.1 0-.5-.1-.8z"/><path class="st0" d="M601.2 6.8c-.4 0 0-.6-.2-.6 0-.5.4-.1.6-.2 0 .2-.2.2-.3.2-.1.2-.1.4-.1.6z"/><path class="st0" d="M595.1 7.8c.3-.5-.3.6 0 0z"/><path class="st0" d="M600.2 7.9c-.1-.1 0 .1 0 0z"/><path class="st0" d="M599.5 7.6c0 .4-.1.5-.1.8-.1-.1-.2-.3-.3-.4 0-.3.2-.4.4-.4z"/><path class="st0" d="M599.6 7.8c-.1-.1.1.1 0 0z"/><path class="st0" d="M600.2 7.9v-.2c-.1.1-.1.2 0 .2 0 .3-.1.5-.2.6-.1-.3-.1 0 0 0 .1.7-.4 0-.5.6-.1 0-.1 0-.1-.2v-.4c.1 0 .1 0 .1.2.1 0 .1-.3.2-.4.1.3.1 0 0 0v-.4c.2 0 .4 0 .3-.4.2 0 .4 0 .3.4h-.1z"/><path class="st0" d="M599.1 6.5c-.2.1-.1-.3 0 0z"/><path class="st0" d="M599.4 6.5c0 .3-.3.3-.3 0 .1-.1.2-.2.3 0z"/><path class="st0" d="M609.6 5.8c.3-.2.3.3.6.2-.1.6-.4.7-.7.5.1-.2.1-.4.1-.7z"/><path class="st0" d="M611.6 5.7c0-.1.1.1 0 0z"/><path class="st0" d="M595 8.2c0-.1.1-.2.1 0h-.1z"/><path class="st0" d="M599 7.8c-.1.2-.1.3 0 .4 0 .6-.5-.5-.4.4-.1-.2-.4 0-.3-.6.3.2.4-.3.7-.2z"/><path class="st0" d="M601.8 6.6c-.2 0-.1-.3 0 0z"/><path class="st0" d="M606.5 6.4c-.3.8-.4-.6 0 0z"/><path class="st0" d="M612.3 5.9c-.2.6-.4-.8 0 0z"/><path class="st0" d="M613.6 5.6c.3 0-.1.9 0 0z"/><path class="st0" d="M595 8.2v.6c-.2.2-.4.3-.6.4 0-.5.4-.6.6-1z"/><path class="st0" d="M593.8 8v.2c-.1 0-.1-.1 0-.2z"/><path class="st0" d="M594.2 8.2c0-.1 0-.2.1-.2 0 .1 0 .2-.1.2z"/><path class="st0" d="M595.7 8.1c.1-.7.1.8 0 0z"/><path class="st0" d="M600 8.3c-.3.7-.4-.6 0 0z"/><path class="st0" d="M597.9 8.2c0-.2.1-.2.2-.2 0 .2-.2.2-.2.2z"/><path class="st0" d="M601.2 6.8c.2-.1.2-.3.3 0 0 .3-.3.3-.3 0z"/><path class="st0" d="M605.1 6.7c0-.3.2-.2.2 0 0 .3 0-.1-.2 0z"/><path class="st0" d="M606.1 6.4c0-.1.1.1 0 0z"/><path class="st0" d="M606.4 6.3c0-.2.1-.2.2-.2 0 .2-.1.2-.2.2z"/><path class="st0" d="M609 6c.1 0 0 .3 0 0z"/><path class="st0" d="M594.1 8.4c0-.1 0-.2.1-.2 0 .1 0 .2-.1.2z"/><path class="st0" d="M596.1 8.3c0-.1.1.1 0 0z"/><path class="st0" d="M597.2 8.6c0-.2.2-.2.3-.2 0 .2-.2.2-.3.2z"/><path class="st0" d="M598 8.4v.2c-.1 0-.2-.2 0-.2z"/><path class="st0" d="M599 8.3c.2 0 .1.3 0 0z"/><path class="st0" d="M597.3 8.5c-.1-.1 0 .1 0 0z"/><path class="st0" d="M599.4 7.1c0-.2.2-.1 0 0z"/><path class="st0" d="M599.8 7.1c0-.3.2-.2.2 0-.1.3-.1 0-.2 0z"/><path class="st0" d="M600.7 6.9c.4-.3 0 .6 0 0z"/><path class="st0" d="M603.2 7c0-.1.1.1 0 0z"/><path class="st0" d="M608.2 6.7c-.1-.1 0 .2 0 0z"/><path class="st0" d="M610.5 6.6c0-.1.1.1 0 0z"/><path class="st0" d="M598 8.6h.1c0 .2.1.2.1.4-.1.1 0 .2 0 0 .2-.3.1 0 .4 0-.2.5-.4 1-.6.4-.1-.3-.1-.5 0-.8z"/><path class="st0" d="M599.4 7.1c0 .3-.2.2 0 0z"/><path class="st0" d="M605.8 7c.3-.5 1-.5 1.1.4-.3-.3-.7-.2-1.1-.4z"/><path class="st0" d="M597.7 9c0-.1.1.1 0 0z"/><path class="st0" d="M598.9 8.9c.3-.5-.3.7 0 0z"/><path class="st0" d="M599.6 7.5s.1.2 0 0z"/><path class="st0" d="M600.8 7.5c-.1-.1 0 .1 0 0z"/><path class="st0" d="M602.7 7.4c.2.2.3.2.3-.2.5.3-.4 1.2-.3.2z"/><path class="st0" d="M604.4 7.3c0-.2.1-.2.2-.2 0 .2-.1.2-.2.2z"/><path class="st0" d="M607.7 7.2c0-.1.1.1 0 0z"/><path class="st0" d="M610 7.1c-.3.5-.5 0-1 .3 0-.8.8-.6 1-.3z"/><path class="st0" d="M596.9 9.3c-.3.6-.3-1 0 0z"/><path class="st0" d="M596.7 9.2c0-.2.2-.1 0 0z"/><path class="st0" d="M601.9 7.6c0-.2.1-.2.2-.2 0 .2-.1.2-.2.2z"/><path class="st0" d="M600.2 8.9c0-.1.1.1 0 0z"/><path class="st0" d="M599 7.8c-.1-.1 0 .1 0 0z"/><path class="st0" d="M601.2 7.7c0-.2.2-.2.3-.2 0 .2-.1.1-.3.2z"/><path class="st0" d="M608.5 7.3c0 .3-.1.4-.3.4 0-.2.2-.3 0-.4 0-.3.2-.1.3 0z"/><path class="st0" d="M608.5 7.3c0-.2.2-.3.2 0h-.2z"/><path class="st0" d="M605.8 7c0 .2.1.2.1.4-.2 0 4.8 0 4.7-.2.1-.2-4.9-.2-4.8-.2z"/><path class="st0" d="M608.2 7.3c-.1.5-.6.4-1 .5.2-.4 0-.3 0-.8.3-.1.6-.1.4.6.1-.4.4-.7.6-.3zm-.8 0c.1.9.1-.8 0 0z"/><path class="st0" d="M608.2 7.3c0-.8.5 0 0 0z"/><path class="st0" d="M610.5 7c0-.1.1.1 0 0z"/><path class="st0" d="M594.4 9.2c0-.1.1.1 0 0z"/><path class="st0" d="M596.4 9.4c-.1 0 0-.3 0 0z"/><path class="st0" d="M596.7 9.2c0 .2-.1.1 0 0z"/><path class="st0" d="M597.3 9.4c.1-.8.2.7 0 0z"/><path class="st0" d="M599.2 9.1c0-.1.1.1 0 0z"/><path class="st0" d="M606.5 7.6c.4-.5-.3.8 0 0z"/><path class="st0" d="M608.8 7.3c.1 0 0 .3 0 0z"/><path class="st0" d="M610.1 7.5c0-.2.1-.2.2-.2 0 .1-.1.1-.2.2z"/><path class="st0" d="M596.4 9.4c.1 0 .1.3 0 0z"/><path class="st0" d="M596.9 9.6c.2-.7.3.7 0 0z"/><path class="st0" d="M597.5 9.5c0-.2.2-.2.3-.2 0 .3-.1.2-.3.2z"/><path class="st0" d="M598 9.3c.1.8-.3.1 0 0z"/><path class="st0" d="M604.5 8.2c-.6.3-1.4.2-1.8.3.5-.6 1.4-.9 1.8-.3z"/><path class="st0" d="M607.5 7.8c0-.3.6-.3.3.2.1-.1-.3-.2-.3-.2z"/><path class="st0" d="M605.9 7.4c.2 0 .1.3 0 0z"/><path class="st0" d="M609.4 7.5c-.1 0-.1-.3 0 0z"/><path class="st0" d="M609.6 7.4s.1.2 0 0z"/><path class="st0" d="M611.3 7.4c0-.1.1.1 0 0z"/><path class="st0" d="M612.2 7.1c.1 0 .1.4.2.4 0 .6-.3 0-.2-.4z"/><path class="st0" d="M613.9 7.2s.1.2 0 0z"/><path class="st0" d="M595.3 9.7c-.1-.1 0 .1 0 0z"/><path class="st0" d="M595.7 9.7c0-.2.1-.2.2-.2 0 .2-.2.2-.2.2z"/><path class="st0" d="M596.1 9.7c0-.7-.2 1.4 0 0z"/><path class="st0" d="M594.3 9.6c0 .4-.4.1-.6.2.2-.3.5-.4.6-.2z"/><path class="st0" d="M594.3 9.6c.1-.6.6.2 0 0z"/><path class="st0" d="M594.7 9.6c0-.1.1.1 0 0z"/><path class="st0" d="M594.4 9.5c.1-.6.3.7 0 0z"/><path class="st0" d="M595.2 9.5c0-.1.1.1 0 0z"/><path class="st0" d="M596.7 9.8c0-.1.1.1 0 0z"/><path class="st0" d="M604.5 8.2c-.1-.4.5-.3.3.2h-.2c0-.2 0-.3-.1-.2z"/><path class="st0" d="M605.9 8.1c0-.2.1-.2.2-.2.1.2-.1.1-.2.2z"/><path class="st0" d="M606.4 7.8c0-.4.4-.1.6-.2 0 .4-.5.1-.6.2z"/><path class="st0" d="M608.7 7.7c0-.1.1.1 0 0z"/><path class="st0" d="M609.4 7.5c.3 0-.1.8 0 0z"/><path class="st0" d="M610 7.6c0-.2.1-.2.2-.2 0 .2-.1.2-.2.2z"/><path class="st0" d="M610.8 7.6c0-.2.1-.2.2-.2 0 .2-.2.1-.2.2z"/><path class="st0" d="M611.8 7.6c-.1-.1 0 .1 0 0z"/><path class="st0" d="M597.2 9.7c.3.1.2.1.5 0 .1.8-.5.7-.5 0z"/><path class="st0" d="M597.3 9.8c0-.2.2-.2.2 0h-.2z"/><path class="st0" d="M605.2 8.3c0-.2.2-.2.3-.2 0 .2-.2.2-.3.2z"/><path class="st0" d="M609.4 8.1c0-.2.1-.2.2-.2 0 .2-.1.2-.2.2z"/><path class="st0" d="M610.8 8.1c-.1-.1.1.1 0 0z"/><path class="st0" d="M609.6 7.9c0-.2.1-.2.2-.2.1.2-.1.1-.2.2z"/><path class="st0" d="M611.6 7.8c-.1-.1 0 .1 0 0z"/><path class="st0" d="M612.6 7.7c0-.2.1-.2.2-.2 0 .2-.2.2-.2.2z"/><path class="st0" d="M603.5 8.8c-.4 0 .1-.8 0 0z"/><path class="st0" d="M608.9 8.1c-.1-.1 0 .2 0 0z"/><path class="st0" d="M610.5 8c0-.1.1.2 0 0z"/><path class="st0" d="M592.9 10.6h-.1c0-.2 0-.4.2-.4 0 .2 0 .2-.1.4z"/><path class="st0" d="M595 10c.1-.7.1.8 0 0z"/><path class="st0" d="M598.1 10.3c-.1-.3.1-.1 0 0z"/><path class="st0" d="M599.2 10.1c-.4.2 0-.6 0 0z"/><path class="st0" d="M604.5 8.8c-.1-.1.1.1 0 0z"/><path class="st0" d="M606.7 8.7c0-.1.1.1 0 0z"/><path class="st0" d="M608.5 8.6c.7-.5 1 .6 0 0z"/><path class="st0" d="M605.1 8.8c.1 0 .1.4.2.4-.1.5-.4 0-.2-.4z"/><path class="st0" d="M605.6 8.9c0-.2.2-.1 0 0z"/><path class="st0" d="M605.9 8.9c0-.1.1.2 0 0z"/><path class="st0" d="M606.4 8.9c0-.3.2-.1 0 0z"/><path class="st0" d="M609.4 8.8c0-.1.1.1 0 0z"/><path class="st0" d="M609.7 8.7c-.1 0 0 .2 0 0z"/><path class="st0" d="M607.4 8.6c0-.2.2-.2.3-.2 0 .2-.2.2-.3.2z"/><path class="st0" d="M607.8 8.6c0-.1.1.1 0 0z"/><path class="st0" d="M529.4 12.4c.1-.8.1.7 0 0z"/><path class="st0" d="M592.8 10.6c0 .1 0 .2 0 0-.1 0 0 0 0 0z"/><path class="st0" d="M593.4 10.4c.4-.2.1.6 0 0z"/><path class="st0" d="M593.8 10.6c0-.1.1.1 0 0z"/><path class="st0" d="M605.6 8.9c.1.4.7.2.8 0 .2 0 1 .5 1.3.1.2.8-2.9.8-2.1-.1z"/><path class="st0" d="M609 9.2c0 .6-1 .4-1-.2.3-.1.6.2 1 .2z"/><path class="st0" d="M606.5 9.1c0-1 .4-.1 0 0z"/><path class="st0" d="M606.8 8.8s.1.2 0 0z"/><path class="st0" d="M608.4 8.6c.2.1.2.3.1.6 1.5-.1 2.1-.1 3 .1-.2.9-1.2.2-1.5.1-1-.4-2.5 1.2-3-.3.5-.1 1.3.5 1.4-.5z"/><path class="st0" d="M609.1 9.4c0-.5.5-.1.7-.2.3.1-.8.4-.2 1.1-.3.7-.2-.9-.5-.9z"/><path class="st0" d="M610 9.4c.1-.4.9-.5.7.4-.3-.6-.5-.2-.7-.4z"/><path class="st0" d="M606.5 9.1c.1.7 4.2.5 4.3.5-.1-.9-4.6-.4-4.3-.5z"/><path class="st0" d="M613 8.8c.7.9-1.1 1.2-1.2.9.1-1.5 1.1.6 1.2-.9z"/><path class="st0" d="M613.6 8.9c0-.2.2-.2.3-.2 0 .3-.2.2-.3.2z"/><path class="st0" d="M600 10.8c.4.4-.5.7-.4 0h.4z"/><path class="st0" d="M602.8 10.8c-.1 0 0 .2 0 0z"/><path class="st0" d="M603.3 10.8c-.1-.1 0 .1 0 0z"/><path class="st0" d="M603.8 10.8c-.1-.1 0 .1 0 0z"/><path class="st0" d="M603.5 9.7h.2v.4h-.2v-.4z"/><path class="st0" d="M614.4 9.3c-.1 0-.1.1-.1.2-.4-.1.2-1.2.1-.2z"/><path class="st0" d="M594.8 11.3c-.1-.1 0 .1 0 0z"/><path class="st0" d="M595.6 11c-.2.7-.4 0-.6.4 0 .5.5-.1.3.6-.2-.1-.4-.2-.5-.5.1-.6.5-.5.8-.5z"/><path class="st0" d="M599.9 11.3c0-.1.1-.2.1 0h-.1z"/><path class="st0" d="M597.6 11.3c.5-.1-.8.1 0 0z"/><path class="st0" d="M604 11c-.1-.1 0 .1 0 0z"/><path class="st0" d="M605.1 10c.2-.8.1.7 0 0z"/><path class="st0" d="M596.8 11.4v.2c-.1-.1-.1-.2 0-.2z"/><path class="st0" d="M594.4 11.3c0 .6-.4-.2 0 0z"/><path class="st0" d="M594 11.6c.2-.3.6-.5.7 0 0 .4-.6.2-.7 0z"/><path class="st0" d="M596.1 11.3c0-.1.1.1 0 0z"/><path class="st0" d="M599.8 11.3h.1c0 .1-.1.2-.1 0z"/><path class="st0" d="M600 11.3c.1 0 .1.3 0 0z"/><path class="st0" d="M601.5 11.3c.2-.8.2.7 0 0z"/><path class="st0" d="M605.2 11.1c0-.1.1.1 0 0z"/><path class="st0" d="M605.6 11.1c0-.2.1-.1.2-.2 0 .2-.1.1-.2.2z"/><path class="st0" d="M607.2 10.8c0-.1.1.1 0 0z"/><path class="st0" d="M613.5 9.6c0-.3.3-.2.4-.2 0 .2-.3.1-.4.2z"/><path class="st0" d="M614.4 9.5v-.2c.2 0 .3.2.3.4-.1 0-.2-.1-.3-.2z"/><path class="st0" d="M596.8 11.5h.2c-.3.6-.9 1-1 .4 0-.5.8.2.8-.4z"/><path class="st0" d="M593.7 11.5c0 .6-.4-.2 0 0z"/><path class="st0" d="M593.8 11.6c-.6.3-.2-.6 0 0z"/><path class="st0" d="M597.8 11.6c.1.6-.2.3-.2 0h.2z"/><path class="st0" d="M599.3 11.7c-.1.4-.6.1-.8.2.1-.4.6-.5.8-.2z"/><path class="st0" d="M599.4 11.6c0-.1.1.1 0 0z"/><path class="st0" d="M599.6 11.6c0-.4.4-.1.5-.2 0 .4-.3.1-.5.2z"/><path class="st0" d="M600.8 11.5c0-.2.1-.2.2-.2 0 .2-.1.2-.2.2z"/><path class="st0" d="M601.2 11.5c0-.1.1.1 0 0z"/><path class="st0" d="M601.9 11.5c.2-.8.2.7 0 0z"/><path class="st0" d="M603.7 11.4c-.1-.1 0 .1 0 0z"/><path class="st0" d="M610.2 11.1c-.1-.1 0 .1 0 0z"/><path class="st0" d="M614.3 9.5h.1c0 .1-.1.3-.1 0z"/><path class="st0" d="M594.5 11.8c.6-.4.9.6 0 0z"/><path class="st0" d="M593.8 11.6h.2c0 .2-.2.3-.2 0z"/><path class="st0" d="M595.9 11.7c.4-.5-.2.7 0 0z"/><path class="st0" d="M598.3 11.8c0-.2.1-.2.2-.2 0 .2-.1.2-.2.2z"/><path class="st0" d="M604.2 11.5c.1-.5.5.2 0 0z"/><path class="st0" d="M604.7 11.3c.2.1.1 1-.2.8 0-.4.3-.3.2-.8z"/><path class="st0" d="M606.1 11.4s.1.2 0 0z"/><path class="st0" d="M614.7 9.7c.2 0 .1.3 0 0z"/><path class="st0" d="M593.9 12.4h-.3c0-.6.5-.5.8-.6.1.6-.4.2-.5.6z"/><path class="st0" d="M595.5 11.9c0-.1.1.1 0 0z"/><path class="st0" d="M597.5 12.2c0-.1.1-.2.1 0h-.1z"/><path class="st0" d="M602.5 11.8c-.1-.1 0 .1 0 0z"/><path class="st0" d="M610.4 11.2c0-.8-.1 1.1 0 0z"/><path class="st0" d="M597.2 12.1c.3.1-.1.4 0 .8-.2.1-.2-.1-.2-.4-.1 0-.1.1-.1.2-.4-.4.3-.3.3-.6z"/><path class="st0" d="M599.3 12c-.4.6-.9-.2 0 0z"/><path class="st0" d="M600.1 11.9c.2.3.3-.2.6 0 0 .2-.6.8-.6 0z"/><path class="st0" d="M602.1 12c-.1-.1 0 .1 0 0z"/><path class="st0" d="M610.5 11.6c-.3.6-.5-.5 0 0z"/><path class="st0" d="M610.7 11.6c-.1-.1.1.1 0 0z"/><path class="st0" d="M611 11.6c0-.1.1.1 0 0z"/><path class="st0" d="M607.4 11.5c-.1 0-.1.3-.3.2 0-.2.1-.4.3-.4v.2z"/><path class="st0" d="M608.7 11.7c-.2 0-.4 0-.3-.4h.2c0 .1 0 .2.1.2v.2z"/><path class="st0" d="M608.8 11.3c.5 0 0 1.1 0 0z"/><path class="st0" d="M609.9 11.8c.1-.1.1-.4.2-.6.1 0 .1.3.2.4-.1.3-.2.4-.4.4v-.2z"/><path class="st0" d="M604.1 12.1c0-.6.4.2 0 0z"/><path class="st0" d="M607.1 11.7c-.1.5 4.3 0 4.1 0 0-.4-4.2-.1-4.1 0z"/><path class="st0" d="M607.4 11.5c.2.1.8-.4.7.3-.1-.3-.6.9-.7-.3z"/><path class="st0" d="M609.4 11.6c-.1-.2.1-.1 0 0z"/><path class="st0" d="M610.7 11.8c-.1-.8.3-.1 0 0z"/><path class="st0" d="M611.9 11.3c.2.1 0 .3 0 .6-.2-.1 0-.4 0-.6z"/><path class="st0" d="M612.3 11.5c0-.2.1-.1.2-.2 0 .2-.1.1-.2.2z"/><path class="st0" d="M595.5 12.9v-.4h.3c0 .2-.1.3-.1.6-.1 0-.1-.1-.2-.2z"/><path class="st0" d="M596 12.7c0-.2.1-.2.2-.2 0 .2-.1.2-.2.2z"/><path class="st0" d="M596.6 12.7c0-.1.1.1 0 0z"/><path class="st0" d="M593.9 12.4c.2 0 .4 0 .3.4h-.3c.1-.1 0-.2 0-.4z"/><path class="st0" d="M594.5 12.6c-.1-.1 0 .1 0 0z"/><path class="st0" d="M605.9 12.2c0-.2.1-.1.2-.2 0 .2-.1.2-.2.2z"/><path class="st0" d="M607.7 11.9c-.1.3-.3.3-.5.4.1-.4.3-.4.5-.4z"/><path class="st0" d="M609.5 12c.2-.7.1.7 0 0z"/><path class="st0" d="M608.7 11.7c.1-.1 0 .2 0 0z"/><path class="st0" d="M609.3 11.8c0-.1 0-.2.1-.2 0 .1-.1.3-.1.2z"/><path class="st0" d="M609.9 11.8c-.2 0-.1-.3 0 0z"/><path class="st0" d="M608.1 11.9c.2 0 .1.3 0 0z"/><path class="st0" d="M609.3 11.8c0 .3-.2.1 0 0z"/><path class="st0" d="M610.7 11.8c0 .2-.2.1 0 0z"/><path class="st0" d="M611.6 11.9c0-.1.1.1 0 0z"/><path class="st0" d="M609.6 12.4c.1-.8.1.7 0 0z"/><path class="st0" d="M610.6 12.3c.1-.7.1.8 0 0z"/><path class="st0" d="M614.2 12.5s.1.2 0 0z"/><path class="st0" d="M613.1 12.8c0-.1.1.1 0 0z"/><path class="st0" d="M613.8 12.7c0-.2.1-.1.2-.2 0 .2-.1.2-.2.2z"/><path class="st0" d="M602.8 13.7c.1-.7.1.8 0 0z"/><path class="st0" d="M603 13.7c.1-.8.1.7 0 0z"/><path class="st0" d="M602.1 13.9s.1.2 0 0z"/><path class="st0" d="M603.3 13.9c0-.2.2-.2.3-.2 0 .2-.1.1-.3.2z"/><path class="st0" d="M604.2 13.8s.1.2 0 0z"/><path class="st0" d="M606.2 13.7c-.1 0 0 .2 0 0z"/><path class="st0" d="M610 13c.5.4.8-.2 1.4-.1.1.3-.6.1-.2.4-.1 0-1.1.3-1.2-.3z"/><path class="st0" d="M611.5 13.1c0-.1.1.1 0 0z"/><path class="st0" d="M609 13.8c.1-.8.1.7 0 0z"/><path class="st0" d="M608.1 13.4h.2v.4h-.2v-.4z"/><path class="st0" d="M599.3 14.2c0-.4.5-.1.7-.2-.1.4-.5.1-.7.2z"/><path class="st0" d="M601.9 14.1c-.1 0-.1-.3 0 0z"/><path class="st0" d="M608.5 14c0-.1.1.1 0 0z"/><path class="st0" d="M611.9 13.9c-.1-.1 0 .1 0 0z"/><path class="st0" d="M597 14.7c-.1-.7.4-.3.6-.4 0 .8-.4-.1-.6.4z"/><path class="st0" d="M601 14.3c0-.2.1-.2.2-.2 0 .2-.1.2-.2.2z"/><path class="st0" d="M601.9 14.1c.1 0 .1 0 .1.2-.1 0-.1-.1-.1-.2z"/><path class="st0" d="M610 13.9c-.4.2 0-.6 0 0z"/><path class="st0" d="M600.8 14.5c-.1-.1.1.1 0 0z"/><path class="st0" d="M602 14.3c.8-.3.3.5 0 0z"/><path class="st0" d="M604 14.4c0-.2.1-.3 0 0 .1 0 .1 0 0 0z"/><path class="st0" d="M604.1 14.3c.2-.3.6.1 1 0 0 .3-.3.2-.2.6-.1-.8-.6.2-.8-.6z"/><path class="st0" d="M606.3 14.2c0-.2.1-.1 0 0z"/><path class="st0" d="M604.7 13.9c.1 0 .1 0 .1.2 0 0-.1 0-.1-.2z"/><path class="st0" d="M611.3 14c0-.2.1-.2.2-.2 0 .2-.2.2-.2.2z"/><path class="st0" d="M598.9 14.8c-.1-.1 0 .1 0 0z"/><path class="st0" d="M599.1 14.8c-.1-.1 0 .1 0 0z"/><path class="st0" d="M602.9 14.6c0-.1.1.1 0 0z"/><path class="st0" d="M603.1 14.6c0-.2.1-.2.2-.2 0 .2-.1.1-.2.2z"/><path class="st0" d="M604 14.4c-.1.3-.5.4-.6.2 0-.4.5-.1.6-.2z"/><path class="st0" d="M605.3 14.5c-.1-.1 0 .1 0 0z"/><path class="st0" d="M604.8 14.1c.5-.2.1.6 0 0z"/><path class="st0" d="M602.1 14.6c0-.1.1.1 0 0z"/><path class="st0" d="M608.7 14.1c.1.1.2.3.3.4 0 .4-.4 0-.3-.4z"/><path class="st0" d="M591.1 16.5c-.4.2 4.1-.8 4.1-.2l-4.1.2z"/><path class="st0" d="M600.9 15.1c0-.2.2-.2.3-.2 0 .2-.2.1-.3.2z"/><path class="st0" d="M605.1 14.9c-.1-.1 0 .1 0 0z"/><path class="st0" d="M607.4 14.5c-.1 0 .1.2 0 0z"/><path class="st0" d="M609.6 14.6c0-.1.1.1 0 0z"/><path class="st0" d="M609.8 14.6c0-.2.1-.2.2-.2 0 .2-.1.2-.2.2z"/><path class="st0" d="M528.8 17.7c0-.1.1.1 0 0z"/><path class="st0" d="M604.7 15s.1.2 0 0z"/><path class="st0" d="M607.2 14.9c-.1 0 .1.1 0 0z"/><path class="st0" d="M603.6 15.3c.1-.5.4.1.3.6-.2-.1 0-.7-.3-.6z"/><path class="st0" d="M605.9 15.2c.1-.8.1.7 0 0z"/><path class="st0" d="M606.1 15.2c0-.2.1-.2.2-.2 0 .2-.1.1-.2.2z"/><path class="st0" d="M604.3 15.4c-.4.2 0-.5 0 0z"/><path class="st0" d="M604.3 15.4c.3 0 .2-.3.4 0 0 .2-.4.8-.4 0z"/><path class="st0" d="M528.9 18.1h.3c.1.6-.3.2-.2.8-.1-.1-.1-.5-.1-.8z"/><path class="st0" d="M605.3 15.4c0 .3-.2.4-.4.4-.2-.6.2-.4.4-.4z"/><path class="st0" d="M605.5 15.4c.2-.1.3 0 .3.4h-.3v-.4z"/><path class="st0" d="M606.2 15.5c-.2.1-.1-.2 0 0z"/><path class="st0" d="M607.6 15.7c-.5.2-.2-.9 0 0z"/><path class="st0" d="M606.2 15.5c.1 0 0 .3 0 0z"/><path class="st0" d="M606.5 15.7c0-.2.1-.1.2-.2 0 .2-.1.2-.2.2z"/><path class="st0" d="M606.9 15.7c0-.2.1-.2.2-.2 0 .2-.1.1-.2.2z"/><path class="st0" d="M607.7 15.7c0-.1.1.1 0 0z"/><path class="st0" d="M598.9 16.5c0-.2.2-.2.2 0h-.2z"/><path class="st0" d="M609.3 15.8c0-.2.2-.2.2 0s-.1-.1-.2 0z"/><path class="st0" d="M601.2 16.6c0-.1.1.1 0 0z"/><path class="st0" d="M601.9 16.5s.1.2 0 0z"/><path class="st0" d="M603.7 16.2s.1.1 0 0z"/><path class="st0" d="M605.2 16.8c0 .4-.4.1-.6.2.1-.7.2-.1.6-.2z"/><path class="st0" d="M605.4 16.7c0-.2.1-.1 0 0z"/><path class="st0" d="M604.4 17.4c-.1-.1 0 .1 0 0z"/><path class="st0" d="M604.6 17.4c-.1-.1 0 .1 0 0z"/><path class="st0" d="M605.9 16.9h.2c.1.4-.1.4-.3.4 0-.2.1-.2.1-.4z"/><path class="st0" d="M606.2 17.1c0-.2.1-.2.2-.2 0 .1-.1.1-.2.2z"/><path class="st0" d="M608.7 16.9c-.1.1 0-.2 0 0z"/><path class="st0" d="M608.7 16.9c.1 0 .1.3 0 0z"/><path class="st0" d="M605.4 17.5c-.1-.1 0 .1 0 0z"/><path class="st0" d="M602.3 18c-.1-.9.5.2 0 0z"/><path class="st0" d="M602.6 18c0-.2.1-.2.2-.2 0 .2-.1.1-.2.2z"/><path class="st0" d="M602.9 18.2h.2v.4h-.2v-.4z"/><path class="st0" d="M606.3 18.2c0-.1.1.1 0 0z"/><path class="st0" d="M607.1 18.1c.2-.7.2.5.5.2 0 .4-.4.1-.6.2 0-.2.1-.2.2-.2 0-.1 0-.1-.1-.2z"/><path class="st0" d="M607.7 17.9c.4-.1.6.3.7 0 .3.1-.1.4 0 .8-.1-.3-.4-.2-.7-.2v-.6z"/><path class="st0" d="M602.5 18.6c0-.2.1-.2.2-.2 0 .1-.1.1-.2.2z"/><path class="st0" d="M603.5 18.5c0-.2.1-.2.2-.2 0 .2-.2.2-.2.2z"/><path class="st0" d="M604.5 18.5c-.1-.1 0 .1 0 0z"/><path class="st0" d="M605.1 18.4c-.1 0 0 .2 0 0z"/><path class="st0" d="M596.8 19.2c.1 0 .1.3.1.6-.3-.2-.3.1-.5-.2 0-.5.5.1.4-.4z"/><path class="st0" d="M598.6 19.5c-1.7.5-2.4 0-4.6.2 1.5-.9 3.2-.3 4.6-.4v.2z"/><path class="st0" d="M605.6 18.6c-.1-.1.1.1 0 0z"/><path class="st0" d="M606.5 18.6c0-.1.1.1 0 0z"/><path class="st0" d="M608.6 18.4c.1.3-.1.2 0 0z"/><path class="st0" d="M599.1 19.5c0-.1.1.1 0 0z"/><path class="st0" d="M604.3 19.6c-1.6.4-3.1-.1-4.9 0 1.4-.5 3-.4 4.9 0z"/><path class="st0" d="M598.6 19.5c.6-.2.2.6 0 0z"/><path class="st0" d="M604.3 19.6c.1-.3.4-.4.5-.2-.1.4-.4.5-.5.2z"/><path class="st0" d="M607.9 19.6c0-.1.1.1 0 0z"/><path class="st0" d="M602.9.2c0-.2.1-.2.2-.2 0 .2-.1.2-.2.2z"/><path class="st0" d="M603.3.2c0-.2.1-.2.2-.2 0 .2-.1.1-.2.2z"/><path class="st0" d="M603.6.2c0-.1.1.1 0 0z"/><path class="st0" d="M601.6.1c-.1.1 0-.2 0 0z"/><path class="st0" d="M594.7 20.8c0-.2.1-.2.2-.2 0 .2-.1.1-.2.2z"/><path class="st0" d="M599.1 2.1c.3.6 2.5.6 2.3.4 0-1-2.4.3-2.3-.4z"/><path class="st0" d="M602 .3c0-.1.1.1 0 0z"/><path class="st0" d="M592.5 20.5c.4-.2-.1.9 0 0z"/><path class="st0" d="M591.8 20.8c.2-.1.2.2.4.2 0 .5-.3.1-.4 0v-.2z"/><path class="st0" d="M594.4 20.8c.1-.8.1.7 0 0z"/><path class="st0" d="M593.5 20.8h.2v.4h-.2v-.4z"/><path class="st0" d="M601.8 1c.1-.7.1.8 0 0z"/><path class="st0" d="M593.2 21.2c.1-.7.1.8 0 0z"/><path class="st0" d="M593.8 21.2c-.1-.1.1.1 0 0z"/><path class="st0" d="M594.7 21.5c0-.1.1.1 0 0z"/><path class="st0" d="M602.9 1c0-.6.4.2 0 0z"/><path class="st0" d="M603.6 1c-.1-.1 0 .1 0 0z"/><path class="st0" d="M592.4 21.6c.1-.3.3-.3.5-.4 0 .6-.4.6-.5.4z"/><path class="st0" d="M601.2 1.4s.1.2 0 0z"/><path class="st0" d="M603.3 1.3c0-.2.1-.1.2-.2 0 .2-.1.2-.2.2z"/><path class="st0" d="M602.9 1c-.1.4-.4.4-.7.4-.1-.7.4-.2.7-.4z"/><path class="st0" d="M604.4 1.3v-.2c-.1.1-.1.2 0 .2 0 .2-.2.2-.3.2V.9c.2.1.5-.2.3.4.1 0 0 0 0 0z"/><path class="st0" d="M599.8 3.5c-.1 0 0-.3 0 0z"/><path class="st0" d="M603.3 1.2c.1.1.2.2.3.2-.6.9 3.3-.1 3.9.4-.3.7-1.1.6-1.8.7-1.1 0-2.5-.3-3.5 0 .3-.7.8-1.1 1.1-.6-.2-.4-.1-.4 0-.7z"/><path class="st0" d="M604.9 1.3c.1-.8.1.7 0 0z"/><path class="st0" d="M610.4 1c-.1 0 0 .2 0 0z"/><path class="st0" d="M593.5 21.9c.2.2.2.8.6.7 0 .6-2.4-.3-2.3.6-.2-.6 1.7-.6 1.7-1.3z"/><path class="st0" d="M601.8 1.6c-.1 0 0 .2 0 0z"/><path class="st0" d="M603.7 1.5c0-.2.2-.2.3-.2 0 .3-.2.2-.3.2z"/><path class="st0" d="M605.5 1.5c0-.1.1.1 0 0z"/><path class="st0" d="M593.1 22.3c0-.2.2-.1 0 0z"/><path class="st0" d="M592 22.4c.1-.1.1.2 0 0z"/><path class="st0" d="M592.6 22.5c-.4.2 0-.5 0 0z"/><path class="st0" d="M593.1 22.3c-.1.2-.5 1.1-.5.2.1-.1.3-.2.5-.2z"/><path class="st0" d="M608.2 1.9c-.1 0-.1.3-.1.6-.4-.1-.1-1 .2-1-.1.2-.1.2-.1.4z"/><path class="st0" d="M610.8 2.1h-.1c0 .2.1.1.1 0 .1 0 .1-.3.2-.4 1.5 1 2.3 0 3.5.8.1-.1.1-.4.2-.6.2.3.2.5.1.9-1.6-.2-2.5-.1-3.7 0-.1.5-1 .1-.7-.3-2 0 1-.3-1.7-.1-.1-.6.3-.4.2-1 .4 1.1 1.4.6 2.2.1 1.7.7-1.9.5-.4.2 0 .2.1.3.1.4zm.2.4c.1.1-.1-.1 0 0z"/><path class="st0" d="M610.1 1.6c0-.2.1-.2.2-.2 0 .2-.1.2-.2.2z"/><path class="st0" d="M594.6 22.6c-.5.2-.1-.5 0 0z"/><path class="st0" d="M591.6 22.8c-.3.3-1.6.3-1.7.8-.2-.2-.5 0-.5-.5.1-.4 1.9-.3 2.2-.3z"/><path class="st0" d="M601.4 2.4c-.1-.1 0 .1 0 0z"/><path class="st0" d="M601.6 2.4c.1-.8.1.7 0 0z"/><path class="st0" d="M608.2 1.9c.2 0 .2.2.4.2-.1.3-.2.4-.4.4v-.6z"/><path class="st0" d="M590.4 23.1c.3-.7.2.6 0 0z"/><path class="st0" d="M602.8 2.7c0-.3.2-.1 0 0z"/><path class="st0" d="M592.9 22.9c0-.2 1.6-.2 1.7-.2 0 .2-1.6.1-1.7.2z"/><path class="st0" d="M593.2 23.2c0-.5.4.3.2.6l-.2-.6z"/><path class="st0" d="M601.4 2.9s.1.2 0 0z"/><path class="st0" d="M602 2.9c0-.2.1-.2.2-.2 0 .2-.1.2-.2.2z"/><path class="st0" d="M602.8 2.7c.1.2-.1.1 0 0z"/><path class="st0" d="M602.3 2.7c-.1 0 0 .2 0 0z"/><path class="st0" d="M603.4 2.7c0-.2.2-.2.3-.2 0 .2-.2.2-.3.2z"/><path class="st0" d="M604.9 2.6c0-.1.1.1 0 0z"/><path class="st0" d="M591.7 23c0 .3-.2.4-.4.4-.1-.6.2-.4.4-.4z"/><path class="st0" d="M602 3.1c-.2.3-.6.3-.9.4 0-.2 3.1-.3 3-.4.1-.4-2.5 0-2.1 0z"/><path class="st0" d="M606.9 2.7c0-.2.1-.2.2-.2 0 .2-.1.2-.2.2z"/><path class="st0" d="M591.2 23.3c0-.2.1-.2.2-.2 0 .2-.1.2-.2.2z"/><path class="st0" d="M616 8.9c.2-.7.3.6 0 0z"/><path class="st0" d="M604 3s.1.2 0 0z"/><path class="st0" d="M608.8 2.8c-.1-.1 0 .1 0 0z"/><path class="st0" d="M615 2.7c0-.3 0-.4.1-.6.1.1.2.3.4.2-.1.4-.4.7-.5.4z"/><path class="st0" d="M592.1 23.3h.1c0 .1-.1.2-.1 0z"/><path class="st0" d="M605.1 3.2c0-.1.1.1 0 0z"/><path class="st0" d="M611 2.9c0-.1.1.1 0 0z"/><path class="st0" d="M611.3 2.9c0-.2.2-.2.3-.2 0 .2-.2.1-.3.2z"/><path class="st0" d="M612.2 2.8s.1.2 0 0z"/><path class="st0" d="M612.7 2.8c0-.2.1-.1.2-.2 0 .2-.1.2-.2.2z"/><path class="st0" d="M615.6 2.5c-.1-.1 0 .1 0 0z"/><path class="st0" d="M591.8 23.5c.1 0 .1.3 0 0z"/><path class="st0" d="M614.3 2.9c0-.1.1.1 0 0z"/><path class="st0" d="M614.7 2.9c0-.2.1-.2.2-.2 0 .2-.2.2-.2.2z"/><path class="st0" d="M616.1 2.6c-.1-.1 0 .1 0 0z"/><path class="st0" d="M611.3 3c0-.2.1-.2.2-.2 0 .2-.1.2-.2.2z"/><path class="st0" d="M613 3.4c0-.1.1.1 0 0z"/><path class="st0" d="M616.2 3c-.1-.1 0 .1 0 0z"/><path class="st0" d="M613.2 3.5s.1.2 0 0z"/><path class="st0" d="M578.6 36.7c0 .3-.1.2 0 0z"/><path class="st0" d="M577.9 37.1s.1.2 0 0z"/><path class="st0" d="M578.2 37.1c0-.2.1-.2.2-.2 0 .2-.1.2-.2.2z"/><path class="st0" d="M571.6 36.2c.3-.7.3.6 0 0z"/><path class="st0" d="M574.2 36.1c0-.5.1-.3-.1.3 0-.1.3-.4.1-.3z"/><path class="st0" d="M577.6 35.7c.1-.1.1.2 0 0z"/><path class="st0" d="M579.6 37.3c0-.1.1.1 0 0z"/><path class="st0" d="M571.1 36.5c-.1-.1.1.1 0 0z"/><path class="st0" d="M573.6 36.3c.1-.7.2.8 0 0z"/><path class="st0" d="M569.7 36.7c-.1-.1 0 .1 0 0z"/><path class="st0" d="M574.8 36.7c-.1 0 0 .2 0 0z"/></g></svg>