<svg id="Layer_1" xmlns="http://www.w3.org/2000/svg" viewBox="0 0 675.3 188"><style>.st0{fill:#FCAF14;} .st1{fill:#090909;}</style><path class="st0" d="M602.1 115.2c-1.1-.2-2.2-.2-3.1-.7-5.8-2.9-11.6-5.8-17.3-8.7-5.6-2.9-11-5.9-16.6-8.7-9.1-4.6-18.2-9.1-27.3-13.7-13-6.5-26-13-38.9-19.6-9.4-4.8-18.8-9.9-28.2-14.7-9-4.6-18.1-9.1-27.2-13.6-5.4-2.7-10.7-5.5-16.1-8.1-5.8-2.9-12.1-3.2-18.3-2.1-4.9.9-9.4 3.3-13.2 6.8-6 5.4-12.1 10.8-18.3 16.2-10.3 9-20.7 18-31 27.1-9.7 8.5-19.1 17.3-28.9 25.7-4.9 4.1-10.3 7.5-16.5 9.7-6.6 2.4-13.4 3.5-20.3 3.5-11.7.1-23.5.1-35.2 0-3.1 0-6.2-.3-9.3-.7-3.6-.4-5-3.5-2.7-6.4 1.6-2 3.5-3.8 5.6-5.2 3.9-2.7 7.9-5.1 12-7.6 7.7-4.8 15.3-9.5 23-14.2 2.7-1.7 5.6-3.1 8.2-4.8 3-1.9 5.8-4.1 8.8-5.9 9.6-5.9 19.3-11.6 28.7-17.7 3.9-2.5 7.6-5.3 11.6-7.7 7.7-4.7 15.2-9.6 22.8-14.4 7.4-4.7 14.9-9.4 22.3-14.1 6.6-4.1 13.1-8.4 20-12.1C402.5.4 408.9-.1 415.5.7c6.1.8 11.2 3.7 16.2 6.8 13 8 25.9 16 38.8 24 11.4 7.2 22.8 14.5 34.2 21.7 10.3 6.5 20.6 13 31 19.4 8.6 5.3 17.3 10.4 25.9 15.7 7.4 4.5 14.6 9.2 21.9 13.8 5.4 3.4 10.8 6.7 16.1 10.1 1 .6 1.8 1.6 2.6 2.4.1.2 0 .4-.1.6z"/><path class="st0" d="M328.8 39.7c-2.6 1.7-5 3.2-7.3 4.7-1 .7-2.3 1.1-3.1 2-2.3 2.4-4.8 1.8-7.1.6-10.6-5.3-21-10.8-31.6-16.1-3.8-1.9-7.7-3.9-11.8-5.2-4.9-1.5-10.1-1.3-15.1 0-7.9 2.1-13.5 7.9-19.5 13-7 6-13.9 12.1-20.7 18.2l-22.2 19.8c-8.8 7.8-17.6 15.7-26.6 23.4-6.6 5.6-13.8 9.9-22.4 12.2-5.3 1.4-10.5 1.7-15.8 1.9-11.1.3-22.2.1-33.4 0-3.4 0-6.7-.5-10.1-.6-1.8-.1-3.3-.7-3.8-2.4s-.6-3.6 1-4.9c2.1-1.7 4.2-3.4 6.4-4.9 9-5.7 18-11.4 27-17 8.6-5.4 17.3-10.6 25.9-16.1 8-5 15.8-10.3 23.7-15.4 5.5-3.5 11.2-6.9 16.8-10.4 10.4-6.6 20.8-13.3 31.3-19.8 10.4-6.5 20.9-12.7 31.4-19.1 4.9-3 10.4-3.6 15.8-3.6 4.2 0 8.6 1.1 12.4 3.3 8 4.7 16 9.6 23.9 14.5 10 6.2 19.9 12.5 29.9 18.7 1.5 1 2.9 1.9 5 3.2z"/><path class="st1" d="M486.4 187.2v-33.3c.4-.2.6-.3.9-.3 5.9-.3 5.9-.3 9 4.8 2.2 3.6 4.3 7.3 6.5 10.9l2.2 3.3v-18.8h6.8v33.1c-.3.2-.6.4-.8.4-5.2.2-5.2.2-7.9-4.2-3.2-5.4-6.5-10.8-10.1-17v21c-2.2.1-4.3.1-6.6.1z"/><path class="st0" d="M358.7 70.7c2.6-2.1 5-3.8 7-5.7 1.2-1.1 2.2-1.1 3.3-.4l15 9.3c7.5 4.7 15 9.4 22.4 14.2 6.3 4 12.5 8 18.8 11.9 2.7 1.7 5.5 3.2 8.2 4.9 1.4.9 3.3 1.3 3.8 3.3 2.1-.8 2.4 2 4.1 2.1.2 0 .3.6.5.9-.4.2-1 .3-1.3.6-1 .9-.4-.3-.4-.3-.7-1.2-1-2.4-2.9-1-.7.5-2.9-.8-4.3-1.5-8.4-4.3-16.6-8.8-25-13-12.5-6.3-25.1-12.4-37.6-18.6-2.8-1.4-5.6-2.9-8.4-4.4-1.1-.7-1.9-1.4-3.2-2.3z"/><path class="st1" d="M385.4 187.3h-8.1c-.1-.7-.3-1.4-.3-2.1v-27.3c0-3 0-3.1 2.8-3.8 4.4-1.1 8.9-1.4 13.3-.2 4.6 1.3 7.1 4.4 7.4 8.7.3 4.4-1.5 7.3-5.9 9.3-.3.2-.7.3-1.5.6 2.8 4.7 5.5 9.4 8.4 14.3-2.7 1-5.4.4-8.1.4-.6 0-1.3-1.1-1.7-1.8-1.6-2.8-3.1-5.7-4.6-8.5-.4-.7-.9-1.4-1.8-2.7.1 4.8.1 8.7.1 13.1zm-.3-17.2c5.1.7 7.4-1.1 7.5-5.8 0-.7 0-1.5-.1-2.2-.4-3-2.6-4.5-5.6-4.2-1.2.1-1.8.6-1.8 1.9v10.3z"/><path class="st1" d="M138.4 169.7c.9.6 1.7 1.1 2.3 1.6 5.4 4.2 4.6 12.3-1.7 15-5.8 2.5-11.9 2-17.9.2-1.2-.4-1.5-1.1-1.5-2.2v-27.7c0-1.2.5-1.8 1.6-2.1 5.5-1.7 11.1-2.1 16.5-.1 6.4 2.4 7.4 9.6 2.3 14-.5.4-1 .8-1.6 1.3zm-10.9 12.6c2.8.9 5.4 1.1 7.6-1.2 1.3-1.4 1.3-4.9.2-6.7-1.9-2.8-4.7-2.7-7.7-2.3-.1 3.5-.1 6.8-.1 10.2zm-.2-19.6v3.4c-.1 1.5.7 2 2 1.9.9-.1 1.7-.2 2.6-.4 2.3-.6 3.2-1.8 3.4-4.3.2-2.7-.7-4.2-2.9-5-3.6-1.4-5.1-.4-5.1 3.4v1z"/><path class="st1" d="M606.8 174.3v12.9H599c-.1-.8-.2-1.7-.2-2.5v-26.6c0-3.3 0-3.4 3.4-4.2 4.2-1 8.4-1.2 12.6-.1 4.9 1.3 7.3 4.3 7.6 9 .3 4.3-1.6 7-6.2 9.2-.3.1-.6.4-1.2.7 2.8 4.7 5.6 9.4 8.6 14.6-2.9.2-5.5.3-8 0-.7-.1-1.5-1.1-2-1.9-2.1-3.7-4-7.4-6-11.1h-.8zm.1-4c5.2 1.4 8.6-2.9 7.4-8.4-.6-2.8-2.5-4.2-5.3-4.1-1.3.1-2.1.5-2.1 2v10.5z"/><path class="st1" d="M59 170.5c0-4 .7-7.9 2.6-11.5 3.8-7.4 16.4-8.1 21-.5 2.8 4.6 3.2 9.7 2.7 14.8-.3 2.9-1.1 5.9-2.4 8.5-2.2 4.5-6.2 6.1-11.1 6-4.7-.1-8.1-2.1-10.3-6.1-2-3.5-2.5-7.3-2.5-11.2zm18.5-.1c-.5-2.9-.9-5.8-1.6-8.7-.4-1.8-1.7-3.1-3.7-3.2-2 0-3.2 1.3-3.8 3.1-1.8 5.6-1.7 11.2-.1 16.8.5 1.7 1.5 3.2 3.6 3.3 1.9.1 3.3-.7 4-3.2.8-2.5 1.1-5.2 1.6-8.1z"/><path class="st1" d="M22.5 159.8c-2.4-.3-4.4-.7-6.5-.7-3.6.1-5.8 1.9-6.8 5.3-1.3 4.3-1.2 8.6.1 12.9 1 3.2 3.2 4.8 5.9 4.7 1.3-.1 2.1-.5 2-2-.1-1.1 0-2.2 0-3.4 0-3.9 0-3.9-3.8-4.7v-4.5H25v17.1c0 1.3-.7 1.8-1.7 2.1-5.3 1.6-10.5 1.8-15.7-.5-2.6-1.2-4.5-3.2-5.6-5.8-2.7-6.5-2.9-13.1.2-19.5 1.7-3.6 4.5-5.9 8.4-6.9 4.7-1.2 9.3-1.1 14 1.2-.8 1.8-1.5 3.4-2.1 4.7z"/><path class="st1" d="M336.3 187.3c-.5-1.8-1.2-3.5-1.6-5.3-.3-1.2-.8-1.7-2-1.7h-8.3c-.6 1.9-1.3 3.6-1.7 5.4-.3 1.4-1.1 1.8-2.4 1.8-1.6-.1-3.2 0-5.3 0 .4-1.5.6-2.8 1-4.1 2.9-9 5.8-18 8.8-27 1.1-3.3.5-2.8 3.8-2.8h5c3.6 11.3 7.2 22.3 10.9 33.7h-8.2zm-3.2-11.8c-1.2-4.4-2.3-8.4-3.4-12.3-1.2 2-1.8 4-2.4 5.9-.6 2.1-1.1 4.1-1.7 6.4h7.5z"/><path class="st1" d="M271.9 175.3v11.9H264v-3.5c0-8.7.1-17.4-.1-26.2 0-2.2.8-3.1 2.8-3.6 4.3-1 8.6-1.3 12.9-.2 5.1 1.3 7.7 4.9 7.7 10.1 0 5.2-2.8 9.1-7.8 10.4-2.3.8-4.8.8-7.6 1.1zm-.1-5.6c5.7.7 8.1-1.3 7.7-6.4 0-.4-.1-.7-.2-1.1-.5-3-2.1-4.4-5.1-4.4-1.6 0-2.6.5-2.5 2.4.2 3.1.1 6.2.1 9.5z"/><path class="st1" d="M564.5 153.8v5.3h-8.8v8.2h7.6v5.3h-7.7v9.1h8.8v5.5h-17.1v-33.4h17.2z"/><path class="st1" d="M655.1 185.8c.6-1.9 1.1-3.5 1.7-5.4 1.1.4 2.1.8 3.1 1 1.1.2 2.2.5 3.3.3 1.7-.2 3-1.2 3.4-3 .3-1.6-.2-3-1.6-3.9-1.1-.8-2.4-1.3-3.6-2-4.9-2.5-7-7-5.7-12.1 1.2-4.5 5.1-7.4 10.4-7.4 2.8 0 5.5.2 7.9 2-.5 1.5-1 3-1.5 4.7-1.5-.4-2.9-.9-4.3-1.2-2.3-.4-4 .6-4.6 2.3-.6 1.8 0 3.6 1.9 4.8 1.4.9 2.9 1.5 4.3 2.3 5.4 3.2 6.2 6.4 5.1 12-.9 4.7-5.1 7.5-10.3 7.6-3.2 0-6.4.1-9.5-2z"/><path class="st1" d="M452.3 153.8v5.2c-1.8.1-3.5.2-5.5.3v27.9h-8.2v-27.9c-2.1-.1-3.9-.2-5.8-.3v-5.2h19.5z"/><path class="st1" d="M186 187.3h-7.7v-33.5h7.7v33.5z"/></svg>