<svg id="Layer_1" data-name="Layer 1" xmlns="http://www.w3.org/2000/svg" viewBox="0 0 395.94 94.86"><defs><style>.cls-1{fill:#2a2928;}.cls-2{fill:#f24f0e;}</style></defs><title>_iaVentures</title><g id="Wor0mC.tif"><path class="cls-1" d="M6.18 94.86c1.6-4.28 3.15-8.58 4.8-12.83q15.45-39.9 30.94-79.78c.13-.34.3-.66.56-1.22l2.78 7.35c1.6 4.23 3.25 8.44 4.76 12.7a4.29 4.29 0 0 1 0 2.73C46.19 33.92 42.29 44 38.41 54.09c-.22.56-.42 1.13-.71 1.91h24.46l5.5 14.63H32.8c-1.65 5-3.3 9.88-4.9 14.8-1 3.13-2 6.28-3 9.43H6.18z"/><path class="cls-2" d="M81.93 94.86c-1.54-4.43-3-8.88-4.63-13.29Q62.91 41.76 48.48 1.96c-.2-.56-.36-1.15-.59-1.89h15.57c2.63 6.9 5.27 13.86 7.93 20.81l28.06 73.44a3.82 3.82 0 0 1 .12.53H81.93z"/><path class="cls-1" d="M395.94 55.15a.66.66 0 0 0-.28.19c-1.86 6.65-5.41 9.63-12.26 9.89a23.66 23.66 0 0 1-15.42-4.8l1.53-2.76a24.38 24.38 0 0 0 11.06 4.32 12.64 12.64 0 0 0 7.5-1.18 6.59 6.59 0 0 0 4-6.09c0-2.77-1.66-4.47-4-5.43-4.11-1.71-8.33-3.17-12.48-4.8-3.3-1.29-5.84-3.38-6.51-7.09-.89-4.95 1.88-9.3 7.16-10.84 6.17-1.81 12-.65 17.52 2.89l-1.15 2.43a69.1 69.1 0 0 0-8.25-2.57 14.92 14.92 0 0 0-6.33.23 9 9 0 0 0-4.31 2.83c-2.29 2.74-1.56 5.94 1.5 7.8a24.73 24.73 0 0 0 3.64 1.72c2.66 1.07 5.31 2.19 8 3.08 4.45 1.46 8 3.72 9 8.71v1.47zM0 0h16.42V51.26a8.05 8.05 0 0 1-.55 2.83Q8.28 73.65.63 93.18c-.13.33-.29.64-.6 1.35V0zM220.52 64.62h-4l-22.07-33.79v33.66h-3.4v-38h4.65l21.5 33.63V26.48h3.32v38.13zM305.21 48.72v15.79h-3.26v-38c6 0 12-.27 18 .07 6.16.35 10 6.16 8.94 12.79-.63 4-2.64 6.87-6.85 8.28 2.72 1.46 3.4 4 4.25 6.4 1.21 3.45 2.37 6.92 3.59 10.49h-3.46c-1.29-3.51-2.63-7.15-4-10.81s-3-5-6.93-5c-3.33-.03-6.69-.01-10.28-.01zm0-3.18c4.71 0 9.3.17 13.87-.05 3.74-.18 6.17-3 6.52-7s-1.84-8.06-5.39-8.51c-4.93-.62-9.95-.51-15-.72v16.25zM183.42 26.52v2.91H162.8v14.26h19.07v3.17h-19.01v14.57h21v3.12h-24.39v-38h23.94zM261.75 26.43h3.29v22.95a22.31 22.31 0 0 0 .47 4.55c1.39 6.43 6.36 9.46 13.67 8.44 6.44-.9 9.68-5 9.73-12.47.05-7.16 0-14.33 0-21.5v-1.93h3.27a.87.87 0 0 1 .19.32c0 8.26 0 16.53-.15 24.79a17 17 0 0 1-.74 4.32c-1.69 6-6 9.1-13.08 9.41a27.18 27.18 0 0 1-6.21-.42c-6.19-1.15-10.09-5.46-10.39-12.4-.31-8.61-.05-17.25-.05-26.06zM360 43.69v3.13h-19.09v14.61h21v3.08h-24.35v-38h24v2.92h-20.7V43.7H360zM136.63 61.05l13.11-34.56h3.39l-14.43 38.1h-4.15l-14.43-38.16h3.46zM239.41 29.43H226.8v-3h28.6v3h-12.55v35.1h-3.45v-35.1z"/></g></svg>