<svg id="Layer_1" xmlns="http://www.w3.org/2000/svg" viewBox="0 0 139.9 88.4"><style>.st0{fill:none;} .st1{fill:#D0011B;} .st2{fill:#212C38;} .st3{fill:#FFFFFF;}</style><path d="M31.8 45.2"/><path class="st0" d="M65.3 0c9.9 0 24.6 30.8 19.9 40.3-4.7 9.5-34.7 10.3-39.8 0C40.3 30 55.4 0 65.3 0z"/><path class="st1" d="M65.3 0c-9.9 0-25 30-19.9 40.3s35.1 9.5 39.8 0S75.3 0 65.3 0zm3.6 38v-2c0-2-1.6-3.7-3.5-3.7s-3.5 1.6-3.5 3.7v2.4c-2.1-1.7-3.5-4.8-3.5-7.5 0-2.1.8-3.5 2.2-4.3v-.7c0-11.2 4.6-16.4 4.6-16.4s4.6 5.2 4.6 16.4v.7c1.3.9 2.2 2.3 2.2 4.3 0 2.4-1.2 5.3-3.1 7.1z"/><path class="st2" d="M0 86.5c0 1 .8 1.7 1.8 1.7s1.7-.8 1.7-1.7V69.9c0-1-.8-1.7-1.7-1.7-1 0-1.8.8-1.8 1.7v16.6zm24.9 1.9c3 0 5.3-1 7-2.1.8-.5 1.2-1.2 1.2-2.2v-5.3c0-1-.8-1.8-1.8-1.8h-5.5c-.8 0-1.6.7-1.6 1.5s.7 1.5 1.6 1.5h3.9v3.7c-1.2.9-2.9 1.5-4.8 1.5-4 0-6.7-3-6.7-7.1V78c0-3.8 2.8-7 6.4-7 2.1 0 3.5.6 4.8 1.6.3.2.6.4 1.1.4 1 0 1.7-.8 1.7-1.7 0-.7-.4-1.2-.7-1.4-1.8-1.3-3.8-2-6.8-2-6 0-10.2 4.7-10.2 10.2v.1c.1 5.8 4.2 10.2 10.4 10.2zm19.5-1.9c0 .9.8 1.7 1.7 1.7.9 0 1.7-.8 1.7-1.7V74L58 87.1c.5.6 1 1 1.8 1h.1c1 0 1.7-.8 1.7-1.7V69.8c0-.9-.8-1.7-1.7-1.7-.9 0-1.7.8-1.7 1.7V82l-9.9-12.8c-.5-.6-1-1-1.8-1h-.4c-1 0-1.8.8-1.8 1.8l.1 16.5zm29.2 0c0 1 .8 1.7 1.8 1.7s1.7-.8 1.7-1.7V69.9c0-1-.8-1.7-1.7-1.7-1 0-1.8.8-1.8 1.7v16.6zm20.4 0c0 1 .8 1.7 1.8 1.7s1.8-.8 1.8-1.7v-15h4.8c.9 0 1.6-.7 1.6-1.6 0-.9-.7-1.6-1.6-1.6H89.2c-.9 0-1.6.7-1.6 1.6 0 .9.7 1.6 1.6 1.6H94v15zm21.9 1.6h11.6c.8 0 1.6-.7 1.6-1.6 0-.8-.7-1.6-1.6-1.6h-9.9v-5.3h8.5c.8 0 1.6-.7 1.6-1.5 0-.9-.7-1.6-1.6-1.6h-8.5v-5.1h9.8c.8 0 1.6-.7 1.6-1.6 0-.8-.7-1.6-1.6-1.6h-11.5c-1 0-1.8.8-1.8 1.8v16.3c0 1 .8 1.8 1.8 1.8z"/><path class="st3" d="M134.2 64.7c0 .2.1.3.3.3.2 0 .3-.1.3-.3v-2.5h.8c.1 0 .3-.1.3-.3 0-.2-.1-.3-.3-.3h-2.2c-.1 0-.3.1-.3.3 0 .2.1.3.3.3h.8v2.5zm2.3 0c0 .2.1.3.3.3.2 0 .3-.1.3-.3v-1.9l.8 1.2c.1.1.2.2.3.2.1 0 .2-.1.3-.2l.8-1.2v1.9c0 .2.1.3.3.3.2 0 .3-.1.3-.3v-2.8c0-.2-.1-.3-.3-.3h-.1c-.1 0-.2.1-.3.2l-1 1.6-1-1.6c-.1-.1-.1-.2-.3-.2h-.1c-.2 0-.3.1-.3.3v2.8z"/></svg>