<svg id="Layer_1" xmlns="http://www.w3.org/2000/svg" viewBox="0 0 360 180.4"><style>.st0{fill:#446EB3;}</style><path class="st0" d="M106.1 0v104h-7.6c-.3 0-.7-.5-.9-.8C88 90.5 78.4 77.7 68.8 65l-6.6-8.7c8.8-11 17.5-21.9 26.4-33H87c-7 .6-14 1.3-21 1.8-1.1.1-1.7.5-2.4 1.3C54.8 37.3 46 48.5 37.3 59.6c-.2.3-.5.6-.9 1.1-.1-1.4-.3-2.4-.4-3.5-.9-9.6-1.7-19.2-2.5-28.8-.8-8.9-1.5-17.8-2.3-26.8-.1-.5-.2-1-.2-1.6h75.1z"/><path class="st0" d="M10.1 0c.4 5.2.9 10.4 1.3 15.5.6 6.8 1.2 13.5 1.8 20.3.9 9.9 1.7 19.7 2.6 29.6.7 7.6 1.3 15.3 2 22.9.4 4.8.8 9.6 1.3 14.5v1H2.2v-1.2V1.1 0h7.9z"/><path class="st0" d="M0 131.3c2.4 0 4.9.1 7.3 0 1 0 1.5.2 1.9 1.3 4 12.8 8.1 25.5 12.2 38.2l.4 1.2c.2-.5.3-.8.4-1.1 4.1-12.9 8.2-25.7 12.4-38.6.2-.7.5-1 1.3-1 2.5.1 4.9 0 7.6 0-.7 1.9-1.3 3.7-1.9 5.4-4.8 13.7-9.5 27.4-14.3 41.1-.3.8-.7 1.1-1.6 1.1-2.7-.1-5.4-.1-8 0-1.2 0-1.6-.4-1.9-1.4-5-14.8-10.2-29.6-15.3-44.5-.1-.4-.3-.7-.5-1v-.7z"/><path class="st0" d="M142.6 0v17.6h-17c0-.3-.1-.6-.1-.8V.6c0-.2.1-.4.1-.6h17z"/><path class="st0" d="M272.5 103.8h-17.2c0-.5-.1-1-.1-1.5V53.7c0-2.7-.3-5.4-1.3-8-1.7-4.4-4.8-7.1-9.5-7.8-4.7-.8-9.2 0-13 3.1-3.3 2.7-4.9 6.3-5.5 10.5-.2 1.3-.3 2.5-.3 3.8v48.5h-17.3v-1.4-48.6c0-2.1-.3-4.3-.8-6.4-1.3-5.4-4.6-8.7-10.2-9.6-6.6-1.1-12.8 1.7-15.9 7.2-1.7 3-2.4 6.2-2.4 9.5v49.3h-17.2V25.5h15.9v8.2c5.7-7.8 13.5-10.9 22.7-10.8 9.3.1 16.9 3.5 21.9 11.8l.7-.7c5.1-6.9 12-10.4 20.5-11 5.6-.4 11 .2 16.1 2.7 7.5 3.8 11.2 10.2 12.4 18.2.2 1.7.3 3.3.3 5v53.6c.2.5.2.8.2 1.3z"/><path class="st0" d="M357.9 103.8h-15.4v-8.6c-1.1 1.2-2 2.3-3 3.3-4.3 4.1-9.5 6.3-15.2 7.3-7.2 1.2-14.3.9-21.2-1.4-6.3-2.1-11.3-5.9-13.5-12.5-2.9-9-1.3-19.9 8.7-26.5 5-3.3 10.4-5.4 16.2-6.7 8.6-1.9 17.2-3.4 25.9-5.1.9-.2 1.1-.5 1.1-1.4.1-3.3-.3-6.5-2.3-9.2-2.5-3.3-6-4.9-9.9-5.5-9.3-1.4-17.2 1.6-24.1 7.9-1.7 1.5-3.3 3.1-5.1 4.8-3.6-3.3-7.1-6.6-10.8-10 1.4-1.5 2.6-2.9 4-4.3 6.3-6.2 13.6-10.6 22.5-12.1s17.8-1.3 26.3 2.2c10.5 4.4 15.8 12.5 15.9 23.9.1 17.6 0 35.3 0 52.9-.1.3-.1.6-.1 1zm-16.2-37.7c-.5-.1-.6-.1-.6-.1-7.7 1.7-15.4 3.3-23 5.1-3.1.7-6.1 2-8.7 4-3.1 2.3-4.4 5.4-4 9.2.5 3.9 3 6 6.5 7.2.5.2.9.3 1.4.4 5 1.1 10 .8 14.9-.8 6.6-2.2 11.4-6.4 12.7-13.4.7-3.8.6-7.7.8-11.6z"/><path class="st0" d="M125.5 25.5h17v78.3h-17V25.5z"/><path class="st0" d="M312.6 156.6h-35.7c.2 1.4.3 2.6.6 3.9 1.3 5.8 4.2 10.4 10.2 12.2 4.8 1.3 9.5.8 13.7-1.9 1.9-1.2 3.5-2.7 5.3-4.1.4-.3.8-.7 1.2-1.1l5 5c-3.1 3.3-6.6 6.4-11 8.1-6.3 2.4-12.8 2.4-19.1 0-6.3-2.3-10.4-6.9-12.5-13.2-2.6-8.1-2.3-16.2 1.6-23.9 3.6-7 9.6-10.8 17.4-11.4 4.4-.4 8.7.1 12.7 2.2 6.3 3.2 9.3 8.6 10.5 15.3.5 2.8.6 5.8.1 8.9zm-8-6.2c-.4-5.1-1.9-9.5-6.5-12-5-2.6-10.1-2.5-14.9.8-3.8 2.6-5.3 6.7-6 11.2h27.4z"/><path class="st0" d="M87 165.6c1.6 1.6 3.3 3.2 5 4.9-3.3 3.5-6.8 6.6-11.4 8.2-6.6 2.4-13.3 2.3-19.8-.4-6.5-2.8-10.4-7.9-12.1-14.7-1.5-5.8-1.4-11.6.3-17.4 3-10.5 11.4-16.4 22.7-16.1 10.8.3 18.4 7.1 19.8 17.9.3 2.4.2 4.9.3 7.3.1 1.1-.3 1.4-1.4 1.4H56c.2 1.5.3 2.8.6 4.2 1.5 6.2 4.8 10.8 11.4 12.2 5 1 9.6.1 13.7-3.1 1.9-1.5 3.6-3 5.3-4.4zm-3.4-15.2c.2-6-3.5-13-11.9-13.6-9.4-.7-14.5 6-15.2 13.6h27.1z"/><path class="st0" d="M110.6 178.9h-8.3v-47.4h7.8v5.6c.3-.2.4-.2.5-.3 2.8-3.9 6.7-5.9 11.4-6.5 3.2-.4 6.5-.3 9.6.7 6 1.9 10.1 7.2 10.4 13.7.2 4.6.1 9.2.1 13.8v20.4h-8.3c0-.4-.1-.9-.1-1.4v-28.7c0-3.2-.5-6.2-2.8-8.6-3.3-3.4-7.5-3.8-11.8-2.5-5.2 1.5-8.6 6.2-8.6 11.7v28.1c.1.4.1.8.1 1.4z"/><path class="st0" d="M187.7 131.4h7.8c.2 0 .5.3.5.6.1.3 0 .6 0 1v29.7c0 1.2.1 2.4.4 3.6.9 3.7 3.2 6.1 7 6.6 5.1.8 9.7-.3 12.8-4.8 1.6-2.2 2.1-4.8 2.1-7.5v-27.7-1.5h5.5c2.8 0 2.8 0 2.8 2.8v43.4c0 1.1-.3 1.4-1.4 1.4-2.1-.1-4.2 0-6.4 0v-5.2c-.1-.1-.3-.2-.4-.3 0 .2 0 .4-.1.5-3.2 4.3-7.7 6.1-13 6.3-3 .1-6-.2-8.8-1.2-5.5-2.1-8.9-7.1-8.9-13.5V148v-15.1c.1-.6.1-1 .1-1.5z"/><path class="st0" d="M318.9 171.4c1.8-1.9 3.3-3.7 5-5.5.8.6 1.5 1.2 2.3 1.8 3.4 2.6 7 4.9 11.4 5.4 3.2.4 6.3.4 9.3-.8 2.2-.9 3.9-2.3 4.6-4.6.9-2.8-.1-5.5-2.8-6.8-2.4-1.2-5.1-2-7.8-2.7-3.5-1-7-1.7-10.4-2.7-1.1-.3-2.2-.8-3.3-1.4-4.5-2.2-6.4-5.5-6-11.1.4-5.1 3.2-8.5 7.6-10.7 7.4-3.8 21.3-3.7 30.3 4.7-1.5 1.8-3 3.7-4.4 5.5-2-1.3-3.9-2.6-5.9-3.6-4.7-2.4-9.6-2.8-14.6-1.2-2.2.8-4 2.2-4.7 4.6-.7 2.4 0 4.5 2.3 5.4 2.7 1.1 5.6 2 8.5 2.7 4.3 1.1 8.6 1.9 12.6 3.9 4.1 2 6.8 5.1 7.1 9.9.4 6.7-2.9 12-9.3 14.3-9.6 3.4-18.8 2.3-27.3-3.6-1.5-1-2.9-2.2-4.5-3.5z"/><path class="st0" d="M179 131.3v6.3h-12.7c0 .5-.1 1-.1 1.4v27.5c0 .6 0 1.3.1 1.9.3 2.5 1.6 4.1 4.1 4.1 2.2 0 4.4-.4 6.5-.6.5-.1 1-.2 1.7-.4.4 2.2.9 4.3 1.3 6.6-1.2.3-2.4.7-3.6.9-3.1.7-6.3.9-9.4.4-5.8-.8-9-4.2-9.1-10.1-.1-9.3-.1-18.6-.1-27.8v-3.9h-8.8v-6.4h8.8v-15.9h8.4v15.8c4.5.2 8.6.2 12.9.2z"/><path class="st0" d="M73.7 103.8H40.1c-.2-2.5-.5-5-.7-7.5-.3-3.9-.7-7.8-1-11.7 0-.5.1-1.1.3-1.4 3.2-3.9 6.5-7.8 9.7-11.7.1-.1.2-.2.5-.4 8.3 10.8 16.4 21.7 24.8 32.7z"/><path class="st0" d="M239.6 131.4h7.8v6.9c4.7-8.3 11.6-8.6 19.4-6.2-.5 2.4-1.1 4.7-1.6 6.9-1.5-.3-2.8-.5-4.1-.7-6.6-1-10.7 3-12.2 8.4-.6 2.2-.9 4.6-.9 7-.1 8 0 16 0 24v1h-8.3c-.1-15.7-.1-31.4-.1-47.3z"/></svg>