<svg data-name="Layer 1" xmlns="http://www.w3.org/2000/svg" viewBox="0 0 87.63 13.04"><title>_launchpadLA</title><path d="M0 0h87.63v13H0V0zm.81 12.17h86.06V.84H.81v11.33z"/><path d="M30.32 9.43h-1l-2.74-3.55V9.4h-1.23V3.75h1.12l2.68 3.48V3.77h1.22v5.66zM62.04 9.36V3.77a21.75 21.75 0 0 1 3 0 2.66 2.66 0 0 1 2.24 2.81 2.71 2.71 0 0 1-2.36 2.73 24.11 24.11 0 0 1-2.88.05zm1.3-1.13c1.29.18 2 0 2.42-.71a1.85 1.85 0 0 0-.08-2 2.24 2.24 0 0 0-2.34-.6v3.34zM44.04 5.87V3.71h1.19v5.65h-1.21V7.17h-2.39v2.2H40.4V3.71h1.23v2.16h2.4zM21.33 3.71h1.15a2.23 2.23 0 0 1 .08.42v3a2.17 2.17 0 0 1-1.18 2.12 2.92 2.92 0 0 1-2.91-.15 1.79 1.79 0 0 1-.85-1.48V3.74h1.21v3.37a1.18 1.18 0 0 0 1.23 1.28 1.15 1.15 0 0 0 1.27-1.24c.05-.85 0-1.71 0-2.56v-.88zM60.05 9.43h-1.3l-.53-1.17h-2.45l-.54 1.17h-1.26l2.42-5.7h1.24zm-3.81-2.42h1.51l-.76-1.79zM15.73 9.43h-1.3l-.53-1.18h-2.46l-.54 1.18H9.63l2.43-5.71h1.21zm-3-4.05h-.1l-.66 1.65h1.48zM80.71 3.67h1.19l2.44 5.7h-1.29l-.53-1.16h-2.44l-.53 1.16h-1.26zm.66 1.68h-.17l-.65 1.62h1.48zM49.55 7.8v1.55h-1.22V3.72c1 0 1.9-.06 2.82 0a1.77 1.77 0 0 1 1.68 1.71 1.82 1.82 0 0 1-1.45 2.09 16.4 16.4 0 0 1-1.83.28zm0-1.21a9 9 0 0 0 1.32-.08.85.85 0 0 0-.1-1.67 11 11 0 0 0-1.22 0V6.6zM37.35 7.73l.69.74a3 3 0 0 1-4.1.45 3.06 3.06 0 0 1-.43-4.29 3.19 3.19 0 0 1 4.57-.14l-.72.85c-.65-.34-1.26-.83-2-.5a2.26 2.26 0 0 0-.87.66 1.89 1.89 0 0 0 .17 2.36c.66.69 1.5.66 2.69-.13zM3.79 9.35V3.7h1.16v4.56h2.89v1.09h-4zM72.44 3.7h1.19v4.6h2.84v1.06h-4V3.7z"/></svg>