<svg id="Layer_1" xmlns="http://www.w3.org/2000/svg" viewBox="0 0 1499 299.4"><style>.st0{fill:#F37A21;}</style><path class="st0" d="M921 0c.4.3.7.7 1.1.9 17 4.2 25.8 15.1 25.8 32.5 0 72.8.1 145.7 0 218.5 0 13.4-4 25.3-17.5 31-15 6.4-29.2 3.9-41.5-6.7-5.2-4.5-9.2-10.5-13.5-16-36.6-47.3-73-94.7-109.6-142.1-.7-.9-1.4-1.8-3.2-4v6.4c-.2 20.3 0 40.7-.7 61-.6 18.6-4.5 36.7-12.2 53.7-13.1 29-35.6 47.4-65.6 56.6-31.8 9.7-64.1 10.1-96 .5-42.1-12.7-66.5-42.1-74.9-84.7-2.7-13.5-3.7-27.4-3.9-41.2-.5-41.7-.2-83.3-.1-125 0-4.3.7-8.7 1.7-12.8 4-15.6 18.5-26.7 33.3-25.6 18.3 1.4 31.1 13.4 32.8 31.1.2 2.5.2 5 .2 7.5 0 40.7-.2 81.3.1 122 .1 9.4.9 19.1 3 28.2 7.3 32.6 30.1 44.2 61.1 42.5 4.5-.2 9-1 13.3-2 21.6-5.4 32.9-20.4 37.1-41.2 1.6-7.9 2.3-16.2 2.3-24.3.2-41.7.1-83.3.2-125 0-5.3.4-10.7 1.5-15.8 3-13.8 12-22.2 26-24 17.8-2.3 32.6 2.5 44 17.5 38.8 50.9 77.9 101.5 117 152.2.8 1 1.6 1.9 3.2 3.8v-6.3c0-44.7.1-89.3 0-134-.1-19.7 10.1-32.1 26.3-34.7.3 0 .5-.4.7-.6 2.7.1 5.3.1 8 .1z"/><path class="st0" d="M0 32c.7-1.8 1.5-3.6 2.1-5.4 4.5-14 18.5-24.1 32.6-23.5C51.2 3.9 63.8 14.3 67 30c.7 3.6 1 7.3 1 10.9.1 62.5.1 125 .1 187.5v6.4h5.8c51.7 0 103.3-.1 155 .1 4.2 0 6.1-1.3 7.7-5.1C265.7 164 295 98.2 324 32.3c6.6-15 15.8-26.8 32.9-29.7 23.2-3.9 41.5 3.6 51.2 25.5 32.9 74 65.7 148.1 99 222 7.3 16.2-.3 36.9-14.3 43.4-17.2 8.1-37 2.6-45.6-14.2-5.8-11.2-10.2-23.1-15.2-34.7-5.7-13.4-5.6-13.4-20-13.4-33.7 0-67.3.1-101-.1-3.8 0-5.6 1.2-7 4.6-4.8 11.9-9.9 23.6-14.9 35.4-8.5 20.3-17.7 26.2-39.8 26.2-46-.1-92 0-138 0-24.5 0-49-.2-73.5.1-16.9.1-32.4-7.4-36.8-26.9-.1-.6-.7-1-1-1.5V32zm400.6 137.9c-11.4-27.1-22.6-53.8-34.2-81.4-11.7 27.6-23.1 54.3-34.5 81.4h68.7z"/><path class="st0" d="M1430.9 181.2h-109v5.6c0 24.3.1 48.7-.1 73 0 4.1-.6 8.3-1.6 12.3-3.9 15.7-16.4 25.1-32.4 25.1-16.1 0-28.9-10.1-32.6-25.7-.8-3.4-1.3-6.9-1.3-10.4-.1-74-.1-148 0-221.9 0-18.4 10.5-31.6 27.3-35.1 18.6-3.9 36.3 7.8 39.7 26.6.7 3.6 1 7.3 1 10.9.1 23.2 0 46.3 0 69.5v5.6h109v-5.4c0-24-.1-48 0-72 .1-18.8 10.9-32.1 28.3-35.3 17.9-3.3 34.8 7.8 38.6 25.6.7 3.2 1.1 6.6 1.1 9.9.1 73.8.1 147.6 0 221.4 0 21.2-13.3 35.6-33.2 36.2-19.6.6-34.7-14.5-34.8-35.2-.1-25-.1-50-.1-75 .1-1.7.1-3.5.1-5.7z"/><path class="st0" d="M1121 1.6c30 .9 57.1 5 82 18.6 5.4 2.9 10.5 6.5 15.4 10.2 15.8 12.1 18.7 32.6 7 48.2-10.2 13.6-33.2 16.8-47.8 6.2-15.5-11.3-32.8-18-51.9-18.5-31.4-.7-56.2 12-71.3 40-15.1 27.9-15.4 56.9-1.4 85.4 15.5 31.6 48.9 47.9 83.6 42 16.8-2.8 31.8-9.1 45-20.1 10.7-8.9 22.7-9.5 35.1-4 11.8 5.3 17.1 15.3 17.8 27.4.5 9.4-3.2 17.8-10.3 24.6-19.2 18.6-42.5 28.8-68.4 33.8-35.3 6.8-69.9 4.2-102.4-11.6-45.4-22.1-72.3-58.8-80.4-108.6-7-43.1 2-82.9 29.3-117.6C1027.9 25.2 1062 8 1102.7 3.1c6.7-.9 13.6-1.2 18.3-1.5z"/></svg>