<svg id="Layer_1" xmlns="http://www.w3.org/2000/svg" viewBox="0 0 298 305.2"><style>.st0{fill:#FFD989;} .st1{fill:#F26622;}</style><path class="st0" d="M206.7 81.5h-30.2c-.8 0-.8 0-1 .8-1.2 4.7-2.4 9.4-3.6 14l-8.1 31.8c-1.3 5.1-2.6 10.3-4 15.4l-8.1 31.8c-1.9 7.5-3.9 15.1-5.8 22.6-.1.3-.2.6-.4.9-.8-2.1-1.2-4.3-1.8-6.4-.6-2.2-1.1-4.4-1.6-6.5-.5-2.1-1.1-4.3-1.6-6.4-.5-2.2-1.1-4.4-1.6-6.5-.5-2.2-1.1-4.4-1.6-6.5s-1.1-4.4-1.6-6.5c-.5-2.1-1.1-4.3-1.6-6.4-.5-2.2-1.1-4.4-1.6-6.5-.5-2.2-1.1-4.4-1.6-6.5-.5-2.2-1.1-4.4-1.6-6.5-.5-2.2-1.1-4.4-1.6-6.5-.5-2.1-1.1-4.3-1.6-6.4-.5-2.2-1.1-4.4-1.6-6.5-.5-2.2-1.1-4.4-1.6-6.5-.5-2.2-1.1-4.4-1.6-6.5-.5-2.1-1.1-4.3-1.6-6.4-.5-2.2-1.1-4.4-1.6-6.5-.5-2.2-1.1-4.3-1.6-6.6H84.6c-.1-.5.2-.8.4-1l17.4-23.1c5-6.6 10-13.3 15-19.9 4.8-6.4 9.7-12.8 14.5-19.3 3.4-4.4 6.7-8.9 10-13.4 1.1-1.5 2.2-2.9 3.3-4.4.1-.1.2-.3.3-.4.5-.1 60.7 79.6 61.2 80.8z"/><path class="st1" d="M289.7 189.3c-.5-.2-.8-.3-1-.4-16-7.5-32.1-14.9-48.1-22.4-2.7-1.3-5.5-2.6-8.2-3.8-.6-.3-.9-.6-1-1.3-2.2-14.7-4.4-29.5-6.6-44.2-.7-4.9-1.5-9.8-2.2-14.6v-.3h.2c22.2 28.9 44.5 57.7 66.7 86.6l.2.4z"/><path class="st1" d="M0 189.1c22.3-29 44.6-58 67-86.9.1 0 .1.1.2.1-.2 1.4-.4 2.8-.6 4.1-.9 6.1-1.8 12.1-2.7 18.2-.8 5.6-1.7 11.2-2.5 16.7-.8 5.6-1.7 11.2-2.5 16.7-.2 1.1-.4 2.3-.5 3.4-.1.6-.3.9-.9 1.2-5.6 2.6-11.3 5.2-16.9 7.9-13.1 6.1-26.2 12.2-39.4 18.3-.3.2-.7.3-1 .4-.1 0-.1 0-.2-.1z"/><path class="st1" d="M120.5 228.6c-.4-.3-.6-.5-.8-.7l-34.6-34.6c-.5-.5-.7-.9-.6-1.7 2.5-15.1 5.1-30.3 7.6-45.4.7-4.4 1.5-8.8 2.2-13.2 0-.1.1-.2.1-.4.4.6 25.8 94.2 26.1 96z"/><path class="st1" d="M169.1 228.4c8.3-31.6 16.6-63.2 25-94.9h.2c.1.2.1.4.2.6 3.1 16.5 6.3 33.1 9.4 49.7.4 2.3.8 4.6 1.3 6.8.1.6 0 1-.5 1.5-5.6 5.8-11.3 11.5-16.9 17.3-5.9 6.1-11.8 12.2-17.8 18.3-.2.3-.5.5-.8.7 0 .1 0 .1-.1 0z"/><path class="st0" d="M58 285.8l-5.2-30.5-10.2 30.5h-8.1l-10.1-30.5-5.3 30.5h-9l8.4-48.2h8.9l11.2 33.6 11.3-33.6h8.9l8.1 48.2z"/><path class="st0" d="M96.5 237.6h-9.3l-18.6 48.2h9.5l3.9-9.9h19.7l3.8 9.9h9.5l-18.5-48.2zm-11.1 29.3l6.5-16.6 6.4 16.6H85.4z"/><path class="st0" d="M158.3 252.2c-4.4-4.6-9.3-6.9-14.7-6.9-4.6 0-8.5 1.6-11.6 4.7-3.2 3.2-4.7 7-4.7 11.7 0 3.2.7 6.1 2.1 8.6 1.4 2.5 3.4 4.5 5.9 5.9 2.6 1.4 5.4 2.1 8.5 2.1 2.7 0 5.1-.5 7.3-1.5s4.6-2.8 7.3-5.4l6.2 6.5c-3.6 3.5-6.9 5.9-10.1 7.2s-6.8 2-10.8 2c-7.5 0-13.6-2.4-18.4-7.1s-7.2-10.8-7.2-18.3c0-4.8 1.1-9.1 3.3-12.8 2.2-3.7 5.3-6.7 9.3-9 4.1-2.3 8.4-3.4 13.1-3.4 4 0 7.8.8 11.5 2.5s6.9 4.1 9.5 7.2l-6.5 6z"/><path class="st0" d="M196.5 285.8v-21.2h-16.1v21.2h-9.3v-48.2h9.3v18.2h16.1v-18.2h9.2v48.2z"/><path class="st1" d="M242.3 263.8c1.6 2.2 2.5 4.7 2.5 7.7 0 4.3-1.6 8-4.8 11-3.2 3-7.3 4.5-12.2 4.5-4.7 0-8.5-1.4-11.4-4.2-2.9-2.8-4.6-6.7-4.8-11.6h9.1c.4 2.5 1.3 4.3 2.6 5.6 1.3 1.2 3 1.8 5.1 1.8 2.1 0 3.9-.7 5.3-2.1s2.1-3.1 2.1-5c0-2.2-1-4-2.9-5.5s-4.6-2.3-8.2-2.3v-7.9c2.2-.2 3.8-.5 4.9-1 1.1-.5 1.9-1.2 2.5-2.1.6-.9.9-1.8.9-2.9 0-1.3-.5-2.4-1.4-3.3s-2.1-1.3-3.6-1.3c-1.3 0-2.5.4-3.6 1.2-1.1.8-1.8 1.8-2.2 3.1h-8.8c.5-3.6 1.7-6.4 3.8-8.6 2.9-3 6.6-4.5 11-4.5 4 0 7.3 1.3 9.9 3.8s4 5.5 4 9c0 2.1-.6 4.1-1.8 5.9-1.2 1.8-2.9 3.2-5.1 4.3 3.2.7 5.5 2.2 7.1 4.4z"/><path class="st1" d="M259.3 287l-7.7-3.8 18.1-37h-20.2v-8.6h31.6v4.8z"/><path class="st1" d="M25.2 294.1c-.1.2-.1.4-.2.5-.1.1-.2.2-.3.2-.1 0-.3-.1-.4-.2-.2-.1-.4-.3-.6-.4-.3-.1-.6-.3-1-.4s-.9-.2-1.6-.2c-.7 0-1.3.1-1.9.3-.6.2-1.1.5-1.5.8-.5.4-.9.8-1.2 1.2-.3.5-.6.9-.9 1.4-.2.5-.4 1-.5 1.5-.1.5-.2 1-.2 1.5s.1 1 .2 1.4.4.8.7 1c.3.3.7.5 1.1.6.5.1 1 .2 1.5.2.6 0 1.2-.1 1.7-.2s.9-.2 1.2-.4.6-.3.8-.4c.2-.1.4-.2.5-.2.1 0 .2 0 .2.1s.1.1.1.2V302.9c0 .1 0 .2-.1.2 0 .1 0 .2-.1.2s-.1.1-.1.2-.1.1-.2.2-.3.2-.5.3c-.3.1-.6.2-1 .4-.4.1-.8.2-1.3.3-.5.1-1 .1-1.6.1-.8 0-1.6-.1-2.3-.3-.7-.2-1.2-.5-1.7-.9s-.8-.9-1.1-1.5-.4-1.2-.4-2c0-.6.1-1.3.2-1.9s.4-1.3.7-1.9c.3-.6.7-1.2 1.2-1.8.5-.5 1-1 1.7-1.5.6-.4 1.4-.7 2.1-1 .8-.2 1.7-.4 2.6-.4.6 0 1.2.1 1.7.2s1 .2 1.3.4.6.3.8.4c.2.1.2.3.2.4.3.7.3.9.2 1.1zm16-1.6c0 .1-.1.2-.2.3l-6.3 7.2-1.2 4.7s0 .1-.1.1-.1.1-.2.1-.2 0-.3.1h-1c-.1 0-.2 0-.3-.1-.1 0-.1-.1-.1-.1v-.1l1.2-4.7-2.7-7.2c0-.1-.1-.3-.1-.3 0-.1 0-.1.1-.2.1 0 .2-.1.3-.1h1.2c.1 0 .2 0 .3.1s.1.1.2.1c0 0 .1.1.1.2l1.3 3.5c.1.4.3.8.4 1.2l.3 1.2.9-1.2c.3-.4.6-.8 1-1.2l3-3.5c0-.1.1-.1.2-.2.1 0 .1-.1.2-.1s.2 0 .4-.1H41.1l.3.1c-.1.1-.1.2-.2.2zm14.3 3.4c-.1.4-.3.7-.6 1-.2.3-.6.6-.9.8l-1.2.6c.3.1.7.1 1 .3s.6.3.8.5c.2.2.4.5.5.7.1.3.2.6.2.9 0 .3-.1.7-.2 1-.1.4-.3.7-.5 1-.2.3-.5.6-.9.9-.3.3-.8.5-1.2.7s-1 .4-1.6.5c-.6.1-1.2.2-2 .2h-4.2c-.3 0-.5-.1-.6-.2s-.2-.3-.1-.5l2.8-11.3c.1-.3.2-.4.4-.5.2-.1.4-.2.6-.2h3.4c.8 0 1.5.1 2 .2s1 .3 1.4.5.6.5.8.8c.2.3.3.7.3 1.1 0 .2-.1.6-.2 1zm-9.4 7.7h3c.7 0 1.2-.1 1.7-.2s.9-.4 1.2-.6c.3-.3.5-.5.7-.9.2-.3.2-.7.2-1.1 0-.5-.2-1-.7-1.3s-1.2-.4-2.2-.4h-2.7l-1.2 4.5zm7.2-9.1c-.1-.2-.2-.3-.4-.4-.2-.1-.5-.2-.8-.3-.3-.1-.7-.1-1.2-.1h-2.2l-1 4.1H50c.6 0 1.2-.1 1.6-.3.4-.2.8-.4 1-.7.3-.3.5-.6.6-.9.1-.3.2-.6.2-.9 0-.2 0-.4-.1-.5zm18.9-1.8v.2c0 .1 0 .2-.1.2 0 .1-.1.2-.1.2l-.2.2c-.1 0-.1.1-.2.1h-6.2l-1 4h5.4c.1 0 .2 0 .2.1s.1.1.1.2v.4c0 .1 0 .2-.1.2 0 .1-.1.1-.1.2s-.1.1-.2.2c-.1 0-.1.1-.2.1H64l-1.2 4.6h6.3c.1 0 .1 0 .2.1s.1.1.1.2v.4c0 .1 0 .2-.1.2s-.1.2-.1.2c0 .1-.1.1-.2.2-.1 0-.1.1-.2.1h-8l-.2-.1c-.1-.1-.1-.1-.1-.2v-.3l2.8-11.3c.1-.3.2-.4.4-.5.2-.1.4-.2.6-.2h7.5c.2 0 .3.1.3.3.1-.1.1 0 .1 0zm15.4 3.5c-.2.4-.4.8-.7 1.1s-.7.6-1.2.9c-.5.3-1.1.5-1.7.6.4.1.8.4 1.1.8.3.4.5.9.6 1.6l.7 2.8c0 .1 0 .2.1.3s0 .2 0 .3c0 .1 0 .1-.1.2 0 0-.1.1-.2.1s-.2 0-.4.1-.4 0-.6 0h-.5c-.1 0-.2 0-.3-.1-.1 0-.1-.1-.1-.1s-.1-.1-.1-.2l-.6-3c-.1-.3-.2-.7-.3-.9s-.3-.5-.5-.7c-.2-.2-.5-.4-.8-.5-.3-.1-.7-.2-1.2-.2h-1.4l-1.4 5.4s0 .1-.1.1-.1.1-.2.1-.2 0-.3.1h-1c-.1 0-.2 0-.3-.1-.1 0-.1-.1-.2-.1v-.1l3-11.8c.1-.3.2-.4.4-.5.2-.1.4-.2.7-.2h3.5c.8 0 1.4.1 2 .2s1 .3 1.4.5c.4.2.7.5.9.8.2.3.3.7.3 1.1-.3.6-.3 1-.5 1.4zm-2.2-1.6c-.1-.2-.3-.4-.5-.5-.2-.1-.5-.2-.8-.3s-.7-.1-1.2-.1h-2.2l-1.1 4.3h1.9c.7 0 1.4-.1 1.9-.2.5-.2.9-.4 1.3-.6s.6-.6.7-.9.2-.7.2-1c0-.3-.1-.5-.2-.7zm27.9 10.1c0 .1-.1.2-.1.2-.1 0-.2.1-.4.1h-1.5c-.1 0-.1-.1-.2-.1l-.1-.1-.6-3.1h-6.6l-2.1 3.1c0 .1-.1.1-.1.2s-.1.1-.2.1-.2 0-.4.1h-1.2c-.1 0-.2 0-.3-.1-.1 0-.1-.1 0-.2 0-.1.1-.2.2-.3l8.3-11.8.2-.2c.1 0 .2-.1.3-.1s.2 0 .4-.1H110.2s.3 0 .4.1c.1 0 .2.1.2.1s.1.1.1.2l2.4 11.8v.1zm-4.2-10.8l-4.3 6.3h5.5l-1.2-6.3zm22.1.2c-.1.2-.1.4-.2.5-.1.1-.2.2-.3.2-.1 0-.3-.1-.4-.2-.2-.1-.4-.3-.6-.4-.3-.1-.6-.3-1-.4s-.9-.2-1.6-.2c-.7 0-1.3.1-1.9.3-.6.2-1.1.5-1.5.8-.5.4-.9.8-1.2 1.2-.3.5-.6.9-.9 1.4-.2.5-.4 1-.5 1.5-.1.5-.2 1-.2 1.5s.1 1 .2 1.4.4.8.7 1c.3.3.7.5 1.1.6.5.1 1 .2 1.5.2.6 0 1.2-.1 1.7-.2s.9-.2 1.2-.4.6-.3.8-.4c.2-.1.4-.2.5-.2.1 0 .2 0 .2.1s.1.1.1.2V302.9c0 .1 0 .2-.1.2s0 .2-.1.2-.1.1-.1.2-.1.1-.2.2-.3.2-.5.3c-.3.1-.6.2-1 .4-.4.1-.8.2-1.3.3-.5.1-1 .1-1.6.1-.8 0-1.6-.1-2.3-.3-.7-.2-1.2-.5-1.7-.9s-.8-.9-1.1-1.5c-.3-.6-.4-1.2-.4-2 0-.6.1-1.3.2-1.9s.4-1.3.7-1.9c.3-.6.7-1.2 1.2-1.8.5-.5 1-1 1.7-1.5.6-.4 1.4-.7 2.1-1 .8-.2 1.7-.4 2.6-.4.6 0 1.2.1 1.7.2s1 .2 1.3.4.6.3.8.4c.2.1.2.3.2.4.3.7.3.9.2 1.1zm16.2 0c-.1.2-.1.4-.2.5-.1.1-.2.2-.3.2-.1 0-.2-.1-.4-.2s-.4-.3-.6-.4-.6-.3-1-.4-.9-.2-1.6-.2c-.7 0-1.3.1-1.9.3-.6.2-1.1.5-1.5.8-.5.4-.9.8-1.2 1.2-.3.5-.6.9-.9 1.4-.2.5-.4 1-.5 1.5-.1.5-.2 1-.2 1.5s.1 1 .2 1.4.4.8.7 1c.3.3.7.5 1.1.6.5.1 1 .2 1.5.2.6 0 1.2-.1 1.7-.2s.9-.2 1.2-.4.6-.3.8-.4c.2-.1.4-.2.5-.2.1 0 .2 0 .2.1s.1.1.1.2V302.9c0 .1 0 .2-.1.2 0 .1 0 .2-.1.2s-.1.1-.1.2-.1.1-.2.2-.3.2-.5.3c-.3.1-.6.2-1 .4-.4.1-.8.2-1.3.3s-1 .1-1.6.1c-.8 0-1.6-.1-2.3-.3-.7-.2-1.2-.5-1.7-.9s-.8-.9-1.1-1.5-.4-1.2-.4-2c0-.6.1-1.3.2-1.9s.4-1.3.7-1.9c.3-.6.7-1.2 1.2-1.8.5-.5 1-1 1.7-1.5.6-.4 1.4-.7 2.1-1 .8-.2 1.7-.4 2.6-.4.6 0 1.2.1 1.7.2s1 .2 1.3.4l.8.4s.2.3.2.4c.3.7.2.9.2 1.1zm14.9-1.4v.2c0 .1 0 .2-.1.2 0 .1-.1.2-.1.2l-.2.2c-.1 0-.1.1-.2.1h-6.2l-1 4h5.4c.1 0 .2 0 .2.1s.1.1.1.2v.4c0 .1 0 .2-.1.2 0 .1-.1.1-.1.2s-.1.1-.2.2c-.1 0-.1.1-.2.1h-5.3l-1.2 4.6h6.3c.1 0 .1 0 .2.1s.1.1.1.2v.4c0 .1 0 .2-.1.2s-.1.2-.1.2l-.2.2c-.1 0-.1.1-.2.1h-8l-.2-.1c-.1-.1-.1-.1-.1-.2v-.3l2.8-11.3c.1-.3.2-.4.4-.5.2-.1.4-.2.6-.2h7.5c.2 0 .3.1.3.3-.1-.1-.1 0-.1 0zm12 11.3v.2c0 .1 0 .2-.1.3 0 .1-.1.2-.1.2l-.2.2s-.1.1-.2.1h-7.3l-.2-.1c-.1-.1-.1-.1-.1-.2v-.3l2.9-11.8s0-.1.1-.1.1-.1.2-.1.2 0 .3-.1h1c.1 0 .2 0 .3.1.1 0 .1.1.1.1v.1l-2.7 11h5.7c.1 0 .2 0 .2.1s.1.1.1.2c.1 0 0 0 0 .1zm17-11.3v.2c0 .1 0 .2-.1.2 0 .1-.1.2-.1.2 0 .1-.1.1-.2.2-.1 0-.1.1-.2.1h-6.2l-1 4h5.4c.1 0 .2 0 .2.1s.1.1.1.2v.4c0 .1 0 .2-.1.2 0 .1-.1.1-.1.2s-.1.1-.2.2c-.1 0-.1.1-.2.1h-5.3l-1.2 4.6h6.3c.1 0 .1 0 .2.1s.1.1.1.2v.4c0 .1 0 .2-.1.2s-.1.2-.1.2l-.2.2c-.1 0-.1.1-.2.1h-8c-.1 0-.2-.1-.2-.1s-.1-.1-.1-.2v-.3l2.8-11.3c.1-.3.2-.4.4-.5.2-.1.4-.2.6-.2h7.5c.2 0 .3.1.3.3-.1-.1-.1 0-.1 0zm15.4 3.5c-.2.4-.4.8-.7 1.1s-.7.6-1.2.9c-.5.3-1.1.5-1.7.6.4.1.8.4 1.1.8.3.4.5.9.6 1.6l.7 2.8c0 .1 0 .2.1.3v.3c0 .1 0 .1-.1.2 0 0-.1.1-.2.1s-.2 0-.4.1-.4 0-.6 0h-.5c-.1 0-.2 0-.3-.1-.1 0-.1-.1-.1-.1s-.1-.1-.1-.2l-.6-3c-.1-.3-.2-.7-.3-.9-.1-.3-.3-.5-.5-.7-.2-.2-.5-.4-.8-.5-.3-.1-.7-.2-1.2-.2h-1.4l-1.4 5.4s0 .1-.1.1-.1.1-.2.1-.2 0-.3.1h-1c-.1 0-.2 0-.3-.1-.1 0-.1-.1-.2-.1v-.1l3-11.8c.1-.3.2-.4.4-.5.2-.1.4-.2.7-.2h3.5c.8 0 1.4.1 2 .2.6.1 1 .3 1.4.5.4.2.7.5.9.8s.3.7.3 1.1c-.3.6-.4 1-.5 1.4zm-2.2-1.6c-.1-.2-.3-.4-.5-.5s-.5-.2-.8-.3-.7-.1-1.2-.1h-2.2l-1.1 4.3h1.9c.7 0 1.4-.1 1.9-.2.5-.2.9-.4 1.3-.6s.6-.6.7-.9.2-.7.2-1c-.1-.3-.1-.5-.2-.7zm19.1 10.1c0 .1-.1.2-.1.2-.1 0-.2.1-.4.1h-1.5c-.1 0-.1-.1-.2-.1l-.1-.1-.6-3.1h-6.6l-2.1 3.1c0 .1-.1.1-.1.2-.1 0-.1.1-.2.1s-.2 0-.4.1h-1.2c-.1 0-.2 0-.3-.1-.1 0-.1-.1 0-.2 0-.1.1-.2.2-.3l8.3-11.8.2-.2c.1 0 .2-.1.3-.1s.2 0 .4-.1H220.5s.3 0 .4.1c.1 0 .2.1.2.1s.1.1.1.2l2.4 11.8v.1zm-4.2-10.8l-4.3 6.3h5.5l-1.2-6.3zm20.7-1.1v.2c0 .1 0 .2-.1.3 0 .1-.1.2-.1.2 0 .1-.1.1-.2.2-.1 0-.1.1-.2.1H235l-2.8 11c0 .1 0 .1-.1.1s-.1.1-.2.1-.2 0-.3.1h-1c-.1 0-.2 0-.3-.1-.1 0-.1-.1-.1-.1v-.1l2.8-11h-4.5c-.1 0-.2 0-.2-.1s-.1-.1-.1-.2v-.2-.2c0-.1 0-.2.1-.2 0-.1.1-.2.1-.2 0-.1.1-.1.2-.2.1 0 .1-.1.2-.1h11.1c.1 0 .2 0 .2.1s.1.1.1.3c-.1-.2-.1-.1-.1 0zm16.4 5.4c-.1.6-.3 1.3-.6 1.9s-.6 1.3-1.1 1.9c-.4.6-1 1.1-1.7 1.6s-1.4.8-2.3 1.1c-.9.3-1.9.4-3.1.4-.9 0-1.8-.1-2.5-.3s-1.3-.5-1.8-.8c-.5-.4-.8-.8-1.1-1.4s-.4-1.2-.4-1.9c0-.6.1-1.2.2-1.8s.3-1.3.6-1.9c.3-.6.7-1.3 1.1-1.9.5-.6 1-1.1 1.7-1.6s1.4-.8 2.3-1.1c.9-.3 1.9-.4 3.1-.4.9 0 1.7.1 2.4.3.7.2 1.3.5 1.8.9s.8.8 1.1 1.4.4 1.2.4 1.9c.1.5 0 1.1-.1 1.7zm-2.3-2.8c-.1-.4-.3-.7-.6-1-.3-.3-.7-.5-1.1-.6-.5-.2-1-.2-1.7-.2-.9 0-1.6.1-2.2.4-.6.3-1.2.6-1.7 1s-.9.9-1.2 1.4c-.3.5-.6 1-.7 1.6-.2.5-.3 1-.4 1.5-.1.5-.1.9-.1 1.3 0 .5.1.9.2 1.3s.3.7.6 1c.3.3.7.5 1.1.6.5.1 1 .2 1.7.2.8 0 1.6-.1 2.2-.4.6-.2 1.2-.6 1.7-1s.9-.9 1.2-1.4c.3-.5.6-1 .8-1.5.2-.5.3-1 .4-1.5.1-.5.1-.9.1-1.3-.1-.6-.1-1-.3-1.4zm18.9.8c-.2.4-.4.8-.7 1.1-.3.3-.7.6-1.2.9-.5.3-1.1.5-1.7.6.4.1.8.4 1.1.8.3.4.5.9.6 1.6l.7 2.8c0 .1 0 .2.1.3s0 .2 0 .3c0 .1 0 .1-.1.2s-.1.1-.2.1-.2 0-.4.1-.4 0-.6 0h-.5c-.1 0-.2 0-.3-.1-.1 0-.1-.1-.1-.1s-.1-.1-.1-.2l-.6-3c-.1-.3-.2-.7-.3-.9-.1-.3-.3-.5-.5-.7s-.5-.4-.8-.5c-.3-.1-.7-.2-1.2-.2h-1.4l-1.4 5.4s0 .1-.1.1-.1.1-.2.1-.2 0-.3.1h-1c-.1 0-.2 0-.3-.1-.1 0-.1-.1-.2-.1v-.1l3-11.8c.1-.3.2-.4.4-.5.2-.1.4-.2.7-.2h3.5c.8 0 1.4.1 2 .2s1 .3 1.4.5c.4.2.7.5.9.8.2.3.3.7.3 1.1-.3.6-.4 1-.5 1.4zm-2.2-1.6c-.1-.2-.3-.4-.5-.5s-.5-.2-.8-.3c-.3-.1-.7-.1-1.2-.1h-2.2l-1.1 4.3h1.9c.7 0 1.4-.1 1.9-.2.5-.2.9-.4 1.3-.6.3-.3.6-.6.7-.9.2-.3.2-.7.2-1-.1-.3-.1-.5-.2-.7z"/><path class="st1" d="M295.8 237.5l-1.9 4.4-1.8-4.4h-2.2v6.9h1.4v-5.7l2.2 5.7h.7l2.3-5.7v5.7h1.4v-6.9h-2.1zm-12.6 0v1.2h2.2v5.7h1.5v-5.7h2.1v-1.2h-5.8z"/></svg>