<svg id="Layer_1" data-name="Layer 1" xmlns="http://www.w3.org/2000/svg" viewBox="0 0 65.5 32.88"><defs><style>.cls-1{fill:#00aabc}.cls-2{fill:#818285}.cls-3{fill:#828386}.cls-4{fill:#818284}.cls-5{fill:#808184}</style></defs><title>_massChallenge</title><g id="rg7h4w.tif"><path class="cls-1" d="M313.57 283.55l.43.06a12.09 12.09 0 0 1 4.31 1.15 11.46 11.46 0 0 1 3.05 2.22l-3.12 3.59c-.54-.41-1.06-.82-1.6-1.19a7 7 0 0 0-2.86-1.21A6.32 6.32 0 0 0 308 290a6.82 6.82 0 0 0-1.91 3.87 7.77 7.77 0 0 0 .62 4.6 6.29 6.29 0 0 0 4.06 3.54 7.39 7.39 0 0 0 6.75-1.64c.3-.24.59-.49.85-.71l3.19 3.11c-.34.35-.65.69-1 1a10.82 10.82 0 0 1-3.73 2.33 11.83 11.83 0 0 1-3.14.65 14.79 14.79 0 0 1-2.81 0 11.24 11.24 0 0 1-5.57-2.21 11 11 0 0 1-4.24-6.77 11.73 11.73 0 0 1 .79-7.46 11.08 11.08 0 0 1 8-6.43c.59-.13 1.2-.16 1.8-.24H313.58z" transform="translate(-267.37 -283.55)"/><path class="cls-2" d="M267.37 311.39h1.11a.21.21 0 0 1 .14.1l1.14 1.82.1.15c.34-.55.7-1.07 1-1.62a.73.73 0 0 1 .85-.47 4 4 0 0 0 .63 0v4.95h-1.06v-3.16l-1.39 2.1-1.39-2.1v3.18h-1.09v-4.94zM325.53 316.43l-.32-.08a2.46 2.46 0 0 1-1.9-2.51 2.55 2.55 0 0 1 2.58-2.54 2.84 2.84 0 0 1 1.82.55l.16.13-.69.83-.17-.12a1.71 1.71 0 0 0-1.37-.35 1.47 1.47 0 0 0-1.18 1.35 1.53 1.53 0 0 0 .84 1.61 1.69 1.69 0 0 0 1.58-.1.17.17 0 0 0 .09-.12v-.65h-1.07v-.93h2.16v1.97a.3.3 0 0 1-.13.28 3.3 3.3 0 0 1-1.51.65H325.53zM332.87 316.33h-3.76v-4.93h3.72v1h-2.64v1h2.32v1h-2.32v1h2.68v.95z" transform="translate(-267.37 -283.55)"/><path class="cls-3" d="M280.63 316.43c-.21 0-.42-.08-.62-.13a2.66 2.66 0 0 1-1.22-.68l.63-.75c.26.15.51.32.78.44a1.51 1.51 0 0 0 1.12.08.4.4 0 0 0 .31-.33.36.36 0 0 0-.24-.46c-.33-.12-.67-.22-1-.33a2.9 2.9 0 0 1-.91-.41 1.11 1.11 0 0 1-.43-.68 1.48 1.48 0 0 1 1.28-1.85 2.82 2.82 0 0 1 2.21.55l.06.05-.56.81c-.22-.11-.42-.23-.64-.33a1.43 1.43 0 0 0-.92-.12.43.43 0 0 0-.38.37.39.39 0 0 0 .29.44c.34.13.7.21 1 .33a4.49 4.49 0 0 1 .78.35 1.19 1.19 0 0 1 .53 1.22 1.37 1.37 0 0 1-.29.76 1.76 1.76 0 0 1-1.17.6h-.62z" transform="translate(-267.37 -283.55)"/><path class="cls-2" d="M285.15 316.43c-.23-.05-.47-.1-.7-.16a2.82 2.82 0 0 1-1.13-.65l.64-.77c.17.11.32.22.49.32a1.73 1.73 0 0 0 1.29.24.7.7 0 0 0 .36-.22.36.36 0 0 0-.12-.54 7.61 7.61 0 0 0-.81-.3c-.28-.09-.57-.16-.84-.27a1.21 1.21 0 0 1-.81-1.15 1.38 1.38 0 0 1 .74-1.37 2.43 2.43 0 0 1 1.92-.1 2.51 2.51 0 0 1 .93.5l-.56.81c-.21-.11-.41-.23-.62-.32a1.45 1.45 0 0 0-.94-.12.42.42 0 0 0-.37.36.39.39 0 0 0 .29.45c.28.1.57.18.86.27a3.15 3.15 0 0 1 1.09.49 1.46 1.46 0 0 1-.22 2.23 2.09 2.09 0 0 1-.83.29h-.64zM290.15 316.43l-.31-.08a2.52 2.52 0 0 1-1.84-2.8 2.47 2.47 0 0 1 2-2.2 2.71 2.71 0 0 1 2.53.71l-.7.81a1.73 1.73 0 0 0-1.6-.52 1.33 1.33 0 0 0-.8.53 1.7 1.7 0 0 0 .17 2.16 1.6 1.6 0 0 0 2.23-.17l.72.69a2.49 2.49 0 0 1-1.51.84h-.89zM297.27 306.37v-14.63l-.84 1.26-4.86 7.36-.56.84c-.09.13-.18.13-.26 0l-6.05-9.2-.12-.17v14.51h-4.89v-22.4h5.18a.22.22 0 0 1 .21.11l2 3.19 1.59 2.55 1.21 1.94 1 1.59.07.08.83-1.32c1.61-2.58 3.22-5.16 4.81-7.75a.73.73 0 0 1 .73-.41h4.86V288.24a.5.5 0 0 1-.08.26 12 12 0 0 0-1.44 3 11.63 11.63 0 0 0-.48 2.21 13.46 13.46 0 0 0-.05 2.54 11.35 11.35 0 0 0 .45 2.46 11.12 11.12 0 0 0 .9 2.16c.2.36.43.7.64 1.06a.39.39 0 0 1 .06.19v4.28h-4.87zM317.95 311.37h.94a.24.24 0 0 1 .14.11l2.1 2.75.12.16v-3h1.1v5a3.73 3.73 0 0 0-.53 0 .63.63 0 0 1-.65-.32c-.66-.9-1.35-1.78-2-2.67l-.12-.14v2.95c0 .14 0 .18-.18.18h-.91v-5zM313.2 316.33v-4.94h3.72v1h-2.64v1h2.32v1h-2.32v1H317v1h-3.8z" transform="translate(-267.37 -283.55)"/><path class="cls-4" d="M297.62 311.4v4.94h-1.07v-.17-1.66c0-.08 0-.15-.12-.15H294.53v2h-1.08v-4.96h1.07v1.93h1.86c.14 0 .16 0 .16-.17v-1.76h1.08z" transform="translate(-267.37 -283.55)"/><path class="cls-2" d="M278.36 316.35h-1.08a.18.18 0 0 1-.11-.11c-.13-.29-.25-.59-.36-.89a.16.16 0 0 0-.19-.12h-1.82a.17.17 0 0 0-.19.12c-.11.29-.24.58-.35.88a.17.17 0 0 1-.19.13h-1l.24-.58 1.82-4.27a.22.22 0 0 1 .25-.17h.71a.15.15 0 0 1 .17.11l2 4.82zm-2.65-3.68l-.64 1.58h1.29zM303.66 316.35h-1.09a.19.19 0 0 1-.11-.11c-.13-.3-.25-.59-.36-.89a.16.16 0 0 0-.18-.11h-1.83a.16.16 0 0 0-.17.12q-.18.45-.36.89a.19.19 0 0 1-.11.11h-1v-.15l2-4.75a.16.16 0 0 1 .18-.12h.74a.18.18 0 0 1 .2.13l1.42 3.34.58 1.37zm-2-2.1l-.66-1.58-.65 1.58h1.3zM309.9 311.39v4h2.46v1h-3.55v-5h1.09z" transform="translate(-267.37 -283.55)"/><path class="cls-5" d="M305.51 315.35H308v1h-3.54v-4.95h1.08v4z" transform="translate(-267.37 -283.55)"/></g></svg>