<svg id="Layer_1" xmlns="http://www.w3.org/2000/svg" viewBox="0 0 197.4 24.5"><style>.st0{fill:#1FA6DB;} .st1{enable-background:new ;} .st2{fill:#231F20;}</style><path class="st0" d="M7.6 10.3c0-.7.2-1.3.5-1.9.8-1.4 2-2.2 3.5-2.6.6-.1 1.2-.1 1.8 0 .3 0 .5 0 .7-.2 1.1-1.2 2.3-2.2 3.9-2.8 1-.3 2-.5 3.1-.4.3 0 .3.2.4.4.4 2.7-.4 4.9-2.2 6.9l-.3.3c-.3.2-.3.5-.2.9.3.9.2 1.9-.2 2.7-.5 1.2-1.3 2.3-2.5 2.9-.3.1-.6.3-.9.3h-.4c-.1-.1 0-.2 0-.4.1-.5.2-1.1.1-1.6 0-.5-.3-.6-.8-.4-.4.2-.7.3-1.1.3-.5.1-.9 0-1.2-.4-.4-.5-.9-.9-1.4-1.3-.7-.5-.7-1.2-.5-1.9.1-.2.1-.4.2-.6.1-.4 0-.5-.4-.6-.5-.1-1.1 0-1.6.2-.2 0-.3.1-.5.2zm9.2-4.6c-1.1-.1-1.8.9-1.8 1.7 0 1 .6 1.8 1.8 1.8 1 0 1.8-.8 1.8-1.8-.1-.8-.8-1.8-1.8-1.7z"/><path class="st0" d="M18 1.2c-.2.1-.4.2-.5.3-.3.1-.6.2-.9.4-.5.3-.9.3-1.4.1-1.8-.5-3.6-.5-5.5 0-2.3.6-4.2 1.8-5.6 3.6C2.9 7 2.3 8.7 1.9 10.5c-.3 2 0 3.8.6 5.6.2.5.4.9.7 1.3.2.3.2.6.1.9s-.3.7-.4 1c0 .1-.1.2-.2.3-.1-.1-.3-.1-.3-.2-.5-.9-1.1-1.8-1.5-2.7-.7-1.8-1-3.7-.8-5.6.5-4.2 2.6-7.5 6.3-9.6C8.5.3 10.8-.2 13.1 0c1.6.1 3.2.5 4.7 1.2 0-.1.1-.1.2 0z"/><path class="st0" d="M22.9 5.7c.3.5.5 1 .8 1.5.8 1.8 1.2 3.7 1 5.6-.3 4.3-2.3 7.7-6 9.9-2.4 1.5-5 2-7.8 1.7-1.7-.2-3.4-.7-4.9-1.6l-.3-.3.3-.3c.1-.1.3-.1.5-.2.7-.5 1.4-.3 2.2 0 1.7.6 3.4.8 5.2.5 1.7-.3 3.3-.9 4.7-1.9 1.6-1.2 2.9-2.8 3.6-4.8s.9-4 .5-6c-.1-.6-.4-1.1-.5-1.7-.1-.2-.1-.5 0-.7l.6-1.8c0 .1.1.1.1.1z"/><path class="st0" d="M3.4 21.9c.1-.3.2-.6.2-.8.7-2.1 1.5-4.1 2.7-6 .5-.7 1-1.3 1.8-1.5.6-.2 1.1-.2 1.6.2.4.3.8.7 1.2 1 .6.6.5 1.8 0 2.6-.6.8-1.4 1.4-2.2 1.9-1.5 1-3.2 1.8-4.9 2.5-.1 0-.2.1-.4.1z"/><g class="st1"><path class="st2" d="M48.4 5.1l-7 10.7h-.5l-7-10.7v16.2h-1.4V3.1h1.7l7 10.6L48 3.1h1.7v18.2h-1.4l.1-16.2z"/><path class="st2" d="M53.8 21.3V3.1h1.4v18.2h-1.4z"/><path class="st2" d="M73.5 6.5c-1.6-1.6-3.8-2.3-5.8-2.3-5.3 0-8.1 3.9-8 8.1 0 4.3 2.7 8 8 8 1.9 0 4-.7 5.5-2.1V13h-6.3v-1.2h7.7v6.8c-1.9 1.9-4.2 2.9-6.9 2.9-6.2 0-9.4-4.3-9.4-9.3 0-5.7 3.8-9.4 9.4-9.4 2.4 0 4.8.9 6.7 2.7l-.9 1z"/><path class="st2" d="M91.3 21.3V13H79.7v8.3h-1.4V3.1h1.4v8.7h11.6V3.1h1.4v18.2h-1.4z"/></g><path class="st1 st2" d="M104.8 4.4h-6.6V3.1h14.6v1.2h-6.6v16.9h-1.4V4.4z"/><g class="st1"><path class="st2" d="M117.1 14L110 3.1h1.6l6.2 9.6 6.2-9.6h1.6L118.5 14v7.3h-1.4V14z"/></g><g class="st1"><path class="st2" d="M136.4 3.1V20h10.2v1.3H135V3.1h1.4z"/></g><g class="st1"><path class="st2" d="M162.4 21.3l-2-4.5h-10.9l-2 4.5H146l8.2-18.2h1.5l8.2 18.2h-1.5zm-2.6-5.8l-4.9-11.1-4.9 11.1h9.8z"/><path class="st2" d="M179.4 8.1c0 1.9-1.1 3.3-3 3.9 2.3.6 3.6 2.5 3.6 4.6 0 3.7-3.5 4.8-6.6 4.8h-7.5V3.1h7.5c3.1 0 6 1.5 6 5zm-12.1 3.2h6.2c2.2 0 4.5-.7 4.5-3.3 0-2.7-2.4-3.8-4.7-3.8h-6.1v7.1zm0 8.6h6.1c2.3 0 5.2-.5 5.2-3.4 0-2.8-2.6-3.8-5-3.8h-6.2l-.1 7.2z"/><path class="st2" d="M195.7 6.6c-1.3-2.1-3.5-2.4-5.5-2.5-2.1 0-5.5.8-5.5 3.7 0 2.3 2.5 2.9 5.6 3.4 3.5.7 7.1 1.3 7.1 5.2 0 4.1-4.2 5.1-7.2 5.1-2.8 0-6.1-1.2-7.5-4l1.3-.5c1.1 2.2 4 3.3 6.2 3.3s5.8-.6 5.8-3.8c0-2.7-3-3.3-6-3.9-3.3-.6-6.7-1.3-6.7-4.7-.1-3.8 3.9-5 6.9-5 2.6 0 4.9.4 6.7 3.1l-1.2.6z"/></g></svg>