<svg id="Layer_1" data-name="Layer 1" xmlns="http://www.w3.org/2000/svg" viewBox="0 0 246.85 112.11"><defs><style>.cls-1{fill:#0193d6;}.cls-2{fill:#5e5e5e;}.cls-3{fill:#606060;}.cls-4{fill:#b7a8a8;}.cls-5{fill:#c0161c;}.cls-6{fill:#c0181e;}.cls-7{fill:#d13239;}.cls-8{fill:#7a8c8c;}.cls-9{fill:#8f1c17;}</style></defs><title>_nasscom</title><g id="XemlOV.tif"><path class="cls-1" d="M246.72 54.25a14.55 14.55 0 0 1-6.82 11.06 19.82 19.82 0 0 1-5.51 2.33 32.85 32.85 0 0 1-5 .9 47.65 47.65 0 0 1-7.08.23 34.25 34.25 0 0 1-9-1.41 20.25 20.25 0 0 1-3.92-1.67 14.38 14.38 0 0 1-7.05-9.22 23.76 23.76 0 0 1-.69-5.08v-.87-31.71a24 24 0 0 1 .56-5.39 15.25 15.25 0 0 1 2.66-5.89 15 15 0 0 1 5.67-4.5 24.41 24.41 0 0 1 6.06-1.88 45.57 45.57 0 0 1 9.59-.6 36.63 36.63 0 0 1 7.24.89 22 22 0 0 1 5.29 1.9 14.47 14.47 0 0 1 7.65 9.84 9.49 9.49 0 0 1 .32 1.92 1.43 1.43 0 0 0 .12.81v37.51a1.31 1.31 0 0 0-.09.83zm-14.49-19.59V21.2v-1.81a9.36 9.36 0 0 0-.42-2.42 4.36 4.36 0 0 0-2.61-2.82 9.17 9.17 0 0 0-2.09-.55 20.37 20.37 0 0 0-3.75-.14 17.6 17.6 0 0 0-1.94.18 7.5 7.5 0 0 0-2 .57 4.25 4.25 0 0 0-2.39 2.57 8.11 8.11 0 0 0-.27 1 15.93 15.93 0 0 0-.34 3.27v28.3a12.4 12.4 0 0 0 .4 2.79 4.42 4.42 0 0 0 2.76 3 9.48 9.48 0 0 0 2.46.56 21.29 21.29 0 0 0 4.55 0 9.41 9.41 0 0 0 2.53-.59 4.3 4.3 0 0 0 2.59-2.75 11.2 11.2 0 0 0 .33-1.41 14.93 14.93 0 0 0 .15-2.81q.04-6.71.04-13.48z"/><path class="cls-2" d="M159.65 112.1a1.07 1.07 0 0 0-.22-.16c-.2-.08-.41-.14-.61-.22a2.51 2.51 0 0 1-1.64-2.27v-.36-3.84a3.82 3.82 0 0 1 .06-.79 2.6 2.6 0 0 1 2.11-2 5.83 5.83 0 0 1 2.8 0 2.61 2.61 0 0 1 2.2 2.52v4.41a2.59 2.59 0 0 1-2 2.49.89.89 0 0 0-.57.26h-2.17zm2.9-4.92v-.94-1.08a1.18 1.18 0 0 0-1-1.19 3 3 0 0 0-1.29-.08 1.34 1.34 0 0 0-1.34 1.49v3.46a3.8 3.8 0 0 0 .06.57 1.1 1.1 0 0 0 .82.92 3 3 0 0 0 1.85 0 1.14 1.14 0 0 0 .84-1 3.59 3.59 0 0 0 0-.5c.06-.54.06-1.09.06-1.64zM132.71 112.1a.88.88 0 0 0-.64-.26c-.34-.11-.69-.2-1.05-.3a4.54 4.54 0 0 1 .25-1.45c1.34.26 2.62.68 3.93.18a2.17 2.17 0 0 0 .1-1.87 2.52 2.52 0 0 0-1.18-.49c-.44-.12-.9-.2-1.33-.33a2 2 0 0 1-1.68-2.2 8.91 8.91 0 0 1 0-1 2 2 0 0 1 1.72-2 7 7 0 0 1 2.23-.12 9.09 9.09 0 0 1 1.92.3 1.46 1.46 0 0 1 0 .73l-.12.74c-.36 0-.69-.1-1-.12-.62 0-1.25-.08-1.88-.1a1.12 1.12 0 0 0-.9.34 2.34 2.34 0 0 0 0 1.55 1.17 1.17 0 0 0 .75.46c.51.14 1 .26 1.54.41a8.29 8.29 0 0 1 1.05.48 1.4 1.4 0 0 1 .82 1.2 8.34 8.34 0 0 1 0 2 1.83 1.83 0 0 1-1.24 1.56 2.11 2.11 0 0 0-.78.32h-2.46zM141.28 111.94a5.56 5.56 0 0 1-1.47-.47 5.42 5.42 0 0 1 .31-1.36l.41.09a9.11 9.11 0 0 0 2.5.31 1.86 1.86 0 0 0 1-.3 2 2 0 0 0 .05-1.82 2.82 2.82 0 0 0-1.19-.48c-.44-.11-.9-.2-1.33-.33a1.93 1.93 0 0 1-1.65-2.14v-.94a2.07 2.07 0 0 1 1.82-2.1 7 7 0 0 1 2.09-.11c.65.05 1.29.16 1.95.24a4.15 4.15 0 0 1-.12 1.54c-.37 0-.7-.11-1-.13q-.94-.07-1.87-.1a1.07 1.07 0 0 0-.89.35 2.37 2.37 0 0 0 0 1.54 1.22 1.22 0 0 0 .76.45c.51.14 1 .26 1.53.41a8.21 8.21 0 0 1 1.08.41 1.34 1.34 0 0 1 .81 1.2 15.68 15.68 0 0 1 0 1.95 1.81 1.81 0 0 1-1.31 1.65 1.4 1.4 0 0 0-.72.29h-2a.84.84 0 0 0-.76-.15z"/><path class="cls-3" d="M150.96 112.1a.32.32 0 0 0-.32-.23 2.39 2.39 0 0 1-1.85-2.59v-4.19a4.27 4.27 0 0 1 0-.43 2.28 2.28 0 0 1 1.67-2.13 5.18 5.18 0 0 1 1.13-.23 9.21 9.21 0 0 1 3.08.29 1.73 1.73 0 0 1 0 .81c0 .23-.08.47-.13.74h-.52c-.58 0-1.15-.11-1.73-.14a3.22 3.22 0 0 0-.72.05 1 1 0 0 0-.92 1 5 5 0 0 0 0 .65V109.31a1.08 1.08 0 0 0 1.19 1.17c.65 0 1.3 0 1.95-.08.24 0 .47-.06.7-.09a3.06 3.06 0 0 1 .22 1.54c-.26.06-.54.12-.81.2a1.66 1.66 0 0 0-.3.15h-2.61z"/><path class="cls-2" d="M242.79 112.1a.46.46 0 0 0-.4-.25 2 2 0 0 1-1.46-2 24.65 24.65 0 0 1 0-2.82 2.18 2.18 0 0 1 1.82-2.14 4.37 4.37 0 0 1 2.15 0 2 2 0 0 1 1.5 1.6 7.79 7.79 0 0 1 0 2.48 3.11 3.11 0 0 1-.4.05H242.68a1.18 1.18 0 0 0 0 .81.78.78 0 0 0 .58.59 2.68 2.68 0 0 0 1.07.09c.43-.06.86-.14 1.28-.2l.43-.06a4.87 4.87 0 0 1 .3 1.22 2 2 0 0 1-.68.27 1.31 1.31 0 0 0-.72.27h-2.17zm-.11-4.39c.74 0 1.41 0 2.09-.05a1 1 0 0 0-.35-1.23 1.3 1.3 0 0 0-1.31 0 1.1 1.1 0 0 0-.43 1.28z"/><path class="cls-3" d="M214.83 112.1a2.32 2.32 0 0 0-.3-.27 1.72 1.72 0 0 1-.76-1.1 3.15 3.15 0 0 1 0-1.36 1.46 1.46 0 0 1 1.42-1.31h1.37a1.68 1.68 0 0 0 .78-.07 2.21 2.21 0 0 0 0-1.29.87.87 0 0 0-.81-.37c-.55 0-1.11 0-1.66.08-.19 0-.38 0-.56.07a2.07 2.07 0 0 1-.23-1.28 2.87 2.87 0 0 1 1.24-.28c.6-.05 1.2 0 1.81 0a2.47 2.47 0 0 1 .5.08 1.79 1.79 0 0 1 1.53 1.68 6.68 6.68 0 0 1 .06.72v4.19a3.15 3.15 0 0 1 0 .32 4.36 4.36 0 0 1-1.3.08l-.32-.41a8.58 8.58 0 0 0-1.21.58h-1.45zm.59-1.75a.72.72 0 0 0 .7.3 2.06 2.06 0 0 0 1.21-.38 1.59 1.59 0 0 0-.06-.94 5.42 5.42 0 0 0-1.7.06 1 1 0 0 0-.15.96z"/><path class="cls-2" d="M204.26 112.1a.28.28 0 0 0-.23-.24 1.51 1.51 0 0 1-.85-1.26 5.14 5.14 0 0 1 0-.65v-2.9-.67l-1-.1v-.6-.68l.95-.09c.14-.55 0-1.09.1-1.62a1.21 1.21 0 0 1 .26-.1l1.39-.19c.18.63 0 1.26.13 1.87a1.83 1.83 0 0 0 .86.09 2.76 2.76 0 0 1 .83.07 7.86 7.86 0 0 1-.09 1.2 1.34 1.34 0 0 1-.78.1 3.72 3.72 0 0 0-.78 0 .78.78 0 0 0-.08.22v3.4a1.37 1.37 0 0 0 .08.33 1.92 1.92 0 0 0 1.37.19c0 .19.1.4.13.6s0 .38.07.53c-.14.27-.48.17-.57.43h-1.74zM223.52 112.1a2 2 0 0 0-.32-.25 1.52 1.52 0 0 1-.82-1.28 4.57 4.57 0 0 1 0-.58v-2.82-.69a3.49 3.49 0 0 0-1-.2 3.75 3.75 0 0 1 0-1.28l.9-.06a16.27 16.27 0 0 0 .13-1.65 7.65 7.65 0 0 1 1.64-.27c.13.63 0 1.23.09 1.86a2.15 2.15 0 0 0 .4.08h1.21a2.09 2.09 0 0 1 0 1.32c-.49.15-1 0-1.53.11a31.42 31.42 0 0 0-.07 3.64 1.78 1.78 0 0 0 .12.37 2 2 0 0 0 1.31.11 5.1 5.1 0 0 1 .25 1.2l-.68.39h-1.63z"/><path class="cls-4" d="M58.59.12a.18.18 0 0 0 0-.13h5.36a.16.16 0 0 0 0 .13h-.14c-1.66-.07-3.32-.07-5 0zM172.01.12a.2.2 0 0 0 0-.13h4.35a.08.08 0 0 1 0 .09h-4.27zM122.71 0h3a.05.05 0 0 1 0 .08h-3a.05.05 0 0 1 0-.08zM246.72 54.25a1.31 1.31 0 0 1 .13-.81v.87zM246.84 15.93a1.43 1.43 0 0 1-.12-.81l.12-.06v.87zM141.28 111.94a.84.84 0 0 1 .69.16h-.72z"/><path class="cls-1" d="M58.59.12h.14c1.66-.07 3.32-.06 5 0h.14a38.31 38.31 0 0 1 6.55.93 22.39 22.39 0 0 1 5.16 1.86 14.53 14.53 0 0 1 7.79 10.24 23.19 23.19 0 0 1 .52 5V50.3a21.7 21.7 0 0 1-.9 6.43 14.31 14.31 0 0 1-7 8.62 22 22 0 0 1-5.89 2.14 37.35 37.35 0 0 1-5.66.76q-2.35.15-4.7.08a36.71 36.71 0 0 1-8.44-1.13 20.73 20.73 0 0 1-5.21-2.12 14.39 14.39 0 0 1-6.84-9.29 23.19 23.19 0 0 1-.62-5.67V32.6 18.26a23 23 0 0 1 .61-5.6 14.43 14.43 0 0 1 7.39-9.63A22.5 22.5 0 0 1 52.75.86a39.45 39.45 0 0 1 5.84-.74zm10.49 34.12V20.7c0-.82 0-1.64-.12-2.46a8.89 8.89 0 0 0-.33-1.63 4.34 4.34 0 0 0-2.76-3 9.19 9.19 0 0 0-2-.49 22.24 22.24 0 0 0-4.41-.11 10.53 10.53 0 0 0-2.7.48 4.52 4.52 0 0 0-3.19 3.43 13.16 13.16 0 0 0-.31 3.16v29.55a8.93 8.93 0 0 0 .42 2.27 4.26 4.26 0 0 0 2.58 2.75 9 9 0 0 0 1.67.47 19 19 0 0 0 5.63.12 11.44 11.44 0 0 0 1.7-.35 4.58 4.58 0 0 0 3.46-3.7v-.29a17.64 17.64 0 0 0 .24-3.17q.12-6.68.12-13.49zM125.73.05h1.32c1 .11 2.07.19 3.09.32a25.93 25.93 0 0 1 7.59 2 15.07 15.07 0 0 1 6 4.74 15.24 15.24 0 0 1 2.56 5.7 21.83 21.83 0 0 1 .57 4.95v32.72a21.1 21.1 0 0 1-.83 5.93 14.34 14.34 0 0 1-7.35 9 22.11 22.11 0 0 1-5.64 2 37.84 37.84 0 0 1-5.73.77q-2.42.15-4.85.07a36.5 36.5 0 0 1-8.3-1.13 21.06 21.06 0 0 1-4.83-1.92 14.42 14.42 0 0 1-7.21-9.68 22.08 22.08 0 0 1-.58-5.09V17.85a21.35 21.35 0 0 1 .83-6 14.34 14.34 0 0 1 7.35-9 22.64 22.64 0 0 1 5.92-2.07 40.14 40.14 0 0 1 5.37-.71h4.18c.23.03.38-.02.54-.02zm-9.4 34.18v14.99a10.3 10.3 0 0 0 .43 2.64 4.39 4.39 0 0 0 2.74 2.89 9.46 9.46 0 0 0 2.32.54 20.55 20.55 0 0 0 4.77 0 8.64 8.64 0 0 0 2.65-.68 4.27 4.27 0 0 0 2.3-2.47 8.23 8.23 0 0 0 .42-1.75 18.75 18.75 0 0 0 .13-2.6V20.63v-.8c0-.67-.06-1.35-.16-2a8.51 8.51 0 0 0-.44-1.67 4.05 4.05 0 0 0-2.25-2.34 6.66 6.66 0 0 0-1.44-.47 17.93 17.93 0 0 0-2.38-.3 19.88 19.88 0 0 0-4 .13 8.57 8.57 0 0 0-2.23.6 4.24 4.24 0 0 0-2.34 2.44 7.61 7.61 0 0 0-.29 1 13.11 13.11 0 0 0-.28 3q.06 7.01.06 14.03zM176.27.05h1c1 .11 2.07.19 3.09.32a26.36 26.36 0 0 1 7.26 1.88 16.69 16.69 0 0 1 4 2.42 14.21 14.21 0 0 1 4.57 6.9 20.24 20.24 0 0 1 .79 4 29.88 29.88 0 0 1 .13 3.11v31.21a25.29 25.29 0 0 1-.45 5 15.24 15.24 0 0 1-3.18 6.89 15.43 15.43 0 0 1-5.73 4.2 24.92 24.92 0 0 1-6 1.73 44.87 44.87 0 0 1-9.31.54 36 36 0 0 1-8-1.11 22.09 22.09 0 0 1-4.19-1.57 14.5 14.5 0 0 1-7.83-10.06 21.77 21.77 0 0 1-.56-5V17.85a21 21 0 0 1 .89-6.21 14.45 14.45 0 0 1 8-9.08 24.19 24.19 0 0 1 6.06-1.89 41.91 41.91 0 0 1 5.25-.59H175.76zm6.15 34.22V20.45v-1.37a9.72 9.72 0 0 0-.46-2.63 4.28 4.28 0 0 0-2.54-2.7 7.31 7.31 0 0 0-1.24-.4 19.48 19.48 0 0 0-6.76-.11 7 7 0 0 0-1.8.52 4.26 4.26 0 0 0-2.39 2.49 7.8 7.8 0 0 0-.3 1 15.18 15.18 0 0 0-.27 3.31V49a11.8 11.8 0 0 0 .4 2.71 4.41 4.41 0 0 0 2.78 3 10.06 10.06 0 0 0 2.53.56 20.79 20.79 0 0 0 4.33 0 9 9 0 0 0 2.87-.7 4.21 4.21 0 0 0 2.28-2.4 7.2 7.2 0 0 0 .28-.9 12.88 12.88 0 0 0 .3-3q-.01-6.98-.01-14zM32.57 67.31H17.93a3.39 3.39 0 0 1-.08-.42v-.65-47.88a.89.89 0 0 0-.68.23l-7.75 4.17-3.1 1.67-.09-.05a.17.17 0 0 1-.05 0L.01 12.58a.94.94 0 0 1-.06-.18.53.53 0 0 1 0-.09.14.14 0 0 1 0-.06l19.19-11.1h13.25a.73.73 0 0 1 .1.2v65.66a2.87 2.87 0 0 1 .08.3z"/><path class="cls-5" d="M93.89 65.18h.14a1.26 1.26 0 0 1-.19.82c-1 3-2.08 6-3.13 8.93l-3.39 9.68c-.08.22-.17.44-.27.71-.29-.07-.57-.12-.85-.19l-4-1.07a2.44 2.44 0 0 0-.29 0l-.62-.15c-1.54-.41-3.08-.83-4.63-1.23a3.32 3.32 0 0 0-1.26-.21.53.53 0 0 1 .22-.44c.36-.32.73-.62 1.08-.95.51-.47 1-1 1.54-1.42.78-.64 1.49-1.36 2.23-2.05l2.22-2.06h.05c.82-.56 1.43-1.35 2.21-2 .55-.43 1-1 1.54-1.41.76-.62 1.45-1.33 2.17-2l2.27-2.11c.07-.07.16-.11.23-.18l1.33-1.31.29-.29.53-.35a.65.65 0 0 0 .34-.51.06.06 0 0 1 .08 0z"/><path class="cls-6" d="M108.42 84.17h-1.89c-.06 1.49 0 2.93 0 4.41a2.45 2.45 0 0 1-.4.07h-2.72a.75.75 0 0 1-.14-.65v-6.08-7a1.3 1.3 0 0 1 .09-.73H109.42a7.64 7.64 0 0 1 2.14.29 3.17 3.17 0 0 1 2.45 2.89 17.37 17.37 0 0 1 0 3.39 3.28 3.28 0 0 1-1.8 2.86 1.21 1.21 0 0 0-.19.17c.33.56.73 1.07 1.1 1.6s.75 1.06 1.13 1.6l1.12 1.6a16 16 0 0 1-3.79.09c-.56-.69-1.05-1.45-1.59-2.19zm-1.84-7.1a30 30 0 0 0 0 4.16.13.13 0 0 0 .05 0h3.1a1.1 1.1 0 0 0 1.09-1.2 16.71 16.71 0 0 0 0-1.73 1.14 1.14 0 0 0-1-1.2 2 2 0 0 0-.43-.05h-2.78z"/><path class="cls-5" d="M187.71 74.21a19.92 19.92 0 0 1 3.23 0v10.18a5.1 5.1 0 0 1-.1 1.08 3.89 3.89 0 0 1-2.42 2.88 7.67 7.67 0 0 1-3.55.51 7.37 7.37 0 0 1-2.05-.39 4 4 0 0 1-2.8-3.9v-10-.34a15 15 0 0 1 3.22 0V83.69a5.91 5.91 0 0 0 0 .86 1.46 1.46 0 0 0 1.24 1.32 4.06 4.06 0 0 0 1.87 0 1.42 1.42 0 0 0 1.18-1.22 5.92 5.92 0 0 0 .06-.86v-9.58zM212.59 84.31v4.27a16.07 16.07 0 0 1-3.19 0c-.1-.69-.13-7.93-.07-13.88v-.53H215.52a7.1 7.1 0 0 1 1.86.24 3.19 3.19 0 0 1 2.64 3.12 23.09 23.09 0 0 1 0 3.33 3.24 3.24 0 0 1-2.57 3.13 7.75 7.75 0 0 1-2.22.3h-2.17c-.14-.02-.28.01-.47.02zm0-2.92h3a1.72 1.72 0 0 0 .49-.11.94.94 0 0 0 .68-.77 7.8 7.8 0 0 0 0-2.52.94.94 0 0 0-.74-.8 3.87 3.87 0 0 0-.85-.13H212.6c-.03 1.47-.03 2.86-.03 4.34z"/><path class="cls-6" d="M236.42 87.96c.11-.88.32-1.66.51-2.51a4.11 4.11 0 0 1 .43.08 12.91 12.91 0 0 0 3.41.55 10.1 10.1 0 0 0 1.3-.05 1 1 0 0 0 1-1.09 8.65 8.65 0 0 0 0-.87 1 1 0 0 0-.76-1c-.39-.13-.78-.24-1.18-.34-.61-.15-1.22-.28-1.82-.45a8.44 8.44 0 0 1-1-.37 2.5 2.5 0 0 1-1.57-2.09 10.56 10.56 0 0 1 0-3.1 2.79 2.79 0 0 1 2.08-2.43 8.87 8.87 0 0 1 2.36-.32 20.51 20.51 0 0 1 4.6.41.9.9 0 0 1 .19.09 10.13 10.13 0 0 1-.28 2.68 6.21 6.21 0 0 1-1-.12 16.55 16.55 0 0 0-3.24-.23 4.78 4.78 0 0 0-.78.11.8.8 0 0 0-.66.76 7 7 0 0 0 0 1.15.81.81 0 0 0 .53.72 8 8 0 0 0 .89.3c.74.2 1.5.37 2.23.59a9.18 9.18 0 0 1 1.4.57 2.29 2.29 0 0 1 1.29 1.89 11.74 11.74 0 0 1 0 3 3 3 0 0 1-2.24 2.64 9.34 9.34 0 0 1-2.28.34 12.29 12.29 0 0 1-4.7-.65zM17.71 87.9a.77.77 0 0 1 0-.2c.15-.73.31-1.46.48-2.23a2.9 2.9 0 0 1 .42.06 12.81 12.81 0 0 0 3.41.56 10.13 10.13 0 0 0 1.3-.05 1 1 0 0 0 1-1.08 8.94 8.94 0 0 0 0-1 .88.88 0 0 0-.53-.8 4.81 4.81 0 0 0-.81-.29c-.77-.2-1.54-.37-2.31-.58a8.49 8.49 0 0 1-1-.35 2.56 2.56 0 0 1-1.66-2.19 11 11 0 0 1 0-3 2.79 2.79 0 0 1 2.07-2.43 8.89 8.89 0 0 1 2.36-.32 20.51 20.51 0 0 1 4.6.41.91.91 0 0 1 .19.09 9.7 9.7 0 0 1-.27 2.68 6 6 0 0 1-1-.11 16.72 16.72 0 0 0-3.24-.24 4.86 4.86 0 0 0-.72.08.84.84 0 0 0-.73.78 2.76 2.76 0 0 0 .13 1.54 1.44 1.44 0 0 0 .87.51c.7.18 1.4.35 2.1.55.53.15 1.06.33 1.57.53a2.52 2.52 0 0 1 1.71 2.29 12.39 12.39 0 0 1 0 2.89 3 3 0 0 1-2.15 2.56 8.77 8.77 0 0 1-2.13.35 12.62 12.62 0 0 1-5.05-.67 3.77 3.77 0 0 1-.4-.17.52.52 0 0 1-.21-.17z"/><path class="cls-5" d="M71.5 81.16l-3.63-.94-2.65-.71-.44-.15a1.19 1.19 0 0 1 .59-.38l21.56-10.46 5.26-2.55c.17-.08.35-.15.53-.22v.44a.26.26 0 0 0-.29.29 1.23 1.23 0 0 0-.89.41c-1.29.91-2.57 1.84-3.86 2.77l-2.26 1.57-3.44 2.49-2.23 1.58-3.74 2.69c-.84.6-1.67 1.21-2.51 1.8-.63.47-1.32.92-2 1.37z"/><path class="cls-6" d="M56.79 74.19a13.35 13.35 0 0 1 0 2.84 17.85 17.85 0 0 1-1.86 0h-1.89a2.25 2.25 0 0 0-.07.82v10.68a16 16 0 0 1-3.24 0v-.76-9.91-.82a8 8 0 0 0-1.24 0h-2.57a9.79 9.79 0 0 1-.07-2.85 1.89 1.89 0 0 1 .32-.05h10.35a2.52 2.52 0 0 1 .27.05zM138.78 88.64h-3.19a1 1 0 0 1-.1-.71V77.1c-.2 0-.36-.05-.52-.05h-3.34c-.06-.94 0-1.85 0-2.8a2.25 2.25 0 0 1 .36-.06h10.35a2.41 2.41 0 0 1 .27 0 11.23 11.23 0 0 1 0 2.84 8 8 0 0 1-1.2 0h-2.53a1.46 1.46 0 0 0-.09.8V88.6z"/><path class="cls-2" d="M169.03 111.9a11.25 11.25 0 0 1-1.69 0 17.26 17.26 0 0 1 0-2.4c0-.8.07-1.59.11-2.38s.08-1.54.12-2.31 0-1.58.11-2.38h2c.08.19.17.38.24.58l1.88 5.16c.09.25.19.49.27.71.18 0 .18-.1.21-.16a1.79 1.79 0 0 0 .1-.27l2-5.43.22-.56a11.28 11.28 0 0 1 2 0 17.8 17.8 0 0 1 .17 2.38c0 .77.08 1.54.11 2.31s.06 1.59.1 2.39.07 1.54.1 2.34a6.24 6.24 0 0 1-1.72.07.64.64 0 0 1-.15-.56c0-1.45-.07-2.89-.1-4.34 0-.24 0-.48-.05-.84a2.3 2.3 0 0 0-.21.33l-1.22 3.4-.24.67a8 8 0 0 1-2.33 0c-.56-1.41-1-2.88-1.63-4.42a2.31 2.31 0 0 0-.13.44v1.52c0 1 0 2-.07 3a1.35 1.35 0 0 1-.2.75z"/><path class="cls-7" d="M71.5 81.16c.68-.45 1.36-.9 2-1.37.85-.59 1.68-1.2 2.51-1.8l3.74-2.69 2.23-1.58 3.44-2.49 2.23-1.58c1.29-.92 2.57-1.85 3.86-2.77a1.23 1.23 0 0 1 .89-.41l-1.33 1.31c-.07.07-.16.11-.23.18l-2.22 2.09c-.72.67-1.41 1.38-2.17 2-.54.44-1 1-1.54 1.41-.78.61-1.39 1.39-2.21 2h-.05l-2.23 2.1c-.74.69-1.45 1.41-2.23 2.05-.54.45-1 .94-1.54 1.42-.35.32-.72.63-1.08.95a.53.53 0 0 0-.22.44l.41 1c.6 1.49 1.22 3 1.8 4.48a2.4 2.4 0 0 1 .38 1.22c-.37-.44-.75-.87-1.11-1.32z"/><path class="cls-3" d="M117.67 111.9c-.77.07-1.52 0-2.3 0-.11-.18-.22-.36-.32-.55l-2.89-5.75c-.09-.19-.2-.37-.3-.54h-.11a.09.09 0 0 0 0 .06v6.37a1.42 1.42 0 0 1 0 .14.32.32 0 0 1 0 .07v.1a6.39 6.39 0 0 1-1.64 0c-.09-.83 0-1.62 0-2.41v-2.32-2.39-2.34a19.19 19.19 0 0 1 2.38 0c1.17 2.26 2.27 4.56 3.44 6.83.22-.08.15-.25.15-.37v-5.65-.75a6.64 6.64 0 0 1 1.7-.06 2.3 2.3 0 0 1 .08.42v8.62a3.54 3.54 0 0 1-.19.52z"/><path class="cls-2" d="M97.75 102.43h2.48a4.67 4.67 0 0 1 .19.44l2.68 8.48c0 .16.08.32.13.53a9.63 9.63 0 0 1-1.78 0 4.68 4.68 0 0 1-.2-.44c-.16-.48-.31-1-.48-1.47a7.83 7.83 0 0 0-1.71-.07h-1.77c-.11.34-.23.65-.33 1s-.19.64-.3 1a3.59 3.59 0 0 1-1 .06h-.86a1.09 1.09 0 0 1 0-.26zm2.51 5.84c-.2-.69-.38-1.39-.59-2.08a18.29 18.29 0 0 0-.64-2.05 1.64 1.64 0 0 0-.14.25q-.54 1.8-1.07 3.61a1.18 1.18 0 0 0 0 .32 9.25 9.25 0 0 0 2.44-.04zM120.28 111.91c1-3.22 2-6.34 3-9.49h2.43a2.58 2.58 0 0 1 .19.38q1.38 4.34 2.74 8.68c0 .11.06.23.08.34a3.89 3.89 0 0 1-1.8.07c-.31-.58-.38-1.27-.67-1.87a20.05 20.05 0 0 0-3.49 0l-.31.94a3.22 3.22 0 0 1-.36 1h-1.82zm5.52-3.54l-.38-1.48c-.14-.48-.27-1-.42-1.45a6.1 6.1 0 0 0-.44-1.33 32.06 32.06 0 0 0-1.2 4.21 1.65 1.65 0 0 0 .28 0h2.2z"/><path class="cls-4" d="M17.56 94.85l-.11-.14a.43.43 0 0 1 .14-.1c.9-.07 227.91 0 228.43 0 .08.1.06.16-.06.21a1.32 1.32 0 0 0-.91-.11H17.77a.87.87 0 0 0-.21.14z"/><path class="cls-8" d="M17.56 94.85a.87.87 0 0 1 .26-.11h227.24a1.32 1.32 0 0 1 .91.11H18.58z"/><path class="cls-3" d="M189.1 105.05a5.19 5.19 0 0 1 1.3 0c0 .09.08.17.13.25s.1.15.14.21c.58-.18 1.13-.37 1.69-.5a5.47 5.47 0 0 1 1.22-.1 1.24 1.24 0 0 1 1.23.94 2.85 2.85 0 0 1 .15.85v5a1.18 1.18 0 0 1-.05.23 2 2 0 0 1-.84.07h-.76a1.35 1.35 0 0 1-.1-.76v-3.76a1 1 0 0 0-.22-.81 3.09 3.09 0 0 0-2.07.49v4.75a3.86 3.86 0 0 1-1.67 0 .62.62 0 0 1-.07-.19c-.08-2.25-.08-4.44-.08-6.67z"/><path class="cls-2" d="M237.21 105h1.65a.83.83 0 0 1-.07.63l-1.61 5-.39 1.21a9.05 9.05 0 0 1-2.27 0c-.28-.57-2.09-6.21-2.18-6.83a6.84 6.84 0 0 1 1.66 0c.08.2.16.39.22.59l1.15 3.81c.06.21.13.41.24.72.6-1.75 1.04-3.43 1.6-5.13z"/><path class="cls-9" d="M77.94 89.11a2.4 2.4 0 0 0-.38-1.22c-.58-1.5-1.2-3-1.8-4.48l-.41-1a3.32 3.32 0 0 1 1.26.21c1.54.4 3.08.82 4.63 1.23l.62.15-3.52 5.45a.43.43 0 0 1-.4-.34z"/><path class="cls-6" d="M158.05 83.78a2.21 2.21 0 0 1 0-.26v-2.19a1.29 1.29 0 0 1 .29-.07h5.22a7.17 7.17 0 0 1 .07 2.48.21.21 0 0 1 0 .06H158.28a.47.47 0 0 1-.23-.02z"/><path class="cls-3" d="M209.15 105h.63a4.85 4.85 0 0 1 1 0 1 1 0 0 1 .06.23v6.42a1 1 0 0 1-.07.24 6.09 6.09 0 0 1-1.61 0 1 1 0 0 1-.07-.24v-6.42a1.08 1.08 0 0 1 .06-.23z"/><path class="cls-2" d="M228.33 105.05a10.13 10.13 0 0 1 1.6 0l.09.11a.15.15 0 0 1 0 .07v6.43a1 1 0 0 1 0 .21.4.4 0 0 1-.07.09 1.34 1.34 0 0 1-.24 0h-1.29a3.12 3.12 0 0 1-.07-.45v-6.07c-.05-.13-.03-.25-.02-.39zM199.64 111.91a9.87 9.87 0 0 1-1.55 0 2.89 2.89 0 0 1-.06-.42v-6.07-.34a3.67 3.67 0 0 1 1.64 0v.06a.15.15 0 0 1 0 .07v6.43a1 1 0 0 1 0 .21.55.55 0 0 1-.03.06zM186 105.05v6.53a2.23 2.23 0 0 1-.05.32 10 10 0 0 1-1.62 0 1.8 1.8 0 0 1-.07-.35v-6.28a1.15 1.15 0 0 1 0-.2 3.8 3.8 0 0 1 1.74-.02z"/><path class="cls-3" d="M209.15 101.99a9 9 0 0 1 1.61 0 5.57 5.57 0 0 1 0 2h-1.57a4.52 4.52 0 0 1-.04-2zM185.98 102a16.62 16.62 0 0 1 0 1.93 6.27 6.27 0 0 1-1.62.05 5.18 5.18 0 0 1 0-2 2.83 2.83 0 0 1 .83 0c.23-.01.48.01.79.02z"/><path class="cls-2" d="M228.3 101.99h1.66a2.22 2.22 0 0 1 .08.4v1.53a7.68 7.68 0 0 1-1.68.08 12.87 12.87 0 0 1-.06-2.01zM199.77 103.97c-.6.05-1.12 0-1.63 0a4.79 4.79 0 0 1-.06-2 7.27 7.27 0 0 1 1.63 0 3.71 3.71 0 0 1 .05 1c.02.29.01.6.01 1z"/><path class="cls-7" d="M92.73 66.19v-.44l.87-.42a.65.65 0 0 1-.34.51zM93.89 65.18l-.21.11z"/><path class="cls-5" d="M94.04 65.18v-.06.05z"/><path class="cls-7" d="M92.42 66.48a.26.26 0 0 1 .29-.29z"/></g></svg>