<svg id="Layer_1" data-name="Layer 1" xmlns="http://www.w3.org/2000/svg" viewBox="0 0 69.09 16.62"><defs><style>.cls-1{fill:#fff}</style></defs><title>_numa</title><path class="cls-1" d="M310.79 308.72v-16.56h-.12l-5.23 2.61a.3.3 0 0 0-.16.34V308.68h5.49zm-33.14 0v-16.56l-.14.06-5.2 2.6a.3.3 0 0 0-.18.33v13.57h5.51zm40 0v-16.56l-.25.11-5 2.52a.35.35 0 0 0-.23.37V308.73h5.52zm9.67-16.55h-.08l-5.3 2.64a.28.28 0 0 0-.15.31v10.59a.32.32 0 0 0 .2.34l5.11 2.55.22.08v-16.51z" transform="translate(-265.2 -292.11)"/><path d="M270.75 292.11V308.71h-5.27a1.84 1.84 0 0 1-.28 0v-16.6h5.54zM334.25 292.11a1.82 1.82 0 0 1 0 .28v16.33h-5.52v-.26-16.05-.28h5.49zM303.9 292.11V308.72h-5.5v-.27-16.05-.28h5.49zM287.32 292.11V308.71l-.23-.09-5.09-2.54a.34.34 0 0 1-.22-.36v-13.33-.28h5.49zM294.21 292.11a1.83 1.83 0 0 1 0 .28v13.34a.3.3 0 0 1-.18.33l-5.21 2.6-.14.06v-.23-16.11-.26h5.49zM310.79 308.72h-5.49v-.28-13.29a.3.3 0 0 1 .16-.34l5.23-2.61h.12v16.56zM277.66 308.71h-5.51v-.24-13.33a.3.3 0 0 1 .18-.33l5.2-2.6.14-.06v16.56zM317.7 308.72h-5.52v-.28-13.29a.35.35 0 0 1 .23-.37l5-2.52.25-.11v16.56zM327.38 292.17v16.53l-.22-.08-5.16-2.55a.32.32 0 0 1-.2-.34v-10.59a.28.28 0 0 1 .15-.31l5.3-2.64z" transform="translate(-265.2 -292.11)"/></svg>