<svg id="Layer_1" xmlns="http://www.w3.org/2000/svg" viewBox="0 0 645.4 184"><style>.st0{fill:#1666A7;} .st1{fill:#020202;} .st2{fill:#858585;}</style><path class="st0" d="M64.9 184c-.4-.2-1-.5-1.5-.8-5.8-3.3-11.6-6.7-17.3-10-4-2.3-7.8-4.9-11.4-7.7-3.3-2.6-6.3-5.5-9.2-8.6C14 144.5 6.4 130 2.6 113.5.4 103.8-.4 94 .4 84.1 1.6 68.8 6 54.5 13.6 41.2c.6-1.1 1.3-2.2 1.9-3.3 2.2-3.5 7.2-3.3 9.5-.2.7 1 .9 2 1 3.2.2 5.4.9 10.8 2.4 16C33.3 74.6 43.5 88.4 59 98.3c.9.6 1.8 1.3 2.8 1.9.9.5 1.9.8 2.8 1.3 4 2 8.1 3.6 12.3 4.8 7.7 2.2 15.6 3 23.6 2.5 6.6-.4 13.1-1.8 19.3-4.1.5-.2 1-.4 1.5-.5 2-.5 3.7-.2 5.1 1.4 1.4 1.6 1.8 3.4 1 5.4-2.3 5.6-5 11.1-8.1 16.3-2.9 5-6 9.8-9.6 14.2-.9 1.1-1.8 2.1-2.6 3.2s-1.8 1.9-2.4 3.1c-.3.6-1.1 1-1.5 1.6-.8 1.3-2 2.1-2.9 3.2-.6.8-1.2 1.6-1.9 2.3-.3.3-.5.6-.8.9-2.6 2.5-5.2 5-7.7 7.5-.8.8-1.7 1.7-2.6 2.4-1.1.8-1.9 1.8-2.9 2.7-.3.3-.6.5-.9.7-.3.2-.7.5-.9.7-.7.6-1.2 1.5-2 1.9-.9.5-1.4 1.3-2.2 1.7-1.3.7-2 2.1-3.4 2.7-.2.1-.4.3-.6.5-2.8 2.8-6.1 5-9.2 7.3-.1.1-.2.1-.3.1z"/><path class="st0" d="M134.1 38.1c.1 5.7-1.1 10.9-3.3 16-.9 2.1-2.2 3.9-3.4 5.8-1 1.6-2.3 3-3.6 4.4-1.3 1.3-2.5 2.6-3.8 3.8-.4.4-.8.7-1.2 1-5.2 3.9-10.9 6.4-17.4 7.2-13.1 1.8-24.4-2.1-33.6-11.6-5.6-5.8-8.9-12.9-10-20.9-2.3-16.4 6.1-31.9 20.1-39.3 21.5-11.4 48-.3 54.9 23.5.9 3.4 1.4 6.8 1.3 10.1z"/><path class="st1" d="M458.7 54.7v41.8c-1.9.3-13.4.3-15.1 0-.2-1.8-.2-66.3 0-68 1.6-.2 10.2-.3 14.1-.1 1.9 2.3 3.7 4.7 5.5 7.2 1.8 2.4 3.6 4.8 5.5 7.2 1.9 2.4 3.7 4.9 5.6 7.3 1.8 2.4 3.6 4.8 5.5 7.2 1.9 2.4 3.7 4.9 5.6 7.3 1.8 2.4 3.6 4.8 5.4 7.1.5-.1.4-.5.4-.8v-6.4-33.9-2.1c.4-.1.7-.2 1-.2h13.6c.1 0 .3.1.5.1 0 .3.1.7.1 1v67c-.3.1-.6.2-.8.2h-14c-.1 0-.3 0-.6-.1-10.6-14-21.3-28-32-42.1-.1.2-.2.3-.3.3z"/><path class="st1" d="M205.5 77.9c-.1 1.1-.1 2.2-.1 3.2V96.6c-.4.1-.7.2-1 .2H191c-.2 0-.4 0-.6-.1-.5-.5-.3-1.1-.3-1.7V69 30.7v-2.1c.3-.1.5-.2.8-.2 9.3 0 18.7 0 28 .1 3.7.1 7.4.7 11 2 1.1.4 2.3.8 3.3 1.4 4.8 2.4 8 6.1 9.7 11.2 1.4 4.2 1.7 8.5 1.4 12.8-.2 2.5-.6 4.9-1.4 7.3-1.6 4.8-4.6 8.4-9.1 10.7-3 1.6-6.3 2.6-9.7 3.1-3.4.6-6.8.8-10.2.8h-7c-.3 0-.8 0-1.4.1zm-.1-13.5c.5.1.8.1 1 .1h10c1.3 0 2.7-.2 4-.4 4.4-.7 7.1-3.2 8-7.6.5-2.4.6-4.9.1-7.4-.6-2.9-2.2-5-4.9-6.1-1.7-.7-3.4-1.1-5.2-1.3-4.1-.4-8.1-.2-12.2-.3-.2 0-.4.1-.7.2-.1 7.6-.1 15.2-.1 22.8z"/><path class="st1" d="M645.3 75.7c-3.4.1-6.5 0-9.6 0h-28.5c0 .4 0 .7.1 1 .6 2.3 1.9 4.1 3.7 5.6 3.5 2.8 7.5 3.6 11.9 3 3.5-.5 6.7-1.9 9.3-4.3.2-.2.4-.3.7-.6 1.5 1.3 2.8 2.9 4.1 4.3 1.4 1.5 2.7 2.9 4.1 4.5l-1 1c-4.4 3.8-9.4 6.3-15.2 7.1-6.9.9-13.6.2-19.7-3.5-6.9-4.1-11-10.2-12.2-18.1-.7-4.5-.6-9.1.6-13.5 2.1-7.7 7.1-13 14.2-16.4 3.2-1.6 6.7-2.3 10.2-2.4 4.3-.2 8.5.4 12.5 2 2.9 1.2 5.5 2.8 7.7 4.9 3.8 3.5 6 7.8 6.8 12.8.6 4.1.2 8.2.3 12.6zm-37.9-10.6c.4.1.7.1 1 .1h21.2c.2 0 .5-.1.7-.2-.3-4.6-3.3-8.1-7.7-9.2-3.9-.9-7.5-.1-10.8 2.1-2.5 1.7-3.9 4-4.4 7.2z"/><path class="st1" d="M273.1 97.8c-2.8-.1-5.5-.4-8.1-1.2-10-2.7-17.1-11.1-18.9-19.7-3-14.1 3.7-25.6 14.4-30.9 3.3-1.6 6.8-2.5 10.4-2.7 4.3-.2 8.6 0 12.6 1.6 9.3 3.7 15.1 10.3 17.1 20.1.9 4.2.7 8.5-.4 12.7-2.4 9.2-10.3 17.3-20.7 19.2-2.1.5-4.3.6-6.4.9zm13.2-27.3c-.1-.9-.1-1.7-.2-2.6-.2-1-.3-2-.6-2.9-2.2-6.9-8.8-10.6-15.8-8.7-4.3 1.2-7.1 4.2-8.5 8.3-1.4 3.9-1.4 7.9 0 11.8 1.2 3.6 3.6 6.4 7.2 7.8 5.8 2.3 13.4.7 16.7-7.1.9-2.1 1.2-4.3 1.2-6.6z"/><path class="st1" d="M378 96.6c-1.6.2-12.5.3-14.6 0 0-.6-.1-1.3-.1-1.9V68.3c0-2 .1-4-.4-6-.3-1-.6-2.1-1-3-1.2-2.6-3.4-4-6.3-4.3-5.5-.6-11.1 3-11.9 9.9-.1 1.2-.1 2.4-.1 3.6v28.1c-.3.1-.5.2-.8.2h-13.2c-.2 0-.4-.1-.6-.1-.2-1.5-.3-49.6-.1-52.2 1.3-.3 10.4-.5 14.4-.2.1.3.2.7.2 1.1v3.9c.5.3.7 0 .9-.2 1.4-1.1 2.8-2.3 4.3-3.2 10.6-6.1 25-1.5 28.5 12.2.5 2.1.8 4.2.8 6.3v32.2z"/><path class="st1" d="M538.8 44.2h14.5c.1.4.2.8.2 1.1v3.9c.6.4.8-.1 1.1-.4 2.3-2.1 4.9-3.8 7.8-4.7 11.7-3.6 22.2 3.1 24.8 13.9.5 2 .8 4.1.8 6.1v31.5c0 .3-.1.6-.1.9-1.7.2-12.7.2-14.6 0 0-.6-.1-1.3-.1-1.9V68.2c0-2 .1-4-.4-6-.3-1-.6-2.1-1-3-1.2-2.6-3.4-4-6.3-4.3-5.5-.6-11.1 3-11.9 9.9-.1 1.2-.1 2.4-.1 3.6v28.1c-.4.1-.8.2-1.2.2h-12.2c-.4 0-.8-.1-1.2-.1-.1-17.4-.1-34.8-.1-52.4z"/><path class="st1" d="M387.3 54.8c-2-.2-3.9 0-5.8-.2-.3-1.5-.4-6.8-.1-10.3.3-.1.7-.1 1.1-.2 1.5 0 3.1 0 4.6-.1.1 0 .1-.1.3-.2.1-1.1 0-2.4 0-3.6v-4-3.8c0-1.3-.1-2.5.1-3.7 1.7-.3 9.5-.4 14.6-.2 0 .4.1.9.1 1.3V42c0 .7 0 1.3.1 2.1 2.2.1 4.2 0 6.3.1h6.1c.3 1.5.4 6.3.2 10.4-.3.1-.7.2-1.1.2h-9.4c-.7 0-1.3 0-2.1.1 0 .5-.1.9-.1 1.2v21.6c0 .8.1 1.6.2 2.4.7 3.7 3.7 5.5 7.3 4.4 1.4-.4 2.7-1.2 3.7-2.3.3-.3.6-.6.9-.8 1 1 3.2 5 5.5 9.9-.3.3-.6.7-.9.9-2.9 2.4-6.1 4.3-9.9 5-5.7 1-10.9 0-15.4-3.8-3.4-2.8-5.3-6.4-5.9-10.8-.2-1.6-.3-3.2-.3-4.8v-21c0-.6-.1-1.2-.1-2z"/><path class="st1" d="M320.7 96.6c-1.5.2-12.3.3-14.4.1-.1 0-.1-.1-.2-.1v-.2-51.6c0-.1.1-.2.2-.5 2.3-.2 4.7-.1 7.1-.1h7.1c.2.2.2.2.2.3 0 .1.1.1.1.2v51.2c0 .2-.1.5-.1.7z"/><path class="st1" d="M516.1 44.2h14.4c.5.5.3 1.1.3 1.7V96.6c-1.7.3-3.3.1-4.8.2h-5c-1.6 0-3.2.1-4.8-.1-.1-17.5-.1-34.9-.1-52.5z"/><path class="st2" d="M403 134.3c4.2 5.4 8.2 10.8 12.3 16 .7-.2.6-.7.6-1v-12.6c0-.7-.1-1.5.2-2.1 1.6-.3 3.9-.3 5.7 0 0 .3.1.7.1 1.1.2 7.9.1 23-.2 24.8-.9.5-1.8.2-2.7.2h-2.9c-.6-.8-1.3-1.6-1.9-2.3l-9.3-12.3c-.3-.4-.6-1-1.2-1.2-.1.1-.2.1-.2.1s0 .1-.1.2v14.6c0 .1 0 .3-.1.4 0 .1 0 .1-.1.2-.8.5-1.8.2-2.7.2-.9 0-1.9.2-2.7-.1-.5-.7-.3-1.5-.3-2.2v-17-5.4c0-.5.1-1 .1-1.6.6 0 1-.1 1.5-.1 1.3.1 2.6.1 3.9.1z"/><path class="st2" d="M487.1 139.5c-2.4.1-4.5 0-6.6.1h-6.2c-.5 1.3-.5 2.5-.2 5.1.4.1.8.2 1.3.2h8.2c.7 0 1.3 0 2.1.1.3 1.7.2 3.2.1 4.9-.5.1-1 .1-1.4.1H476c-.6 0-1.2.1-1.9.1-.1 1.7-.2 3.4 0 5.1 1.5.4 3 .1 4.4.2h4.4c1.5 0 2.9-.1 4.5.1.3 1.7.2 3.4.1 5.1-.4.1-.7.2-1 .2h-17c-.4 0-.8-.1-1.2-.1-.1-.5-.2-.8-.2-1.2-.2-6.9-.1-23.1.2-24.9 2-.3 4.1-.1 6.1-.1h6.4c2.1 0 4.1-.1 6.3.1.1 1.5-.1 3 0 4.9z"/><path class="st2" d="M336.8 139.4c-1.6.2-3 .1-4.4.1H328c-1.4 0-2.8-.1-4.3.1-.2 1.7-.1 3.2-.1 4.9.5.1.9.2 1.4.2h8.2c.7 0 1.3 0 2.1.1.4 1.6.2 3.2.1 4.9-.5.1-.9.2-1.4.2h-8.2c-.7 0-1.3 0-2.1.1-.3 1.7-.2 3.4 0 5.1.6.1 1.1.2 1.6.2h9.6c.7 0 1.3 0 1.9.1.4 1.4.4 3 .1 5.1-.3.1-.6.2-.9.2h-17.2c-.3 0-.6-.1-1-.1-.1-.4-.2-.7-.2-1v-24.2c0-.3.1-.5.1-.8.3-.1.5-.2.8-.2h17.2c.3 0 .5.1.8.1.3.8.2 1.6.2 2.4.1.7.1 1.5.1 2.5z"/><path class="st2" d="M388.9 160.7H382.6c-.9-1.9-1.7-3.7-2.5-5.4-1.5-.3-8-.4-11-.1-1.2 1.6-1.5 3.7-2.7 5.5-1.9.2-3.9.1-6 .1.1-.6.2-1 .4-1.4 2.2-5.1 4.4-10.2 6.6-15.2 1.1-2.4 2.1-4.9 3.2-7.4.3-.8.7-1.6 1.1-2.3 1.9-.2 3.8-.1 5.7-.1 3.9 8.6 7.6 17.3 11.5 26.3zm-11.2-11.1c-1.1-2.5-2-4.8-3-7.1-.2.2-.4.3-.5.4-.9 1.9-1.7 3.9-2.5 5.9-.1.2 0 .5 0 .8h6z"/><path class="st2" d="M299.7 145.1c.3-3.6-.1-7.1.2-10.5 1.7-.3 3.7-.3 5.5 0 0 .3.1.6.1.9v24.2c0 .3-.1.5-.1.8-.9.6-1.8.3-2.7.3-.9 0-1.9.2-2.9-.2-.3-3.3.1-6.6-.2-9.9-1.5-.3-8.1-.4-10.3-.1-.1.4-.2.9-.2 1.3v8.5c-1 .6-1.9.3-2.8.3-.9 0-1.9.2-2.7-.2-.1-.2-.2-.4-.2-.6v-24.6c0-.3.1-.5.1-.7 1.5-.4 3.2-.4 5.5-.1.1.4.2.8.2 1.3v7.2c0 .7 0 1.3.1 2.1 1.8.4 3.5.2 5.2.2 1.7-.1 3.4.1 5.2-.2z"/><path class="st2" d="M456 137.5c-.8 1.5-1.8 2.8-2.9 4.2-.7-.5-1.2-.9-1.8-1.2-2.1-1.3-4.3-1.7-6.7-1.2-4.6 1.1-6.4 5.2-5.9 9.2.2 1.4.5 2.8 1.4 3.9 1.5 2 3.6 3.2 6.2 3.1 1.6 0 3.2-.3 4.7-1.1.1-.5.1-.9.1-1.4v-4.4c0-.5.1-.9.1-1.3 1.7-.3 4-.3 5.7 0 0 .3.1.6.1.9v7.2c0 .9-.3 1.5-1 2.1-2.2 1.9-4.7 3-7.6 3.2-2.6.2-5.2.2-7.7-.8-4.8-1.9-8.1-6.6-8.3-11.8-.1-2.1.1-4.1.9-6.1 1.9-4.5 5.2-7.3 10.1-8.3 4.2-.8 8.1.1 11.6 2.6.2.2.4.3.6.5.2.3.2.4.4.7z"/><path class="st2" d="M595.7 138.7c-1 1.3-2.1 2.7-3.5 3.9-.5-.5-1-.9-1.5-1.3-2.6-2.1-6.3-2.6-9.4-1-2.1 1.1-3.4 2.7-3.9 5.1-.5 2.5-.2 4.9 1.3 7.1 1.3 1.8 3 2.8 5.2 2.9 2.7.2 5-.4 7-2.3.2-.2.5-.4.8-.6 0 0 .1 0 .3-.1 1.3 1 2.4 2.3 3.7 3.6-2.2 2.6-4.8 4.3-8 4.8-2.4.4-4.9.4-7.3-.4-5.5-1.7-9.2-6.7-9.3-12.2 0-3 .4-5.9 2.2-8.4 3.2-4.6 7.8-6.5 13.3-6 2.9.3 5.4 1.4 7.6 3.3.6.3 1.3.8 1.5 1.6z"/><path class="st2" d="M557.5 134.4c2.1-.2 4-.1 6-.1.3.9-.2 1.6-.4 2.2-1.2 3.2-2.5 6.3-3.8 9.5-1.8 4.5-3.6 8.9-5.4 13.4-.1.4-.3.7-.5 1.1-1.6.4-3.2.2-4.9.2-.2-.4-.5-.9-.7-1.4-3.1-7.7-6.2-15.3-9.3-23-.2-.5-.4-1.1-.5-1.7 1.4-.4 3.1-.5 6.1-.2.2.4.5.9.7 1.3 1.7 4.1 3.3 8.3 5 12.5l.9 2.1c.7-.1.7-.7.9-1.1 1.6-4.1 3.3-8.2 4.9-12.3.3-.8.6-1.6 1-2.5z"/><path class="st1" d="M532 31.5c0 4.9-3.9 8.6-8.7 8.5-4.9-.1-8.6-3.9-8.5-8.7 0-4.8 3.9-8.6 8.7-8.5 5.4 0 8.7 4.5 8.5 8.7z"/><path class="st1" d="M322.1 31.4c.2 4.3-3.4 8.6-8.6 8.6-4.9 0-8.6-3.8-8.6-8.7 0-4.8 3.9-8.6 8.7-8.6 5.2.1 8.7 4.4 8.5 8.7z"/><path class="st2" d="M265.9 160.7c-2.1.1-3.9.1-5.6 0-.6-.6-.4-1.2-.4-1.8v-17c0-.7 0-1.4-.1-2.3-1.3-.3-2.5-.1-3.6-.2-1.1 0-2.2 0-3.4-.1-.3-1.7-.2-3.3-.1-4.9.4-.1.7-.2 1-.2h18.6c.3 0 .6.1 1 .1.2 1.6.2 3.2 0 4.9-2.4.4-4.8-.1-7.3.3-.2 1.8-.1 3.5-.1 5.2v16z"/><path class="st2" d="M504.3 155.2c2 .3 3.8.1 5.6.2 1.8.1 3.6-.1 5.5.1.3 1.7.2 3.4.1 5.1-.4.1-.7.2-1 .2h-15.2c-.2 0-.4-.1-.6-.1-.6-.6-.3-1.3-.3-1.9v-19-4c0-.4.1-.8.1-1.3 1.9-.3 3.8-.1 5.5-.1.5.7.3 1.4.3 2.1v18.7z"/></svg>