<svg id="Layer_1" data-name="Layer 1" xmlns="http://www.w3.org/2000/svg" viewBox="0 0 48.33 27.73"><defs><style>.cls-1{fill:#353068}.cls-2{fill:#38538f}</style></defs><title>_sosv</title><path class="cls-1" d="M276.51 310.81h-.69v-.54h2v.54h-.69v3.44h-.59v-3.44zm0 0M278.63 310.27h.59V312h.78v-1.7h.59v4H280v-1.77h-.73v1.77h-.59v-4zm0 0M281.69 310.27h1.77v.54h-1.17V312h1v.54h-1v1.17h1.17v.57h-1.77v-4zm0 0M287 311.42l-.29 1.44h.59zm-.25-1.15h.49l.92 4h-.59l-.17-.85h-.81l-.17.85h-.59zm0 0M290.91 313.36a.88.88 0 0 1-.07.35.92.92 0 0 1-.2.29 1 1 0 0 1-.3.2.9.9 0 0 1-.37.08 1.37 1.37 0 0 1-.34 0 .82.82 0 0 1-.54-.44 1 1 0 0 1-.09-.45v-2.19a.94.94 0 0 1 .07-.36.86.86 0 0 1 .2-.29.93.93 0 0 1 .3-.19 1.07 1.07 0 0 1 .39-.07 1 1 0 0 1 .38.07.91.91 0 0 1 .3.2.9.9 0 0 1 .2.3 1 1 0 0 1 .07.38v.22h-.59v-.19a.45.45 0 0 0-.1-.29.33.33 0 0 0-.27-.12.31.31 0 0 0-.29.13.68.68 0 0 0-.07.33v2a.51.51 0 0 0 .08.29.31.31 0 0 0 .28.12h.13a.34.34 0 0 0 .12-.06.33.33 0 0 0 .09-.12.49.49 0 0 0 0-.2v-.2h.59v.25zm0 0M293.86 313.36a.87.87 0 0 1-.07.35.92.92 0 0 1-.2.29 1 1 0 0 1-.3.2.91.91 0 0 1-.37.08 1.37 1.37 0 0 1-.34 0 .82.82 0 0 1-.54-.44 1 1 0 0 1-.09-.45v-2.19a.94.94 0 0 1 .07-.36.86.86 0 0 1 .2-.29.94.94 0 0 1 .31-.19 1.06 1.06 0 0 1 .39-.07 1 1 0 0 1 .38.07.91.91 0 0 1 .3.2.9.9 0 0 1 .2.3 1 1 0 0 1 .07.38v.22h-.59v-.19a.45.45 0 0 0-.1-.29.32.32 0 0 0-.27-.12.31.31 0 0 0-.29.13.68.68 0 0 0-.07.33v2a.51.51 0 0 0 .08.29.31.31 0 0 0 .28.12h.13a.35.35 0 0 0 .12-.06.32.32 0 0 0 .09-.12.49.49 0 0 0 0-.2v-.2h.59v.25zm0 0M294.89 310.27h1.77v.54h-1.17V312h1v.54h-1v1.17h1.17v.57h-1.77v-4zm0 0M297.65 310.27h.59v3.41h1.17v.57h-1.77v-4zm0 0M300.38 310.27h1.77v.54H301V312h1v.54h-1v1.17h1.17v.57h-1.77v-4zm0 0M303.71 312.05h.29a.62.62 0 0 0 .25 0 .32.32 0 0 0 .14-.12.5.5 0 0 0 .07-.19 2 2 0 0 0 0-.53.47.47 0 0 0-.07-.2.33.33 0 0 0-.15-.12.73.73 0 0 0-.26 0h-.31v1.24zm-.59-1.78h1a1 1 0 0 1 1 1.17 1.42 1.42 0 0 1-.11.6.85.85 0 0 1-.4.4l.64 1.82h-.63l-.55-1.7h-.35v1.7h-.59v-4zm0 0M307.08 311.42l-.29 1.44h.59zm-.25-1.15h.49l.92 4h-.59l-.17-.85h-.81l-.17.85h-.6zm0 0M309.19 310.81h-.69v-.54h2v.54h-.69v3.44h-.59v-3.44zm0 0M311.8 313.31a.37.37 0 0 0 .12.3.46.46 0 0 0 .56 0 .37.37 0 0 0 .12-.3v-2.1a.37.37 0 0 0-.12-.3.46.46 0 0 0-.56 0 .37.37 0 0 0-.12.3v2.1zm-.59-2.1a1 1 0 0 1 .09-.42.88.88 0 0 1 .23-.3 1 1 0 0 1 .32-.18 1.07 1.07 0 0 1 .71 0 1 1 0 0 1 .32.18.89.89 0 0 1 .23.3 1 1 0 0 1 .09.42v2.1a1 1 0 0 1-.09.43.9.9 0 0 1-.23.3 1 1 0 0 1-.32.18 1.07 1.07 0 0 1-.71 0 1 1 0 0 1-.32-.18.89.89 0 0 1-.23-.3 1 1 0 0 1-.09-.43v-2.1zm0 0M314.89 312.05h.34a.62.62 0 0 0 .25 0 .32.32 0 0 0 .14-.12.5.5 0 0 0 .07-.19 2 2 0 0 0 0-.53.48.48 0 0 0-.07-.2.33.33 0 0 0-.15-.12.73.73 0 0 0-.26 0h-.31v1.24zm-.59-1.78h1a1 1 0 0 1 1 1.17 1.43 1.43 0 0 1-.11.6.85.85 0 0 1-.4.4l.64 1.82h-.63l-.55-1.7h-.35v1.7h-.6v-4zm0 0M320.18 314.25h-.52l-.84-4h.63l.47 2.78.48-2.78h.6zm0 0M323.84 313.36a.88.88 0 0 1-.07.35.92.92 0 0 1-.2.29 1 1 0 0 1-.3.2.9.9 0 0 1-.37.08 1.37 1.37 0 0 1-.34 0 .84.84 0 0 1-.31-.15.83.83 0 0 1-.23-.29 1 1 0 0 1-.09-.45v-2.19a.94.94 0 0 1 .07-.36.86.86 0 0 1 .2-.29.93.93 0 0 1 .31-.19 1.06 1.06 0 0 1 .39-.07 1 1 0 0 1 .38.07.89.89 0 0 1 .5.5 1 1 0 0 1 .07.38v.22h-.59v-.19a.45.45 0 0 0-.1-.29.33.33 0 0 0-.27-.12.31.31 0 0 0-.29.13.69.69 0 0 0-.07.33v2a.51.51 0 0 0 .08.29.31.31 0 0 0 .28.12h.13a.35.35 0 0 0 .12-.06.32.32 0 0 0 .09-.12.48.48 0 0 0 0-.2v-.2h.59v.25zm0 0" transform="translate(-275.83 -286.56)"/><path class="cls-2" d="M311.41 292.65h-2.94V292a3.15 3.15 0 0 0-.48-1.75 1.76 1.76 0 0 0-1.6-.74 1.93 1.93 0 0 0-1 .23 1.71 1.71 0 0 0-.61.59 2.47 2.47 0 0 0-.3.84 5.55 5.55 0 0 0-.09 1 10.25 10.25 0 0 0 0 1 1.82 1.82 0 0 0 .22.72 1.65 1.65 0 0 0 .51.53 4.57 4.57 0 0 0 .91.46l2.25.9a5.6 5.6 0 0 1 1.59.88 3.58 3.58 0 0 1 .94 1.18 5 5 0 0 1 .45 1.56 15.61 15.61 0 0 1 .12 2 10.55 10.55 0 0 1-.26 2.41 5.08 5.08 0 0 1-.85 1.91 4.09 4.09 0 0 1-1.57 1.26 5.6 5.6 0 0 1-2.4.46 5.25 5.25 0 0 1-2-.38 4.74 4.74 0 0 1-2.64-2.57 4.79 4.79 0 0 1-.39-1.93v-1.1h2.94v.92a2.41 2.41 0 0 0 .48 1.46 1.86 1.86 0 0 0 1.6.65 2.58 2.58 0 0 0 1.17-.22 1.49 1.49 0 0 0 .64-.61 2.49 2.49 0 0 0 .27-1q.06-.58.06-1.27a12.56 12.56 0 0 0-.06-1.33 2.11 2.11 0 0 0-.25-.84 1.5 1.5 0 0 0-.52-.52 7 7 0 0 0-.88-.43l-2.11-.87a4.67 4.67 0 0 1-2.55-2.06 7.09 7.09 0 0 1-.65-3.22 7.46 7.46 0 0 1 .32-2.19 5.11 5.11 0 0 1 .94-1.79 4.48 4.48 0 0 1 1.57-1.2 5.18 5.18 0 0 1 2.22-.45 4.89 4.89 0 0 1 2 .4 5 5 0 0 1 1.56 1.07 4.75 4.75 0 0 1 1 1.49 4.32 4.32 0 0 1 .35 1.69v1.44zm0 0M319.94 307.29h-2.6l-4.19-20.55h3.12l2.34 14.35h.06l2.33-14.35h3.12zm0 0M298.19 289.39a4.94 4.94 0 0 0-.55-.94l-2 4.31v9.68a2 2 0 0 1-.59 1.57 2.19 2.19 0 0 1-2.8 0 2 2 0 0 1-.59-1.57v-.92l-1.89 4.15a4.27 4.27 0 0 0 .52.54 4.91 4.91 0 0 0 1.59.94 5.13 5.13 0 0 0 3.55 0 4.92 4.92 0 0 0 1.59-.94 4.61 4.61 0 0 0 1.14-1.56 5.22 5.22 0 0 0 .43-2.21v-10.86a5.25 5.25 0 0 0-.43-2.2" transform="translate(-275.83 -286.56)"/><path class="cls-1" d="M285.93 292.65H283V292a3.14 3.14 0 0 0-.48-1.75 1.76 1.76 0 0 0-1.6-.74 1.94 1.94 0 0 0-1 .23 1.71 1.71 0 0 0-.61.59 2.46 2.46 0 0 0-.3.84 5.52 5.52 0 0 0-.09 1v1a1.82 1.82 0 0 0 .22.72 1.66 1.66 0 0 0 .51.53 4.6 4.6 0 0 0 .91.46l2.25.9a5.59 5.59 0 0 1 1.59.88 3.59 3.59 0 0 1 .94 1.18 5 5 0 0 1 .45 1.56 15.68 15.68 0 0 1 .12 2 10.57 10.57 0 0 1-.26 2.41 5.09 5.09 0 0 1-.85 1.91 4.09 4.09 0 0 1-1.57 1.26 5.6 5.6 0 0 1-2.4.46 5.25 5.25 0 0 1-2-.38 4.74 4.74 0 0 1-2.64-2.57 4.8 4.8 0 0 1-.39-1.93v-1.1h2.94v.92a2.4 2.4 0 0 0 .48 1.46 1.86 1.86 0 0 0 1.6.65 2.58 2.58 0 0 0 1.17-.22 1.49 1.49 0 0 0 .64-.61 2.51 2.51 0 0 0 .27-1q.06-.58.06-1.27a12.57 12.57 0 0 0-.06-1.33 2.12 2.12 0 0 0-.25-.84 1.5 1.5 0 0 0-.52-.52 7 7 0 0 0-.88-.43l-2.11-.87a4.67 4.67 0 0 1-2.55-2.06 7.1 7.1 0 0 1-.65-3.22 7.45 7.45 0 0 1 .32-2.19 5.11 5.11 0 0 1 .94-1.79 4.48 4.48 0 0 1 1.57-1.2 5.18 5.18 0 0 1 2.22-.45 4.89 4.89 0 0 1 2 .4 5 5 0 0 1 1.56 1.07 4.74 4.74 0 0 1 1 1.49 4.3 4.3 0 0 1 .35 1.69v1.44zm0 0M291.69 291.58a2 2 0 0 1 .59-1.57 2.09 2.09 0 0 1 1.4-.51h.23l1.25-2.74a5.14 5.14 0 0 0-1.48-.22 5.2 5.2 0 0 0-1.78.32 4.92 4.92 0 0 0-1.59.94 4.58 4.58 0 0 0-1.14 1.57 5.26 5.26 0 0 0-.43 2.2v10.86a5.23 5.23 0 0 0 .43 2.21 4.88 4.88 0 0 0 .62 1l1.89-4.15v-9.94zm0 0" transform="translate(-275.83 -286.56)"/></svg>