<svg id="Layer_1" data-name="Layer 1" xmlns="http://www.w3.org/2000/svg" viewBox="0 0 89.05 16.13"><defs><style>.cls-1{fill:#6d91a3}.cls-2{fill:#0db14b}</style></defs><title>_techstars</title><path class="cls-1" d="M11.22 15.14l1.73-5.55-3.61-2.77L0 15.97h10.03l1.18-.81.01-.02zM22.79 6.82l-3.61 2.77 1.74 5.57 1.17.81h10.04l-9.34-9.15z"/><path class="cls-2" d="M21.11 3.66l-3.81-.01L16.07 0l-1.24 3.65-3.81.01 3.04 2.35-1.11 3.59 3.12-2.14 3.11 2.14-1.12-3.59 3.05-2.35zM16.08 11.86l-.01-.01-6.04 4.12h12.06l-6.01-4.11z"/><path class="cls-1" d="M289.32 300.23v-.81h1.37v-1.76l1-.44v2.2h1.73v.81h-1.73v5.5c0 1.14.12 1.41.93 1.41a5.06 5.06 0 0 0 .8-.05v.91a8.94 8.94 0 0 1-1 .05c-1.37 0-1.78-.61-1.78-1.66v-6.12h-1.37zM295.59 303.91v.66c0 1.19.32 2.76 1.93 2.76a1.75 1.75 0 0 0 1.88-2h1.07a2.59 2.59 0 0 1-3 2.78c-1.48 0-3-.59-3-3.19v-2.1c0-2.48 1-3.61 3-3.61 3 0 3 2.12 3 4.66h-4.88zm3.87-.81c0-1.9-.31-3-1.93-3s-1.93 1.14-1.93 3h3.87zM306.14 301.88c.05-1.07-.34-1.81-1.51-1.81a1.41 1.41 0 0 0-1.37 1 11.67 11.67 0 0 0-.24 2.7c0 1.54 0 3.6 1.58 3.6 1.34 0 1.51-.85 1.56-1.88h1a2.28 2.28 0 0 1-2.34 2.7c-2.9 0-2.9-2.29-2.9-4.41a11.34 11.34 0 0 1 .25-2.83 2.47 2.47 0 0 1 2.58-1.66 2.22 2.22 0 0 1 2.39 2.63h-1zM308.93 308v-12.26h1v4.73a2.48 2.48 0 0 1 2.07-1.22c2.12 0 2.34 1.58 2.34 2.7v6h-1v-6c0-1-.39-1.93-1.58-1.93-.92 0-1.85.63-1.85 2.54V308h-1zM318.73 308.15c-1.85 0-2.58-.9-2.56-2.71h1c0 1.17.27 2 1.58 2a1.33 1.33 0 0 0 1.46-1.51c0-2.24-3.85-1.66-3.85-4.49 0-1.58 1.09-2.14 2.58-2.14 1.7 0 2.24 1.17 2.24 2.48h-1c-.05-1.09-.34-1.66-1.49-1.66a1.22 1.22 0 0 0-1.31 1.24c0 2.14 3.85 1.56 3.85 4.43a2.23 2.23 0 0 1-2.5 2.36zM322.29 300.23v-.81h1.37v-1.76l1-.44v2.2h1.73v.81h-1.73v5.5c0 1.14.12 1.41.93 1.41a5.07 5.07 0 0 0 .8-.05v.91a9 9 0 0 1-1 .05c-1.37 0-1.78-.61-1.78-1.66v-6.12h-1.37zM332.2 306.93a2.75 2.75 0 0 1-2.43 1.22 2.27 2.27 0 0 1-2.36-2.53c0-3 3-2.7 4.75-2.83v-.71c0-1.26-.37-2-1.73-2a1.47 1.47 0 0 0-1.68 1.48h-1.09c.08-1.65 1.36-2.29 2.85-2.29.86 0 2.66.08 2.66 2.27v4.31a18.19 18.19 0 0 0 .1 2.15h-1.07v-1.05zm-.07-3.32c-1.46.05-3.66-.12-3.66 2a1.55 1.55 0 0 0 1.54 1.76 2.2 2.2 0 0 0 2.12-2.17v-1.56zM336.39 300.57a2.6 2.6 0 0 1 2.36-1.32v1a2 2 0 0 0-2.39 2.19V308h-1v-8.57h1v1.15zM342.21 308.15c-1.85 0-2.58-.9-2.56-2.71h1c0 1.17.27 2 1.58 2a1.33 1.33 0 0 0 1.46-1.51c0-2.24-3.85-1.66-3.85-4.49 0-1.58 1.09-2.14 2.58-2.14 1.7 0 2.24 1.17 2.24 2.48h-1c-.05-1.09-.34-1.66-1.49-1.66a1.22 1.22 0 0 0-1.31 1.24c0 2.14 3.85 1.56 3.85 4.43a2.23 2.23 0 0 1-2.5 2.36z" transform="translate(-255.68 -292.02)"/></svg>