<svg id="Layer_1" data-name="Layer 1" xmlns="http://www.w3.org/2000/svg" viewBox="0 0 73.38 30.02"><defs><style>.cls-1{fill:#0a9600}</style></defs><title>_techcrunch</title><path d="M286.26 290.05l-3.67 14.18h3.48l.51-2.63h2.79l.53 2.63h3.48l-3.65-14.18h-3.48zm.87 8.79l.08-.45q.26-1.42.46-2.58t.29-2.14q.1 1 .31 2.14t.46 2.56l.08.47h-1.68zm-4.07-5.84h-2.88v11.22h-3.38V293h-2.88v-3h9.14v3zm-10.2 5.7a5.23 5.23 0 0 1 .21 1.57 4.31 4.31 0 0 1-.35 1.77 3.6 3.6 0 0 1-1 1.31 4.42 4.42 0 0 1-1.47.81 5.74 5.74 0 0 1-1.84.28 6.38 6.38 0 0 1-1.5-.16 4.52 4.52 0 0 1-1.23-.49 5.14 5.14 0 0 1-1-.78 9.38 9.38 0 0 1-.91-1l2.31-2.09a7.86 7.86 0 0 0 1.3 1.29 1.89 1.89 0 0 0 1.11.44 1.36 1.36 0 0 0 .87-.27 1 1 0 0 0 .34-.86 2.24 2.24 0 0 0-.06-.55 1.22 1.22 0 0 0-.25-.48 2.46 2.46 0 0 0-.55-.47 6.57 6.57 0 0 0-1-.5 15.07 15.07 0 0 1-1.79-.92 5.09 5.09 0 0 1-1.19-1 3.28 3.28 0 0 1-.66-1.16 4.84 4.84 0 0 1-.2-1.47 4.26 4.26 0 0 1 .3-1.62 3.82 3.82 0 0 1 .87-1.31 4.11 4.11 0 0 1 1.39-.88 5 5 0 0 1 1.84-.32 6.78 6.78 0 0 1 1.45.14 4.14 4.14 0 0 1 1.16.44 5.14 5.14 0 0 1 1 .71 9.56 9.56 0 0 1 .89 1l-2.36 2.11-.63-.72a3.57 3.57 0 0 0-.51-.48 1.51 1.51 0 0 0-.5-.25 2.17 2.17 0 0 0-.58-.07.94.94 0 0 0-.75.3 1 1 0 0 0-.26.71 1.47 1.47 0 0 0 .08.51 1.26 1.26 0 0 0 .29.44 2.52 2.52 0 0 0 .55.41 9.08 9.08 0 0 0 .89.45 12.87 12.87 0 0 1 1.82.94 5.17 5.17 0 0 1 1.21 1 3.69 3.69 0 0 1 .71 1.23zm32.26-8.66h9.14v3h-2.88v11.22H308V293h-2.88v-3zm31.19 2.34a3.48 3.48 0 0 0-.92-1.36 3.58 3.58 0 0 0-1.38-.75 6.23 6.23 0 0 0-1.75-.23h-4.77v14.18h3.34v-5.15H332a6.41 6.41 0 0 0 1.85-.25 3.79 3.79 0 0 0 1.46-.8 3.64 3.64 0 0 0 1-1.43 5.92 5.92 0 0 0 .34-2.14 5.67 5.67 0 0 0-.34-2.06zm-3.31 3.55a1.28 1.28 0 0 1-1.05.4h-1.08v-3.52H332a1.22 1.22 0 0 1 1 .4 3 3 0 0 1 0 2.72zm-11-5.88h3.42v9.22a5.23 5.23 0 0 1-1.31 3.94 5 5 0 0 1-3.57 1.25 4.88 4.88 0 0 1-3.52-1.25 5.11 5.11 0 0 1-1.31-3.86v-9.3h3.42v9.4a2.82 2.82 0 0 0 .34 1.55 1.24 1.24 0 0 0 1.11.52 1.17 1.17 0 0 0 1.07-.52 3 3 0 0 0 .32-1.55v-9.4zm-18.46 6.61a4.75 4.75 0 0 0 .49-2.3 5.54 5.54 0 0 0-.32-2 3.33 3.33 0 0 0-.91-1.34 3.66 3.66 0 0 0-1.39-.74 6.34 6.34 0 0 0-1.76-.23h-4.89v14.18h3.34v-5.43h.9l1.65 5.43h3.59l-2.06-6.14a3.74 3.74 0 0 0 1.4-1.42zm-3.15-.88a1.17 1.17 0 0 1-1 .42h-1.27v-3.46h1.33a1.1 1.1 0 0 1 1 .41 2.38 2.38 0 0 1 .28 1.31 2.3 2.3 0 0 1-.3 1.33zM297.3 314.89a.3.3 0 0 0 .13 0s.1 0 .13-.05a.45.45 0 0 0-.26 0zM297.35 315zM297.44 314.72h-.14.13zM297.68 314.89a.75.75 0 0 0-.27.07h.32v-.1zM297.69 314.8v-.06h-.16a.15.15 0 0 0 .16.06zM297.57 313a.49.49 0 0 1 .14 0h-.13zM294.2 309.12zM294.66 309.15h-.09s.06.08.09 0zM295.06 313.2zM294.34 307.76zM293.42 306.51a.35.35 0 0 0 .28 0 .35.35 0 0 0-.28 0zM293.93 306.43a.08.08 0 0 0 .12 0c-.05-.05-.05-.06-.12 0z" transform="translate(-263.26 -284.98)"/><path d="M297.5 313.42a.16.16 0 0 0 0-.07h-.12a.2.2 0 0 1 .08-.06h-.11a1 1 0 0 0-.23 0 .38.38 0 0 1-.27-.06.34.34 0 0 0-.24 0 .8.8 0 0 1-.42-.05.21.21 0 0 1 .16 0h.12a1.61 1.61 0 0 1 .42 0 .09.09 0 0 1 .1 0 .11.11 0 0 0 .13 0 .17.17 0 0 0 .14-.09l-.09-.09h-1.77.38l.29.07h-.13a.34.34 0 0 1-.23 0h-.18a.06.06 0 0 0-.07.06h.17a.12.12 0 0 0-.09 0l-.06.07h-.13l.05-.07h.06-.46a.15.15 0 0 0-.2 0h.46l-.1.07H294.44h.26a.15.15 0 0 0-.16-.06h-.11l.09-.06h-.1a1.2 1.2 0 0 1-.38 0 .09.09 0 0 0-.05 0h-.2l-.19-.06H294.52v-.1h-.31a.28.28 0 0 0 0-.09h.27v-.26h-.45H294.5v-3.21a.25.25 0 0 0-.05.16.07.07 0 0 1-.05.07h-1.23a.11.11 0 0 0 .06-.1h.14l.3-.06a3 3 0 0 1 .47 0h.37v-1.63a.11.11 0 0 0-.06.09h-.31a.13.13 0 0 0-.07 0 .53.53 0 0 0-.23 0c-.12 0-.22-.06-.33 0v-.06h.74l.08.08c0-.07 0-.09-.05-.1h.31v-.61h-.05a.19.19 0 0 1-.15 0h.17v-.21h-.12l.07-.08a.63.63 0 0 0-.31.11h-.2a.21.21 0 0 0-.11 0h-.38a.16.16 0 0 1-.06 0h-.08a.09.09 0 0 0-.1 0h-.19l.15-.1a.29.29 0 0 0 .19-.13.11.11 0 0 1 .09 0 .14.14 0 0 1 .05.07.22.22 0 0 1 0 .07l.13-.09h.11a.22.22 0 0 0 .11.1v-.14a.24.24 0 0 1 .24.06h.51v-1.14h-2.34v2.34a.25.25 0 0 1 .17 0H292.32v1.73a.64.64 0 0 0 .22 0h.05-.08a.2.2 0 0 1-.2 0v1.23h.08-.07v2.92h.21c-.07 0-.13.06-.1.12a.17.17 0 0 1-.12 0v.94h4.78a.23.23 0 0 1-.09 0 .13.13 0 0 0-.16 0 .29.29 0 0 1-.26 0c.09 0 .09-.06.1-.11h.3c0-.06 0-.07-.06-.07a1.53 1.53 0 0 0-.32.07v-.17h.27a1.8 1.8 0 0 0-.33 0v-.16h.44a.18.18 0 0 0 .16 0h.19a2.78 2.78 0 0 1 .43.12v-1.27h-.09a.22.22 0 0 0-.17.01zm-3.4-1h-.1.06zm.1-3h.15-.11l-.2-.06h.16zm.12 1.41a.13.13 0 0 1 .01.03zm0-.6zm-.15 1.59H294.59a1.34 1.34 0 0 0-.38 0 .26.26 0 0 1-.15 0h.11zm.14-4.21h.35l-.09.09a.06.06 0 0 0 0 .08.36.36 0 0 0 0 .09h-.18a.44.44 0 0 1 0-.18.15.15 0 0 0-.11-.04zm-.41.19a.07.07 0 0 1-.08 0h.12zm.6-2.18h.12-.21zm-.8 3.72h.3-.13v.06l-.31-.07a.26.26 0 0 1 .1.05zm-.18 0h-.33a.41.41 0 0 0-.11-.06l-.42-.05h.34c0 .05 0 .06.11.06v-.09h.1zm-.55 1a.54.54 0 0 1-.15 0h-.05a.51.51 0 0 1 .28 0 .17.17 0 0 0 .12 0h.16-.12a.07.07 0 0 0-.06.05zm.22.3H293h.09zm.11 0a.12.12 0 0 1 .07 0h-.11zm.08-.22h.06-.07zm-.42-2.63a.54.54 0 0 0-.22-.06h-.08H293.12l-.08.05zm.06 1.38h-.12a.1.1 0 0 1 0-.06h.06zm.67-1.3v.07l-.22.06h-.07zm-.16-1zm-.11.46h.32a.19.19 0 0 1-.15.07h-.34l.11.05a.25.25 0 0 1-.13 0 .51.51 0 0 0-.24 0 .49.49 0 0 1-.22 0 .17.17 0 0 0 0-.06h.48a.14.14 0 0 0 .13-.11zm-.56-.92a1.35 1.35 0 0 0 .36 0h.07a.11.11 0 0 1-.11.07h-.41a.1.1 0 0 1 .06-.12zm0 .2zm-.06-.07zm-.3.61h-.09l.28-.07h.25a1.11 1.11 0 0 0 .33 0h-.06a.21.21 0 0 0-.15 0L293 307zm.16.51a.12.12 0 0 1 .13 0 .15.15 0 0 1-.19-.04zm.14 6h.09a.37.37 0 0 0 .15.07h-.23a1.25 1.25 0 0 1-.21 0 .91.91 0 0 1 .15-.07zm0 .44h.15a.38.38 0 0 1-.14 0zm.8.49h-.09a1.8 1.8 0 0 0-.45 0h-.14H293.58zm.07-.58h.08a.07.07 0 0 1-.19-.01zm.31.27zm.42-.42h-.11a.58.58 0 0 1 0-.07h.1a.07.07 0 0 1 .05 0 .07.07 0 0 1-.14.07zm.16-.71h-.09a.17.17 0 0 1-.12 0 .1.1 0 0 1 0-.05h.31zm.21.75v-.05zm0 0h.12a.12.12 0 0 1-.21.01zm.1-.14h-.05.11c-.08.01-.11.03-.15.01zm.51 0v.07a.65.65 0 0 1-.25 0 .18.18 0 0 1-.09-.15h.53c-.12.16-.21.1-.28.11zm.55-.55l.33.1h-.16a.12.12 0 0 0-.15.08.14.14 0 0 1-.09-.07.08.08 0 0 0-.02-.08zm.38.62h-.16a.08.08 0 0 1 0-.07.28.28 0 0 0 .07.09zm-.37-.07h-.07a.15.15 0 0 1-.02.02zm.31.72a3.07 3.07 0 0 1-.36 0 .23.23 0 0 1-.16-.06h.59a.11.11 0 0 1-.16.08zm.34-1.18h-.16a.16.16 0 0 1 .07.03zm-.13.44zm.33.11a1 1 0 0 1-.21 0h.17l.07.06h-.12zm.33-.44h-.16a.17.17 0 0 1 .21 0H297zm.22.47h-.18c0-.05.07-.05.2 0z" transform="translate(-263.26 -284.98)"/><path d="M293.83 309.11a.42.42 0 0 0 .23 0 .6.6 0 0 0-.23 0zM295.14 313zM297.48 313zM294.68 307.44zM312.73 308.46v.39-.06a.17.17 0 0 1-.05.08v.13h.2-.21v1.51h.14a.16.16 0 0 1-.05 0h-.14v.64h.09a.25.25 0 0 1 .16 0h.13a1.65 1.65 0 0 0-.27 0v1.35h.09-.09v.86h.14l.11.06h.08a4.16 4.16 0 0 0 .51.07h.09a.61.61 0 0 0-.24.05h-.51a.94.94 0 0 0 .35 0h-.07a.94.94 0 0 0-.43-.06v.54a.24.24 0 0 0 .24-.02.32.32 0 0 0 .21-.08h.15a.5.5 0 0 0 .32.21v.12h.9a.18.18 0 0 0 .19-.05h.33v-.44l-.1.07h-.16.08a.4.4 0 0 1 .18 0v-.66h-.22a.16.16 0 0 0-.14 0c0-.06 0-.07-.09 0h.49v-.1h-.22.22V311H314.66 315.09v-5l-.18.05-.11-.08h.29v-.75h-2.35v3.21zm.89 5.52h-.08.05zm1.4-.61H315zm-.19.54zm-2-1zm.09.5h.05zm-.12-.36h.05a.08.08 0 0 0 .09-.05.08.08 0 0 1 .1 0l.07.09h-.35zm1.12.4l-.56.06a.14.14 0 0 1-.15 0 2.78 2.78 0 0 0 .39 0 1.3 1.3 0 0 1 .34 0zm.07 0zm-.74-.4a.12.12 0 0 0 0-.06h.55a.13.13 0 0 0 .13 0h.38zm1.2.05l.06.06h-.2zm-.07-.72a.09.09 0 0 1 .05-.06zm.17 1.59a1 1 0 0 0-.31.08h-.05a.11.11 0 0 1 0-.06.82.82 0 0 1 .41 0zm.47-3.57h-.21.19zm-.11-1.57h.2a.25.25 0 0 1-.17.11v-.11zm-.09.73h.12-.28.16zm0 1.82a.53.53 0 0 1-.35.06.36.36 0 0 1-.16 0 .7.7 0 0 0 .36 0h.2zm-.29-.31h-.11a.17.17 0 0 0-.15 0h.28zm-.26-.65zm.1-2.62h.16a.29.29 0 0 1-.18-.04zm.08-1.41zm-.21 0h.06a.33.33 0 0 1 .11 0h-.17zm-.06-.27zm-.12.26H314zm-.22 2.4h.52-.09a1 1 0 0 1-.39 0 .13.13 0 0 1-.08 0l-.07-.06h.06zm0 .77h.27-.17a.16.16 0 0 0-.08-.04zm.06 1.51h-.05l.07-.06zm-.26.5a1.93 1.93 0 0 1 .47 0H314a.11.11 0 0 0-.14 0h-.18v-.05zm-.09.35h.23-.58.32zm0-.48zm-.13-3.55h-.17.18zm0 .75h-.09a.54.54 0 0 0-.07-.11h.13zm-.23-.75h-.05.1zm-.19 2.66h.34a.7.7 0 0 1-.38 0 .08.08 0 0 1 .04 0zM315 315h.07v-.06a.09.09 0 0 0-.07.06zM314.81 314.51a.26.26 0 0 1-.16 0 .34.34 0 0 0-.28-.07.33.33 0 0 1-.12 0 .32.32 0 0 0-.25 0 .09.09 0 0 1-.13-.06.11.11 0 0 0-.1.07.26.26 0 0 1-.06.07h-.12a.16.16 0 0 0-.07 0h-.29c.14-.06.14-.06.14-.12l-.18.11h-.21a.39.39 0 0 1-.24-.07v.56h1.33a.17.17 0 0 0-.15-.1.53.53 0 0 0-.27 0 .09.09 0 0 1-.13-.05.13.13 0 0 0-.13-.08h-.34a.15.15 0 0 1 0-.05.59.59 0 0 1 .29-.06.27.27 0 0 0 .15 0 .87.87 0 0 1 .36 0h.48l.35.05a.11.11 0 0 0 .09.06h.26v-.21h-.28zm-2 .19z" transform="translate(-263.26 -284.98)"/><path d="M313.43 314.1a.52.52 0 0 0-.43-.1.06.06 0 0 0 .06.07.71.71 0 0 0 .37.03zM291.18 307.07h-.09s.07.08.09 0zM277.71 314.92a.11.11 0 0 0-.13.07h.16a.49.49 0 0 0 .28-.07h-.31zM286.58 306.36h.07a.17.17 0 0 0-.12-.07c-.08 0-.1 0-.14.08l.2.08v-.05zM288.09 307.1a.1.1 0 0 0-.13 0s.04.05.13 0zM285.45 306.28zM288.53 307.69zM285.33 306.26h.12zM286.92 306.71a.07.07 0 0 0-.08.06c0 .05 0 .05.08.06a.46.46 0 0 1 .16 0 .18.18 0 0 0 .18 0l-.29-.12zM288.42 307.64h.15c-.05-.03-.1-.06-.15 0zM289.21 307.8h.08v-.08a.3.3 0 0 0-.14.06zM289.21 315h.06v-.09a.16.16 0 0 0-.06.09z" transform="translate(-263.26 -284.98)"/><path d="M285 305.44h.15a.15.15 0 0 0 .15-.06h.05a.81.81 0 0 1 .23 0h-.23a.12.12 0 0 0-.11.06h-.27v.47h.1v-.1h.08l-.05.07h-.1v.27a.15.15 0 0 0 .14-.07h.05-.06.16a.06.06 0 0 0 0-.05h.09a.23.23 0 0 1 0 .06 1.85 1.85 0 0 1 .25 0h.35a.18.18 0 0 0 .2-.09 1.41 1.41 0 0 0 .26.07H287.99h-.67v.07h-.1a.6.6 0 0 0-.26.06h.04a.46.46 0 0 0-.23 0 .29.29 0 0 0-.26 0 .14.14 0 0 1-.1 0h-.19a.11.11 0 0 0-.12 0h.05a.23.23 0 0 1-.26-.08.24.24 0 0 0-.29 0v-.06l.62.06a.68.68 0 0 0-.38-.12H285v.95h2v.5h.08-.08v.55h.17l-.1.1a1.09 1.09 0 0 0 .22-.08.23.23 0 0 1 .14-.09h.1a.14.14 0 0 0-.07.06h.82a.79.79 0 0 0 .28 0 .58.58 0 0 1 .18 0h-.19a.42.42 0 0 1-.3-.07.13.13 0 0 1-.17.15.31.31 0 0 1-.23 0h.08-.16a.15.15 0 0 0-.17 0 .11.11 0 0 1-.06 0h-.16a1.59 1.59 0 0 0-.35 0v1.07a.61.61 0 0 1 .21 0 .76.76 0 0 0 .29 0h-.5v.73c0-.06.07-.13.11-.19l-.14.32h.23a1.2 1.2 0 0 0 .23 0 .13.13 0 0 0-.13 0l-.15.14c.1 0 .2 0 .27-.08v.14l-.2.08a.12.12 0 0 0-.19 0 .1.1 0 0 1-.09 0v.52h.3l-.27.2v2.59h.49v.09h.9l-.11.08h-.15a.32.32 0 0 0 0-.07h-.39v.06h-.08v-.06a.12.12 0 0 0-.16 0h-.07a.16.16 0 0 0-.18 0 .08.08 0 0 0 0 .05.71.71 0 0 1-.19 0v.33h.49v.12H287v.51a1 1 0 0 0 .29 0h.07a3.9 3.9 0 0 0 .58 0c.25 0 .5 0 .76-.06h.27l-.07.05-.14.06a.19.19 0 0 0-.13.07.33.33 0 0 0 .31.07.54.54 0 0 1 .23 0h.18v-1.09a.24.24 0 0 1-.14 0h-.06.21v-1.2h-.27a.09.09 0 0 0 0-.05h.29v-.35h-.06.06v-2.22h-.72a1.71 1.71 0 0 1-.25-.05.35.35 0 0 1 .15 0h.1a.64.64 0 0 0 .32 0 1 1 0 0 1 .29 0h.05v-.38h-.07v-.75h-.12a.24.24 0 0 0-.2.08 2 2 0 0 0-.46 0h-.13l.93-.08v-.14h-.08a.4.4 0 0 1-.23 0v-.11l-.06.07a.11.11 0 0 1-.11 0H288.35a.29.29 0 0 0 0-.08h.59l.18.08v.1h.2v-.39h-.14.13v-.27H289h.05a.19.19 0 0 0-.23 0h-1.04a.13.13 0 0 0 .08-.06h.23-.05a.49.49 0 0 0-.21 0v-.07a.76.76 0 0 0 .26 0 .57.57 0 0 0 .21 0 .14.14 0 0 0-.18-.07H288a.51.51 0 0 0 0-.21h-.2a.23.23 0 0 0-.2 0h-.08a.06.06 0 0 1-.08-.07h.09a.13.13 0 0 0-.19-.08.5.5 0 0 1-.23 0l-.45-.08h-.25.2a.07.07 0 0 0 .09-.1v-.09a.08.08 0 0 0 .09 0 .54.54 0 0 0 .16 0h.05a1.42 1.42 0 0 0 .45 0h.12a.07.07 0 0 1 .09.09h-.13a.44.44 0 0 0-.23.09.12.12 0 0 0 .13 0 .51.51 0 0 1 .11 0 2.25 2.25 0 0 0 .4 0h.32a.09.09 0 0 1 .11 0 .26.26 0 0 0-.15.1.54.54 0 0 0 .23.06H289.27h-.13a.36.36 0 0 0-.22.07.29.29 0 0 1-.14 0h-.19a.42.42 0 0 1-.34-.07.21.21 0 0 0-.2 0 .1.1 0 0 0 0 .09.1.1 0 0 0 .06.06h.42a.18.18 0 0 0 .17 0h.43-.07.15v-.16h1l.15-.06h-.06.18-.19.8v-.06l-.38-.09h-.07v-.06h.43v-.75.08h-.11l-.05.11h.09c0 .11 0 .11-.14.11v-.11l-.14-.09-.1.07.11.1h-.26a.21.21 0 0 0 0-.14h.84V306H291.02a1.14 1.14 0 0 0 .31 0v-.08H291a.11.11 0 0 0-.11 0h-.33a.36.36 0 0 1-.07.09h-.06v-.09l-.08-.12h.62a.64.64 0 0 0-.23-.1.75.75 0 0 1 .19 0h.19a.07.07 0 0 0 .05.05h.08a.06.06 0 0 0 .08 0v-.51H285v.19zm.35 0zm-.1 1.55a.13.13 0 0 1-.1 0 .39.39 0 0 0-.15-.07h.32zm.25-.3H285.07a.37.37 0 0 1 .25 0 1 1 0 0 1 .24 0 .29.29 0 0 1 .23 0H285.5zm.24.27zm.2.08h-.16a.14.14 0 0 0 0-.08h.17zm.21 0l-.08-.05H286.22a.26.26 0 0 1-.08.08zm1.1 2.65a.14.14 0 0 0-.12 0 .12.12 0 0 0 .12 0 .06.06 0 0 1-.01.03zm1.87 4.17zm-.49-4.4zm-.07-.55h.19-.11a.13.13 0 0 0-.09 0h-.06a.2.2 0 0 1 .06.03zm-.48-.4zm-.22 0h.06zm-.28 0h.07-.13zm-.15 2.4h-.07zm-.19 1.33zm.35.06h.08-.07zm.18-.8h-.15a.38.38 0 0 0-.12 0h-.1a.75.75 0 0 1-.16-.07.18.18 0 0 0-.07 0H287h.29a.09.09 0 0 0 .12 0h.22c0 .1 0 .14.07.15zm0 1.59h.09a.07.07 0 0 1-.07-.03zm0-2.44a.07.07 0 0 0-.1 0h-.2H288zm.26 2.68zm.25-2.71h-.11.11zm0 3.28h-.08zm.75.48h-.88a.1.1 0 0 0-.07 0v-.05a.32.32 0 0 1 .17 0 1 1 0 0 0 .2 0h.55zm-.53-3.38h.19v.06h-.14zm.12.44zm-.07-.76h-.15.14zm-.17-.11zm.43 2.79zm.08 0zm0-1.86h-.28.39a.27.27 0 0 1-.12.05zm.25-1h-.07a.07.07 0 0 1-.08 0h.15zm-.16.36h.12c-.08 0-.11 0-.11.09h-.13.1l.04-.02zm-.57-.67a.26.26 0 0 0 .13 0h.32l-.08.05h-.32a.3.3 0 0 0-.31.09.07.07 0 0 1-.12 0 .51.51 0 0 0-.28-.12v-.07h.25-.06.15-.08a.08.08 0 0 0 .09.06h.14zm-1.08-2.75c.06 0 .11 0 .1-.06v.25h-.21c0-.05.01-.09.1-.12zm-.7-.42h.59a.66.66 0 0 1-.37 0h-.25zm0-.45zm4.18-1.29a.16.16 0 0 1 .11.1c-.1 0-.12 0-.13-.1zm-1.71 1.36zm.27-.55a.25.25 0 0 0-.09-.05h-.11.36zm.44.6zm.53.43a1.6 1.6 0 0 0-.34 0 .06.06 0 0 1 .09 0 .14.14 0 0 0 .16 0h.09zm-.19-1.28h-.1.1zm0 .53h-.1s.1.03.13.07zm.11 0zm-.52-.77h.08a.18.18 0 0 0 .12 0H290.36h-.63zm0 1.41v.14c-.04.02-.04.01.01-.08zm-.1-1.41h-.65c.24.04.45.05.67.06zm-.84.41h.2a.18.18 0 0 0-.1.07.14.14 0 0 1-.08 0 .12.12 0 0 1 0-.02zm0 .94h.2-.21zm-.95-.25h-.08.55zm.33-.69h-.13.26a.3.3 0 0 1-.11.05zm-.48-.52h.6l-.05.08h-.15a.93.93 0 0 1-.41-.09zm-.14 0a.11.11 0 0 1-.14 0h.14zm-.4 0zm-.28-.11zm-.47.11h.46a1.33 1.33 0 0 0-.23.06 1.49 1.49 0 0 1-.37 0h.14zm-.35-.06zm-.24 0h.09-.11zm-.19 0z" transform="translate(-263.26 -284.98)"/><path d="M288 310.25l.08.11c.05 0 .08 0 .07-.07s-.09-.06-.15-.04zM276.14 306.56v-.11.1zM276.17 306.67zM273.47 307.16a.6.6 0 0 0-.45 0 .93.93 0 0 0 .45 0z" transform="translate(-263.26 -284.98)"/><path d="M273 307l-.06.25v-.14h.19-.06zM276.18 306.73zM276 311l.1-.05c-.1-.05-.1-.04-.1.05zM275.52 310.59v.1c0 .05.04-.07 0-.1zM275.88 310.49zM275.16 309.26h-.09a.13.13 0 0 0 0 .05.11.11 0 0 0 .05 0zM275.3 309.24h-.08.08zM274.08 309h-.3a.51.51 0 0 0 .3 0zM273.84 309.18l.27-.05a.17.17 0 0 0 .18-.09l-.3.05a.17.17 0 0 1-.09 0 .2.2 0 0 0-.07 0 .11.11 0 0 0-.09 0 .06.06 0 0 0 .1.09zM276.13 310.94zM273.76 309.14zM273.76 309.38zM274.06 309.2h.06-.06zM274.06 309.3a.38.38 0 0 0-.22 0c0 .14.1.15.24 0a.09.09 0 0 0-.02 0zM274.18 309.33zM274.19 309.21zM275.21 310.7h-.09s.06.05.09 0zM276.81 311.48zM275.8 306.58zM277.06 311.54h-.08zM276.87 311.44h-.07s.06.06.07 0zM274.34 306.41zM276.6 312.12h-.05zM273.14 310.52h.06-.06z" transform="translate(-263.26 -284.98)"/><path d="M278 314.16a.08.08 0 0 1 0-.08v.05l-.44-1.71v.07h-.3a.51.51 0 0 0 .13-.1l-.17-.06h-.86a3.17 3.17 0 0 0-.42 0h-.06l.18-.06a1.66 1.66 0 0 0 .33 0 .4.4 0 0 0-.1-.05l-.39-.22h-.3a1.76 1.76 0 0 1 .29 0h1.04a.31.31 0 0 0 .13 0h.07a.31.31 0 0 1 0 .05l.14.07.18.18a.12.12 0 0 0 .05 0h.07l-.41-1.61v.17a1.31 1.31 0 0 0-.3 0 .23.23 0 0 0-.17 0l.09-.08a.13.13 0 0 0-.11 0h.14a.18.18 0 0 0 .06 0h-.14a.1.1 0 0 1 .1 0 .22.22 0 0 0 .18 0h.16l-.3-1.15v.1a.23.23 0 0 0-.13 0 .14.14 0 0 0 0-.07.37.37 0 0 0-.11-.09 1.24 1.24 0 0 1 .19 0l-.24-.94h-.19a1.39 1.39 0 0 1 .22 0l-.43-1.68h-.15a.13.13 0 0 0 0-.09.14.14 0 0 0-.1-.11h-.08.13l-.18-.12h-.05-.34a.21.21 0 0 0 .1 0h.14a.19.19 0 0 0 0-.06c0-.1-.14 0-.2-.06s0-.1-.09-.11a1.6 1.6 0 0 0-.38 0 .1.1 0 0 0-.08 0h-.37 1.28a.18.18 0 0 0 .1 0l-.27-1h-2.39l-.17.65h.92a.36.36 0 0 0 .17 0h.15-.71a1.13 1.13 0 0 1-.35 0l-.26 1h.24a.34.34 0 0 0-.11 0c.07.07.07.07.13.06a.73.73 0 0 1 .34 0l.24.06h.08a3.06 3.06 0 0 1 .46.11 2.06 2.06 0 0 1-.28 0 .42.42 0 0 1-.3.06h-.1a3.62 3.62 0 0 1-.51 0h-.25l-.36 1.41h.16-.16l-.38 1.47h.21a.32.32 0 0 1-.19 0v.14-.06H273.11a.09.09 0 0 0 .09 0h.34a.17.17 0 0 1-.19.1 1.36 1.36 0 0 1-.3 0 .63.63 0 0 0-.24 0h-.76l-.83 3.22h.32-.33v.14h.16v.09a.16.16 0 0 0 .15 0 1 1 0 0 1 .52 0 .47.47 0 0 0-.14 0h-.2a.07.07 0 0 0-.06 0 .34.34 0 0 1-.18 0h-.24l-.1.37v-.11l.76.05h.29a.13.13 0 0 1 .07 0 .21.21 0 0 0 .17 0H272.11l-.06.05h-.75a.33.33 0 0 0-.2 0h-.09v.13h2.09a.23.23 0 0 1 .12.06v.06a.31.31 0 0 0-.23 0H271l-.08.32h2.39l.35-1.81h1.92v.23h.18-.14l.31 1.55h1.6a.22.22 0 0 0-.22-.05.16.16 0 0 1-.21 0h-.06a.13.13 0 0 1 .12 0h.2a3.85 3.85 0 0 0 .52 0h.36v.14l-.21-.83H278zm-1.18-2.76l.24.08.35.08v.08a1 1 0 0 0-.33 0H277l-.07-.06v-.1h-.13zm-.07.15zm-5.07.55h-.06.06v.06zm.16.61c0-.07.09 0 .13 0a.09.09 0 0 1-.11 0zm4.61-1.23s-.05 0-.06.07l-.37-.12a.07.07 0 0 0 0-.06h.14a.44.44 0 0 0 .12 0 .9.9 0 0 0 .19 0h.22-.12c-.02.12-.02.13-.11.12zm.24.09h-.06a.07.07 0 0 1 .07.01zm.35-1.11a.44.44 0 0 1-.13 0 .22.22 0 0 0-.16 0 .15.15 0 0 1-.06 0 .58.58 0 0 1 .36.01zm-.2-.56h-.32a1.2 1.2 0 0 1-.32 0h.18a1.17 1.17 0 0 1 .23 0 .29.29 0 0 1 .25.01zm-.41.53h-.1v-.06h.13zm-.67-.81a.09.09 0 0 1-.06-.06l.05-.06a.37.37 0 0 1 .27 0 .09.09 0 0 1-.1.11h-.16zm.15.65zm-.11-1v.09c0 .04-.02 0 .02-.07zm.17-.1h.15a.6.6 0 0 0 .13.07h-.14zm.24.33H276.5a.58.58 0 0 1-.22.09.15.15 0 0 0-.07 0 .08.08 0 0 1-.12 0 .11.11 0 0 1 .14-.07zm.46-.36h.12v.13a.24.24 0 0 0-.12 0 1.29 1.29 0 0 0-.37 0h-.06.14-.16a1.14 1.14 0 0 1 .46-.11zm-.19-1.22zm.05.21a.08.08 0 0 1-.06 0h-.08.13zm-.17.45zm-1-2zm-.14.34a.23.23 0 0 0 .21-.11l.25.08h-.11.16v.05h-.15a.22.22 0 0 0-.23 0h-.12zm-.07-.33H275a.11.11 0 0 1 .21.01zm-.28-.14a.09.09 0 0 0-.06 0h-.01a.09.09 0 0 1 .13.02zm0-.41a.13.13 0 0 0 .12 0h-.18.06zm-.37-.16a.11.11 0 0 0 .11-.06h.12a.36.36 0 0 1 .08.09h-.31zm-.28.17h.55-.57zm-.85.24h.07zm.09-.07a.55.55 0 0 0-.15 0l-.18-.06h.36zm-.09-.1a.15.15 0 0 0-.09 0h-.09v-.05h.9H273.37zm.54.12h-.16.08zm.18.2H274l-.27-.08h-.11.16a.08.08 0 0 0 .07 0h.15c0 .08 0 .09.1.07h.14-.12.28a.14.14 0 0 0-.06.05l.11.07-.1.05a1.05 1.05 0 0 0-.17-.15zm-.06 1.48h.44a1.66 1.66 0 0 0-.44 0h-.31a.42.42 0 0 1 .4.01zm.35.65v.06a.2.2 0 0 1-.13 0H274.4zm-.55-1h-.1.13zm-.22.1zm-1.18 1v-.11h.24a.24.24 0 0 0 .17 0h.62a1.36 1.36 0 0 1 .44 0 .08.08 0 0 1-.08.05H272.42zm1.31.13h.08a.11.11 0 0 1-.1 0h-.55.52zm-1.18 1.2a.21.21 0 0 1 .18.06.15.15 0 0 1-.18-.06zm.12-1.12h.45-.48zm.62 1.23a.43.43 0 0 1-.18 0h.18zm-.56.63h.05zm-.07.47h-.14a.39.39 0 0 1 .14-.04zm-.59 0zm0 1.54a1.34 1.34 0 0 1 .3 0h.08a.31.31 0 0 1-.35-.06zm0-.61h.12zm.68.69a.22.22 0 0 1-.13 0 .32.32 0 0 1 .14 0zm.47 1.26a.28.28 0 0 1-.28 0h-.12.42zm-.28-2a.08.08 0 0 1 .11 0h-.11zm.62 1.29a.26.26 0 0 1-.25.07.09.09 0 0 1 .08-.07h.22zm-.28-.58h.18c-.06.04-.1.04-.15-.03zm.79.16l-.05-.1-.11.06h-.12a.07.07 0 0 0-.1 0 .1.1 0 0 1-.11-.08h.53v.07a.1.1 0 0 0-.01.02zm.24-1h-.09a.49.49 0 0 0-.17 0H272v-.08H274.28a1.6 1.6 0 0 1 .32 0h-.08a.28.28 0 0 0-.18.05zm-.44-.7h.12a2.12 2.12 0 0 0-.3 0h-.19a1.93 1.93 0 0 1 .4-.04zm-.38-.6zm1.06 1.44h-.06zm.59-.84h.12-.19zm.23.7zm.17-.94a1.15 1.15 0 0 0-.37-.14.26.26 0 0 0-.11 0l-.05-.3.07.43.06.32h-.25v.07a.32.32 0 0 0-.14-.06H274l.06-.31.08-.43v.06h-.57a1.85 1.85 0 0 1 .36 0 .38.38 0 0 0 .21 0 .08.08 0 0 0 0-.1 1.44 1.44 0 0 0-.41-.15h.16a.27.27 0 0 0-.08-.05l-.42-.1h.44a.9.9 0 0 0 .21 0 .68.68 0 0 1 .21 0l.12-.68h-.18a1 1 0 0 0-.35 0 .16.16 0 0 1-.18 0 .55.55 0 0 1 .13-.29.14.14 0 0 1-.08 0 .2.2 0 0 0-.22-.09.79.79 0 0 1-.27 0h.78a2.71 2.71 0 0 0 .4 0v.18q.13-.8.2-1.47v.18h.46a.49.49 0 0 0 .33 0H276.25a.15.15 0 0 1 .11 0H274.92a1 1 0 0 1-.24 0q.06.5.16 1.06h.08a.13.13 0 0 1 .05.06.25.25 0 0 0 .25.09.41.41 0 0 1 .27 0 1.23 1.23 0 0 0 .23 0h-.17l-.4.07h-.24l.16.91h.51a.82.82 0 0 1-.36.05H275v.1h.15a.26.26 0 0 1-.13 0v.07a.21.21 0 0 0 .17 0 .61.61 0 0 1 .34 0h.22-.39a.38.38 0 0 1 .17 0h.15a.14.14 0 0 0 .12-.07H276.25a.36.36 0 0 1-.12.12.59.59 0 0 0-.22.1.11.11 0 0 0-.06.06.09.09 0 0 1-.11.06h-.25a1.26 1.26 0 0 0-.36 0 1.3 1.3 0 0 0 .29 0 .05.05 0 0 0 .06 0l.12.23a.48.48 0 0 0 0-.09h.1a1.25 1.25 0 0 0 .2 0 1.11 1.11 0 0 1 .46 0h.14a.17.17 0 0 0 .08.07h-1.01zm.11-1.12zm-.66-1.76h-.1.05zm-.27.47h-.06.07zm.88.93h-.07.11zm-.47 0h-.16.16zm1.14 4.23h-.05l.07-.01zm-.42 1.07v-.06h.1zm0-.86zm-.17-.1H276.1zm.26-.11h-.29v-.13a.59.59 0 0 0 .29 0H276.12a.57.57 0 0 1-.12.12zm.14 1.05a.26.26 0 0 1 .22 0 .16.16 0 0 1-.18-.01zm.75-2.28zm-.31 1.46h.08zm0-1.45h.23a.64.64 0 0 1-.21.01zm.39 2.32a.23.23 0 0 0-.11 0l-.07-.08h.23zm0-.82h-.17a.17.17 0 0 0 .11 0 .68.68 0 0 1 .18.08h-.1zm-.09-.08h.08zm.36-.22h-.5c0-.1.06-.1.17-.08h.12a.36.36 0 0 0 .13 0h.18a.8.8 0 0 0 .23 0h-.28zm.46.49zm0-.29l-.09.09h-.35.57a.15.15 0 0 1-.14-.04zM271.52 314.39zM273.63 307.14z" transform="translate(-263.26 -284.98)"/><path d="M275.78 313.71h.14a.08.08 0 0 0-.14 0zM280.68 314.64h-.07.07zM280.07 314.2H280v.13h.07zM281.2 314.17h.05zM282.18 313.58zM282.27 314.93h-.17a.17.17 0 0 0 .17 0zM281.09 308.87h-.07s.07.06.07 0zM280.84 311.45zM281 308.91z" transform="translate(-263.26 -284.98)"/><path d="M278 305.49h.36v.09a.25.25 0 0 0-.07-.05.14.14 0 0 0-.09 0h-.2v.06h.24a.31.31 0 0 0-.18 0v.89h.23a.44.44 0 0 0-.19 0v.73h2.1a.21.21 0 0 1-.16.06v1.47h.24a.07.07 0 0 0 .05 0h.06c0 .1 0 .11.08.12h.36c0 .06 0 .06-.13 0h-.1a1 1 0 0 1-.33-.06.29.29 0 0 0-.19 0h-.06v1h.46a.05.05 0 0 0 .06 0h.35-.06a.18.18 0 0 0-.12 0h-.56a.16.16 0 0 0-.1 0h-.06v.57h.18a.27.27 0 0 1-.14 0v.16a.94.94 0 0 0 .26 0 1.37 1.37 0 0 1 .23 0 .11.11 0 0 0 .15 0 .83.83 0 0 1 .24 0 3.78 3.78 0 0 1 .53 0h.25c.11 0 .13 0 .13.08a.89.89 0 0 0-.18 0h-.22l-.52-.05a.59.59 0 0 1-.18.05.21.21 0 0 1-.22 0h-.1a.63.63 0 0 1-.26 0h-.24v2h.28a.5.5 0 0 0 .17 0 .54.54 0 0 1 .31.08h-.15a1 1 0 0 0-.38 0h-.15.02v1.22a.34.34 0 0 0 .14 0h.61-.06.1a.06.06 0 0 0 0 .07.09.09 0 0 0 .11 0 .12.12 0 0 1 .12-.06h.23v.09h-.31l.06.05a.44.44 0 0 0 .22 0h-.26s0-.09-.07-.08H280.48a.3.3 0 0 0 0-.07.15.15 0 0 0 .06 0 .17.17 0 0 0-.2 0h.06-.27a.21.21 0 0 1-.08.09v.24h.23a.31.31 0 0 0 .07.1.12.12 0 0 0 .16 0l-.07-.06 1-.05a.23.23 0 0 1-.11.15.07.07 0 0 0 0 .11.06.06 0 0 0 .06 0 1.51 1.51 0 0 1-.38 0 .12.12 0 0 0 0-.07h-.2a.34.34 0 0 0-.09 0 .2.2 0 0 1-.09 0H280v.58h1.94v-.07a.16.16 0 0 0-.08-.14h.46v-.38a.11.11 0 0 1-.11 0l.12-.07v-.08a.14.14 0 0 0-.08 0 .21.21 0 0 0-.12 0c-.07 0-.1 0-.14.07a.11.11 0 0 1-.07-.05c-.06 0-.16 0-.17-.09h-.17.8v-.21H281.03a.39.39 0 0 1-.19 0h-.37a.1.1 0 0 1-.11-.06.08.08 0 0 0 0-.06.1.1 0 0 0-.07 0 .27.27 0 0 0-.17 0h.65v.07a.08.08 0 0 0 .07.11.3.3 0 0 0 0-.07.17.17 0 0 1 0-.1h.19l.66.17h.13a.06.06 0 0 0 .08 0v-.17a.1.1 0 0 0 .05-.06h.05s-.11 0-.09.09.09 0 .13 0l.27-.1v-.29h-.51.06a.28.28 0 0 0-.15 0 .2.2 0 0 1-.07-.07h.67v-.31H282a.14.14 0 0 1-.13 0h.48v-.32h-.19.23v-1.71h-.12a.3.3 0 0 1-.25.06.25.25 0 0 1 0-.08.09.09 0 0 1 .07 0h.26v-1.35h-.11.11v-.56h-.07a.1.1 0 0 0-.1 0L282 309h-.06a.24.24 0 0 0-.21 0h-.28a.36.36 0 0 1-.18 0v-.11l-.06.07a.12.12 0 0 1-.11 0h-.1.06a.46.46 0 0 1 .32-.06h.13v.06-.06h.2c.09 0 .11 0 .11-.11h.18a.19.19 0 0 0 .13 0 .05.05 0 0 0 .05-.07h.09v-.08h-.38v-.08h.38v-.48h-.36H282.33v-.73h2v-1.45l-.32-.1h.32v-.56H278v.24zm3.69 9.3a.35.35 0 0 1-.23 0h-.13a.48.48 0 0 1 .23 0h.15zm-.24-.59zm.14-1.62zm-1.28-1.17zm.72 1.84zm.25-1.86a.25.25 0 0 0-.23.08h-.15a.76.76 0 0 0-.26 0h-.24.07a.07.07 0 0 0 .05-.05h.13a.13.13 0 0 0 .11 0h.49zm.17 1.8a.09.09 0 0 1-.08-.09.24.24 0 0 1 .1.06.12.12 0 0 0 .07 0h.08c-.08.07-.09.07-.17.04zm.2-.37h-.2a.11.11 0 0 1-.05-.05h.33zm.09-3h-.08.08zm.16 1.63l.1.05a.19.19 0 0 0-.1-.03zm.17.19zm0-.54h-.2.2zm-.2-.95h.05a.17.17 0 0 1-.01.02zm0-.78h.06v.11a.23.23 0 0 1-.13 0l.13-.09zm-.5 0a.15.15 0 0 1 .08.14h.53l-.21.05h-.26a.15.15 0 0 1-.12 0v-.17zm0 .37h.16a.16.16 0 0 0-.12 0 .14.14 0 0 1-.06 0zm-.28 0H281h.11zm.94-1.48zm-3.75-1.26h-.06.24a.16.16 0 0 1-.18 0zm.16-.35a.18.18 0 0 1 .11 0 .1.1 0 0 0 .1 0 .17.17 0 0 1-.21 0zm.47 0h-.13.12zm1.19-.07h-.07l.06-.08a.43.43 0 0 1 .09.06zm0 .52h.06-.14zm.19.13zm.44-.12h-.39.32a.7.7 0 0 1 .45 0 1.66 1.66 0 0 1-.34.04zm3.08-.36zm.28-.38h-.18a.62.62 0 0 1 .2 0zm0-.11h-.25a.5.5 0 0 0-.17 0h-.45a.08.08 0 0 0 .07 0h.79zm-.64-.3h.18c-.07.1-.09.1-.16.04zm-.15-.64h.35-.21a.12.12 0 0 0-.15 0h-.06zm0 .61a.17.17 0 0 1-.15 0v-.05a.22.22 0 0 1 .13.12zm-.8.11zm0 .24h.78-.43a.27.27 0 0 0 .2.06.66.66 0 0 1 .31 0 .13.13 0 0 0 .15-.05.1.1 0 0 1 .07 0H283.81h-.16a.21.21 0 0 0-.14.09l.08.11-.06.07H283.36a.51.51 0 0 0-.21-.07h.13a.25.25 0 0 0-.24 0h-.14a.19.19 0 0 0-.18 0h-.1a.2.2 0 0 1 0-.1h-.06a.24.24 0 0 1-.31-.08h.26zm.34.34v.08h-.14zm-.87 0zm.12.41a.16.16 0 0 0 .15-.09.16.16 0 0 1 .07-.08h.56l.32.06h.25-.77a.51.51 0 0 0-.26 0 .37.37 0 0 1-.14 0 2 2 0 0 1-.71 0h-.12a.44.44 0 0 1 .16 0h.4zm-.97-1.03h.12a.48.48 0 0 0 .28 0c0 .1 0 .11.08.12h.13l-.06.07-.08-.07a.12.12 0 0 0-.18 0h-.08v-.06h-.19a.05.05 0 0 0-.06 0H280.86a.16.16 0 0 0-.09-.08h.42zm-.57-.39a1.19 1.19 0 0 1 .26 0 .73.73 0 0 1 .25.05h-.24a.64.64 0 0 1-.21 0l-.09-.06zm0 1a.34.34 0 0 0 .22.08h.1a.15.15 0 0 0-.18.14.73.73 0 0 1-.45 0h.37a.15.15 0 0 0 .05 0 .14.14 0 0 0-.05-.05h-.18a.17.17 0 0 1-.09 0h.25zm-.27 0zm0-1.18h.18-.26a.9.9 0 0 1-.32 0h.41zm.08 1.07h.08-.62c-.06 0-.08 0-.11.05h-.85a3 3 0 0 1 .95 0 2.74 2.74 0 0 0 .48-.11zm-1.42-.81a.38.38 0 0 1 .22 0H279.5h-.2a1 1 0 0 1-.45 0zm-.36 0s.06-.05 0-.1h.12l.16.09h-.36zm.08.68h-.45.09a.11.11 0 0 0 .08 0h.34zM282.68 306.38zM267.75 306.7zM270.41 312.1a.17.17 0 0 0-.15-.11h-.35a.71.71 0 0 0 .29 0 5 5 0 0 0-.74 0v-.08a.88.88 0 0 0 .23 0 .21.21 0 0 0 .1 0 .34.34 0 0 1 .17 0 .15.15 0 0 0 .16 0h.3a3.09 3.09 0 0 0-.1-.69h-.18v.08a1.08 1.08 0 0 0-.18-.11.29.29 0 0 0-.21 0h.26a.1.1 0 0 1-.12.08h-.15a.36.36 0 0 0 0-.15.39.39 0 0 0 0 .15h-.5a.24.24 0 0 0-.12 0h-.13a.28.28 0 0 0-.21 0h-.25a.1.1 0 0 1-.11-.08.7.7 0 0 1-.14 0H268a2.12 2.12 0 0 1 .09.67 2.32 2.32 0 0 1 0 .31h.43a.11.11 0 0 0 0 .06h-.39a.79.79 0 0 1-.81.81h-1.11v-.72a.7.7 0 0 0-.32 0 .27.27 0 0 1-.11 0h-.17a.32.32 0 0 0-.16-.06H266.21v-.54h-.3v-.12h.22a.21.21 0 0 1 .12 0v-.45h-.09a.67.67 0 0 0-.24 0 .69.69 0 0 0-.24 0H265.51l-.08-.05h.17a.17.17 0 0 0 .16-.08h.23v.09l.15-.11h.07v-.33H266a.76.76 0 0 0-.45.07h-.31a.16.16 0 0 1-.2-.07.43.43 0 0 1 0 .1.13.13 0 0 1-.06.07h-.28a1.34 1.34 0 0 0-.33 0h-.1.11a.45.45 0 0 0-.38.09h.1a.66.66 0 0 1 .18 0 .1.1 0 0 1-.09.08H264v.49a1.52 1.52 0 0 0 .28 0 .21.21 0 0 1 .21 0H264v2.23a.2.2 0 0 0 .22-.07.13.13 0 0 1-.07.14h-.23v.31h.6a1.87 1.87 0 0 1 .44 0h.51a2.85 2.85 0 0 0 .66 0h.67-.27a.59.59 0 0 1-.15 0 .29.29 0 0 0-.2 0H266a3.49 3.49 0 0 0-.87 0 .84.84 0 0 0 .29 0h2.25a.15.15 0 0 0 .12-.05H268.26a1.05 1.05 0 0 0 .3 0h.69l-.13.07.18-.1h-.05.09a2.12 2.12 0 0 0 .4-.33 2.38 2.38 0 0 0 .23-.28l-.08.11h-.24a1.72 1.72 0 0 1-.34 0 .79.79 0 0 0-.26 0h-.54a1.48 1.48 0 0 1-.35 0 2.46 2.46 0 0 0-.32 0 .85.85 0 0 0 .18.08h-.05a.7.7 0 0 0 .38 0h.23-1.01v-.06a.42.42 0 0 1 0-.05.19.19 0 0 0 .13 0 .15.15 0 0 0 .07-.06h.23a.2.2 0 0 0 .06 0 .77.77 0 0 0-.25 0h-.06 1.17-.15H269.06a.31.31 0 0 1 .2 0h.28a.07.07 0 0 0 .05 0h.41a3.32 3.32 0 0 0 .52-1.93v.1zm-.11-.85h.05v.08a.05.05 0 0 1-.05-.07zm0 0zm-6 1h-.05a.33.33 0 0 0-.12 0H264h.27zm.39-.9h.6a.33.33 0 0 1-.21 0 .39.39 0 0 0-.16 0 .61.61 0 0 1-.22 0zm-.37 0h.18-.22zm.15 1.87h.11a.13.13 0 0 1-.1-.06zm.25-.6a.43.43 0 0 0 .22 0h.05a1 1 0 0 1 .23 0l-.51.06zm.08.61h-.06.26a.13.13 0 0 1 .09 0h-.28zm.47 0h-.09a.09.09 0 0 1 .09 0zm-.14-1.26H265a.22.22 0 0 0 0-.07v.07h-.47H265.14a.34.34 0 0 1 .12 0 .36.36 0 0 0 .19 0h.32a3.3 3.3 0 0 1-.63-.06zm.57 2h-.06a.09.09 0 0 1 .07-.07h.1zm.12-.08zm1.4-.51zm-.56 0h.19H266.62zm.27.45a.69.69 0 0 0-.2 0h.27a.52.52 0 0 0 .21 0h.24-.56zm.65.27zm2.18-1.26h-.06l-.3-.08h.1a.32.32 0 0 1 .16 0zm-.73-.13zm-.2 0h-.39v-.12.11a.33.33 0 0 0-.21 0c.07 0 .09 0 .09-.11h.95a.22.22 0 0 0 .17.06.33.33 0 0 1 .24.08h-.29zm.6.79zm.31-.49l.08-.06zm.38-.21H270h.1zm-.28.19h.11-.11zm.47.11h-.09a.6.6 0 0 0-.25-.09h.09a.14.14 0 0 0 .15 0h.05a.08.08 0 0 1 .06 0zM267.39 306.7h-.23.22zM267.59 306.7h-.05.05zM267.58 306.74h.11c-.07-.04-.07-.04-.11 0zM266.65 306.78a.73.73 0 0 0-.44 0 1.13 1.13 0 0 0 .44 0zM266.89 306.78h.07-.07zM266.73 306.78h.06-.06zM264 306.72v.05zM269.38 308.9zM266 306.79h.07-.07zM267.77 306.72a.38.38 0 0 0 .3 0 .47.47 0 0 0-.3 0zM264.13 306.27a2.51 2.51 0 0 0 .52.05h.36-.1.32a3.86 3.86 0 0 1 .69 0h.08c.01 0 .06.06.11.05H267.51a.27.27 0 0 0 .24 0v.06h.25-.07H268.37a.78.78 0 0 0 .17 0h.68a1.19 1.19 0 0 1 .25 0 1.54 1.54 0 0 0 .42 0 .11.11 0 0 0 .11-.06.28.28 0 0 0-.19-.05 5.16 5.16 0 0 1-.66 0h-.09H269.92l.08.15.06.13a2 2 0 0 0-.49-.73 3.07 3.07 0 0 0-2.14-.64H264v.31h.31-.29v.46h.09-.11v.25a.35.35 0 0 1 .13.02zm3.06.05H266.9h.27zm.51 0zm1.13 0h.09zm-.07-.48h.11H268.75zm-.16-.44h-.07.1zm-.24.42h.22a.89.89 0 0 1-.29 0zm-.08 0H268zm-1.17-.45H267h.17zm-.77 0zm-.17.7a2.4 2.4 0 0 0 .43-.06.87.87 0 0 1 .37 0h.52a2.66 2.66 0 0 0 .64 0 .05.05 0 0 0 .07 0h.19a2.87 2.87 0 0 0-.39.08h1.5a.11.11 0 0 0-.05 0 .09.09 0 0 0 0 .08.07.07 0 0 0 .07 0 .27.27 0 0 1 .22-.09l.09.13h-.68a2 2 0 0 1-.4 0h-.95a1.74 1.74 0 0 1-.41 0 2 2 0 0 0-.3 0 .52.52 0 0 1-.2-.11h.16a.74.74 0 0 0-.43 0l.12.08h.05v-.06a.29.29 0 0 0-.25.06h-.07a.69.69 0 0 0-.28-.06h-.23a.09.09 0 0 0-.09 0h-.14a1 1 0 0 1 .44-.04zm-.46-.68h.15-.18zm-.32.68h-.05zm-.59 0zm0-.06h-.06zm0-.26a.22.22 0 0 1-.11 0h.11zm-.3.17h.23l-.11.07h-.17a.15.15 0 0 1 .04.01z" transform="translate(-263.26 -284.98)"/><path d="M266.59 306.11a.25.25 0 0 0-.29 0 .22.22 0 0 0 .29 0zM270.38 311.91zM267.75 306zM268.27 306.72h-.07.07zM268.52 306.76h-.08.08zM264.65 314.5zM265.06 315h.2a2.92 2.92 0 0 1 .3-.09.31.31 0 0 1 .28 0l.23-.2a.17.17 0 0 0 0-.07H266l-.54.08a.36.36 0 0 1-.11 0 .32.32 0 0 1-.21.06h-.53a.13.13 0 0 0-.07 0h-.52a.14.14 0 0 0-.09 0v.22h1.09zM264 311.14zM264 311.24zM268 311.22h.21zM266.21 310.83h.41a2.16 2.16 0 0 0-.41 0zM266.38 314.85h-.14c-.06 0-.14 0-.17-.05h-.09a.11.11 0 0 0 .13.07.22.22 0 0 1 .18 0h.1a.14.14 0 0 0-.01-.02zM268.32 314h.13c-.09-.07-.09-.07-.13 0zM268.69 314h.05-.05zM265.73 311.24h-.05zM266 311.24h.07-.07zM267.33 314.67a.13.13 0 0 0-.14 0c.1.05.1.05.14 0z" transform="translate(-263.26 -284.98)"/><path d="M269 314.62a.1.1 0 0 0-.08 0 .84.84 0 0 1-.37 0 .24.24 0 0 0-.16 0 .07.07 0 0 1-.06 0 .52.52 0 0 0-.28-.05.84.84 0 0 0-.18 0h-.29s-.05 0-.05.05a1.51 1.51 0 0 0-.28.07h-.05a1.76 1.76 0 0 1-.3.22h.54a3.73 3.73 0 0 0 1.72-.35zM266.6 314.69a.56.56 0 0 0-.23.07.21.21 0 0 0 .23-.07zM267.13 314.7a.61.61 0 0 0-.29 0 .18.18 0 0 0-.06 0 .59.59 0 0 0 .35 0zM269.67 311.24zM266.63 309.39a.08.08 0 0 0-.12 0h.09zM265.86 307.63h.08-.08zM267.8 307.31zM267.75 307.25zM268.45 307.2zM266.33 309.89z" transform="translate(-263.26 -284.98)"/><path d="M264.35 310.95a.2.2 0 0 0 .18 0h.34l-.08-.1h.28a.07.07 0 0 0-.05 0h1.03a.68.68 0 0 0 .24 0 1.36 1.36 0 0 0 .25 0h.17l.14.09h.39a.75.75 0 0 1 .65.29H269a1.18 1.18 0 0 1-.26 0 1.81 1.81 0 0 0-.44 0h-.09.32a2.45 2.45 0 0 0 .58 0 .38.38 0 0 0 .21 0v-.16h.21a.34.34 0 0 0 .1 0 1 1 0 0 1 .29-.06h.31a1.83 1.83 0 0 0-.24-.53 2.26 2.26 0 0 0-.95-.79l.24-.15h-.3H269.39a2.23 2.23 0 0 0 .59-.59h-.06a.17.17 0 0 1 .12 0l-.04.05a1.6 1.6 0 0 0 .17-.37.28.28 0 0 0-.21 0 .1.1 0 0 1-.06 0h-.18a.11.11 0 0 1-.11-.06h.6a2.47 2.47 0 0 0 .09-.44h-.17l-.42-.09H270.27v-.31a4.08 4.08 0 0 0 0-.51h-.08.1a2.79 2.79 0 0 0-.17-.63h-.07a.57.57 0 0 1-.14 0h-.07a.31.31 0 0 1-.19 0 .12.12 0 0 0 .13-.06 3.26 3.26 0 0 1-.38 0h-.4.05-.33.1a.15.15 0 0 0-.13 0H267.76a1.18 1.18 0 0 0-.4 0h-.99l-.3-.09-.17-.05a.11.11 0 0 0 .06-.06l-.07-.09c0-.07-.07-.08-.15 0h.14l-.11.1-.43-.14a.14.14 0 0 0-.08 0 .45.45 0 0 1-.23 0l-.43-.09-.34-.09c-.13 0-.16 0-.17.14H264v.1l.42.12.26.08H264.19a.33.33 0 0 1-.19 0v.45h.07-.07v.26h.93a.13.13 0 0 1 .13-.07h.16-.22v.06a.39.39 0 0 0-.19 0 .46.46 0 0 1-.16 0h-.14a2.32 2.32 0 0 0-.52 0v.51h.27l.06.06H264V308.57h.19a.29.29 0 0 0 .23 0h.72a.21.21 0 0 0 .18 0h.99-.07a1 1 0 0 0-.44.14.59.59 0 0 1-.14 0h-1.15a2 2 0 0 1-.38 0H264v1.06H264.57l.19.06a2.7 2.7 0 0 0-.51 0h-.24V311a2.08 2.08 0 0 1 .32 0 .1.1 0 0 1 .02-.05zm5.39-.74zm-.3.12h.12l-.08-.1a.21.21 0 0 1 .11 0 .13.13 0 0 1 .1.13h-.09a.35.35 0 0 0-.14 0 .08.08 0 0 1-.08 0zm-.27-.4h.16a.35.35 0 0 0-.19 0h-.07zm-4.87-3.46h-.05zm3.51 4.05h-.09.09zm.66-.18h-.1a.08.08 0 0 0-.11 0 .07.07 0 0 1-.09 0H267.27a.09.09 0 0 0 .08-.08h1.09zm.13 0h-.07.09zm.18 0h-.15v-.06s.13 0 .18.08h-.11zm.73-1.44l-.22-.06a.35.35 0 0 1 .21.05zm0-.32zm-.08-.2a.16.16 0 0 1-.19-.07h.32zm.27-1.57h-.1.07zm-.1.63a.25.25 0 0 0 .29 0 .53.53 0 0 0 .23.14H270l-.43-.06a.08.08 0 0 0-.1 0h-.28a.19.19 0 0 1-.09-.07h.47zm-.36.87a.38.38 0 0 1 0 .1.12.12 0 0 1-.06.07h-.28a1.29 1.29 0 0 0-.36 0v.05a.31.31 0 0 1-.12 0 .12.12 0 0 0 .12-.08.22.22 0 0 0 0-.26l-.13-.09h.13l.42.06zm-.16-.87a.19.19 0 0 1-.17 0l.09.09h-.51l-.38-.06h.08a.18.18 0 0 1 .1 0h.19a.19.19 0 0 0 .18 0 .14.14 0 0 1 .08 0 2 2 0 0 1 .26.01zm-.98 1.56l.18.06h-.23a.06.06 0 0 0 .05-.06zm-.11-.86H268.05 268zm.74-.79h-.09a.08.08 0 0 1 .1-.03zm-3.75.15a.06.06 0 0 0 0-.08 2.6 2.6 0 0 0 .4.07l-.15.08zm.37.1h-.13.1zm-.23.15h.25zm.19.57a.07.07 0 0 1 0-.07h.05v.07h-.07zm.21.08zm-.11-.82h-.06l.17-.09h.15-.06zm.76 1.49v-.7h-.44a.09.09 0 0 1-.06 0 .13.13 0 0 1 0-.06h.46v.06-.15a.3.3 0 0 1-.17 0 .33.33 0 0 1 .18 0v-.05a.08.08 0 0 1-.09 0h.09v-.21H265.9v-.07.07h-.29a.21.21 0 0 0 0-.2h.16-.07a.64.64 0 0 1 .31 0h.18v-.56h1a.77.77 0 0 1 .48.14h.83v.1h.15v.06l-.3.06a2.52 2.52 0 0 0-.4 0h.14-.17a1.39 1.39 0 0 1 .1.58q0 1-.75 1h-1.06zm1.54.3zm-.49-.29a.33.33 0 0 1-.15 0h.15zm-.66.15a.05.05 0 0 1-.06.06l-.07-.17h.33a.16.16 0 0 1 0 .1.16.16 0 0 0-.13.05v-.08c-.05-.05-.06-.02-.06.02zm.15-.12h.05zm-.1.24c.1 0 .14 0 .14-.06h.25s0 .06.07.06h-.16c-.06 0-.07 0-.06.11a.11.11 0 0 0-.12 0 .25.25 0 0 0-.18 0 .34.34 0 0 1-.17-.06.39.39 0 0 1 .25-.07zm-.34-.12zm-.1 0zm-.12 0c0 .06 0 .06-.09 0zm-.12.59H266.49v.05a.06.06 0 0 0 .08 0 1.12 1.12 0 0 1 .31-.09h.56a1 1 0 0 0-.19 0h1.53c0 .11.08.07.13.1a.22.22 0 0 0-.19.07h-.24v-.07h-.05a.39.39 0 0 1-.25 0h-.11a.08.08 0 0 0-.1 0h-.13a.11.11 0 0 0-.11 0h-.78a.15.15 0 0 0-.09 0h-.47a.13.13 0 0 0-.11 0h-.06l-.22.12zm-.69.66H265.68h-.14a.73.73 0 0 0-.31 0 .09.09 0 0 1 .03-.01zm-.2 0zm-.08.34a.09.09 0 0 1-.1 0h.14s0-.04 0 0zm-.05-.41zM267.88 309.91zM268 310h-.1.1z" transform="translate(-263.26 -284.98)"/><path d="M266.83 309.84h-.1s.07.05.1 0zM307.17 311h-.05zM307.26 311h.07-.07zM307.25 311h.07zM306.58 307.48h-.05zM306.23 312.82H306.4c-.15-.06-.17-.06-.17 0z" transform="translate(-263.26 -284.98)"/><path d="M305.79 307.47h.11a.05.05 0 0 0 .08 0h.24a.09.09 0 0 1 .07 0 .07.07 0 0 0 .11 0h.28a.07.07 0 0 1 .08.08.27.27 0 0 1 .09-.07h.25-.07.3a.18.18 0 0 0 .12 0h.34l-.64.07h-.1l-.46-.06v-.07c-.06 0-.06 0-.07.07h-.3.08a.22.22 0 0 0 0-.05.85.85 0 0 0-.27.07H305.6v3.27h.45-.13a.3.3 0 0 1-.13 0 .42.42 0 0 0-.2 0v.22s.08-.05.12 0a.23.23 0 0 0 .15 0h.21a.58.58 0 0 0-.23 0 .91.91 0 0 1-.28.09v1.52h.44a.39.39 0 0 0 .26 0 .15.15 0 0 1 .09 0 2.46 2.46 0 0 1 .47.11h-.3c-.07 0-.07.05 0 .11h-.09a.11.11 0 0 0-.07 0 .05.05 0 0 0 0 .06.56.56 0 0 1-.19-.1v-.09h-.11v-.05a.08.08 0 0 0-.12 0h-.11v.38a.16.16 0 0 1 .12.06h-.12v1.34h.15a2.22 2.22 0 0 1 .66 0h-.3v.07a5.43 5.43 0 0 1-.55 0v.5h.52a.19.19 0 0 1 .17 0h.35a.13.13 0 0 0 .11 0 .23.23 0 0 1 .22 0l-.08.05h.47a.13.13 0 0 1 .08 0h.52v-.67a.61.61 0 0 0-.3 0 .12.12 0 0 1-.09 0h-.05H308.18v-.79h-.2.21V311.9h-.29a.25.25 0 0 1 .15 0h.06v-.36h-.06.08v-.19h.28H308.17a.49.49 0 0 1 .21 0 .69.69 0 0 0 .19.06 2.35 2.35 0 0 1 .38 0h1.46v-2h-2.3v-.43H308h.06-.22.11a.37.37 0 0 0 .13 0h.05v-1.26h3.52v-2h-5.85v2.22zm.07 5.4zm.38.89a.09.09 0 0 1-.1 0 .2.2 0 0 1 .13-.08zm.21.07zm0 .82a.14.14 0 0 1 .14 0h-.14zm3.77-3.84zm-.38-1.39zm-.41.32zm-1.7-1.08zm-.66-.48a.79.79 0 0 0 .29 0l-.3.06v-.05h.35v.16a.3.3 0 0 0-.14 0H307v-.16zm-.47 2.66zm-.14.13h.06l.24-.06h.08a.52.52 0 0 1 .22-.14h.14a.42.42 0 0 1 .21.07h.07a.08.08 0 0 0 0 .06h-.09.06a.28.28 0 0 1-.13 0 .17.17 0 0 0-.18 0h.15a.07.07 0 0 1 0 .06h-.37a.09.09 0 0 0-.12 0h-.37a.2.2 0 0 0 0-.17h-.09zm.75-1.13h.31-.24v.16h-.12v-.06a.18.18 0 0 0 .1 0zm.25.38zM307 312h.07a1.08 1.08 0 0 0 .26 0h.1-.43zm.42.25h-.09.09zm-.09-1.06zm-.65.31h-.09c-.02 0 0-.06.05-.07a.55.55 0 0 1 .27 0zm.17.24h-.07.07zm-.16 0h-.22v-.05h.12a.12.12 0 0 1 .15.02zm-.52-.29h.12-.08a.15.15 0 0 1 .11 0c0 .08-.08.09-.17 0zm-.34.85zm0-.34zm.42.34h-.3.3zm.25.1a.37.37 0 0 1-.2 0h.14v-.06a.06.06 0 0 1 .11 0c.11.01.07.03.03.04zm.22 0h-.09v-.12h.21a.14.14 0 0 0 .11 0h.22v.08a.32.32 0 0 1-.17.08h-.09c.03-.1-.01-.1-.11-.06zm.35.37H307a.15.15 0 0 1 .15-.02zm-.46 1.13h-.07l-.08-.07h.54a.07.07 0 0 1-.06.05h-.07a.12.12 0 0 0-.18.01zm.12-.13a.42.42 0 0 1 .18 0 .19.19 0 0 1-.17 0zm.31.89h-.13a.1.1 0 0 1-.13 0 .08.08 0 0 1 .1-.06h.12a.63.63 0 0 0 .21.05h.11zM307 313a.75.75 0 0 1 .25 0zm.09.84zm.26 0h-.12a.09.09 0 0 0 0-.06h.05zm0-.1a.14.14 0 0 1 .1 0zm.49-.79H307.43a.59.59 0 0 0 .3 0 .32.32 0 0 1-.18 0 .69.69 0 0 0-.2 0h-.06a.73.73 0 0 0-.23 0h-.26a.12.12 0 0 0-.05-.05h-.05.14a.41.41 0 0 1 .12-.06h.25a.43.43 0 0 0 .23 0h.17a1.77 1.77 0 0 1 .24 0zm-.2-1.79c0-.06 0-.06.13-.08a.12.12 0 0 1-.17.03zm.16.81h-.12a.11.11 0 0 1 .08-.05zm.12-.77l-.07-.06h.16-.06zm0-.21h-.1v-.06h.07l.1.06h-.09zm.79-.47h-.11.11zm.1 0zm-.26-1h.22-.06a1.38 1.38 0 0 0-.38 0 .2.2 0 0 1-.1 0 .17.17 0 0 1 .12 0h.21-.09c.03-.05.03-.05.06-.09zm-.36-.28h.06a1.71 1.71 0 0 1-.32 0h.25zm.32.11a2.55 2.55 0 0 1-.51 0 1.6 1.6 0 0 0-.27 0h-.07v.07h.27a.32.32 0 0 1-.21.06h-.22.06a.42.42 0 0 0-.3 0 .27.27 0 0 1-.12 0h-.15a1.52 1.52 0 0 1 .29 0 1.22 1.22 0 0 0 .28-.06h.11a3.47 3.47 0 0 1 .81-.16zm1.81-2.76a1 1 0 0 1-.36 0 1.58 1.58 0 0 0 .33-.09zm-1-.07a.26.26 0 0 1 .19 0h.06a.18.18 0 0 0 .14 0h.06a.4.4 0 0 1-.3 0h-.2a.21.21 0 0 0-.06-.09h.06zm-.32-.05h.1a.07.07 0 0 1-.11 0zm-.29.12a.09.09 0 0 1 0-.09.16.16 0 0 0 .18.11h-.32zm-.48 0h.23a.73.73 0 0 1-.3 0zm-.37 0h.2v.07a.12.12 0 0 1-.14.07.08.08 0 0 1-.06 0 .09.09 0 0 1 0-.16zm-.25.05a.21.21 0 0 1 .11-.07v.06a.09.09 0 0 1-.11 0zm-.2.83zm-.39-.94zm-.63.4h.22a.59.59 0 0 0-.16 0 .1.1 0 0 0-.1 0zm-.3 0h.06-.07a.07.07 0 0 1-.06 0h.06zM306.6 311.67z" transform="translate(-263.26 -284.98)"/><path d="M305.86 312.74l-.08-.05v.06h.07zM304 314.94h.1-.1zM301.31 314.94zM303.9 314.91h-.15c.12.09.12.09.15 0z" transform="translate(-263.26 -284.98)"/><path d="M38.05 29.96z"/><path d="M301.86 314.78h-.24c.11.12.15.12.24 0zM301.62 314.8zM303.39 314.88h.06zM301.86 314.61a.49.49 0 0 1 .31.12 1.75 1.75 0 0 0 .32.13.14.14 0 0 0 .06 0 .19.19 0 0 0 0-.05h-.06a.23.23 0 0 1-.07-.06c-.05-.09-.07-.09-.16 0s0-.06-.08-.06a.84.84 0 0 1-.35-.08h-.11a.13.13 0 0 0 0 .05.45.45 0 0 0 .14-.05zM304.24 315z" transform="translate(-263.26 -284.98)"/><path d="M301.08 311.92h-.42v.09h-.05a.48.48 0 0 0-.24 0h-.11a1.18 1.18 0 0 0 .32-.08.61.61 0 0 0-.33-.07.31.31 0 0 1-.28-.09.16.16 0 0 1-.2 0 .23.23 0 0 0-.11 0h-.14a.12.12 0 0 0 0-.06h-.34a.18.18 0 0 0-.13 0l.19.05-.11.08v.11a.18.18 0 0 1-.11 0 .19.19 0 0 0 0-.14l-.26-.06v1.33a.71.71 0 0 0 .24 0 .12.12 0 0 1 .09.08.57.57 0 0 0-.29 0v1.63h2.5a.09.09 0 0 0 0-.06h-.22a.2.2 0 0 1 0-.07.06.06 0 0 0 0-.08l-.28-.07a.49.49 0 0 1 .25-.12.21.21 0 0 0 .27 0 .43.43 0 0 1 .21 0h.09l.14-.14h.52a.82.82 0 0 0 .18 0 .18.18 0 0 0 .18-.08.12.12 0 0 1 .14-.09h.17-.1l-.09.15c.06.08.1.09.18 0a.28.28 0 0 1 .13 0 .19.19 0 0 0 .18-.13.45.45 0 0 0 0 .07s0 .09.07.08a.77.77 0 0 1 .28 0c.13 0 .15 0 .11-.14a.24.24 0 0 1 .18 0 .26.26 0 0 0 .24 0 .1.1 0 0 0 .13.08.6.6 0 0 1 .25 0 .13.13 0 0 0 .1 0h.08V314h-.19.05v-1h-3.49v-1.08zm-2.21 2.47zm3.76-.39h.37a.06.06 0 0 0 .09 0h.1-.07c.1.08.16.06.21 0h-.09.4a.27.27 0 0 0 .18 0h.54-.13a.17.17 0 0 1 .13.08h-.15a1.17 1.17 0 0 0-.36 0 .16.16 0 0 1-.18 0h-.37a.12.12 0 0 0-.13 0h-.27a.47.47 0 0 1-.23 0zm-.14-.59h-.12a.27.27 0 0 1 .12 0zm-.09.6h.09a.56.56 0 0 1-.33 0 1.41 1.41 0 0 1 .24-.01zm-.28.39h.11a.24.24 0 0 1-.25 0zm-.11-1h-.09l-.15-.06zm-1.21-1.25zm-.8-.15a.19.19 0 0 1 .1 0h-.2.1zm-.64 1.26h-.11a2.64 2.64 0 0 1 .5 0h.52v.08a.06.06 0 0 0 0-.08h.34a.5.5 0 0 0-.28.06h-.07a.16.16 0 0 0-.09-.12l-.14.05a.06.06 0 0 0-.05 0h-.11a.23.23 0 0 0 0-.1l-.15.09h-.54zm.46.14zm-.14.19a.9.9 0 0 1-.4 0h-.05.05a.26.26 0 0 0 .14 0h.12zm-.61-.08zm1.51 1.19h-.22a.62.62 0 0 0-.29 0 .12.12 0 0 1-.09 0 .66.66 0 0 0-.33-.09h-.06l-.31-.06a.21.21 0 0 1-.13-.06h1.06-.01a.05.05 0 0 0 .09 0l.17.07a.43.43 0 0 1 .09.07l.07.06a.06.06 0 0 0 .1 0 1 1 0 0 1-.11 0zm.3-.21zm0-.7zm.3.81h-.11c.06-.08.08 0 .11 0zm.13-1.07v-.09l.05.06h-.07zm.06 1h-.1a.07.07 0 0 1 .1-.06zm-.28-1.16h.09a.26.26 0 0 1 .12.06c-.07 0-.08 0-.1.09a.58.58 0 0 0-.16 0h-.13a.09.09 0 0 1-.1-.08.65.65 0 0 1 .18.07.11.11 0 0 0 .1 0h.16zM299.13 311.88zM301.43 314.93h-.12c.07.07.07.07.12 0zM299.78 313.25zM299.51 313.33h-.08zM304.48 314.56h.07-.46a2.33 2.33 0 0 0-.32 0c-.07 0-.09 0-.1.12a.26.26 0 0 1 .19-.05 1.12 1.12 0 0 1 .34 0 .54.54 0 0 0-.08.2.91.91 0 0 1 .2 0c.06 0 .14 0 .17.06s-.11 0-.11.05a.11.11 0 0 0 .1 0 .12.12 0 0 1 .1.1v-.15a.12.12 0 0 1 0-.12v-.18h-.1zM300.08 311.73a.74.74 0 0 0 .44 0 1.07 1.07 0 0 0-.44 0zM300.45 311.62v.09zM300.88 311.83c.06 0 .14 0 .2.05v-.23l-.06.13a.19.19 0 0 0-.14.05z" transform="translate(-263.26 -284.98)"/><path d="M299.79 311.75h.07a.26.26 0 0 0-.26 0h.12a.11.11 0 0 0 .07 0zM298.86 311.83h.14a.13.13 0 0 0-.14 0z" transform="translate(-263.26 -284.98)"/><path d="M299.55 311.72l.09-.06h.18a1.71 1.71 0 0 1 .41 0h.48l-.09.15a.24.24 0 0 0 .09 0l.29-.14v-.75h1.64v-.13h.36a.13.13 0 0 1-.1 0 .11.11 0 0 0-.07 0h.49V310.58h-.48a.07.07 0 0 0-.08 0h-.29a.46.46 0 0 1 .13 0h.29a.16.16 0 0 1 .08 0 .42.42 0 0 0 .22 0h.25v-1a.21.21 0 0 1-.18 0h.18v-.68h-.57v.11a.25.25 0 0 0 0 .09h-.23a.12.12 0 0 0-.11 0h-.06v-.14a.07.07 0 0 0 0-.05h-1.27v-1.66h2.45l-.26-.06h.17a.27.27 0 0 1 .18.05h.24a.21.21 0 0 0 0-.1h.18-.16a.42.42 0 0 1 .14 0h.24-.22.28v-1.9h-.07a.09.09 0 0 0 0-.06h-4.12a1.63 1.63 0 0 0-.06.16.08.08 0 0 1-.1.07h-.21a.67.67 0 0 0 .1-.11h-.05v-.09h-.87a.16.16 0 0 1-.06.06.44.44 0 0 1-.16.06h-.05v1.23H299.08a.24.24 0 0 1-.28.1v.69h.23-.21v2.86h.15a.62.62 0 0 0 .23 0 .37.37 0 0 0 .18 0l-.16.1H299.1a2.39 2.39 0 0 0 .32 0 3.36 3.36 0 0 1 .34 0 .25.25 0 0 0 .28 0 .68.68 0 0 0 .21 0 .12.12 0 0 1 .09.08.56.56 0 0 0-.29 0 1.35 1.35 0 0 0-.41 0 .54.54 0 0 0-.34.09h.07-.06a.09.09 0 0 0-.05-.09.06.06 0 0 0-.06 0 .26.26 0 0 0-.24 0 .15.15 0 0 0-.07 0v.64h.12v.09h.19-.16a.11.11 0 0 0-.11.08h.63a.28.28 0 0 0-.17 0h.31-.37v.08h-.47v.08h.69zm3.72-.91zm-.14-.64h-.07a.06.06 0 0 1 .07 0zm-.28-3v-.06zm-3.85 3.05zm0-.32h-.05.18a.12.12 0 0 1-.13 0zm.14-4.55h.08a.14.14 0 0 1 0 .11.15.15 0 0 1-.1-.11zm0 1.41a.12.12 0 0 1 .1-.13h.31l-.22.07a.22.22 0 0 0-.19.05zm.4.74a.09.09 0 0 0-.09 0 .17.17 0 0 0-.1 0h.29zm.11-.82zm1 4.15zm1.61-.18h-.06zm-.17 0v.09zm-1-.12h.63a.72.72 0 0 0-.17.11.42.42 0 0 0-.22.08.28.28 0 0 0-.35-.05v-.06a1.48 1.48 0 0 1-.63-.06l.19-.05h-.11.68zm-.09-.71h-.14a.18.18 0 0 1 .23-.03zm-.3-2.23h-.15a.24.24 0 0 1 .24-.04zm.05 1h-.06c.08-.12.1-.11.15-.08zm0 1.07a2.21 2.21 0 0 1-.7 0h.07a.85.85 0 0 0 .28 0 1.4 1.4 0 0 1 .45-.09zm-.32-2.19c-.09 0-.2 0-.29.06h-.07l-.06.06h.2-.28a.15.15 0 0 0-.09-.08 4.75 4.75 0 0 1 .69-.13zm-.74.05h.13l-.06.09-.05-.06zm0 .32a.46.46 0 0 0 .18 0h.1l-.07.08-.19-.08zm.11 2a.34.34 0 0 0 .23 0 3 3 0 0 1 .64 0h-.23a.5.5 0 0 0-.19 0 2.63 2.63 0 0 1-.31-.1zm.18 1.09h.05-.08zm-.09-.09zm-.63.58h-.1a.11.11 0 0 1-.09-.09h.12a.09.09 0 0 1 .11 0zm.06-.64a.13.13 0 0 1 .07 0zm.12.59h-.06.08zm.1-.54h.17-.17zM299.08 311.59c-.11 0-.14 0-.15.08z" transform="translate(-263.26 -284.98)"/><path d="M299.17 311.46a.16.16 0 0 0-.18 0c.14.06.15.06.18 0zM304 307.23h-.07.07zM301.28 314.8l.25.05a.06.06 0 0 0 .08-.06h-.22a.15.15 0 0 0-.11.01zM300.41 309.72h-.14.14zM298.88 305.3a.06.06 0 0 0 .09 0h-.17zM304.48 305.25zM300.13 305.32v-.06H300a.14.14 0 0 0 .13.06zM300.95 310.51zM298.83 310.44h-.08v.14a.28.28 0 0 0 .11-.07zM323.64 314.56h-.08.08zM323.58 308h.09-.07s.05 0 .08-.07a.12.12 0 0 0 0-.07v.14z" transform="translate(-263.26 -284.98)"/><path d="M325.9 311.16v-.65H325.61a.22.22 0 0 1-.23-.07l-.11.06v-.13h.13a1.26 1.26 0 0 0 .2 0 1.12 1.12 0 0 0 .27 0v-.57h-.84a.05.05 0 0 0 0-.07 2.59 2.59 0 0 1 .37 0h.08c.01 0 .06.06.1.05h.07a.12.12 0 0 0 .1 0h.14v-1.47h-.21a1.61 1.61 0 0 1-.42-.1 1.31 1.31 0 0 0-.48 0h.29a.06.06 0 0 0 .06 0h.43s.1 0 .1-.06h.19v-.06h-.2a.51.51 0 0 0-.45-.13h-.07v-.06l.61.06a.11.11 0 0 0 .13 0v-1a1 1 0 0 0-.29.11h.14-.16.07-.07a.19.19 0 0 1 .08 0h.08-.22a.22.22 0 0 1 0 .07h-.34a.34.34 0 0 0-.14 0 1.41 1.41 0 0 1-.36 0l-.41-.07a1.45 1.45 0 0 0-.29 0 1.52 1.52 0 0 1 .32 0H325.11s.1 0 .1-.06v-.15a.23.23 0 0 1 .23 0 .1.1 0 0 0 .06 0h.07a1.06 1.06 0 0 1 .37 0v-.77h-.15a.32.32 0 0 0-.17 0 .24.24 0 0 1-.18.05h-.26a.11.11 0 0 0-.09 0c-.09-.14-.09-.14-.2-.14h-.22a.93.93 0 0 1-.22 0h-.25a.08.08 0 0 0-.14 0h-.09a.11.11 0 0 1 .08 0h.25a.13.13 0 0 0 .09 0 .24.24 0 0 1 .22-.07H326.06v-.48h-.15v.11a.11.11 0 0 0-.08 0 .33.33 0 0 0-.14 0 .08.08 0 0 1-.09-.09 2.61 2.61 0 0 1 .46 0v-.1a1.6 1.6 0 0 1-.24 0 2.37 2.37 0 0 1-.24 0h-1.85v2.44h.07a.36.36 0 0 0 .22-.06.24.24 0 0 1 .14 0 .27.27 0 0 1 .14.05.07.07 0 0 1-.08.06h-.15a.13.13 0 0 0-.12.1.15.15 0 0 0 .06.13.1.1 0 0 1-.07.08l-.22.06v1.29h.37a.44.44 0 0 1 .21 0h-.06c.1.08.17 0 .26 0v.06h.2-.05a.22.22 0 0 0-.12.06h-.31l-.09-.06a.23.23 0 0 0-.14 0h-.24v1.61a.57.57 0 0 1 .25 0c0 .09 0 .11.08.11h.32v-.09h1.13a.18.18 0 0 0-.08 0 .44.44 0 0 1-.18.11s0-.06-.09-.06h-.49l.17.06h-.35a.09.09 0 0 0-.11.07h.69a.57.57 0 0 1 .17 0 .57.57 0 0 0 .24 0 .84.84 0 0 1 .27 0 1.16 1.16 0 0 1-.33.05h-.19l-.45-.08a1.3 1.3 0 0 0-.56 0 .14.14 0 0 0-.12 0h-.07a.41.41 0 0 1-.21 0 .28.28 0 0 0 .08-.1h.3a.12.12 0 0 0 .07 0 .08.08 0 0 0 .07 0v-.07h-.13l-.24-.06h-.3v.2h.14a.31.31 0 0 1-.14 0v1.28h.16-.16v.65h.06a.09.09 0 0 0 .09 0h.16a.27.27 0 0 1 .18.05l-.07.1h-.22a.16.16 0 0 0-.17 0h-.17v1H324.13l-.24.08a.3.3 0 0 1-.14 0 .4.4 0 0 0-.17 0v.51H327a.3.3 0 0 0 .23-.05v.05h1.73v-.51h-.18.17V313h-3v-1.8zm-.25-1.1h-.22a.47.47 0 0 1 .22 0zm-.28-1.41h.07a.3.3 0 0 1-.21 0h-.09v-.08zm-.14-.68a.08.08 0 0 1-.09.07v-.08zm.56-1.05zm-.55.25h.4a.1.1 0 0 0 .11 0v.11a.42.42 0 0 0-.17 0h-.47.14zm.35-.86h-.39a1.08 1.08 0 0 1 .38 0zm-1.72-.59zm1.13 3.88h-.05a.14.14 0 0 1-.09 0h-.06.2zm-.72-1.44a.07.07 0 0 1-.08 0h.38zm.31 2.22h-.14c.12-.08.13-.08.17 0zm-.7.46l-.2-.06h.07a.2.2 0 0 0 .18 0h.08s0 .06-.06.07h-.1zm.07.29h.16a.13.13 0 0 1-.12 0zm1.08-.42h-.11a.36.36 0 0 0-.31.07h-.44l-.06-.09H325.06zm0-.32h.13-.17zm.11-.35a.28.28 0 0 0 .13 0h-.16zm.19.84v-.05h.07zm-1.54 1.9zm-.14 1.14h.07zm5.24-.13zm-3.17-2.79zm-.13 0a.12.12 0 0 1-.06 0h.13zm-.13.77zm.27 1v.07a.5.5 0 0 1-.28-.06h.28zm-.35.06c0 .05 0 .05-.11 0zm.25.25h-.52.52zm-.36.63a.2.2 0 0 1-.11 0 .15.15 0 0 1 .16 0zm-.43-1zm-.23.09h.18s0 .05-.09.06h-.19a.2.2 0 0 1 0-.07zm.15.26a.12.12 0 0 1-.09 0h.09zm-.72-.7zm0 0zm0 .44h-.15a.34.34 0 0 1 .22 0 .21.21 0 0 0 .12 0h.32a.09.09 0 0 1-.13.06 1 1 0 0 0-.43-.08zm.38.7zm-.16 1.3a.17.17 0 0 1 .21 0 .33.33 0 0 1-.25-.02zm.3-.21a.39.39 0 0 0-.16 0 .58.58 0 0 1-.23 0H324.75a.3.3 0 0 1-.22-.03zm0-1.45h-.11.51-.12a.87.87 0 0 1-.34-.02zm.82 1.46a.47.47 0 0 0-.33.06l-.13-.09h.53-.07zm-.39-.27c0-.1.08 0 .11 0h-.12zm.33 0h.15a.17.17 0 0 1-.22-.02zm.12-.23a.78.78 0 0 1-.27.08v-.05h-.06l-.07.07-.07-.19h.14a.18.18 0 0 0 .12 0h.35a.82.82 0 0 0 .22 0h-.19a.17.17 0 0 0-.24.07zm.26.51zm.16-.21a.55.55 0 0 1-.22 0 .39.39 0 0 1 .26 0zm-.08-.72a1 1 0 0 1 .29 0 .15.15 0 0 1-.07 0h-.25zm.86.73zm.47 0zm.83.41a.28.28 0 0 1-.12 0 .71.71 0 0 0-.43.05.14.14 0 0 0 0-.16h.6a.12.12 0 0 1-.12.12zm.74-1.55zm-.39 0h-.1a.08.08 0 0 1 .04.01zm-.49 0zm-.07.56h.67a.45.45 0 0 0 .21.06 3 3 0 0 1-.47 0h-.49.08zm.53.3a.1.1 0 0 1-.07 0h-.35zm-.6.29h.24a5.18 5.18 0 0 1 .57 0 .21.21 0 0 1 .2 0 1.16 1.16 0 0 1-.35 0 .93.93 0 0 0-.27 0h-.26a1.11 1.11 0 0 1-.4 0 .36.36 0 0 1 .19 0h.08zm-.09-.59zm-.17-.3h.07-.07zm-.39-.22h-.12a.22.22 0 0 1 .1-.02zm-.12.72h.54-.54zm-.23-.93zm-.24.49zm0 .42h.22a1.61 1.61 0 0 0 .26 0H326s.06 0 0-.06h.2a.11.11 0 0 0 .16.05zm-.27-.46h-.17zm-.06-.41zm0 0h-.1a.26.26 0 0 1-.12 0 .28.28 0 0 1 .12-.04z" transform="translate(-263.26 -284.98)"/><path d="M323.78 314.59h.13a.1.1 0 0 0-.13 0zM324.61 311.21a.31.31 0 0 0-.22 0 .33.33 0 0 0 .22 0zM325.12 311.21H325a.18.18 0 0 0 .12 0zM325.57 310.45h.33v-.05h-.27s-.06 0-.06.05zM324.18 306.14h.16c-.08-.08-.12-.08-.16 0zM325.75 308.05v.13a.42.42 0 0 0 .18 0v-.1zM324.47 306.09a.13.13 0 0 0 .16-.06c-.13-.03-.17-.03-.16.06zM321.91 314h.09-.07zM321.39 313.7h.12c-.05-.06-.08-.07-.12 0zM322.22 313.5h-.24a.23.23 0 0 0 .24 0z" transform="translate(-263.26 -284.98)"/><path d="M322.17 313.54a.38.38 0 0 0-.13 0h.3-.18zM322 313.71h-.44a.22.22 0 0 0-.18.05h.66a.13.13 0 0 0 0 .06l.25.15v-.42h-.23a.11.11 0 0 0-.06.16zM322.35 313.52zM321.5 306.85h-.06.06zM319.14 305.25zM316.75 314.43a.22.22 0 0 0-.19-.07v.1h.14zM316.65 311.94zM316.86 314.38zM316.75 312.21h.13-.13zM317.68 312zM317.71 312c-.08-.07-.14-.07-.28 0a.25.25 0 0 0 .1 0 .23.23 0 0 0 .18 0zM317.07 312.1c-.08-.06-.09-.06-.16 0a.2.2 0 0 0 .16 0zM321 309.27zM317.76 312.15a.26.26 0 0 0 .21 0s.06 0 .06-.08a.81.81 0 0 0-.27.08zM316.8 311.81h.12l.27.09h.18a.08.08 0 0 0 .08 0h1.37v-1.07h.18l-.07-.09v-.06h.21a.07.07 0 0 0 .06 0h.26-.09a.07.07 0 0 0 0 .06.11.11 0 0 0 .06 0 .16.16 0 0 0 .18-.1h.11a.16.16 0 0 0 .15 0h.58a.05.05 0 0 0 .06 0h.08a.23.23 0 0 0 .11 0 .47.47 0 0 1 .24 0h.11v-.23H320.93v-.15a.1.1 0 0 0 .14 0v-.22a.62.62 0 0 0-.17 0 .14.14 0 0 0-.05-.07h.2v-.31h-.27l-.21-.05a.15.15 0 0 0-.1 0 .17.17 0 0 1-.14 0l-.06-.06h.47a.11.11 0 0 0 .12-.06h-1.52l-.35-.06h-.51.11a2.09 2.09 0 0 1 .37 0h.33-.09.12a2.08 2.08 0 0 0 .4 0 1.52 1.52 0 0 1 .32 0h.34a.07.07 0 0 0 0 .06l.11-.08h.39s.1 0 .1-.06v-.12h.15v-.33h-2.21v-.07h-.19.26v-.29a1.07 1.07 0 0 0-.47 0h-.22l.2-.18-.09-.1c0 .11-.09.07-.15.07h-.08a.34.34 0 0 0 0-.1h.61v-.85h3.4v-1.06a2.23 2.23 0 0 1-.38-.08h.41a2.2 2.2 0 0 0-.73-.11V306a1.13 1.13 0 0 1-.29 0h-.28v-.29h.44a.23.23 0 0 1 .06-.09h.21a.27.27 0 0 1-.14.13h.07l.42.05h.21v-.56h-2.74l.25.1c-.09 0-.09.05-.07.15v.07h-.03a.09.09 0 0 1 0-.05.15.15 0 0 0 0-.09.36.36 0 0 0-.18-.11.65.65 0 0 0-.37 0 .06.06 0 0 1-.09 0 .07.07 0 0 1 0-.1h-2.38v1.11H317.26a.14.14 0 0 1 .14.05.11.11 0 0 1-.13.07 1.86 1.86 0 0 0-.47 0h-.26v2.33h.24v.08a1.33 1.33 0 0 0 .61 0l-.14-.06h.07a.09.09 0 0 1 .07 0h.08a.25.25 0 0 0 0 .06h.07a2.31 2.31 0 0 1-.28 0h-.74v1.49h.11a.2.2 0 0 1-.11 0v.66h1.46c0 .07 0 .07-.11.07a.74.74 0 0 0-.19 0h-.29.07-.07a.94.94 0 0 0-.43-.06 1 1 0 0 1-.26 0h.05a.25.25 0 0 0-.1 0h-.12v.72a.66.66 0 0 1 .18 0h.05zm3.7-1.82h.25-.28a.08.08 0 0 1-.07 0zm.67-3.16h.36v.11h-.33a.3.3 0 0 0 0-.1zm-.71-1.49zm-.95.23zm-.46.65zm-.33-.9l.12.11h-.14zm-1.89 4.06v.06zm0 1zm1.5 1.44v-.07h.13zm.55-1.42a.19.19 0 0 1-.14 0h.14zm-.57-4h-.14a.35.35 0 0 1 .15 0zm-.17 2.05a.17.17 0 0 1-.23 0h.09s.11-.05.15 0zm-.1-1.61h-.07a.22.22 0 0 0-.12 0 .15.15 0 0 1-.15 0H318s0-.03 0 0zm-.07-.45a.4.4 0 0 1-.29-.05.75.75 0 0 1 .32.05zm-.2 1.72h.16a.12.12 0 0 0 .08 0 .17.17 0 0 0 0-.13h.07v.22a.76.76 0 0 0-.26 0h-.17zm-.33 0v.05zm0 .2h.11-.11zm.12.19h-.08c-.01 0 0-.09.05-.08a.3.3 0 0 1 .26.06h-.07zm-.07 1.85v.09-.1h.06zm.25.47a.83.83 0 0 1-.35 0h-.08l-.17-.16h.27a.06.06 0 0 0 .06 0h.09a.46.46 0 0 0 .22 0 .94.94 0 0 0 .29 0h.14a.27.27 0 0 0-.07.1h.55a.1.1 0 0 0-.12 0v.05h-.28v-.1a1.92 1.92 0 0 0-.29 0 .41.41 0 0 0-.24.16zm-.91.78h.17a.29.29 0 0 0 .17-.05h.2a.09.09 0 0 0 .07 0h.47v.08h.09a2.52 2.52 0 0 0-.39 0h-.71zm0 0zM318.86 312h-.08a.12.12 0 0 0 .08 0z" transform="translate(-263.26 -284.98)"/><path d="M321.07 310.82h-1.1a.75.75 0 0 0-.22.05l-.15.07h1.45v-.07zM317.08 312.09a.59.59 0 0 0 .38-.06.8.8 0 0 0-.38.06zM321.07 309.39v-.06h-.08zM321 305.85h.07-.07zM322.25 305.93h-.12.12zM317.29 312.27h.07-.07zM316.83 314.76h.25a.19.19 0 0 0-.17-.13.3.3 0 0 1-.14-.05.19.19 0 0 0-.19 0v.27a.9.9 0 0 1 .25-.09zM320.89 314.61h.06-.06zM321 314.5h-.07.07zM320.83 314.51h-.13.12zM320.92 314.35a.22.22 0 0 1-.07 0h-.48a.19.19 0 0 0-.18.09H321a.14.14 0 0 0-.08-.09zM320.57 314.51z" transform="translate(-263.26 -284.98)"/><path d="M318.86 312.09l-.07.05-.5-.1h-.13a.09.09 0 0 0-.1.11v.28h-.14a.69.69 0 0 1-.3 0 .67.67 0 0 0-.27 0h-.26l-.48.11h.09-.06v.26h.33a.41.41 0 0 0 .24 0 .93.93 0 0 1 .35-.05h.4a1.46 1.46 0 0 0 .39 0 1.19 1.19 0 0 1 .26 0H319.08a.53.53 0 0 0-.26 0 .22.22 0 0 0-.21-.09.62.62 0 0 0-.29 0h-.16v.16h-.56a.11.11 0 0 0-.16 0h-.19.23c0-.06 0-.09-.07-.08a.48.48 0 0 1-.17 0h-.11a.18.18 0 0 0-.15 0H316.57v.19a.08.08 0 0 0 .07 0h.2a.09.09 0 0 1-.12 0h-.15v1H317.01h-.12.38v.12a.13.13 0 0 0 0 .06l.31.18.29.18h.13l-.21-.05-.68-.14h-.13a.09.09 0 0 0-.1.1v.12h4.08a.37.37 0 0 1 .21 0h1.23v-.25a.2.2 0 0 1-.16-.08.23.23 0 0 1-.24.06.6.6 0 0 0-.17 0h-.06l.08-.07a.21.21 0 0 1 .07 0 .54.54 0 0 1 .25 0h.22v-.4a.42.42 0 0 1-.16-.05.19.19 0 0 0-.15 0 .33.33 0 0 1-.19 0h-.52a.21.21 0 0 0-.06.05h.26v.13h-.23l.23.09v.24h-.17a.54.54 0 0 0-.38.08.19.19 0 0 0-.28-.08l-.29.06h-.06l-.05.06c0-.09-.06-.18-.1-.26a.12.12 0 0 0-.17-.08H320a.38.38 0 0 1-.12 0h-.42a.06.06 0 0 0-.06 0h-.13c0-.06 0-.08-.07-.08h-.6a.65.65 0 0 0-.23 0 .41.41 0 0 1-.17 0 3.48 3.48 0 0 0 .51-.05h.07a.17.17 0 0 0-.15-.1.53.53 0 0 0-.27 0 .09.09 0 0 1-.13-.05.12.12 0 0 0-.1-.07.16.16 0 0 0-.16 0h-.26a.17.17 0 0 1 0-.05.57.57 0 0 1 .29-.06.29.29 0 0 0 .15 0 .85.85 0 0 1 .36 0h.48a3.18 3.18 0 0 0 .58.06.3.3 0 0 0 .19 0h.08a.08.08 0 0 0 .09 0l.07.4a1.79 1.79 0 0 0-.46-.1.25.25 0 0 1-.16 0 .35.35 0 0 0-.28-.07.29.29 0 0 1-.12 0 .32.32 0 0 0-.25 0 .09.09 0 0 1-.13-.06.11.11 0 0 0-.1.07.16.16 0 0 1-.12.08h-.7a.48.48 0 0 1-.22 0h-.84l.18-.06H317.46c0-.09 0-.11-.07-.12a.42.42 0 0 0-.25 0 .14.14 0 0 1-.16 0h.24a2.19 2.19 0 0 1 .33 0h.45v.13c0 .04.12 0 .14 0s.11-.07.19-.07l-.07.08.06.11a.18.18 0 0 0 .14-.12l-.07-.08h.09a.12.12 0 0 1 .11 0h-.09c.07.06.09.07.11 0a.12.12 0 0 0 .14 0v-.11H319.05a.21.21 0 0 1-.1 0 .19.19 0 0 0-.19.12.48.48 0 0 0 .38-.07h.1a.09.09 0 0 0 .14 0h-.06.24-.09.11a.17.17 0 0 1 .08 0 .32.32 0 0 0 .27 0h.29a1 1 0 0 1 .36 0 .09.09 0 0 0 .07 0 .17.17 0 0 0 .07-.16h.43v.12h.08a.33.33 0 0 0 .26-.14h.07c.07 0 .1.08.15 0a.14.14 0 0 1 .09-.05h.31v-.5h-3.49v-.91zm-2 .61h-.16a.12.12 0 0 0 0-.07 2.74 2.74 0 0 1 .33 0 .39.39 0 0 0-.21.07zm.77 0a.41.41 0 0 1-.16 0 .35.35 0 0 1 .2 0zm.31.06h.06zm.23 0a.12.12 0 0 1 .15 0zm.48 0zm.38 1.82h-.06zm-1.45-.54zm-.36 0l.06-.05h-.12zm-.34-.1h.12a.1.1 0 0 1-.15.07zm-.13 0a.11.11 0 0 1 0 .07.05.05 0 0 1-.04-.11zm.06-.42zm.22-.09zm1.06 0zm2.09 0h.23a.72.72 0 0 1-.27.01zm.49 0h.14a.56.56 0 0 1-.23 0h.09zm-.94-.4h.08l.23.06H320.5a.09.09 0 0 0 .07.08h-.29a.24.24 0 0 0-.1 0h-.65.16zM321.06 314.6zM321.34 313.78h-.06.06zM319.26 314.44h-.07z" transform="translate(-263.26 -284.98)"/><path d="M319.7 314.33v.06a.19.19 0 0 0 .1 0 .26.26 0 0 0 .05-.08.16.16 0 0 0-.15.02zM317.2 314.78a.14.14 0 0 0 .17 0c-.07-.09-.12-.08-.17 0zM321.3 314.49a.17.17 0 0 0-.19 0 .19.19 0 0 0 .19 0zM320.69 313.77h.39a.1.1 0 0 0 .08-.09h-.47zM320.35 313.85l.28.09h.18c.07 0 .09 0 .09-.07s0-.08-.09-.08h-.49zM321.21 314.13h-1.23a.45.45 0 0 0 .26.1H320.9a1.92 1.92 0 0 0 .25 0s.07-.05.06-.1zM320.23 314.27h.13-.13zM321.1 313.52a.28.28 0 0 0-.19.08c.09.06.16.04.19-.08zM319.46 314.46h.07s-.04-.01-.07 0zM331.6 305.32h.08-.08zM330.45 306.28a.25.25 0 0 0 .3.11.1.1 0 0 0-.09-.09.08.08 0 0 1-.05 0 .12.12 0 0 1 0-.06.09.09 0 0 0 0-.15 1.56 1.56 0 0 1 .27-.07.82.82 0 0 0 .26 0h-.16a.43.43 0 0 1 .21 0 .16.16 0 0 0 .08 0h.63a.35.35 0 0 1 .23 0h2.21a.09.09 0 0 0 .06-.06H335.31a3 3 0 0 0-1.25-.67h.08l-.05.05v-.07a4.74 4.74 0 0 0-1.25-.15H330v.06h.88a5.31 5.31 0 0 0 .62 0 .23.23 0 0 0-.12 0h.73v.12l.13-.06.08-.06H333.15a2.88 2.88 0 0 1 .67 0h.09v.06h-.15s0-.05-.08-.06h-.23a.31.31 0 0 0-.17 0 .24.24 0 0 1-.18.05h-.1l-.59.06h-.09a.91.91 0 0 1-.22 0h-1.11a1.23 1.23 0 0 0-.53.05 1.06 1.06 0 0 1-.42 0v.63h.18a.32.32 0 0 0 .23.31zm1.72-.94a.14.14 0 0 1 .11 0zm1 .48zm-2.71.08h.13a.21.21 0 0 1-.08 0 .24.24 0 0 0-.07-.07zm-.16 0v.09-.08zm0 .2l.08.17h-.05a.11.11 0 0 1-.07-.19zM330.58 305.35zM332.48 305.38z" transform="translate(-263.26 -284.98)"/><path d="M332.69 306.07a.12.12 0 0 0-.14.07 3.27 3.27 0 0 1 .34 0 1.13 1.13 0 0 0 .33 0 .15.15 0 0 0-.09 0 2.39 2.39 0 0 1-.44-.07zM333.31 305.41h-.09.09zM331.86 305.32h-.07.07zM330.73 306.5a.51.51 0 0 0-.41 0l.11.09a.14.14 0 0 0 .09 0l.15-.06a.07.07 0 0 0 .06-.03zM330.61 306.78h.07-.07zM330.07 310.49H330v.08a.09.09 0 0 0 .07-.08zM330 307.11zM330.14 306.44H330v.15c.11-.03.11-.04.14-.15zM330.42 307.1zM330 306.6zM330.18 307.08a.16.16 0 0 0 0 .06l.05-.08s-.04-.06-.05.02zM330 306.67zM330.31 306.79h.14-.45v.11a.58.58 0 0 1 .31-.11zM331.61 306.54h.06-.07zM331.48 306zM331.79 306.78zM332 306h-.13l.08.05zM332.43 306.08h.06-.05zM332.07 306.72h-.14a.27.27 0 0 0 .14 0zM331.28 306v-.07a.06.06 0 0 0-.07.06.08.08 0 0 0 0 .06h.07zM331.41 306h-.08l.1.07zM331.26 306.76zM330.77 306.52h.17a.19.19 0 0 0 .19 0 .16.16 0 0 0 0-.08.28.28 0 0 0-.15-.06.47.47 0 0 0-.21.14zM331 306.05v.11l.09-.09zM331.17 306.5zM336.1 307.24a.39.39 0 0 0-.2 0 .2.2 0 0 0 .2 0zM332.4 306.72h-.06.06zM334.26 307.65h.08-.07zM336.29 310h.08-.08zM334.69 309.9zM335.12 306.78h.06-.06zM335.22 309.84h-.09s.06.05.09 0zM334.4 306.79h.07-.07zM335 306.78a.73.73 0 0 0-.44 0 1.13 1.13 0 0 0 .44 0zM336.22 309.93h.05zM333.68 306.25zM335.74 306.52a3.25 3.25 0 0 1 .25.41 3.24 3.24 0 0 0-.25-.41zM336.16 307.32h.06v.07-.09zM335 306.11a.25.25 0 0 0-.29 0 .22.22 0 0 0 .29 0zM335.78 306.7h-.23H335.78z" transform="translate(-263.26 -284.98)"/><path d="M335.06 306.08l.1.07a.13.13 0 0 0 0 .07h-.36a.71.71 0 0 0-.35 0h.07-.23a.09.09 0 0 0-.1 0h.06a.15.15 0 0 1-.08 0 .45.45 0 0 0-.24 0c0 .09 0 .1-.1.11h-.18a1 1 0 0 0-.33.11h.32a3.85 3.85 0 0 1 .69 0h.08c.01 0 .06.06.1.05h1.23l-.08-.11a2.79 2.79 0 0 0-.31-.33.53.53 0 0 0-.29.03zm.13.21zm.39 0h-.31.28zM334.13 314.59h.52l.29-.16-.08.05a.29.29 0 0 0-.2 0h-.26a3.49 3.49 0 0 0-.87 0 .85.85 0 0 0 .29 0h.3zM332.16 306.84zM334.65 314.59l-.17.08zM335.28 306.78h.07-.08zM334.9 309.39h.09a.08.08 0 0 0-.09 0z" transform="translate(-263.26 -284.98)"/><path d="M336.39 311.38a.61.61 0 0 0-.36 0 .07.07 0 0 1-.06 0h-.06a.09.09 0 0 0-.12 0h-.49a.17.17 0 0 0-.15 0h-.67a.67.67 0 0 0-.24 0h-.08v.5h.07-.08a2.3 2.3 0 0 1-.22.63 1 1 0 0 1-.47.45 1.85 1.85 0 0 1-.7.12h-.36v-1.75a1.17 1.17 0 0 1-.4 0 1.62 1.62 0 0 0 .41 0h-.07.07-.16a.08.08 0 0 0-.06 0 .07.07 0 0 0-.07 0h-.07a1.09 1.09 0 0 1-.34 0 .59.59 0 0 0-.15 0h.2-.14l-.19-.05h-.1.05a.25.25 0 0 0 .16-.16h.67v.07h.18v-.72h-.23.21v-1.06h-.51a2.29 2.29 0 0 1-.5 0h1v-1.37h-.07a2.88 2.88 0 0 1-.54 0h.61v-.64H332 331.21a.39.39 0 0 1 .35-.09V307.16c-.06 0-.07 0-.07.05a.05.05 0 0 1-.06.06l-.07-.18a.65.65 0 0 1 .34 0 .11.11 0 0 0 0 .07h.3-.19l.11.05.29.06a.1.1 0 0 0 .09-.12h.48a1.78 1.78 0 0 1 .68.12l.17.1h.22l-.11.06.16-.09h.19-.06l-.17.07h-.06a1.17 1.17 0 0 1 .15.22 2.2 2.2 0 0 1 .19.57h.46v.06a2.76 2.76 0 0 0 .46-.11.2.2 0 0 1-.24.13h-.61c0 .09 0 .2.05.3s0 .25 0 .39h.5-.07a1 1 0 0 0-.42.13v1.55h.25a.68.68 0 0 0 .24 0 1.37 1.37 0 0 0 .25 0h.17a1.29 1.29 0 0 0 .16.1.73.73 0 0 1-.18 0 2.08 2.08 0 0 0-.67 0h-.25v.41-.07h.13v.09l.15-.11H335.98a.55.55 0 0 0 .26 0h.34v.11a2.42 2.42 0 0 0-.7 0 3 3 0 0 0 .7 0v.11a10.81 10.81 0 0 0 .07-1.32v-.2.09h-.11a.08.08 0 0 0-.1 0h-.13a.11.11 0 0 0-.11 0h-.92a.15.15 0 0 0-.09 0h-.49a.12.12 0 0 0-.11 0H334.42v-.07H334.98v.05a.06.06 0 0 0 .08 0 1.12 1.12 0 0 1 .32-.09H335.95a1 1 0 0 0-.19 0h.9a8.94 8.94 0 0 0-.18-1.74h-.1a3.33 3.33 0 0 0-.43 0h-.47l-.06.08-.07.05H335.13l.24-.07a.28.28 0 0 0-.25 0 .2.2 0 0 0-.09 0 .44.44 0 0 1-.24 0c0-.08-.14 0-.19-.08a1 1 0 0 1 .25 0h1.13-.13a5.45 5.45 0 0 1-.59-.14 1.76 1.76 0 0 0-.42 0 .56.56 0 0 0-.23 0h-.1v-.07.07h-.29a.21.21 0 0 0 0-.2h.16-.07a.64.64 0 0 1 .31 0h.19a4.1 4.1 0 0 1 .48.11 2.28 2.28 0 0 0 .36.07c.16 0 .3.1.46.08a.61.61 0 0 1 .12 0h.09a.2.2 0 0 1-.17.08h-.16H336.6a5.37 5.37 0 0 0-.18-.62H336.08a.14.14 0 0 0-.12 0 .14.14 0 0 1-.09 0h-.21a.25.25 0 0 0 0-.1h.05a.33.33 0 0 1 .18 0H336.3l.05.13a3.88 3.88 0 0 0-.18-.41 1.22 1.22 0 0 0-.28 0h-1.15l-.3-.09-.17-.05a.11.11 0 0 0 .06-.06l-.07-.09c0-.07-.07-.08-.15 0h.14l-.11.1-.42-.14a.14.14 0 0 0-.08 0 .45.45 0 0 1-.23 0l-.41-.16-.34-.09c-.13 0-.16 0-.17.14l-.17.06h-.18.06a.66.66 0 0 1 .13 0l.49.14.26.08H332.59a.24.24 0 0 1-.22-.05l-.16.07v.07a.5.5 0 0 1-.24-.06.33.33 0 0 0-.13 0h-.64a1 1 0 0 0-.36.1.17.17 0 0 0-.16 0h.15-.07a.61.61 0 0 1-.14 0h-.07a.31.31 0 0 1-.19 0 .6.6 0 0 0-.24 0V308h.13-.25v.38h.67a3.62 3.62 0 0 1 .64 0h-.13l-.14.07a.09.09 0 0 0 0-.11h-.23v.06a.14.14 0 0 1 .17.06.45.45 0 0 0-.16 0l.08.05a.2.2 0 0 1-.12 0h-.13.08a.25.25 0 0 0-.29 0h-.07l-.26-.06v-.08a.63.63 0 0 0-.14.07v1.77h.21-.18.1a.1.1 0 0 0 0 .06.18.18 0 0 0 .1 0h-.12v.09a.29.29 0 0 0-.14 0v.51h.14a.25.25 0 0 0-.14 0v.1h.08l-.07.09h.45a.17.17 0 0 0-.1 0 1.91 1.91 0 0 0-.37 0V311.95h.73-.1a2.82 2.82 0 0 0-.45 0h-.18v.09h.26a.11.11 0 0 1 0 .05H330v.34h.15a.17.17 0 0 1-.15 0v.42a.15.15 0 0 0 .17 0 .14.14 0 0 1-.13 0h-.11v.44h.1-.1V315h.08a.42.42 0 0 1 .24 0h2.3a4.93 4.93 0 0 0 1.73-.28l.12-.05h-.06l-.54.08a.36.36 0 0 1-.11 0 .32.32 0 0 1-.21.06h-.54a.13.13 0 0 0-.07 0h-.52a.14.14 0 0 0-.18 0 .42.42 0 0 0-.12 0 .19.19 0 0 1-.06 0 .92.92 0 0 1-.36 0h-.06l-.25.07c-.16 0-.18 0-.2-.15h.69a.2.2 0 0 0 .18-.09c.05-.07 0-.11 0-.13h.14a.16.16 0 0 0-.2 0 1 1 0 0 1-.2 0 .93.93 0 0 0-.46 0 .1.1 0 0 1-.07 0 .17.17 0 0 0-.17 0 3.19 3.19 0 0 1-.34 0H330v-.05h1.16a.2.2 0 0 0 .2 0 .21.21 0 0 1 .17 0 .91.91 0 0 0 .39 0 .27.27 0 0 0 .15 0 .29.29 0 0 1 .11.05h.7a1.87 1.87 0 0 1 .44 0h.51a2.86 2.86 0 0 0 .66 0h.38a2.86 2.86 0 0 0 .66-.59l.06-.08h-.33a.69.69 0 0 0-.2 0h.31a.52.52 0 0 0 .21 0 4.08 4.08 0 0 0 .68-1.45 6.72 6.72 0 0 0 .18-.93h-.13zm-4.19-.19zm-.44-2.65zm0-.69h.34l-.08.06h-.28v-.06h.07zm-.27.67h-.06zm-.06-1.13zm4.75 3.13h-.09.09zm-.43-.24H336.56v.1H335.65a.1.1 0 0 0 .12-.1zm-1.39-1h.09c-.01-.01-.01-.01-.08-.03zm.23 0zm1.89-.26h-.11a.06.06 0 0 0 .12-.02zm-.38.38zm-1.44-.14zm.78.11h-.17c-.06 0-.07 0-.06.11a.11.11 0 0 0-.12 0 .25.25 0 0 0-.18 0 .34.34 0 0 1-.17-.06.39.39 0 0 1 .35-.09c.1 0 .14 0 .14-.06h.25s0 .06.06.06zm.16-.24a.33.33 0 0 1-.15 0h.15zm0-.87h.11a.27.27 0 0 1-.21 0h.1zm-.27.41h.37-.54.19zm-.21.61a.16.16 0 0 0-.13.05v-.08c-.06 0-.07 0-.07.05a.05.05 0 0 1-.06.06l-.07-.17h.33a.16.16 0 0 1 .04.04zm0-.11zm-.08-.1h-.22a1.2 1.2 0 0 0-.29-.06c.07-.06.08-.06.2 0h.13zm-.49-.87a.37.37 0 0 1-.19 0 .42.42 0 0 1 .24-.06zm.75-.9h.06a.09.09 0 0 1 0 .05l-.07-.08zm-2.67-.77zM330.5 308zm.41-.79h.09c0-.02 0-.02-.1-.04zm.21-.06h.1-.1zm.08.85h-.08.17zm1.16 5.15zm-1.25-2.24a1.6 1.6 0 0 0 .32 0 .35.35 0 0 1-.32.02zm-.18.19v-.05a.53.53 0 0 1 .18 0h.07a.44.44 0 0 1-.24.07zm.25.73a.13.13 0 0 0 .01.02zm.15-1.2h.16-.2zm.33-.25a2.24 2.24 0 0 1-.47 0h-.14l-.3-.05h.91zm-.82.08zm-.15 0h-.19a.51.51 0 0 1 .22 0h-.12zm.11 0zm-.1-1.07h.45l.22.06h-.06a.3.3 0 0 0 .2 0h.05H330.89a.61.61 0 0 1-.2 0l-.08-.05a.56.56 0 0 0-.2 0h.29zm-.24 1.08zm-.2-1.42h-.08zm-.13.42h.14-.16zm.11 1.84H330.41l.12.05h.07zm.39.47zm.05-.82a.37.37 0 0 1-.23 0 .53.53 0 0 0-.15 0 .82.82 0 0 1-.16 0h-.08v-.05h.22a2.55 2.55 0 0 1 .38 0zm-.28-.38h.75-.15zm.51.29zm-.24 2.13h.13a.29.29 0 0 0 .13 0 .45.45 0 0 1 .21 0l-.08-.05h.26a.11.11 0 0 0 .08 0h.25-.68a1.17 1.17 0 0 1-.31-.07zm.6.67a1 1 0 0 1-.19 0l-.15-.11H331.39l-.09.14zm-.82-.65zm0 .36h.07a.2.2 0 0 1-.07-.05zm-.26 1zm1.56-.57h-.31a.12.12 0 0 0-.07 0 .18.18 0 0 1-.16 0h-.07a.19.19 0 0 0-.11 0H330.12l.74-.07h-.07a.93.93 0 0 0 .27 0v-.07a.41.41 0 0 0 .21 0h.61zm.24-.55l-.53-.07h.54a.11.11 0 0 0-.06.03zm.64 1H332.06h.15a.2.2 0 0 1 .12 0h.14a.2.2 0 0 0 .22-.07.13.13 0 0 1-.11-.02zm.29-1h.08a.13.13 0 0 1-.13-.1zm.33 0h-.06.25a.13.13 0 0 1 .09 0h-.33zm.47 0h-.09.09zm.58-1.38h.2a.2.2 0 0 1 .16.05l.1.08h-.44v-.12zm-.15 2.1H334a.09.09 0 0 1 .08-.07h.1zm.12-.08zm.9-.47H335h.19zm0-.86h-.53a.81.81 0 0 0-.35 0 .27.27 0 0 1-.11 0h-.26 1.35-.08zm.47.83zm.06-.93h-.05.22-.17zm.19 0z" transform="translate(-263.26 -284.98)"/><path d="M330.73 308.48h-.16c.08.08.1.07.16 0zM330.48 308.49h-.15.15zM333 314.52zM335.36 311.25h.13a.11.11 0 0 0-.13 0zM335.76 311.27a.2.2 0 0 0-.14 0h-.07zM334.88 311.25zM334.42 311.24h.07-.07zM332 311.08zM332.33 309.11zM331.7 311.16zM331.67 311.06a.13.13 0 0 0 .18 0 .16.16 0 0 0-.18 0zM332.33 307.35v-.12a.06.06 0 0 0 0 .12z" transform="translate(-263.26 -284.98)"/><path class="cls-1" d="M265.37 286v2.87h-1V286h-1.06v-.91h3.17v.91h-1.06zM268.87 287.78h-1.66a.45.45 0 0 0 .48.45 1.48 1.48 0 0 0 .74-.2l.37.62a2.2 2.2 0 0 1-1.16.32 1.49 1.49 0 0 1 0-3c.78 0 1.26.51 1.26 1.57-.02.13-.02.19-.03.24zm-1.29-1a.39.39 0 0 0-.38.43h.8a.41.41 0 0 0-.41-.47zM270.68 289a1.49 1.49 0 0 1 0-3 1.19 1.19 0 0 1 1.09.65l-.67.51a.49.49 0 0 0-.44-.37c-.25 0-.37.25-.37.7s.14.68.4.68a.61.61 0 0 0 .49-.37l.62.48a1.25 1.25 0 0 1-1.12.72zM274 288.92v-1.61c0-.37-.12-.47-.32-.47s-.33.1-.33.45v1.62h-1v-3.55l1-.39v1.29a1.08 1.08 0 0 1 .71-.25.94.94 0 0 1 .92 1.16v1.73h-1z" transform="translate(-263.26 -284.98)"/><path d="M277.31 289a2 2 0 0 1 0-3.9 1.44 1.44 0 0 1 1.56 1.11l-1 .37a.65.65 0 0 0-.61-.57c-.44 0-.63.44-.63 1s.18 1 .64 1a.75.75 0 0 0 .68-.53l.89.47a1.63 1.63 0 0 1-1.53 1.05zM281.27 287.15a.61.61 0 0 0-.45-.24.37.37 0 0 0-.38.46v1.55h-1v-2.84h1v.21a.87.87 0 0 1 1.06-.15zM283.58 288.92v-.19a1.07 1.07 0 0 1-.71.25.94.94 0 0 1-.92-1.16v-1.73h1v1.61c0 .37.12.47.32.47s.32-.1.32-.45v-1.62h1v2.84h-1zM286.89 288.92v-1.61c0-.37-.12-.47-.32-.47s-.33.1-.33.45v1.62h-1v-2.84h1v.19a1.08 1.08 0 0 1 .71-.25.94.94 0 0 1 .92 1.16v1.73h-1zM289.76 289a1.49 1.49 0 0 1 0-3 1.19 1.19 0 0 1 1.09.65l-.67.51a.49.49 0 0 0-.44-.37c-.25 0-.37.25-.37.7s.13.68.4.68a.6.6 0 0 0 .49-.37l.62.48a1.25 1.25 0 0 1-1.12.72zM293.08 288.92v-1.61c0-.37-.12-.47-.32-.47s-.33.1-.33.45v1.62h-1v-3.55l1-.39v1.29a1.09 1.09 0 0 1 .71-.25.94.94 0 0 1 .92 1.16v1.73h-1z" transform="translate(-263.26 -284.98)"/></svg>