<svg id="Layer_1" data-name="Layer 1" xmlns="http://www.w3.org/2000/svg" viewBox="0 0 63.48 29.94"><defs><style>.cls-1{fill:#ebeb1e}.cls-2{fill:#3bb084}.cls-3{fill:#df4036}</style></defs><title>_thefamily</title><path class="cls-1" d="M312.87 304.66c-7.3 0-12.67-.49-13.24-.55s-5.94.55-13.24.55a24.74 24.74 0 0 1-12.16-3.19c-4.15-2.47-6.34-6-6.34-10.13v-.5h63.48v.5c0 4.15-2.19 7.65-6.34 10.13a24.74 24.74 0 0 1-12.16 3.19zm-13.24-1.55c.05 0 5.55.55 13.19.55a23.7 23.7 0 0 0 11.65-3c2.57-1.54 5.63-4.29 5.84-8.77h-61.42c.21 4.48 3.26 7.23 5.84 8.77a23.7 23.7 0 0 0 11.65 3c7.64 0 13.14-.54 13.19-.55z" transform="translate(-267.88 -285.14)"/><path class="cls-2" d="M275.28 291.85l24.34 21.9 24.38-21.9h-48.72zm24.34 23.24l-26.94-24.24h53.89z" transform="translate(-267.88 -285.14)"/><path class="cls-2" d="M279.18 291.85l20.44 21.55 20.44-21.55h-40.88zM299.63 315l-22.77-24.19h45.54z" transform="translate(-267.88 -285.14)"/><path class="cls-2" d="M283.08 291.85L299.63 313l16.54-21.2h-33.09zM299.63 315L281 290.85h37.2z" transform="translate(-267.88 -285.14)"/><path class="cls-2" d="M287 291.85l12.64 20.85 12.64-20.85H287zm12.64 23.09l-14.44-24.09h28.85z" transform="translate(-267.88 -285.14)"/><path class="cls-2" d="M290.88 291.85l8.74 20.5 8.74-20.5h-17.48zm8.74 23l-10.25-24h20.51z" transform="translate(-267.88 -285.14)"/><path class="cls-3" d="M299.63 314.61l2.85-23.27-1.43-2.34 4.58-1.83s-4-2-6-2-2.93 3.22-2.93 5.87c0 2.96 2.93 23.57 2.93 23.57z" transform="translate(-267.88 -285.14)"/></svg>