<svg id="Layer_1" data-name="Layer 1" xmlns="http://www.w3.org/2000/svg" viewBox="0 0 100.13 23.16"><defs><style>.cls-1{fill:#03a8bb}.cls-2{fill:#322e2a}.cls-3{fill:#332e2a}.cls-4{fill:#332e2b}.cls-5{fill:#312c28}.cls-6{fill:#38332f}.cls-7{fill:#302b27}.cls-8{fill:#37332f}.cls-9{fill:#383430}.cls-10{fill:#36312e}.cls-11{fill:#36312d}.cls-12{fill:#37322e}.cls-13{fill:#05a9bc}</style></defs><title>_twoSigma</title><g id="TFL1eR.tif"><path class="cls-1" d="M259 288.41a3.6 3.6 0 0 0 .31.42l8.14 8.15a3.59 3.59 0 0 0 .39.31l-9 9-8.84-8.95.33-.35 8.18-8.18c.13-.13.24-.27.36-.41h.13zm-4.33 7.38a2.2 2.2 0 0 1 2.1-.63 1.16 1.16 0 0 1 .69.67 1.18 1.18 0 0 1-.35.85 3.18 3.18 0 0 1-.8.49 11.09 11.09 0 0 0-1.33.8 2.37 2.37 0 0 0-.79 2.45h4.27v-.9h-3.39a3.22 3.22 0 0 1 .48-.8 8.87 8.87 0 0 1 1.12-.73 10.18 10.18 0 0 0 1.32-.8 1.62 1.62 0 0 0 .11-2.37 2.93 2.93 0 0 0-4 .34zm10.65-.08h-3.81a2.66 2.66 0 0 0-2.46 3.34 1.74 1.74 0 0 0 1.35 1.39 2.59 2.59 0 0 0 3.09-1.81 3 3 0 0 0-.19-2.21h1.15z" transform="translate(-249.96 -288.41)"/><path class="cls-2" d="M350.08 301.93h-1.67l-.71-2h-3.76l-.68 1.92h-1.69l3.32-9h1.85l1.93 5.2c.41 1.09.81 2.19 1.22 3.28a2.32 2.32 0 0 0 .19.33v.2zm-4.26-7.41l-1.44 4.17h2.84a1.87 1.87 0 0 0 0-.26z" transform="translate(-249.96 -288.41)"/><path class="cls-3" d="M291.71 301.89H290l-1.89-6.57-1.89 6.58h-1.68l-2.82-9h1.66l2 6.57h.12l1.89-6.59h1.47l1.89 6.61h.1l2-6.62h1.64zM331.15 292.91h1.55l2.94 4.19 2.94-4.19h1.54v9h-1.47v-6.51h-.1l-2.93 4.09-2.9-4h-.1v6.44h-1.48v-9zM299.73 302.06a4.67 4.67 0 0 1 0-9.33 4.67 4.67 0 0 1 0 9.33zm3-4.68a3.08 3.08 0 0 0-1.56-2.94 2.93 2.93 0 0 0-3.13.14 3.57 3.57 0 0 0-1.07 4.23 2.94 2.94 0 0 0 4.26 1.49 3.21 3.21 0 0 0 1.48-2.92z" transform="translate(-249.96 -288.41)"/><path class="cls-4" d="M328.85 293.79l-.89 1c-2.2-1-3.72-.79-4.67.48a3.92 3.92 0 0 0 .12 4.5 3.35 3.35 0 0 0 4.07.53v-2.11h-2.23V297h3.65v4a5.32 5.32 0 0 1-6.71-.41 4.79 4.79 0 0 1 6.66-6.8z" transform="translate(-249.96 -288.41)"/><path class="cls-3" d="M308.41 301.09l1.07-1c.82.21 1.6.45 2.39.58a2.84 2.84 0 0 0 1.22-.16 1 1 0 0 0 .75-1 1 1 0 0 0-.66-1c-.46-.19-.95-.32-1.42-.47s-1.09-.31-1.61-.54a2.14 2.14 0 0 1-1.35-1.94 2.35 2.35 0 0 1 1.15-2.29 4.47 4.47 0 0 1 3.34-.42 20.25 20.25 0 0 1 2 .6v.16l-1.18.88a17.84 17.84 0 0 0-2-.34 2.31 2.31 0 0 0-1.19.27 1 1 0 0 0 0 1.76 11.12 11.12 0 0 0 1.6.55c.5.17 1 .3 1.51.51a2.22 2.22 0 0 1 1.39 2.23 2.3 2.3 0 0 1-1.39 2.19 5.09 5.09 0 0 1-3.52.22 22.23 22.23 0 0 1-2.1-.79z" transform="translate(-249.96 -288.41)"/><path class="cls-5" d="M275.65 294.29h-3.09v-1.36h7.69v1.35h-3v7.6h-1.57v-7.59z" transform="translate(-249.96 -288.41)"/><path class="cls-4" d="M288.46 309.74v-3.69h.89v5.4h-.91l-2.63-3.81v3.81h-.92V306h.9l2.56 3.72z" transform="translate(-249.96 -288.41)"/><path class="cls-6" d="M305.35 309.27l1.05 2.19h-1l-.93-2.06H303v2.05h-.94v-5.38c1 0 2-.06 2.91 0a1.47 1.47 0 0 1 1.38 1.25 1.61 1.61 0 0 1-.74 1.77zm-2.36-.61c.63 0 1.21 0 1.77-.1a.86.86 0 0 0 0-1.67 16.1 16.1 0 0 0-1.77 0v1.79z" transform="translate(-249.96 -288.41)"/><path class="cls-7" d="M319 301.89h-1.5v-9h1.5v9z" transform="translate(-249.96 -288.41)"/><path class="cls-8" d="M308.61 306.87v1.43h2.57v.79h-2.58v1.55h2.91v.82h-3.86v-5.4h3.82v.82h-2.87z" transform="translate(-249.96 -288.41)"/><path class="cls-9" d="M300.65 306c0 1.27.06 2.5 0 3.73a1.9 1.9 0 0 1-2 1.78 2.1 2.1 0 0 1-2.41-2.4V306h1v3.42a1.24 1.24 0 0 0 1.77 1.18 1.2 1.2 0 0 0 .75-1.24v-2.85-.51h.94z" transform="translate(-249.96 -288.41)"/><path class="cls-3" d="M280.61 310.65h2.9v.8h-3.85v-5.4h3.8v.79h-2.85v1.44h2.54v.79h-2.55v1.56z" transform="translate(-249.96 -288.41)"/><path class="cls-10" d="M312.67 311l.42-.7a8.89 8.89 0 0 0 1.25.39 2.12 2.12 0 0 0 1-.07.81.81 0 0 0 .43-.58.72.72 0 0 0-.37-.56c-.48-.21-1-.33-1.51-.5a1.46 1.46 0 0 1-1.09-1.06 1.5 1.5 0 0 1 1-1.8 3.53 3.53 0 0 1 2.82.33l-.31.65c-.49-.1-1-.21-1.42-.27a1.11 1.11 0 0 0-.67.11.88.88 0 0 0-.39.56.75.75 0 0 0 .34.54 3.18 3.18 0 0 0 .79.29c.25.08.52.13.77.22a1.51 1.51 0 0 1-.14 2.95 3.81 3.81 0 0 1-2.92-.5z" transform="translate(-249.96 -288.41)"/><path class="cls-11" d="M277.44 306h1l-2 5.42h-1.12l-2-5.42h1.05l1.5 4.33z" transform="translate(-249.96 -288.41)"/><path class="cls-12" d="M290.43 306.89v-.82h4.66v.82h-1.82v4.57h-1v-4.57h-1.86z" transform="translate(-249.96 -288.41)"/><path class="cls-13" d="M262.63 297.86a2.09 2.09 0 0 1-.6 1.42 1.17 1.17 0 0 1-1.31.37 1 1 0 0 1-.66-1.12 4.19 4.19 0 0 1 .57-1.55 1.14 1.14 0 0 1 1.33-.43 1.23 1.23 0 0 1 .67 1.31z" transform="translate(-249.96 -288.41)"/></g></svg>