<svg width="51px" height="51px" viewBox="0 0 51 51" version="1.1" xmlns="http://www.w3.org/2000/svg" xmlns:xlink="http://www.w3.org/1999/xlink" xml:space="preserve" style="fill-rule:evenodd;clip-rule:evenodd;stroke-miterlimit:1;">
    <path d="M11,25.4l-11,0c0,14 11.4,25.4 25.4,25.4l0,-11c-8,0 -14.4,-6.4 -14.4,-14.4Z" style="fill:url(#_Linear1);fill-rule:nonzero;"/>
    <path d="M50.8,25.4l-11,0c0,8 -6.5,14.4 -14.4,14.4l0,11c14,0 25.4,-11.4 25.4,-25.4Z" style="fill:url(#_Linear2);fill-rule:nonzero;"/>
    <path d="M25.4,11l0,-11c-14,0 -25.4,11.4 -25.4,25.4l11,0c0,-8 6.4,-14.4 14.4,-14.4Z" style="fill:url(#_Linear3);fill-rule:nonzero;"/>
    <path d="M25.4,0l0,11c8,0 14.4,6.5 14.4,14.4l11,0c0,-14 -11.4,-25.4 -25.4,-25.4Z" style="fill:url(#_Linear4);fill-rule:nonzero;"/>
    <path d="M25.4,33.9c0,0 -8.7,-5 -8.7,-10.1c0,-2.4 2,-4.4 4.4,-4.4c2.4,0 4.4,2 4.4,4.4c0,-2.4 2,-4.4 4.4,-4.4c2.4,0 4.4,1.8 4.4,4.4c-0.2,5 -8.9,10.1 -8.9,10.1Z" style="fill:none;stroke:rgb(0,105,255);stroke-width:2px;"/>
    <defs>
        <linearGradient id="_Linear1" x1="0" y1="0" x2="1" y2="0" gradientUnits="userSpaceOnUse" gradientTransform="matrix(36.3335,32.4299,-32.4299,36.3335,-0.5471,25.7148)"><stop offset="0" style="stop-color:rgb(0,114,255);stop-opacity:1"/><stop offset="0.15" style="stop-color:rgb(45,139,255);stop-opacity:1"/><stop offset="0.46" style="stop-color:rgb(134,188,255);stop-opacity:1"/><stop offset="0.72" style="stop-color:rgb(199,224,255);stop-opacity:1"/><stop offset="0.9" style="stop-color:rgb(240,246,255);stop-opacity:1"/><stop offset="1" style="stop-color:white;stop-opacity:1"/></linearGradient>
        <linearGradient id="_Linear2" x1="0" y1="0" x2="1" y2="0" gradientUnits="userSpaceOnUse" gradientTransform="matrix(23.0408,-40.0014,40.0014,23.0408,28.3377,53.0075)"><stop offset="0" style="stop-color:rgb(0,114,255);stop-opacity:1"/><stop offset="0.15" style="stop-color:rgb(45,139,255);stop-opacity:1"/><stop offset="0.46" style="stop-color:rgb(134,188,255);stop-opacity:1"/><stop offset="0.72" style="stop-color:rgb(199,224,255);stop-opacity:1"/><stop offset="0.9" style="stop-color:rgb(240,246,255);stop-opacity:1"/><stop offset="1" style="stop-color:white;stop-opacity:1"/></linearGradient>
        <linearGradient id="_Linear3" x1="0" y1="0" x2="1" y2="0" gradientUnits="userSpaceOnUse" gradientTransform="matrix(-21.3197,33.9313,-33.9313,-21.3197,22.1981,-0.5784)"><stop offset="0" style="stop-color:rgb(0,114,255);stop-opacity:1"/><stop offset="0.15" style="stop-color:rgb(45,139,255);stop-opacity:1"/><stop offset="0.46" style="stop-color:rgb(134,188,255);stop-opacity:1"/><stop offset="0.72" style="stop-color:rgb(199,224,255);stop-opacity:1"/><stop offset="0.9" style="stop-color:rgb(240,246,255);stop-opacity:1"/><stop offset="1" style="stop-color:white;stop-opacity:1"/></linearGradient>
        <linearGradient id="_Linear4" x1="0" y1="0" x2="1" y2="0" gradientUnits="userSpaceOnUse" gradientTransform="matrix(-39.7998,-24.3934,24.3934,-39.7998,52.5832,22.7368)"><stop offset="0" style="stop-color:rgb(0,114,255);stop-opacity:1"/><stop offset="0.15" style="stop-color:rgb(45,139,255);stop-opacity:1"/><stop offset="0.46" style="stop-color:rgb(134,188,255);stop-opacity:1"/><stop offset="0.72" style="stop-color:rgb(199,224,255);stop-opacity:1"/><stop offset="0.9" style="stop-color:rgb(240,246,255);stop-opacity:1"/><stop offset="1" style="stop-color:white;stop-opacity:1"/></linearGradient>
    </defs>
</svg>
