<svg width="264px" height="264px" xmlns="http://www.w3.org/2000/svg" viewBox="0 0 264 264"><radialGradient id="a" cx="367.604" cy="-396.589" r="147.148" gradientTransform="matrix(.897 0 0 .897 -197.76 487.76)" gradientUnits="userSpaceOnUse"><stop offset=".395" stop-color="#005FFF" stop-opacity=".15"/><stop offset="1" stop-color="#005FFF" stop-opacity="0"/></radialGradient><circle fill="url(#a)" cx="132" cy="132" r="132"/><linearGradient id="b" gradientUnits="userSpaceOnUse" x1="233.571" y1="144.591" x2="14.696" y2="144.591"><stop offset="0" stop-color="#005FFF" stop-opacity=".5"/><stop offset="1" stop-color="#005FFF" stop-opacity="0"/></linearGradient><line fill="none" stroke="url(#b)" stroke-miterlimit="10" x1="14.7" y1="144.6" x2="233.6" y2="144.6"/><linearGradient id="c" gradientUnits="userSpaceOnUse" x1="213.238" y1="158.644" x2="4.829" y2="158.644"><stop offset="0" stop-color="#005FFF" stop-opacity=".5"/><stop offset="1" stop-color="#005FFF" stop-opacity="0"/></linearGradient><line fill="none" stroke="url(#c)" stroke-miterlimit="10" x1="4.8" y1="158.6" x2="213.2" y2="158.6"/><linearGradient id="d" gradientUnits="userSpaceOnUse" x1="223.404" y1="172.698" x2="12.005" y2="172.698"><stop offset="0" stop-color="#005FFF" stop-opacity=".5"/><stop offset="1" stop-color="#005FFF" stop-opacity="0"/></linearGradient><line fill="none" stroke="url(#d)" stroke-miterlimit="10" x1="12" y1="172.7" x2="223.4" y2="172.7"/><linearGradient id="e" gradientUnits="userSpaceOnUse" x1="203.071" y1="185.855" x2="35.627" y2="185.855"><stop offset="0" stop-color="#005FFF" stop-opacity=".5"/><stop offset="1" stop-color="#005FFF" stop-opacity="0"/></linearGradient><line fill="none" stroke="url(#e)" stroke-miterlimit="10" x1="35.6" y1="185.9" x2="203.1" y2="185.9"/><linearGradient id="f" gradientUnits="userSpaceOnUse" x1="49.16" y1="78.489" x2="162.438" y2="211.673"><stop offset="0" stop-color="#0069FF" stop-opacity=".2"/><stop offset="1" stop-color="#0069FF" stop-opacity="0"/></linearGradient><polygon fill="url(#f)" points="162.2,210.7 52.5,214.3 48,77.9 157.7,74.3"/><rect x="57.2" y="68.1" transform="rotate(-1.88 112.065 136.363)" fill="#FFF" width="109.7" height="136.5"/><linearGradient id="g" gradientUnits="userSpaceOnUse" x1="164.636" y1="65.359" x2="169.177" y2="203.768"><stop offset="0" stop-color="#0069FF"/><stop offset="1" stop-color="#00D688"/></linearGradient><line fill="none" stroke="url(#g)" stroke-width="2" stroke-linecap="round" stroke-miterlimit="10" x1="169.1" y1="202.8" x2="169.1" y2="202.8"/><linearGradient id="h" gradientUnits="userSpaceOnUse" x1="108.779" y1="67.192" x2="113.321" y2="205.601"><stop offset="0" stop-color="#0069FF"/><stop offset="1" stop-color="#00D688"/></linearGradient><line fill="none" stroke="url(#h)" stroke-width="2" stroke-linecap="round" stroke-miterlimit="10" stroke-dasharray="0,4.0645" x1="165.1" y1="202.9" x2="61.5" y2="206.3"/><linearGradient id="i" gradientUnits="userSpaceOnUse" x1="54.954" y1="68.958" x2="59.496" y2="207.367"><stop offset="0" stop-color="#0069FF"/><stop offset="1" stop-color="#00D688"/></linearGradient><line fill="none" stroke="url(#i)" stroke-width="2" stroke-linecap="round" stroke-miterlimit="10" x1="59.5" y1="206.4" x2="59.5" y2="206.4"/><linearGradient id="j" gradientUnits="userSpaceOnUse" x1="54.954" y1="68.958" x2="59.496" y2="207.367"><stop offset="0" stop-color="#0069FF"/><stop offset="1" stop-color="#00D688"/></linearGradient><line fill="none" stroke="url(#j)" stroke-width="2" stroke-linecap="round" stroke-miterlimit="10" stroke-dasharray="0,4.0142" x1="59.3" y1="202.4" x2="55.1" y2="72"/><linearGradient id="k" gradientUnits="userSpaceOnUse" x1="54.954" y1="68.958" x2="59.496" y2="207.367"><stop offset="0" stop-color="#0069FF"/><stop offset="1" stop-color="#00D688"/></linearGradient><line fill="none" stroke="url(#k)" stroke-width="2" stroke-linecap="round" stroke-miterlimit="10" x1="55" y1="70" x2="55" y2="70"/><linearGradient id="l" gradientUnits="userSpaceOnUse" x1="110.811" y1="67.125" x2="115.352" y2="205.534"><stop offset="0" stop-color="#0069FF"/><stop offset="1" stop-color="#00D688"/></linearGradient><line fill="none" stroke="url(#l)" stroke-width="2" stroke-linecap="round" stroke-miterlimit="10" stroke-dasharray="0,4.0645" x1="59" y1="69.8" x2="162.6" y2="66.4"/><linearGradient id="m" gradientUnits="userSpaceOnUse" x1="164.636" y1="65.359" x2="169.177" y2="203.768"><stop offset="0" stop-color="#0069FF"/><stop offset="1" stop-color="#00D688"/></linearGradient><line fill="none" stroke="url(#m)" stroke-width="2" stroke-linecap="round" stroke-miterlimit="10" x1="164.7" y1="66.4" x2="164.7" y2="66.4"/><linearGradient id="n" gradientUnits="userSpaceOnUse" x1="164.636" y1="65.359" x2="169.177" y2="203.768"><stop offset="0" stop-color="#0069FF"/><stop offset="1" stop-color="#00D688"/></linearGradient><line fill="none" stroke="url(#n)" stroke-width="2" stroke-linecap="round" stroke-miterlimit="10" stroke-dasharray="0,4.0142" x1="164.8" y1="70.4" x2="169.1" y2="200.8"/><g><linearGradient id="o" gradientUnits="userSpaceOnUse" x1="224.589" y1="225.398" x2="301.413" y2="225.398" gradientTransform="rotate(-1.88 -2468 4781.108)"><stop offset="0" stop-color="#0069FF"/><stop offset="1" stop-color="#0069FF" stop-opacity=".1"/></linearGradient><polygon fill="url(#o)" points="151.1,154.7 74.3,157.2 73.2,121.9 149.9,119.4"/><line fill="none" stroke="#FFF" stroke-width="2" stroke-miterlimit="10" x1="72.5" y1="133.7" x2="151.3" y2="131.1"/><line fill="none" stroke="#FFF" stroke-width="2" stroke-miterlimit="10" x1="72.9" y1="145.5" x2="151.7" y2="142.9"/></g><g><path fill="#0069FF" d="M82.4 105.2l-.1-3.8c4-.1 7-4.2 5.3-8.4-.6-1.5-1.9-2.7-3.5-3.3-4.3-1.4-8.1 1.8-8 5.9l-3.8.1c-.2-6.4 5.8-11.6 12.6-9.7 3 .8 5.4 3.1 6.4 6 2.3 6.6-2.5 13-8.9 13.2z"/><polygon fill-rule="evenodd" clip-rule="evenodd" fill="#0069FF" points="82.3,101.4 78.5,101.5 78.4,97.8 78.4,97.8 82.1,97.6 82.1,97.6"/><polygon fill-rule="evenodd" clip-rule="evenodd" fill="#0069FF" points="78.6,104.4 75.7,104.5 75.7,104.5 75.6,101.6 78.5,101.5 78.6,104.4"/><polygon fill-rule="evenodd" clip-rule="evenodd" fill="#0069FF" points="75.6,101.6 73.2,101.7 73.2,101.7 73.1,99.3 73.1,99.3 75.5,99.2 75.5,99.2"/></g><g><linearGradient id="p" gradientUnits="userSpaceOnUse" x1="253.106" y1="181.571" x2="282.902" y2="181.571" gradientTransform="rotate(-1.88 -2468 4781.108)"><stop offset="0" stop-color="#0069FF"/><stop offset="1" stop-color="#0069FF" stop-opacity=".1"/></linearGradient><polygon fill="url(#p)" points="100.7,91.8 130.5,90.8 130.7,96.8 100.9,97.8"/></g><g><linearGradient id="q" gradientUnits="userSpaceOnUse" x1="271.618" y1="256.199" x2="301.413" y2="256.199" gradientTransform="rotate(-1.88 -2468 4781.108)"><stop offset="0" stop-color="#0069FF"/><stop offset="1" stop-color="#0069FF" stop-opacity=".1"/></linearGradient><polygon fill="url(#q)" points="121.7,165.8 151.4,164.8 151.6,170.8 121.8,171.8"/></g><line fill="none" stroke="#FFF" stroke-width="2" stroke-miterlimit="10" x1="137.4" y1="117.3" x2="138.7" y2="157.6"/><line fill="none" stroke="#FFF" stroke-width="2" stroke-miterlimit="10" x1="123.6" y1="117.8" x2="124.9" y2="158"/><linearGradient id="r" gradientUnits="userSpaceOnUse" x1="73.384" y1="137.815" x2="192.823" y2="129.6"><stop offset="0" stop-color="#0069FF" stop-opacity=".2"/><stop offset="1" stop-color="#0069FF" stop-opacity="0"/></linearGradient><polygon fill="url(#r)" points="169.3,215.1 64.9,181.5 106.6,51.6 211.1,85.2"/><g><rect x="78.6" y="73.5" transform="rotate(-72.182 146.884 128.422)" fill="#FFF" width="136.5" height="109.7"/><linearGradient id="s" gradientUnits="userSpaceOnUse" x1="220.314" y1="79.29" x2="177.935" y2="211.129"><stop offset="0" stop-color="#0069FF"/><stop offset="1" stop-color="#00D688"/></linearGradient><line fill="none" stroke="url(#s)" stroke-width="2" stroke-linecap="round" stroke-miterlimit="10" x1="178.2" y1="210.2" x2="178.2" y2="210.2"/><linearGradient id="t" gradientUnits="userSpaceOnUse" x1="167.109" y1="62.187" x2="124.73" y2="194.027"><stop offset="0" stop-color="#0069FF"/><stop offset="1" stop-color="#00D688"/></linearGradient><line fill="none" stroke="url(#t)" stroke-width="2" stroke-linecap="round" stroke-miterlimit="10" stroke-dasharray="0,4.0645" x1="174.4" y1="208.9" x2="75.7" y2="177.2"/><linearGradient id="u" gradientUnits="userSpaceOnUse" x1="115.839" y1="45.706" x2="73.459" y2="177.546"><stop offset="0" stop-color="#0069FF"/><stop offset="1" stop-color="#00D688"/></linearGradient><line fill="none" stroke="url(#u)" stroke-width="2" stroke-linecap="round" stroke-miterlimit="10" x1="73.8" y1="176.6" x2="73.8" y2="176.6"/><linearGradient id="v" gradientUnits="userSpaceOnUse" x1="115.839" y1="45.706" x2="73.459" y2="177.546"><stop offset="0" stop-color="#0069FF"/><stop offset="1" stop-color="#00D688"/></linearGradient><line fill="none" stroke="url(#v)" stroke-width="2" stroke-linecap="round" stroke-miterlimit="10" stroke-dasharray="0,4.0142" x1="75" y1="172.8" x2="114.9" y2="48.6"/><linearGradient id="w" gradientUnits="userSpaceOnUse" x1="115.839" y1="45.706" x2="73.459" y2="177.546"><stop offset="0" stop-color="#0069FF"/><stop offset="1" stop-color="#00D688"/></linearGradient><line fill="none" stroke="url(#w)" stroke-width="2" stroke-linecap="round" stroke-miterlimit="10" x1="115.5" y1="46.7" x2="115.5" y2="46.7"/><linearGradient id="x" gradientUnits="userSpaceOnUse" x1="169.044" y1="62.809" x2="126.665" y2="194.649"><stop offset="0" stop-color="#0069FF"/><stop offset="1" stop-color="#00D688"/></linearGradient><line fill="none" stroke="url(#x)" stroke-width="2" stroke-linecap="round" stroke-miterlimit="10" stroke-dasharray="0,4.0645" x1="119.4" y1="47.9" x2="218.1" y2="79.6"/><linearGradient id="y" gradientUnits="userSpaceOnUse" x1="220.315" y1="79.29" x2="177.935" y2="211.13"><stop offset="0" stop-color="#0069FF"/><stop offset="1" stop-color="#00D688"/></linearGradient><line fill="none" stroke="url(#y)" stroke-width="2" stroke-linecap="round" stroke-miterlimit="10" x1="220" y1="80.2" x2="220" y2="80.2"/><linearGradient id="z" gradientUnits="userSpaceOnUse" x1="220.315" y1="79.29" x2="177.935" y2="211.129"><stop offset="0" stop-color="#0069FF"/><stop offset="1" stop-color="#00D688"/></linearGradient><line fill="none" stroke="url(#z)" stroke-width="2" stroke-linecap="round" stroke-miterlimit="10" stroke-dasharray="0,4.0142" x1="218.8" y1="84.1" x2="178.9" y2="208.3"/><g><linearGradient id="A" gradientUnits="userSpaceOnUse" x1="-1402.58" y1="-307.216" x2="-1325.755" y2="-307.216" gradientTransform="rotate(17.824 -2003.877 4729.37)"><stop offset="0" stop-color="#0069FF"/><stop offset="1" stop-color="#0069FF" stop-opacity=".1"/></linearGradient><polygon fill="url(#A)" points="177.5,158.8 104.3,135.3 115.1,101.7 188.3,125.2"/><line fill="none" stroke="#FFF" stroke-width="2" stroke-miterlimit="10" x1="110.6" y1="112.6" x2="185.6" y2="136.7"/><line fill="none" stroke="#FFF" stroke-width="2" stroke-miterlimit="10" x1="107" y1="123.8" x2="182" y2="147.9"/></g><g><path fill="#0069FF" d="M129.5 89.1l1.2-3.6c3.8 1.2 8-1.6 7.8-6.1-.1-1.7-.9-3.2-2.2-4.3-3.5-2.7-8.3-1-9.5 2.8l-3.6-1.2c2-6.1 9.4-8.9 15.1-4.9 2.5 1.8 4 4.7 4 7.8-.1 7.1-6.8 11.4-12.8 9.5z"/><polygon fill-rule="evenodd" clip-rule="evenodd" fill="#0069FF" points="130.6,85.5 127,84.3 128.2,80.7 128.2,80.7 131.8,81.9 131.8,81.9"/><polygon fill-rule="evenodd" clip-rule="evenodd" fill="#0069FF" points="126.1,87.1 123.4,86.2 123.4,86.2 124.3,83.4 127,84.3 126.1,87.1"/><polygon fill-rule="evenodd" clip-rule="evenodd" fill="#0069FF" points="124.3,83.4 122,82.7 122,82.7 122.7,80.4 122.7,80.4 125,81.1 125,81.1"/></g><g><linearGradient id="B" gradientUnits="userSpaceOnUse" x1="-1374.062" y1="-351.043" x2="-1344.267" y2="-351.043" gradientTransform="rotate(17.824 -2003.877 4729.37)"><stop offset="0" stop-color="#0069FF"/><stop offset="1" stop-color="#0069FF" stop-opacity=".1"/></linearGradient><polygon fill="url(#B)" points="151.2,82.6 179.6,91.8 177.7,97.5 149.4,88.4"/></g><g><linearGradient id="C" gradientUnits="userSpaceOnUse" x1="-1355.551" y1="-276.414" x2="-1325.755" y2="-276.414" gradientTransform="rotate(17.824 -2003.877 4729.37)"><stop offset="0" stop-color="#0069FF"/><stop offset="1" stop-color="#0069FF" stop-opacity=".1"/></linearGradient><polygon fill="url(#C)" points="146,159.4 174.4,168.5 172.5,174.2 144.2,165.1"/></g><line fill="none" stroke="#FFF" stroke-width="2" stroke-miterlimit="10" x1="177.1" y1="119" x2="164.8" y2="157.4"/><line fill="none" stroke="#FFF" stroke-width="2" stroke-miterlimit="10" x1="164" y1="114.8" x2="151.7" y2="153.1"/></g><linearGradient id="D" gradientUnits="userSpaceOnUse" x1="198.311" y1="97.949" x2="210.95" y2="124.491"><stop offset="0" stop-color="#0069FF" stop-opacity=".2"/><stop offset="1" stop-color="#0069FF" stop-opacity="0"/></linearGradient><circle fill="url(#D)" cx="205.5" cy="113.1" r="16.5"/><g stroke-miterlimit="10"><circle fill="#FFF" stroke="#0069FF" stroke-width="1.5" stroke-linecap="round" cx="209.9" cy="106.9" r="16.5"/><polyline fill="none" stroke="#00D688" stroke-width="2" points="202.3,107.1 208,112.8 217.6,103.3"/></g><circle opacity=".5" fill="#0069FF" cx="236.4" cy="144.6" r="1.1"/><circle opacity=".5" fill="#0069FF" cx="216.2" cy="158.6" r="1.1"/><circle opacity=".5" fill="#0069FF" cx="226.2" cy="172.7" r="1.1"/><circle opacity=".5" fill="#0069FF" cx="206.2" cy="186" r="1.1"/></svg>
