<svg id="Layer_1" xmlns="http://www.w3.org/2000/svg" xmlns:xlink="http://www.w3.org/1999/xlink" viewBox="0 0 2000 500"><style>.st0{clip-path:url(#SVGID_2_);} .st1{fill:none;stroke:#FFFFFF;stroke-miterlimit:10;} .st2{fill:url(#SVGID_3_);} .st3{fill:url(#SVGID_4_);} .st4{fill:url(#SVGID_5_);} .st5{fill:url(#SVGID_6_);} .st6{fill:url(#SVGID_7_);} .st7{fill:url(#SVGID_8_);} .st8{fill:url(#SVGID_9_);} .st9{fill:url(#SVGID_10_);} .st10{fill:url(#SVGID_11_);} .st11{fill:url(#SVGID_12_);} .st12{fill:url(#SVGID_13_);} .st13{fill:url(#SVGID_14_);} .st14{fill:url(#SVGID_15_);} .st15{fill:url(#SVGID_16_);} .st16{fill:url(#SVGID_17_);} .st17{fill:url(#SVGID_18_);} .st18{fill:url(#SVGID_19_);} .st19{fill:url(#SVGID_20_);} .st20{fill:url(#SVGID_21_);} .st21{fill:url(#SVGID_22_);} .st22{fill:url(#SVGID_23_);} .st23{fill:url(#SVGID_24_);} .st24{fill:url(#SVGID_25_);} .st25{fill:url(#SVGID_26_);} .st26{fill:url(#SVGID_27_);} .st27{fill:url(#SVGID_28_);} .st28{fill:url(#SVGID_29_);} .st29{fill:url(#SVGID_30_);} .st30{fill:url(#SVGID_31_);} .st31{fill:url(#SVGID_32_);} .st32{fill:url(#SVGID_33_);} .st33{fill:url(#SVGID_34_);} .st34{fill:url(#SVGID_35_);} .st35{fill:url(#SVGID_36_);} .st36{fill:url(#SVGID_37_);} .st37{fill:url(#SVGID_38_);} .st38{fill:url(#SVGID_39_);} .st39{fill:url(#SVGID_40_);} .st40{fill:url(#SVGID_41_);} .st41{fill:url(#SVGID_42_);} .st42{fill:url(#SVGID_43_);} .st43{fill:url(#SVGID_44_);} .st44{fill:url(#SVGID_45_);} .st45{fill:url(#path2838_2_);} .st46{fill:url(#path2860_2_);} .st47{fill:url(#SVGID_46_);} .st48{fill:url(#SVGID_47_);} .st49{fill:url(#SVGID_48_);} .st50{fill:url(#SVGID_49_);} .st51{fill:url(#SVGID_50_);} .st52{fill:url(#SVGID_51_);}</style><defs><path id="SVGID_1_" d="M0 0h2000v500H0z"/></defs><clipPath id="SVGID_2_"><use xlink:href="#SVGID_1_" overflow="visible"/></clipPath><g class="st0"><path class="st1" d="M1581.9 383.3c-16.6 0-30 13.4-30 30s13.4 30 30 30 30-13.4 30-30-13.4-30-30-30z"/><linearGradient id="SVGID_3_" gradientUnits="userSpaceOnUse" x1="1597.108" y1="433.504" x2="1569.775" y2="397.504"><stop offset="0" stop-color="#FFF" stop-opacity=".2"/><stop offset="1" stop-color="#FFF"/></linearGradient><path class="st2" d="M1571 425h-5v-23h5v2h-3v19h3v2zm12.7-9.5c-.4.3-.9.5-1.4.7 1.9 3 1.7 6-.3 8.9-2.4-3-2.5-6-.4-8.9-.5-.1-1-.2-1.4-.5-.8 3.4-3 5.4-6.5 6 .5-3.8 2.5-6 6-6.6-.3-.4-.5-.8-.6-1.4-3 1.8-6 1.7-8.8-.3 3-2.3 6-2.5 8.8-.4.1-.6.3-1.1.7-1.6-3.6-.7-5.6-2.8-6-6.5 3.6.7 5.7 2.7 6.5 6 .4-.3.9-.5 1.4-.5-2.1-3-2-6 .4-8.9 2.1 3 2.2 6 .3 8.9.5.1 1 .3 1.4.7.7-3.7 2.8-5.7 6.6-6-.7 3.7-2.8 5.7-6.1 6.5.3.4.5.9.5 1.5 3.1-2.2 6-2 8.9.3-3 2.1-6 2.2-8.9.3-.1.5-.3.9-.5 1.3 3.5.8 5.5 3 6.1 6.5-4-.5-6.1-2.5-6.7-6zm14 9.5h-4.7v-2h3v-19h-3v-2h4.8l-.1 23z"/></g><g class="st0"><circle class="st1" cx="338.1" cy="443.4" r="30"/><linearGradient id="SVGID_4_" gradientUnits="userSpaceOnUse" x1="355.394" y1="459.795" x2="338.06" y2="426.462"><stop offset="0" stop-color="#FFF" stop-opacity=".2"/><stop offset="1" stop-color="#FFF"/></linearGradient><path class="st3" d="M333.1 440.2l2.8 2.8 3-3 2.8-2.8.6-.5c.9-.9 2.4-.9 3.3 0s.9 2.4 0 3.3l-.2.2 2.8 2.8.2-.2c1.7-1.7 2.2-4.2 1.6-6.3-.2-.5-.4-.5-.6-1.5h.4c1.6 0 2.9-1.2 2.9-2.8s-1.3-2.9-2.9-2.9-2.9 1.3-2.9 2.9v.5c0-.2-.8-.4-1.2-.5-2.1-.6-4.6-.1-6.3 1.6l-.6.5-2.8 2.8-2.9 3.1z"/><linearGradient id="SVGID_5_" gradientUnits="userSpaceOnUse" x1="340.792" y1="467.388" x2="323.459" y2="434.055"><stop offset="0" stop-color="#FFF" stop-opacity=".2"/><stop offset="1" stop-color="#FFF"/></linearGradient><path class="st4" d="M342.9 448.3l-2.8-2.8-3 3-2.8 2.8-.5.6c-.9.9-2.4.9-3.3 0-.9-.9-.9-2.4 0-3.3l.2-.2-2.8-2.8-.3.1c-1.6 1.6-2.2 4-1.7 6 .2.4.4.9.6 1.3-.2 0-.4-.1-.6-.1-1.6 0-2.9 1.3-2.9 2.9 0 1.6 1.4 2.9 3 2.9s3-1.3 3-2.9v-.4c0 .4 1 .7 1.6.9 2.1.5 4.4 0 6-1.7l.6-.6 2.8-2.8 2.9-2.9z"/><linearGradient id="SVGID_6_" gradientUnits="userSpaceOnUse" x1="345.641" y1="464.866" x2="328.308" y2="431.533"><stop offset="0" stop-color="#FFF" stop-opacity=".2"/><stop offset="1" stop-color="#FFF"/></linearGradient><path class="st5" d="M326 435h.4c-.3 0-.5.9-.6 1.3-.6 2.2-.1 4.6 1.6 6.3l.5.5 2.8 2.8 3 3 2.8-2.8-3-3-2.8-2.8-.6-.6c-.9-.9-.9-2.4 0-3.3s2.4-.9 3.3 0l.2.2 2.8-2.8-.2-.2c-1.6-1.6-3.9-2.2-5.9-1.7-.5.1-1.1.4-1.6.7 0-.2.1-.3.1-.5 0-1.6-1.3-2.9-2.9-2.9-1.6 0-2.9 1.3-2.9 2.9 0 1.6 1.3 2.9 3 2.9z"/><linearGradient id="SVGID_7_" gradientUnits="userSpaceOnUse" x1="350.521" y1="462.329" x2="333.188" y2="428.996"><stop offset="0" stop-color="#FFF" stop-opacity=".2"/><stop offset="1" stop-color="#FFF"/></linearGradient><path class="st6" d="M349.9 453h-.3c.3 0 .5-.9.6-1.4.5-2.1-.1-4.3-1.7-5.9l-.6-.6-2.8-2.8-3-3-2.8 2.8 3 3 2.8 2.8.6.6c.9.9.9 2.4 0 3.3-.9.9-2.4.9-3.3 0l-.2-.2-2.8 2.8.2.2c1.7 1.7 4.2 2.2 6.3 1.6.4-.1.8-.3 1.1-.6 0 .2-.1.3-.1.5 0 1.6 1.3 2.9 2.9 2.9 1.6 0 2.9-1.5 2.9-3.1.1-1.4-1.2-2.9-2.8-2.9z"/></g><g class="st0"><circle class="st1" cx="1455.4" cy="460.2" r="51.5"/><linearGradient id="SVGID_8_" gradientUnits="userSpaceOnUse" x1="1472.435" y1="502.565" x2="1423.809" y2="453.938"><stop offset="0" stop-color="#FFF" stop-opacity=".2"/><stop offset="1" stop-color="#FFF"/></linearGradient><path class="st7" d="M1430.5 461.6c0 9.8 5.7 18.4 13.9 22.3l-11.8-32.4c-1.4 3-2.1 6.5-2.1 10.1z"/><linearGradient id="SVGID_9_" gradientUnits="userSpaceOnUse" x1="1488.427" y1="486.573" x2="1439.801" y2="437.947"><stop offset="0" stop-color="#FFF" stop-opacity=".2"/><stop offset="1" stop-color="#FFF"/></linearGradient><path class="st8" d="M1471.4 454c.2-1.5-1.5-.2-2.9-.7-2.1-.5-2.9-2.7-2.7-5 .3-3.4 2.4-4.5 5.3-3.9 1.5.2 2.4 2.6 3.3 1 0-.2-1.4-1.4-2.2-2.1-4.5-4.1-10.3-6.5-16.8-6.5-8.6 0-16.3 4.5-20.8 11.2h1.5c2.6 0 6.5-.3 6.5-.3 1.4 0 1.5 1.9.2 2.1 0 0-1.4.2-2.9.2l7.6 22.7 5.5-16.3-2.4-6.4c-1.4 0-2.6-.2-2.6-.2-1.4 0-1.2-2.1.2-2.1 0 0 4.1.3 6.5.3 2.6 0 6.5-.3 6.5-.3 1.4 0 1.5 1.9.2 2.1 0 0-1.4.2-2.9.2l7.7 22.8 2.4-8.2c1.4-3.4 2.6-8.5 2.8-10.6z"/><linearGradient id="SVGID_10_" gradientUnits="userSpaceOnUse" x1="1476.307" y1="498.693" x2="1427.681" y2="450.067"><stop offset="0" stop-color="#FFF" stop-opacity=".2"/><stop offset="1" stop-color="#FFF"/></linearGradient><path class="st9" d="M1455.7 463.6l-7.4 21.6c2.2.7 4.6 1 7 1 2.9 0 5.7-.5 8.2-1.4 0-.2-.2-.2-.2-.3l-7.6-20.9z"/><linearGradient id="SVGID_11_" gradientUnits="userSpaceOnUse" x1="1490.212" y1="484.788" x2="1441.586" y2="436.162"><stop offset="0" stop-color="#FFF" stop-opacity=".2"/><stop offset="1" stop-color="#FFF"/></linearGradient><path class="st10" d="M1477.7 451.6c.2.9-10 31.4-10 31.4 7.4-4.3 12.4-12.4 12.4-21.5 0-4.2-.8-6.5-2.4-9.9z"/></g><g class="st0"><circle class="st1" cx="400.2" cy="359.4" r="34.3"/><linearGradient id="SVGID_12_" gradientUnits="userSpaceOnUse" x1="421.72" y1="389.867" x2="381.72" y2="338.867"><stop offset="0" stop-color="#FFF" stop-opacity=".2"/><stop offset="1" stop-color="#FFF"/></linearGradient><path class="st11" d="M417.9 366.2c0 .3-.3.7-1.4 1.3-1.9.9-11.7 5-13.7 6.1-2.1 1.1-3.2 1.1-4.8.3-1.7-.8-11.9-5-13.7-5.8-.9-.5-1.3-.8-1.3-1.1v-2.2c0 .2.6.5 1.1.8 1.8.8 12.2 5 13.8 5.8 1.7.8 2.7.8 4.8-.3 2.1-1.1 11.8-5 13.7-6.1.9-.5 1.4-.9 1.4-1.1.2-.2.1 2.1.1 2.3zm.1-5.1c0 .3-.4.7-1.4 1.3-.1.1-.4.1-.5.2-.3.1-.7.3-1 .5-3.4 1.5-10.4 4.5-12.3 5.4-2.1 1.1-3.2 1.1-4.8.3-1.4-.7-8.6-3.5-12.3-5.2-.5-.2-.9-.3-1.3-.6-.1-.1-.1-.1-.2-.1-.9-.5-1.3-.8-1.3-1.1v-2.3c0 .2.6.5 1 .8.6.2 1.9.9 3.5 1.5.7.3 1.3.6 2.1.9 3.4 1.4 7.3 3 8.2 3.4 1.7.8 2.7.8 4.8-.3 1.1-.7 5-2.2 8.4-3.7.7-.3 1.3-.6 1.9-.8 1.6-.7 3-1.3 3.6-1.6.9-.5 1.4-.9 1.4-1.1.2-.1.2 2.1.2 2.5z"/><linearGradient id="SVGID_13_" gradientUnits="userSpaceOnUse" x1="425.475" y1="386.921" x2="385.475" y2="335.921"><stop offset="0" stop-color="#FFF" stop-opacity=".2"/><stop offset="1" stop-color="#FFF"/></linearGradient><path class="st12" d="M416.6 352.6c-1.8-.7-11.6-4.5-13.5-5.3-1.9-.7-2.6-.7-4.8.1-2.2.8-12.4 4.8-14.2 5.5-.9.3-1.1.7-1.1 1v2.5c0 .3.4.7 1.3 1.1.1 0 .1.1.2.1.2.1.7.3 1.1.6 1.3.6 3.2 1.4 5 2.2.9.3 1.9.8 2.9 1.1 2.1.9 3.8 1.6 4.5 1.9 1.7.8 2.7.8 4.8-.3.8-.3 2.4-1.1 4.5-1.9.9-.3 1.8-.8 2.7-1.1 1.9-.9 4-1.7 5.3-2.3.3-.2.7-.3.9-.5.1-.1.3-.1.4-.1.9-.5 1.5-.9 1.5-1.3v-2.4c-.1-.2-.6-.6-1.5-.9zm-18.6-3.9l2.7 1.1 2.6-.9-.7 1.7 2.7 1-3.3.4-.8 1.9-1.1-1.9-.1-.1-4-.3 3-1-1-1.9zm-5.6 6.6c-.5 0-.9 0-1.4-.1-1.4-.2-2.4-.7-2.4-1.4 0-.8 1.7-1.4 3.8-1.4 1.5 0 2.9.3 3.4.9.1.2.2.3.2.6 0 .9-1.6 1.6-3.6 1.4zm10 2l-1.4 2.1-3.4-1.4-2.3-.9 8.1-1.3-1 1.5zm7.5-2.3l-.9.3-.5.1-4.4-1.6 1.4-.6 3.3-1.4 4.2 1.7-3.1 1.5z"/></g><g class="st0"><circle class="st1" cx="552.5" cy="463.9" r="46.5"/><linearGradient id="SVGID_14_" gradientUnits="userSpaceOnUse" x1="580.059" y1="502.78" x2="535.059" y2="440.78"><stop offset="0" stop-color="#FFF" stop-opacity=".2"/><stop offset="1" stop-color="#FFF"/></linearGradient><path class="st13" d="M552.7 488.9c-.6 0-1.4-.2-1.9-.5l-6.2-3.6c-.9-.5-.5-.5-.2-.7 1.2-.5 1.4-.1 2.8-1.1h.5l4.6 2.7c.2.2.5.1.6 0l17.9-10.4c.2-.2.1-.3.1-.5v-21.1c0-.2 0-.5-.1-.5l-18-10.4c-.2-.2-.4-.2-.6 0l-18.1 10.4c-.2.2-.2.3-.2.5v20.9c0 .2.1.5.3.5l3.6 2.2c2.6 1.4 4.2-.3 4.2-1.9v-20.5c0-.3.6-.9.7-.9h2.3c.3 0 .9.6.9.9v20.6c0 3.6-2.3 5.6-5.7 5.6-1.1 0-2 0-4.3-1.1l-4.6-2.5c-1.1-.8-1.4-1.6-1.4-2.8v-21.1c0-1.4 1-2.6 2.1-3.3l18.3-10.4c1.1-.6 2.7-.6 3.9 0l18 10.4c1.2.6 1.7 2 1.7 3.3v20.9c0 1.4-.6 2.6-1.7 3.3l-18 10.4c-.4.5-.9.7-1.5.7z"/><linearGradient id="SVGID_15_" gradientUnits="userSpaceOnUse" x1="583.656" y1="500.169" x2="538.656" y2="438.169"><stop offset="0" stop-color="#FFF" stop-opacity=".2"/><stop offset="1" stop-color="#FFF"/></linearGradient><path class="st14" d="M558.2 475.7c-6.7 0-8.1-3.9-8.1-7 0-.3.2-.7.5-.7h2c.2 0 .5.4.5.7.3 2.5 1.2 3.7 5.3 3.7 3.3 0 4.6-1.7 4.6-3.7 0-1.2-.5-2-5.4-2.6-4.2-.5-6.8-1.5-6.8-5.6 0-3.7 2.6-7 7-7 5 0 7.3 2.2 7.6 6.5 0 .2 0 .5-.2.6-.2.2-.2.3-.3.3h-2c-.2 0-.5-.3-.5-.6-.5-2.5-1.5-3.5-4.8-3.5-3.6 0-3.9 2.6-3.9 3.7 0 1.4.5 1.7 5.3 2.5 4.7.8 7 1.8 7 5.7s-2.8 7-7.8 7z"/></g><g class="st0"><circle class="st1" cx="725.4" cy="434" r="52"/><linearGradient id="SVGID_16_" gradientUnits="userSpaceOnUse" x1="743.09" y1="451.579" x2="717.09" y2="417.579"><stop offset="0" stop-color="#FFF" stop-opacity=".2"/><stop offset="1" stop-color="#FFF"/></linearGradient><path class="st15" d="M726.1 452.2l2.9 4.9c6.4-6.2 18.7-22.2 2.3-43-1.6-1.9-3.6-4.7-5.2-8.5-.2-.5 0 46.6 0 46.6z"/><linearGradient id="SVGID_17_" gradientUnits="userSpaceOnUse" x1="739.69" y1="454.178" x2="713.69" y2="420.178"><stop offset="0" stop-color="#FFF" stop-opacity=".2"/><stop offset="1" stop-color="#FFF"/></linearGradient><path class="st16" d="M724 452.2l-2.9 4.9c-6.4-6.2-18.7-22.2-2.4-43 1.6-1.9 3.6-4.7 5.2-8.5.3-.5.1 46.6.1 46.6z"/><g><linearGradient id="SVGID_18_" gradientUnits="userSpaceOnUse" x1="726.918" y1="463.945" x2="700.918" y2="429.945"><stop offset="0" stop-color="#FFF" stop-opacity=".2"/><stop offset="1" stop-color="#FFF"/></linearGradient><path class="st17" d="M723 466v-7.2l2.4-4 2.6 4v7.2z"/></g></g><g class="st0"><circle class="st1" cx="1133.5" cy="459.4" r="55.6"/><linearGradient id="SVGID_19_" gradientUnits="userSpaceOnUse" x1="1184.581" y1="503.441" x2="1113.581" y2="431.441"><stop offset="0" stop-color="#FFF" stop-opacity=".2"/><stop offset="1" stop-color="#FFF"/></linearGradient><path class="st18" d="M1110 436h27v11h-27z"/><linearGradient id="SVGID_20_" gradientUnits="userSpaceOnUse" x1="1198.777" y1="489.442" x2="1127.777" y2="417.442"><stop offset="0" stop-color="#FFF" stop-opacity=".2"/><stop offset="1" stop-color="#FFF"/></linearGradient><path class="st19" d="M1146 436h11v11h-11z"/><linearGradient id="SVGID_21_" gradientUnits="userSpaceOnUse" x1="1180.402" y1="507.562" x2="1109.402" y2="435.562"><stop offset="0" stop-color="#FFF" stop-opacity=".2"/><stop offset="1" stop-color="#FFF"/></linearGradient><path class="st20" d="M1110 455h47v10h-47z"/><g><linearGradient id="SVGID_22_" gradientUnits="userSpaceOnUse" x1="1177.49" y1="510.433" x2="1106.49" y2="438.433"><stop offset="0" stop-color="#FFF" stop-opacity=".2"/><stop offset="1" stop-color="#FFF"/></linearGradient><path class="st21" d="M1135 473h22v11h-22z"/></g><g><linearGradient id="SVGID_23_" gradientUnits="userSpaceOnUse" x1="1163.548" y1="524.182" x2="1092.548" y2="452.182"><stop offset="0" stop-color="#FFF" stop-opacity=".2"/><stop offset="1" stop-color="#FFF"/></linearGradient><path class="st22" d="M1110 473h17v11h-17z"/></g></g><g class="st0"><circle class="st1" cx="609.1" cy="363.2" r="44"/><linearGradient id="SVGID_24_" gradientUnits="userSpaceOnUse" x1="644.035" y1="390.994" x2="603.537" y2="339.997"><stop offset="0" stop-color="#FFF" stop-opacity=".2"/><stop offset="1" stop-color="#FFF"/></linearGradient><path class="st23" d="M633.2 347.2c-.1-.6-1-.6-1 .1l-1.5 8.5c-.1.4-.4.7-.7.9l-4.5 1.5c.6-2.8-.1-5.6-1.3-7.5-.3-.4-.9-.3-.9.3 0 3.7-.7 6.7-2.5 8.8l-1.9.6c-.9.3-1.5 1.2-1.6 2.1-.1 2.3-.6 7.6-.7 10.1 0 .7-.4 1.5-1 1.9L611 378c0 2.2 1.9 4.8 4.7 4.8l4.5-5.3c.6-.6.9-1.5.9-2.2l.1-2.2c0-.4.3-.7.6-.7 5.3-1.3 8.1-4 8.8-7.3.1-.4-.4-.7-.7-.4-2.3 2.8-5.7 3.7-7.9 3.7-.4 0-1.1-.4-1.1-.9v-2.1c0-.6.5-1 1.1-1.3l10.8-4.1c.4-.1.8-.7.8-1.2l-.4-11.6z"/><linearGradient id="SVGID_25_" gradientUnits="userSpaceOnUse" x1="627.474" y1="404.146" x2="586.976" y2="353.148"><stop offset="0" stop-color="#FFF" stop-opacity=".2"/><stop offset="1" stop-color="#FFF"/></linearGradient><path class="st24" d="M585.1 347.2c.1-.6 1-.6 1 .1l1.5 8.5c.1.4.4.7.7.9l4.5 1.5c-.6-2.8.1-5.6 1.3-7.5.3-.4.9-.3.9.3 0 3.7.7 6.7 2.5 8.8l1.9.6c.9.3 1.5 1.2 1.6 2.1.1 2.3.6 7.6.7 10.1 0 .7.4 1.5 1 1.9l4.4 3.5c0 2.2-1.9 4.8-4.7 4.8l-4.5-5.3c-.6-.6-.9-1.5-.9-2.2l-.1-2.2c0-.4-.3-.7-.6-.7-5.3-1.3-8.1-4-8.8-7.3-.1-.4.4-.7.7-.4 2.3 2.5 5.5 3.4 7.7 3.4.4 0 1-.4 1-.9v-1.8c0-.6-.4-1-1-1.3l-10.8-4.1c-.4-.1-.8-.7-.8-1.2l.8-11.6z"/></g><g class="st0"><circle class="st1" cx="235" cy="402.9" r="36.5"/><linearGradient id="SVGID_26_" gradientUnits="userSpaceOnUse" x1="252.216" y1="421.902" x2="219.216" y2="389.902"><stop offset="0" stop-color="#FFF" stop-opacity=".2"/><stop offset="1" stop-color="#FFF"/></linearGradient><path class="st25" d="M218 405.4s-1.7 12.3 12.4 12.3c0 0 11.4.6 17.4-8.9 4.3 1.3 9.9-.2 11.4-3.2 0 0-2.4-2.1-7.8-2.3 0 0 0-5.5-3.4-8.4 0 0-2.3 2.9-2.1 9.6-.5.2-1.2.4-1.9.4h-26v.5z"/><linearGradient id="SVGID_27_" gradientUnits="userSpaceOnUse" x1="249.011" y1="425.207" x2="216.011" y2="393.207"><stop offset="0" stop-color="#FFF" stop-opacity=".2"/><stop offset="1" stop-color="#FFF"/></linearGradient><path class="st26" d="M220 397h5v5h-5z"/><linearGradient id="SVGID_28_" gradientUnits="userSpaceOnUse" x1="253.373" y1="420.71" x2="220.373" y2="388.71"><stop offset="0" stop-color="#FFF" stop-opacity=".2"/><stop offset="1" stop-color="#FFF"/></linearGradient><path class="st27" d="M229 397h5v5h-5z"/><linearGradient id="SVGID_29_" gradientUnits="userSpaceOnUse" x1="257.878" y1="416.063" x2="224.878" y2="384.063"><stop offset="0" stop-color="#FFF" stop-opacity=".2"/><stop offset="1" stop-color="#FFF"/></linearGradient><path class="st28" d="M228 387h6v6h-6z"/><linearGradient id="SVGID_30_" gradientUnits="userSpaceOnUse" x1="257.492" y1="416.462" x2="224.492" y2="384.462"><stop offset="0" stop-color="#FFF" stop-opacity=".2"/><stop offset="1" stop-color="#FFF"/></linearGradient><path class="st29" d="M237 397h6v5h-6z"/></g><g class="st0"><path class="st1" d="M918 415.8c-19.8 0-36 16.2-36 36s16.2 36 36 36 36-16.2 36-36-16-36-36-36z"/><linearGradient id="SVGID_31_" gradientUnits="userSpaceOnUse" x1="930.881" y1="466.119" x2="910.047" y2="445.285"><stop offset="0" stop-color="#FFF" stop-opacity=".2"/><stop offset="1" stop-color="#FFF"/></linearGradient><path class="st30" d="M939.6 449.6c-.5-.4-1.2-.2-1.6.2-.8 1.3-1.9 2.5-3 3.7-.7-.8-1.6-1.5-2.4-2.2 1.5-1.5 2.8-3.5 2.9-3.6.4-.5.1-1.2-.4-1.6-.5-.4-1.2-.1-1.6.4-.5.6-1.7 2.4-2.8 3.5-.8-.5-1.7-1.1-2.5-1.5 1.5-1.5 2.4-3.1 2.4-3.1.2-.5 0-1.2-.5-1.5-.5-.2-1.2 0-1.5.5 0 0-1 1.9-2.7 3.1-.8-.4-1.8-.6-2.8-.8 1.3-1.5 2.2-2.9 2.2-2.9.4-.5.1-1.2-.5-1.5-.5-.4-1.2-.1-1.5.5 0 0-1.2 2.2-2.9 3.4l-.1.1c-1.2-.1-2.2-.1-3.4-.1 1.2-1.3 1.9-2.7 2.1-2.8.4-.5.1-1.2-.4-1.6-.5-.4-1.2-.1-1.6.4 0 .1-1.9 3-3.6 4.4-6.2 1.1-11.9 4.5-16.1 9.9-.4.5-.4 1.2.1 1.6.1.1.5.2.7.2.4 0 .6-.1.8-.5.4-.5.8-.8 1.2-1.3 5.3 5.1 11.6 7.5 17.9 7.5 6.4 0 12.9-2.7 18.1-8.1 0-.1.1-.1.1-.1 1.2-1.3 2.4-2.8 3.5-4.4.7-.8.5-1.4-.1-1.8zm-21.6.3c.2 0 .5 0 .6.1.4-.4 1-.6 1.6-.6 1.2 0 2.3 1 2.3 2.3 0 .6-.2 1.1-.6 1.6 0 .2.1.5.1.6 0 2.2-1.8 4-4 4s-4-1.8-4-4c0-2.3 1.8-4 4-4zm-16.6 5.2c3.1-3.1 6.9-5.2 10.9-6.2-1.1 1.3-1.7 2.9-1.7 4.7 0 4.1 3.3 7.4 7.4 7.4s7.4-3.3 7.4-7.4c0-1.6-.5-3.1-1.5-4.2 3.7 1.2 7.1 3.3 10 6.4-9.6 8.8-22.6 8.6-32.5-.7z"/><linearGradient id="SVGID_32_" gradientUnits="userSpaceOnUse" x1="930.25" y1="466.75" x2="909.416" y2="445.916"><stop offset="0" stop-color="#FFF" stop-opacity=".2"/><stop offset="1" stop-color="#FFF"/></linearGradient><path class="st31" d="M917.9 451.6c0-.2 0-.5.1-.7-1.7 0-3 1.3-3 3s1.3 3 3 3 3-1.3 3-3c-.2.1-.5.1-.7.1-1.3 0-2.4-1.1-2.4-2.4z"/></g><g class="st0"><path class="st1" d="M135.3 277.9c-16.6 0-30 13.4-30 30s13.4 30 30 30 30-13.4 30-30-13.4-30-30-30z"/><linearGradient id="SVGID_33_" gradientUnits="userSpaceOnUse" x1="154.443" y1="318.044" x2="133.11" y2="290.711"><stop offset="0" stop-color="#FFF" stop-opacity=".2"/><stop offset="1" stop-color="#FFF"/></linearGradient><path class="st32" d="M150.2 310.6c0 1.4-.5 2.7-1.4 3.8.4.4 1 .7 1.6.7 1.2 0 2.2-1 2.2-2.2-.1-1.3-1.1-2.3-2.4-2.3z"/><linearGradient id="SVGID_34_" gradientUnits="userSpaceOnUse" x1="153.471" y1="318.803" x2="132.138" y2="291.47"><stop offset="0" stop-color="#FFF" stop-opacity=".2"/><stop offset="1" stop-color="#FFF"/></linearGradient><path class="st33" d="M141.7 305.4c.6-.3 1.3-.5 2-.6-.2-2.1-2-3.8-4.2-3.8h-.5v.7c0 .4.1.7 0 1.1 1.2.6 2.1 1.5 2.7 2.6z"/><linearGradient id="SVGID_35_" gradientUnits="userSpaceOnUse" x1="137.456" y1="331.303" x2="116.123" y2="303.969"><stop offset="0" stop-color="#FFF" stop-opacity=".2"/><stop offset="1" stop-color="#FFF"/></linearGradient><path class="st34" d="M124.8 312.2c-1.5-1.1-2.4-2.8-2.4-4.6 0-.3 0-.7.1-1-2.4.1-4.2 2-4.2 4.3 0 2.4 2 4.4 4.4 4.4.8 0 1.6-.2 2.3-.7-.3-.5-.4-1-.4-1.6 0-.2.1-.5.2-.8z"/><linearGradient id="SVGID_36_" gradientUnits="userSpaceOnUse" x1="145.672" y1="324.89" x2="124.339" y2="297.557"><stop offset="0" stop-color="#FFF" stop-opacity=".2"/><stop offset="1" stop-color="#FFF"/></linearGradient><path class="st35" d="M128 301.8v-.1c0-.7.3-1.4.6-2-.3-.2-.6-.3-1-.3-1.2 0-2.1.9-2.1 2.1 0 .3 0 .6.1.9.8-.4 2.4-.6 2.4-.6z"/><linearGradient id="SVGID_37_" gradientUnits="userSpaceOnUse" x1="142.539" y1="327.335" x2="121.206" y2="300.002"><stop offset="0" stop-color="#FFF" stop-opacity=".2"/><stop offset="1" stop-color="#FFF"/></linearGradient><path class="st36" d="M127.2 309.9c.1 0 .2.1.3.1h.5v-.9c0-1.5.6-3 1.4-4.2-.2-.3-.4-.5-.5-.8 0-.1-.1-.2-.1-.3s-.1-.1-.1-.2c-.1-.2-.1-.6-.2-.6h-.4c-.7 0-1.4.1-2 .4h-.3s-.2.1-.3.2c-.8.5-1.5 1.3-1.8 2.2 0 .1-.1.2-.1.3 0 .1-.1.2-.1.3-.1.4-.1.8-.1 1.2 0 1.4.7 2.9 1.8 3.8.5-.8 1.2-1.3 2-1.5z"/><linearGradient id="SVGID_38_" gradientUnits="userSpaceOnUse" x1="140.183" y1="329.174" x2="118.85" y2="301.841"><stop offset="0" stop-color="#FFF" stop-opacity=".2"/><stop offset="1" stop-color="#FFF"/></linearGradient><path class="st37" d="M129.1 312.7c0-.1-.1 0-.1-.1-.3-.5-.5-1.5-.6-1.5h-.6s-.2-.2-.3-.1c-.6.2-1.1.5-1.5 1 0 .1-.1.2-.1.2 0 .1-.1.2-.1.2-.1.2-.1.4-.1.6 0 .4.1.8.3 1.2 0 .1.1.2.2.2l.2.2c.4.5 1 .7 1.7.7.9 0 1.7-.5 2.1-1.3-.3-.3-.6-.7-.8-1.1-.2 0-.3-.1-.3-.2z"/><linearGradient id="SVGID_39_" gradientUnits="userSpaceOnUse" x1="149.498" y1="321.904" x2="128.165" y2="294.57"><stop offset="0" stop-color="#FFF" stop-opacity=".2"/><stop offset="1" stop-color="#FFF"/></linearGradient><path class="st38" d="M129.3 302.4c0 .1.1.2.2.3 0 .1.1.2.1.3 0 .1.1.2.1.3s.1.2.1.3c.1.2.2.3.3.5.2-.3.5-.5.8-.7.1-.1.2-.1.2-.2.1-.1.2 0 .2-.1 1.3-.8 2.7-1.1 4.3-1.1h.8c.6 0 1.6 0 1.6.3v-.6s.1-.5 0-.7c0-.1 0-.2-.1-.3 0-.1 0-.2-.1-.3-.6-1.9-2.3-3.1-4.2-3.1-1.6 0-3 .9-3.8 2.2-.1.1-.1.2-.1.3s-.3.2-.3.3c-.2.5-.5 1.1-.5 1.6v.4s.4.2.4.3z"/><linearGradient id="SVGID_40_" gradientUnits="userSpaceOnUse" x1="151.803" y1="320.105" x2="130.469" y2="292.772"><stop offset="0" stop-color="#FFF" stop-opacity=".2"/><stop offset="1" stop-color="#FFF"/></linearGradient><path class="st39" d="M149 311v-.6-.3c0-2.3-2.1-4.1-4.4-4.1H144c-.6 0-1.1.1-1.7.4.3.7.6 1.3.6 2.1V309.3c0 1.8-.8 3.4-1.9 4.7.9.9 2.1 1.5 3.4 1.5 1.2 0 2.3-.4 3.2-1.2l.2-.2c.1-.1.1 0 .2 0 .7-1.1 1.2-2.1 1.2-3.1h.2-.4z"/><linearGradient id="SVGID_41_" gradientUnits="userSpaceOnUse" x1="146.945" y1="323.896" x2="125.612" y2="296.563"><stop offset="0" stop-color="#FFF" stop-opacity=".2"/><stop offset="1" stop-color="#FFF"/></linearGradient><path class="st40" d="M141.3 306.6c0-.1-.2-.2-.2-.2 0-.1-.1-.2-.1-.2-.6-1-1.4-1.9-2.4-2.4-.1 0-.2-.1-.2-.1-.1 0-.2-.1-.2-.1-.7-.3-1.4-.6-2.1-.6H135.5l-.1-.1c-1.2 0-2.3.4-3.2 1-.1 0-.2.1-.2.2-.1.1-.2.1-.2.2-.4.3-.7.6-1 .9l-.2.2-.2.2c-.7 1.1-1.1 2.3-1.1 3.6 0 .3 0 .7.1 1 0 .1 0 .2.1.3 0 .1.1.2.1.3.1.5.3.9.5 1.3 0 .1.1.2.1.2 0 .1.1.2.1.2.1.2.3.4.4.6.1.1.2.2.2.3.1.1.1.2.2.2 1.2 1.1 2.7 1.7 4.3 1.7 1.6 0 3.1-.6 4.3-1.7l.2-.2c.1-.1.3-.1.4-.2.9-1 1.8-2.3 1.8-3.7v-.5-.2c-.1-.7-.4-1.4-.8-2.2z"/></g><g class="st0"><circle class="st1" cx="1434.5" cy="355" r="30"/><linearGradient id="SVGID_42_" gradientUnits="userSpaceOnUse" x1="1450.861" y1="376.821" x2="1422.861" y2="341.487"><stop offset="0" stop-color="#FFF" stop-opacity=".2"/><stop offset="1" stop-color="#FFF"/></linearGradient><path class="st41" d="M1430 357c0 1.5 1.3 2.8 2.8 2.7l6.8-.5-1.7 2.9h-8.7l-4.2-6.9 4.3-7.1h9.2l2.2 4h5.5l-4.3-10H1426l-7.4 13.7 7.4 13.3h15.3l7.1-14.6-15.6-.2c-1.4-.1-2.8 1.2-2.8 2.7z"/></g><g class="st0"><circle class="st1" cx="1860.8" cy="368.4" r="30"/><linearGradient id="SVGID_43_" gradientUnits="userSpaceOnUse" x1="1874.033" y1="385.881" x2="1852.7" y2="361.214"><stop offset="0" stop-color="#FFF" stop-opacity=".2"/><stop offset="1" stop-color="#FFF"/></linearGradient><path class="st42" d="M1855.3 364s-1.7 6.3-.1 10.3c-.6-6.8 5.6-10.1 3.1-20.9 0 0 7.1 4.1 7.3 14.2 1.2-2.3 1.2-5.7.4-8.8 1.3 1.5 5.9 8.9 3.6 16.9-.4 1.4-1 2.6-1.8 3.6-.2.3-.4.5-.6.7-.4.4-.8.8-1.2 1.1-.1.1-.2.1-.3.2-.2.1-.4.2-.6.4-.2.1-.4.2-.7.3-.2.1-.3.2-.5.2l-.9.3c-.1 0-.2.1-.4.1-.5.2-.9.3-1.3.3-4.7.2-7.7-1.8-8.8-4.5-.1-.2-.2-.5-.3-.7-2.3-6.2 1.5-12.2 3.1-13.7z"/></g><g class="st0"><circle class="st1" cx="1720.6" cy="452.8" r="30"/><linearGradient id="SVGID_44_" gradientUnits="userSpaceOnUse" x1="1737.08" y1="470.924" x2="1712.413" y2="442.257"><stop offset="0" stop-color="#FFF" stop-opacity=".2"/><stop offset="1" stop-color="#FFF"/></linearGradient><path class="st43" d="M1735.2 456.9c-.1.1-.2.3-.3.3l-14.3 10.4-14.3-10.4-.3-.3c-.2-.3-.3-.6-.1-1l.8-2.6.8-2.4 3.2-10c0-.1.1-.2.1-.3.2-.2.4-.2.6-.1.1.1.2.1.3.3 0 0 0 .1.1.1l.7 2.2 2.6 8h10.8l3.2-10.1c.1-.2.2-.3.3-.3.3-.1.6 0 .8.3l3.3 10 1.7 5.1c.2.2.2.6 0 .8z"/></g><g class="st0"><circle class="st1" cx="498.9" cy="360.5" r="30"/><linearGradient id="SVGID_45_" gradientUnits="userSpaceOnUse" x1="509.803" y1="379.765" x2="490.803" y2="346.765"><stop offset="0" stop-color="#FFF" stop-opacity=".2"/><stop offset="1" stop-color="#FFF"/></linearGradient><path class="st44" d="M498.7 348c8 0 14.6 6 15.3 14h-9.4c-.6-3-3-4.8-6-4.8s-5.4 1.8-6 4.8h-9.2c.7-7 7.3-14 15.3-14zm3.5 15.7c0 1.9-1.6 3.5-3.5 3.5s-3.5-1.6-3.5-3.5 1.6-3.5 3.5-3.5 3.5 1.6 3.5 3.5zm-3.6 11.4c-5.9 0-10.7-4.1-11.4-10.1h5.4c.6 3 3.1 4.8 6 4.8 3 0 5.4-1.8 6-4.8h5.3c-.6 6-5.4 10.1-11.3 10.1z"/></g><g class="st0"><circle class="st1" cx="1622.9" cy="302.1" r="30"/><linearGradient id="path2838_2_" gradientUnits="userSpaceOnUse" x1="1632.008" y1="316.432" x2="1613.008" y2="291.932"><stop offset="0" stop-color="#FFF" stop-opacity=".2"/><stop offset="1" stop-color="#FFF"/></linearGradient><path id="path2838_1_" class="st45" d="M1613.8 303.4c0 3.3 2.2 5.2 6.2 4.4v-8.7c-4-1.3-6.2 1.1-6.2 4.3m6.2-17.4h5v25.5c-5 .8-9.8 1.4-13.3-.6-4.5-2.5-4.7-10.5-1.2-14 1.8-1.8 5.4-3.1 9.4-2.2v-7.9c.1-.2-.1-.8.1-.8"/><linearGradient id="path2860_2_" gradientUnits="userSpaceOnUse" x1="1634.685" y1="314.356" x2="1615.685" y2="289.856"><stop offset="0" stop-color="#FFF" stop-opacity=".2"/><stop offset="1" stop-color="#FFF"/></linearGradient><path id="path2860_1_" class="st46" d="M1634 295.6V307c0 4.7-.1 8.4-1.8 10.6-.3.4-1 1.1-1.5 1.5s-1.5 1.1-2 1.2c-.5 0-2-.8-2.6-1.1-.8-.4-1.6-.9-2.5-1.2 2-1.2 3.9-2.2 4.7-4.7.7-2.2.6-5.4.6-8.5v-9.3l5.1.1z"/></g><g class="st0"><circle class="st1" cx="1280.9" cy="402.2" r="74.4"/><linearGradient id="SVGID_46_" gradientUnits="userSpaceOnUse" x1="1335.212" y1="418.438" x2="1275.846" y2="359.072"><stop offset="0" stop-color="#FFF" stop-opacity=".2"/><stop offset="1" stop-color="#FFF"/></linearGradient><path class="st47" d="M1318.6 393l-12.1-18h-21.3l9.9 18z"/><linearGradient id="SVGID_47_" gradientUnits="userSpaceOnUse" x1="1318.23" y1="435.42" x2="1258.864" y2="376.054"><stop offset="0" stop-color="#FFF" stop-opacity=".2"/><stop offset="1" stop-color="#FFF"/></linearGradient><path class="st48" d="M1284.7 439.7l33.9-41.7h-21.5z"/><linearGradient id="SVGID_48_" gradientUnits="userSpaceOnUse" x1="1309.922" y1="443.728" x2="1250.556" y2="384.362"><stop offset="0" stop-color="#FFF" stop-opacity=".2"/><stop offset="1" stop-color="#FFF"/></linearGradient><path class="st49" d="M1280.4 441.6l11.2-43.6h-22.3z"/><linearGradient id="SVGID_49_" gradientUnits="userSpaceOnUse" x1="1314.566" y1="439.084" x2="1255.2" y2="379.718"><stop offset="0" stop-color="#FFF" stop-opacity=".2"/><stop offset="1" stop-color="#FFF"/></linearGradient><path class="st50" d="M1276 375h-20.9l-12.1 18h23.1z"/><linearGradient id="SVGID_50_" gradientUnits="userSpaceOnUse" x1="1322.528" y1="431.122" x2="1263.162" y2="371.756"><stop offset="0" stop-color="#FFF" stop-opacity=".2"/><stop offset="1" stop-color="#FFF"/></linearGradient><path class="st51" d="M1280.4 376.4l-8.6 16.6h17.6z"/><linearGradient id="SVGID_51_" gradientUnits="userSpaceOnUse" x1="1302.42" y1="451.23" x2="1243.054" y2="391.864"><stop offset="0" stop-color="#FFF" stop-opacity=".2"/><stop offset="1" stop-color="#FFF"/></linearGradient><path class="st52" d="M1243.2 398l33.3 42.2-12.4-42.2z"/></g><circle class="st0 st1" cx="1516.5" cy="342" r="15"/><circle class="st0 st1" cx="1350.5" cy="500" r="23"/><circle class="st0 st1" cx="1568.5" cy="500" r="23"/><circle class="st0 st1" cx="1370.4" cy="349.1" r="10.9"/><circle class="st0 st1" cx="1034.4" cy="444.1" r="10.9"/><circle class="st0 st1" cx="333.2" cy="270.9" r="6.7"/><circle class="st0 st1" cx="218.2" cy="263.9" r="6.7"/><circle class="st0 st1" cx="1552.2" cy="271.9" r="6.7"/><circle class="st0 st1" cx="393.2" cy="231.9" r="6.7"/><circle class="st0 st1" cx="1600.2" cy="224.9" r="6.7"/><circle class="st0 st1" cx="61.2" cy="93.9" r="6.7"/><circle class="st0 st1" cx="130.2" cy="182.9" r="6.7"/><circle class="st0 st1" cx="469.2" cy="426.9" r="6.7"/><circle class="st0 st1" cx="1544.2" cy="361.9" r="6.7"/><circle class="st0 st1" cx="699.2" cy="356.9" r="6.7"/><circle class="st0 st1" cx="641.2" cy="445.9" r="6.7"/><circle class="st0 st1" cx="452.2" cy="300.9" r="6.7"/><circle class="st0 st1" cx="1680.2" cy="217.9" r="6.7"/><circle class="st0 st1" cx="1887.2" cy="113.9" r="6.7"/><circle class="st0 st1" cx="1948.2" cy="217.9" r="6.7"/><circle class="st0 st1" cx="853.2" cy="452.9" r="6.7"/><circle class="st0 st1" cx="1768.5" cy="311" r="15"/><circle class="st0 st1" cx="1689.5" cy="365" r="15"/><circle class="st0 st1" cx="1833.5" cy="235" r="15"/><circle class="st0 st1" cx="1923.5" cy="294" r="15"/><circle class="st0 st1" cx="374.5" cy="284" r="15"/><circle class="st0 st1" cx="274.5" cy="313" r="15"/><circle class="st0 st1" cx="67.5" cy="254" r="15"/><circle class="st0 st1" cx="413.5" cy="440" r="15"/><circle class="st0 st1" cx="464" cy="495.5" r="22.5"/><circle class="st0 st1" cx="820.9" cy="506.4" r="28.4"/><circle class="st0 st1" cx="333.5" cy="176" r="15"/><circle class="st0 st1" cx="814.5" cy="416" r="15"/><circle class="st0 st1" cx="980.5" cy="470" r="15"/></svg>