<?xml version="1.0" encoding="utf-8"?>
<!-- Generator: Adobe Illustrator 19.0.0, SVG Export Plug-In . SVG Version: 6.00 Build 0)  -->
<svg version="1.1" id="图层_1" xmlns="http://www.w3.org/2000/svg" xmlns:xlink="http://www.w3.org/1999/xlink" x="0px" y="0px"
	 viewBox="-7882 2857.2 110.5 40" style="enable-background:new -7882 2857.2 110.5 40;" xml:space="preserve">
<style type="text/css">
	.st0{fill:#00A0E9;}
</style>
<path class="st0" d="M-7799.2,2883l-1.3,2.9l-1.4-2.9h-1.3l2.1,4v2.8h1.2v-2.8l0,0l2.1-4H-7799.2z M-7809.1,2884.7l1,2.8h-1.9
	C-7810.1,2887.6-7809.1,2884.7-7809.1,2884.7z M-7807.8,2888.5l0.5,1.4h1.3l-2.5-6.9h-1l-2.5,6.9h1.3l0.5-1.4
	C-7810.4,2888.5-7807.8,2888.5-7807.8,2888.5z M-7817.4,2886.3h-1.4v-2.3h1.4c0.7,0,1.1,0.6,1.1,1.2
	C-7816.3,2885.7-7816.7,2886.3-7817.4,2886.3z M-7817.4,2883h-2.7v6.9h1.2v-2.6h1.4c1.3,0,2.3-0.9,2.3-2.1S-7816,2883-7817.4,2883z
	 M-7826.3,2889.8h1.2v-6.9h-1.2V2889.8z M-7835,2883v6.9h4.2v-0.9h-2.9v-5.9H-7835z M-7842,2884.7l1,2.8h-1.9
	C-7843,2887.6-7842,2884.7-7842,2884.7z M-7840.8,2888.5l0.5,1.4h1.3l-2.5-6.9h-1l-2.5,6.9h1.3l0.5-1.4H-7840.8
	C-7840.8,2888.5-7840.8,2888.5-7840.8,2888.5z M-7832.1,2869.6h-5.3v-1.9h6.2v-1.2h-6.2v-2.4h-2.7l0,0c-0.3,0-0.5,0.3-0.5,0.6v1.8
	h-6.1v1.2h6.1v1.9h-5.2v1.2h10.3c0,0-0.6,2.2-3.4,4.6c-2.5-1.9-3.4-3.4-3.4-3.4h-2.8c1.1,1.9,2.7,3.5,4.4,4.7c-1.6,1-3.6,2-6.2,2.8
	v1.4c0,0,4.1-0.8,8-3.1c3.9,2.3,7.9,3.1,7.9,3.1v-1.3c-2.5-0.9-4.5-1.9-6.1-2.9C-7834.9,2874.9-7832.9,2872.6-7832.1,2869.6
	C-7832.1,2869.6-7832.1,2869.6-7832.1,2869.6z M-7814.9,2864.3h-2.8v2.9h-6.8v1.2h6.8v10.3c0,0.2-0.2,0.4-0.4,0.4h-1.4v1.2h3.6
	c0.6,0,1-0.5,1-1.1v-10.9h1.1v-1.2h-1.1C-7814.9,2867.2-7814.9,2864.3-7814.9,2864.3z M-7820.7,2870.3c-0.1-0.2-0.3-0.3-0.5-0.3
	h-2.3l1.8,5.6h2.7C-7819,2875.6-7820.7,2870.3-7820.7,2870.3z M-7796.7,2880.2l-1-3.3c-0.1-0.2-0.3-0.4-0.5-0.4h-2.6l0.7,2.5h-3
	v-4.9h5.9v-1.2h-5.9v-2.3h5.9v-1.2h-14.8v1.2h5.9v2.3h-5.9v1.2h5.9v4.9h-5.9v1.2L-7796.7,2880.2L-7796.7,2880.2L-7796.7,2880.2
	C-7796.7,2880.2-7796.7,2880.2-7796.7,2880.2z M-7827.5,2864.2l-3.2,7.5h2.4v8.9h2.7v-11.8h-1l2-4.6L-7827.5,2864.2
	C-7827.5,2864.2-7827.5,2864.2-7827.5,2864.2z M-7808.8,2866.8h8.7v1.7h3.1v-2c0,0,0,0,0,0c0-0.5-0.4-0.8-0.8-0.8h-5v-1.6h-3.2v1.6
	h-5.8v2.9h3.1V2866.8C-7808.8,2866.8-7808.8,2866.8-7808.8,2866.8z M-7857.1,2881c4.4,1.4,5.3,1.5,5.3,1.5v-15.6
	c0-2.7-2.2-4.8-4.8-4.8h-20.5c-2.7,0-4.8,2.2-4.8,4.8v20.4c0,2.7,2.2,4.8,4.8,4.8h20.5c2.7,0,4.8-2.2,4.8-4.8v-0.2
	c0,0-7.9-3.3-11.8-5.2c-2.7,3.3-6.1,5.2-9.7,5.2c-6,0-8.1-5.2-5.2-8.7c0.6-0.8,1.7-1.5,3.3-1.9c2.6-0.6,6.7,0.4,10.5,1.7
	c0.7-1.3,1.3-2.7,1.7-4.1h-11.8v-1.2h6.1v-2.1h-7.4v-1.2h7.4v-3c0,0,0-0.5,0.5-0.5h3v3.6h7.3v1.2h-7.3v2.1h6
	c-0.6,2.3-1.4,4.5-2.5,6.3C-7859.9,2879.9-7858.3,2880.6-7857.1,2881C-7857.1,2881-7857.1,2881-7857.1,2881z M-7874.7,2878.4
	c-0.8,0.1-2.2,0.4-2.9,1.1c-2.3,2-0.9,5.7,3.8,5.7c2.7,0,5.5-1.7,7.6-4.5C-7869.3,2879.2-7871.9,2878.1-7874.7,2878.4
	C-7874.7,2878.4-7874.7,2878.4-7874.7,2878.4z"/>
</svg>
