
<svg width="768px" height="416px" viewBox="0 0 768 416" version="1.1" xmlns="http://www.w3.org/2000/svg" xmlns:xlink="http://www.w3.org/1999/xlink">
    <!-- Generator: Sketch 49.3 (51167) - http://www.bohemiancoding.com/sketch -->
    <desc>Created with Sketch.</desc>
    <defs></defs>
    <g id="Page-1" stroke="none" stroke-width="1" fill="none" fill-rule="evenodd">
        <g id="certification-pic" fill-rule="nonzero">
            <path d="M703.44704,359.90272 C705.06752,346.85952 705.99936,333.60128 705.99936,320.11776 C705.99936,143.48544 562.81088,0.29696 386.18112,0.29696 C209.5488,0.29696 66.36032,143.48544 66.36032,320.11776 C66.36032,333.60128 67.29216,346.85696 68.91264,359.90272 L703.44704,359.90272 Z" id="Shape" fill="#E5F5F2"></path>
            <path d="M649.2928,359.90272 C651.2384,346.92352 652.26496,333.64224 652.26496,320.11776 C652.26496,173.16352 533.13536,54.03136 386.18112,54.03136 C239.22432,54.03136 120.09472,173.16352 120.09472,320.11776 C120.09472,333.63968 121.12128,346.92096 123.06688,359.90272 L649.2928,359.90272 Z" id="Shape" fill="#D0EEE6"></path>
            <path d="M408.3968,366.10048 C408.3968,369.524822 405.620822,372.3008 402.19648,372.3008 L54.99392,372.3008 C52.7787588,372.3008 50.7318654,371.119026 49.6242848,369.20064 C48.5167041,367.282254 48.5167041,364.918706 49.6242848,363.00032 C50.7318654,361.081934 52.7787588,359.90016 54.99392,359.90016 L402.19648,359.90016 C405.620237,359.901573 408.395387,362.676723 408.3968,366.10048 Z M768,366.10048 C768,369.524822 765.224022,372.3008 761.79968,372.3008 L736.9984,372.3008 C734.783239,372.3008 732.736345,371.119026 731.628765,369.20064 C730.521184,367.282254 730.521184,364.918706 731.628765,363.00032 C732.736345,361.081934 734.783239,359.90016 736.9984,359.90016 L761.79968,359.90016 C765.223437,359.901573 767.998587,362.676723 768,366.10048 Z M37.12512,365.81376 C37.12512,367.444608 36.4772681,369.008661 35.3240845,370.161844 C34.1709008,371.315028 32.606848,371.96288 30.976,371.96288 L6.15168,371.96288 C2.7556148,371.96288 0.00256,369.209825 0.00256,365.81376 L0.00256,365.73952 C0.00256,362.343455 2.7556148,359.5904 6.15168,359.5904 L30.976,359.5904 C34.3720652,359.5904 37.12512,362.343455 37.12512,365.73952 L37.12512,365.81376 Z M718.4,366.10048 C718.4,369.524822 715.624022,372.3008 712.19968,372.3008 L488.9984,372.3008 C486.783239,372.3008 484.736345,371.119026 483.628765,369.20064 C482.521184,367.282254 482.521184,364.918706 483.628765,363.00032 C484.736345,361.081934 486.783239,359.90016 488.9984,359.90016 L712.19968,359.90016 C715.623437,359.901573 718.398587,362.676723 718.4,366.10048 Z M470.39744,366.10048 C470.39744,369.524822 467.621462,372.3008 464.19712,372.3008 L439.39584,372.3008 C437.180679,372.3008 435.133785,371.119026 434.026205,369.20064 C432.918624,367.282254 432.918624,364.918706 434.026205,363.00032 C435.133785,361.081934 437.180679,359.90016 439.39584,359.90016 L464.19712,359.90016 C467.620877,359.901573 470.396027,362.676723 470.39744,366.10048 Z M594.39872,412.60288 C594.3994,413.425302 594.072995,414.214235 593.491455,414.795775 C592.909915,415.377315 592.120982,415.70372 591.29856,415.70304 L361.88416,415.70304 C360.171989,415.70304 358.784,414.315051 358.784,412.60288 C358.784,410.890709 360.171989,409.50272 361.88416,409.50272 L591.29856,409.50272 C592.120982,409.50204 592.909915,409.828445 593.491455,410.409985 C594.072995,410.991525 594.3994,411.780458 594.39872,412.60288 Z M352.58368,412.60288 C352.58436,413.425302 352.257955,414.214235 351.676415,414.795775 C351.094875,415.377315 350.305942,415.70372 349.48352,415.70304 L324.68224,415.70304 C322.970069,415.70304 321.58208,414.315051 321.58208,412.60288 C321.58208,410.890709 322.970069,409.50272 324.68224,409.50272 L349.48352,409.50272 C350.305942,409.50204 351.094875,409.828445 351.676415,410.409985 C352.257955,410.991525 352.58436,411.780458 352.58368,412.60288 Z M612.99968,412.60288 C613.00036,413.425302 612.673955,414.214235 612.092415,414.795775 C611.510875,415.377315 610.721942,415.70372 609.89952,415.70304 L603.6992,415.70304 C601.987029,415.70304 600.59904,414.315051 600.59904,412.60288 C600.59904,410.890709 601.987029,409.50272 603.6992,409.50272 L609.89952,409.50272 C611.6096,409.50272 612.99968,410.89024 612.99968,412.60288 Z M656.39936,412.60288 C656.40004,413.425302 656.073635,414.214235 655.492095,414.795775 C654.910555,415.377315 654.121622,415.70372 653.2992,415.70304 L628.49792,415.70304 C626.785749,415.70304 625.39776,414.315051 625.39776,412.60288 C625.39776,410.890709 626.785749,409.50272 628.49792,409.50272 L653.2992,409.50272 C654.121622,409.50204 654.910555,409.828445 655.492095,410.409985 C656.073635,410.991525 656.40004,411.780458 656.39936,412.60288 Z" id="Shape" fill="#228E6E"></path>
            <path d="M496.05632,54.12608 C496.05632,56.47616 489.83552,56.81664 482.1632,56.81664 L259.77088,58.16064 C252.09856,58.16064 259.86816,56.576 259.86816,54.22848 C259.86816,51.8784 266.08896,51.84256 273.76128,51.84256 L482.1632,51.84256 C489.83552,51.84 496.05632,51.776 496.05632,54.12608 Z" id="Shape" fill="#FFFFFF"></path>
            <path d="M471.04,284.1344 C471.04,298.4704 462.65088,294.88128 448.98304,294.88128 L445.94688,257.50016 L256.87552,253.632 L253.73184,70.26688 C253.73184,55.93088 264.76288,56.96 278.43072,56.96 L476.42368,56.96 C490.09152,56.96 501.76,55.65696 501.76,69.99296 L501.76,98.69056 L471.04,97.66144 L471.04,284.1344 Z" id="Shape" fill="#A8E1D0"></path>
            <path d="M105.18528,258.27072 C105.18528,267.809959 112.918361,275.54304 122.4576,275.54304 C131.996839,275.54304 139.72992,267.809959 139.72992,258.27072 C139.72992,248.731481 131.996839,240.9984 122.4576,240.9984 C112.918361,240.9984 105.18528,248.731481 105.18528,258.27072 Z" id="Shape" fill="#28B284"></path>
            <path d="M586.24768,48 C586.24768,56.8096929 593.389347,63.95136 602.19904,63.95136 C611.008733,63.95136 618.1504,56.8096929 618.1504,48 C618.1504,39.1903071 611.008733,32.04864 602.19904,32.04864 C593.389347,32.04864 586.24768,39.1903071 586.24768,48 Z" id="Shape" fill="#FFFFFF"></path>
            <path d="M665.6,78.72 C665.6,79.4269245 665.026924,80 664.32,80 L654.08,80 C653.373076,80 652.8,79.4269245 652.8,78.72 C652.8,78.0130755 653.373076,77.44 654.08,77.44 L664.32,77.44 C665.026924,77.44 665.6,78.0130755 665.6,78.72 Z M663.33696,81.9328 C663.830797,81.6412433 664.443146,81.6372677 664.940727,81.9223878 C665.438309,82.2075079 665.744504,82.7378205 665.742666,83.3112987 C665.740828,83.8847769 665.431239,84.4131156 664.93184,84.69504 L657.2288,89.14176 C656.734963,89.4333167 656.122614,89.4372923 655.625033,89.1521722 C655.127451,88.8670521 654.821256,88.3367395 654.823094,87.7632613 C654.824932,87.1897831 655.134521,86.6614444 655.63392,86.37952 L663.33696,81.9328 Z M666.1504,85.66528 C666.432324,85.1658811 666.960663,84.8562924 667.534141,84.8544542 C668.107619,84.852616 668.637932,85.1588113 668.923052,85.6563925 C669.208172,86.1539738 669.204197,86.7663227 668.91264,87.26016 L664.46592,94.9632 C664.183996,95.4625989 663.655657,95.7721876 663.082179,95.7740258 C662.508701,95.775864 661.978388,95.4696687 661.693268,94.9720875 C661.408148,94.4745062 661.412123,93.8621573 661.70368,93.36832 L666.1504,85.66528 Z M673.28,99.2 C673.28,99.9069245 672.706924,100.48 672,100.48 C671.293076,100.48 670.72,99.9069245 670.72,99.2 L670.72,88.96 C670.72,88.2530755 671.293076,87.68 672,87.68 C672.706924,87.68 673.28,88.2530755 673.28,88.96 L673.28,99.2 Z M675.09248,86.92224 C674.800923,86.4284027 674.796948,85.8160538 675.082068,85.3184725 C675.367188,84.8208913 675.897501,84.514696 676.470979,84.5165342 C677.044457,84.5183724 677.572796,84.8279611 677.85472,85.32736 L682.30144,93.0304 C682.592997,93.5242373 682.596972,94.1365862 682.311852,94.6341675 C682.026732,95.1317487 681.496419,95.437944 680.922941,95.4361058 C680.349463,95.4342676 679.821124,95.1246789 679.5392,94.62528 L675.09248,86.92224 Z M678.82496,84.1088 C678.325561,83.8268756 678.015972,83.2985369 678.014134,82.7250587 C678.012296,82.1515805 678.318491,81.6212679 678.816073,81.3361478 C679.313654,81.0510277 679.926003,81.0550033 680.41984,81.34656 L688.12288,85.79328 C688.622279,86.0752044 688.931868,86.6035431 688.933706,87.1770213 C688.935544,87.7504995 688.629349,88.2808121 688.131767,88.5659322 C687.634186,88.8510523 687.021837,88.8470767 686.528,88.55552 L678.82496,84.1088 Z M691.2,78.72 C691.2,79.4269245 690.626924,80 689.92,80 L679.68,80 C678.973076,80 678.4,79.4269245 678.4,78.72 C678.4,78.0130755 678.973076,77.44 679.68,77.44 L689.92,77.44 C690.626924,77.44 691.2,78.0130755 691.2,78.72 Z M680.08192,75.16672 C679.588083,75.4582767 678.975734,75.4622523 678.478153,75.1771322 C677.980571,74.8920121 677.674376,74.3616995 677.676214,73.7882213 C677.678052,73.2147431 677.987641,72.6864044 678.48704,72.40448 L686.19008,67.95776 C686.683917,67.6662033 687.296266,67.6622277 687.793847,67.9473478 C688.291429,68.2324679 688.597624,68.7627805 688.595786,69.3362587 C688.593948,69.9097369 688.284359,70.4380756 687.78496,70.72 L680.08192,75.16672 Z M677.26848,71.43424 C676.986556,71.9336389 676.458217,72.2432276 675.884739,72.2450658 C675.311261,72.246904 674.780948,71.9407087 674.495828,71.4431275 C674.210708,70.9455462 674.214683,70.3331973 674.50624,69.83936 L678.95296,62.13632 C679.234884,61.6369211 679.763223,61.3273324 680.336701,61.3254942 C680.910179,61.323656 681.440492,61.6298513 681.725612,62.1274325 C682.010732,62.6250138 682.006757,63.2373627 681.7152,63.7312 L677.26848,71.43424 Z M673.28,71.04 C673.28,71.7469245 672.706924,72.32 672,72.32 C671.293076,72.32 670.72,71.7469245 670.72,71.04 L670.72,60.8 C670.72,60.0930755 671.293076,59.52 672,59.52 C672.706924,59.52 673.28,60.0930755 673.28,60.8 L673.28,71.04 Z M668.3264,70.17728 C668.617957,70.6711173 668.621932,71.2834662 668.336812,71.7810475 C668.051692,72.2786287 667.521379,72.584824 666.947901,72.5829858 C666.374423,72.5811476 665.846084,72.2715589 665.56416,71.77216 L661.11744,64.06912 C660.825883,63.5752827 660.821908,62.9629338 661.107028,62.4653525 C661.392148,61.9677713 661.922461,61.661576 662.495939,61.6634142 C663.069417,61.6652524 663.597756,61.9748411 663.87968,62.47424 L668.3264,70.17728 Z M664.59392,72.99072 C665.093319,73.2726444 665.402908,73.8009831 665.404746,74.3744613 C665.406584,74.9479395 665.100389,75.4782521 664.602807,75.7633722 C664.105226,76.0484923 663.492877,76.0445167 662.99904,75.75296 L655.296,71.30624 C654.796601,71.0243156 654.487012,70.4959769 654.485174,69.9224987 C654.483336,69.3490205 654.789531,68.8187079 655.287113,68.5335878 C655.784694,68.2484677 656.397043,68.2524433 656.89088,68.544 L664.59392,72.99072 Z" id="Shape" fill="#228E6E"></path>
            <path d="M598.31296,100.48 L593.92,100.48 L593.92,95.39072 C593.92,94.36416 592.384,93.53472 591.36,93.53472 C590.336,93.53472 588.8,94.36672 588.8,95.39072 L588.8,100.48 L583.4624,100.48 C582.4384,100.48 581.6064,103.29344 581.6064,104.32 C581.6064,105.344 582.4384,108.16 583.4624,108.16 L588.8,108.16 L588.8,110.24128 C588.8,111.26528 590.336,112.09728 591.36,112.09728 C592.384,112.09728 593.92,111.26528 593.92,110.24128 L593.92,108.16 L598.31296,108.16 C599.33696,108.16 600.16896,105.344 600.16896,104.32 C600.16896,103.29344 599.33696,100.48 598.31296,100.48 Z M159.0144,310.4 L153.6,310.4 L153.6,305.75872 C153.6,304.73216 152.064,303.90272 151.04,303.90272 C150.016,303.90272 148.48,304.73472 148.48,305.75872 L148.48,310.4 L144.16384,310.4 C143.13984,310.4 142.30784,313.21344 142.30784,314.24 C142.30784,315.264 143.13984,318.08 144.16384,318.08 L148.48,318.08 L148.48,320.60928 C148.48,321.63328 150.016,322.46528 151.04,322.46528 C152.064,322.46528 153.6,321.63328 153.6,320.60928 L153.6,318.08 L159.0144,318.08 C160.0384,318.08 160.8704,315.264 160.8704,314.24 C160.8704,313.21344 160.0384,310.4 159.0144,310.4 Z" id="Shape" fill="#238463"></path>
            <path d="M394.69824,134.20288 C394.69824,137.941097 397.728663,140.97152 401.46688,140.97152 C405.205097,140.97152 408.23552,137.941097 408.23552,134.20288 C408.23552,130.464663 405.205097,127.43424 401.46688,127.43424 C397.728663,127.43424 394.69824,130.464663 394.69824,134.20288 Z" id="Shape" fill="#FFFFFF"></path>
            <path d="M310.78144,135.17056 C310.78144,138.908777 313.811863,141.9392 317.55008,141.9392 C321.288297,141.9392 324.31872,138.908777 324.31872,135.17056 C324.31872,131.432343 321.288297,128.40192 317.55008,128.40192 C313.811863,128.40192 310.78144,131.432343 310.78144,135.17056 Z" id="Shape" fill="#FFFFFF"></path>
            <path d="M319.02464,177.1648 C327.62368,189.4144 341.82912,197.45536 357.89824,197.45536 C374.30016,197.45536 388.78208,189.09696 397.31968,176.41984 C397.31968,176.41984 399.08352,175.76704 400.91904,176.54016 C402.55744,177.2288 402.69312,179.47392 402.69312,179.47392 C393.07776,194.01728 376.59904,203.64288 357.89824,203.64288 C339.648,203.64288 323.51744,194.4704 313.81248,180.51072 C313.81248,180.51072 314.38592,178.18368 314.97216,177.69984 C316.61568,176.3456 319.02464,177.1648 319.02464,177.1648 Z M401.66144,145.25696 C395.904,145.25696 391.2192,140.57472 391.2192,134.81472 C391.2192,129.05472 395.90144,124.37248 401.66144,124.37248 C407.41888,124.37248 412.10368,129.05472 412.10368,134.81472 C412.10368,140.57472 407.41888,145.25696 401.66144,145.25696 Z M401.66144,129.01632 C398.459412,129.020551 395.864711,131.615252 395.86048,134.81728 C395.86048,138.01728 398.464,140.61824 401.66144,140.61824 C404.85888,140.61824 407.4624,138.01728 407.4624,134.81728 C407.458169,131.615252 404.863468,129.020551 401.66144,129.01632 Z M317.7472,145.7408 C311.98245,145.735155 307.310605,141.06331 307.30496,135.29856 C307.310605,129.53381 311.98245,124.861965 317.7472,124.85632 C323.51195,124.861965 328.183795,129.53381 328.18944,135.29856 C328.182387,141.062726 323.511366,145.733747 317.7472,145.7408 Z M317.7472,129.4976 C314.545172,129.501831 311.950471,132.096532 311.94624,135.29856 C311.950471,138.500588 314.545172,141.095289 317.7472,141.09952 C320.949228,141.095289 323.543929,138.500588 323.54816,135.29856 C323.542524,132.097116 320.948644,129.503236 317.7472,129.4976 Z" id="Shape" fill="#228E6E"></path>
            <path d="M389.12,273.49248 C389.12,276.909753 386.349753,279.68 382.93248,279.68 L290.34752,279.68 C286.930247,279.68 284.16,276.909753 284.16,273.49248 L284.16,273.06752 C284.16,269.650247 286.930247,266.88 290.34752,266.88 L382.93248,266.88 C386.349753,266.88 389.12,269.650247 389.12,273.06752 L389.12,273.49248 Z M279.04,273.49248 C279.04,276.909753 276.269753,279.68 272.85248,279.68 L272.42752,279.68 C269.010247,279.68 266.24,276.909753 266.24,273.49248 L266.24,273.06752 C266.24,269.650247 269.010247,266.88 272.42752,266.88 L272.85248,266.88 C276.269753,266.88 279.04,269.650247 279.04,273.06752 L279.04,273.49248 Z" id="Shape" fill="#FFFFFF"></path>
            <path d="M483.53536,44.03712 L327.92832,44.03712 C327.92832,44.03712 326.67136,45.29152 326.67136,47.22688 C326.67136,49.7408 327.92832,50.22464 327.92832,50.22464 L483.53536,50.22464 C487.942227,50.231826 491.951534,52.7745077 493.8368,56.75776 C491.409761,55.2368384 488.603733,54.4295399 485.73952,54.42816 C477.58592,54.42816 470.9504,60.77696 470.3488,68.78464 L470.2336,68.78464 L470.2336,285.34016 L469.71648,285.34016 C469.0688,290.76992 464.49152,295.00672 458.8928,295.00672 C453.29408,295.00672 448.70912,290.76736 448.064,285.34016 L448.192,254.40256 L259.8656,254.40256 L259.8656,61.6704 C259.867014,55.3472534 264.993333,50.2220798 271.31648,50.22208 L290.8032,50.22208 C290.8032,50.22208 291.6736,49.64096 291.57632,47.22432 C291.50976,45.58336 290.8032,44.03456 290.8032,44.03456 L271.31648,44.03456 C261.575061,44.03456 253.67808,51.9315407 253.67808,61.67296 L253.67808,254.40512 L232.79616,254.40512 L233.01376,297.7152 C234.83904,307.75296 243.264,315.4304 253.61664,316.21632 L253.67808,316.27776 L458.78272,316.27776 C468.524139,316.27776 476.42112,308.380779 476.42112,298.63936 L476.42112,99.72224 L501.1712,99.72224 L501.1712,61.67296 C501.1712,51.9329545 493.275365,44.03712 483.53536,44.03712 Z M470.23616,298.64448 C470.234746,304.967627 465.108427,310.0928 458.78528,310.0928 L253.68064,310.0928 L253.68064,310.04928 C246.792981,309.35043 241.073504,304.427284 239.35744,297.72032 L239.37024,260.50048 L443.01824,260.5952 L442.43456,285.34528 C443.10784,294.18752 450.16064,301.19936 459.1744,301.19936 C463.54688,301.19936 467.2256,299.52512 470.23872,296.81408 L470.23872,298.64448 L470.23616,298.64448 Z M494.98368,93.72672 L476.42112,93.65504 L476.42112,68.78464 L476.42624,68.78464 C476.99968,64.13312 480.93184,60.5056 485.73696,60.5056 C490.46784,60.5056 494.31296,64.03328 494.98112,68.57728 L494.98112,93.72672 L494.98368,93.72672 Z" id="Shape" fill="#228E6E"></path>
            <path d="M315.55328,44.03712 L296.99072,44.03712 C296.99072,44.03712 295.63648,45.68064 295.63648,47.42144 C295.63648,49.25952 296.99072,50.22464 296.99072,50.22464 L315.55328,50.22464 C315.55328,50.22464 316.71296,49.06496 316.52096,47.42144 C316.28288,45.4016 315.55328,44.03712 315.55328,44.03712 Z" id="Shape" fill="#228E6E"></path>
            <path d="M544.48384,124.08576 L486.4768,222.5024 L447.80544,203.93984 C447.80544,203.93984 436.97664,202.97216 432.14336,210.51392 C427.31008,218.05568 431.7568,226.94912 431.7568,226.94912 L482.8032,260.01152 C482.8032,260.01152 496.72448,261.94432 500.9792,255.7568 C505.23392,249.56928 568.84736,139.35872 568.84736,139.35872 C568.84736,139.35872 574.0672,124.0832 566.528,120.2176 C558.9888,116.352 544.48384,124.08576 544.48384,124.08576 Z" id="Shape" fill="#FFFFFF"></path>
            <path d="M491.3536,264.13056 C486.03136,264.13056 481.9328,261.06368 481.48736,260.71296 L431.64928,230.24384 C428.25984,226.69824 423.50336,217.3824 429.7216,207.50848 C433.72288,201.152 439.1168,199.81568 442.94144,199.81568 C447.38816,199.81568 450.82112,201.5872 451.2,201.78944 L484.9152,219.3664 L541.81632,122.89792 C542.208,122.32448 548.22656,113.99168 557.58592,113.99168 C560.46848,113.99168 563.33824,114.7904 566.11072,116.36224 C577.28256,122.69568 575.616,133.91616 573.17376,138.96448 C570.52672,143.49312 511.07072,244.93056 503.78496,256.44544 C499.7632,262.79424 494.8096,264.13056 491.3536,264.13056 Z M435.89632,225.71264 L484.98944,255.63136 C485.29664,255.83872 488.1024,257.94304 491.35104,257.94304 C494.15424,257.94304 496.512,256.36864 498.55232,253.13536 C505.792,241.71264 567.10144,137.11104 567.7184,136.05376 C568.0512,135.31904 571.79648,126.69696 563.06688,121.74848 C561.23136,120.70912 559.38816,120.1792 557.58592,120.1792 C551.45984,120.1792 547.04128,126.21056 546.99264,126.26944 L487.2576,227.56608 L448.30208,207.26016 C446.624785,206.45993 444.794519,206.03118 442.93632,206.0032 C439.59552,206.0032 436.98432,207.57504 434.94912,210.80576 C430.30784,218.19136 434.76736,224.34816 435.89632,225.71264 Z" id="Shape" fill="#228E6E"></path>
            <path d="M518.02112,197.68576 C517.586579,198.41276 516.646795,198.652851 515.9168,198.22336 L513.2416,196.63616 C512.5146,196.201619 512.274509,195.261835 512.704,194.53184 L540.78208,147.1616 C541.216621,146.4346 542.156405,146.194509 542.8864,146.624 L545.5616,148.2112 C546.2886,148.645741 546.528691,149.585525 546.0992,150.31552 L518.02112,197.68576 Z M551.10656,140.22144 C550.646739,140.932936 549.698849,141.139893 548.98432,140.6848 L546.36032,139.00288 C545.648824,138.543059 545.441867,137.595169 545.89696,136.88064 L547.52512,134.34368 C547.984941,133.632184 548.932831,133.425227 549.64736,133.88032 L552.27136,135.56224 C552.982856,136.022061 553.189813,136.969951 552.73472,137.68448 L551.10656,140.22144 Z" id="Shape" fill="#228E6E"></path>
        </g>
    </g>
</svg>