
<svg width="939px" height="935px" viewBox="0 0 939 935" version="1.1" xmlns="http://www.w3.org/2000/svg" xmlns:xlink="http://www.w3.org/1999/xlink">
    <!-- Generator: Sketch 49.3 (51167) - http://www.bohemiancoding.com/sketch -->
    <desc>Created with Sketch.</desc>
    <defs></defs>
    <g id="Page-1" stroke="none" stroke-width="1" fill="none" fill-rule="evenodd">
        <g id="header-img">
            <polygon id="Rectangle" fill="#E2E3E5" points="0 0 939 0 939 935 0 935"></polygon>
            <path d="M470.159734,933 C596.511709,933 711.294652,882.39281 795,800.468168 C787.854422,773.008661 779.801468,749.974448 770.727717,738.514075 C734.432715,693.126462 569.630723,671 569.630723,671 L470.159734,697.778692 L370.915589,671.113469 C370.915589,671.113469 207.020972,692.672585 170.72597,738.060199 C161.538798,749.63404 153.259001,773.122131 146,801.148982 C229.705348,882.733217 344.034604,933 470.159734,933 Z" id="Shape" fill="#D0D4D7" fill-rule="nonzero"></path>
            <path d="M259.286941,417.624293 C256.788958,391.515453 270.868497,368.244531 291.079449,365.406613 C311.290401,362.568695 329.684637,381.525984 332.523254,407.74834 C335.021237,433.85718 320.941698,457.128102 300.730745,459.96602 C280.406249,462.803938 261.898468,443.733132 259.286941,417.624293 Z M391.566484,572.915132 L391.566484,708 L548.031041,708 L548.031041,572.915132 L391.566484,572.915132 Z M638.866779,459.96602 C618.655827,457.695686 605.030466,434.765314 608.550351,408.542958 C611.956692,382.434118 631.032196,362.909246 651.129604,365.17958 C671.340556,367.449913 684.965916,390.380286 681.446031,416.602643 C677.926147,442.825 658.964186,462.122838 638.866779,459.96602 Z" id="Shape" fill="#FFD9AC" fill-rule="nonzero"></path>
            <path d="M470.009462,198 C470.009462,198 304,205.035936 304,294.006485 L304,474.444205 C304,509.39692 360.431885,609.034856 411.084602,613.233721 C436.580936,615.276412 469.782828,618.000001 469.782828,618 C469.782828,617.999999 503.211354,615.162929 528.481054,613.233721 C579.13377,608.921373 634.999069,509.39692 634.99907,474.444205 L634.99907,298.659282 C635.452339,210.142664 470.009462,198 470.009462,198" id="Shape" fill="#FEE1B9" fill-rule="nonzero"></path>
            <path d="M572.005468,222.625777 C525.371155,201.971899 470.113465,198 470.113465,198 L469.886534,198 C462.624743,198.340448 304,207.078627 304,294.006485 L304,474.444204 C304,509.396919 360.50581,609.034855 411.224881,613.23372 C436.754614,615.276411 470,618 470,618 C470,618 503.472317,615.162929 528.775119,613.23372 C579.49419,608.921372 636,509.396919 636,474.444204 L636,298.772765 C635.773069,261.43691 606.158579,237.605513 572.005468,222.625777" id="Shape" fill="#FEE1B9" fill-rule="nonzero"></path>
            <path d="M368,667 L455.480315,932.773231 C460.138357,933 464.7964,933 469.454443,933 C473.771654,933 478.202475,932.886616 482.519685,932.773231 L570,667 L468.999999,687.635975 L368,667 Z" id="Shape" fill="#D0D4D7" fill-rule="nonzero"></path>
            <polygon id="Shape" fill="#436B85" fill-rule="nonzero" points="481.737892 745.659491 504.757835 722.731898 470.000001 688 435.584046 722.731898 458.603989 745.659491 430 880.16047 470.000001 920 510 880.16047"></polygon>
            <polygon id="Shape" fill="#FFFFFF" fill-rule="nonzero" points="470 687.968461 551.170955 647 593 671.671615 524.943014 769"></polygon>
            <polygon id="Shape" fill="#FFFFFF" fill-rule="nonzero" points="470 688.081633 388.867525 647 347 671.671614 429.26403 769"></polygon>
            <path d="M643.935967,401 L628.038689,401 L606.804467,252.95501 C606.804467,252.95501 655.064063,233.951541 665.056637,292.327467 C674.935659,350.362013 643.935966,401 643.935967,401 M288.064033,401 L303.961311,401 L325.195533,252.95501 C325.195533,252.95501 276.935937,233.951541 266.943363,292.327467 C257.064341,350.362013 288.064034,401 288.064033,401" id="Shape" fill="#61402F" fill-rule="nonzero"></path>
            <path d="M306.398544,268.423454 C306.398544,268.423454 373.926019,320.999999 467.556552,321 C561.187085,321.000001 649.710498,292.043155 690,213.121559 C687.730169,213.689339 618.159845,201.198152 531.111823,134.767744 C421.478981,50.8496727 215.945776,175.19377 306.398544,268.423454" id="Shape" fill="#61402F" fill-rule="nonzero"></path>
        </g>
    </g>
</svg>