
<svg width="1037px" height="1037px" viewBox="0 0 1037 1037" version="1.1" xmlns="http://www.w3.org/2000/svg" xmlns:xlink="http://www.w3.org/1999/xlink">
    <!-- Generator: Sketch 49.3 (51167) - http://www.bohemiancoding.com/sketch -->
    <desc>Created with Sketch.</desc>
    <defs>
        <linearGradient x1="50%" y1="0%" x2="50%" y2="100%" id="linearGradient-1">
            <stop stop-color="#0CA4FF" offset="0%"></stop>
            <stop stop-color="#55A2EB" offset="100%"></stop>
        </linearGradient>
        <circle id="path-2" cx="518.5" cy="518.5" r="478.5"></circle>
    </defs>
    <g id="Page-1" stroke="none" stroke-width="1" fill="none" fill-rule="evenodd">
        <g id="Oval-Copy-2">
            <use fill="url(#linearGradient-1)" fill-rule="evenodd" xlink:href="#path-2"></use>
            <circle stroke-opacity="0.0726052989" stroke="#28A4F8" stroke-width="40" cx="518.5" cy="518.5" r="498.5"></circle>
        </g>
        <g id="微信" transform="translate(276.000000, 310.000000)" fill="#FFFFFF" fill-rule="nonzero">
            <path d="M337.314707,121.808089 L352.931129,121.808089 C340.437992,53.0958335 262.355883,0 178.027207,0 C81.2053925,0 0,65.5889711 0,146.794364 C0,193.643628 24.9862748,234.246325 71.8355397,262.355883 L53.0958335,315.451717 L115.56152,284.218874 C137.424511,287.342158 156.164216,293.588727 178.027207,293.588727 L193.643628,293.588727 C190.520344,284.218874 187.39706,271.725736 187.39706,259.232599 C187.39706,181.150491 252.986031,121.808089 337.314707,121.808089 Z M243.616178,74.9588239 C256.109315,74.9588239 265.479168,84.3286768 265.479168,96.821814 C265.479168,109.314951 256.109315,118.684805 243.616178,118.684805 C231.12304,118.684805 215.506619,109.314952 215.506619,96.821814 C215.506619,81.2053925 231.12304,74.9588236 243.616178,74.9588239 Z M118.684805,115.56152 C106.191667,115.56152 93.6985297,109.314952 93.6985297,96.821814 C93.6985297,84.3286768 106.191667,74.9588236 121.808089,74.9588239 C134.301226,74.9588239 143.671079,84.3286768 143.671079,96.821814 C140.547795,109.314951 131.177942,115.56152 118.684805,115.56152 Z M499.725492,256.109315 C499.725492,187.397059 427.889953,131.177942 349.807845,131.177942 C265.479168,131.177942 199.890197,187.397059 199.890197,256.109315 C199.890197,324.82157 265.479168,381.040688 349.807845,381.040688 C368.547551,381.040688 384.163973,377.917404 402.903678,371.670835 L452.876228,396.65711 L437.259806,356.054414 C474.739218,331.068139 499.725493,293.588727 499.725492,256.109315 Z M299.835295,234.246325 C290.465443,234.246325 281.09559,224.876472 281.09559,215.506619 C281.09559,206.136765 290.465443,196.766913 299.835295,196.766913 C312.328433,196.766913 321.698286,206.136766 321.698286,215.506619 C321.698286,224.876471 315.451717,234.246324 299.835295,234.246325 Z M396.65711,234.246325 C387.287257,234.246325 377.917404,224.876472 377.917404,215.506619 C377.917403,206.136765 387.287257,196.766913 396.65711,196.766913 C409.150247,196.766913 418.5201,206.136766 418.5201,215.506619 C421.643384,224.876471 412.273531,234.246324 396.65711,234.246325 Z" id="Shape"></path>
        </g>
    </g>
</svg>