
<svg width="1037px" height="1037px" viewBox="0 0 1037 1037" version="1.1" xmlns="http://www.w3.org/2000/svg" xmlns:xlink="http://www.w3.org/1999/xlink">
    <!-- Generator: Sketch 49.3 (51167) - http://www.bohemiancoding.com/sketch -->
    <desc>Created with Sketch.</desc>
    <defs>
        <linearGradient x1="50%" y1="0%" x2="50%" y2="100%" id="linearGradient-1">
            <stop stop-color="#0CA4FF" offset="0%"></stop>
            <stop stop-color="#55A2EB" offset="100%"></stop>
        </linearGradient>
        <circle id="path-2" cx="518.5" cy="518.5" r="478.5"></circle>
    </defs>
    <g id="Page-1" stroke="none" stroke-width="1" fill="none" fill-rule="evenodd">
        <g id="Oval-Copy">
            <use fill="url(#linearGradient-1)" fill-rule="evenodd" xlink:href="#path-2"></use>
            <circle stroke-opacity="0.0726052989" stroke="#28A4F8" stroke-width="40" cx="518.5" cy="518.5" r="498.5"></circle>
        </g>
        <g id="手机-(1)" transform="translate(363.000000, 250.000000)" fill="#FFFFFF" fill-rule="nonzero">
            <path d="M339.087282,384.452547 L339.087282,43.4761134 C339.087282,19.4643649 322.051927,0 301.037382,0 L38.1065546,0 C17.0912967,0 0.0559422021,19.4651789 0.0559426465,43.4761134 L0.0559426465,384.452547 L339.087282,384.452547 Z M0.0559426465,404.316619 L0.0559426465,476.527703 C0.0559426465,500.539451 17.0912971,520.00463 38.1065546,520.00463 L301.037382,520.00463 C322.051928,520.00463 339.087282,500.539451 339.087282,476.527703 L339.087282,404.316619 L0.0559426465,404.316619 Z M169.573037,497.796026 C152.346026,497.796026 138.378603,483.5759 138.378603,466.033632 C138.378603,448.489914 152.346026,434.271238 169.573037,434.271238 C186.800049,434.271238 200.765334,448.490639 200.765334,466.033632 C200.765334,483.5759 186.800048,497.796026 169.573037,497.796026 Z" id="Shape"></path>
        </g>
    </g>
</svg>