
<svg width="1037px" height="1037px" viewBox="0 0 1037 1037" version="1.1" xmlns="http://www.w3.org/2000/svg" xmlns:xlink="http://www.w3.org/1999/xlink">
    <!-- Generator: Sketch 49.3 (51167) - http://www.bohemiancoding.com/sketch -->
    <desc>Created with Sketch.</desc>
    <defs>
        <linearGradient x1="50%" y1="0%" x2="50%" y2="100%" id="linearGradient-1">
            <stop stop-color="#0CA4FF" offset="0%"></stop>
            <stop stop-color="#55A2EB" offset="100%"></stop>
        </linearGradient>
        <circle id="path-2" cx="518.5" cy="518.5" r="478.5"></circle>
    </defs>
    <g id="Page-1" stroke="none" stroke-width="1" fill="none" fill-rule="evenodd">
        <g id="Oval">
            <use fill="url(#linearGradient-1)" fill-rule="evenodd" xlink:href="#path-2"></use>
            <circle stroke-opacity="0.0726052989" stroke="#28A4F8" stroke-width="40" cx="518.5" cy="518.5" r="498.5"></circle>
        </g>
        <g id="实名认证-(1)" transform="translate(284.000000, 237.000000)" fill="#FFFFFF" fill-rule="nonzero">
            <path d="M350.201784,248.184504 C373.826644,223.016165 387.544036,188.088629 387.544036,151.255295 C387.544036,67.9074693 318.706243,0.022296544 234.085842,0.022296544 C149.49777,0.022296544 80.6259755,67.9074693 80.6259755,151.255295 C80.6259755,207.464326 112.125418,255.973802 157.401338,281.168896 C74.7513935,308.301561 11.8506132,392.666667 0.00668896321,481.831661 L312.299331,481.831661 C288.67447,456.636566 267.519509,411.021739 267.519509,374.216834 C267.520067,318.007804 301.017837,269.526756 350.201784,248.184504 Z M401.353958,273.406355 C346.232999,273.406355 302.986622,318.007804 302.986622,372.245262 C302.986622,426.516722 348.201784,471.115942 401.353958,471.115942 C456.412486,471.115942 499.658863,426.516722 499.658863,372.245262 C499.658863,317.945373 456.381828,273.406355 401.353958,273.406355 Z M401.353958,424.635452 L391.542921,436.277592 L340.390747,381.977703 L358.074693,364.579153 L389.510033,397.529543 L450.539019,321.915831 L470.193423,337.412486 L401.353958,424.635452 Z" id="Shape"></path>
        </g>
    </g>
</svg>