
<svg width="200px" height="200px" viewBox="0 0 200 200" version="1.1" xmlns="http://www.w3.org/2000/svg" xmlns:xlink="http://www.w3.org/1999/xlink">
    <!-- Generator: Sketch 49.3 (51167) - http://www.bohemiancoding.com/sketch -->
    <desc>Created with Sketch.</desc>
    <defs></defs>
    <g id="Page-1" stroke="none" stroke-width="1" fill="none" fill-rule="evenodd">
        <g id="lan" fill-rule="nonzero">
            <path d="M100,200 C73.1,200 48.1,189.4 29.4,170.6 C10.7,151.8 0,126.9 0,100 C0,73.1 10.6,48.8 29.4,30 C48.2,11.2 73.2,0.6 100,0.6 C126.8,0.6 151.9,11.2 170.6,30 C189.3,48.8 200,73.8 200,100.6 C200,127.4 189.4,152.5 170.6,171.2 C151.8,189.9 126.9,200 100,200 Z" id="Shape" fill="#788DB4"></path>
            <path d="M168.8,160 C183.2,143.8 191.3,122.5 191.3,100.6 C191.3,76.2 181.9,53.7 164.4,36.2 C147.5,19.3 125,10 101.3,10 L98.8,10 C75,10.6 52.6,20 36.3,36.2 C19.4,53.1 10.1,75.6 9.4,99.3 L9.4,101.2 C9.4,125 18.8,147.4 35.6,164.3 C52.4,181.2 75.6,191.2 100,191.2 C124.4,191.2 146.9,181.8 164.4,164.3 L168.2,160.5 L168.8,160 C168.1,160.6 168.1,160 168.8,160 Z" id="Shape" fill="#FFFFFF"></path>
            <path d="M17.5,104.4 L55.6,104.4 C55.6,117.5 57.5,130 60,141.3 C47.5,144.4 39.4,148.8 35.6,151.9 C25,138.8 18.8,122.5 17.5,104.4 Z M35.6,48.8 C40,51.9 48.1,56.3 60.6,59.4 C58.1,70.6 56.2,82.5 56.2,95.6 L18.1,95.6 C18.8,78.1 25.6,61.9 35.6,48.8 Z M182.5,96.2 L144.4,96.2 C144.4,83.1 142.5,70.6 140,60 C152.5,56.9 160.6,51.9 165,49.4 C175,61.9 181.2,78.1 182.5,96.2 Z M136.2,96.2 L104.3,96.2 L104.3,64.3 C114.9,64.3 124.3,63.1 131.8,61.2 C134.4,71.9 135.6,83.8 136.2,96.2 Z M104.4,56.2 L104.4,18.7 C111.9,20.6 119.4,28.7 125,41.2 C126.9,45 128.1,49.3 130,53.7 C122.5,55 113.8,55.6 104.4,56.2 Z M95.6,18.8 L95.6,56.3 C86.2,56.3 77.5,55.1 70.6,53.8 C71.8,49.4 73.7,45 75.6,41.3 C81.2,28.8 88.1,20.6 95.6,18.8 Z M95.6,64.4 L95.6,96.3 L63.7,96.3 C63.7,83.8 65.6,72.5 68.1,61.9 C76.2,63.1 85,64.4 95.6,64.4 Z M64.4,104.4 L96.3,104.4 L96.3,136.9 C85.7,136.9 76.9,138.1 68.8,140 C66.2,128.8 64.4,116.9 64.4,104.4 Z M95.6,145 L95.6,181.9 C88.1,179.4 81.2,171.9 75.6,159.4 C73.7,155.6 72.5,151.3 70.6,146.9 C78.1,146.2 86.2,145 95.6,145 Z M104.4,182.5 L104.4,145 C114.4,145 122.5,146.2 129.4,147.5 C128.2,151.9 126.3,156.3 124.4,160 C118.8,172.5 111.9,180 104.4,182.5 Z M104.4,136.9 L104.4,104.4 L136.3,104.4 C136.3,116.9 134.4,128.8 131.9,139.4 C123.8,138.1 115,136.9 104.4,136.9 Z M144.4,104.4 L182.5,104.4 C181.9,122.5 175,138.8 164.4,151.9 C160,149.4 152.5,145 140,141.3 C142.5,130 143.8,117.5 144.4,104.4 Z M158.8,42.5 C155,45 148.2,48.7 137.6,51.3 C133.8,38.2 128.2,28.2 122,20.7 C136.2,25 148.8,32.5 158.8,42.5 Z M78.8,20.6 C72.6,28.1 66.9,38.7 63.2,51.2 C52.6,48.1 45.7,45 42,42.4 C51.2,32.5 64.4,25 78.8,20.6 Z M41.2,158.1 C45,155.6 51.8,151.9 62.4,149.3 C66.2,161.8 71.8,172.4 78,179.9 C64.4,176.2 51.2,168.8 41.2,158.1 Z M121.9,180 C128.1,172.5 133.8,162.5 137.5,149.4 C148.1,152.5 155,155.6 158.7,158.2 C148.8,168.8 136.2,176.2 121.9,180 Z" id="Shape" fill="#788DB4"></path>
        </g>
    </g>
</svg>