
<svg width="359px" height="77px" viewBox="0 0 359 77" version="1.1" xmlns="http://www.w3.org/2000/svg" xmlns:xlink="http://www.w3.org/1999/xlink">
    <!-- Generator: Sketch 49.3 (51167) - http://www.bohemiancoding.com/sketch -->
    <desc>Created with Sketch.</desc>
    <defs></defs>
    <g id="Page-1" stroke="none" stroke-width="1" fill="none" fill-rule="evenodd">
        <g id="Artboard" transform="translate(-134.000000, -77.000000)" fill="#1e88e5">
            <g id="Page-1" transform="translate(134.000000, 77.000000)">
                <path d="M51.1054,75.4876 L51.1054,64.1316 L61.9574,64.1316 L61.9574,12.2456 L0.1854,12.2456 L0.1854,11.4446 C0.1854,6.1676 4.4634,1.8896 9.7404,1.8896 L65.7584,1.8896 C71.0354,1.8896 73.3134,6.1676 73.3134,11.4446 L73.3134,65.9326 C73.3134,71.2096 71.0354,75.4876 65.7584,75.4876 L51.1054,75.4876 Z" id="Fill-1"></path>
                <path d="M13.5418,56.8355 L2.1858,56.8355 L2.1858,65.9325 C2.1858,71.2095 4.4638,75.4875 9.7408,75.4875 L56.0308,75.4875 L56.0308,64.1315 L13.5418,64.1315 L13.5418,56.8355 Z" id="Fill-3"></path>
                <path d="M42.6712,38.4449 L54.0272,38.4449 L54.0272,29.3659 C54.0272,24.0889 51.7492,19.8109 46.4722,19.8109 L2.1862,19.8109 L2.1862,31.1669 L42.6712,31.1669 L42.6712,38.4449 Z" id="Fill-5"></path>
                <polygon id="Fill-7" points="29.7241 39.4449 14.7071 39.4449 2.1861 56.8359 7.8381 70.1919"></polygon>
                <polygon id="Fill-9" points="54.0273 38.4449 44.3413 31.3499 26.8113 55.8359 41.5063 55.8359"></polygon>
                <polygon id="Fill-11" points="171.35 47.814 179.667 47.814 179.667 23.281 171.35 23.281"></polygon>
                <path d="M194.929,32.307 L207.208,32.307 L207.208,27.42 L194.929,27.42 L194.929,32.307 Z M194.929,41.577 L207.208,41.577 L207.208,36.622 L194.929,36.622 L194.929,41.577 Z M186.612,45.891 L215.525,45.891 L215.525,23.106 L186.612,23.106 L186.612,45.891 Z" id="Fill-13"></path>
                <polygon id="Fill-14" points="172.2395 20.1139 169.0805 14.5419 177.3745 14.5419 180.5275 20.1139"></polygon>
                <polygon id="Fill-15" points="218.3126 11.4145 214.1686 6.8815 210.1116 6.8815 208.8296 11.4145 200.2666 11.4145 203.0796 1.3495 211.6426 1.3495 211.3046 2.5665 230.9616 2.5665 230.9616 6.8815 222.5096 6.8815 227.6966 11.4145"></polygon>
                <polygon id="Fill-16" points="188.0872 11.4145 183.9432 6.8815 179.7642 6.8815 178.4782 11.4145 169.9552 11.4145 172.7742 1.3495 181.2962 1.3495 180.9582 2.5665 199.6262 2.5665 199.6262 6.8815 192.3512 6.8815 196.4962 11.4145"></polygon>
                <polygon id="Fill-17" points="161.2032 40.8862 161.2032 34.0672 121.5652 34.0672 121.5652 38.1782 150.7992 38.1782 150.7992 43.2282 111.8132 43.2282 111.8132 30.1272 161.2032 30.1272 161.2032 25.9482 103.4962 25.9482 103.4962 47.3402 154.7492 47.3402"></polygon>
                <path d="M146.116,18.37 L155.254,18.37 L155.254,7.084 L146.116,7.084 L146.116,18.37 Z M157.693,2.702 L138.639,2.702 L138.639,22.685 L163.571,22.685 L163.571,8.58 L157.693,2.702 Z" id="Fill-18"></path>
                <polygon id="Fill-19" points="258.1337 20.6933 263.4367 20.6933 263.4367 13.6573 272.3127 13.6573 272.3127 11.4393 263.4367 11.4393 263.4367 9.8163 258.1337 9.8163 258.1337 11.4393 249.2857 11.4393 249.2857 13.6573 258.1337 13.6573"></polygon>
                <polygon id="Fill-20" points="298.6705 3.04 275.4645 3.04 273.3785 0.348 263.0415 0.348 265.1285 3.04 242.1575 3.04 237.8155 47.949 243.8635 47.949 247.8545 7.001 298.6705 7.001"></polygon>
                <polygon id="Fill-21" points="280.5363 20.6933 283.3893 15.3353 279.5083 15.3353 276.6553 20.6933"></polygon>
                <polygon id="Fill-22" points="298.6705 11.4397 289.1175 11.4397 289.1175 9.8157 283.8155 9.8157 283.8155 11.4397 275.3055 11.4397 275.3055 13.6567 283.8155 13.6567 283.8155 20.6937 289.1175 20.6937 289.1175 13.6567 298.6705 13.6567"></polygon>
                <polygon id="Fill-23" points="293.5153 20.6933 297.1973 20.6933 293.3483 15.3353 289.6673 15.3353"></polygon>
                <polygon id="Fill-24" points="254.7876 20.6933 257.6406 15.3353 253.7596 15.3353 250.9056 20.6933"></polygon>
                <polygon id="Fill-25" points="279.7269 45.3402 279.7269 40.6582 273.4109 40.6582 273.4109 47.9492 299.2799 47.9492 299.2799 45.3402"></polygon>
                <polygon id="Fill-26" points="289.9569 44.6625 292.1239 39.0055 286.7359 39.0055 284.5179 44.6625"></polygon>
                <polygon id="Fill-27" points="293.4485 40.7649 294.7505 44.6629 298.4595 44.6629 297.1425 40.7649"></polygon>
                <path d="M258.145,30.9742291 L270.192,30.9742291 L270.192,26.7091216 L258.145,26.7091216 L258.145,30.9742291 Z M258.145,36.7339088 L270.192,36.7339088 L270.192,33.2415174 L258.145,33.2415174 L258.145,36.7339088 Z M277.9,36.7339088 L289.947,36.7339088 L289.947,33.2415174 L277.9,33.2415174 L277.9,36.7339088 Z M277.9,30.9742291 L289.947,30.9742291 L289.947,26.7091216 L277.9,26.7091216 L277.9,30.9742291 Z M277.092,38.2900484 L298.265,38.2900484 L298.265,25.0325239 L278.393,25.0325239 L279.205,23.463 L271.203,23.463 L270.391,25.0325239 L249.827,25.0325239 L249.827,38.2900484 L265.931,38.2900484 L249.731,47.949 L261.238,47.949 L277.092,38.2900484 Z" id="Fill-28"></path>
                <polygon id="Fill-29" points="264.0534 15.3353 267.9014 20.6933 271.6394 20.6933 267.7434 15.3353"></polygon>
                <polygon id="Fill-30" points="230.9407 15.0835 186.9107 15.0835 186.9107 19.3975 223.6067 19.3975 223.6067 41.3865 218.2837 47.8135 226.9137 47.8135 230.9657 42.5055 230.9657 19.0665"></polygon>
                <polygon id="Fill-31" points="358.1248 17.8401 322.3098 17.8401 323.3128 10.9661 358.2458 10.9661 358.2458 5.6501 341.4248 5.6501 337.2518 1.2811 328.9338 1.2811 333.1068 5.6501 306.1798 5.6501 306.1798 10.9661 316.0138 10.9661 310.8038 47.8821 318.1028 47.8821 321.6798 24.1551 350.4978 24.1551 350.4978 42.4111 345.0938 47.8821 354.011719 47.8821 358.1248 43.0014648"></polygon>
                <polygon id="Fill-32" points="135.6725 11.1986 123.7995 11.1986 123.7995 7.0166 134.3195 7.0166 134.3195 2.9726 111.1755 2.9726 112.4885 1.3496 104.4275 1.3496 102.3955 7.0846 115.4665 7.0166 115.4665 11.1986 101.8335 11.1986 101.8335 15.1756 112.5605 15.1756 101.8335 22.6846 111.6605 22.6846 118.7535 17.3676 125.8445 22.6846 135.6725 22.6846 125.9885 15.1756 135.6725 15.1756"></polygon>
                <polygon id="Fill-33" points="106.7882 75.8958 101.8332 75.8958 104.8422 56.8308 109.7972 56.8308"></polygon>
                <path d="M123.1988,71.6954 L124.3128,71.6954 C127.2678,71.6954 130.0498,70.0774 130.6588,66.3584 C131.1908,62.9494 129.2398,61.0304 126.0538,61.0304 L124.8948,61.0304 L123.1988,71.6954 Z M120.5938,56.8304 L127.6218,56.8304 C132.9318,56.8304 136.6498,61.0034 135.8178,66.3584 C134.9548,71.7224 129.8998,75.8954 124.6128,75.8954 L117.5848,75.8954 L120.5938,56.8304 Z" id="Fill-34"></path>
                <path d="M156.7638,63.231 C155.9778,61.858 154.4368,61.131 152.7408,61.131 C149.7088,61.131 147.3038,63.458 146.8268,66.413 C146.3678,69.422 148.0908,71.595 151.1728,71.595 C152.7908,71.595 154.5368,70.814 155.7778,69.577 L154.8138,75.514 C153.0958,76.023 151.8588,76.405 150.3128,76.405 C147.6588,76.405 145.2808,75.387 143.5898,73.596 C141.7938,71.695 141.2348,69.222 141.6898,66.386 C142.0948,63.786 143.4858,61.276 145.5858,59.413 C147.7588,57.485 150.6678,56.321 153.3498,56.321 C154.9408,56.321 156.3318,56.676 157.7228,57.285 L156.7638,63.231 Z" id="Fill-35"></path>
                <path d="M178.0826,61.74 C177.2736,60.976 176.2096,60.467 174.9956,60.467 C174.0866,60.467 172.7726,61.004 172.6186,62.067 C172.4416,63.177 173.7096,63.604 174.5186,63.886 L175.7326,64.268 C178.2596,65.049 180.1056,66.386 179.6006,69.477 C179.2966,71.368 178.5376,73.314 176.8186,74.605 C175.1236,75.869 173.0506,76.405 171.1276,76.405 C168.7276,76.405 168.5006,75.596 166.7596,74.223 L167.5136,70.232 C168.5996,71.323 169.9136,72.205 171.6096,72.205 C172.7726,72.205 174.1136,71.623 174.3146,70.286 C174.5416,68.895 172.6726,68.413 171.6596,68.104 C168.6776,67.222 166.7546,66.413 167.3586,62.722 C167.9676,58.849 171.1276,56.321 174.9456,56.321 C176.8686,56.321 179.1186,56.93 180.6606,57.894 L178.0826,61.74 Z" id="Fill-36"></path>
                <path d="M192.7842,64.5402 L192.8342,64.5402 C194.1482,63.1042 195.5892,62.4942 197.2622,62.4942 C199.1302,62.4942 200.6212,63.2492 201.2802,64.9762 C202.4442,63.3582 204.3172,62.4942 206.0852,62.4942 C209.3722,62.4942 210.1542,64.6402 209.6992,67.6312 L208.3852,75.8962 L203.7852,75.8962 L204.7712,69.7042 C204.9712,68.3592 205.3762,66.1582 203.4302,66.1582 C201.3072,66.1582 200.9032,68.1592 200.6762,69.7042 L199.6892,75.8962 L195.0842,75.8962 L196.0712,69.7042 C196.2982,68.2592 196.6532,66.0582 194.6072,66.0582 C192.5572,66.0582 192.2022,68.2592 191.9752,69.7042 L190.9882,75.8962 L186.3882,75.8962 L188.4342,62.9222 L193.0392,62.9222 L192.7842,64.5402 Z" id="Fill-37"></path>
                <path d="M220.7778,69.4225 C220.5008,71.0685 221.3828,72.3315 223.2558,72.3315 C225.1278,72.3315 226.4148,71.0685 226.6918,69.4225 C226.9468,67.8315 226.0598,66.4855 224.1918,66.4855 C222.3188,66.4855 221.0278,67.8315 220.7778,69.4225 Z M230.1058,75.8955 L225.5058,75.8955 L225.7328,74.4505 L225.6828,74.4505 C224.6688,75.7415 222.9778,76.3235 221.4598,76.3235 C217.6138,76.3235 215.4178,73.1135 216.0228,69.3955 C216.6048,65.6765 219.7638,62.4945 223.6098,62.4945 C225.1008,62.4945 226.5688,63.0495 227.3508,64.1855 L227.5558,62.9215 L232.1558,62.9215 L230.1058,75.8955 Z" id="Fill-38"></path>
                <path d="M246.0257,65.0493 L246.0757,65.0493 C247.2167,63.4583 248.8347,62.7493 250.6307,62.7493 L251.5127,62.7493 L250.8307,67.1673 C250.2487,66.8223 249.6437,66.7403 248.9347,66.7403 C246.3807,66.7403 245.4987,68.4403 245.1437,70.6593 L244.3077,75.8953 L239.7067,75.8953 L241.7527,62.9223 L246.3577,62.9223 L246.0257,65.0493 Z" id="Fill-39"></path>
                <polygon id="Fill-40" points="263.2 75.8958 258.595 75.8958 260.036 66.7128 258.545 66.7128 259.154 62.9218 260.645 62.9218 261.277 59.0308 265.878 59.0308 265.246 62.9218 267.85 62.9218 267.246 66.7128 264.641 66.7128"></polygon>
                <path d="M285.9971,73.441 C285.7421,75.059 284.2291,76.405 282.5831,76.405 C280.9421,76.405 279.8281,75.059 280.0781,73.441 C280.3601,71.795 281.8741,70.486 283.5201,70.486 C285.1611,70.486 286.2741,71.795 285.9971,73.441" id="Fill-41"></path>
                <path d="M306.8035,67.1495 C306.1945,66.6405 305.4625,66.2405 304.5765,66.2405 C302.8075,66.2405 301.1895,67.6045 300.9125,69.3955 C300.6075,71.2685 301.7435,72.5865 303.6445,72.5865 C304.4535,72.5865 305.3855,72.2495 306.0715,71.6955 L305.4625,75.5955 C304.3765,76.0955 303.2125,76.3235 302.0985,76.3235 C298.2575,76.3235 295.4975,73.4685 296.1295,69.5495 C296.7885,65.3765 300.4305,62.4945 304.5035,62.4945 C305.5625,62.4945 306.5765,62.7495 307.4085,63.2495 L306.8035,67.1495 Z" id="Fill-42"></path>
                <path d="M318.749,69.4225 C318.472,71.0685 319.358,72.3315 321.231,72.3315 C323.099,72.3315 324.39,71.0685 324.668,69.4225 C324.922,67.8315 324.036,66.4855 322.163,66.4855 C320.295,66.4855 319.004,67.8315 318.749,69.4225 M329.523,69.4225 C328.814,73.8225 324.768,76.3235 320.599,76.3235 C316.449,76.3235 313.189,73.8505 313.894,69.4225 C314.58,64.9945 318.626,62.4945 322.795,62.4945 C326.968,62.4945 330.205,64.9945 329.523,69.4225" id="Fill-43"></path>
                <path d="M341.4955,64.5402 L341.5455,64.5402 C342.8595,63.1042 344.3005,62.4942 345.9735,62.4942 C347.8415,62.4942 349.3325,63.2492 349.9915,64.9762 C351.1555,63.3582 353.0285,62.4942 354.7965,62.4942 C358.0835,62.4942 358.8655,64.6402 358.4105,67.6312 L357.0965,75.8962 L352.4965,75.8962 L353.4825,69.7042 C353.6825,68.3592 354.0875,66.1582 352.1415,66.1582 C350.0185,66.1582 349.6145,68.1592 349.3875,69.7042 L348.4005,75.8962 L343.7955,75.8962 L344.7825,69.7042 C345.0095,68.2592 345.3645,66.0582 343.3185,66.0582 C341.2685,66.0582 340.9135,68.2592 340.6865,69.7042 L339.6995,75.8962 L335.0995,75.8962 L337.1455,62.9222 L341.7505,62.9222 L341.4955,64.5402 Z" id="Fill-44"></path>
            </g>
        </g>
    </g>
</svg>