
<svg width="477px" height="165px" viewBox="0 0 477 165" version="1.1" xmlns="http://www.w3.org/2000/svg" xmlns:xlink="http://www.w3.org/1999/xlink">
    <!-- Generator: Sketch 49.3 (51167) - http://www.bohemiancoding.com/sketch -->
    <desc>Created with Sketch.</desc>
    <defs></defs>
    <g id="Page-1" stroke="none" stroke-width="1" fill="none" fill-rule="evenodd">
        <g id="payment-icon2" fill-rule="nonzero">
            <path d="M136,103.7 C159.7,111.7 165.3,112 165.3,112 L165.3,26.7 C165.3,12 153.3,0.4 139,0.4 L26.7,0.4 C12,0.4 0,12.1 0,26.7 L0,138.7 C0,153.4 12,165 26.3,165 L138.7,165 C153.4,165 165,153.3 165,138.7 L165,137.7 C165,137.7 122,119.7 100.3,109.4 C85.6,127.4 67,138.1 47.3,138.1 C28,138.1 14.3,126.8 12.6,115.1 C12.6,115.1 8.3,102.8 18.6,90.4 C21.9,86.4 27.9,82.4 36.9,80.1 C50.9,76.8 73.2,82.1 94.2,89.1 C97.9,82.1 101.2,74.4 103.5,66.4 L39,66.4 L39,59.7 L72.3,59.7 L72.3,48 L32.3,48 L32.3,41.3 L72.6,41.3 L72.6,24.6 C72.6,24.6 72.6,21.9 75.6,21.9 L92,21.9 L92,41.6 L132,41.6 L132,48.3 L92,48.3 L92,60 L124.7,60 C121.7,72.7 116.7,84.3 111,94.7 C120.7,98 129.3,101.3 136,103.7 Z" id="Shape" fill="#2D94B4"></path>
            <path d="M40,89.7 C36,90 28,92 24,95.7 C11.3,106.7 19,127 44.7,127 C59.7,127 74.7,117.3 86.4,102.3 C69.7,94 55.3,88.3 40,89.7 Z" id="Shape" fill="#1E95D4"></path>
            <path d="M47.7,138 C14.7,138 3.7,109.3 19,90.3 C22.3,86.3 28.3,82.3 37.3,80 C51.3,76.7 73.6,82 94.6,89 C98.3,82 101.6,74.3 103.9,66.3 L39.2,66.3 L39.2,59.6 L72.5,59.6 L72.5,48 L32.2,48 L32.2,41.3 L72.5,41.3 L72.5,24.6 C72.5,24.6 72.5,21.9 75.5,21.9 L92,21.9 L92,41.2 L132,41.2 L132,47.9 L92,47.9 L92,59.6 L124.7,59.6 C121.7,72.3 116.7,83.9 111,94.3 C121,98 129.7,101.3 136.3,103.3 C160,111.3 165.3,111.6 165.6,111.6 L165.6,26.6 C165.6,11.9 153.6,0.3 139.3,0.3 L26.3,0.3 C12,0.3 0,12 0,26.6 L0,138.6 C0,153.3 12,164.9 26.3,164.9 L138.7,164.9 C153.4,164.9 165,153.2 165,138.6 L165,137.6 C165,137.6 122,119.6 100.3,109.3 C86,127 67.3,138 47.7,138 Z" id="Shape" fill="#1E95D4"></path>
            <path d="M409,26 L457,26 L457,35.7 L474,35.7 L474,24.4 C474,21.7 472,19.7 469.7,19.7 L442,19.7 L442,10.7 L424,10.7 L424,19.7 L391.7,19.7 L391.7,36 L408.7,36 L408.7,26 L409,26 Z M305,11.7 L287.3,53.4 L301,53.4 L301,102.7 L315.7,102.7 L315.7,37 L310.4,37 L321.4,11.7 L305,11.7 Z M476.3,100.7 L471,82.4 C470.7,81.4 469.7,80.4 468.3,80.4 L454,80.4 L458,94.4 L441.3,94.4 L441.3,67.4 L474.3,67.4 L474.3,61 L441.3,61 L441.3,48.3 L474.3,48.3 L474.3,42 L392,42 L392,48.3 L425,48.3 L425,61 L392,61 L392,67.3 L425,67.3 L425,94.3 L392,94.3 L392,100.6 L476.3,100.7 Z M339.7,43.7 L327,43.7 L337,75 L352,75 L342.7,45.7 C342.3,44.7 341,43.7 339.7,43.7 Z" id="Shape" fill="#050101"></path>
            <path d="M375,12.3 L359.7,12.3 L359.7,28.3 L322,28.3 L322,34.6 L359.7,34.6 L359.7,92.3 C359.7,93.6 358.4,94.6 357.4,94.6 L349.7,94.6 L349.7,101.3 L369.7,101.3 C372.7,101.3 375.4,98.6 375.4,95.3 L375.4,34.6 L381.7,34.6 L381.7,28.3 L375.4,28.3 L375.4,12.3 L375,12.3 Z M260,48 C260,48 252,79.7 197,96 L197,104 C197,104 266.3,91 279.3,41.3 L260.6,44.3 L260,48 Z" id="Shape" fill="#050101"></path>
            <path d="M222.7,54.7 C222.7,54.7 236,78.7 285.4,96.7 L285.4,104 C285.4,104 229.7,93 207.7,54.7 L222.7,54.7 Z M276.3,48 L203,48 L203,41.7 L279.3,41.7 L276.3,48 Z M197.7,24.3 L284,24.3 L284,31 L197.7,31 L197.7,24.3 Z" id="Shape" fill="#050101"></path>
            <path d="M234.7,11 C233.1,11 231.7,12.3 231.7,14 L231.7,45.7 L250,45.7 L250,11 L234.7,11 Z M224,126 L229.3,142 L218.6,142 L224,126 Z M231,146.7 L233.7,154.4 L240.7,154.4 L226.7,116.4 L221.4,116.4 L207.4,154.4 L214.4,154.4 L217.1,146.7 L231,146.7 Z M263.3,116.3 L263.3,154.3 L286.3,154.3 L286.3,149.3 L270,149.3 L270,116.3 L263.3,116.3 Z M311.7,116.3 L318.7,116.3 L318.7,154.6 L311.7,154.6 L311.7,116.3 Z M360.7,134.3 L353.4,134.3 L353.4,121.3 L361.1,121.3 C364.8,121.3 367.1,124.6 367.1,128 C367,131 364.7,134.3 360.7,134.3 Z M361,116.3 L346,116.3 L346,154.3 L353,154.3 L353,139.6 L361,139.6 C368.3,139.6 373.7,134.9 373.7,127.9 C373.7,120.9 368.7,116.3 361,116.3 Z M407,126 L412.3,142 L401.6,142 L407,126 Z M414,146.7 L416.7,154.4 L423.7,154.4 L409.7,116.1 L404.4,116.1 L390.4,154.4 L397.4,154.4 L400.1,146.7 L414,146.7 Z M462,116.3 L454.7,132.3 L447,116.3 L439.7,116.3 L451,138.6 L451,154.3 L458,154.3 L458,138.6 L469.3,116.3 L462,116.3 Z" id="Shape" fill="#050101"></path>
        </g>
    </g>
</svg>