
<svg width="563px" height="139px" viewBox="0 0 563 139" version="1.1" xmlns="http://www.w3.org/2000/svg" xmlns:xlink="http://www.w3.org/1999/xlink">
    <!-- Generator: Sketch 49.3 (51167) - http://www.bohemiancoding.com/sketch -->
    <desc>Created with Sketch.</desc>
    <defs></defs>
    <g id="Page-1" stroke="none" stroke-width="1" fill="none" fill-rule="evenodd">
        <g id="payment-icon4" transform="translate(-1.000000, 0.000000)" fill-rule="nonzero">
            <path d="M211.4,31.5 L180.2,31.5 C178.1,31.5 176.3,33.1 175.9,35.2 L163.4,115 C163.2,116.4 164.2,117.7 165.6,117.9 C165.7,117.9 165.9,117.9 166,117.9 L180.9,117.9 C183,117.9 184.8,116.3 185.2,114.2 L188.6,92.7 C188.9,90.6 190.7,89 192.9,89 L202.7,89 C223.2,89 235,79.1 238.1,59.4 C239.5,50.8 238.2,44 234.1,39.3 C229.6,34.3 221.8,31.5 211.4,31.5 Z M215,60.7 C213.3,71.9 204.8,71.9 196.5,71.9 L191.8,71.9 L195.1,51.1 C195.3,49.8 196.4,48.9 197.6,48.9 L199.8,48.9 C205.4,48.9 210.7,48.9 213.5,52.1 C215.1,53.9 215.6,56.7 215,60.7 Z M304.4,60.3 L289.5,60.3 C288.2,60.3 287.2,61.2 287,62.5 L286.3,66.7 L285.3,65.2 C282.1,60.5 274.9,59 267.7,59 C251.2,59 237.2,71.5 234.4,89 C233,97.7 235,106.1 239.9,111.9 C244.4,117.3 250.9,119.5 258.7,119.5 C266.5,119.6 273.9,116.5 279.3,111 L278.6,115.1 C278.4,116.5 279.4,117.8 280.8,118 C280.9,118 281.1,118 281.2,118 L294.6,118 C296.7,118 298.5,116.4 298.9,114.3 L307,63.3 C307.2,61.9 306.2,60.6 304.8,60.4 C304.7,60.3 304.5,60.3 304.4,60.3 Z M283.6,89.3 C282.4,97.6 275.2,103.7 266.8,103.5 C262.5,103.5 259,102.1 256.8,99.5 C254.6,96.9 253.8,93.2 254.5,89 C255.7,80.7 262.8,74.6 271.2,74.7 C275.4,74.7 278.9,76.1 281.1,78.8 C283.4,81.8 284.4,85.6 283.6,89.3 Z M383.8,60.3 L368.8,60.3 C367.4,60.3 366,61 365.2,62.2 L344.5,92.6 L335.8,63.4 C335.2,61.6 333.6,60.3 331.6,60.3 L316.9,60.3 C315.5,60.3 314.3,61.4 314.3,62.9 C314.3,63.2 314.3,63.5 314.4,63.8 L330.9,112.3 L315.5,134 C314.7,135.2 314.9,136.8 316.1,137.6 C316.5,137.9 317.1,138.1 317.6,138.1 L332.6,138.1 C334,138.1 335.3,137.4 336.2,136.2 L386,64.3 C386.8,63.1 386.5,61.5 385.4,60.7 C384.8,60.5 384.3,60.3 383.8,60.3 Z" id="Shape" fill="#253B80"></path>
            <path d="M433.4,31.5 L402.3,31.5 C400.2,31.5 398.4,33 398,35.2 L385.4,115 C385.2,116.4 386.2,117.7 387.6,117.9 C387.7,117.9 387.9,117.9 388,117.9 L404,117.9 C405.5,117.9 406.8,116.8 407,115.3 L410.6,92.7 C410.9,90.6 412.7,89 414.9,89 L424.7,89 C445.2,89 457,79.1 460.1,59.4 C461.5,50.8 460.2,44 456.1,39.3 C451.6,34.3 443.8,31.5 433.4,31.5 Z M437,60.7 C435.3,71.9 426.8,71.9 418.5,71.9 L413.8,71.9 L417.1,51.1 C417.3,49.8 418.4,48.9 419.7,48.9 L421.9,48.9 C427.5,48.9 432.8,48.9 435.6,52.1 C437.1,53.9 437.6,56.7 437,60.7 Z M526.4,60.3 L511.5,60.3 C510.2,60.3 509.1,61.2 508.9,62.5 L508.2,66.7 L507.2,65.2 C504,60.5 496.8,59 489.6,59 C473.1,59 459.1,71.5 456.3,89 C454.9,97.7 456.9,106.1 461.8,111.9 C466.3,117.3 472.8,119.5 480.6,119.5 C488.4,119.6 495.8,116.5 501.2,111 L500.5,115.1 C500.3,116.5 501.3,117.8 502.7,118 C502.8,118 503,118 503.1,118 L516.5,118 C518.6,118 520.4,116.5 520.8,114.3 L528.9,63.3 C529.1,61.9 528.1,60.6 526.7,60.4 C526.7,60.3 526.5,60.3 526.4,60.3 Z M505.6,89.3 C504.4,97.6 497.2,103.7 488.8,103.5 C484.5,103.5 481,102.1 478.8,99.5 C476.6,96.9 475.8,93.2 476.5,89 C477.7,80.7 484.8,74.6 493.2,74.7 C497.4,74.7 500.9,76.1 503.1,78.8 C505.4,81.8 506.4,85.6 505.6,89.3 Z M544,33.7 L531.2,115 C531,116.4 532,117.7 533.4,117.9 C533.5,117.9 533.7,117.9 533.8,117.9 L546.6,117.9 C548.7,117.9 550.5,116.4 550.9,114.2 L563.5,34.4 C563.7,33 562.7,31.7 561.3,31.5 C561.2,31.5 561,31.5 560.9,31.5 L546.5,31.5 C545.3,31.5 544.2,32.4 544,33.7 Z" id="Shape" fill="#179BD7"></path>
            <path d="M34.1,133.5 L36.5,118.4 L31.2,118.3 L5.9,118.3 L23.5,6.7 C23.6,6.4 23.7,6.1 24,5.8 C24.3,5.6 24.6,5.5 24.9,5.5 L67.6,5.5 C81.8,5.5 91.6,8.5 96.7,14.3 C99,16.8 100.6,19.8 101.4,23 C102.2,27 102.2,31.1 101.4,35 L101.3,35.3 L101.3,38.4 L103.7,39.7 C105.5,40.6 107.2,41.9 108.5,43.4 C110.6,45.9 112,49 112.5,52.2 C113.1,56.5 112.9,60.8 111.9,65 C111,70.1 109.2,75 106.7,79.5 C104.6,83.1 101.7,86.2 98.3,88.7 C94.9,91.1 91.1,92.8 87.1,93.7 C82.5,94.8 77.8,95.4 73.1,95.3 L69.8,95.3 C64.9,95.3 60.6,98.9 59.9,103.7 L59.7,105.1 L55.5,131.7 L55.3,132.7 C55.3,132.9 55.2,133.1 55,133.3 C54.9,133.4 54.7,133.5 54.6,133.5 L34.1,133.5 Z" id="Shape" fill="#253B80"></path>
            <path d="M105.9,35.7 C105.8,36.5 105.6,37.3 105.5,38.2 C99.9,67.1 80.6,77.1 56,77.1 L43.5,77.1 C40.5,77.1 37.9,79.3 37.5,82.3 L31.1,123 L29.3,134.5 C29,136.2 30.2,137.9 32,138.2 C32.2,138.2 32.3,138.2 32.5,138.2 L54.7,138.2 C57.3,138.2 59.6,136.3 60,133.7 L60.2,132.6 L64.4,106.1 L64.7,104.6 C65.1,102 67.3,100.1 70,100.1 L73.3,100.1 C94.8,100.1 111.7,91.4 116.6,66.1 C118.7,55.5 117.6,46.7 112.2,40.5 C110.3,38.4 108.2,36.9 105.9,35.7 Z" id="Shape" fill="#179BD7"></path>
            <path d="M100.1,33.3 C99.2,33 98.4,32.8 97.4,32.6 C96.4,32.4 95.5,32.2 94.6,32.1 C90.9,31.5 87.3,31.3 83.6,31.3 L50.1,31.3 C47.5,31.3 45.2,33.2 44.8,35.8 L37.7,80.9 L37.5,82.2 C38,79.2 40.5,77 43.5,77 L56,77 C80.6,77 99.9,67 105.5,38.1 C105.7,37.2 105.8,36.4 105.9,35.6 C104.4,34.8 102.9,34.2 101.3,33.7 L100.1,33.3 Z" id="Shape" fill="#222D65"></path>
            <path d="M44.8,35.8 C45.2,33.2 47.4,31.3 50.1,31.3 L83.6,31.3 C87.3,31.3 91,31.5 94.6,32.1 C95.6,32.3 96.5,32.4 97.4,32.6 C98.3,32.8 99.2,33 100.1,33.3 L101.4,33.7 C103,34.2 104.5,34.9 106,35.7 C107.7,25 106,17.7 100.2,11.2 C93.8,4 82.3,0.8 67.6,0.8 L24.9,0.8 C21.9,0.8 19.4,3 18.9,5.9 L1,118.7 C0.7,120.7 2,122.6 4,122.9 C4.2,122.9 4.4,122.9 4.6,122.9 L31,122.9 L37.6,80.9 L44.8,35.8 Z" id="Shape" fill="#253B80"></path>
        </g>
    </g>
</svg>