<?xml version="1.0" encoding="utf-8"?>
<!-- Generator: Adobe Illustrator 19.0.0, SVG Export Plug-In . SVG Version: 6.00 Build 0)  -->
<svg version="1.1" id="图层_1" xmlns="http://www.w3.org/2000/svg" xmlns:xlink="http://www.w3.org/1999/xlink" x="0px" y="0px"
	 viewBox="-116 201 566.2 200" style="enable-background:new -116 201 566.2 200;" xml:space="preserve">
<style type="text/css">
	.st0{fill:#2D94B4;}
	.st1{fill:#1E95D4;}
	.st2{fill:#050101;}
</style>
<path class="st0" d="M20,322.7c23.7,8,29.3,8.3,29.3,8.3v-85.3c0-14.7-12-26.3-26.3-26.3H-89.3c-14.7,0-26.7,11.7-26.7,26.3v112
	c0,14.7,12,26.3,26.3,26.3H22.7c14.7,0,26.3-11.7,26.3-26.3v-1c0,0-43-18-64.7-28.3c-14.7,18-33.3,28.7-53,28.7
	c-19.3,0-33-11.3-34.7-23c0,0-4.3-12.3,6-24.7c3.3-4,9.3-8,18.3-10.3c14-3.3,36.3,2,57.3,9c3.7-7,7-14.7,9.3-22.7H-77v-6.7h33.3V267
	h-40v-6.7h40.3v-16.7c0,0,0-2.7,3-2.7H-24v19.7h40v6.7h-40V279H8.7c-3,12.7-8,24.3-13.7,34.7C4.7,317,13.3,320.3,20,322.7L20,322.7z
	"/>
<path class="st1" d="M-76,308.7c-4,0.3-12,2.3-16,6c-12.7,11-5,31.3,20.7,31.3c15,0,30-9.7,41.7-24.7C-46.3,313-60.7,307.3-76,308.7
	L-76,308.7z"/>
<path class="st1" d="M-68.3,357c-33,0-44-28.7-28.7-47.7c3.3-4,9.3-8,18.3-10.3c14-3.3,36.3,2,57.3,9c3.7-7,7-14.7,9.3-22.7h-64.7
	v-6.7h33.3V267h-40.3v-6.7h40.3v-16.7c0,0,0-2.7,3-2.7H-24v19.3h40v6.7h-40v11.7H8.7c-3,12.7-8,24.3-13.7,34.7c10,3.7,18.7,7,25.3,9
	c23.7,8,29,8.3,29.3,8.3v-85c0-14.7-12-26.3-26.3-26.3h-113c-14.3,0-26.3,11.7-26.3,26.3v112c0,14.7,12,26.3,26.3,26.3H22.7
	c14.7,0,26.3-11.7,26.3-26.3v-1c0,0-43-18-64.7-28.3C-30,346-48.7,357-68.3,357z"/>
<path class="st2" d="M293,245h48v9.7h17v-11.3c0-2.7-2-4.7-4.3-4.7H326v-9h-18v9h-32.3V255h17v-10H293z M189,230.7l-17.7,41.7H185
	v49.3h14.7V256h-5.3l11-25.3H189z M360.3,319.7l-5.3-18.3c-0.3-1-1.3-2-2.7-2H338l4,14h-16.7v-27h33V280h-33v-12.7h33V261H276v6.3
	h33V280h-33v6.3h33v27h-33v6.3L360.3,319.7L360.3,319.7z M223.7,262.7H211l10,31.3h15l-9.3-29.3C226.3,263.7,225,262.7,223.7,262.7z
	"/>
<path class="st2" d="M259,231.3h-15.3v16H206v6.3h37.7v57.7c0,1.3-1.3,2.3-2.3,2.3h-7.7v6.7h20c3,0,5.7-2.7,5.7-6v-60.7h6.3v-6.3
	h-6.3v-16L259,231.3L259,231.3z M144,267c0,0-8,31.7-63,48v8c0,0,69.3-13,82.3-62.7l-18.7,3L144,267z"/>
<path class="st2" d="M106.7,273.7c0,0,13.3,24,62.7,42v7.3c0,0-55.7-11-77.7-49.3H106.7z M160.3,267H87v-6.3h76.3L160.3,267z
	 M81.7,243.3H168v6.7H81.7V243.3z"/>
<path class="st2" d="M118.7,230c-1.6,0-3,1.3-3,3l0,0v31.7H134V230H118.7z M108,345l5.3,16h-10.7L108,345z M115,365.7l2.7,7.7h7
	l-14-38h-5.3l-14,38h7l2.7-7.7H115L115,365.7z M147.3,335.3v38h23v-5H154v-33H147.3z M195.7,335.3h7v38.3h-7V335.3z M244.7,353.3
	h-7.3v-13h7.7c3.7,0,6,3.3,6,6.7C251,350,248.7,353.3,244.7,353.3z M245,335.3h-15v38h7v-14.7h8c7.3,0,12.7-4.7,12.7-11.7
	S252.7,335.3,245,335.3L245,335.3z M291,345l5.3,16h-10.7L291,345z M298,365.7l2.7,7.7h7l-14-38.3h-5.3l-14,38.3h7l2.7-7.7H298
	L298,365.7z M346,335.3l-7.3,16l-7.7-16h-7.3l11.3,22.3v15.7h7v-15.7l11.3-22.3H346z"/>
</svg>
