<?xml version="1.0" standalone="no"?><!DOCTYPE svg PUBLIC "-//W3C//DTD SVG 1.1//EN" "http://www.w3.org/Graphics/SVG/1.1/DTD/svg11.dtd"><svg t="1539744922133" class="icon" style="" viewBox="0 0 4451 1024" version="1.1" xmlns="http://www.w3.org/2000/svg" p-id="2626" xmlns:xlink="http://www.w3.org/1999/xlink" width="869.3359375" height="200"><defs><style type="text/css"></style></defs><path d="M320.567296 0.103933h407.07112a78.737161 78.737161 0 0 1 78.737161 103.539366l-189.362871 816.504355A138.577403 138.577403 0 0 1 489.852191 1023.68702H82.781072a78.737161 78.737161 0 0 1-78.737161-103.539366L193.406782 103.643299A138.183717 138.183717 0 0 1 320.567296 0.103933z" fill="#CF0A2C" p-id="2627"></path><path d="M693.781437 0.103933h468.092419c56.690756 0 31.101178 46.454925 17.715862 103.539366l-189.362871 816.504355c-13.385317 57.084441-9.054773 103.539366-66.139215 103.539366H455.995212a78.737161 78.737161 0 0 1-78.73716-103.539366l189.362871-816.504355A138.183717 138.183717 0 0 1 693.781437 0.103933z" fill="#002856" p-id="2628"></path><path d="M1142.583252 0.103933h407.858492a78.737161 78.737161 0 0 1 78.73716 103.539366l-189.362871 816.504355A138.183717 138.183717 0 0 1 1312.655519 1023.68702H906.371771a78.737161 78.737161 0 0 1-78.737161-103.539366l188.575499-816.504355A138.183717 138.183717 0 0 1 1142.583252 0.103933z" fill="#007078" p-id="2629"></path><path d="M1075.26298 768.184934h39.36858l11.023203-37.006466h-39.368581l-11.023202 37.006466z m30.707492-102.358309L1092.978841 708.738378a186.60707 186.60707 0 0 1 22.440091-9.842145c7.873716 0 19.68429-3.149486 19.68429-3.149487l9.448459-30.707492z m19.290605-62.989728l-12.597946 42.124381a213.377705 213.377705 0 0 1 22.046405-8.661088 134.640544 134.640544 0 0 1 19.68429-2.755801l9.054774-30.707492z m85.036133 0l-49.998097 164.954351h13.385318l-10.235831 33.856979h-13.385318l-3.149486 10.629517h-47.242296l3.149486-10.629517h-96.059336l9.842145-31.494864h7.873716l50.391783-167.316466 9.842145-33.856979h49.998097l-5.117915 16.928489a90.547735 90.547735 0 0 1 25.195891-12.597945c12.20426-3.149486 81.886647-4.330544 81.886647-4.330544l-10.235831 33.463293z" fill="#FFFFFF" p-id="2630"></path><path d="M1231.162558 569.373604h51.57284v19.290604c0 3.149486 2.362115 4.72423 8.267402 4.72423h10.629516l-9.448459 31.88855h-27.558006c-24.014834 0-33.069607-8.661088-32.675922-20.471662v-35.431722zM1237.855216 719.76158h-48.817039l8.267402-28.345378h55.903384l7.873716-25.589577h-55.116013l9.44846-31.88855h153.931148l-9.842145 31.88855h-51.179154l-8.267402 25.589577h51.966526l-8.661088 28.345378h-55.903384l-9.842145 11.810574H1300.057573l5.511601 35.431722a19.290604 19.290604 0 0 0 0 7.480031 27.558006 27.558006 0 0 0 11.810574 0h6.692659l-10.629517 34.64435h-29.526435a33.463293 33.463293 0 0 1-12.597945-5.117915 16.92849 16.92849 0 0 1-9.054774-12.20426l-5.511601-35.431722-25.589577 35.038036a43.305438 43.305438 0 0 1-39.368581 19.290605h-35.825408l9.44846-31.101179H1181.951832a22.046405 22.046405 0 0 0 9.842145-2.7558 15.353746 15.353746 0 0 0 7.480031-6.298973l37.006465-52.360212zM701.261467 642.599163h129.916315l-9.448459 31.101178h-52.360212l-7.873716 26.376949h53.147584l-9.842145 31.88855h-53.147584l-12.991631 42.911753c0 4.72423 12.597946 5.511601 17.715861 5.511601l26.376949-3.543172-10.629517 35.431722h-59.446556a57.084441 57.084441 0 0 1-13.779003 0 14.172689 14.172689 0 0 1-9.44846-7.086345 13.779003 13.779003 0 0 1-3.149486-13.779003l17.322175-57.084441h-29.526435l9.842145-32.675922h29.526435l7.873716-26.376949h-29.526435l9.448459-31.101178zM788.26603 586.695779h53.147583l-9.842145 32.282236h-72.044502l-7.873716 6.692658c-3.149486 3.149486-4.330544 0-9.054773 4.330544a53.541269 53.541269 0 0 1-24.014834 6.298973h-23.227463l9.44846-31.101178h7.086344a24.802206 24.802206 0 0 0 11.810574 0 28.739064 28.739064 0 0 0 7.873716-10.235831l13.385318-24.40852h53.147583l-9.842145 16.141118z" fill="#FFFFFF" p-id="2631"></path><path d="M890.624338 640.237048a83.855076 83.855076 0 0 1 39.368581-17.715861h39.36858l5.511601-17.715861h-74.800302l-10.629517 36.219094z m70.076073 13.779003H886.68748l-4.724229 14.960061H945.740351a52.753898 52.753898 0 0 1 9.842145 0l4.72423-14.960061z m-96.453021-84.248762h45.273867l-6.692659 22.833777a131.884744 131.884744 0 0 1 24.40852-15.747432 230.69988 230.69988 0 0 1 32.675922-7.086345h73.225559l-24.802206 83.461391a98.421451 98.421451 0 0 1-12.204259 27.558006 31.494864 31.494864 0 0 1-12.597946 11.416888 46.848611 46.848611 0 0 1-16.92849 5.905287h-93.303535l-20.077976 66.139215c0 6.692659-2.755801 9.842145 0 11.416888a8.267402 8.267402 0 0 0 6.692659 3.543172l31.101178-3.149486-10.629516 36.219094h-59.840242a27.951692 27.951692 0 0 1-14.566375-2.755801c-3.149486-2.755801-8.267402-6.692659-8.267402-10.629516a129.128943 129.128943 0 0 1 3.936858-17.715862l63.383414-211.409276z" fill="#FFFFFF" p-id="2632"></path><path d="M996.919505 704.014148l-4.330544 20.077976a27.558006 27.558006 0 0 1-8.267402 14.960061 32.675922 32.675922 0 0 1-24.408519 8.661087h-25.195892v22.833777c0 6.298973 0 5.905287 2.362115 6.692658l3.149487 1.968429h31.88855l-9.842145 33.069608h-27.558007a87.398248 87.398248 0 0 1-39.36858-4.330544c-4.72423-2.755801-5.117915-6.692659-5.117915-12.991632v-88.579305h44.09281v18.109547H945.740351a14.96006 14.96006 0 0 0 7.48003 0 9.054773 9.054773 0 0 0 3.149487-4.72423l4.330543-14.172689zM368.596964 260.723934c0 7.086344-29.920121 137.790031-29.920121 138.183717a96.059336 96.059336 0 0 1-25.589577 57.478127 45.667553 45.667553 0 0 1-29.920121 10.629517 27.951692 27.951692 0 0 1-31.101178-26.770635V433.158316l5.511601-35.431722s29.526435-118.105741 35.038036-135.034231a453.91973 453.91973 0 0 1-68.501329 0v8.661088L193.800468 405.60031l-2.755801 11.416888-5.117915 37.400151a54.722327 54.722327 0 0 0 6.298973 27.558006c13.779003 24.40852 53.147583 27.951692 75.193988 27.951692a146.057433 146.057433 0 0 0 73.619245-17.322175 109.838339 109.838339 0 0 0 47.242296-74.012931l3.543173-13.385317s30.707493-124.011028 35.825408-139.75846a453.132359 453.132359 0 0 1-58.265499 0zM537.488174 506.777561h-51.572841c1.968429-9.054773 4.330544-18.109547 6.298973-27.558006l3.149487-12.597946c4.330544-19.290604 8.661088-42.124381 9.448459-48.817039s0-14.566375-9.842145-14.566375a39.36858 39.36858 0 0 0-15.353746 4.72423c-2.755801 10.235831-8.661088 39.36858-11.416889 52.753897-5.905287 27.951692-6.298973 31.101178-9.054773 44.880182H406.390801v-1.968429c3.936858-16.534804 8.267402-33.463293 11.810574-49.998097a725.95662 725.95662 0 0 0 15.353747-85.036134c23.621148-3.149486 29.526435-3.936858 55.116012-9.054773l1.968429 2.362115-3.936858 14.172689 12.991631-7.480031a78.737161 78.737161 0 0 1 33.069608-7.873716 27.951692 27.951692 0 0 1 28.739064 16.141118c4.72423 11.416888 0 25.983263-4.72423 53.934955l-3.149487 14.172689c-6.692659 31.494864-7.48003 37.006465-11.416888 58.659185h-2.362115zM620.555878 506.777561h-55.903384a166.92278 166.92278 0 0 1 6.298973-20.077976 149.206919 149.206919 0 0 0 5.905287-20.471662c3.543172-15.747432 5.905287-26.770635 7.48003-36.219094s2.755801-17.322175 3.936858-26.376948l27.951692-3.936858 28.739064-5.117916V393.789736l-7.086345 29.526435-6.692658 29.132749c-4.72423 20.865348-6.298973 28.345378-7.480031 33.856979s0 8.267402-3.149486 18.896919zM751.259564 433.158316a109.444653 109.444653 0 0 1-12.20426 33.463293 19.68429 19.68429 0 0 1-15.353746 9.842145s-11.810574 0-11.810574-14.96006a101.964623 101.964623 0 0 1 3.149487-23.227463c5.511601-24.014834 11.810574-44.09281 27.951691-44.09281s13.779003 14.96006 7.873717 39.368581z m53.54127 2.362115a61.414985 61.414985 0 0 0-5.511602-55.509698A60.233928 60.233928 0 0 0 748.89745 362.294871a89.760363 89.760363 0 0 0-61.414986 21.65272 101.570937 101.570937 0 0 0-27.16432 53.147583c-4.330544 19.290604-9.448459 54.328641 22.440091 66.926586a94.090907 94.090907 0 0 0 33.069607 5.511602 86.610877 86.610877 0 0 0 65.351843-25.589578 114.956254 114.956254 0 0 0 22.440091-48.029667zM1305.175489 508.74599h-54.722327c6.298973-23.621148 12.597946-47.242296 18.109547-70.863444a544.073779 544.073779 0 0 0 11.023202-62.202357c24.40852-3.543172 31.494864-4.330544 57.084442-9.44846v1.968429c-4.72423 19.290604-9.448459 39.36858-13.779003 58.265499-9.448459 39.36858-12.991631 61.414985-16.534804 82.674019h-2.362115z" fill="#FFFFFF" p-id="2633"></path><path d="M1268.169023 436.307802a112.987825 112.987825 0 0 1-12.20426 33.463294 28.345378 28.345378 0 0 1-20.077976 9.842145s-11.810574 0-11.810574-14.960061a102.358309 102.358309 0 0 1 3.149487-23.227462c5.511601-23.621148 11.810574-43.305438 27.951692-43.305439s18.109547 14.566375 12.597945 39.368581z m48.81704 2.362115c7.086344-31.494864-21.652719-2.755801-26.376949-12.991631S1288.246999 376.46756 1260.688993 365.444358a68.50133 68.50133 0 0 0-58.659185 21.259033 100.783565 100.783565 0 0 0-27.16432 53.147584c-4.330544 18.896919-9.448459 53.934955 22.046405 66.139214a64.170786 64.170786 0 0 0 28.345378 5.117916c31.88855 0 56.29707-49.998097 74.406616-69.288701s16.534804 5.905287 18.503233-3.543173zM945.740351 506.777561h-51.57284c1.968429-9.054773 4.330544-18.109547 6.692658-27.558006l2.755801-12.597946c4.330544-19.290604 8.661088-42.124381 9.054773-48.817039s0-14.566375-9.842145-14.566375a39.36858 39.36858 0 0 0-15.353746 4.72423c-2.755801 10.235831-8.661088 39.36858-11.416888 52.753897-5.905287 27.951692-6.298973 31.101178-8.661088 44.880182h-52.753897v-1.968429l11.810574-49.998097a728.318735 728.318735 0 0 0 15.353746-85.036134c23.621148-3.149486 29.526435-3.936858 55.116012-9.054773l1.968429 2.362115-3.543172 14.172689 11.023203-6.692659a78.737161 78.737161 0 0 1 32.675921-7.873716 28.345378 28.345378 0 0 1 28.739064 16.141118c4.72423 11.416888 0 25.983263-4.72423 53.934955l-3.149486 14.172689c-6.692659 31.494864-7.873716 37.006465-11.416889 58.659184h-2.362114zM1122.11159 260.723934h-88.185619v9.054774l-15.747432 73.619245-39.368581 164.16698h61.0213l10.629516-51.179155s7.48003-32.282236 8.267402-33.463293a18.503233 18.503233 0 0 1 4.72423-4.72423h3.543172a163.379608 163.379608 0 0 0 100.38988-21.652719 107.476224 107.476224 0 0 0 39.36858-63.7771 98.421451 98.421451 0 0 0 2.755801-22.440091 46.454925 46.454925 0 0 0-7.873716-28.345377c-14.96006-21.259033-44.880181-21.259033-78.737161-21.652719zM1142.583252 337.492666a53.934955 53.934955 0 0 1-27.951692 36.61278 87.398248 87.398248 0 0 1-39.36858 6.298972h-9.054774v-3.543172l16.92849-73.225559v-7.086345h6.692659l35.431722 3.149487a29.132749 29.132749 0 0 1 15.353746 37.006465zM1507.529991 363.475929v-2.362115c-25.195891 5.117915-29.920121 5.905287-53.147583 9.054773-17.322175 39.36858-16.92849 31.494864-30.707493 62.989729v-3.936858l-3.543172-68.50133-2.362115-2.362115c-26.376949 5.117915-27.16432 5.905287-51.57284 9.054774s0 0 0 2.7558a347.230878 347.230878 0 0 1 5.511601 37.006466c0 12.20426 3.149486 24.40852 4.72423 36.219094 2.362115 20.077976 3.936858 29.920121 6.692659 60.627613-16.534804 27.558006-20.471662 39.36858-36.219094 61.808671v2.362115h47.242296l3.936858-4.330544c13.385317-28.739064 114.956254-203.929246 114.956254-203.929245zM643.389654 380.404418c13.385317-9.448459 15.353746-22.440091 3.936858-29.132749a46.061239 46.061239 0 0 0-45.667553 3.149486c-13.779003 9.448459-15.353746 22.440091-3.543172 29.13275a46.454925 46.454925 0 0 0 45.273867-4.72423zM1390.605308 570.160975l-20.077976 34.250665a39.36858 39.36858 0 0 1-36.61278 20.471662h-31.494864l9.054773-30.707493h6.298973a17.322175 17.322175 0 0 0 7.480031 0 8.661088 8.661088 0 0 0 3.936858-3.543172l11.810574-18.503233z" fill="#FFFFFF" p-id="2634"></path><path d="M2404.739935 364.2633l45.667553-196.842901h-236.211481l18.896918-81.099275h-81.492961l-18.896918 81.492961h-72.438188a184.638641 184.638641 0 0 0-90.547735 36.61278l8.267402-36.61278h-80.705589l-59.840242 259.045258h236.211481l-35.431722 152.356406h80.70559l35.038036-152.356406h177.945983a72.831873 72.831873 0 0 0 48.817039-21.259033 85.036133 85.036133 0 0 0 24.014834-41.33701zM2087.429178 368.98753h-157.474321l33.856979-145.663747h154.718521zM2323.64066 354.421155a20.865348 20.865348 0 0 1-17.322175 12.991632H2166.166339l33.856979-145.663747h155.112206zM3005.50447 516.619706l99.996194-433.054383h-393.685803a187.394442 187.394442 0 0 0-90.547734 36.61278l8.661087-36.61278h-80.311903l-114.168883 492.894625h498.01254a70.469759 70.469759 0 0 0 46.061239-18.896918 85.036133 85.036133 0 0 0 25.983263-40.943324z m-78.737161-10.235831a20.471662 20.471662 0 0 1-18.109546 15.353746h-378.725743l88.18562-379.513113h393.685803z" fill="#4C4948" p-id="2635"></path><path d="M2650.793562 185.529946h307.468612l-13.385318 56.690756h-112.987825l-14.172689 61.414985h113.381511l-12.991631 56.690755h-113.381511l-14.172689 61.414986h41.730695a267.31266 267.31266 0 0 0-3.936858-39.368581h58.265499v39.368581h15.747432l-12.991632 56.690755h-306.287554l12.991631-56.690755h112.987826l14.172689-61.808671h-112.59414l12.991631-56.29707h112.987826l14.172689-61.0213H2638.589302zM3168.884078 161.121426h25.195891S3229.118006 157.578254 3253.920211 85.533752h85.42982a308.255983 308.255983 0 0 1-18.503233 39.36858H3425.960907l-11.810574 55.116013h-136.215288a129.522629 129.522629 0 0 1-85.036133 39.36858h-39.36858zM3401.552387 232.772242L3386.592327 289.856684h-94.484593l-18.503232 78.73716h96.453021l-12.991631 56.690756h-96.846708l-18.109547 78.73716c-3.149486 18.503233 12.991631 18.109547 12.991632 18.109547h78.73716l-12.991631 56.690756h-122.436285a53.147583 53.147583 0 0 1-29.132749-7.873716 39.36858 39.36858 0 0 1-12.991632-43.305438l23.227463-100.783566h-57.871813l13.385317-57.084441h57.871813l18.503233-78.737161h-58.265499l12.991631-56.690755zM3727.917918 282.770339l45.667553-196.842901h-145.663747a188.181814 188.181814 0 0 0-90.547735 36.61278l6.692659-37.006466h-78.737161l-102.751994 439.353356a39.36858 39.36858 0 0 0 5.117915 39.36858 55.903384 55.903384 0 0 0 39.368581 14.172689h94.090906l12.991632-56.690756H3461.392629a13.779003 13.779003 0 0 1-12.991631-18.109546l36.219094-157.474321h168.891209a62.989728 62.989728 0 0 0 39.36858-12.597946 88.18562 88.18562 0 0 0 35.038037-50.785469z m-196.842902-140.152145h146.844805l-10.629517 45.273867h-66.5329a189.362871 189.362871 0 0 0-87.398249 36.219094z m112.59414 146.844804h-145.270061l10.235831-45.273867h146.844804z" fill="#4C4948" p-id="2636"></path><path d="M3523.2013 369.381216h80.70559v39.36858h29.132749a13.779003 13.779003 0 0 0 12.991632-9.054773l7.086344-30.313807h62.202357l-9.842145 42.911752a49.998097 49.998097 0 0 1-18.109547 29.13275 70.469759 70.469759 0 0 1-44.486496 11.416888h-39.36858v57.478127a13.385317 13.385317 0 0 0 14.960061 11.810574h59.05287l-12.991631 56.690756h-86.610877s-39.36858 0-47.242296-17.322175a62.596043 62.596043 0 0 1-4.72423-26.770635zM4142.862754 142.224508l13.385317-57.084442h-103.14568a196.842901 196.842901 0 0 0-88.18562 36.61278l8.267402-36.61278h-81.099276l-95.271964 411.79535h-29.132749l-12.991632 56.690755h187.788128l-5.905287 24.802206H4016.489611l5.511601-24.40852h23.621148l12.991632-56.690755h-23.621148l82.280333-354.317223z m-187.000757 354.317222h-78.73716l18.503233-78.73716h78.73716z m31.494865-136.215288a170.072267 170.072267 0 0 0-86.217191 35.825408l27.16432-118.10574h78.737161z m31.88855-137.396345a170.072267 170.072267 0 0 0-86.217191 35.825408l27.16432-118.10574h78.737161zM4120.028977 279.620853l14.566375-55.903384h284.241149l-12.991631 56.29707h-101.570937L4292.069673 333.555808h101.570937l-14.960061 56.29707h-110.232024l-17.322176 29.132749h48.81704l14.172689 80.70559s3.543172 20.471662 14.172689 22.046404h20.077976l-13.385318 56.690756H4292.069673a59.05287 59.05287 0 0 1-43.699124-18.896918 71.25713 71.25713 0 0 1-10.235831-31.494865l-11.810574-67.713958-39.36858 68.50133a126.373143 126.373143 0 0 1-26.770635 33.856979 71.650816 71.650816 0 0 1-48.423354 15.353746h-59.05287l12.991631-56.690755h29.526436s11.810574 0 24.014834-16.534804l70.076072-115.34994H4095.226772l12.991631-56.29707h101.964623l12.597946-53.934955zM4449.543994 85.533752h-88.18562a151.175348 151.175348 0 0 1-14.96006 32.675922 49.604411 49.604411 0 0 1-41.730695 18.109547L4292.069673 193.403662h48.817039a93.303535 93.303535 0 0 0 67.713958-31.494864A183.063898 183.063898 0 0 0 4449.543994 85.533752zM4165.302844 85.533752H4252.701093a115.743626 115.743626 0 0 0 0 32.675922s3.149486 17.715861 33.463293 18.109547l-13.385317 57.084441h-48.81704a57.871813 57.871813 0 0 1-53.147583-31.494864 120.861541 120.861541 0 0 1-5.511602-76.375046zM1958.693921 913.848681a214.558762 214.558762 0 0 1-98.815137 19.290604 103.933052 103.933052 0 0 1-107.476224-137.396345 179.12704 179.12704 0 0 1 171.253324-137.790031 146.451119 146.451119 0 0 1 87.398249 19.290605l-24.802206 39.36858a125.192085 125.192085 0 0 0-66.532901-14.960061 123.223656 123.223656 0 0 0-107.869909 94.484593 71.25713 71.25713 0 0 0 64.170785 94.878278 188.575499 188.575499 0 0 0 75.193989-14.566374zM2100.42081 928.415056l26.376949-112.987826c3.936858-17.322175 0-27.16432-21.65272-27.16432a81.099275 81.099275 0 0 0-39.36858 13.779003l-29.132749 125.979457h-51.179155l63.7771-275.580062 53.54127-5.511601-28.345378 123.223656a133.459487 133.459487 0 0 1 64.958157-22.046405 39.36858 39.36858 0 0 1 41.730695 53.541269l-29.132749 125.192085zM2292.145796 690.628831a37.006465 37.006465 0 0 1-33.069608 26.770634 21.259033 21.259033 0 0 1-20.471661-26.770634 39.36858 39.36858 0 0 1 32.675921-27.164321 21.259033 21.259033 0 0 1 20.865348 27.164321z m-15.353747 62.989728l-39.36858 174.796497h-52.753897l39.36858-174.796497zM2388.598817 928.415056l25.983263-112.987826c3.936858-17.322175 0-27.16432-21.259033-27.16432a78.737161 78.737161 0 0 0-39.36858 13.779003l-29.13275 125.979457h-50.785468l39.36858-174.796497H2363.00924l-1.968429 16.92849a132.27843 132.27843 0 0 1 66.532901-22.046405 39.36858 39.36858 0 0 1 41.730695 55.116012l-27.558006 125.192086zM2520.483561 932.351914c-35.038036 0-52.360212-21.259033-45.667553-50.391783A85.823505 85.823505 0 0 1 2559.852141 821.726203h37.006466l1.968429-8.661088c3.543172-15.353746 0-28.739064-26.376949-28.739063a141.726889 141.726889 0 0 0-51.966526 10.629516l-4.724229-26.770634a202.354503 202.354503 0 0 1 78.73716-17.715861c41.730695 0 64.564472 20.471662 56.690756 54.328641l-22.440091 96.846707a74.012931 74.012931 0 0 0 0 27.558006h-52.360212a44.09281 44.09281 0 0 1 0-15.353746 97.634079 97.634079 0 0 1-55.903384 18.503233z m70.469759-85.42982l-25.195892 1.968429c-15.747432 0-39.36858 7.48003-42.518066 27.558007s12.597946 21.259033 22.046405 21.259033a85.036133 85.036133 0 0 0 37.400151-14.172689zM2972.041177 837.079949a129.916315 129.916315 0 0 1-133.853173 96.453022c-72.044502 0-102.358309-39.36858-89.366677-96.453022l39.36858-173.615439h56.29707l-39.368581 166.922781c-9.054773 39.36858 2.755801 61.414985 44.09281 61.414985a75.193988 75.193988 0 0 0 72.044502-61.414985l39.36858-166.922781h51.179155zM3102.744863 928.415056l25.983263-112.987826c3.936858-17.322175 0-27.16432-21.259033-27.16432a76.375046 76.375046 0 0 0-39.36858 13.779003l-29.13275 125.979457h-50.785468l39.36858-174.796497h49.210725l-1.968429 16.92849a131.884744 131.884744 0 0 1 66.926587-22.046405 39.36858 39.36858 0 0 1 41.730695 53.541269l-29.13275 125.192085zM3298.406707 690.628831a37.006465 37.006465 0 0 1-33.069607 26.770634 21.259033 21.259033 0 0 1-20.471662-26.770634 39.36858 39.36858 0 0 1 32.675922-27.164321 21.259033 21.259033 0 0 1 20.865347 27.164321z m-15.353746 62.989728l-39.36858 174.796497H3189.749426l39.36858-174.796497zM3489.344321 841.016807a124.011028 124.011028 0 0 1-120.861541 91.335107 72.044502 72.044502 0 0 1-78.737161-91.335107A124.011028 124.011028 0 0 1 3410.607161 748.106958a72.044502 72.044502 0 0 1 78.73716 92.909849z m-144.482689 0c-7.086344 29.920121 0 56.690756 31.494864 56.690756a68.50133 68.50133 0 0 0 57.084441-56.690756c7.086344-30.313807-4.72423-56.690756-30.707492-56.690755a64.170786 64.170786 0 0 0-57.871813 56.690755zM3610.599549 928.415056l25.983263-112.987826c3.936858-17.322175 0-27.16432-21.65272-27.16432a75.98136 75.98136 0 0 0-39.36858 13.779003l-29.132749 125.979457h-50.391783l39.36858-174.796497h49.210726v16.92849a131.884744 131.884744 0 0 1 64.958157-22.046405 39.36858 39.36858 0 0 1 41.730695 53.541269L3662.172389 928.415056zM3788.151846 753.618559v14.172689a103.933052 103.933052 0 0 1 57.084441-19.68429c47.635982 0 73.619245 32.282236 61.021299 87.791934a118.105741 118.105741 0 0 1-105.507795 94.878278 91.728792 91.728792 0 0 1-49.210725-10.23583l-22.440091 99.208822h-51.966526l61.414985-266.131603z m7.086344 144.876376c20.077976 0 44.486496-16.534804 54.722327-60.233928s-8.267402-52.753898-28.345378-52.753898a84.248762 84.248762 0 0 0-41.33701 13.779003l-21.259033 91.335107a68.50133 68.50133 0 0 0 36.61278 7.873716zM3957.043055 932.351914c-34.644351 0-52.360212-21.259033-45.667553-50.391783a85.823505 85.823505 0 0 1 85.036133-59.840242h37.006466l1.968429-8.661088c3.543172-15.353746 0-28.739064-26.376949-28.739063a141.333203 141.333203 0 0 0-51.966526 10.629516l-4.72423-26.770634a201.960817 201.960817 0 0 1 78.737161-17.715861c41.730695 0 64.564472 20.471662 56.690755 54.32864l-22.44009 96.846708a75.587674 75.587674 0 0 0 0 27.558006h-54.328641a44.09281 44.09281 0 0 1 0-15.353746 97.634079 97.634079 0 0 1-53.934955 18.109547z m70.469759-85.42982l-25.589578 1.968429c-15.747432 0-39.36858 7.48003-42.518066 27.558007s12.597946 21.259033 22.046405 21.259033a85.036133 85.036133 0 0 0 37.400151-14.172689z" fill="#4C4948" p-id="2637"></path><path d="M4155.067014 972.901551c-17.715861 28.739064-39.36858 50.785469-70.076073 50.785469a78.737161 78.737161 0 0 1-49.604411-12.20426l19.68429-31.101178a69.288701 69.288701 0 0 0 28.739063 6.692658c19.68429 0 27.951692-14.96006 43.699124-37.006465l11.810574-18.896919-31.494864-177.945983h53.541269l16.92849 118.105741 70.076073-118.105741H4292.069673z" fill="#4C4948" p-id="2638"></path></svg>