
<svg width="567px" height="157px" viewBox="0 0 567 157" version="1.1" xmlns="http://www.w3.org/2000/svg" xmlns:xlink="http://www.w3.org/1999/xlink">
    <!-- Generator: Sketch 49.3 (51167) - http://www.bohemiancoding.com/sketch -->
    <desc>Created with Sketch.</desc>
    <defs></defs>
    <g id="Page-1" stroke="none" stroke-width="1" fill="none" fill-rule="evenodd">
        <g id="payment-icon3" fill-rule="nonzero">
            <path d="M337.8,32.5 C337.8,37.7 332.8,42 326.8,42 C320.8,42 315.8,37.7 315.8,32.5 C315.8,27.3 320.8,23 326.8,23 C332.8,23 337.8,27.3 337.8,32.5 Z M132.1,0 L25,0 C11,0 0,11.5 0,25 L0,131.6 C0,145.6 11.5,156.6 25,156.6 L132.1,156.6 C146.1,156.6 157.1,145.1 157.1,131.6 L157.1,130.6 C157.1,130.6 116.1,113.6 95.5,103.6 C81.5,120.6 63.5,131.1 45,131.1 C13.5,131.1 3,103.6 18,85.6 C21,81.6 27,78.1 35.5,75.6 C49,72.1 70,77.6 90,84.1 C93.5,77.6 96.5,70.1 99,62.6 L37.4,62.6 L37.4,56.6 L68.9,56.6 L68.9,45.6 L30.4,45.6 L30.4,39.6 L68.9,39.6 L68.9,23.6 C68.9,23.6 68.9,21.1 71.4,21.1 L86.9,21.1 L86.9,39.6 L124.9,39.6 L124.9,45.6 L86.9,45.6 L86.9,56.6 L117.9,56.6 C114.9,68.6 110.4,80.1 104.9,89.6 C112.9,92.6 120.9,95.4 128.9,98.1 C151.4,105.6 156.9,106.1 156.9,106.1 L156.9,25 C157.1,11.5 146.1,0 132.1,0 Z" id="Shape" fill="#00A0E9"></path>
            <path d="M38,85.6 C34,86.1 26.5,87.6 22.5,91.1 C10.5,101.6 17.5,121.1 42,121.1 C56,121.1 70.5,112.1 81.5,97.6 C66.1,89.6 52.5,84 38,85.6 Z" id="Shape" fill="#00A0E9"></path>
            <path d="M224.2,28.5 C223.2,28.5 222.2,29 221.2,29.5 C220.2,30 219.7,31 219.2,31.5 L178.2,117.6 L192.7,117.6 L200.2,103.1 L242.2,103.1 L249.2,117.6 L271.2,117.6 L230.2,28.5 L224.2,28.5 Z M203.2,96.1 L221.7,57.6 L239.7,96.1 L203.2,96.1 Z M280.7,30 C280.1,30.7 279.7,31.6 279.7,32.5 L279.7,118.1 L299.7,118.1 L299.7,28.5 L283.7,28.5 C282.2,28.5 281.2,29 280.7,30 Z M317.8,53 C317.2,53.7 316.8,54.6 316.8,55.5 L316.8,117.6 L336.8,117.6 L336.8,52 L320.8,52 C319.8,52 318.8,52.5 317.8,53 Z M412.4,60 C409.9,57 406.9,55 403.4,53.5 C399.9,52 395.9,51 391.9,51 C387.9,51 384.4,51.5 381.4,53 C378.4,54 375.9,56 373.4,57.5 L373.4,52.5 L357.4,52.5 C356.4,52.5 355.4,53 354.9,53.5 C353.9,54.5 353.9,55 353.9,56 L353.9,143.6 L373.9,143.6 L373.9,117.1 C375.9,117.6 377.4,118.1 379.4,118.6 C381.4,118.6 383.4,119.1 386.4,119.1 C391.4,119.1 396.4,118.1 400.4,116.1 C404.4,114.1 407.9,111.6 410.9,108.1 C413.9,104.6 415.9,100.6 417.9,96.1 C419.4,91.6 420.4,86.6 420.4,81.1 C420.4,77.1 419.9,73.1 418.4,69.1 C416.4,66 414.4,62.5 412.4,60 Z M397.3,97.6 C396.8,100.6 395.8,102.6 394.8,105.1 C393.9,106.9 392.5,108.5 390.8,109.6 C389.3,110.6 387.8,111.1 385.8,111.1 C383.8,111.1 382.3,110.6 380.8,110.1 C379.3,109.6 377.9,108.7 376.8,107.6 C375.8,106.6 375,105.4 374.3,104.1 C373.8,102.6 373.3,101.1 373.3,99.6 L373.3,70.6 C374.3,69.6 374.8,68.6 375.8,67.6 C376.8,66.6 377.8,65.6 378.8,65.1 C379.8,64.6 380.8,63.6 382.3,63.6 C383.3,63.1 384.8,63.1 385.8,63.1 C387.8,63.1 389.3,63.6 390.8,64.6 C392.3,65.6 393.3,67.1 394.8,69.6 C395.8,71.6 396.8,74.6 397.3,77.6 C397.8,80.6 398.3,84.6 398.3,88.6 C398.3,91.6 398.3,94.6 397.3,97.6 Z M471.4,53 C461.9,50.5 449.9,50 433.4,54 C433.9,55.5 434.9,58.5 435.4,60.5 C461.4,56 466.4,59.5 466.4,71 L466.4,74.5 C461.4,74 455.9,73.5 451.4,73.5 C433.4,73 426.9,87.5 426.9,96.5 C426.9,112 441.9,127 466.4,116 L466.4,118.5 L486.9,118.5 L486.9,70.5 C486.9,60.5 478.9,55 471.4,53 Z M466.4,106.1 C463.9,108.6 460.4,110.1 456.9,110.1 C449.4,110.1 442.9,104.1 442.9,96.1 C442.9,88.6 448.9,82.6 456.9,82.1 C461.9,81.6 464.4,82.6 466.4,83.6 L466.4,106.1 Z M553,51.5 C552.5,52 551.5,52.5 551.5,53.5 L534.5,91.5 L513.5,51 L492.5,51 L524.5,113.6 L522,118.6 C521.5,119.6 521,120.6 520.5,122.1 C520,123.1 519,125.1 518,126.1 C514,130.6 505,130.6 502.5,130.6 L502.5,141.6 C506,141.6 525.5,144.6 533.5,124.6 L566.5,51.5 L555,51.5 C554.4,51 553.6,51 553,51.5 Z" id="Shape" fill="#3E3A39"></path>
        </g>
    </g>
</svg>