<?xml version="1.0" standalone="no"?><!DOCTYPE svg PUBLIC "-//W3C//DTD SVG 1.1//EN" "http://www.w3.org/Graphics/SVG/1.1/DTD/svg11.dtd"><svg t="1542096073466" class="icon" style="" viewBox="0 0 1024 1024" version="1.1" xmlns="http://www.w3.org/2000/svg" p-id="2447" xmlns:xlink="http://www.w3.org/1999/xlink" width="200" height="200"><defs><style type="text/css"></style></defs><path d="M189.568 255.296a44.48 44.48 0 1 0 88.96 0 44.48 44.48 0 0 0-88.96 0z m154.624-23.232h487.36v46.592H344.192v-46.592z m-156.608 257.28a44.48 44.48 0 1 0 88.896 0 44.48 44.48 0 0 0-88.96 0z m154.624-23.232h487.168v46.464H342.208v-46.464z m-153.28 257.28a44.48 44.48 0 1 0 88.896 0 44.48 44.48 0 0 0-88.96 0z m154.624-23.232h487.296v46.464H343.552v-46.464z m35.776-609.024h262.976a23.36 23.36 0 0 0 23.232-23.424V24.576a23.36 23.36 0 0 0-23.232-23.424h-263.04a23.36 23.36 0 0 0-23.168 23.424v43.136c0 12.864 10.368 23.424 23.232 23.424z" fill="#fff" p-id="2448"></path><path d="M916.8 4.16h-169.856a27.456 27.456 0 0 0 0 54.848h169.856c27.776 0 50.176 22.592 50.176 50.176v809.6a50.176 50.176 0 0 1-50.176 50.176H105.792a50.176 50.176 0 0 1-50.112-50.176V108.992c0-27.776 22.528-50.176 50.112-50.176h172.416a27.456 27.456 0 0 0 0-54.784H105.792a105.28 105.28 0 0 0-104.96 104.96v809.6c0 57.92 47.168 105.024 104.96 105.024h811.008c57.856 0 104.96-47.104 104.96-104.96V108.992c0-57.856-47.104-104.832-104.96-104.832z" fill="#fff" p-id="2449"></path></svg>