<svg xmlns="http://www.w3.org/2000/svg" viewBox="0 0 51 51.5"><path fill-rule="evenodd" clip-rule="evenodd" fill="#FFF" d="M49.487 43.19L32.024 25.725 49.44 8.31c1.805-1.805 1.807-4.732.003-6.536-1.804-1.804-4.73-1.803-6.538.004L25.49 19.192 8.095 1.797C6.288-.01 3.362-.01 1.557 1.793-.247 3.597-.245 6.523 1.56 8.33l17.396 17.396L1.513 43.17c-1.806 1.805-1.808 4.733-.004 6.536 1.803 1.804 4.73 1.803 6.536-.004L25.49 32.26l17.463 17.463c1.806 1.806 4.734 1.808 6.537.004 1.805-1.804 1.803-4.732-.003-6.538z"/></svg>