<svg id="Layer_1" data-name="Layer 1" xmlns="http://www.w3.org/2000/svg" viewBox="0 0 176.19 43.91"><title>_500px</title><path d="M266,278.35a22,22,0,1,0,22,22A22,22,0,0,0,266,278.35Zm0,39.23a17.27,17.27,0,1,1,17.27-17.27A17.29,17.29,0,0,1,266,317.58Zm47.51-39.23a22,22,0,1,0,22,22A22,22,0,0,0,313.49,278.35Zm0,39.23a17.27,17.27,0,1,1,17.27-17.27A17.29,17.29,0,0,1,313.49,317.58Zm-85.25-26.06a15.41,15.41,0,0,0-11.71,3.1V283h19.72c0.69,0,1.18-.12,1.18-2.15s-0.8-2.05-1.32-2.05H214.27a2,2,0,0,0-1.94,2.16V300c0,1,.63,1.34,1.82,1.57a2,2,0,0,0,2.09-.42l0-.07c2.08-3,6.61-5.9,10.91-5.38a11.27,11.27,0,0,1,9.83,9.74,11,11,0,0,1-2.75,8.66,11.1,11.1,0,0,1-8.27,3.71,11.3,11.3,0,0,1-10.44-7.35c-0.25-.64-0.68-1.12-2.51-0.45s-1.79,1.32-1.55,2a15.41,15.41,0,0,0,26,5A15.43,15.43,0,0,0,228.24,291.52Zm122.2-12.95a11.7,11.7,0,0,0-10.53,11.82v19.54c0,1.13.86,1.36,2.15,1.36s2.15-.23,2.15-1.36V290.34a7.45,7.45,0,0,1,6.38-7.52,7.12,7.12,0,0,1,5.56,1.82,7.22,7.22,0,0,1,2.37,5.36,8.12,8.12,0,0,1-1.6,4.26,7.32,7.32,0,0,1-6.19,2.93h-0.06c-0.85,0-1.58,0-1.72,2.06-0.09,1.36-.09,2,1.09,2.13a10.48,10.48,0,0,0,6.35-1.22,11.63,11.63,0,0,0,6.32-9.3A11.44,11.44,0,0,0,350.45,278.57ZM379.22,290l8-8c0.29-.29,1-1-0.4-2.38a2.46,2.46,0,0,0-1.59-.92h0a1.23,1.23,0,0,0-.89.43l-8,8-8-8c-0.64-.64-1.4-0.49-2.37.48s-1.15,1.76-.51,2.4l8,8-7.81,7.81-0.06.05a1.27,1.27,0,0,0-.48.92,2.54,2.54,0,0,0,.93,1.64,2.2,2.2,0,0,0,1.47.79h0a1.44,1.44,0,0,0,1-.51l7.84-7.84,8,8a1.18,1.18,0,0,0,.84.33h0a2.34,2.34,0,0,0,1.59-.87c0.9-.94,1-1.73.45-2.34Z" transform="translate(-211.41 -278.35)"/></svg>