<svg id="Layer_1" data-name="Layer 1" xmlns="http://www.w3.org/2000/svg" viewBox="0 0 177.62 41.42"><defs><style>.cls-1{fill:#323232;}</style></defs><title>_bench</title><path class="cls-1" d="M374.32,308.43a14.62,14.62,0,0,1-14.6-14.6v-14.6h29.2v14.6A14.62,14.62,0,0,1,374.32,308.43Zm-11.95-26.55v11.95a11.95,11.95,0,1,0,23.89,0V281.88H362.37Z" transform="translate(-211.3 -279.22)"/><polygon class="cls-1" points="169.65 8.85 156.38 8.85 156.38 11.51 158.19 11.51 157.28 18.86 159.95 18.86 160.87 11.51 165.17 11.51 166.09 18.86 168.76 18.86 167.84 11.51 169.65 11.51 169.65 8.85"/><path class="cls-1" d="M227.23,282.94c8,0,12.21,3.72,12.21,9,0,4.25-3.19,7.44-7.43,8.6v0.11c6.64,1.65,9,5.52,9,9.61,0,5.84-4.25,9.82-12.21,9.82H211.3V319c3.19,0,3.19,0,3.19-3.45V287.45c0-3.45,0-3.45-3.19-3.45v-1.06h15.93ZM224,300.46c4.78,0,6.64-3.19,6.64-8.23,0-4.51-1.86-8.23-5-8.23H223v16.46H224ZM223,301.52V319h3.72c4.25,0,5.58-4.25,5.58-9s-2.39-8.5-7.17-8.5H223Z" transform="translate(-211.3 -279.22)"/><path class="cls-1" d="M243.48,307.1A14,14,0,0,1,257.55,293c6.11,0,11.63,2.65,10,11.68H251.87c0,7.17,4.09,9.82,8.07,9.82a8.5,8.5,0,0,0,8-4.51h0.53c-1.06,5.31-4.78,10.62-11.42,10.62C248.26,320.64,243.48,314.26,243.48,307.1Zm8.39-3.45h7.8c0.9-3.61,1.65-9.56-2.39-9.56C254.26,294.09,252.08,296.9,251.87,303.64Z" transform="translate(-211.3 -279.22)"/><path class="cls-1" d="M290.2,300.46a2.92,2.92,0,0,0-3.19-3.19,8.43,8.43,0,0,0-5.31,2.39v15.93c0,3.45,0,3.45,3.19,3.45v1.06H270V319c3.19,0,3.19,0,3.19-3.45V298.87c0-2.65,0-2.65-2.65-2.65v-0.8L281.44,293h0.42l-0.16,5.57h0.11a11.4,11.4,0,0,1,9.72-5.57c3.56,0,7.17,2.12,7.17,8v14.6c0,3.45,0,3.45,3.19,3.45v1.06h-13.8V319c2.12,0,2.12,0,2.12-3.45V300.46h0Z" transform="translate(-211.3 -279.22)"/><path class="cls-1" d="M318.51,314.53a8.5,8.5,0,0,0,8-4.51H327c-1.06,5.31-4.78,10.62-11.42,10.62-8.76,0-13.54-6.37-13.54-13.54A14,14,0,0,1,316.12,293c6.64,0,10.14,3.24,10.14,6.64,0,1.86-.85,3.72-4,3.72-2.65,0-3.24-1.65-3.19-2.76,0.26-3.88,0-6.53-3.19-6.53-3.72,0-5.42,4.94-5.42,11.1C310.44,312.14,314.53,314.53,318.51,314.53Z" transform="translate(-211.3 -279.22)"/><path class="cls-1" d="M347.61,300.46a2.92,2.92,0,0,0-3.19-3.19,8.44,8.44,0,0,0-5.31,2.39v15.93c0,3.45,0,3.45,3.19,3.45v1.06H327.43V319c3.19,0,3.19,0,3.19-3.45V285.06c0-2.65,0-2.65-2.65-2.65v-0.8l10.73-2.39h0.42V298.6h0.11a11.41,11.41,0,0,1,9.72-5.57c3.56,0,7.17,2.12,7.17,8v14.6c0,3.45,0,3.45,3.19,3.45v1.06H345.48V319c2.12,0,2.12,0,2.12-3.45V300.46h0Z" transform="translate(-211.3 -279.22)"/></svg>