<svg id="Layer_1" data-name="Layer 1" xmlns="http://www.w3.org/2000/svg" xmlns:xlink="http://www.w3.org/1999/xlink" viewBox="0 0 158.96 58.06"><defs><style>.cls-1{fill:url(#linear-gradient);}.cls-2{fill:url(#linear-gradient-2);}</style><linearGradient id="linear-gradient" x1="339.52" y1="323.81" x2="339.52" y2="279.62" gradientUnits="userSpaceOnUse"><stop offset="0" stop-color="#40a9f7"/><stop offset="1" stop-color="#6d90f6"/></linearGradient><linearGradient id="linear-gradient-2" x1="247.23" y1="329.34" x2="247.23" y2="271.27" xlink:href="#linear-gradient"/></defs><title>_flat</title><path class="cls-1" d="M356.13,300.92l-0.75-.71a10.59,10.59,0,0,0-14.8.3c-4.94,4.88-4.8,13.91-1.17,18.71A10.75,10.75,0,0,0,354.2,322c0.63-.42,1.21-0.91,2-1.48V323h5.62V298h-5.65v2.87Zm-0.51,13.76c-1.26,2.83-3.74,4.17-7,3.92a6.7,6.7,0,0,1-5.65-5,30.26,30.26,0,0,1-.53-3,9.75,9.75,0,0,1,1.38-4.84,6.65,6.65,0,0,1,11.65.52A9.58,9.58,0,0,1,355.62,314.69ZM299.71,323h5.87V304.12h13.06v-5.63h-13v-9.58h13.54v-5.56H299.71V323ZM325,323h5.55V279.62H325V323Zm49.85-25v-9.13h-5.69V298h-2.35v5.39h2.42V323H375V303.35h4.37V298H374.9Z" transform="translate(-220.37 -271.27)"/><path class="cls-2" d="M265.83,276.55a16.94,16.94,0,0,0,.94-2,3.52,3.52,0,0,0-2.19-3,3,3,0,0,0-3.42,1.06c-0.2.26-.38,0.55-0.56,0.83L228.69,324a7.86,7.86,0,0,0-.53.93,3.06,3.06,0,1,0,5.52,2.66l10.68-16.94Q255.1,293.6,265.83,276.55ZM232,309.3c1.28-1.91,2.48-3.88,3.71-5.82q8.56-13.57,17.11-27.14a3.19,3.19,0,0,0-.81-4.58,3,3,0,0,0-4.29,1.17q-10.3,16.32-20.57,32.67a10.57,10.57,0,0,0-.73,1.82,3.44,3.44,0,0,0,2.19,3A2.88,2.88,0,0,0,232,309.3Zm35.24-14.16a3.15,3.15,0,0,0-.88-4.51,3,3,0,0,0-4.28,1.2Q251.87,308,241.66,324.29a11.32,11.32,0,0,0-.76,1.88,3.3,3.3,0,0,0,2.74,3.11,3.09,3.09,0,0,0,3.18-1.68q4.38-7,8.8-14Q261.44,304.39,267.26,295.14Zm-26.82-20.71a3.45,3.45,0,0,0-2.22-3,2.91,2.91,0,0,0-3.44,1.18c-1,1.51-2,3.06-2.93,4.6q-5.44,8.63-10.88,17.27a3.18,3.18,0,0,0,.84,4.58,3,3,0,0,0,4.24-1.14q6.85-10.83,13.66-21.69A10.89,10.89,0,0,0,240.45,274.43Zm32.18,27.1a3,3,0,0,0-4.24,1.15q-6.85,10.83-13.66,21.69a10.69,10.69,0,0,0-.71,1.74,3.42,3.42,0,0,0,2.22,3.05,2.9,2.9,0,0,0,3.39-1.13c0.9-1.31,1.72-2.67,2.56-4q5.67-9,11.33-18A3.15,3.15,0,0,0,272.63,301.53Z" transform="translate(-220.37 -271.27)"/></svg>