<svg id="Layer_1" data-name="Layer 1" xmlns="http://www.w3.org/2000/svg" xmlns:xlink="http://www.w3.org/1999/xlink" viewBox="0 0 187.23 70.74"><defs><style>.cls-1{fill:#fff;}.cls-2{fill:#8c929d;}.cls-3{mask:url(#mask);}.cls-4{fill:#fc6d26;}.cls-5{fill:#e24329;}.cls-6{fill:#fca326;}</style><mask id="mask" x="-68.54" y="-56.1" width="311.84" height="182.95" maskUnits="userSpaceOnUse"><g transform="translate(-206.08 -264.78)"><g id="mask-2"><path id="path-1" class="cls-1" d="M137.53,208.68H449.38V391.63H137.53V208.68h0Z"/></g></g></mask></defs><title>_gitlab</title><g id="Page-1"><g id="gitlab_logo" data-name="gitlab logo"><g id="g10"><g id="g12"><path id="path14" class="cls-2" d="M346.26,287.49h-3.4v25.34h13.77v-3.13H346.27v-22.2h0Z" transform="translate(-206.08 -264.78)"/></g><g id="g16"><g id="g18-Clipped"><g class="cls-3"><g id="g18"><g id="g24"><path id="path26" class="cls-2" d="M369.75,308.37a5.8,5.8,0,0,1-4.22,1.78c-2.59,0-3.64-1.28-3.64-2.94,0-2.51,1.74-3.71,5.45-3.71a15.45,15.45,0,0,1,2.4.19v4.68h0ZM366.23,293a11.34,11.34,0,0,0-7.24,2.6l1.2,2.08a10.42,10.42,0,0,1,5.53-1.62c2.78,0,4,1.43,4,3.83v1.24a14.56,14.56,0,0,0-2.36-.19c-6,0-9,2.09-9,6.46,0,3.91,2.4,5.88,6,5.88,2.45,0,4.8-1.12,5.61-2.94l0.62,2.48h2.4v-13c0-4.1-1.78-6.85-6.85-6.85h0Z" transform="translate(-206.08 -264.78)"/></g><g id="g28"><path id="path30" class="cls-2" d="M384.06,310.27a8,8,0,0,1-3.25-.54V298a6.71,6.71,0,0,1,4.41-1.66c3.29,0,4.56,2.32,4.56,6.07,0,5.34-2.05,7.85-5.72,7.85M385.49,293a6.23,6.23,0,0,0-4.68,2.07v-7.6h-3.33V312.2a17.25,17.25,0,0,0,6.42,1.08c6.34,0,9.4-4.06,9.4-11.06,0-5.53-2.82-9.21-7.81-9.21" transform="translate(-206.08 -264.78)"/></g><g id="g32"><path id="path34" class="cls-2" d="M309.26,290.23a9.63,9.63,0,0,1,6.23,2l1.46-2.53a11.37,11.37,0,0,0-7.54-2.69c-7.23,0-12.3,4.41-12.3,13.31,0,9.32,5.47,13,11.72,13a19.83,19.83,0,0,0,7.54-1.47l-0.07-10v-3.13H307v3.13h5.92l0.07,7.56a9.32,9.32,0,0,1-3.95.7c-5,0-8.39-3.16-8.39-9.82s3.48-10.06,8.59-10.06" transform="translate(-206.08 -264.78)"/></g><g id="g36"><path id="path38" class="cls-2" d="M333.2,287.49h-3.33v19c0,4.1,1.78,6.85,6.85,6.85a11.46,11.46,0,0,0,2.05-.18v-3a10.18,10.18,0,0,1-1.55.12c-2.78,0-4-1.43-4-3.83V296.27h5.57v-2.78h-5.57v-6h0Z" transform="translate(-206.08 -264.78)"/></g><path id="path40" class="cls-2" d="M321.43,312.82h3.33V293.48h-3.33v19.34h0Z" transform="translate(-206.08 -264.78)"/><path id="path42" class="cls-2" d="M321.43,290.81h3.33v-3.33h-3.33v3.33h0Z" transform="translate(-206.08 -264.78)"/><g id="g44"><path id="path46" class="cls-4" d="M282.73,305.23L278.43,292l-8.52-26.21a1.46,1.46,0,0,0-2.78,0L258.61,292H230.33l-8.52-26.21a1.46,1.46,0,0,0-2.78,0L210.52,292l-4.3,13.22a2.93,2.93,0,0,0,1.06,3.27l37.19,27,37.19-27a2.93,2.93,0,0,0,1.06-3.27" transform="translate(-206.08 -264.78)"/></g><g id="g48"><path id="path50" class="cls-5" d="M244.47,335.52h0L258.61,292H230.33l14.14,43.52h0Z" transform="translate(-206.08 -264.78)"/></g><g id="g56"><path id="path58" class="cls-4" d="M244.47,335.52L230.33,292H210.52l34,43.52h0Z" transform="translate(-206.08 -264.78)"/></g><g id="g64"><path id="path66" class="cls-6" d="M210.52,292h0l-4.3,13.22a2.93,2.93,0,0,0,1.06,3.27l37.19,27-34-43.52h0Z" transform="translate(-206.08 -264.78)"/></g><g id="g72"><path id="path74" class="cls-5" d="M210.52,292h19.82l-8.52-26.21a1.46,1.46,0,0,0-2.78,0L210.52,292h0Z" transform="translate(-206.08 -264.78)"/></g><g id="g76"><path id="path78" class="cls-4" d="M244.47,335.52L258.61,292h19.82l-34,43.52h0Z" transform="translate(-206.08 -264.78)"/></g><g id="g80"><path id="path82" class="cls-6" d="M278.43,292h0l4.3,13.22a2.93,2.93,0,0,1-1.06,3.27l-37.19,27,34-43.52h0Z" transform="translate(-206.08 -264.78)"/></g><g id="g84"><path id="path86" class="cls-5" d="M278.43,292H258.61l8.52-26.21a1.46,1.46,0,0,1,2.78,0L278.43,292h0Z" transform="translate(-206.08 -264.78)"/></g></g></g></g></g></g></g></g></svg>