<svg id="Layer_1" data-name="Layer 1" xmlns="http://www.w3.org/2000/svg" viewBox="0 0 243.99 55.76"><defs><style>.cls-1{fill:#7fc4f2;}.cls-2{fill:#284375;}.cls-3{fill:#4f8cb7;}</style></defs><title>_influxDB</title><path class="cls-1" d="M186.32,302.59a4.43,4.43,0,0,1-6.22,1,4.47,4.47,0,1,1,6.3-6.15L188,297a3.46,3.46,0,0,1,2.06-2.82L190,292.5a4.49,4.49,0,0,1-1.35-.67,4.59,4.59,0,0,1-1-6.35,4.48,4.48,0,0,1,7.23,5.29,4.5,4.5,0,0,1-1.46,1.31l0.17,2.95a3.39,3.39,0,0,1,.74,2.22l1.64,1.18a4.54,4.54,0,0,1,5,.21,4.47,4.47,0,0,1,1,6.28,4.49,4.49,0,0,1-8-3.67l-1.63-1.18a3.06,3.06,0,0,1-2.36,0l-2.86.76A3.93,3.93,0,0,1,186.32,302.59Z" transform="translate(-178.24 -272.42)"/><path class="cls-1" d="M208.79,313.19a4.54,4.54,0,0,1-5,.21l-1.63,1.18a3.34,3.34,0,0,1-.76,2.23l-0.17,2.93a4.4,4.4,0,0,1,1.47,1.31,4.5,4.5,0,1,1-6.28-1,5.76,5.76,0,0,1,1.35-.67l0.08-1.69a3.5,3.5,0,0,1-2.06-2.81l-1.64-.42a4.11,4.11,0,0,1-1,1.05,4.5,4.5,0,1,1,1-6.28,5,5,0,0,1,.8,1.81l2.86,0.76a3.26,3.26,0,0,1,2.36,0l1.64-1.18A4.48,4.48,0,1,1,208.79,313.19Z" transform="translate(-178.24 -272.42)"/><path class="cls-1" d="M195.74,275.55a4.55,4.55,0,0,1,5.69-2.91,4.47,4.47,0,0,1,2.85,5.67,4.16,4.16,0,0,1-.72,1.35l0.93,1.43a3.41,3.41,0,0,1,3.33,1.1l1.6-.59a5.67,5.67,0,0,1,.21-1.47,4.5,4.5,0,1,1,2.86,5.69,4.3,4.3,0,0,1-1.69-1l-2.74,1.05a3.26,3.26,0,0,1-1.9,1.43l-0.63,1.92a4.57,4.57,0,0,1,1.35,4.8,4.48,4.48,0,0,1-5.67,2.86,4.7,4.7,0,0,1-2.86-5.77,4.48,4.48,0,0,1,3.92-3.08l0.63-1.92a3.12,3.12,0,0,1-.67-2.27l-1.6-2.49A4.48,4.48,0,0,1,195.74,275.55Z" transform="translate(-178.24 -272.42)"/><path class="cls-1" d="M231.89,300.91a4.5,4.5,0,1,1-9,0,5.25,5.25,0,0,1,.41-1.94l-1.84-2.26a3.35,3.35,0,0,1-1.94-1.35h-2a4.26,4.26,0,0,1-4,2.72,4.5,4.5,0,0,1-4.49-4.49,4.45,4.45,0,0,1,4.49-4.47,4.51,4.51,0,0,1,4.13,2.78h2a3.17,3.17,0,0,1,1.94-1.35l1.84-2.27a4.5,4.5,0,1,1,4,2.53,11.18,11.18,0,0,1-2.23-.34l-1.05,1.31a2.65,2.65,0,0,1,.72,3.58l1.05,1.31a4.34,4.34,0,0,1,1.47-.25A4.5,4.5,0,0,1,231.89,300.91Z" transform="translate(-178.24 -272.42)"/><path class="cls-1" d="M231.47,314a4.48,4.48,0,1,1-8.79,1.14l-1.6-.59a3.41,3.41,0,0,1-3.33,1.05L216.82,317a3.69,3.69,0,0,1,.67,1.35,4.55,4.55,0,0,1-2.91,5.69,4.48,4.48,0,1,1-2.72-8.54,4.44,4.44,0,0,1,2-.17l1.6-2.49a3.1,3.1,0,0,1,.72-2.23l-0.63-1.94a4.59,4.59,0,0,1-3.9-3.06,4.48,4.48,0,1,1,8.54-2.74,4.54,4.54,0,0,1-1.35,4.79l0.63,1.94a3.1,3.1,0,0,1,1.9,1.43l2,1a8.15,8.15,0,0,1,2.44-.93A4.55,4.55,0,0,1,231.47,314Z" transform="translate(-178.24 -272.42)"/><path class="cls-2" d="M244.17,282.27v37.19H236V282.27h8.16Z" transform="translate(-178.24 -272.42)"/><path class="cls-2" d="M253.76,292.54v3.74h0.17a8.38,8.38,0,0,1,3.66-3.41,10.44,10.44,0,0,1,4.59-1.05,12.45,12.45,0,0,1,4.88.8,7.45,7.45,0,0,1,3,2.23,8.81,8.81,0,0,1,1.51,3.49,21.86,21.86,0,0,1,.46,4.54v16.57h-7.4V304.23a9.18,9.18,0,0,0-1.05-5c-0.67-1.09-1.94-1.64-3.7-1.64-2,0-3.49.59-4.37,1.81s-1.35,3.16-1.35,5.93V319.5h-7.4V292.58l7,0h0Z" transform="translate(-178.24 -272.42)"/><path class="cls-2" d="M272.27,297.46v-4.92h4.42v-2.1a8.13,8.13,0,0,1,2.23-5.89c1.47-1.51,3.74-2.27,6.77-2.27,0.67,0,1.3,0,2,.08l1.94,0.13V288a18.89,18.89,0,0,0-2.69-.17,2.8,2.8,0,0,0-2.15.72,3.51,3.51,0,0,0-.63,2.36v1.6h5.09v5h-5.09v22h-7.45v-22h-4.42ZM299,282.27v37.19h-7.4V282.27H299Z" transform="translate(-178.24 -272.42)"/><path class="cls-2" d="M319.64,319.46v-3.74h-0.17a8.38,8.38,0,0,1-3.66,3.41,10.44,10.44,0,0,1-4.59,1.05,12.45,12.45,0,0,1-4.88-.8,6.76,6.76,0,0,1-3-2.23,8.81,8.81,0,0,1-1.51-3.49,21.86,21.86,0,0,1-.46-4.54V292.54h7.4v15.23a9.17,9.17,0,0,0,1.05,5,4.07,4.07,0,0,0,3.7,1.64c2,0,3.49-.59,4.37-1.81s1.35-3.16,1.35-5.93V292.54h7.4v26.92h-7Z" transform="translate(-178.24 -272.42)"/><path class="cls-2" d="M328.18,292.54h8.46l4.75,7,4.67-7h8.16l-8.83,12.62,10,14.34H346.9l-5.64-8.5-5.64,8.5h-8.29L337,305.33Z" transform="translate(-178.24 -272.42)"/><path class="cls-3" d="M372.35,282.27a19.25,19.25,0,0,1,6.69,1.14,13.79,13.79,0,0,1,5.34,3.45,15.7,15.7,0,0,1,3.53,5.72,23.26,23.26,0,0,1,1.26,8.08,25,25,0,0,1-1.05,7.49,17,17,0,0,1-3.16,5.93,14.37,14.37,0,0,1-5.26,3.91,17.62,17.62,0,0,1-7.4,1.43h-16V282.27h16.07Zm-0.55,30.29a10.81,10.81,0,0,0,3.45-.59,7.83,7.83,0,0,0,3-1.89,9,9,0,0,0,2.06-3.45,15.63,15.63,0,0,0,.8-5.22,21,21,0,0,0-.55-5.09,10,10,0,0,0-1.81-3.87,8,8,0,0,0-3.32-2.48,13,13,0,0,0-5.09-.84h-5.85v23.43h7.32Z" transform="translate(-178.24 -272.42)"/><path class="cls-3" d="M408.61,282.27a24.22,24.22,0,0,1,4.84.46,10.05,10.05,0,0,1,3.74,1.56,7.22,7.22,0,0,1,2.44,2.82,9.79,9.79,0,0,1,.84,4.37,8,8,0,0,1-1.26,4.67,9,9,0,0,1-3.79,3.07,9.12,9.12,0,0,1,5.13,3.45,10.2,10.2,0,0,1,1.68,6,10.44,10.44,0,0,1-1.09,4.88,9.49,9.49,0,0,1-2.94,3.37,12.84,12.84,0,0,1-4.21,1.94,18.7,18.7,0,0,1-4.88.63h-18V282.27h17.5Zm-1.05,15a5.65,5.65,0,0,0,3.58-1.05,3.9,3.9,0,0,0,1.39-3.37,4.51,4.51,0,0,0-.46-2.15,3.14,3.14,0,0,0-1.26-1.3,5.77,5.77,0,0,0-1.81-.67,11.51,11.51,0,0,0-2.1-.17h-7.66v8.71h8.33ZM408,313.11a13,13,0,0,0,2.27-.21,5.69,5.69,0,0,0,1.94-.8,4.14,4.14,0,0,0,1.35-1.47,5.06,5.06,0,0,0,.5-2.4,4.85,4.85,0,0,0-1.6-4.08,7,7,0,0,0-4.25-1.22h-8.92v10.22H408v0h0Z" transform="translate(-178.24 -272.42)"/><path class="cls-2" d="M203.15,311.13l-0.46.34Z" transform="translate(-178.24 -272.42)"/><polygon class="cls-2" points="46.07 40.98 42.41 39.55 42.37 39.59 46.07 40.98"/><path class="cls-2" d="M214.09,316.56a2.68,2.68,0,0,0,.29.08v0Z" transform="translate(-178.24 -272.42)"/><path class="cls-2" d="M198,313s0,0,.08,0l-0.17.08L193.81,312l0-.38V312l0.13,0h0l4,1.05Z" transform="translate(-178.24 -272.42)"/><path class="cls-2" d="M216.28,318.37c0,0.13.13,0.25,0.17,0.38A1.49,1.49,0,0,0,216.28,318.37Z" transform="translate(-178.24 -272.42)"/><path class="cls-2" d="M198.65,316.68l0.08,0a1.81,1.81,0,0,1-.93-0.38A1.77,1.77,0,0,0,198.65,316.68Z" transform="translate(-178.24 -272.42)"/><path class="cls-2" d="M192.85,314.16a2.94,2.94,0,0,0,.55-0.72l0.25-.42,1.18,0.29L193.6,313A3.15,3.15,0,0,1,192.85,314.16Z" transform="translate(-178.24 -272.42)"/><path class="cls-2" d="M200.12,313.19s0,0,.08,0h0l-0.17-.08,0,0S200.12,313.15,200.12,313.19Z" transform="translate(-178.24 -272.42)"/><path class="cls-2" d="M192.8,314.2a2.11,2.11,0,0,1-.34.29A2.4,2.4,0,0,0,192.8,314.2Z" transform="translate(-178.24 -272.42)"/><polygon class="cls-2" points="21.75 47.96 21.75 48.09 21.96 44.05 21.96 44.05 21.71 47.96 21.75 47.96"/><path class="cls-2" d="M219.14,314.37a2.06,2.06,0,0,1-1,0,2.11,2.11,0,0,0,2.27-.88l-0.08-.25A1.9,1.9,0,0,1,219.14,314.37Z" transform="translate(-178.24 -272.42)"/><path class="cls-2" d="M224.69,288.08l0.17,0.29h0A1.83,1.83,0,0,0,224.69,288.08Z" transform="translate(-178.24 -272.42)"/><path class="cls-2" d="M216.78,294.09h3.58l0.17,0.34c0-.13-0.08-0.21-0.13-0.34V294h-3.62v0.08Z" transform="translate(-178.24 -272.42)"/><path class="cls-2" d="M215.23,317.1l0.13,0.08a2.7,2.7,0,0,1,.88,1.05,2.76,2.76,0,0,0-.5-0.72l-0.34-.34,1.94-3.16-0.08-.08Z" transform="translate(-178.24 -272.42)"/><path class="cls-2" d="M200.84,314.08l2.94-2.15h0l-2.94,2.15h0Z" transform="translate(-178.24 -272.42)"/><path class="cls-2" d="M218.93,303.18a3.24,3.24,0,0,0-3.11-2.27A3.28,3.28,0,0,1,218.93,303.18Z" transform="translate(-178.24 -272.42)"/><path class="cls-2" d="M223.6,295h0a1,1,0,0,0,.38-0.59A1.76,1.76,0,0,1,223.6,295Z" transform="translate(-178.24 -272.42)"/><path class="cls-2" d="M218.46,310.63h0l-1.14-3.49h0l1.18,3.49h0Z" transform="translate(-178.24 -272.42)"/><polygon class="cls-2" points="47.37 16.62 47.33 16.58 46.07 18.09 47.37 16.62"/><polygon class="cls-2" points="25.88 17.04 26.97 13.63 25.83 17.04 25.88 17.04"/><path class="cls-2" d="M192.21,291.28h0l0.38-.13Z" transform="translate(-178.24 -272.42)"/><path class="cls-2" d="M185.32,298a1.83,1.83,0,0,0-.25-0.29C185.15,297.75,185.23,297.88,185.32,298Z" transform="translate(-178.24 -272.42)"/><path class="cls-2" d="M184.64,297.29a1,1,0,0,1,.29.29A1,1,0,0,0,184.64,297.29Z" transform="translate(-178.24 -272.42)"/><path class="cls-2" d="M199,320.3v0.08l-0.42.08a1.43,1.43,0,0,1,.42,0V320.3Z" transform="translate(-178.24 -272.42)"/><path class="cls-2" d="M207.15,284.84s0,0,0,.08Z" transform="translate(-178.24 -272.42)"/><path class="cls-2" d="M192.59,295.65l-0.08,0S192.55,295.65,192.59,295.65Z" transform="translate(-178.24 -272.42)"/><path class="cls-2" d="M186,299.81h0a1,1,0,0,0,0,.34Z" transform="translate(-178.24 -272.42)"/><path class="cls-2" d="M200.84,280.09l0.38-.08,0,0Z" transform="translate(-178.24 -272.42)"/><path class="cls-2" d="M207.06,283.16h0A0.22,0.22,0,0,0,207,283v0Z" transform="translate(-178.24 -272.42)"/><path class="cls-2" d="M197.43,305.41a2.71,2.71,0,0,0,.84.13,0.93,0.93,0,0,1-.34,0A2.11,2.11,0,0,1,197.43,305.41Z" transform="translate(-178.24 -272.42)"/><path class="cls-2" d="M204.54,282.31h0s0.08,0,.08,0A0.15,0.15,0,0,1,204.54,282.31Z" transform="translate(-178.24 -272.42)"/><path class="cls-2" d="M185.53,298.3l-0.21-.34v0c0,0.08.13,0.17,0.17,0.25Z" transform="translate(-178.24 -272.42)"/><path class="cls-2" d="M196,299.9h0l-2.9-2.1,0-.25a0.6,0.6,0,0,1-.08.25Z" transform="translate(-178.24 -272.42)"/><path class="cls-2" d="M185.78,298.81h0l0.93-.21-0.93.21-0.17-.38v0C185.65,298.59,185.74,298.68,185.78,298.81Z" transform="translate(-178.24 -272.42)"/><polygon class="cls-2" points="14.18 23.1 13.97 18.89 13.97 18.98 13.93 18.98 14.18 23.1"/><path class="cls-2" d="M224.94,298.76l-2.61-3.16-0.25,0H222l0.17,0,2.65,3.24,0.13-.08h0Z" transform="translate(-178.24 -272.42)"/><path class="cls-2" d="M192.34,298.68l0.13-.08h0S192.38,298.64,192.34,298.68Z" transform="translate(-178.24 -272.42)"/><path class="cls-2" d="M189.77,310.75a1.34,1.34,0,0,1,1.85.29,1,1,0,0,1,.21.42l0.67,0.17a2.12,2.12,0,0,0-.38-1,2,2,0,0,0-2.73-.42,2,2,0,1,0,2.27,3.2,2.21,2.21,0,0,0,.67-0.84l-0.63-.17v0a1.31,1.31,0,0,1-.38.46,1.38,1.38,0,0,1-1.89-.29,1.33,1.33,0,0,1,.13-1.68A0.51,0.51,0,0,1,189.77,310.75Z" transform="translate(-178.24 -272.42)"/><path class="cls-2" d="M197.22,313.95s0,0.13-.08.17,0-.13.08-0.17h0Z" transform="translate(-178.24 -272.42)"/><path class="cls-2" d="M189.44,312.65a1.38,1.38,0,0,0,1.89.29,1.31,1.31,0,0,0,.38-0.46v0h0a1.31,1.31,0,0,1-.38.46,1.34,1.34,0,0,1-1.85-.29,1.27,1.27,0,0,1,.08-1.64A1.33,1.33,0,0,0,189.44,312.65Z" transform="translate(-178.24 -272.42)"/><path class="cls-2" d="M198.19,324.68a1.23,1.23,0,0,0,1.18.29A1.37,1.37,0,0,1,198.19,324.68Z" transform="translate(-178.24 -272.42)"/><path class="cls-2" d="M197.94,322.11a2,2,0,0,0-.42,2.73,1.87,1.87,0,0,0,2.69.42,2,2,0,0,0,.46-2.73,1.91,1.91,0,0,0-.8-0.63l0,0.72a1.13,1.13,0,0,1,.34.29,1.34,1.34,0,0,1-.29,1.85,1.56,1.56,0,0,1-.46.21,1.31,1.31,0,0,1-1.18-.29,0.42,0.42,0,0,1-.17-0.21,1.34,1.34,0,0,1,.29-1.85,1.24,1.24,0,0,1,.55-0.21l0-.67A2.11,2.11,0,0,0,197.94,322.11Z" transform="translate(-178.24 -272.42)"/><path class="cls-2" d="M193.14,310a3.41,3.41,0,0,0-2.73-1.35A3.41,3.41,0,0,1,193.14,310Z" transform="translate(-178.24 -272.42)"/><path class="cls-2" d="M200.12,313.19h0S200.12,313.15,200.12,313.19Z" transform="translate(-178.24 -272.42)"/><path class="cls-2" d="M204.25,306.92a3.61,3.61,0,0,1,1.81-.63A3.61,3.61,0,0,0,204.25,306.92Z" transform="translate(-178.24 -272.42)"/><path class="cls-2" d="M209.8,306.93a4.48,4.48,0,0,0-8,3.65l-1.64,1.18a3.26,3.26,0,0,0-2.36,0l-2.86-.76a5,5,0,0,0-.8-1.81,4.49,4.49,0,1,0-1,6.28,4.11,4.11,0,0,0,1-1.05l1.64,0.42a3.5,3.5,0,0,0,2.06,2.81l-0.08,1.69a5.76,5.76,0,0,0-1.35.67,4.49,4.49,0,1,0,6.28,1,4.4,4.4,0,0,0-1.47-1.31l0.17-2.93a3.34,3.34,0,0,0,.76-2.23l1.63-1.18a4.54,4.54,0,0,0,5-.21A4.46,4.46,0,0,0,209.8,306.93Zm-1.73,5.25a3.21,3.21,0,0,1-4.21-.34l-0.08.08-2.93,2.15a1.92,1.92,0,0,1-.63,2.19v0.21l-0.21,3.9h0v0.17a3.17,3.17,0,0,1,1.77,1.22,3.26,3.26,0,0,1-5.27,3.83,3.28,3.28,0,0,1,.72-4.55l0,0,0.15-.1a1.93,1.93,0,0,1,.45-0.22l0.13-.06a2.11,2.11,0,0,1,.28-0.08c0.08,0,.21,0,0.29-0.08h0l0.38-.08V320.3l0.21-3.65h-0.46l-0.07,0h0a1.36,1.36,0,0,1-.6-0.27,1.32,1.32,0,0,1-.17-0.13l-0.07-.07,0,0,0,0a1.14,1.14,0,0,1-.29-0.34,2,2,0,0,1-.29-1.73s0-.13,0-0.17l-2.4-.63L194,313.1l-0.41-.1h0l-0.25.42a2.32,2.32,0,0,1-.55.72,3.53,3.53,0,0,0,.76-1.18h0a3.3,3.3,0,0,1-1.14,1.52,3.26,3.26,0,0,1-3.83-5.27,3.61,3.61,0,0,1,1.81-.63,3.12,3.12,0,0,1,1.94.58,3.38,3.38,0,0,1,.28.2,4.09,4.09,0,0,1,.52.58,3.29,3.29,0,0,1,.59,2.06l0.11,0-0.07,0v-0.38l0,0.38h0.08l4,1,0.08,0-0.08.06,0,0h0.07a2,2,0,0,1,2.12,0l0.17,0.08,2.44-1.77L203,311l0.13-.08a3.23,3.23,0,0,1,1-4.11,3.61,3.61,0,0,1,1.81-.63,3.21,3.21,0,0,1,2.74,1.33,4.54,4.54,0,0,1,.51,1A3.08,3.08,0,0,1,208.07,312.18Z" transform="translate(-178.24 -272.42)"/><path class="cls-2" d="M192.85,314.16h0Z" transform="translate(-178.24 -272.42)"/><path class="cls-2" d="M197.22,321a1.05,1.05,0,0,1,.29-0.17,2.57,2.57,0,0,1,.72-0.29A2.77,2.77,0,0,0,197.22,321Z" transform="translate(-178.24 -272.42)"/><path class="cls-2" d="M208.79,307.64a5.65,5.65,0,0,1,.5,1A4.53,4.53,0,0,0,208.79,307.64Z" transform="translate(-178.24 -272.42)"/><path class="cls-2" d="M207.06,308.82a1.17,1.17,0,0,1-.25,1.68s-0.08,0-.13.08,0.13,0,.17-0.08a1.2,1.2,0,0,0,.21-1.68,0.71,0.71,0,0,0-.25-0.25Z" transform="translate(-178.24 -272.42)"/><path class="cls-2" d="M206.52,310.67s0,0,.08,0A0.13,0.13,0,0,0,206.52,310.67Z" transform="translate(-178.24 -272.42)"/><path class="cls-2" d="M205,308.06a1.94,1.94,0,0,0-.67,2.15l0.55-.42a1.24,1.24,0,0,1,.46-1.22,1.14,1.14,0,0,1,1.43,0,1.83,1.83,0,0,1,.29.25,1.25,1.25,0,0,1-.25,1.68s-0.13,0-.17.08,0,0-.08,0,0,0-.08,0a1.21,1.21,0,0,1-1-.08L205,311A1.85,1.85,0,1,0,205,308.06Z" transform="translate(-178.24 -272.42)"/><path class="cls-2" d="M214.26,318.91s0-.08-0.08-0.13v0A0.16,0.16,0,0,1,214.26,318.91Z" transform="translate(-178.24 -272.42)"/><path class="cls-2" d="M227.55,316.47a0.53,0.53,0,0,1-.25,0A0.53,0.53,0,0,0,227.55,316.47Z" transform="translate(-178.24 -272.42)"/><path class="cls-2" d="M218.93,303.18a3.28,3.28,0,0,0-3.11-2.27h0A3.28,3.28,0,0,1,218.93,303.18Z" transform="translate(-178.24 -272.42)"/><path class="cls-2" d="M224.4,313.44l-0.08,0h0l0.08,0h0Z" transform="translate(-178.24 -272.42)"/><path class="cls-2" d="M225.87,315.63a0.92,0.92,0,0,1,0-.59l-0.63-.25a1.8,1.8,0,0,0,0,1.05,2,2,0,0,0,2.48,1.26,2,2,0,0,0,1.3-2.52,2,2,0,0,0-2.48-1.26,1.93,1.93,0,0,0-.88.59l0.67,0.25a1.1,1.1,0,0,1,.38-0.21,1.35,1.35,0,0,1,1.68.84,1.29,1.29,0,0,1-.84,1.68,0.53,0.53,0,0,1-.25,0A1.27,1.27,0,0,1,225.87,315.63Z" transform="translate(-178.24 -272.42)"/><path class="cls-2" d="M219.78,311l-0.13-.08,0.22,0.18A0.33,0.33,0,0,0,219.78,311ZM231.47,314a4.55,4.55,0,0,0-5.69-2.91,8.15,8.15,0,0,0-2.44.93l-2-1a3.1,3.1,0,0,0-1.9-1.43l-0.63-1.94a4.54,4.54,0,0,0,1.35-4.79,4.48,4.48,0,1,0-8.54,2.74,4.59,4.59,0,0,0,3.9,3.06l0.63,1.94a3.1,3.1,0,0,0-.72,2.23l-1.6,2.49a4.48,4.48,0,0,0-4.87,5.8,4.48,4.48,0,0,0,5.63,2.91,4.55,4.55,0,0,0,2.91-5.69,3.69,3.69,0,0,0-.67-1.35l0.93-1.42a3.41,3.41,0,0,0,3.33-1.05l1.6,0.59A4.48,4.48,0,1,0,231.47,314Zm-17.22,2.61h0l-0.13,0A1,1,0,0,0,214.25,316.61Zm13.85,1.71a3.26,3.26,0,0,1-4.13-4l-3.52-1.39c0,0.13-.08.21-0.13,0.34l0.08,0.25a2.12,2.12,0,0,1-2.27.88,2.35,2.35,0,0,1-.8-0.38l-1.94,3.15,0.15,0.15-0.2-.15-0.13-.08,0,0a3.2,3.2,0,0,1,1.1,1.56,3.24,3.24,0,1,1-4.07-2.09,3.36,3.36,0,0,1,2.13.08l0,0,2.32-3.58a1.88,1.88,0,0,1,.8-2.15l-1.14-3.58a3.18,3.18,0,0,1-3.61-2.18,3.29,3.29,0,0,1,2.09-4.09,3.9,3.9,0,0,1,1-.17,3.46,3.46,0,0,1,1,.15,3.2,3.2,0,0,1,1.31.79l0.8,1.33a3.22,3.22,0,0,1-1.64,3.9v0h0l1.14,3.45,0.34,0h-0.24a2,2,0,0,1,1.1.34l0.22,0.18a2.06,2.06,0,0,1,.48.74l0.25,0.13,0,0,3.65,1.43,0.08,0a3.4,3.4,0,0,1,1.73-1.31A3.24,3.24,0,1,1,228.1,318.32Zm-12.24-.67h0a0.48,0.48,0,0,0-.08-0.08Z" transform="translate(-178.24 -272.42)"/><polygon class="cls-2" points="46.15 41.02 46.07 40.98 46.07 40.98 46.15 41.02"/><path class="cls-2" d="M212,320.13a1.37,1.37,0,0,1,.72-1.64,1.38,1.38,0,0,0-.76,1.64,1.42,1.42,0,0,0,1.18.88A1.31,1.31,0,0,1,212,320.13Z" transform="translate(-178.24 -272.42)"/><path class="cls-2" d="M215.48,303a1.12,1.12,0,0,0-.8,1.09,1.34,1.34,0,0,1,.8-1.09,1.25,1.25,0,0,1,1.51.8v0A1.19,1.19,0,0,0,215.48,303Z" transform="translate(-178.24 -272.42)"/><path class="cls-2" d="M214.55,319.59c0-.08,0-0.21,0-0.29a0.15,0.15,0,0,0,0-.08,0.15,0.15,0,0,1,0,.13A0.53,0.53,0,0,1,214.55,319.59Z" transform="translate(-178.24 -272.42)"/><path class="cls-2" d="M215,305l-0.08-.08A0.16,0.16,0,0,1,215,305Z" transform="translate(-178.24 -272.42)"/><path class="cls-2" d="M214.93,304.95a0.22,0.22,0,0,1-.08-0.13,0.62,0.62,0,0,1-.08-0.17s0,0,0-.08a0.91,0.91,0,0,1,0-.46,1.29,1.29,0,0,1,.8-1.09,1.19,1.19,0,0,1,1.51.76v0.08a1.27,1.27,0,0,1-.34,1.22l0.21,0.63a1.85,1.85,0,0,0,.76-2.1,1.81,1.81,0,0,0-2.31-1.18,1.84,1.84,0,0,0-1.18,2.31,2,2,0,0,0,1.81,1.35l-0.21-.67A1.2,1.2,0,0,1,215,305,0.16,0.16,0,0,0,214.93,304.95Z" transform="translate(-178.24 -272.42)"/><path class="cls-2" d="M216.23,318.24s0,0.08,0,.13S216.23,318.28,216.23,318.24Z" transform="translate(-178.24 -272.42)"/><path class="cls-2" d="M214.26,318.91a0.68,0.68,0,0,1,.17.29,0.15,0.15,0,0,0,0,.08,0.72,0.72,0,0,1,0,.29,1.33,1.33,0,0,1-.88,1.39,1.21,1.21,0,0,1-.55,0,1.37,1.37,0,0,1-1.18-.88,1.35,1.35,0,0,1,.76-1.64,0.15,0.15,0,0,1,.13,0h0.08c0.08,0,.21,0,0.29,0h0l0.38-.59a1.8,1.8,0,0,0-1.05,0,2,2,0,1,0,2.48,1.26,2.43,2.43,0,0,0-.55-0.84l-0.38.5A0.19,0.19,0,0,1,214.26,318.91Z" transform="translate(-178.24 -272.42)"/><path class="cls-2" d="M214.76,304.65a0.62,0.62,0,0,1,.08.17A0.62,0.62,0,0,1,214.76,304.65Z" transform="translate(-178.24 -272.42)"/><path class="cls-2" d="M224.35,285.34c0,0.21-.08.42-0.13,0.59A1.65,1.65,0,0,1,224.35,285.34Z" transform="translate(-178.24 -272.42)"/><path class="cls-2" d="M224.35,285.34a3.23,3.23,0,0,1,1-1.47,3.28,3.28,0,0,0-1.14,2.44V286A3.5,3.5,0,0,1,224.35,285.34Z" transform="translate(-178.24 -272.42)"/><path class="cls-2" d="M227.42,302.93a2,2,0,0,0,0-4,1.76,1.76,0,0,0-1,.29l0.38,0.46h0a1.34,1.34,0,0,1,.59-0.13,1.33,1.33,0,0,1,1.35,1.35,1.31,1.31,0,0,1-1.3,1.3h0a1.31,1.31,0,0,1-1.3-1.3,1.51,1.51,0,0,1,.08-0.46l-0.46-.55a2,2,0,0,0-.29,1A2,2,0,0,0,227.42,302.93Z" transform="translate(-178.24 -272.42)"/><path class="cls-2" d="M213.46,292.37a1.16,1.16,0,0,1,1.09.72h0.67a1.84,1.84,0,1,0-1.77,2.36,1.8,1.8,0,0,0,1.77-1.39h-0.67v0a1.25,1.25,0,0,1-1.09.72,1.19,1.19,0,0,1-1.18-1.22h0v0A1.18,1.18,0,0,1,213.46,292.37Z" transform="translate(-178.24 -272.42)"/><path class="cls-2" d="M228.77,286.31a1.45,1.45,0,0,0-1.3-1.39,1.28,1.28,0,0,0-1.18.84,1.32,1.32,0,0,1,1.14-.72,1.25,1.25,0,0,1,.93,2.19A1.21,1.21,0,0,0,228.77,286.31Z" transform="translate(-178.24 -272.42)"/><path class="cls-2" d="M227.42,287.66a2.41,2.41,0,0,1-.59-0.17l-0.42.5a1.68,1.68,0,0,0,1,.29,2,2,0,0,0,2-2,2,2,0,0,0-2-2,2,2,0,0,0-2,2,2,2,0,0,0,.29,1l0.46-.55a1.24,1.24,0,0,1-.08-0.42,1,1,0,0,1,.17-0.59,1.33,1.33,0,0,1,1.18-.84,1.45,1.45,0,0,1,1.3,1.39A1.45,1.45,0,0,1,227.42,287.66Z" transform="translate(-178.24 -272.42)"/><path class="cls-2" d="M227.42,299.65a1.3,1.3,0,0,1,0,2.61h0a1.31,1.31,0,0,0,1.3-1.3,1.27,1.27,0,0,0-1.35-1.3,0.93,0.93,0,0,0-.59.08h0l0,0A1.34,1.34,0,0,1,227.42,299.65Z" transform="translate(-178.24 -272.42)"/><path class="cls-2" d="M210.43,294.84h0l0.13,0.24Zm16.95,1.57a4.34,4.34,0,0,0-1.47.25l-1.05-1.31a2.65,2.65,0,0,0-.72-3.58l1.05-1.31a11.18,11.18,0,0,0,2.23.34,4.37,4.37,0,1,0-4-2.53l-1.84,2.27a3.17,3.17,0,0,0-1.94,1.35h-2a4.51,4.51,0,0,0-4.13-2.78,4.45,4.45,0,0,0-4.49,4.47,4.5,4.5,0,0,0,4.49,4.49,4.26,4.26,0,0,0,4-2.72h2a3.35,3.35,0,0,0,1.94,1.35L223.3,299a5.25,5.25,0,0,0-.41,1.94A4.5,4.5,0,1,0,227.38,296.41Zm-16.75-1.21a3.26,3.26,0,0,0,2.45,1.62A3.14,3.14,0,0,1,210.64,295.2Zm13.94,7.26a3.29,3.29,0,0,0,2.53,1.67A3.13,3.13,0,0,1,224.57,302.47Zm2.89,1.56a3.24,3.24,0,0,1-2.65-5.1l0,0,0,0-2.64-3.23-0.17,0h0.08l0.25,0-0.13-.17A1.94,1.94,0,0,1,220.4,294v0.08c0,0.13.08,0.21,0.13,0.34l-0.17-.34h-3.58l0-.08h-0.08a3.31,3.31,0,0,1-3.24,2.78,3.25,3.25,0,0,1-2.79-1.62c0-.08-0.1-0.15-0.14-0.24l0-.1a2.53,2.53,0,0,1-.11-0.29,2,2,0,0,1-.07-0.31,3.25,3.25,0,0,1-.07-0.65v0a3.22,3.22,0,0,1,3.23-3.24,3.29,3.29,0,0,1,3.2,2.78h3.75a2,2,0,0,1,1.81-1.43l2.68-3.29-0.17-.29,0.08,0.13,0.13,0.13a3.08,3.08,0,0,1-.72-2,3.17,3.17,0,0,1,0-.37s0-.08,0-0.13a0.7,0.7,0,0,1,0-.17,3,3,0,0,1,.76-1.47,0.17,0.17,0,0,1,.07-0.07,1.28,1.28,0,0,1,.24-0.24,4,4,0,0,1,2.15-.93,3.24,3.24,0,1,1,0,6.47,3.28,3.28,0,0,1-1.81-.55l-0.08.13,0,0-1.31,1.47-1.05,1.31a1.9,1.9,0,0,1,.76,2.53v0.06h0s0,0,0,0a0.07,0.07,0,0,1,0,0,1.12,1.12,0,0,1-.11.22l-0.08.14s0,0,0,0a0.39,0.39,0,0,1-.1.13h0l-0.06.06a1,1,0,0,0-.2.15l2.32,2.85a3.28,3.28,0,0,1,1.81-.55A3.24,3.24,0,1,1,227.47,304Z" transform="translate(-178.24 -272.42)"/><path class="cls-2" d="M224,294.43a0.08,0.08,0,0,1,0-.08l0,0.08h0Z" transform="translate(-178.24 -272.42)"/><path class="cls-2" d="M213.46,294.81a1.25,1.25,0,0,0,1.09-.72v0h0a1.17,1.17,0,0,1-2.27-.46h0A1.19,1.19,0,0,0,213.46,294.81Z" transform="translate(-178.24 -272.42)"/><path class="cls-2" d="M224.19,300.91a3.19,3.19,0,0,0,3.24,3.24A3.24,3.24,0,0,1,224.19,300.91Z" transform="translate(-178.24 -272.42)"/><path class="cls-2" d="M213.42,296.83a3.27,3.27,0,0,1-3.24-3.24A3.21,3.21,0,0,0,213.42,296.83Z" transform="translate(-178.24 -272.42)"/><path class="cls-2" d="M226,289.26l-0.42-.21a3.5,3.5,0,0,0,1.81.55A3.74,3.74,0,0,1,226,289.26Z" transform="translate(-178.24 -272.42)"/><path class="cls-2" d="M224.94,298.76l-0.13.08,0,0A0.22,0.22,0,0,1,224.94,298.76Z" transform="translate(-178.24 -272.42)"/><path class="cls-2" d="M223.26,295.15l0.08,0.08a1.12,1.12,0,0,0,.25-0.21l-0.25,0A0.16,0.16,0,0,1,223.26,295.15Z" transform="translate(-178.24 -272.42)"/><path class="cls-2" d="M223.34,295.1l0.25,0a2.36,2.36,0,0,0,.42-0.63v0A2.18,2.18,0,0,1,223.34,295.1Z" transform="translate(-178.24 -272.42)"/><path class="cls-2" d="M207.23,283.66h0a1.2,1.2,0,0,0-.17-0.5h0A2.37,2.37,0,0,1,207.23,283.66Z" transform="translate(-178.24 -272.42)"/><path class="cls-2" d="M199.62,278.15a1.32,1.32,0,0,1-.84-1.64,1.42,1.42,0,0,1,1.18-.88,1.43,1.43,0,0,0-1.22.88,1.32,1.32,0,0,0,1.3,1.72h0l0,0A0.73,0.73,0,0,1,199.62,278.15Z" transform="translate(-178.24 -272.42)"/><path class="cls-2" d="M202.1,291.44a0.62,0.62,0,0,1,.17-0.08A0.6,0.6,0,0,1,202.1,291.44Z" transform="translate(-178.24 -272.42)"/><path class="cls-2" d="M202,291.49a0.92,0.92,0,0,0-.38.42A1.19,1.19,0,0,1,202,291.49Z" transform="translate(-178.24 -272.42)"/><path class="cls-2" d="M207.06,283.16h0s0,0,0-.08A0.15,0.15,0,0,0,207.06,283.16Z" transform="translate(-178.24 -272.42)"/><path class="cls-2" d="M201.3,277.35a1.51,1.51,0,0,1-.34.5A1,1,0,0,0,201.3,277.35Z" transform="translate(-178.24 -272.42)"/><polygon class="cls-2" points="28.9 12.41 28.95 12.37 28.95 12.37 28.9 12.41"/><path class="cls-2" d="M203.78,292.87a1.2,1.2,0,0,1-2.27-.76c0-.08.08-0.13,0.13-0.21a1.81,1.81,0,0,1,.38-0.42s0,0,.08,0a0.62,0.62,0,0,1,.17-0.08c0.08,0,.17,0,0.25-0.08l0.21-.63a1.86,1.86,0,0,0-1.85,1.26,1.84,1.84,0,1,0,2.78-1l-0.21.67A1.26,1.26,0,0,1,203.78,292.87Z" transform="translate(-178.24 -272.42)"/><path class="cls-2" d="M203.15,277.94a3.32,3.32,0,0,1-.76,1.22l-0.34.34h0A3.4,3.4,0,0,0,203.15,277.94Z" transform="translate(-178.24 -272.42)"/><path class="cls-2" d="M215.31,277.27a4.46,4.46,0,0,0-5.67,2.85,5.67,5.67,0,0,0-.21,1.47l-1.6.59a3.41,3.41,0,0,0-3.33-1.1l-0.93-1.43a4.16,4.16,0,0,0,.72-1.35,4.47,4.47,0,0,0-2.85-5.67,4.55,4.55,0,0,0-5.69,2.91,4.48,4.48,0,0,0,4.89,5.8l1.6,2.49a3.12,3.12,0,0,0,.67,2.27L202.27,288a4.48,4.48,0,0,0-3.92,3.08,4.7,4.7,0,0,0,2.86,5.77,4.48,4.48,0,0,0,5.67-2.86,4.57,4.57,0,0,0-1.35-4.8l0.63-1.92a3.26,3.26,0,0,0,1.9-1.43l2.74-1.05a4.3,4.3,0,0,0,1.69,1A4.49,4.49,0,0,0,215.31,277.27ZM217,282.4a3.28,3.28,0,0,1-4.11,2.11,3,3,0,0,1-1.73-1.31l-4,1.56h0a2,2,0,0,1-1.94,1.26l-0.37,1.14-0.73,2.26h0l0,0.13a3.24,3.24,0,0,1,1.64,3.92,3.39,3.39,0,0,1-2.12,2.08,3.3,3.3,0,0,0,1.38-.79,3.21,3.21,0,0,1-2.36.94h0.08l-0.42,0-0.67-.13a3.3,3.3,0,0,1-2.06-4.13,3.24,3.24,0,0,1,3.62-2.19l1.17-3.52a2,2,0,0,1-.87-1.6,1.85,1.85,0,0,1,.08-0.55L201.22,280l-0.38.08,0.34-.13a3.22,3.22,0,0,1-1.15.21,3,3,0,0,1-1-.17,2.05,2.05,0,0,1-.29-0.13,3.26,3.26,0,1,1,4.38-2,3.2,3.2,0,0,1-1.1,1.56l0,0.08,2,3.12a1.74,1.74,0,0,1,.46-0.29,0.15,0.15,0,0,0,.08,0l0.21-.08h0a2,2,0,0,1,1.1,0,1.69,1.69,0,0,1,1,.84l0.08,0.08a0.5,0.5,0,0,1,.06.13,1,1,0,0,1,.15.34l3.5-1.39v0a3.1,3.1,0,0,1,0-1.85A3.28,3.28,0,0,1,217,282.4Z" transform="translate(-178.24 -272.42)"/><path class="cls-2" d="M215.18,281.85a1.29,1.29,0,0,0-.84-1.64A1.32,1.32,0,0,1,215.18,281.85Z" transform="translate(-178.24 -272.42)"/><path class="cls-2" d="M202.23,295.69a3.3,3.3,0,0,0,3.53-2.19,3.35,3.35,0,0,1-3.2,2.23A0.82,0.82,0,0,1,202.23,295.69Z" transform="translate(-178.24 -272.42)"/><path class="cls-2" d="M201.3,277.35a1.32,1.32,0,0,0-.84-1.68A1.37,1.37,0,0,1,201.3,277.35Z" transform="translate(-178.24 -272.42)"/><path class="cls-2" d="M214.34,280.21a1.31,1.31,0,0,0-1.68.8,0.84,0.84,0,0,0,0,.46c0-.13,0-0.25,0-0.42A1.39,1.39,0,0,1,214.34,280.21Z" transform="translate(-178.24 -272.42)"/><path class="cls-2" d="M213.54,282.69a0.44,0.44,0,0,1-.21-0.08,1.29,1.29,0,0,0,1.72-.5A1.34,1.34,0,0,1,213.54,282.69Z" transform="translate(-178.24 -272.42)"/><path class="cls-2" d="M201.89,277.52a2,2,0,0,0-1.26-2.48,2.08,2.08,0,0,0-2.52,1.22,2,2,0,0,0,1.26,2.48,1.81,1.81,0,0,0,1.05,0l-0.34-.55h0a1.32,1.32,0,0,1-1.3-1.72,1.43,1.43,0,0,1,1.22-.88,2,2,0,0,1,.5,0,1.32,1.32,0,0,1,.84,1.68,1,1,0,0,1-.34.5l0.34,0.55A2,2,0,0,0,201.89,277.52Z" transform="translate(-178.24 -272.42)"/><path class="cls-2" d="M213.29,283.32a2,2,0,1,0,1.22-3.74,2,2,0,0,0-2.48,1.26,3,3,0,0,0,0,1.05l0.63-.25v-0.17c0-.17,0-0.34,0-0.46a1.31,1.31,0,0,1,1.68-.8,1.29,1.29,0,0,1,.84,1.64l-0.13.25a1.29,1.29,0,0,1-1.72.5,0.92,0.92,0,0,1-.21-0.13l-0.67.25A2,2,0,0,0,213.29,283.32Z" transform="translate(-178.24 -272.42)"/><path class="cls-2" d="M192.13,287.07a1.3,1.3,0,0,1,0,2.15l0,0,0,0.67a1.95,1.95,0,0,0,.38-3.37,2,2,0,1,0-2.31,3.16,2.56,2.56,0,0,0,1,.38l0-.67a1,1,0,0,1-.55-0.21,1.34,1.34,0,0,1-.29-1.85,1.36,1.36,0,0,1,1.14-.55A1.26,1.26,0,0,1,192.13,287.07Z" transform="translate(-178.24 -272.42)"/><path class="cls-2" d="M190.62,295.27a0.08,0.08,0,0,0,.08,0s0.13,0,.17,0h0a1,1,0,0,1,.5,0v0a1.56,1.56,0,0,0-1.14.29l0.25-.13A0.08,0.08,0,0,1,190.62,295.27Z" transform="translate(-178.24 -272.42)"/><path class="cls-2" d="M192.38,288.92a1.13,1.13,0,0,1-.34.29v0l0,0a1.3,1.3,0,0,0,0-2.15,1.26,1.26,0,0,0-.76-0.25,1.14,1.14,0,0,1,.72.25A1.34,1.34,0,0,1,192.38,288.92Z" transform="translate(-178.24 -272.42)"/><path class="cls-2" d="M185.53,298.34h0a0.13,0.13,0,0,1,0-.08A0.15,0.15,0,0,1,185.53,298.34Z" transform="translate(-178.24 -272.42)"/><path class="cls-2" d="M185.61,298.47c0,0.13.13,0.25,0.17,0.38h0v0C185.74,298.68,185.65,298.59,185.61,298.47Z" transform="translate(-178.24 -272.42)"/><path class="cls-2" d="M197.85,305.48a3,3,0,0,1-.59-0.14l0.17,0.07,0.25,0.06,0.21,0h0Zm-5.42-9.91,0,0,0.07,0a0,0,0,0,1,0,0Zm-0.07,3.08,0.08,0h0Zm-0.15-6.87,0.18,3.75,0,0v0Zm-6.52,6.88,0.08,0.14a0.33,0.33,0,0,0-.08-0.15h0Zm-0.63-1-0.07-.06v0l-0.14-.14a0.46,0.46,0,0,0,.08.11s0,0,0,0h0a0.05,0.05,0,0,1,0,0s0,0,0,0,0,0,0,0a1.64,1.64,0,0,1,.29.34v0l-0.13-.17A1.08,1.08,0,0,1,185.06,297.66Zm16,1a4.54,4.54,0,0,0-5-.21l-1.64-1.18a3.39,3.39,0,0,0-.74-2.22l-0.17-2.95a4.52,4.52,0,0,0,.49-7.57,4.45,4.45,0,0,0-6.26,1,4.59,4.59,0,0,0,1,6.35,4.49,4.49,0,0,0,1.35.67l0.08,1.69A3.46,3.46,0,0,0,188,297l-1.64.41a4.53,4.53,0,0,0-1.05-1.08,4.47,4.47,0,1,0,1,6.26,3.93,3.93,0,0,0,.8-1.81L190,300a3.06,3.06,0,0,0,2.36,0l1.63,1.18a4.49,4.49,0,0,0,8,3.67A4.47,4.47,0,0,0,201,298.63Zm0,5.56a3.19,3.19,0,0,1-2.74,1.35H198.1a1.45,1.45,0,0,1-.42-0.06l0.21,0h0a3,3,0,0,1-.59-0.14l0.17,0.07a1.77,1.77,0,0,1-.25-0.08,0.73,0.73,0,0,1-.27-0.11h0a1.06,1.06,0,0,1-.24-0.14,1.46,1.46,0,0,1-.24-0.17,3.29,3.29,0,0,1-1-4.13l-3-2.18h0l-0.07.06-0.06,0a0.13,0.13,0,0,1-.08,0,2,2,0,0,1-2.11,0l-4.13,1.1,0,0.25a3,3,0,0,1-.6,1.85,3.38,3.38,0,0,1-2.72,1.35,3,3,0,0,1-1.81-.63,3.25,3.25,0,0,1-.72-4.55,3.29,3.29,0,0,1,4.54-.72,2.19,2.19,0,0,1,.28.22s0,0,0,0h0a0.05,0.05,0,0,1,0,0s0,0,0,0,0,0,0,0a1.64,1.64,0,0,1,.29.34v0a1,1,0,0,1,.2.32h0v0a0.07,0.07,0,0,1,0,0,0,0,0,0,1,0,0v0l0.13,0.21v0l0.08,0.14,0.88-.21,2.74-.72a1.91,1.91,0,0,1,.21-1.88,1.57,1.57,0,0,1,.63-0.55l0.22-.13,0.27-.11a1.8,1.8,0,0,1,.49-0.07h0.15l-0.21-3.75a3.61,3.61,0,0,1-1.81-.63,3.25,3.25,0,1,1,3.83-5.25,3.27,3.27,0,0,1,.7,4.54,2.84,2.84,0,0,1-1.76,1.22v0.13h0l0,0.38,0.18,3.75,0.08,0.08,0.07,0h0a0.07,0.07,0,0,1-.06,0,2,2,0,0,1,.6,1.9l0,0.13v0.13L196,299.9,196,300A3.27,3.27,0,0,1,201,304.19Zm-8.83-12.88v0l0.38-.13-0.13.06Z" transform="translate(-178.24 -272.42)"/><path class="cls-2" d="M181.4,299.9a1.14,1.14,0,0,1,.25-0.72A1.14,1.14,0,0,0,181.4,299.9Z" transform="translate(-178.24 -272.42)"/><path class="cls-2" d="M183.89,298.38a1.94,1.94,0,1,0-2.27,3.16,2,2,0,0,0,2.73-.42,1.74,1.74,0,0,0,.38-1l-0.72.17a1.35,1.35,0,0,1-1.77.88h0c-0.08,0-.17-0.13-0.25-0.17a1.31,1.31,0,0,1-.55-1.14,1.14,1.14,0,0,1,.25-0.72,1.34,1.34,0,0,1,1.85-.29,1.31,1.31,0,0,1,.38.46l0.67-.17A2.44,2.44,0,0,0,183.89,298.38Z" transform="translate(-178.24 -272.42)"/><path class="cls-2" d="M185.57,298.38s0,0,0-.08v0A0,0,0,0,1,185.57,298.38Z" transform="translate(-178.24 -272.42)"/><polygon class="cls-2" points="14.26 23.18 14.26 23.18 14.18 23.1 14.18 23.14 14.26 23.18"/><path class="cls-2" d="M197.43,305.41a2.54,2.54,0,0,1-1-.5A4.53,4.53,0,0,0,197.43,305.41Z" transform="translate(-178.24 -272.42)"/><path class="cls-2" d="M184.94,297.59l0.08,0.08A0.09,0.09,0,0,0,184.94,297.59Z" transform="translate(-178.24 -272.42)"/><path class="cls-2" d="M182.62,303.22a3,3,0,0,1-1.81-.63A3.61,3.61,0,0,0,182.62,303.22Z" transform="translate(-178.24 -272.42)"/><path class="cls-2" d="M190.87,295.19s-0.13,0-.17,0a0.25,0.25,0,0,0,.17,0h0Z" transform="translate(-178.24 -272.42)"/><path class="cls-2" d="M190.53,295.31a0.15,0.15,0,0,0,.08,0A0.08,0.08,0,0,0,190.53,295.31Z" transform="translate(-178.24 -272.42)"/><path class="cls-2" d="M197.3,303.77a1.84,1.84,0,1,0,2.15-3,1.89,1.89,0,0,0-2.27,0l0.63,0.42a1,1,0,0,1,.88-0.08,0.8,0.8,0,0,1,.42.21,1.2,1.2,0,0,1,.25,1.68,1.08,1.08,0,0,1-.55.42,1.33,1.33,0,0,1-1.18-.17,1.24,1.24,0,0,1-.46-1.22v0l-0.5-.38A1.81,1.81,0,0,0,197.3,303.77Z" transform="translate(-178.24 -272.42)"/><path class="cls-2" d="M197.64,303.26a1.31,1.31,0,0,0,1.18.17,1.23,1.23,0,0,1-1.14-.17,1.24,1.24,0,0,1-.46-1.22l0,0v0A1.24,1.24,0,0,0,197.64,303.26Z" transform="translate(-178.24 -272.42)"/><path class="cls-2" d="M192.26,298.76a0.15,0.15,0,0,0,.08,0l-0.08,0h0Z" transform="translate(-178.24 -272.42)"/><path class="cls-2" d="M192.26,298.72l0.08,0s0.08,0,.13-0.08Z" transform="translate(-178.24 -272.42)"/><path class="cls-2" d="M198.69,301.12a1.29,1.29,0,0,0-.88.08h0A2,2,0,0,1,198.69,301.12Z" transform="translate(-178.24 -272.42)"/></svg>