<svg id="Layer_1" data-name="Layer 1" xmlns="http://www.w3.org/2000/svg" viewBox="0 0 203.99 40.47"><defs><style>.cls-1{fill:#323232;}.cls-2{fill:#1b75bb;}.cls-3{fill:#00b5a5;}</style></defs><title>_instamojo</title><rect class="cls-1" x="29.29" y="7.18" width="6.43" height="25.08"/><path class="cls-1" d="M237.69,287.06h6.16V290h0.09a6.54,6.54,0,0,1,2.66-2.73,7.87,7.87,0,0,1,3.73-.86,6.35,6.35,0,0,1,4.73,1.68q1.65,1.68,1.66,5.45v18.61h-6.43v-17.3a4.3,4.3,0,0,0-.65-2.73,2.62,2.62,0,0,0-2.1-.77q-3.4,0-3.4,4.15v16.65h-6.43V287.06Z" transform="translate(-198.11 -279.88)"/><path class="cls-1" d="M266,303.94v0.84a3.88,3.88,0,0,0,.86,2.63,3.11,3.11,0,0,0,2.49,1,3.57,3.57,0,0,0,2.38-.75,2.75,2.75,0,0,0,.89-2.24,2.35,2.35,0,0,0-.7-1.84,5.45,5.45,0,0,0-1.63-1L265.81,301a8.59,8.59,0,0,1-4-2.63,6.79,6.79,0,0,1-1.35-4.36A8.26,8.26,0,0,1,261,291a6.14,6.14,0,0,1,1.63-2.4,8.1,8.1,0,0,1,2.87-1.63,12.92,12.92,0,0,1,4.22-.61q4.38,0,6.48,1.87a6.68,6.68,0,0,1,2.1,5.27v1h-5.78a5.11,5.11,0,0,0-.63-2.87,2.5,2.5,0,0,0-2.21-.91,3.47,3.47,0,0,0-2.12.68,2.37,2.37,0,0,0-.91,2,2.65,2.65,0,0,0,.58,1.68,4.46,4.46,0,0,0,2.21,1.26l3.87,1.31a8.77,8.77,0,0,1,4.29,2.68,7.27,7.27,0,0,1,1.26,4.5,8,8,0,0,1-.7,3.45,6.75,6.75,0,0,1-1.94,2.47,8.38,8.38,0,0,1-3,1.47,13.67,13.67,0,0,1-3.73.49,15.32,15.32,0,0,1-4.52-.56,6.79,6.79,0,0,1-2.82-1.61,5.71,5.71,0,0,1-1.47-2.52,12,12,0,0,1-.42-3.29v-0.89H266Z" transform="translate(-198.11 -279.88)"/><path class="cls-1" d="M281.77,287.06v-7.18h6.43v7.18h3.73v4.38H288.2V305a3.81,3.81,0,0,0,.44,2.12,2.15,2.15,0,0,0,1.84.63l0.75,0c0.25,0,.48,0,0.7-0.07v4.48l-2.08.19c-0.67.06-1.38,0.09-2.12,0.09a11.75,11.75,0,0,1-3.08-.33,3.43,3.43,0,0,1-1.79-1.09,4.42,4.42,0,0,1-.86-2,17.82,17.82,0,0,1-.23-3.17V287.06Z" transform="translate(-198.11 -279.88)"/><path class="cls-1" d="M294.79,294.75v-0.6a8.53,8.53,0,0,1,.7-3.64,6.34,6.34,0,0,1,1.89-2.4,7.5,7.5,0,0,1,2.8-1.31,14.33,14.33,0,0,1,3.43-.4,16,16,0,0,1,4.64.56,6.37,6.37,0,0,1,2.78,1.59,5.32,5.32,0,0,1,1.33,2.45,13,13,0,0,1,.35,3.1v13.19a17.5,17.5,0,0,0,.16,2.75,9.57,9.57,0,0,0,.63,2.1h-6.15a5.3,5.3,0,0,1-.49-1.28c-0.11-.45-0.21-0.89-0.3-1.33h-0.09a5.89,5.89,0,0,1-2.59,2.61,9.47,9.47,0,0,1-3.8.65,5.76,5.76,0,0,1-2.84-.65,5.4,5.4,0,0,1-1.87-1.68,7.18,7.18,0,0,1-1-2.31,10.26,10.26,0,0,1-.33-2.54,11,11,0,0,1,.37-3.05,5.89,5.89,0,0,1,1.14-2.19,6.22,6.22,0,0,1,2-1.52,15.61,15.61,0,0,1,2.87-1.07l3.64-1a3.89,3.89,0,0,0,2-1,2.86,2.86,0,0,0,.56-1.91,3.45,3.45,0,0,0-.68-2.26,2.85,2.85,0,0,0-2.31-.82,2.77,2.77,0,0,0-2.24.89,3.57,3.57,0,0,0-.75,2.38v0.7h-5.78Zm11.75,4.85a5.78,5.78,0,0,1-1.4.82,8.88,8.88,0,0,1-1.35.44,4.94,4.94,0,0,0-2.8,1.4,4,4,0,0,0-.84,2.66,5.09,5.09,0,0,0,.56,2.47,2,2,0,0,0,1.87,1,4.68,4.68,0,0,0,1.35-.21,3.78,3.78,0,0,0,1.28-.68,3.64,3.64,0,0,0,1-1.19,3.88,3.88,0,0,0,.37-1.8V299.6Z" transform="translate(-198.11 -279.88)"/><path class="cls-1" d="M316.6,287.06h6.15v2.56h0.09a7.37,7.37,0,0,1,2.73-2.47,8.08,8.08,0,0,1,3.61-.75,6.55,6.55,0,0,1,3.75,1,5,5,0,0,1,2,3h0.09a5.71,5.71,0,0,1,2.4-3,7.45,7.45,0,0,1,3.94-1,5.64,5.64,0,0,1,4.73,1.94,8.87,8.87,0,0,1,1.52,5.57v18.23h-6.43V294.61a4.23,4.23,0,0,0-.58-2.42,2.19,2.19,0,0,0-1.94-.84,3.11,3.11,0,0,0-2.45,1,4.85,4.85,0,0,0-.91,3.26v16.51h-6.43V294.61a4.24,4.24,0,0,0-.58-2.42,2.19,2.19,0,0,0-1.94-.84,3.11,3.11,0,0,0-2.45,1,4.85,4.85,0,0,0-.91,3.26v16.51H316.6V287.06Z" transform="translate(-198.11 -279.88)"/><path class="cls-1" d="M350.43,299.6a28.23,28.23,0,0,1,.51-5.69,11,11,0,0,1,1.68-4.13,7.45,7.45,0,0,1,3.05-2.52,11.15,11.15,0,0,1,4.64-.86,11.84,11.84,0,0,1,4.8.77,6.73,6.73,0,0,1,3,2.49,11.14,11.14,0,0,1,1.58,4.17,31.55,31.55,0,0,1,.47,5.76,28.22,28.22,0,0,1-.51,5.69,11,11,0,0,1-1.68,4.13,7.43,7.43,0,0,1-3.05,2.52,11.14,11.14,0,0,1-4.64.86,11.86,11.86,0,0,1-4.8-.77,6.73,6.73,0,0,1-3-2.5,11.11,11.11,0,0,1-1.59-4.15,31.51,31.51,0,0,1-.47-5.78m6.43,0q0,1.91.09,3.54a12.23,12.23,0,0,0,.44,2.8,4.12,4.12,0,0,0,1,1.82,2.6,2.6,0,0,0,1.89.65,2.73,2.73,0,0,0,2.7-2.05,31,31,0,0,0,0-13.52,2.73,2.73,0,0,0-2.7-2.05,2.61,2.61,0,0,0-1.89.65,4.13,4.13,0,0,0-1,1.82,12.29,12.29,0,0,0-.44,2.8q-0.09,1.63-.09,3.54" transform="translate(-198.11 -279.88)"/><path class="cls-1" d="M373.22,287.06h6.43v26.81a10.13,10.13,0,0,1-.35,2.8,4.51,4.51,0,0,1-1.19,2,5.37,5.37,0,0,1-2.26,1.24,12.82,12.82,0,0,1-3.57.42l-1.24,0-1.37-.07v-4.66a1.64,1.64,0,0,0,.51.09h0.51a3.29,3.29,0,0,0,1.35-.23,1.58,1.58,0,0,0,.77-0.72,3.36,3.36,0,0,0,.33-1.23c0-.5.07-1.1,0.07-1.82V287.06Z" transform="translate(-198.11 -279.88)"/><path class="cls-1" d="M382.34,299.6a28.23,28.23,0,0,1,.51-5.69,11,11,0,0,1,1.68-4.13,7.46,7.46,0,0,1,3.05-2.52,11.15,11.15,0,0,1,4.64-.86,11.83,11.83,0,0,1,4.8.77,6.74,6.74,0,0,1,3,2.49,11.15,11.15,0,0,1,1.58,4.17,31.55,31.55,0,0,1,.47,5.76,28.21,28.21,0,0,1-.51,5.69,10.92,10.92,0,0,1-1.68,4.13,7.43,7.43,0,0,1-3.05,2.52,11.14,11.14,0,0,1-4.64.86,11.86,11.86,0,0,1-4.8-.77,6.74,6.74,0,0,1-3-2.5,11.08,11.08,0,0,1-1.59-4.15,31.44,31.44,0,0,1-.47-5.78m6.43,0q0,1.91.09,3.54a12.23,12.23,0,0,0,.44,2.8,4.13,4.13,0,0,0,1,1.82,2.61,2.61,0,0,0,1.89.65,2.73,2.73,0,0,0,2.71-2.05,31,31,0,0,0,0-13.52,2.73,2.73,0,0,0-2.71-2.05,2.61,2.61,0,0,0-1.89.65,4.14,4.14,0,0,0-1,1.82,12.29,12.29,0,0,0-.44,2.8q-0.09,1.63-.09,3.54" transform="translate(-198.11 -279.88)"/><polygon class="cls-2" points="0 32.83 11.65 21.18 25.36 21.18 13.71 32.83 0 32.83"/><polygon class="cls-2" points="11.65 19.29 0 7.63 13.71 7.63 25.36 19.29 11.65 19.29"/><polygon class="cls-3" points="0 10.39 0 30.2 9.9 20.3 0 10.39"/></svg>