<svg id="Layer_1" data-name="Layer 1" xmlns="http://www.w3.org/2000/svg" viewBox="0 0 146.91 61.28"><defs><style>.cls-1{fill:#ef4023;}</style></defs><title>_oyo</title><path class="cls-1" d="M312.08,310a20.63,20.63,0,0,1-2.56,3.54c-1.07.66-1.12,1.52-4.74,3.21a15.17,15.17,0,0,1-19.32-6.21c-7.71-13.52,6.32-28.72,21-20.93C313,293.09,316.12,302.28,312.08,310Zm-14.43-1.89c1,0.68,6.13-.22,6.48-5.28a5.51,5.51,0,0,0-8.18-4.89C291,300.85,293.35,307.86,297.65,308.11Z" transform="translate(-224.89 -272.07)"/><path class="cls-1" d="M370,310a20.63,20.63,0,0,1-2.56,3.54c-1.07.66-1.12,1.52-4.74,3.21a15.17,15.17,0,0,1-19.32-6.21c-7.71-13.52,6.32-28.72,21-20.93C370.92,293.09,374,302.28,370,310Zm-14.43-1.89c1,0.68,6.13-.22,6.48-5.28a5.51,5.51,0,0,0-8.18-4.89C348.93,300.85,351.26,307.86,355.56,308.11Z" transform="translate(-224.89 -272.07)"/><path class="cls-1" d="M327.59,296.93l4.64-9.26h11c-0.72,1.44-8.14,16.19-10,19.78-0.28.54-.21-0.12-0.21,10.11H322.14V308c-0.58-1.15-9.07-18-10.24-20.17a0.32,0.32,0,0,1,0-.12c0.53-.11,8.24-0.15,11-0.06q2.07,4.16,4.15,8.33C327.15,296.29,327.36,296.56,327.59,296.93Z" transform="translate(-224.89 -272.07)"/><path class="cls-1" d="M225.1,293.25a16.47,16.47,0,0,1,0-5.43l0.16-.16h41.25l0.15,0.16c0.41,4.14.32,2.56,0.05,5.43H225.1Z" transform="translate(-224.89 -272.07)"/><path class="cls-1" d="M227.63,301.31a38,38,0,0,1-1.89-5.47h40.42a45.55,45.55,0,0,1-1.93,5.47h-36.6Z" transform="translate(-224.89 -272.07)"/><path class="cls-1" d="M225.86,285.19a17,17,0,0,1,2.9-5.58h34.33a17,17,0,0,1,3,5.58H225.86Z" transform="translate(-224.89 -272.07)"/><path class="cls-1" d="M231.52,309.63c-1.42-2.49-2.57-5.18-2.68-5.42a0.62,0.62,0,0,0-.12-0.14c0.61-.09,33.79-0.08,34.36,0l-2.73,5.54H231.52Z" transform="translate(-224.89 -272.07)"/><path class="cls-1" d="M259.07,312.08c-1.72,3.3-1.21,2.05-3.14,5.61H236c-0.12-.23-3-5.34-3.12-5.49C233,312,231,312.08,259.07,312.08Z" transform="translate(-224.89 -272.07)"/><path class="cls-1" d="M260.91,277.26H231.19C230.89,276.75,245.49,265.84,260.91,277.26Z" transform="translate(-224.89 -272.07)"/><path class="cls-1" d="M240.88,325.75l-3.47-5.61h17l-3.47,5.61h-10Z" transform="translate(-224.89 -272.07)"/><path class="cls-1" d="M242.46,328.22h6.86l-3.43,5.13Z" transform="translate(-224.89 -272.07)"/></svg>