<svg id="Layer_1" data-name="Layer 1" xmlns="http://www.w3.org/2000/svg" viewBox="0 0 109.14 68.48"><defs><style>.cls-1{fill:#155afe;}</style></defs><title>_spotHero</title><g id="_8Cme9j.tif" data-name="8Cme9j.tif"><path class="cls-1" d="M354.48,316.23a0.88,0.88,0,0,0-.08.22c-0.09,1.48-.14,3-0.28,4.44a25.38,25.38,0,0,1-1.69,7.68A8.62,8.62,0,0,1,345,334a20.3,20.3,0,0,1-7.38-.47,11,11,0,0,1-7.94-7.16,24,24,0,0,1-1.3-5.6,84.13,84.13,0,0,1-.4-11.7,42.44,42.44,0,0,1,.75-7.78,17.73,17.73,0,0,1,1.4-4.29,9.71,9.71,0,0,1,6.47-5.36,18.57,18.57,0,0,1,9-.14,9.76,9.76,0,0,1,7.29,6.5,20.89,20.89,0,0,1,1.21,5.23c0.16,1.47.24,3,.36,4.43a1,1,0,0,0,.07.23v8.3Zm-6.81-5c-0.05-1.63-.1-4.05-0.22-6.47a11.33,11.33,0,0,0-.84-3.82,4.81,4.81,0,0,0-3.34-3,8.33,8.33,0,0,0-2.76-.19,5.18,5.18,0,0,0-4.93,3.87,16.9,16.9,0,0,0-.7,4.89c0,1.74,0,3.48,0,5.22a69.77,69.77,0,0,0,.36,8.88,12.9,12.9,0,0,0,.84,3.39,5,5,0,0,0,3.12,3,9.12,9.12,0,0,0,4.14.37,3.66,3.66,0,0,0,2.95-2.14,9.45,9.45,0,0,0,.58-1.55,24.24,24.24,0,0,0,.67-5.5C347.6,316.1,347.61,314.06,347.67,311.23Z" transform="translate(-245.34 -266.06)"/><path class="cls-1" d="M245.34,291.32l1.37,0h5.49v17.77l12.09-.91V291.28h6.91v40.5l-6.88.51V314.45l-12.11,1v18.1l-1.66.24-4.78.71a0.27,0.27,0,0,0-.09.07h-0.34V291.32Z" transform="translate(-245.34 -266.06)"/><path class="cls-1" d="M310.65,266.06c0.54,0.11,1.09.19,1.61,0.35a8.68,8.68,0,0,1,6.1,5.39,8.85,8.85,0,0,1-6.56,11.72,9.53,9.53,0,0,1-7.52-1.38,9.14,9.14,0,0,1-3.17-10.6,8.82,8.82,0,0,1,6-5.14c0.46-.13.92-0.23,1.38-0.34h2.14Zm3.71,8.66a4.69,4.69,0,0,0-9.35-.19A4.68,4.68,0,1,0,314.36,274.72Z" transform="translate(-245.34 -266.06)"/><path class="cls-1" d="M317.44,314.66l7.21,17H324c-2-.09-4-0.19-6-0.26a0.71,0.71,0,0,1-.74-0.52q-3.07-7.44-6.17-14.87l-0.15-.32h-3.16V331l-6.58-.1,0.09-39.66,0.44,0c3.82,0,7.65,0,11.47,0a13.37,13.37,0,0,1,5.24,1.06,9.55,9.55,0,0,1,5.72,6.45,15.49,15.49,0,0,1-.1,8.9,10.56,10.56,0,0,1-6,6.67l-0.54.25A0.5,0.5,0,0,0,317.44,314.66Zm-9.69-5.28h5.42a4.65,4.65,0,0,0,4.57-3.21,9,9,0,0,0,0-5.92,4.42,4.42,0,0,0-2.26-2.62,5.37,5.37,0,0,0-2.39-.58c-1.71,0-3.42,0-5.13,0l-0.21,0v12.31Z" transform="translate(-245.34 -266.06)"/><path class="cls-1" d="M284.22,297v11l9.3-.14v6l-9.3.24V325l11.43-.22v6.14l-18.34.48V291.32h18.32V297H284.22Z" transform="translate(-245.34 -266.06)"/><path class="cls-1" d="M282.11,266.58l0.35,0h6.33a6.68,6.68,0,0,1,3.55.92,4.84,4.84,0,0,1,2.39,4,6.51,6.51,0,0,1-.35,2.9,4.92,4.92,0,0,1-3.8,3.16,14.56,14.56,0,0,1-2.33.19c-0.62,0-1.25,0-1.9,0v5.41h-4.23V266.58Zm4.24,7.52c0.46,0,.87,0,1.28,0,0.63,0,1.25,0,1.87-.08a1.15,1.15,0,0,0,1.12-1,5,5,0,0,0,.05-1.36,1.32,1.32,0,0,0-1.21-1.34c-1-.1-2.06-0.1-3.12-0.14v4Z" transform="translate(-245.34 -266.06)"/><path class="cls-1" d="M274.36,267.54l-1.71,3.33a4.93,4.93,0,0,0-2-1,2.84,2.84,0,0,0-1.76.11,1.31,1.31,0,0,0-.9,1.1,1.17,1.17,0,0,0,.76,1.18,13.07,13.07,0,0,0,1.71.64A8.86,8.86,0,0,1,273,274a4.37,4.37,0,0,1,2,4.16,5.78,5.78,0,0,1-1.12,3.26,5.69,5.69,0,0,1-3.41,2,9.7,9.7,0,0,1-7.6-1.61,0.8,0.8,0,0,1-.1-0.11l1.82-3.42c0.45,0.31.85,0.63,1.28,0.9a4.53,4.53,0,0,0,3,.74,2.64,2.64,0,0,0,1.33-.54,1.21,1.21,0,0,0,0-2.05,9.1,9.1,0,0,0-1.71-.75c-0.86-.33-1.77-0.55-2.6-0.94a4,4,0,0,1-2.46-4.23,5.19,5.19,0,0,1,2.39-4.35,6,6,0,0,1,3.63-.9,11.22,11.22,0,0,1,4.48,1.15Z" transform="translate(-245.34 -266.06)"/><path class="cls-1" d="M336,266.58l0.36,3.57h-3.88v13h-4.21V270.19h-4.09l0.38-3.6H336Z" transform="translate(-245.34 -266.06)"/></g></svg>