<svg id="Layer_1" xmlns="http://www.w3.org/2000/svg" viewBox="0 0 247.5 375.9"><style>.st0{fill:url(#SVGID_1_)}.st1{fill:url(#SVGID_2_)}.st2{fill:#fff}.st3{fill:none;stroke:url(#SVGID_3_);stroke-width:4;stroke-linecap:round;stroke-miterlimit:10}.st4{fill:url(#SVGID_4_)}.st5{fill:url(#SVGID_5_)}</style><linearGradient id="SVGID_1_" gradientUnits="userSpaceOnUse" x1="8.3" y1="178.324" x2="238.3" y2="178.324" gradientTransform="matrix(1 0 0 -1 0 337.548)"><stop offset="0" stop-color="#FFF" stop-opacity=".2"/><stop offset=".06" stop-color="#FFF" stop-opacity=".248"/><stop offset="1" stop-color="#FFF"/></linearGradient><path class="st0" d="M123.3 305.7c-63.5 0-115-51.5-115-115 0-86.2 115-177.9 115-177.9s115 94.7 115 177.9c0 63.5-51.5 115-115 115z"/><linearGradient id="SVGID_2_" gradientUnits="userSpaceOnUse" x1="123.3" y1="34.45" x2="123.3" y2="252.458" gradientTransform="matrix(1 0 0 -1 0 337.548)"><stop offset="0" stop-color="#0069FF" stop-opacity=".5"/><stop offset=".215" stop-color="#0069FF" stop-opacity=".3"/><stop offset="1" stop-color="#0069FF" stop-opacity=".05"/></linearGradient><path class="st1" d="M123.3 305.7c-63.5 0-115-51.5-115-115 0-86.2 115-177.9 115-177.9s115 94.7 115 177.9c0 63.5-51.5 115-115 115z"/><path class="st2" d="M123.7 15.7c24.4 21.6 111.8 104 111.8 175.2 0 29.9-11.6 58-32.7 79.1-21.1 21.1-49.2 32.7-79.1 32.7s-57.9-11.6-79-32.8c-21.1-21.1-32.7-49.2-32.7-79 0-44 31.7-90.4 58.3-121.6 21.4-25.1 43-44.6 53.4-53.6m.1-13.1S2 99.7 2 190.9c0 67.2 54.4 121.8 121.7 121.8s121.8-54.5 121.8-121.8c0-88.1-121.7-188.3-121.7-188.3z"/><linearGradient id="SVGID_3_" gradientUnits="userSpaceOnUse" x1="123.75" y1="22.874" x2="123.75" y2="337.548" gradientTransform="matrix(1 0 0 -1 0 337.548)"><stop offset=".151" stop-color="#0080FF"/><stop offset="1" stop-color="#00D688"/></linearGradient><path class="st3" d="M2 190.9C2 99.7 123.8 2.6 123.8 2.6s121.7 100.2 121.7 188.3c0 67.3-54.5 121.8-121.8 121.8S2 258.1 2 190.9z"/><linearGradient id="SVGID_4_" gradientUnits="userSpaceOnUse" x1="48.7" y1="-23.626" x2="200.1" y2="-23.626" gradientTransform="matrix(1 0 0 -1 0 337.548)"><stop offset="0" stop-color="#005DFF" stop-opacity=".15"/><stop offset=".436" stop-color="#0068FF" stop-opacity=".085"/><stop offset="1" stop-color="#0072FF" stop-opacity="0"/></linearGradient><ellipse class="st4" cx="124.4" cy="361.2" rx="75.7" ry="14.7"/><linearGradient id="SVGID_5_" gradientUnits="userSpaceOnUse" x1="123.75" y1="119.874" x2="123.75" y2="295.374" gradientTransform="matrix(1 0 0 -1 0 377.548)"><stop offset=".151" stop-color="#0080FF"/><stop offset="1" stop-color="#00D688"/></linearGradient><path class="st5" d="M182 241.1c-4 0-7.3 2.8-8.1 6.5h-53.4c-3.1 0-6-1.2-8.2-3.4l-25-25c-.3-.3-.6-.6-1-.9h52.6c.8 3.7 4.1 6.5 8.1 6.5 4.6 0 8.3-3.7 8.3-8.3s-3.7-8.3-8.3-8.3c-4 0-7.3 2.8-8.1 6.5H62.6c-.8-3.7-4.1-6.5-8.1-6.5-4.6 0-8.3 3.7-8.3 8.3s3.7 8.3 8.3 8.3c4 0 7.3-2.8 8.1-6.5h13.9c3.1 0 6 1.2 8.2 3.4l25 25c2.9 2.9 6.7 4.5 10.8 4.5h53.4c.8 3.7 4.1 6.5 8.1 6.5 4.6 0 8.3-3.7 8.3-8.3 0-4.6-3.7-8.3-8.3-8.3zm-35-29.3c2.6 0 4.7 2.1 4.7 4.7s-2.1 4.7-4.7 4.7-4.7-2.1-4.7-4.7c-.1-2.6 2.1-4.7 4.7-4.7zm-87.7 4.7c0 2.6-2.1 4.7-4.7 4.7s-4.7-2.1-4.7-4.7 2.1-4.7 4.7-4.7 4.7 2.1 4.7 4.7zM182 254.1c-2 0-3.7-1.2-4.4-3-.2-.5-.3-1.1-.3-1.8 0-.6.1-1.2.3-1.8.7-1.7 2.4-3 4.4-3 2.6 0 4.7 2.1 4.7 4.7 0 2.8-2.1 4.9-4.7 4.9zM61.8 135.9c4 0 7.3-2.8 8.1-6.5h19.3c4.1 0 7.9-1.6 10.8-4.5l29.2-29.2c2.2-2.2 5.1-3.4 8.2-3.4h16.7c.8 3.7 4.1 6.5 8.1 6.5 4.6 0 8.3-3.7 8.3-8.3 0-4.6-3.7-8.3-8.3-8.3-4 0-7.3 2.8-8.1 6.5h-43c-.8-3.7-4.1-6.5-8.1-6.5-4.6 0-8.3 3.7-8.3 8.3 0 4.6 3.7 8.3 8.3 8.3 4 0 7.3-2.8 8.1-6.5h16.5c-.3.3-.7.6-1 .9l-29.2 29.2c-2.2 2.2-5.1 3.4-8.2 3.4H69.9c-.8-3.7-4.1-6.5-8.1-6.5-4.6 0-8.3 3.7-8.3 8.3 0 4.6 3.8 8.3 8.3 8.3zm96-47.1c.7-1.7 2.4-3 4.4-3 2.6 0 4.7 2.1 4.7 4.7s-2.1 4.7-4.7 4.7c-2 0-3.7-1.2-4.4-3-.2-.5-.3-1.1-.3-1.8 0-.4.1-1 .3-1.6zm-50.1 1.8c0 2.6-2.1 4.7-4.7 4.7s-4.7-2.1-4.7-4.7 2.1-4.7 4.7-4.7 4.7 2.1 4.7 4.7zm-45.9 32.3c2 0 3.7 1.2 4.4 3 .2.5.3 1.1.3 1.8 0 .6-.1 1.2-.3 1.8-.7 1.7-2.4 3-4.4 3-2.6 0-4.7-2.1-4.7-4.7s2.1-4.9 4.7-4.9zM206 168.5c-4 0-7.3 2.8-8.1 6.5h-97.3c.3-.3.7-.6 1-.9l27.5-27.5c2.2-2.2 5.1-3.4 8.2-3.4h.5c.8 3.7 4.1 6.5 8.1 6.5s7.3-2.8 8.1-6.5h15.2c.8 3.7 4.1 6.5 8.1 6.5 4.6 0 8.3-3.7 8.3-8.3s-3.7-8.3-8.3-8.3c-4 0-7.3 2.8-8.1 6.5h-15.3c-.8-3.7-4.1-6.5-8.1-6.5s-7.3 2.8-8.1 6.5h-.5c-4.1 0-7.9 1.6-10.8 4.5l-27.5 27.5c-.2.2-.4.3-.6.5-1.5-2.2-4-3.6-6.8-3.6-4 0-7.3 2.8-8.1 6.5H49.6c-.8-3.7-4.1-6.5-8.1-6.5-4.6 0-8.3 3.7-8.3 8.3s3.7 8.3 8.3 8.3c4 0 7.3-2.8 8.1-6.5h33.9c.8 3.7 4.1 6.5 8.1 6.5s7.3-2.8 8.1-6.5h98.2c.8 3.7 4.1 6.5 8.1 6.5 4.6 0 8.3-3.7 8.3-8.3 0-4.6-3.8-8.3-8.3-8.3zm-33.1-28.8c.7-1.7 2.4-3 4.4-3 2.6 0 4.7 2.1 4.7 4.7s-2.1 4.7-4.7 4.7c-2 0-3.7-1.2-4.4-3-.2-.5-.3-1.1-.3-1.8-.1-.5.1-1.1.3-1.6zm-31.4-.1c.7-1.7 2.4-2.9 4.4-2.9s3.7 1.2 4.4 2.9c.2.6.4 1.2.4 1.8s-.1 1.2-.4 1.8c-.7 1.7-2.4 2.9-4.4 2.9s-3.7-1.2-4.4-2.9c-.2-.6-.4-1.2-.4-1.8s.2-1.2.4-1.8zm-95.6 38.9c-.7 1.7-2.4 3-4.4 3-2.6 0-4.7-2.1-4.7-4.7s2.1-4.7 4.7-4.7c2 0 3.7 1.2 4.4 3 .2.5.3 1.1.3 1.8s-.1 1.1-.3 1.6zm50.3-1c-.1.4-.1.7-.3 1-.7 1.7-2.4 2.9-4.4 2.9s-3.7-1.2-4.4-2.9c-.2-.6-.4-1.2-.4-1.8s.1-1.2.4-1.8c.7-1.7 2.4-2.9 4.4-2.9 1.6 0 2.9.8 3.8 2 .2.3.4.6.6 1 .2.6.4 1.2.4 1.8 0 .2 0 .5-.1.7zm109.8 4c-2 0-3.7-1.2-4.4-3-.2-.5-.3-1.1-.3-1.8s.1-1.2.3-1.8c.7-1.7 2.4-3 4.4-3 2.6 0 4.7 2.1 4.7 4.7s-2.1 4.9-4.7 4.9z"/></svg>