<svg style="position: absolute; width: 0; height: 0;" width="0" height="0" version="1.1" xmlns="http://www.w3.org/2000/svg" xmlns:xlink="http://www.w3.org/1999/xlink">
<defs>
<symbol id="icon-confirm" viewBox="0 0 32 32">
<title>confirm</title>
<path class="path1" d="M16 0.941c-8.317 0-15.059 6.742-15.059 15.059s6.742 15.059 15.059 15.059c8.317 0 15.059-6.742 15.059-15.059s-6.742-15.059-15.059-15.059zM16 29.176c-7.277 0-13.176-5.899-13.176-13.176s5.899-13.176 13.176-13.176c7.277 0 13.176 5.899 13.176 13.176s-5.899 13.176-13.176 13.176z"></path>
<path class="path2" d="M21.572 10.278l-7.322 9.299-3.765-3.765c-0.171-0.171-0.407-0.277-0.668-0.277-0.522 0-0.945 0.423-0.945 0.945 0 0.261 0.106 0.497 0.277 0.668l4.593 4.612c0.168 0.171 0.4 0.279 0.658 0.282h0.001c0.285-0.052 0.522-0.226 0.656-0.466l7.965-10.151c0.067-0.127 0.107-0.277 0.107-0.436 0-0.52-0.421-0.941-0.941-0.941-0.236 0-0.451 0.087-0.617 0.23z"></path>
</symbol>
<symbol id="icon-cancel" viewBox="0 0 32 32">
<title>cancel</title>
<path class="path1" d="M16 0.941c-8.317 0-15.059 6.742-15.059 15.059s6.742 15.059 15.059 15.059c8.317 0 15.059-6.742 15.059-15.059s-6.742-15.059-15.059-15.059zM16 29.176c-7.277 0-13.176-5.899-13.176-13.176s5.899-13.176 13.176-13.176c7.277 0 13.176 5.899 13.176 13.176s-5.899 13.176-13.176 13.176z"></path>
<path class="path2" d="M22.306 9.694c-0.171-0.172-0.407-0.278-0.668-0.278s-0.498 0.106-0.668 0.278l-4.969 4.969-4.988-4.969c-0.171-0.171-0.407-0.277-0.668-0.277-0.522 0-0.945 0.423-0.945 0.945 0 0.261 0.106 0.497 0.277 0.668l4.988 4.969-4.969 4.988c-0.171 0.171-0.277 0.407-0.277 0.668 0 0.522 0.423 0.945 0.945 0.945 0.261 0 0.497-0.106 0.668-0.277l4.969-4.988 4.988 4.988c0.171 0.171 0.407 0.277 0.668 0.277 0.522 0 0.945-0.423 0.945-0.945 0-0.261-0.106-0.497-0.277-0.668l-4.988-4.988 4.988-4.988c0.161-0.169 0.26-0.397 0.26-0.649 0-0.261-0.107-0.498-0.279-0.668z"></path>
</symbol>
<symbol id="icon-upvote-empty" viewBox="0 0 22 32">
<title>upvote-empty</title>
<path vector-effect="non-scaling-stroke" d="M14.24,12.81A5.06,5.06,0,0,0,10,15.09a5.06,5.06,0,0,0-4.25-2.27,5,5,0,0,0-5,4.92C0.71,22,7.15,27.12,10,28.09c2.92-1,9.29-6.73,9.29-10.35A5,5,0,0,0,14.24,12.81Z" style="stroke: #b2b2b2b;stroke-miterlimit: 10;fill-rule: evenodd"/>
<polyline vector-effect="non-scaling-stroke" points="4.97 5.81 10 0.79 15.03 5.81" style="fill: none;stroke: #b2b2b2b;stroke-linecap: round;stroke-linejoin: round"/>
</symbol>
<symbol id="icon-upvote-full" viewBox="0 0 22 32">
<title>upvote-full</title>
<path vector-effect="non-scaling-stroke" d="M14.24,12.81A5.06,5.06,0,0,0,10,15.09a5.06,5.06,0,0,0-4.25-2.27,5,5,0,0,0-5,4.92C0.71,22,7.15,27.12,10,28.09c2.92-1,9.29-6.73,9.29-10.35A5,5,0,0,0,14.24,12.81Z" style="fill: #ff7f7f;stroke: #ff7f7f;stroke-miterlimit: 10;fill-rule: evenodd"/>
<polyline vector-effect="non-scaling-stroke" points="4.97 5.81 10 0.79 15.03 5.81" style="fill: none;stroke: #ff7f7f;stroke-linecap: round;stroke-linejoin: round"/>
</symbol>
<symbol id="icon-comment" viewBox="0 0 13.76 13.5">
<title>comment</title>
<path vector-effect="non-scaling-stroke" d="M10.52,9.87H9.63L5.38,12.62V9.87H3.24A2.36,2.36,0,0,1,.88,7.51V3.23A2.36,2.36,0,0,1,3.24.87h7.28a2.36,2.36,0,0,1,2.36,2.36V7.51A2.36,2.36,0,0,1,10.52,9.87Z" style="fill: none"/>
</symbol>

<symbol id="icon-heart" viewBox="0 0 15.25 12.54">
<title>heart</title>
<path vector-effect="non-scaling-stroke" d="M10.74,0.76A3.73,3.73,0,0,0,7.62,2.39,3.73,3.73,0,0,0,4.51.76,3.62,3.62,0,0,0,.81,4.3c0,3,4.72,6.76,6.81,7.46,2.14-.7,6.81-4.85,6.81-7.46A3.62,3.62,0,0,0,10.74.76Z"/>
</symbol>

<symbol id="icon-open" viewBox="0 0 11.58 11.58">
<title>open</title>
<polyline vector-effect="non-scaling-stroke" points="4.79 0.83 0.83 0.83 0.83 10.75 10.75 10.75 10.75 6.79" style="fill: none;stroke-linecap: round;stroke-linejoin: round"/>
<line vector-effect="non-scaling-stroke" x1="4.97" y1="6.6" x2="10.75" y2="0.83" style="fill: none;stroke-linecap: round;stroke-linejoin: round"/>
<polyline vector-effect="non-scaling-stroke" points="10.75 3.96 10.75 0.83 7.62 0.83" style="fill: none;stroke-linecap: round;stroke-linejoin: round"/>
</symbol>

<symbol id="icon-next-arrow" viewBox="0 0 9.26 15.86">
<title>next-arrow</title>
<line vector-effect="non-scaling-stroke" x1="0.95" y1="14.9" x2="8.3" y2="7.95" style="fill: none;stroke-linecap: round;stroke-linejoin: round"/>
<line vector-effect="non-scaling-stroke" x1="8.3" y1="7.91" x2="0.95" y2="0.96" style="fill: none;stroke-linecap: round;stroke-linejoin: round"/>
</symbol>

<symbol id="icon-completed" viewBox="0 0 16 16">
<title>Complete</title>
<path d="M14.4,5.7c-0.2-0.1-0.4-0.4-0.2-0.6c0.4-0.9,0.2-2-0.5-2.7c-0.7-0.7-1.8-0.9-2.7-0.5c-0.2,0.1-0.5,0-0.6-0.2	C10,0.7,9.1,0,8,0S6,0.7,5.7,1.6C5.6,1.8,5.3,2,5.1,1.8c-0.9-0.4-2-0.2-2.7,0.5C1.6,3.1,1.5,4.2,1.8,5.1c0.1,0.2,0,0.5-0.2,0.6	C0.7,6,0,6.9,0,8c0,1.1,0.7,2,1.6,2.3c0.2,0.1,0.4,0.4,0.2,0.6c-0.4,0.9-0.2,2,0.5,2.7c0.7,0.7,1.8,0.9,2.7,0.5	c0.2-0.1,0.5,0,0.6,0.2C6,15.3,6.9,16,8,16s2-0.7,2.3-1.6c0.1-0.2,0.4-0.4,0.6-0.2c0.9,0.4,2,0.2,2.7-0.5c0.7-0.7,0.9-1.8,0.5-2.7	c-0.1-0.2,0-0.5,0.2-0.6C15.3,10,16,9.1,16,8C16,6.9,15.3,6,14.4,5.7z M7.3,11.1l-0.7,0.7l-0.7-0.7L3.8,9l1.4-1.4L6.5,9l4.1-4	L12,6.3L7.3,11.1z"/>
</symbol>

<symbol id="icon-website" viewbox="0 0 13 13">
<title>website</title>
<g stroke="none" stroke-width="1" fill="none" fill-rule="evenodd">
<g transform="translate(-269.000000, -368.000000)" fill="#666666">
<g transform="translate(238.000000, 142.000000)">
<g transform="translate(30.000000, 123.000000)">
<g >
<path d="M13.7625095,107.79177 L10.9164846,110.637389 C10.6023368,110.951537 10.0927102,110.951537 9.77774954,110.637389 L9.2079756,110.067615 L12.0556261,107.22159 L9.77815594,104.94412 L6.93253745,107.79177 L6.36235711,107.22159 C6.04780289,106.907442 6.04780289,106.397409 6.36235711,106.082855 L9.208382,103.23683 C9.52415543,102.921057 10.0325628,102.921057 10.3471171,103.23683 L13.7629159,106.653035 C14.0790957,106.96759 14.0790957,107.475997 13.7625095,107.79177 L13.7625095,107.79177 Z M8.06924053,111.207976 L5.22321564,114.055626 L2.94452629,111.77653 L5.79339598,108.930505 L5.22321564,108.360325 C4.90744221,108.045771 4.39903479,108.045771 4.08448056,108.360325 L1.23683007,111.207976 C0.921056642,111.522123 0.921056642,112.030531 1.23683007,112.345085 L4.6546609,115.76251 C4.96921513,116.077064 5.47721615,116.077064 5.79339598,115.76251 L8.63901446,112.914859 C8.95316229,112.600711 8.95316229,112.09271 8.63901446,111.776124 L8.06924053,111.207976 L8.06924053,111.207976 Z M5.22321564,111.77653 C5.53776987,112.09271 6.04739649,112.09271 6.36195071,111.77653 L9.77774954,108.360732 C10.0923038,108.046177 10.0923038,107.536551 9.77774954,107.221996 C9.46360171,106.907849 8.95356869,106.907849 8.63901446,107.221996 L5.22280924,110.638202 C4.90744221,110.951943 4.90744221,111.461976 5.22321564,111.77653 L5.22321564,111.77653 Z" id="Shape-Copy"></path>
</g>
</g>
</g>
</g>
</g>
</symbol>

<symbol id="icon-twitter" viewBox="0 0 14 12">
<title>twitter</title>
<g stroke="none" stroke-width="1" fill="none" fill-rule="evenodd">
<g transform="translate(-269.000000, -395.000000)" fill="#666666">
<g transform="translate(238.000000, 142.000000)">
<g transform="translate(30.000000, 123.000000)">
<g>
<path d="M14.9688321,131.4153 C14.4548686,131.655354 13.9025328,131.817596 13.3228102,131.890565 C13.9145401,131.517004 14.368927,130.925507 14.5829124,130.220735 C14.0291971,130.566583 13.415854,130.817776 12.7630657,130.953166 C12.2402628,130.366565 11.4954526,130 10.6711898,130 C9.08842336,130 7.80522628,131.351372 7.80522628,133.018188 C7.80522628,133.254744 7.83062044,133.485112 7.87946715,133.706009 C5.49762774,133.580143 3.38592701,132.378529 1.97243796,130.552484 C1.72575182,130.99826 1.58442336,131.516735 1.58442336,132.069865 C1.58442336,133.116987 2.09041606,134.040825 2.85939416,134.582063 C2.38957664,134.566404 1.94770803,134.430637 1.56127737,134.204574 C1.56107299,134.217166 1.56107299,134.229812 1.56107299,134.242511 C1.56107299,135.704897 2.54894161,136.924807 3.8599854,137.202045 C3.61948175,137.271031 3.36630657,137.307892 3.10490511,137.307892 C2.92024818,137.307892 2.74070073,137.289004 2.56575182,137.253758 C2.93041606,138.452897 3.98879562,139.325507 5.24286861,139.349883 C4.26205109,140.159372 3.02632117,140.641901 1.68364964,140.641901 C1.45234307,140.641901 1.22420438,140.627641 1,140.599767 C2.26827737,141.456126 3.77470803,141.955767 5.39313869,141.955767 C10.6644964,141.955767 13.5470657,137.356646 13.5470657,133.368179 C13.5470657,133.237309 13.5443066,133.107139 13.5387883,132.977722 C14.0986861,132.552179 14.5845985,132.020574 14.9688321,131.4153" id="Fill-1-Copy-2"></path>
</g>
</g>
</g>
</g>
</g>
</symbol>

<symbol id="icon-github" viewBox="0 0 14 14">
<title>github</title>
<g stroke="none" stroke-width="1" fill="none" fill-rule="evenodd">
<g transform="translate(-269.000000, -422.000000)" fill="#666666">
<g transform="translate(238.000000, 142.000000)">
<g transform="translate(30.000000, 123.000000)">
<g>
<path d="M7.91006061,157 C4.094,157 1,160.190687 1,164.126875 C1,167.275563 2.97993939,169.9465 5.72606061,170.889313 C6.07181818,170.9545 6.19781818,170.734438 6.19781818,170.545437 C6.19781818,170.376563 6.19187879,169.928125 6.18848485,169.333562 C4.26624242,169.764062 3.86066667,168.378062 3.86066667,168.378062 C3.54630303,167.555125 3.09321212,167.3355 3.09321212,167.3355 C2.46575758,166.893625 3.14072727,166.902375 3.14072727,166.902375 C3.83436364,166.952687 4.19921212,167.636937 4.19921212,167.636937 C4.81563636,168.725875 5.81684848,168.411313 6.21054545,168.229312 C6.27333333,167.768625 6.45151515,167.4545 6.64921212,167.276438 C5.11472727,167.096625 3.50133333,166.485 3.50133333,163.754125 C3.50133333,162.97625 3.77072727,162.340125 4.21278788,161.841813 C4.14151515,161.661563 3.90436364,160.937062 4.28024242,159.95575 C4.28024242,159.95575 4.86060606,159.764125 6.18084848,160.686375 C6.73193939,160.528 7.32333333,160.44925 7.91090909,160.446625 C8.49763636,160.44925 9.0890303,160.528 9.6409697,160.686375 C10.9603636,159.764125 11.5394545,159.95575 11.5394545,159.95575 C11.9166061,160.937062 11.6794545,161.661563 11.6081818,161.841813 C12.0510909,162.340125 12.3187879,162.97625 12.3187879,163.754125 C12.3187879,166.492 10.7028485,167.094437 9.16327273,167.27075 C9.41145455,167.490813 9.63248485,167.925688 9.63248485,168.590688 C9.63248485,169.543125 9.624,170.311813 9.624,170.545437 C9.624,170.736187 9.74830303,170.958 10.0991515,170.888438 C12.8431515,169.943875 14.8213939,167.274687 14.8213939,164.126875 C14.8213939,160.190687 11.7269697,157 7.91006061,157"></path>
</g>
</g>
</g>
</g>
</g>
</symbol>

<symbol id="icon-location"  viewBox="0 0 9 12">
<title>location</title>
<g stroke="none" stroke-width="1" fill="none" fill-rule="evenodd">
<g transform="translate(-396.000000, -319.000000)">
<g transform="translate(238.000000, 142.000000)">
<g transform="translate(30.000000, 123.000000)">
<g>
<g transform="translate(128.000000, 54.000000)">
<circle fill="#535353" cx="4.5" cy="4.5" r="4.5"></circle>
<polygon fill="#535353" transform="translate(4.500000, 8.000000) rotate(-45.000000) translate(-4.500000, -8.000000) " points="2.35355339 5.14644661 7.35355339 5.14644661 7.35355339 10.1464466 1.64644661 10.8535534"></polygon>
<circle fill="#FFFFFF" cx="4.5" cy="4.5" r="2"></circle>
</g>
</g>
</g>
</g>
</g>
</g>
</symbol>

<symbol id="icon-caret-down" viewBox="0 0 16 9">
<title>caret-down</title>
<path d="M16,1c0,0.3-0.1,0.5-0.3,0.7l-7,7C8.5,8.9,8.3,9,8,9S7.5,8.9,7.3,8.7l-7-7C0.1,1.5,0,1.3,0,1c0-0.5,0.5-1,1-1h14
C15.5,0,16,0.5,16,1z"/>
</symbol>

<symbol id="icon-arrow-right" viewBox="0 0 32 32">
<title>arrow-right</title>
<path d="M24.448 14.784l-14.4-13.824c-0.64-0.64-1.856-0.64-2.496 0-0.32 0.32-0.512 0.768-0.512 1.28 0 0.448 0.192 0.896 0.512 1.216l13.12 12.608-13.12 12.608c-0.32 0.32-0.512 0.704-0.512 1.152 0 0.32 0.128 0.64 0.448 1.088l0.064 0.128c0.32 0.32 0.768 0.512 1.216 0.512s0.896-0.192 1.216-0.512l14.336-13.76c0.32-0.32 0.512-0.768 0.512-1.216s-0.064-0.96-0.384-1.28z"></path>
</symbol>

<symbol id="icon-post-heart" viewBox="0 0 17 14">
<title>post-heart</title>
<g stroke="none" stroke-width="1" fill="none" fill-rule="evenodd">
<g transform="translate(-264.000000, -1237.000000)" stroke="#888888">
<g transform="translate(238.000000, 618.000000)">
<path d="M37.6306239,620 C36.228697,620 34.9996259,620.712749 34.2958563,621.785801 C33.5920868,620.712749 32.3618932,620 30.9599663,620 C28.7723319,620 27,621.729679 27,623.864559 C27,627.185857 32.0543448,631.236741 34.2958563,632 C36.5878777,631.236741 41.5917127,626.712188 41.5917127,623.864559 C41.5917127,621.729679 39.8182583,620 37.6306239,620 L37.6306239,620 Z" id="Page-1"></path>
</g>
</g>
</g>
</symbol>

<symbol id="icon-camera" viewBox="0 0 19 15">
<title>camera</title>
<g stroke="none" stroke-width="1" fill="none" fill-rule="evenodd">
<g transform="translate(-166.000000, -190.000000)" fill="#FFFFFF">
<g transform="translate(113.000000, 142.000000)">
<path d="M69.3605195,50.4446753 L66.5397403,50.4446753 C66.5397403,49.0944623 65.4452779,48 64.0950649,48 L60.7101299,48 C59.3599169,48 58.2654545,49.0944623 58.2654545,50.4446753 L55.4446753,50.4446753 C54.0944623,50.4446753 53,51.5391377 53,52.8893506 L53,60.0353247 C53,61.3855377 54.0944623,62.48 55.4446753,62.48 L69.3605195,62.48 C70.7107325,62.48 71.8051948,61.3855377 71.8051948,60.0353247 L71.8051948,52.8893506 C71.8051948,51.5391377 70.7107325,50.4446753 69.3605195,50.4446753 Z M62.4025974,54.0176623 C61.054641,54.0176623 59.9579221,55.1143813 59.9579221,56.4623377 C59.9579221,57.810294 61.054641,58.907013 62.4025974,58.907013 C63.7505538,58.907013 64.8472727,57.810294 64.8472727,56.4623377 C64.8472727,55.1143813 63.7505538,54.0176623 62.4025974,54.0176623 Z M62.4025974,60.7875325 C60.0175345,60.7875325 58.0774026,58.8472125 58.0774026,56.4623377 C58.0774026,54.0774629 60.0175345,52.1371429 62.4025974,52.1371429 C64.7876603,52.1371429 66.7277922,54.0774629 66.7277922,56.4623377 C66.7277922,58.8472125 64.7876603,60.7875325 62.4025974,60.7875325 Z" id="Combined-Shape"></path>
</g>
</g>
</g>
</symbol>
</defs>
</svg>
