<?xml version="1.0" encoding="UTF-8" standalone="no"?>
<!DOCTYPE svg PUBLIC "-//W3C//DTD SVG 1.1//EN" "http://www.w3.org/Graphics/SVG/1.1/DTD/svg11.dtd">
<svg width="100%" height="100%" viewBox="0 0 16 16" version="1.1" xmlns="http://www.w3.org/2000/svg" xmlns:xlink="http://www.w3.org/1999/xlink" xml:space="preserve" style="fill-rule:evenodd;clip-rule:evenodd;stroke-linejoin:round;stroke-miterlimit:1.41421;">
    <path id="path0_fill" d="M14.4,5.7c-0.2,-0.1 -0.4,-0.4 -0.2,-0.6c0.4,-0.9 0.2,-2 -0.5,-2.7c-0.7,-0.7 -1.8,-0.9 -2.7,-0.5c-0.2,0.1 -0.5,0 -0.6,-0.2c-0.4,-1 -1.3,-1.7 -2.4,-1.7c-1.1,0 -2,0.7 -2.3,1.6c-0.1,0.2 -0.4,0.4 -0.6,0.2c-0.9,-0.4 -2,-0.2 -2.7,0.5c-0.8,0.8 -0.9,1.9 -0.6,2.8c0.1,0.2 0,0.5 -0.2,0.6c-0.9,0.3 -1.6,1.2 -1.6,2.3c0,1.1 0.7,2 1.6,2.3c0.2,0.1 0.4,0.4 0.2,0.6c-0.4,0.9 -0.2,2 0.5,2.7c0.7,0.7 1.8,0.9 2.7,0.5c0.2,-0.1 0.5,0 0.6,0.2c0.4,1 1.3,1.7 2.4,1.7c1.1,0 2,-0.7 2.3,-1.6c0.1,-0.2 0.4,-0.4 0.6,-0.2c0.9,0.4 2,0.2 2.7,-0.5c0.7,-0.7 0.9,-1.8 0.5,-2.7c-0.1,-0.2 0,-0.5 0.2,-0.6c1,-0.4 1.7,-1.3 1.7,-2.4c0,-1.1 -0.7,-2 -1.6,-2.3Zm-7.1,5.4l-0.7,0.7l-0.7,-0.7l-2.1,-2.1l1.4,-1.4l1.3,1.4l4.1,-4l1.4,1.3l-4.7,4.8Z" style="fill:#14c07b;fill-rule:nonzero;"/>
</svg>
