<svg width="1946" height="638" viewBox="0 0 1946 638" xmlns="http://www.w3.org/2000/svg"><title>Artboard</title><defs><linearGradient x1="49.998%" y1="99.999%" x2="49.998%" y2="0%" id="a"><stop stop-color="#FFF" offset="0%"/><stop stop-color="#FFF" stop-opacity=".881" offset="11.89%"/><stop stop-color="#FFF" stop-opacity="0" offset="100%"/></linearGradient><linearGradient x1="49.998%" y1="100%" x2="49.998%" y2="0%" id="b"><stop stop-color="#FFF" offset="0%"/><stop stop-color="#FFF" stop-opacity=".881" offset="11.89%"/><stop stop-color="#FFF" stop-opacity="0" offset="100%"/></linearGradient></defs><g fill="none" fill-rule="evenodd"><path d="M969.568 169.119L758.04 291.232c-11.825-5.985-29.87-5.742-41.15.768-6.118 3.532-9.486 8.363-9.486 13.603 0 5.241 3.37 10.072 9.486 13.605 5.876 3.392 13.592 5.086 21.311 5.086 7.72 0 15.435-1.694 21.311-5.086 6.118-3.533 9.486-8.364 9.486-13.605 0-4.343-2.346-8.394-6.62-11.668l208.396-120.307h226.83l.054 130.677-95.084 53.532c-11.808-6.278-30.241-6.128-41.697.48-6.119 3.531-9.489 8.363-9.489 13.603 0 5.241 3.371 10.073 9.489 13.605 5.876 3.393 13.591 5.088 21.31 5.087 7.716 0 15.436-1.696 21.31-5.087 6.118-3.532 9.485-8.363 9.485-13.604 0-4.183-2.179-8.095-6.158-11.303l95.343-53.678-.055-134.267 175.394-101.246c5.615 2.77 12.573 4.169 19.549 4.169 7.715 0 15.435-1.696 21.308-5.087 6.119-3.532 9.486-8.363 9.486-13.605 0-4.103-2.091-7.943-5.923-11.118l235.6-136-2.255-3.906L1417.76 42.986c-11.793-6.45-30.458-6.353-42.015.315-6.119 3.532-9.489 8.363-9.489 13.603 0 4.426 2.429 8.548 6.86 11.854l-173.86 100.362h-229.69v-.001zM764.49 305.603c0 3.563-2.567 7.008-7.232 9.7-10.508 6.066-27.606 6.066-38.113 0-4.665-2.692-7.233-6.137-7.233-9.7 0-3.562 2.57-7.006 7.233-9.698 9.257-5.344 23.623-5.973 34.097-1.902a29.22 29.22 0 0 1 4.017 1.902c.288.167.543.344.815.516 4.13 2.61 6.416 5.84 6.416 9.182zm343.984 66.318c0 3.563-2.566 7.006-7.232 9.699-10.506 6.068-27.606 6.067-38.11 0-4.665-2.693-7.236-6.138-7.236-9.7 0-3.56 2.57-7.005 7.235-9.697 5.253-3.034 12.154-4.55 19.054-4.55 5.47 0 10.926.97 15.576 2.874 1.217.498 2.392 1.047 3.482 1.676.455.262.872.537 1.287.814 3.836 2.556 5.944 5.67 5.944 8.884zm262.29-315.018c0-3.562 2.57-7.005 7.235-9.698 5.254-3.033 12.155-4.55 19.054-4.55 5.635 0 11.255 1.029 15.993 3.051 1.065.455 2.1.943 3.064 1.5.567.326 1.098.664 1.602 1.013 3.645 2.517 5.63 5.556 5.63 8.685 0 3.563-2.566 7.007-7.232 9.699-9.16 5.29-23.325 5.963-33.766 2.033a29.426 29.426 0 0 1-4.345-2.033c-.194-.112-.362-.233-.55-.347-4.303-2.64-6.684-5.938-6.684-9.353zM140.67 120.312c5.874 3.391 13.591 5.087 21.31 5.087 7.718 0 15.435-1.696 21.31-5.087 6.118-3.532 9.485-8.363 9.486-13.603 0-4.219-2.215-8.158-6.256-11.382l92.33-52.646h229.693l94.114-54.332c5.711 2.966 12.907 4.469 20.126 4.469 7.718 0 15.435-1.696 21.31-5.087 6.12-3.532 9.487-8.363 9.487-13.604 0-4.265-2.264-8.245-6.392-11.487l88.588-51.142h231.737L966.09 39.683 870.81 94.41c-11.807-5.239-28.837-4.757-39.65 1.482-6.117 3.533-9.485 8.364-9.485 13.605 0 5.24 3.369 10.07 9.486 13.604 5.876 3.391 13.592 5.087 21.309 5.087 7.718 0 15.435-1.696 21.31-5.087 6.119-3.533 9.487-8.364 9.487-13.604 0-4.739-2.779-9.134-7.83-12.546l95.132-54.64 1.504-135.32H734.57l-91.66 52.915c-11.816-6.136-30.068-5.945-41.437.618-6.118 3.532-9.486 8.363-9.486 13.604 0 4.265 2.264 8.245 6.391 11.487l-91.042 52.558h-229.68l-95.394 54.394c-11.81-6.22-30.172-6.055-41.59.537-6.118 3.533-9.487 8.364-9.487 13.605-.004 5.239 3.366 10.07 9.485 13.603zm738.085-10.816c0 3.561-2.567 7.006-7.232 9.698-10.508 6.068-27.603 6.065-38.11 0-4.666-2.692-7.233-6.137-7.233-9.698 0-3.562 2.566-7.007 7.232-9.7 8.762-5.057 22.092-5.882 32.376-2.505a30.917 30.917 0 0 1 5.187 2.22c.18.098.372.184.548.286 4.665 2.692 7.232 6.137 7.232 9.699zM596.493-25.874c0-3.561 2.566-7.005 7.232-9.697 5.253-3.034 12.155-4.55 19.054-4.55 5.384 0 10.756.936 15.358 2.781 1.298.521 2.545 1.102 3.701 1.769.38.22.723.451 1.074.68 3.969 2.581 6.157 5.746 6.157 9.019 0 3.562-2.566 7.006-7.232 9.698-9.352 5.398-23.912 5.98-34.411 1.77-1.299-.522-2.545-1.102-3.702-1.77-.38-.219-.723-.45-1.074-.68-3.969-2.582-6.157-5.746-6.157-9.02zM142.923 97.01c9.392-5.423 24.037-5.982 34.546-1.71 1.248.507 2.45 1.066 3.565 1.71.425.245.812.502 1.202.76 3.889 2.566 6.03 5.701 6.03 8.94-.001 3.561-2.569 7.005-7.234 9.697-10.506 6.067-27.604 6.067-38.11 0-4.664-2.692-7.234-6.137-7.234-9.699.003-3.561 2.572-7.006 7.235-9.698zm868.882 996.373c7.718 0 15.435-1.697 21.31-5.088 6.119-3.533 9.487-8.365 9.487-13.606 0-4.052-2.036-7.852-5.778-11.004l46.458-26.82 1.127-.651v-132.62l552.363-318.882c5.804 3.188 13.272 4.797 20.756 4.797 7.718 0 15.435-1.695 21.311-5.086 6.118-3.532 9.486-8.363 9.486-13.605 0-4.439-2.44-8.574-6.898-11.885l90.907-52.48 1.126-.651.042-132.598 344.524-198.874V38.176l-232.58-.02-395.803 228.508c-11.81-6.232-30.184-6.073-41.616.523-6.119 3.532-9.486 8.363-9.486 13.603 0 4.315 2.315 8.34 6.536 11.603l-363.492 209.853H851.863L528.055 689.18c-11.82-6.123-30.05-5.92-41.408.632-6.119 3.533-9.487 8.365-9.487 13.607 0 5.239 3.37 10.071 9.487 13.602 5.876 3.392 13.59 5.087 21.31 5.087 7.716 0 15.435-1.697 21.31-5.087 6.119-3.531 9.486-8.363 9.486-13.602 0-4.273-2.271-8.26-6.413-11.507l320.73-185.157h226.865v129.041l-35.07 20.244c-11.821-6.13-30.06-5.935-41.426.622-6.119 3.533-9.486 8.365-9.486 13.606 0 4.26 2.26 8.237 6.38 11.477L737.019 833.74H507.335L277.649 966.336H79.166c-.826-4.36-4.026-8.332-9.255-11.348-11.75-6.785-30.87-6.785-42.62 0-6.118 3.53-9.487 8.363-9.487 13.602 0 4.26 2.26 8.236 6.378 11.477l-665.8 384.385 2.254 3.906L28.46 982.804c5.714 2.974 12.916 4.48 20.143 4.48 7.716-.002 15.435-1.696 21.31-5.089 5.228-3.017 8.429-6.988 9.255-11.35H276v111.735c-6.949.298-13.754 1.963-19.056 5.024-6.118 3.531-9.487 8.363-9.487 13.605 0 4.265 2.265 8.246 6.393 11.489l-436.095 251.755 2.255 3.906 438.122-252.927c5.71 2.965 12.908 4.47 20.124 4.47 7.717 0 15.435-1.698 21.31-5.088 6.118-3.53 9.487-8.363 9.487-13.604 0-5.242-3.37-10.074-9.487-13.605-5.304-3.058-12.106-4.724-19.055-5.024V969.894L508.546 838.25h226.827v129.042l-104.23 60.175c-11.82-6.105-30.024-5.9-41.376.648-6.119 3.53-9.486 8.363-9.486 13.602 0 4.25 2.246 8.215 6.345 11.451l-539.18 311.286 2.254 3.906 541.197-312.45c5.72 2.987 12.941 4.5 20.182 4.5 7.716 0 15.435-1.696 21.309-5.087 6.118-3.533 9.486-8.365 9.486-13.606 0-4.28-2.28-8.273-6.438-11.521l103.32-59.65 1.126-.651v-132.6l264.733-152.813c5.712 2.97 12.914 4.476 20.138 4.476 7.716 0 15.433-1.697 21.309-5.087 6.118-3.531 9.486-8.363 9.486-13.602 0-4.267-2.266-8.25-6.397-11.494l34.169-19.725 1.127-.651V505.801l364.946-210.694c5.682 2.903 12.804 4.375 19.943 4.375 7.718 0 15.435-1.696 21.311-5.087 6.119-3.533 9.486-8.364 9.486-13.606 0-4.214-2.21-8.15-6.245-11.371l392.766-226.755 226.865.021v129.042l-342.872 197.922h-229.685l-207.274 119.636c-.172-.105-.324-.218-.502-.321-11.75-6.78-30.87-6.783-42.62 0-6.118 3.532-9.487 8.364-9.487 13.604 0 5.24 3.37 10.073 9.488 13.605 5.876 3.39 13.592 5.087 21.308 5.087 7.719 0 15.436-1.696 21.312-5.087 6.118-3.533 9.485-8.365 9.485-13.605 0-3.777-1.774-7.333-5.043-10.352l204.539-118.06h226.827l-.042 129.042-91.928 53.071c-11.828-5.806-29.638-5.498-40.806.946-6.118 3.533-9.487 8.364-9.487 13.606 0 4.088 2.075 7.918 5.883 11.087L1081.029 900.34l-1.127.651v132.62l-47.21 27.253c-11.78-6.544-30.577-6.48-42.194.222-6.118 3.53-9.486 8.363-9.486 13.602 0 4.476 2.476 8.645 7.002 11.97L506.85 1364.434l2.255 3.905 483.337-279.029c5.579 2.706 12.466 4.072 19.363 4.072zm-477.56-389.964c0 3.561-2.57 7.004-7.233 9.696-10.508 6.068-27.605 6.068-38.112 0-4.663-2.692-7.232-6.135-7.233-9.696 0-3.564 2.568-7.01 7.233-9.701 9.342-5.392 23.883-5.98 34.382-1.783 1.308.524 2.565 1.11 3.73 1.783.371.213.706.44 1.05.665 3.985 2.583 6.182 5.755 6.182 9.036zM74.52 970.844c-.845 2.74-3.193 5.327-6.864 7.446-9.358 5.403-23.928 5.98-34.43 1.76-1.29-.518-2.53-1.096-3.68-1.76-.385-.223-.735-.457-1.092-.69-3.957-2.58-6.142-5.742-6.142-9.009 0-3.56 2.57-7.004 7.234-9.696 5.254-3.034 12.154-4.55 19.055-4.55s13.801 1.516 19.055 4.55c3.67 2.118 6.018 4.704 6.864 7.443.23.743.37 1.494.37 2.254 0 .758-.14 1.51-.37 2.252zm222.789 120.665c4.663 2.692 7.233 6.137 7.233 9.698 0 3.562-2.568 7.007-7.233 9.7-9.352 5.398-23.91 5.98-34.41 1.77-1.297-.522-2.545-1.103-3.702-1.77-.38-.22-.722-.451-1.073-.68-3.969-2.582-6.16-5.748-6.16-9.02 0-3.561 2.569-7.006 7.233-9.698 4.68-2.703 10.67-4.194 16.802-4.489a47.11 47.11 0 0 1 4.51 0c6.129.295 12.118 1.785 16.8 4.489zm340.05-49.794c0 3.563-2.566 7.009-7.232 9.7-9.367 5.411-23.967 5.981-34.472 1.74a28.79 28.79 0 0 1-3.638-1.742c-.398-.23-.759-.472-1.126-.712-3.937-2.575-6.106-5.729-6.106-8.986 0-3.56 2.567-7.005 7.233-9.697 5.253-3.034 12.154-4.55 19.054-4.55 5.358 0 10.706.926 15.292 2.754 1.321.527 2.59 1.117 3.764 1.796.361.21.687.43 1.023.647 3.999 2.587 6.209 5.763 6.209 9.05zm413.676-371.448c0 3.562-2.569 7.005-7.232 9.697-9.353 5.401-23.921 5.98-34.423 1.763-1.293-.519-2.536-1.098-3.688-1.763-.384-.222-.731-.456-1.087-.688-3.96-2.58-6.145-5.74-6.145-9.01 0-3.564 2.566-7.009 7.232-9.7 9.349-5.396 23.902-5.983 34.4-1.774a28.71 28.71 0 0 1 3.71 1.773c.378.217.718.448 1.068.675 3.974 2.584 6.165 5.753 6.165 9.027zm444.588-389.478c0 3.563-2.567 7.008-7.233 9.7-9.291 5.365-23.727 5.976-34.211 1.852a29.162 29.162 0 0 1-3.899-1.852c-.322-.186-.61-.383-.91-.576-4.072-2.6-6.321-5.807-6.321-9.124 0-3.561 2.569-7.005 7.232-9.697 5.253-3.034 12.154-4.55 19.057-4.55 5.46 0 10.907.966 15.552 2.865 1.224.5 2.406 1.052 3.502 1.685.437.252.838.518 1.238.783 3.865 2.562 5.993 5.687 5.993 8.914zM1338.16 502.57c0 3.561-2.567 7.006-7.233 9.698-10.505 6.068-27.605 6.068-38.11 0-4.665-2.692-7.235-6.137-7.235-9.699 0-3.561 2.57-7.006 7.235-9.698 5.253-3.034 12.152-4.55 19.054-4.55 6.134 0 12.265 1.206 17.242 3.604.621.299 1.232.61 1.814.946a21.717 21.717 0 0 1 2.558 1.736c3.021 2.368 4.675 5.124 4.675 7.962zm293.078 68.25c0-3.562 2.567-7.007 7.233-9.7 9.138-5.275 23.265-5.957 33.705-2.051a29.513 29.513 0 0 1 4.407 2.053c.179.103.332.214.503.318 4.333 2.644 6.73 5.954 6.73 9.38 0 3.562-2.567 7.006-7.233 9.698-9.56 5.52-24.558 6-35.102 1.477-1.046-.45-2.063-.93-3.012-1.477a23.125 23.125 0 0 1-1.646-1.042c-3.617-2.511-5.585-5.538-5.585-8.655zm-645.72 503.869c0-3.562 2.568-7.005 7.232-9.697 5.253-3.033 12.154-4.55 19.056-4.55 5.711 0 11.41 1.056 16.188 3.136.994.432 1.962.892 2.866 1.416a23.16 23.16 0 0 1 1.754 1.123c3.545 2.495 5.479 5.489 5.479 8.573 0 3.564-2.567 7.009-7.233 9.701-9.097 5.25-23.127 5.95-33.55 2.106-1.614-.595-3.15-1.291-4.56-2.106-.136-.079-.254-.165-.387-.244-4.41-2.656-6.846-5.998-6.846-9.458zm1036.718 2.875c-5.301-3.058-12.103-4.723-19.05-5.022v-36.327l228.565-131.969-2.255-3.905-229.169 132.318h-229.683l-93.566 54.01c-11.828-5.833-29.676-5.536-40.86.918-6.12 3.53-9.488 8.363-9.488 13.602 0 4.104 2.091 7.947 5.925 11.123l-207.06 119.521 2.255 3.906 208.972-120.628c5.797 3.169 13.242 4.772 20.704 4.772 7.718 0 15.435-1.697 21.31-5.087 6.12-3.533 9.487-8.366 9.487-13.607 0-4.423-2.426-8.546-6.854-11.85l90.38-52.171h226.827v35.374c-6.95.297-13.755 1.962-19.061 5.023-6.118 3.53-9.486 8.363-9.486 13.604 0 5.242 3.369 10.074 9.486 13.605 5.305 3.062 12.11 4.727 19.06 5.025v56.411l-458.278 264.545 2.255 3.905 459.405-265.197 1.127-.651v-59.014c6.947-.3 13.75-1.967 19.05-5.026 6.118-3.53 9.488-8.363 9.488-13.604.002-5.241-3.369-10.072-9.486-13.604zm-338.421 23.625c0 3.564-2.567 7.009-7.233 9.701-9.543 5.508-24.506 6-35.047 1.5-1.065-.454-2.101-.942-3.066-1.5a23.438 23.438 0 0 1-1.6-1.012c-3.646-2.519-5.63-5.558-5.63-8.689 0-3.562 2.568-7.004 7.232-9.696 9.16-5.287 23.326-5.965 33.771-2.032a29.381 29.381 0 0 1 4.341 2.032c.195.113.365.234.552.348 4.3 2.638 6.68 5.935 6.68 9.348zm336.166-.321c-4.678 2.702-10.666 4.193-16.796 4.488a47.11 47.11 0 0 1-4.51 0c-6.132-.295-12.124-1.785-16.805-4.488-4.666-2.692-7.233-6.137-7.233-9.699 0-3.561 2.567-7.006 7.233-9.699 4.681-2.703 10.674-4.194 16.806-4.488a47.567 47.567 0 0 1 2.248-.062c.754 0 1.508.027 2.261.062 6.13.296 12.117 1.786 16.796 4.488 4.665 2.693 7.235 6.138 7.235 9.7 0 3.56-2.57 7.005-7.235 9.698zm-573.074 13.945c6.118-3.531 9.486-8.363 9.486-13.605 0-4.102-2.09-7.943-5.92-11.116l92.21-53.23 1.128-.65-.033-132.618 687.962-397.12-2.255-3.906-688.565 397.471-229.683.02-94.086 54.328c-11.818-6.132-30.06-5.939-41.431.62-6.118 3.53-9.488 8.362-9.488 13.603 0 5.242 3.37 10.074 9.488 13.605 5.876 3.39 13.592 5.087 21.311 5.087 7.716 0 15.433-1.697 21.309-5.087 6.118-3.531 9.486-8.363 9.486-13.605 0-4.265-2.265-8.246-6.393-11.489l91.013-52.555 226.823-.02.033 129.063-92.995 53.68c-11.793-6.45-30.463-6.356-42.022.314-6.119 3.53-9.486 8.363-9.486 13.604 0 4.427 2.427 8.552 6.86 11.858l-205.267 118.49-229.683-.023-230.212 132.922 2.255 3.906 229.164-132.32 226.827.023v130.344h4.51V1235.11l206.802-119.376c5.614 2.767 12.57 4.166 19.543 4.166 7.716 0 15.433-1.697 21.309-5.087zm-223.59-146.201c0 3.561-2.566 7.006-7.232 9.698-10.505 6.069-27.605 6.067-38.11 0-4.665-2.692-7.235-6.137-7.235-9.698 0-3.562 2.569-7.007 7.235-9.7 5.253-3.033 12.154-4.55 19.054-4.55 5.382 0 10.753.935 15.354 2.78 1.299.522 2.546 1.103 3.702 1.77.38.22.722.451 1.073.68 3.97 2.58 6.16 5.747 6.16 9.02zm187.573 144.33a29.272 29.272 0 0 1-4.35-2.034c-.194-.11-.36-.23-.546-.345-4.306-2.64-6.686-5.94-6.686-9.353 0-3.562 2.567-7.007 7.232-9.7 9.546-5.509 24.513-6 35.055-1.496 1.063.454 2.096.942 3.058 1.497a23.63 23.63 0 0 1 1.607 1.016c3.643 2.517 5.626 5.555 5.626 8.683 0 3.561-2.567 7.006-7.233 9.698-9.16 5.285-23.32 5.964-33.763 2.034z" fill="#FFF" fill-rule="nonzero" opacity=".2"/><path d="M718.02 293.953c11.147-6.436 29.219-6.436 40.365 0 11.147 6.435 11.147 16.867 0 23.303-11.146 6.435-29.218 6.435-40.365 0-11.146-6.436-11.146-16.87 0-23.303 11.056-6.383 28.924-6.435 40.091-.157l212.06-122.423h229.687L1377.431 68.87a29.447 29.447 0 0 1-.56-.314c-11.146-6.436-11.146-16.868 0-23.303 11.147-6.436 29.22-6.436 40.365 0 11.147 6.435 11.147 16.867 0 23.303-11.146 6.435-29.218 6.435-40.365 0-11.146-6.436-11.146-16.868 0-23.303 11.147-6.436 29.22-6.436 40.365 0 .186.106.367.214.546.323L1656.4-92.167" stroke="#FFF" stroke-width="3.946" opacity=".45"/><path d="M697.483 52.36c-5.055-2.918-13.25-2.918-18.303 0-2.526 1.459-3.79 3.37-3.79 5.283v91.976c0 1.912 1.264 3.824 3.79 5.284 5.055 2.918 13.25 2.918 18.303 0 2.526-1.46 3.79-3.371 3.79-5.284V57.642c0-1.912-1.264-3.823-3.79-5.283z" fill="url(#a)" fill-rule="nonzero" opacity=".4" transform="translate(708.723 -92.715)"/><path d="M38.632 301.058c-5.055-2.917-13.25-2.917-18.303 0-2.526 1.46-3.79 3.37-3.79 5.284v91.976c0 1.911 1.264 3.824 3.79 5.283 5.055 2.919 13.25 2.919 18.303 0 2.526-1.459 3.79-3.37 3.79-5.283V306.34c0-1.911-1.264-3.824-3.79-5.283z" fill="url(#b)" fill-rule="nonzero" opacity=".4" transform="translate(708.723 -92.715)"/><path d="M1196.998 1366.407V1233.81l208.978-120.633a24.382 24.382 0 0 1-.561-.316c-11.147-6.435-11.147-16.868 0-23.303 11.146-6.435 29.219-6.435 40.365 0s11.146 16.868 0 23.303c-11.146 6.436-29.219 6.436-40.365 0-11.147-6.435-11.147-16.868 0-23.303 11.146-6.435 29.219-6.435 40.365 0 .186.107.369.216.548.326l95.23-54.973-.032-132.616 689.089-397.773" opacity=".45" stroke="#FFF" stroke-width="3.946"/></g></svg>