<svg width="312" height="239" viewBox="0 0 312 239" xmlns="http://www.w3.org/2000/svg"><title>improve-availability</title><defs><linearGradient x1="50.001%" y1="100%" x2="50.001%" y2=".156%" id="a"><stop stop-color="#0069FF" stop-opacity=".5" offset="0%"/><stop stop-color="#0069FF" stop-opacity=".3" offset="21.53%"/><stop stop-color="#0069FF" stop-opacity=".05" offset="100%"/></linearGradient><linearGradient x1="50%" y1="100.674%" x2="50%" y2="-.893%" id="b"><stop stop-color="#0080FF" offset="0%"/><stop stop-color="#00D688" offset="100%"/></linearGradient><linearGradient x1="-.001%" y1="50%" y2="50%" id="c"><stop stop-color="#005AFF" stop-opacity=".2" offset="0%"/><stop stop-color="#005AFF" stop-opacity="0" offset="100%"/></linearGradient><linearGradient x1="90.768%" y1="120.217%" x2="9.231%" y2="-20.219%" id="d"><stop stop-color="#00D688" offset="0%"/><stop stop-color="#0072FF" offset="100%"/></linearGradient><linearGradient x1="-.001%" y1="50%" x2="99.999%" y2="50%" id="e"><stop stop-color="#0072FF" offset="0%"/><stop stop-color="#0072FF" stop-opacity=".2" offset="100%"/></linearGradient><linearGradient x1="-.001%" y1="50.002%" x2="99.999%" y2="50.002%" id="f"><stop stop-color="#0072FF" offset="0%"/><stop stop-color="#0072FF" stop-opacity=".2" offset="100%"/></linearGradient><linearGradient x1="90.768%" y1="120.219%" x2="9.23%" y2="-20.218%" id="g"><stop stop-color="#00D688" offset="0%"/><stop stop-color="#0072FF" offset="100%"/></linearGradient><linearGradient x1="-.001%" y1="49.999%" x2="99.998%" y2="49.999%" id="h"><stop stop-color="#0072FF" offset="0%"/><stop stop-color="#0072FF" stop-opacity=".2" offset="100%"/></linearGradient><linearGradient x1="-.001%" y1="50%" y2="50%" id="i"><stop stop-color="#0072FF" offset="0%"/><stop stop-color="#0072FF" stop-opacity=".2" offset="100%"/></linearGradient></defs><g transform="translate(1 1)" fill="none" fill-rule="evenodd"><path d="M122.017 92.273c0 33.696-27.115 60.812-60.812 60.812S.393 125.97.393 92.273C.393 52.522 61.205.836 61.205.836s60.812 53.441 60.812 91.437z" opacity=".5" transform="translate(103 46)" fill-rule="nonzero" fill="url(#a)"/><path d="M230.721 139.063c0 36.855-29.66 66.515-66.515 66.515-36.855 0-66.515-29.66-66.515-66.515 0-43.525 66.515-100.563 66.515-100.563s66.515 59.057 66.515 100.563z" stroke="url(#b)" stroke-width="2.25"/><ellipse fill="url(#c)" fill-rule="nonzero" cx="164.206" cy="228.394" rx="37.645" ry="9.038"/><g transform="translate(183)"><path d="M47.052 46.87L5.874 88.048" stroke="#0072FF" stroke-width="2" stroke-linecap="round" stroke-dasharray="0,5"/><path stroke="url(#d)" stroke-width="2" fill="#FFF" fill-rule="nonzero" d="M47.052.568h79.75v46.303h-79.75z"/><path fill="#0072FF" fill-rule="nonzero" opacity=".3" d="M55.961 10.18h61.932v5.63H55.961z"/><path fill="url(#e)" fill-rule="nonzero" d="M55.961 10.18h40.833v5.63H55.961z"/><path fill="url(#f)" fill-rule="nonzero" d="M55.961 20.904h56.777v5.63H55.961z"/><path fill="#0072FF" fill-rule="nonzero" opacity=".3" d="M55.961 20.904h61.932v5.63H55.961zM55.961 31.628h17.24v5.63h-17.24z"/><path fill="#0072FF" fill-rule="nonzero" opacity=".3" d="M55.961 31.628h61.932v5.63H55.961z"/><path d="M55.961 7.901v31.636" stroke="#0072FF"/><circle fill="#0072FF" fill-rule="nonzero" cx="5.874" cy="88.048" r="5.686"/></g><g transform="translate(0 52)"><path d="M79.948 46.757l47.891 47.89" stroke="#0072FF" stroke-width="2" stroke-linecap="round" stroke-dasharray="0,5"/><circle fill="#0072FF" fill-rule="nonzero" cx="127.839" cy="94.647" r="5.686"/><path stroke="url(#g)" stroke-width="2" fill="#FFF" fill-rule="nonzero" d="M.199.454h79.75v46.303H.199z"/><path d="M9.108 39.424h61.931" stroke="#0072FF"/><path d="M12.049 39.424c8.222 0 14.762-29.357 28.025-29.357 13.263 0 20.055 29.357 28.277 29.357H12.049z" fill="url(#h)" fill-rule="nonzero"/><path d="M12.049 39.424c19.482 0 21.269-14.335 32.351-14.335 8.401 0 16.086 14.335 23.95 14.335H12.049z" fill="url(#i)" fill-rule="nonzero"/></g></g></svg>