<svg width="289" height="343" viewBox="0 0 289 343" xmlns="http://www.w3.org/2000/svg"><title>Artboard</title><defs><linearGradient x1="50%" y1="101.753%" x2="50%" y2="-1.754%" id="a"><stop stop-color="#0080FF" offset="15.11%"/><stop stop-color="#00D688" offset="100%"/></linearGradient><linearGradient x1="0%" y1="49.999%" y2="49.999%" id="b"><stop stop-color="#0069FF" stop-opacity=".5" offset="0%"/><stop stop-color="#0069FF" stop-opacity=".3" offset="21.53%"/><stop stop-color="#0069FF" stop-opacity=".05" offset="100%"/></linearGradient><linearGradient x1="50%" y1="101.402%" x2="50%" y2="-1.403%" id="c"><stop stop-color="#0080FF" offset="15.11%"/><stop stop-color="#00D688" offset="100%"/></linearGradient><linearGradient x1="-.005%" y1="50%" x2="100.002%" y2="50%" id="d"><stop stop-color="#0080FF" offset="15.11%"/><stop stop-color="#00D688" offset="100%"/></linearGradient><linearGradient x1="0%" y1="49.999%" y2="49.999%" id="e"><stop stop-color="#fff" stop-opacity=".2" offset="0%"/><stop stop-color="#fff" stop-opacity=".248" offset="5.97%"/><stop stop-color="#fff" offset="100%"/></linearGradient><linearGradient x1="50%" y1="99.137%" x2="50%" y2="24.706%" id="f"><stop stop-color="#0069FF" stop-opacity=".5" offset="0%"/><stop stop-color="#0069FF" stop-opacity=".3" offset="21.53%"/><stop stop-color="#0069FF" stop-opacity=".05" offset="100%"/></linearGradient><linearGradient x1=".04%" y1="6.49%" x2=".04%" y2="6.49%" id="g"><stop stop-color="#0080FF" offset="15.11%"/><stop stop-color="#00D688" offset="100%"/></linearGradient><linearGradient x1="-.04%" y1="6.53%" x2="-.04%" y2="6.53%" id="h"><stop stop-color="#0080FF" offset="15.11%"/><stop stop-color="#00D688" offset="100%"/></linearGradient><linearGradient x1="-1.259%" y1="49.858%" x2="101.26%" y2="49.858%" id="i"><stop stop-color="#0080FF" offset="15.11%"/><stop stop-color="#00D688" offset="100%"/></linearGradient><linearGradient x1="-.001%" y1="49.999%" x2="99.999%" y2="49.999%" id="j"><stop stop-color="#fff" stop-opacity=".2" offset="0%"/><stop stop-color="#fff" stop-opacity=".248" offset="5.97%"/><stop stop-color="#fff" offset="100%"/></linearGradient><linearGradient x1="49.999%" y1="99.137%" x2="49.999%" y2="24.706%" id="k"><stop stop-color="#0069FF" stop-opacity=".5" offset="0%"/><stop stop-color="#0069FF" stop-opacity=".3" offset="21.53%"/><stop stop-color="#0069FF" stop-opacity=".05" offset="100%"/></linearGradient><linearGradient x1="0%" y1="6.49%" x2="0%" y2="6.49%" id="l"><stop stop-color="#0080FF" offset="15.11%"/><stop stop-color="#00D688" offset="100%"/></linearGradient><linearGradient x1=".02%" y1="6.53%" x2=".02%" y2="6.53%" id="m"><stop stop-color="#0080FF" offset="15.11%"/><stop stop-color="#00D688" offset="100%"/></linearGradient><linearGradient x1="-1.26%" y1="49.858%" x2="101.259%" y2="49.858%" id="n"><stop stop-color="#0080FF" offset="15.11%"/><stop stop-color="#00D688" offset="100%"/></linearGradient><linearGradient x1="-3.156%" y1="50%" x2="103.155%" y2="50%" id="o"><stop stop-color="#0072FF" offset="0%"/><stop stop-color="#0072FF" stop-opacity=".2" offset="100%"/></linearGradient><linearGradient x1="103.156%" y1="50%" x2="-3.155%" y2="50%" id="p"><stop stop-color="#0080FF" offset="15.11%"/><stop stop-color="#00D688" offset="100%"/></linearGradient><linearGradient x1="49.998%" y1="99.998%" x2="49.998%" y2="-.002%" id="q"><stop stop-color="#0069FF" stop-opacity=".5" offset="0%"/><stop stop-color="#0069FF" stop-opacity=".3" offset="21.53%"/><stop stop-color="#0069FF" stop-opacity="0" offset="100%"/></linearGradient></defs><g fill="none"><g transform="translate(96.166 6)"><ellipse fill="#fff" cx="47.786" cy="47.835" rx="47.32" ry="47.566"/><ellipse stroke="url(#a)" stroke-width="2.5" stroke-linecap="round" cx="47.786" cy="47.835" rx="47.32" ry="47.566"/></g><g transform="translate(96.166 6)"><ellipse fill="url(#b)" opacity=".5" cx="47.786" cy="47.835" rx="47.32" ry="47.566"/><path d="M47.786 6.941c22.433 0 40.683 18.345 40.683 40.894s-18.25 40.894-40.683 40.894S7.103 70.384 7.103 47.835 25.353 6.941 47.786 6.941zm0-6.671C21.652.27.466 21.566.466 47.836c0 26.269 21.186 47.566 47.32 47.566s47.32-21.296 47.32-47.566C95.106 21.565 73.92.27 47.786.27z" fill="#fff"/><ellipse stroke="url(#c)" stroke-width="2" stroke-linecap="round" cx="47.786" cy="47.835" rx="47.32" ry="47.566"/><path d="M64.15 56.228l.045-4.649c0-3.861-3.126-7.004-6.967-7.004h-8.194l-.032-7.573a5.823 5.823 0 0 0 4.525-5.683c0-3.222-2.599-5.835-5.805-5.835-3.206 0-5.805 2.613-5.805 5.835a5.826 5.826 0 0 0 4.557 5.692l.032 7.563h-8.055c-3.841 0-6.967 3.142-6.967 6.996l-.042 4.655a7.034 7.034 0 0 0-5.752 6.916c0 3.884 3.143 7.044 7.007 7.044s7.007-3.16 7.007-7.044a7.034 7.034 0 0 0-5.734-6.914l.042-4.649c0-2.46 1.991-4.462 4.439-4.462h18.776c2.446 0 4.439 2.001 4.439 4.454l-.045 4.655a7.035 7.035 0 0 0-5.753 6.916c0 3.884 3.143 7.044 7.007 7.044s7.007-3.16 7.007-7.044a7.034 7.034 0 0 0-5.733-6.913zm-26.975 6.914c0 2.482-2.01 4.502-4.479 4.502-2.469 0-4.479-2.02-4.479-4.502 0-2.482 2.01-4.502 4.479-4.502 2.469 0 4.479 2.02 4.479 4.502zm25.702 4.502c-2.469 0-4.479-2.02-4.479-4.502 0-2.482 2.01-4.502 4.479-4.502 2.469 0 4.479 2.02 4.479 4.502 0 2.482-2.01 4.502-4.479 4.502z" fill="url(#d)"/></g><path d="M7.139 283.655c0-39.668 52.704-81.902 52.704-81.902s52.66 43.581 52.66 81.902c0 29.273-23.582 52.977-52.704 52.977-29.12-.001-52.66-23.749-52.66-52.977z" fill="#fff"/><path d="M9.865 283.568c0-37.493 49.761-77.377 49.761-77.377s49.761 41.19 49.761 77.377c0 27.62-22.284 50.019-49.761 50.019-27.477 0-49.761-22.401-49.761-50.019z" fill="url(#e)"/><path d="M9.865 283.568c0-37.493 49.761-77.377 49.761-77.377s49.761 41.19 49.761 77.377c0 27.62-22.284 50.019-49.761 50.019-27.477 0-49.761-22.401-49.761-50.019z" fill="url(#f)" opacity=".5"/><path d="M104.281 284.525v.173-.174z" fill="url(#g)"/><path d="M14.972 284.567v.174-.173z" fill="url(#h)"/><path d="M59.784 210.554c4.793 4.344 13.073 12.262 21.316 22.082 16.202 19.304 24.766 36.946 24.766 51.019 0 25.533-20.665 46.306-46.067 46.306-25.377 0-46.023-20.772-46.023-46.306 0-14.564 8.513-32.311 24.618-51.324 8.231-9.718 16.559-17.507 21.389-21.777zm.058-8.801S7.138 243.987 7.138 283.655c0 29.229 23.538 52.977 52.66 52.977 29.121 0 52.704-23.705 52.704-52.977 0-38.319-52.66-81.902-52.66-81.902z" fill="#fff"/><path d="M7.139 283.655c0-39.668 52.704-81.902 52.704-81.902s52.66 43.581 52.66 81.902c0 29.273-23.582 52.977-52.704 52.977-29.12-.001-52.66-23.749-52.66-52.977z" stroke="url(#i)" stroke-width="2" stroke-linecap="round"/><g transform="translate(40.416 266.184)" fill="#0080FF"><ellipse cx="19.405" cy="31.736" rx="6.178" ry="6.21"/><ellipse cx="19.405" cy="7.134" rx="6.178" ry="6.21"/><ellipse cx="31.642" cy="19.435" rx="6.178" ry="6.21"/><ellipse cx="7.167" cy="19.435" rx="6.178" ry="6.21"/></g><g><path d="M175.402 283.655c0-39.668 52.704-81.902 52.704-81.902s52.66 43.581 52.66 81.902c0 29.273-23.582 52.977-52.704 52.977-29.121-.001-52.66-23.749-52.66-52.977z" fill="#fff"/><path d="M178.128 283.568c0-37.493 49.761-77.377 49.761-77.377s49.761 41.19 49.761 77.377c0 27.62-22.284 50.019-49.761 50.019-27.477 0-49.761-22.401-49.761-50.019z" fill="url(#j)"/><path d="M178.128 283.568c0-37.493 49.761-77.377 49.761-77.377s49.761 41.19 49.761 77.377c0 27.62-22.284 50.019-49.761 50.019-27.477 0-49.761-22.401-49.761-50.019z" fill="url(#k)" opacity=".5"/><path d="M272.544 284.525v.173-.174z" fill="url(#l)"/><path d="M183.233 284.567v.174-.173z" fill="url(#m)"/><path d="M228.045 210.555c4.828 4.378 13.189 12.374 21.453 22.241 16.113 19.24 24.631 36.826 24.631 50.857 0 25.533-20.665 46.306-46.067 46.306-25.377 0-46.023-20.772-46.023-46.306 0-14.564 8.513-32.311 24.618-51.324 8.23-9.715 16.558-17.504 21.388-21.774zm.061-8.802s-52.704 42.234-52.704 81.902c0 29.229 23.538 52.977 52.66 52.977 29.121 0 52.704-23.705 52.704-52.977 0-38.319-52.66-81.902-52.66-81.902z" fill="#fff"/><path d="M175.402 283.655c0-39.668 52.704-81.902 52.704-81.902s52.66 43.581 52.66 81.902c0 29.273-23.582 52.977-52.704 52.977-29.121-.001-52.66-23.749-52.66-52.977z" stroke="url(#n)" stroke-width="2" stroke-linecap="round"/></g><g transform="translate(208.994 279.291)" fill="#0080FF"><ellipse cx="19.089" cy="18.628" rx="6.178" ry="6.21"/><ellipse cx="31.328" cy="6.327" rx="6.178" ry="6.21"/><ellipse cx="6.852" cy="6.327" rx="6.178" ry="6.21"/></g><path stroke="url(#o)" stroke-width="2" stroke-linecap="round" stroke-dasharray="0,5" d="M143.952 125.182v54.705l-42.069 42.287"/><path stroke="url(#p)" stroke-width="2" stroke-linecap="round" d="M143.952 125.182v54.705l42.069 42.287"/><path d="M170.577 169.134a6.147 6.147 0 0 0-4.368-1.819c-3.413 0-6.178 2.781-6.178 6.211 0 1.715.692 3.268 1.809 4.391l24.531 24.659 8.737-8.782-24.531-24.66z" fill="url(#q)"/><path d="M186.37 202.575a6.206 6.206 0 0 1-1.809-4.391c0-3.43 2.766-6.21 6.178-6.21a6.14 6.14 0 0 1 4.368 1.819 6.206 6.206 0 0 1 1.809 4.391c0 3.43-2.766 6.21-6.178 6.21a6.134 6.134 0 0 1-4.368-1.819z" fill="#0080FF"/></g></svg>