<svg width="388" height="150" viewBox="0 0 388 150" xmlns="http://www.w3.org/2000/svg"><title>scalable-traffic-capacity</title><defs><linearGradient x1="-.948%" y1=".01%" x2="100.948%" y2=".01%" id="a"><stop stop-color="#0080FF" offset="15.11%"/><stop stop-color="#00D688" offset="100%"/></linearGradient><linearGradient x1="-2.12%" y1="-.01%" x2="102.12%" y2="-.01%" id="b"><stop stop-color="#0080FF" offset="15.11%"/><stop stop-color="#00D688" offset="100%"/></linearGradient><linearGradient x1="0%" y1="50.001%" x2="100.001%" y2="50.001%" id="c"><stop stop-color="#FFF" stop-opacity=".2" offset="0%"/><stop stop-color="#FFF" stop-opacity=".248" offset="5.97%"/><stop stop-color="#FFF" offset="100%"/></linearGradient><linearGradient x1="50.001%" y1="99.138%" x2="50.001%" y2="24.707%" id="d"><stop stop-color="#0069FF" stop-opacity=".5" offset="0%"/><stop stop-color="#0069FF" stop-opacity=".3" offset="21.53%"/><stop stop-color="#0069FF" stop-opacity=".05" offset="100%"/></linearGradient><linearGradient x1="-.05%" y1="9.48%" x2="-.05%" y2="9.48%" id="e"><stop stop-color="#0080FF" offset="15.11%"/><stop stop-color="#00D688" offset="100%"/></linearGradient><linearGradient x1="0%" y1="9.53%" x2="0%" y2="9.53%" id="f"><stop stop-color="#0080FF" offset="15.11%"/><stop stop-color="#00D688" offset="100%"/></linearGradient><linearGradient x1="-.864%" y1="49.903%" x2="100.865%" y2="49.903%" id="g"><stop stop-color="#0080FF" offset="15.11%"/><stop stop-color="#00D688" offset="100%"/></linearGradient><linearGradient x1="0%" y1="50.001%" x2="100.001%" y2="50.001%" id="h"><stop stop-color="#FFF" stop-opacity=".2" offset="0%"/><stop stop-color="#FFF" stop-opacity=".248" offset="5.97%"/><stop stop-color="#FFF" offset="100%"/></linearGradient><linearGradient x1="0%" y1="9.48%" x2="0%" y2="9.48%" id="i"><stop stop-color="#0080FF" offset="15.11%"/><stop stop-color="#00D688" offset="100%"/></linearGradient><linearGradient x1=".04%" y1="9.53%" x2=".04%" y2="9.53%" id="j"><stop stop-color="#0080FF" offset="15.11%"/><stop stop-color="#00D688" offset="100%"/></linearGradient><linearGradient x1="50%" y1="99.138%" x2="50%" y2="24.707%" id="k"><stop stop-color="#0069FF" stop-opacity=".5" offset="0%"/><stop stop-color="#0069FF" stop-opacity=".3" offset="21.53%"/><stop stop-color="#0069FF" stop-opacity=".05" offset="100%"/></linearGradient><linearGradient x1=".03%" y1="9.48%" x2=".03%" y2="9.48%" id="m"><stop stop-color="#0080FF" offset="15.11%"/><stop stop-color="#00D688" offset="100%"/></linearGradient><linearGradient x1="-49.97%" y1="9.48%" x2="50.03%" y2="9.48%" id="l"><stop stop-color="#0069FF" stop-opacity=".5" offset="0%"/><stop stop-color="#0069FF" stop-opacity=".3" offset="21.53%"/><stop stop-color="#0069FF" stop-opacity=".2" offset="100%"/></linearGradient><linearGradient x1="-.01%" y1="9.53%" x2="-.01%" y2="9.53%" id="o"><stop stop-color="#0080FF" offset="15.11%"/><stop stop-color="#00D688" offset="100%"/></linearGradient><linearGradient x1="-50.01%" y1="9.53%" x2="49.99%" y2="9.53%" id="n"><stop stop-color="#0069FF" stop-opacity=".5" offset="0%"/><stop stop-color="#0069FF" stop-opacity=".3" offset="21.53%"/><stop stop-color="#0069FF" stop-opacity=".2" offset="100%"/></linearGradient><linearGradient x1="50%" y1="-.873%" x2="50%" y2="100.679%" id="p"><stop stop-color="#0072FF" offset="0%"/><stop stop-color="#0072FF" stop-opacity=".2" offset="100%"/></linearGradient><linearGradient x1="-.864%" y1="49.903%" x2="100.865%" y2="49.903%" id="q"><stop stop-color="#0069FF" stop-opacity=".5" offset="0%"/><stop stop-color="#0069FF" stop-opacity=".3" offset="21.53%"/><stop stop-color="#0069FF" stop-opacity=".2" offset="100%"/></linearGradient><linearGradient x1="-.948%" y1=".01%" x2="100.949%" y2=".01%" id="r"><stop stop-color="#0080FF" offset="15.11%"/><stop stop-color="#00D688" offset="100%"/></linearGradient><linearGradient x1="-2.121%" y1="-.01%" x2="102.121%" y2="-.01%" id="s"><stop stop-color="#0080FF" offset="15.11%"/><stop stop-color="#00D688" offset="100%"/></linearGradient></defs><g fill="none" fill-rule="evenodd"><path d="M72.997.329h105.451" stroke="url(#a)" stroke-width="2" stroke-linecap="round" stroke-dasharray="0,5" transform="translate(1 1)"/><path d="M102.148 147.671h47.149" stroke="url(#b)" stroke-width="2" stroke-linecap="round" stroke-dasharray="0,5" transform="translate(1 1)"/><path d="M1.549 90.798c0-43.333 57.872-89.469 57.872-89.469s57.825 47.609 57.825 89.469c0 31.977-25.895 57.872-57.872 57.872S1.549 122.728 1.549 90.798z" fill="#FFF" fill-rule="nonzero"/><path d="M3.542 89.703c0-40.957 54.641-84.528 54.641-84.528s54.641 44.996 54.641 84.528c0 30.172-24.47 54.641-54.641 54.641S3.542 119.875 3.542 89.703z" fill="url(#c)" fill-rule="nonzero" transform="translate(1 1)"/><path d="M3.542 89.703c0-40.957 54.641-84.528 54.641-84.528s54.641 44.996 54.641 84.528c0 30.172-24.47 54.641-54.641 54.641S3.542 119.875 3.542 89.703z" fill="url(#d)" fill-rule="nonzero" opacity=".5" transform="translate(1 1)"/><path d="M107.219 90.749v.19-.19z" fill="url(#e)" fill-rule="nonzero" transform="translate(1 1)"/><path d="M9.149 90.796v.095-.19.095z" fill="url(#f)" fill-rule="nonzero" transform="translate(1 1)"/><path d="M59.376 7.898c11.802 10.463 52.87 49.293 52.87 82.9 0 29.154-23.718 52.872-52.872 52.872-29.128 0-52.825-23.718-52.825-52.872 0-34.743 40.988-72.671 52.827-82.9zm.045-6.569S1.549 47.465 1.549 90.798c0 31.93 25.848 57.872 57.825 57.872 31.977 0 57.872-25.895 57.872-57.872 0-41.86-57.825-89.469-57.825-89.469z" fill="#FFF" fill-rule="nonzero"/><path d="M.549 89.798C.549 46.465 58.421.329 58.421.329s57.825 47.609 57.825 89.469c0 31.977-25.895 57.872-57.872 57.872S.549 121.728.549 89.798z" stroke="url(#g)" stroke-width="2" stroke-linecap="round" transform="translate(1 1)"/><g transform="translate(39 72)" fill-rule="nonzero" fill="#0080FF"><circle cx="20.398" cy="34.382" r="6.784"/><circle cx="20.398" cy="7.507" r="6.784"/><circle cx="33.835" cy="20.945" r="6.784"/><circle cx="6.96" cy="20.945" r="6.784"/></g><path d="M136.151 90.798c0-43.333 57.872-89.469 57.872-89.469s57.825 47.609 57.825 89.469c0 31.977-25.895 57.872-57.872 57.872s-57.825-25.942-57.825-57.872z" fill="#FFF" fill-rule="nonzero"/><path d="M138.145 89.703c0-40.957 54.641-84.528 54.641-84.528s54.641 44.996 54.641 84.528c0 30.172-24.47 54.641-54.641 54.641-30.171.001-54.641-24.469-54.641-54.641z" fill="url(#h)" fill-rule="nonzero" transform="translate(1 1)"/><path d="M241.821 90.749v.19-.19z" fill="url(#i)" fill-rule="nonzero" transform="translate(1 1)"/><path d="M143.751 90.796v.095-.19.095z" fill="url(#j)" fill-rule="nonzero" transform="translate(1 1)"/><g transform="translate(139 5)" fill-rule="nonzero"><path d="M.359 84.943C.359 43.986 55 .415 55 .415s54.641 44.996 54.641 84.528c0 30.172-24.47 54.641-54.641 54.641S.359 115.115.359 84.943z" fill="url(#k)" opacity=".5"/><circle fill="#0080FF" cx="55" cy="101.382" r="6.784"/><circle fill="#0080FF" cx="55" cy="74.507" r="6.784"/><circle fill="#0080FF" cx="68.438" cy="87.945" r="6.784"/><circle fill="#0080FF" cx="41.562" cy="87.945" r="6.784"/></g><g><path d="M107.423 90.749v.19-.19z" stroke="url(#l)" fill="url(#m)" fill-rule="nonzero" transform="translate(270 1)"/><path d="M9.354 90.796v.095-.19.095z" stroke="url(#n)" fill="url(#o)" fill-rule="nonzero" transform="translate(270 1)"/><path d="M.754 89.798C.754 46.465 58.626.329 58.626.329s57.825 47.609 57.825 89.469c0 31.977-25.895 57.872-57.872 57.872S.754 121.728.754 89.798z" stroke="url(#p)" stroke-width="2" stroke-linecap="round" stroke-dasharray="0,5" transform="translate(270 1)"/></g><g><path d="M193.977 7.9c11.802 10.473 52.871 49.333 52.871 82.899 0 29.154-23.718 52.872-52.872 52.872-29.128 0-52.825-23.718-52.825-52.872 0-34.741 40.984-72.668 52.826-82.899zm.047-6.571s-57.872 46.136-57.872 89.469c0 31.93 25.848 57.872 57.825 57.872 31.977 0 57.872-25.895 57.872-57.872 0-41.86-57.825-89.469-57.825-89.469z" fill="#FFF" fill-rule="nonzero"/><path d="M.151 89.798C.151 46.465 58.023.329 58.023.329s57.825 47.609 57.825 89.469c0 31.977-25.895 57.872-57.872 57.872S.151 121.728.151 89.798z" stroke="url(#q)" stroke-width="2" stroke-linecap="round" transform="translate(136 1)"/></g><path d="M207.599.329H313.05" stroke="url(#r)" stroke-width="2" stroke-linecap="round" stroke-dasharray="0,5" transform="translate(1 1)"/><path d="M236.751 147.671h47.148" stroke="url(#s)" stroke-width="2" stroke-linecap="round" stroke-dasharray="0,5" transform="translate(1 1)"/></g></svg>