<svg width="266" height="192" viewBox="0 0 266 192" xmlns="http://www.w3.org/2000/svg"><title>simple-to-setup</title><defs><linearGradient x1="-100.02%" y1="-.03%" x2="5100.61%" y2="-.03%" id="a"><stop stop-color="#0080FF" offset="15.11%"/><stop stop-color="#00D688" offset="100%"/></linearGradient><linearGradient x1="-14.116%" y1="-.03%" x2="108.234%" y2="-.03%" id="b"><stop stop-color="#0080FF" offset="15.11%"/><stop stop-color="#00D688" offset="100%"/></linearGradient><linearGradient x1="-5100.62%" y1="-.03%" x2="100.01%" y2="-.03%" id="c"><stop stop-color="#0080FF" offset="15.11%"/><stop stop-color="#00D688" offset="100%"/></linearGradient><linearGradient x1="-100.04%" y1="-.05%" x2="3631.81%" y2="-.05%" id="d"><stop stop-color="#0080FF" offset="15.11%"/><stop stop-color="#00D688" offset="100%"/></linearGradient><linearGradient x1="-21.785%" y1="-.05%" x2="112.696%" y2="-.05%" id="e"><stop stop-color="#0080FF" offset="15.11%"/><stop stop-color="#00D688" offset="100%"/></linearGradient><linearGradient x1="-3631.84%" y1="-.05%" x2="100.01%" y2="-.05%" id="f"><stop stop-color="#0080FF" offset="15.11%"/><stop stop-color="#00D688" offset="100%"/></linearGradient><linearGradient x1="50%" y1="100.579%" x2="50%" y2="-.579%" id="g"><stop stop-color="#0069FF" stop-opacity=".5" offset="0%"/><stop stop-color="#0069FF" stop-opacity=".3" offset="21.53%"/><stop stop-color="#0069FF" stop-opacity=".2" offset="100%"/></linearGradient><linearGradient x1="0%" y1="50.001%" y2="50.001%" id="h"><stop stop-color="#FFF" stop-opacity=".2" offset="0%"/><stop stop-color="#FFF" stop-opacity=".248" offset="5.97%"/><stop stop-color="#FFF" offset="100%"/></linearGradient><linearGradient x1="50%" y1="99.138%" x2="50%" y2="24.707%" id="i"><stop stop-color="#0069FF" stop-opacity=".5" offset="0%"/><stop stop-color="#0069FF" stop-opacity=".3" offset="21.53%"/><stop stop-color="#0069FF" stop-opacity=".05" offset="100%"/></linearGradient><linearGradient x1=".02%" y1="6%" x2=".02%" y2="6%" id="j"><stop stop-color="#0080FF" offset="15.11%"/><stop stop-color="#00D688" offset="100%"/></linearGradient><linearGradient x1="-.03%" y1="5.93%" x2="-.03%" y2="5.93%" id="k"><stop stop-color="#0080FF" offset="15.11%"/><stop stop-color="#00D688" offset="100%"/></linearGradient><linearGradient x1="-1.379%" y1="49.844%" x2="101.379%" y2="49.844%" id="l"><stop stop-color="#0080FF" offset="15.11%"/><stop stop-color="#00D688" offset="100%"/></linearGradient><linearGradient x1="0%" y1="50%" x2="100.001%" y2="50%" id="m"><stop stop-color="#0069FF" stop-opacity=".5" offset="0%"/><stop stop-color="#0069FF" stop-opacity=".3" offset="21.53%"/><stop stop-color="#0069FF" stop-opacity=".05" offset="100%"/></linearGradient><linearGradient x1="-.899%" y1="50%" x2="100.9%" y2="50%" id="n"><stop stop-color="#0080FF" offset="0%"/><stop stop-color="#00D688" offset="100%"/></linearGradient><linearGradient x1=".001%" y1="50.005%" x2="100.001%" y2="50.005%" id="o"><stop stop-color="#0072FF" offset="0%"/><stop stop-color="#0072FF" stop-opacity=".2" offset="100%"/></linearGradient><linearGradient x1="-.001%" y1="49.998%" x2="99.999%" y2="49.998%" id="p"><stop stop-color="#0072FF" offset="0%"/><stop stop-color="#0072FF" stop-opacity=".2" offset="100%"/></linearGradient><linearGradient x1="-.001%" y1="49.993%" x2="99.999%" y2="49.993%" id="q"><stop stop-color="#0072FF" offset="0%"/><stop stop-color="#0072FF" stop-opacity=".2" offset="100%"/></linearGradient><linearGradient x1=".001%" y1="50.01%" x2="100.001%" y2="50.01%" id="r"><stop stop-color="#0072FF" offset="0%"/><stop stop-color="#0072FF" stop-opacity=".2" offset="100%"/></linearGradient><linearGradient x1=".001%" y1="49.99%" x2="100.001%" y2="49.99%" id="s"><stop stop-color="#0072FF" offset="0%"/><stop stop-color="#0072FF" stop-opacity=".2" offset="100%"/></linearGradient><linearGradient x1="-.001%" y1="50.01%" x2="99.999%" y2="50.01%" id="t"><stop stop-color="#0072FF" offset="0%"/><stop stop-color="#0072FF" stop-opacity=".2" offset="100%"/></linearGradient><linearGradient x1="-.001%" y1="50.002%" y2="50.002%" id="u"><stop stop-color="#0072FF" offset="0%"/><stop stop-color="#0072FF" stop-opacity=".2" offset="100%"/></linearGradient><linearGradient x1="0%" y1="50.002%" y2="50.002%" id="v"><stop stop-color="#0072FF" offset="0%"/><stop stop-color="#0072FF" stop-opacity=".2" offset="100%"/></linearGradient><linearGradient x1="0%" y1="49.998%" y2="49.998%" id="w"><stop stop-color="#0072FF" offset="0%"/><stop stop-color="#0072FF" stop-opacity=".2" offset="100%"/></linearGradient></defs><g transform="translate(1 1)" fill="none" fill-rule="evenodd"><path d="M5.562.854h42.506" stroke="url(#b)" stroke-dasharray="0,5.0006" transform="translate(69 56)" stroke-linecap="round" stroke-width="2"/><path d="M5.295.188h27.75" stroke="url(#e)" stroke-dasharray="0,5.0455" transform="translate(84 149)" stroke-linecap="round" stroke-width="2"/><path stroke="url(#g)" stroke-width="2" d="M.555 16.653h262.89v172.735H.555z"/><path d="M263.445 16.653H.555V4.24A3.628 3.628 0 0 1 4.183.612h255.634a3.628 3.628 0 0 1 3.628 3.628v12.413z" stroke="#0072FF" stroke-width="2"/><circle fill="#0072FF" fill-rule="nonzero" cx="10.035" cy="8.633" r="2.74"/><circle fill="#0072FF" fill-rule="nonzero" cx="19.169" cy="8.633" r="2.74"/><circle fill="#0072FF" fill-rule="nonzero" cx="28.303" cy="8.633" r="2.74"/><path d="M27.73 112.921c0-27.155 36.267-56.067 36.267-56.067s36.237 29.835 36.237 56.067c0 20.039-16.228 36.267-36.267 36.267S27.73 132.93 27.73 112.921z" fill="#FFF" fill-rule="nonzero"/><path d="M2.606 56.861c0-25.666 34.242-52.971 34.242-52.971S71.09 32.087 71.09 56.861c0 18.907-15.334 34.242-34.242 34.242-18.907 0-34.242-15.334-34.242-34.242z" fill="url(#h)" fill-rule="nonzero" transform="translate(27 56)"/><path d="M2.606 56.861c0-25.666 34.242-52.971 34.242-52.971S71.09 32.087 71.09 56.861c0 18.907-15.334 34.242-34.242 34.242-18.907 0-34.242-15.334-34.242-34.242z" fill="url(#i)" fill-rule="nonzero" opacity=".5" transform="translate(27 56)"/><path d="M67.576 57.516v.119-.119z" fill="url(#j)" fill-rule="nonzero" transform="translate(27 56)"/><path d="M6.12 57.546v.06-.119.059z" fill="url(#k)" fill-rule="nonzero" transform="translate(27 56)"/><path d="M63.951 63.46c3.351 3.039 8.929 8.383 14.443 14.935 11.016 13.088 16.839 25.027 16.839 34.526 0 17.24-14.026 31.267-31.267 31.267-17.224 0-31.237-14.026-31.237-31.267 0-9.863 5.819-21.911 16.828-34.843 5.49-6.449 11.044-11.655 14.394-14.618zm.046-6.606S27.73 85.766 27.73 112.921c0 20.009 16.198 36.267 36.237 36.267s36.267-16.228 36.267-36.267c0-26.232-36.237-56.067-36.237-56.067z" fill="#FFF" fill-rule="nonzero"/><path d="M.73 56.921C.73 29.766 36.997.854 36.997.854s36.237 29.835 36.237 56.067c0 20.039-16.228 36.267-36.267 36.267S.73 76.93.73 56.921z" stroke="url(#l)" stroke-width="2" stroke-linecap="round" transform="translate(27 56)"/><path fill="url(#m)" fill-rule="nonzero" opacity=".5" d="M125.138 56.854h111.131v92.334H125.138z"/><g><path d="M231.27 61.854v82.334H130.138V61.854H231.27zm5-5H125.138v92.334H236.27V56.854z" fill="#FFF" fill-rule="nonzero"/><path stroke="url(#n)" stroke-width="2" stroke-linecap="round" d="M.138.854h111.131v92.334H.138z" transform="translate(125 56)"/></g><g fill-rule="nonzero" opacity=".5"><path fill="url(#o)" d="M.559.742h42.128v4.13H.559z" transform="translate(137 67)"/><path fill="url(#p)" d="M10.195 9.002h55.099v4.13H10.195z" transform="translate(137 67)"/><path fill="url(#q)" d="M10.195 17.262h42.128v4.13H10.195z" transform="translate(137 67)"/><path fill="url(#r)" d="M.559 25.521h42.128v4.13H.559z" transform="translate(137 67)"/><path fill="url(#s)" d="M.559 50.301h42.128v4.13H.559z" transform="translate(137 67)"/><path fill="url(#t)" d="M10.195 58.56h42.128v4.13H10.195z" transform="translate(137 67)"/><path fill="url(#u)" d="M10.195 66.82h22.77v4.13h-22.77z" transform="translate(137 67)"/><path fill="url(#v)" d="M10.195 33.781h76.654v4.13H10.195z" transform="translate(137 67)"/><path fill="url(#w)" d="M10.195 42.041h76.654v4.13H10.195z" transform="translate(137 67)"/></g></g></svg>