<svg id="Layer_1" data-name="Layer 1" xmlns="http://www.w3.org/2000/svg" viewBox="0 0 48.54 39.13"><defs><style>.cls-1{fill:#4894ff;}.cls-1,.cls-2,.cls-5{fill-rule:evenodd;}.cls-2{fill:#8fbeff;}.cls-3,.cls-5{fill:#0069ff;}.cls-4{fill:#d7e9ff;}</style></defs><title>_community-icon</title><path class="cls-1" d="M23.97 0l-4.73 4.72v15.83h17.27l5.99 5.98v-5.98h6.04V0H23.97z"/><path class="cls-2" d="M0 12.6v20.54h6.04v5.99l5.99-5.99h12.54l4.73-4.72v-11.1l-4.73-4.72H0z"/><path class="cls-3" d="M24.85 4.69h17.4v1.5h-17.4zM24.85 8.92h4.78v1.5h-4.78zM31.15 8.92h11.1v1.5h-11.1zM31.76 13.15h10.49v1.5H31.76z"/><path class="cls-4" d="M4.95 17.29h11.12v1.5H4.95zM4.95 21.51h19.4v1.5H4.95zM4.95 25.75h6.31v1.5H4.95zM12.78 25.75h6.31v1.5h-6.31z"/><path class="cls-5" d="M29.3 17.32l3.22 3.23H29.3v-3.23z"/><path class="cls-1" d="M6.04 33.14h5.99l-5.99 5.99v-5.99z"/><path class="cls-5" d="M42.5 20.55h-5.99l5.99 5.98v-5.98z"/></svg>