<svg id="Layer_1" data-name="Layer 1" xmlns="http://www.w3.org/2000/svg" viewBox="0 0 45.68 37.5"><defs><style>.cls-1{fill:#8fbeff}.cls-2{fill:#4894ff}.cls-3{fill:#d7e9ff}.cls-4{fill:#0069ff}</style></defs><title>_infrastructure-credit-icon</title><path class="cls-1" d="M0 3.12h19.47v31.26H0z"/><path class="cls-2" d="M0 0h19.47v3.12H0zm0 34.38h19.47v3.12H0zM19.47 3.12h26.2v31.26h-26.2zM0 11.71h19.47v2.12H0zm0 7.96h19.47v2.12H0zm0 7.96h19.47v2.12H0z"/><path class="cls-3" d="M2.57 7.75h16.91v3.96H2.57zm0 15.92h16.91v3.96H2.57zm0-7.96h16.91v3.96H2.57z"/><path class="cls-4" d="M19.47 7.75h-3.34l3.34 3.96V7.75zm0 15.92h-3.34l3.34 3.96v-3.96zm0-7.96h-3.34l3.34 3.96v-3.96z"/><path class="cls-1" d="M5.77 8.98h7.47v1.5H5.77zm0 7.96h7.47v1.5H5.77zm0 7.96h7.47v1.5H5.77z"/><path class="cls-4" d="M19.47 34.38v3.12h23.09l3.12-3.12H19.47zm0-34.38v3.12h26.21L42.56 0H19.47z"/></svg>