<svg id="Layer_1" data-name="Layer 1" xmlns="http://www.w3.org/2000/svg" viewBox="0 0 42.37 35.53"><defs><style>.cls-1{fill:#4894ff}.cls-2{fill:#0069ff}.cls-3{fill:#1f8ced;stroke:#1f8ced;stroke-linecap:round;stroke-linejoin:round}.cls-3,.cls-4,.cls-5{fill-rule:evenodd}.cls-4{fill:#d7e9ff}.cls-5,.cls-6{fill:#8fbeff}</style></defs><title>_training-icon</title><path class="cls-1" d="M0 4.29h42.37v31.25H0z"/><path class="cls-2" d="M37.65 4.29H4.72V31h37.65V12.47l-4.72-8.18z"/><path class="cls-4" d="M17.65 0H4.72v24.61h12.93l3.54 3.53V3.54L17.65 0z"/><path class="cls-5" d="M24.72 24.61h12.93V0H24.72l-3.53 3.54v24.6l3.53-3.53z"/><path class="cls-6" d="M8.14 3.54h7.87v1.5H8.14zm0 3.81h7.87v1.5H8.14zm0 3.81h7.87v1.5H8.14zm0 3.81h7.87v1.5H8.14zm0 3.81h7.87v1.5H8.14z"/><path class="cls-1" d="M26.36 3.54h7.87v1.5h-7.87zm0 3.81h7.87v1.5h-7.87zm0 3.81h7.87v1.5h-7.87zm0 3.81h7.87v1.5h-7.87zm0 3.81h7.87v1.5h-7.87z"/></svg>