<?xml version="1.0" encoding="UTF-8" standalone="no"?>
<!-- Created with Inkscape (http://www.inkscape.org/) -->

<svg
   xmlns:dc="http://purl.org/dc/elements/1.1/"
   xmlns:cc="http://creativecommons.org/ns#"
   xmlns:rdf="http://www.w3.org/1999/02/22-rdf-syntax-ns#"
   xmlns:svg="http://www.w3.org/2000/svg"
   xmlns="http://www.w3.org/2000/svg"
   xmlns:sodipodi="http://sodipodi.sourceforge.net/DTD/sodipodi-0.dtd"
   xmlns:inkscape="http://www.inkscape.org/namespaces/inkscape"
   id="svg2"
   version="1.1"
   inkscape:version="0.48.4 r9939"
   width="321.53067"
   height="76.361908"
   xml:space="preserve"
   sodipodi:docname="ARIN logo.svg"><metadata
     id="metadata8"><rdf:RDF><cc:Work
         rdf:about=""><dc:format>image/svg+xml</dc:format><dc:type
           rdf:resource="http://purl.org/dc/dcmitype/StillImage" /><dc:title></dc:title></cc:Work></rdf:RDF></metadata><defs
     id="defs6" /><sodipodi:namedview
     pagecolor="#ffffff"
     bordercolor="#666666"
     borderopacity="1"
     objecttolerance="10"
     gridtolerance="10"
     guidetolerance="10"
     inkscape:pageopacity="0"
     inkscape:pageshadow="2"
     inkscape:window-width="1918"
     inkscape:window-height="1056"
     id="namedview4"
     showgrid="false"
     fit-margin-top="0"
     fit-margin-left="0"
     fit-margin-right="0"
     fit-margin-bottom="0"
     inkscape:zoom="1"
     inkscape:cx="384.7179"
     inkscape:cy="32.858449"
     inkscape:window-x="0"
     inkscape:window-y="22"
     inkscape:window-maximized="0"
     inkscape:current-layer="g10" /><g
     id="g10"
     inkscape:groupmode="layer"
     inkscape:label="logo"
     transform="matrix(1.25,0,0,-1.25,-734.60494,868.87439)"><path
       inkscape:connector-curvature="0"
       id="path2666"
       style="fill:#009ac7;fill-opacity:1;fill-rule:nonzero;stroke:none"
       d="m 796.41428,671.3331 c 1.44946,-1.5671 2.94743,-3.18254 4.51247,-4.83606 1.96944,0.0408 3.88656,0.0842 5.74764,0.12808 0.0494,1.43763 0.0993,2.95315 0.14112,4.48352 -3.29317,0.0788 -6.76848,0.15389 -10.40123,0.22446" /><path
       inkscape:connector-curvature="0"
       id="path2670"
       style="fill:#009ac7;fill-opacity:1;fill-rule:nonzero;stroke:none"
       d="m 808.58933,671.06221 c -0.0408,-1.46197 -0.0774,-2.93136 -0.11657,-4.38757 22.60295,0.56479 36.43358,1.34004 36.43573,2.19181 10e-5,0.85549 -13.7846,1.62502 -36.31916,2.19576" /><path
       inkscape:connector-curvature="0"
       id="path2674"
       style="fill:#009ac7;fill-opacity:1;fill-rule:nonzero;stroke:none"
       d="m 631.50109,666.36883 c -29.80409,0.57879 -43.81347,1.47869 -43.81714,2.47265 0.002,1.01413 15.15562,1.96983 45.84078,2.5513 l -2.02364,-5.02395 z" /><path
       inkscape:connector-curvature="0"
       id="path2678"
       style="fill:#009ac7;fill-opacity:1;fill-rule:nonzero;stroke:none"
       d="m 683.03209,668.95518 -0.0204,3.00331 c -16.49716,-0.0935 -34.35439,-0.26933 -47.72878,-0.52362 l -1.69421,-5.11586 c 13.73653,-0.26543 39.02899,-0.2485 49.44663,-0.34031 l -0.003,2.97648 z" /><path
       inkscape:connector-curvature="0"
       id="path2682"
       style="fill:#009ac7;fill-opacity:1;fill-rule:nonzero;stroke:none"
       d="m 700.02371,671.5997 c -9.9e-4,-0.23076 1.19898,-2.52209 3.49198,-5.88429 3.72315,-0.006 7.47846,-0.009 11.31331,-0.007 27.62892,-0.001 56.71804,0.39421 77.67581,0.74351 l -4.29606,4.86106 c -19.99227,0.30266 -47.83816,0.71002 -73.37535,0.7106 -4.87288,0.004 -9.63904,-0.002 -14.32322,-0.0149 -0.25532,-0.095 -0.48597,-0.21265 -0.48647,-0.40921" /><path
       inkscape:connector-curvature="0"
       id="path2686"
       style="fill:#000000;fill-opacity:1;fill-rule:nonzero;stroke:none"
       d="m 626.6652,639.29201 -0.95092,2.84083 -0.93106,-2.83814 1.88198,-0.003 z m 2.54975,-3.02412 -1.50326,0.006 -0.5911,1.72853 -2.7593,0.003 -0.56893,-1.73426 -1.47732,-0.002 2.67643,7.65511 1.47361,-4.2e-4 2.74987,-7.65603 z" /><path
       inkscape:connector-curvature="0"
       id="path2690"
       style="fill:#000000;fill-opacity:1;fill-rule:nonzero;stroke:none"
       d="m 629.95705,641.812 1.21441,-5.9e-4 5.6e-4,-0.75576 c 0.43708,0.59518 0.95375,0.89263 1.55747,0.89647 0.31812,-0.001 0.59938,-0.0761 0.83226,-0.22133 0.23575,-0.14606 0.4301,-0.37073 0.58182,-0.6674 0.21751,0.29945 0.45626,0.52096 0.7113,0.66908 0.25133,0.14607 0.52555,0.21996 0.80864,0.21636 0.36923,0.003 0.67849,-0.0833 0.93481,-0.24466 0.25466,-0.16713 0.44402,-0.40908 0.57135,-0.73619 0.0921,-0.23265 0.1402,-0.61806 0.13433,-1.14716 l 0.004,-3.54805 -1.32156,-0.003 -0.002,3.17592 c 0.002,0.54889 -0.0447,0.90588 -0.13866,1.06724 -0.1235,0.21047 -0.30909,0.31396 -0.56169,0.31501 -0.18337,0.003 -0.35909,-0.065 -0.52012,-0.19031 -0.16968,-0.12278 -0.28553,-0.30793 -0.35537,-0.55005 -0.0764,-0.24335 -0.1083,-0.62445 -0.10674,-1.14945 l -9.6e-4,-2.66617 -1.32156,-0.003 -0.001,3.04777 c -2.9e-4,0.54024 -0.0221,0.88686 -0.0674,1.04357 -0.0482,0.15753 -0.12705,0.27394 -0.22328,0.35166 -0.1,0.0757 -0.23459,0.11762 -0.40521,0.11063 -0.2015,0.005 -0.38586,-0.0604 -0.55099,-0.17828 -0.16308,-0.12156 -0.28015,-0.30011 -0.34955,-0.52988 -0.0686,-0.22688 -0.10498,-0.61291 -0.1022,-1.1445 l -0.002,-2.70326 -1.31907,0.006 -8.5e-4,5.53922 z" /><path
       inkscape:connector-curvature="0"
       id="path2694"
       style="fill:#000000;fill-opacity:1;fill-rule:nonzero;stroke:none"
       d="m 641.67516,639.50447 c -0.008,0.43642 -0.11099,0.76263 -0.29669,0.9848 -0.19063,0.22672 -0.42029,0.3398 -0.68692,0.33552 -0.28968,0.002 -0.53065,-0.11857 -0.71462,-0.35588 -0.19179,-0.23193 -0.28286,-0.55848 -0.28059,-0.96192 l 1.97882,-0.003 z m -0.0928,-1.49068 1.323,-0.24111 c -0.16701,-0.5357 -0.43053,-0.94053 -0.79965,-1.22434 -0.36291,-0.27312 -0.82521,-0.41454 -1.37493,-0.41521 -0.86496,-2.9e-4 -1.50371,0.31821 -1.92162,0.9477 -0.32551,0.50603 -0.48832,1.14311 -0.48966,1.91783 0.001,0.92389 0.21555,1.64573 0.6442,2.1684 0.43236,0.52473 0.98108,0.78172 1.64,0.78212 0.74423,0.004 1.33282,-0.27204 1.76165,-0.82037 0.42595,-0.5475 0.63521,-1.39156 0.61672,-2.5165 l -3.30986,-7.1e-4 c 0.008,-0.4393 0.11631,-0.77666 0.31803,-1.01906 0.20255,-0.23952 0.45444,-0.36214 0.75566,-0.36784 0.20687,0.003 0.38381,0.0641 0.52217,0.18659 0.14207,0.1245 0.24478,0.32905 0.31429,0.6025" /><path
       inkscape:connector-curvature="0"
       id="path2698"
       style="fill:#000000;fill-opacity:1;fill-rule:nonzero;stroke:none"
       d="m 645.42177,636.27063 -1.31784,-7.9e-4 -0.003,5.54293 1.23048,0.001 -0.002,-0.78625 c 0.20698,0.37117 0.39428,0.62001 0.56312,0.73991 0.16308,0.12157 0.35238,0.18249 0.56502,0.1836 0.29917,-0.002 0.58204,-0.0929 0.8622,-0.27992 l -0.40131,-1.28304 c -0.22296,0.15798 -0.42961,0.24257 -0.61957,0.24429 -0.18504,-0.003 -0.33559,-0.0593 -0.46774,-0.17108 -0.13009,-0.11546 -0.22993,-0.32084 -0.30237,-0.6153 -0.0712,-0.30105 -0.10492,-0.91579 -0.10607,-1.86152 l -0.001,-1.71385 z" /><path
       inkscape:connector-curvature="0"
       id="path2702"
       style="fill:#000000;fill-opacity:1;fill-rule:nonzero;stroke:none"
       d="m 647.98512,641.81583 1.31784,7.9e-4 0.004,-5.54953 -1.3199,0.003 -0.002,5.54582 z m -8.6e-4,2.10781 1.32444,0.002 2.9e-4,-1.35204 -1.3236,8.6e-4 -0.001,1.34917 z" /><path
       inkscape:connector-curvature="0"
       id="path2706"
       style="fill:#000000;fill-opacity:1;fill-rule:nonzero;stroke:none"
       d="m 655.11289,640.18948 -1.30531,-0.26044 c -0.045,0.28775 -0.14502,0.50393 -0.29835,0.65432 -0.15953,0.13968 -0.36003,0.21313 -0.60892,0.21623 -0.32639,-0.006 -0.59002,-0.12955 -0.78475,-0.38249 -0.19844,-0.25499 -0.29594,-0.67961 -0.29826,-1.27217 0.002,-0.66264 0.10018,-1.12483 0.3014,-1.40144 0.19546,-0.27494 0.46215,-0.41118 0.79718,-0.40791 0.2526,-0.001 0.45432,0.0813 0.61418,0.23499 0.16153,0.15948 0.27184,0.43365 0.33835,0.82661 l 1.30321,-0.24477 c -0.13025,-0.66807 -0.38989,-1.16769 -0.77564,-1.50916 -0.38203,-0.33941 -0.89345,-0.51037 -1.53053,-0.51082 -0.73226,0.005 -1.31596,0.25469 -1.74734,0.77253 -0.43016,0.51124 -0.65295,1.22182 -0.6523,2.13335 -5.7e-4,0.91812 0.21799,1.63253 0.65651,2.14612 0.4348,0.51153 1.02348,0.76636 1.76688,0.76737 0.60494,-0.003 1.09413,-0.14699 1.45355,-0.438 0.3545,-0.28647 0.6167,-0.73053 0.77014,-1.32432" /><path
       inkscape:connector-curvature="0"
       id="path2710"
       style="fill:#000000;fill-opacity:1;fill-rule:nonzero;stroke:none"
       d="m 658.93578,638.92817 c -0.16541,-0.0647 -0.4281,-0.14191 -0.79301,-0.22712 -0.36286,-0.0889 -0.60083,-0.16702 -0.71025,-0.25411 -0.17383,-0.13719 -0.25792,-0.30965 -0.25969,-0.52145 0.006,-0.20482 0.067,-0.38464 0.20428,-0.53664 0.13891,-0.14623 0.30809,-0.22 0.5199,-0.22177 0.23736,2.2e-4 0.46463,0.0845 0.67771,0.26037 0.15775,0.13559 0.26119,0.29934 0.3103,0.49124 0.032,0.1219 0.0516,0.36292 0.0484,0.71979 l 0.002,0.28969 z m -1.76193,1.19825 -1.18536,0.242 c 0.1394,0.53742 0.36994,0.93614 0.70026,1.19369 0.32083,0.25715 0.81196,0.39025 1.45769,0.38821 0.58597,-0.004 1.02012,-0.0788 1.31025,-0.23119 0.2893,-0.15526 0.4903,-0.35687 0.60716,-0.5904 0.12095,-0.24096 0.17961,-0.67627 0.17635,-1.3154 l -0.0113,-1.71712 c -0.003,-0.48625 0.0242,-0.84689 0.0632,-1.07982 0.0456,-0.23171 0.12035,-0.4812 0.23753,-0.74606 l -1.30177,8.2e-4 c -0.0381,0.0953 -0.0752,0.23713 -0.12955,0.42765 -0.0167,0.0829 -0.0334,0.1439 -0.0441,0.17195 -0.23015,-0.24584 -0.46756,-0.43027 -0.7246,-0.55283 -0.25332,-0.12052 -0.5271,-0.18205 -0.81557,-0.18627 -0.52333,0.004 -0.91979,0.15603 -1.21735,0.46667 -0.29673,0.31352 -0.44286,0.70537 -0.44331,1.18009 -0.001,0.30948 0.065,0.59323 0.20404,0.83725 0.13702,0.24773 0.32127,0.43187 0.5598,0.56602 0.23974,0.12756 0.58619,0.24619 1.04178,0.3427 0.61474,0.12867 1.03991,0.24957 1.27549,0.36271 l 0.004,0.14545 c -0.002,0.28476 -0.0676,0.49097 -0.18842,0.61325 -0.12744,0.12106 -0.36054,0.17893 -0.70998,0.17981 -0.23653,0.003 -0.41962,-0.0476 -0.54806,-0.15727 -0.13458,-0.0986 -0.23724,-0.28127 -0.31867,-0.54191" /><path
       inkscape:connector-curvature="0"
       id="path2714"
       style="fill:#000000;fill-opacity:1;fill-rule:nonzero;stroke:none"
       d="m 666.1908,636.26972 -1.31784,-7.9e-4 -0.003,2.83596 c -0.004,0.60371 -0.0309,0.98619 -0.0836,1.16064 -0.0585,0.1761 -0.14302,0.31601 -0.27256,0.41895 -0.12545,0.0955 -0.28027,0.14329 -0.45665,0.13796 -0.23077,10e-4 -0.43409,-0.0652 -0.61452,-0.20366 -0.17755,-0.13925 -0.30288,-0.32479 -0.37516,-0.55372 -0.0645,-0.23431 -0.0964,-0.65909 -0.0968,-1.27721 l -0.001,-2.51618 -1.31989,0.003 -8.6e-4,5.53922 1.23048,0.001 -0.002,-0.81757 c 0.4343,0.63969 0.98274,0.94984 1.64333,0.956 0.2868,-0.002 0.5541,-0.0599 0.79445,-0.1792 0.24036,-0.11928 0.41802,-0.26108 0.54325,-0.44395 0.12439,-0.18575 0.20876,-0.39118 0.25804,-0.62083 0.0464,-0.22882 0.0703,-0.55732 0.0746,-0.9863 l -6e-5,-3.45326 z" /><path
       inkscape:connector-curvature="0"
       id="path2718"
       style="fill:#000000;fill-opacity:1;fill-rule:nonzero;stroke:none"
       d="m 671.82136,640.67354 1.02156,0.002 c 0.6618,-4.3e-4 1.07932,0.029 1.24473,0.0937 0.16169,0.0626 0.29096,0.17523 0.38242,0.32994 0.0972,0.15305 0.14262,0.34291 0.14239,0.58027 0.002,0.25548 -0.0561,0.46579 -0.18426,0.62765 -0.11951,0.15937 -0.29069,0.2587 -0.52012,0.29678 -0.11287,0.0201 -0.44662,0.032 -1.00954,0.0289 l -1.07965,0.002 0.002,-1.96152 z m -1.39777,-4.40205 -0.003,7.65362 2.92167,-0.003 c 0.73475,0.004 1.26657,-0.0687 1.60165,-0.20596 0.32933,-0.13558 0.59574,-0.38103 0.79513,-0.72892 0.20062,-0.35449 0.30262,-0.75859 0.30024,-1.21064 0.002,-0.57815 -0.14688,-1.05044 -0.44948,-1.42838 -0.30176,-0.37505 -0.75359,-0.61004 -1.3497,-0.70661 0.30238,-0.1965 0.54745,-0.40769 0.7393,-0.64101 0.19186,-0.23331 0.45456,-0.64317 0.78766,-1.24194 l 0.83566,-1.48685 -1.64833,8.7e-4 -1.00457,1.66982 c -0.35455,0.58935 -0.60045,0.96002 -0.73028,1.11612 -0.12982,0.15609 -0.27173,0.25947 -0.42034,0.31795 -0.14368,0.0539 -0.3785,0.0842 -0.69745,0.0825 l -0.28476,-0.002 0.001,-3.18829 -1.39489,0.003 z" /><path
       inkscape:connector-curvature="0"
       id="path2722"
       style="fill:#000000;fill-opacity:1;fill-rule:nonzero;stroke:none"
       d="m 680.41159,639.50709 c -0.007,0.42982 -0.10605,0.75809 -0.29669,0.9848 -0.18858,0.223 -0.42029,0.3398 -0.68775,0.33264 -0.2868,0.002 -0.52777,-0.11941 -0.71462,-0.35588 -0.19096,-0.22905 -0.28203,-0.5556 -0.27771,-0.96275 l 1.97677,0.001 z m -0.087,-1.49235 1.31929,-0.24316 c -0.16535,-0.52993 -0.43341,-0.93969 -0.79593,-1.22229 -0.36663,-0.27517 -0.82521,-0.41453 -1.37493,-0.4152 -0.8658,-0.003 -1.50948,0.31987 -1.92534,0.94564 -0.32384,0.5118 -0.48666,1.14888 -0.49171,1.92155 0.004,0.92306 0.21555,1.64573 0.64625,2.16469 0.43525,0.52389 0.98108,0.78172 1.64,0.78211 0.74712,0.003 1.3357,-0.27287 1.7596,-0.81665 0.428,-0.55121 0.63521,-1.39156 0.61877,-2.52022 l -3.30986,-7.1e-4 c 0.0104,-0.44013 0.11548,-0.77954 0.31598,-1.01534 0.20377,-0.24612 0.45566,-0.36873 0.75937,-0.36579 0.20809,-0.004 0.38215,0.0584 0.52134,0.18371 0.13919,0.12533 0.2485,0.3311 0.31717,0.60166" /><path
       inkscape:connector-curvature="0"
       id="path2726"
       style="fill:#000000;fill-opacity:1;fill-rule:nonzero;stroke:none"
       d="m 683.9463,639.16162 c 0.004,-0.59135 0.10539,-1.02017 0.30456,-1.29306 0.20123,-0.2766 0.45926,-0.41036 0.75555,-0.41152 0.32101,-0.002 0.58386,0.1407 0.81163,0.42157 0.21746,0.27761 0.33225,0.69723 0.32869,1.24779 0.004,0.57649 -0.1009,1.00326 -0.31365,1.28319 -0.20987,0.2791 -0.47861,0.41906 -0.80044,0.41822 -0.31608,-0.002 -0.57727,-0.13947 -0.78071,-0.41176 -0.2026,-0.2694 -0.30586,-0.69235 -0.30563,-1.25443 m -1.18182,-3.25289 1.49911,-0.18262 c 0.0238,-0.20981 0.0865,-0.34967 0.17694,-0.42572 0.12622,-0.11446 0.32306,-0.16812 0.59091,-0.17044 0.34739,0.003 0.60138,0.0607 0.77433,0.17318 0.11641,0.0788 0.20903,0.2051 0.2659,0.36979 0.0403,0.12888 0.0615,0.35382 0.0643,0.67771 l 0.004,0.81386 c -0.39422,-0.59818 -0.89399,-0.89114 -1.49687,-0.89209 -0.66757,0.002 -1.1959,0.31373 -1.58826,0.9452 -0.30616,0.49734 -0.45994,1.12244 -0.46094,1.86584 -1.3e-4,0.93049 0.20441,1.63958 0.60495,2.12977 0.40138,0.49307 0.90226,0.73576 1.49566,0.73632 0.62101,-0.001 1.13082,-0.3012 1.53149,-0.90385 l 7.1e-4,0.77101 1.23254,-0.003 -0.006,-4.97836 c 0.003,-0.65976 -0.047,-1.14795 -0.14383,-1.47284 -0.094,-0.32572 -0.23181,-0.57633 -0.40658,-0.76009 -0.17356,-0.19035 -0.41253,-0.33687 -0.70083,-0.43792 -0.29284,-0.10599 -0.66385,-0.15821 -1.1093,-0.15462 -0.84972,-0.002 -1.44601,0.16107 -1.80577,0.4834 -0.35233,0.32643 -0.5285,0.73319 -0.52806,1.23264 -0.001,0.0503 0.004,0.11125 0.006,0.18253" /><path
       inkscape:connector-curvature="0"
       id="path2730"
       style="fill:#000000;fill-opacity:1;fill-rule:nonzero;stroke:none"
       d="m 688.85563,641.81298 1.32444,0.002 -8.1e-4,-5.54498 -1.32278,0.004 -8.5e-4,5.53922 z m 8e-4,2.11357 1.32073,-3e-5 0.006,-1.35371 -1.32732,-0.001 5.3e-4,1.35493 z" /><path
       inkscape:connector-curvature="0"
       id="path2734"
       style="fill:#000000;fill-opacity:1;fill-rule:nonzero;stroke:none"
       d="m 691.1713,637.83445 1.32089,0.22784 c 0.0562,-0.28159 0.17223,-0.49617 0.34823,-0.64372 0.16941,-0.14878 0.4107,-0.2215 0.7173,-0.21939 0.3342,3.9e-4 0.59151,0.0698 0.76535,0.20699 0.11358,0.1015 0.16912,0.2291 0.17283,0.39352 0.002,0.11496 -0.0304,0.20859 -0.0941,0.28004 -0.0637,0.0714 -0.21436,0.13364 -0.44291,0.19644 -1.06746,0.26107 -1.74473,0.50014 -2.03182,0.71721 -0.39113,0.30016 -0.58953,0.71645 -0.5886,1.2501 -8.3e-4,0.4842 0.17161,0.88719 0.51323,1.21641 0.33791,0.32716 0.87239,0.49147 1.59023,0.49048 0.67788,0.001 1.18525,-0.12332 1.5209,-0.36688 0.32905,-0.24478 0.56342,-0.61213 0.6846,-1.09045 l -1.23896,-0.25772 c -0.06,0.21402 -0.16181,0.38076 -0.30616,0.49733 -0.15177,0.11247 -0.36219,0.17316 -0.6383,0.1685 -0.34861,0.004 -0.59806,-0.0492 -0.74628,-0.16253 -0.10238,-0.0735 -0.14756,-0.176 -0.15116,-0.29673 5.6e-4,-0.10632 0.044,-0.19379 0.12994,-0.27478 0.12051,-0.091 0.52977,-0.23087 1.23686,-0.40985 0.7005,-0.1802 1.19651,-0.3982 1.46907,-0.6548 0.2775,-0.26113 0.41875,-0.62659 0.41343,-1.09965 7.8e-4,-0.50604 -0.19195,-0.9469 -0.57077,-1.31846 -0.37798,-0.36869 -0.94217,-0.5494 -1.69133,-0.54875 -0.68076,-3.4e-4 -1.21486,0.15059 -1.60804,0.45447 -0.39524,0.30758 -0.65051,0.72155 -0.77446,1.24438" /><path
       inkscape:connector-curvature="0"
       id="path2738"
       style="fill:#000000;fill-opacity:1;fill-rule:nonzero;stroke:none"
       d="m 699.36449,641.81443 -0.003,-1.16701 -0.88969,5.9e-4 -0.006,-2.24954 c 0.002,-0.44712 0.013,-0.71253 0.0306,-0.79252 0.0155,-0.0763 0.052,-0.13364 0.11203,-0.1853 0.058,-0.048 0.13004,-0.0687 0.21369,-0.071 0.12528,0.001 0.29806,0.0483 0.52206,0.14291 l 0.11415,-1.14134 c -0.30366,-0.14347 -0.64916,-0.21553 -1.03364,-0.21703 -0.23365,0.002 -0.44246,0.0464 -0.62932,0.13469 -0.19058,0.0862 -0.33288,0.19905 -0.41658,0.34184 -0.094,0.13952 -0.15411,0.3317 -0.18399,0.5745 -0.0288,0.17067 -0.0469,0.51934 -0.0472,1.03774 l 0.002,2.42222 -0.60576,-1.2e-4 -0.002,1.17156 0.60781,-0.004 -0.002,1.10892 1.31922,0.87153 3.6e-4,-1.97965 0.89628,6.2e-4 z" /><path
       inkscape:connector-curvature="0"
       id="path2742"
       style="fill:#000000;fill-opacity:1;fill-rule:nonzero;stroke:none"
       d="m 701.6498,636.2704 -1.31784,-7.9e-4 -0.003,5.54293 1.23048,0.001 -0.002,-0.78625 c 0.20698,0.37117 0.39428,0.62001 0.56312,0.73991 0.16308,0.12157 0.35238,0.18249 0.56502,0.1836 0.30288,6e-5 0.58575,-0.0909 0.8622,-0.27992 l -0.40131,-1.28304 c -0.22296,0.15798 -0.42961,0.24257 -0.61957,0.24429 -0.18504,-0.003 -0.3393,-0.0614 -0.46774,-0.17108 -0.13009,-0.11546 -0.23198,-0.31713 -0.30237,-0.6153 -0.0725,-0.29445 -0.10492,-0.91579 -0.10607,-1.86152 l -0.001,-1.71385 z" /><path
       inkscape:connector-curvature="0"
       id="path2746"
       style="fill:#000000;fill-opacity:1;fill-rule:nonzero;stroke:none"
       d="m 703.58991,641.81552 1.41468,9.6e-4 1.1913,-3.93428 1.15675,3.93454 1.37306,-0.003 -1.7574,-5.33493 -0.32183,-0.975 c -0.11003,-0.32733 -0.22355,-0.56934 -0.32948,-0.74174 -0.10676,-0.17528 -0.22577,-0.30643 -0.36285,-0.41364 -0.13708,-0.10721 -0.30254,-0.19374 -0.50049,-0.25217 -0.19795,-0.0584 -0.42178,-0.0875 -0.67439,-0.0865 -0.25632,-10e-4 -0.5072,0.0276 -0.74523,0.0901 l -0.12568,1.14467 c 0.2117,-0.0454 0.39584,-0.0673 0.56192,-0.0653 0.30864,-0.002 0.5409,0.1 0.68646,0.30156 0.14557,0.20155 0.25914,0.46541 0.33946,0.77633 l -1.90628,5.55804 z" /><path
       inkscape:connector-curvature="0"
       id="path2750"
       style="fill:#000000;fill-opacity:1;fill-rule:nonzero;stroke:none"
       d="m 711.85184,641.8144 0.73021,-0.001 -1.7e-4,0.42156 c 0.002,0.47101 0.0462,0.82034 0.13657,1.04717 0.0904,0.22683 0.25531,0.41968 0.50004,0.56453 0.23608,0.14734 0.54284,0.21497 0.91208,0.21775 0.38281,-0.004 0.74611,-0.0653 1.10925,-0.19195 l -0.17482,-1.0174 c -0.2092,0.0541 -0.4164,0.0826 -0.61585,0.084 -0.19163,-0.004 -0.33309,-0.0507 -0.42195,-0.15305 -0.0843,-0.0974 -0.12477,-0.29186 -0.11889,-0.57456 l -0.006,-0.39806 0.99107,0.005 -3e-5,-1.15837 -0.98653,4.3e-4 -0.004,-4.38867 -1.3199,0.003 -6e-5,4.38374 -0.73021,0.001 -7.9e-4,1.15548 z" /><path
       inkscape:connector-curvature="0"
       id="path2754"
       style="fill:#000000;fill-opacity:1;fill-rule:nonzero;stroke:none"
       d="m 716.76368,639.04377 c -9.9e-4,-0.55549 0.11869,-0.97405 0.35489,-1.27011 0.23787,-0.2903 0.52595,-0.43896 0.8754,-0.43984 0.34367,7.8e-4 0.6358,0.14757 0.87637,0.44036 0.23398,0.29158 0.3521,0.72273 0.35392,1.2811 -0.002,0.54395 -0.11914,0.96169 -0.35906,1.2557 -0.23703,0.29318 -0.52594,0.43896 -0.87539,0.43984 -0.34367,-7.8e-4 -0.63497,-0.14469 -0.87266,-0.43831 -0.23685,-0.29075 -0.35703,-0.71819 -0.35347,-1.26874 m -1.35144,0.0776 c -0.003,0.48791 0.1067,0.96524 0.32543,1.42045 0.21584,0.45604 0.52332,0.8076 0.92281,1.04518 0.39374,0.23926 0.83869,0.36382 1.32948,0.36588 0.75205,-0.001 1.37195,-0.27709 1.85766,-0.82309 0.48365,-0.54229 0.72667,-1.23685 0.72663,-2.07049 0.002,-0.84684 -0.24454,-1.54057 -0.73467,-2.09235 -0.48807,-0.55549 -1.10236,-0.83416 -1.84493,-0.83229 -0.45865,0.001 -0.8923,0.11063 -1.30832,0.34616 -0.41685,0.23264 -0.7362,0.56517 -0.95017,1.01406 -0.21769,0.44684 -0.32923,0.99107 -0.32392,1.62649" /><path
       inkscape:connector-curvature="0"
       id="path2758"
       style="fill:#000000;fill-opacity:1;fill-rule:nonzero;stroke:none"
       d="m 722.97642,636.27257 -1.31784,-7.9e-4 -0.003,5.54293 1.23048,0.001 0.003,-0.7908 c 0.20205,0.37572 0.39511,0.6229 0.55736,0.74158 0.16763,0.1265 0.35321,0.18537 0.57162,0.18482 0.29916,-0.002 0.58203,-0.0929 0.85931,-0.27909 l -0.40419,-1.28221 c -0.21924,0.16003 -0.42467,0.23802 -0.61464,0.23974 -0.18337,0.003 -0.34052,-0.0548 -0.46895,-0.16447 -0.12888,-0.12207 -0.23076,-0.32373 -0.30033,-0.61902 -0.0733,-0.29734 -0.11068,-0.91413 -0.10895,-1.86069 l -0.004,-1.71302 z" /><path
       inkscape:connector-curvature="0"
       id="path2762"
       style="fill:#000000;fill-opacity:1;fill-rule:nonzero;stroke:none"
       d="m 728.28239,643.92636 1.39861,-6.5e-4 -7.8e-4,-7.65567 -1.39778,0.004 -5e-5,7.65279 z" /><path
       inkscape:connector-curvature="0"
       id="path2766"
       style="fill:#000000;fill-opacity:1;fill-rule:nonzero;stroke:none"
       d="m 735.62325,636.27337 -1.31784,-7.9e-4 -0.007,2.83391 c -0.002,0.59999 -0.0235,0.99029 -0.0799,1.16269 -0.0556,0.17527 -0.14302,0.31601 -0.27422,0.41318 -0.12545,0.0955 -0.27861,0.14906 -0.45499,0.14373 -0.23077,10e-4 -0.43287,-0.0718 -0.6133,-0.21026 -0.17672,-0.13637 -0.30205,-0.3219 -0.37144,-0.55167 -0.0694,-0.22976 -0.0985,-0.65537 -0.0996,-1.27638 l -0.002,-2.51906 -1.31906,0.006 -8.6e-4,5.53923 1.22965,-0.002 -0.003,-0.81097 c 0.43924,0.63515 0.98274,0.94984 1.64538,0.95229 0.28969,-0.002 0.5541,-0.0599 0.7924,-0.17549 0.24036,-0.11928 0.42296,-0.26562 0.54818,-0.44849 0.11946,-0.18121 0.20383,-0.38664 0.25311,-0.61629 0.0485,-0.23254 0.0695,-0.5602 0.0729,-0.99207 l 0.002,-3.44749 z" /><path
       inkscape:connector-curvature="0"
       id="path2770"
       style="fill:#000000;fill-opacity:1;fill-rule:nonzero;stroke:none"
       d="m 739.34858,641.81374 -0.003,-1.16701 -0.89174,0.004 -0.002,-2.2475 c 5e-4,-0.45288 0.006,-0.71662 0.0268,-0.79456 0.0155,-0.0763 0.0549,-0.13448 0.11408,-0.18902 0.0568,-0.0413 0.13004,-0.0687 0.21452,-0.0681 0.12156,-7.2e-4 0.29723,0.0454 0.51546,0.1417 l 0.11992,-1.14301 c -0.30654,-0.14263 -0.64916,-0.21553 -1.03364,-0.21703 -0.23365,0.002 -0.44451,0.0501 -0.62932,0.13469 -0.19058,0.0862 -0.3341,0.20564 -0.42151,0.34639 -0.0874,0.14074 -0.1504,0.33375 -0.18111,0.57366 -0.0317,0.17151 -0.0448,0.51563 -0.0472,1.03774 l 0.004,2.41851 -0.60781,0.004 -0.002,1.17156 0.60986,-0.007 -0.002,1.10892 1.31922,0.87153 3.6e-4,-1.97965 0.89628,6.2e-4 z" /><path
       inkscape:connector-curvature="0"
       id="path2774"
       style="fill:#000000;fill-opacity:1;fill-rule:nonzero;stroke:none"
       d="m 743.3299,639.50728 c -0.008,0.43642 -0.10727,0.76468 -0.29669,0.9848 -0.18858,0.223 -0.42029,0.3398 -0.6832,0.33757 -0.28969,0.002 -0.53065,-0.11857 -0.71463,-0.35588 -0.1955,-0.23398 -0.28657,-0.56053 -0.2843,-0.96397 l 1.97882,-0.003 z m -0.0891,-1.48863 1.31929,-0.24316 c -0.1633,-0.53365 -0.43136,-0.94341 -0.79593,-1.22229 -0.36663,-0.27517 -0.82316,-0.41825 -1.37288,-0.41892 -0.86785,5.4e-4 -1.50577,0.32193 -1.92534,0.94564 -0.32384,0.5118 -0.48666,1.14888 -0.48512,1.92277 -0.003,0.92184 0.20896,1.64451 0.64254,2.16264 0.43237,0.52472 0.97615,0.78626 1.63507,0.78666 0.74917,-6.6e-4 1.33775,-0.27659 1.76165,-0.82037 0.428,-0.55121 0.63521,-1.39156 0.61877,-2.52022 l -3.30986,-7.1e-4 c 0.0104,-0.44013 0.11548,-0.77954 0.31598,-1.01534 0.20377,-0.24612 0.45937,-0.36668 0.75937,-0.36579 0.20809,-0.004 0.38215,0.0584 0.52134,0.18371 0.1429,0.12739 0.2485,0.3311 0.31512,0.60538" /><path
       inkscape:connector-curvature="0"
       id="path2778"
       style="fill:#000000;fill-opacity:1;fill-rule:nonzero;stroke:none"
       d="m 747.07664,636.27278 -1.31784,-7.9e-4 -0.002,5.54581 1.22965,-0.002 0.003,-0.7908 c 0.20576,0.37777 0.39511,0.6229 0.55736,0.74158 0.16763,0.1265 0.35321,0.18537 0.57162,0.18482 0.29916,-0.002 0.58203,-0.0929 0.85931,-0.27909 l -0.40419,-1.28221 c -0.21924,0.16003 -0.42467,0.23802 -0.61464,0.23974 -0.1842,5e-5 -0.34052,-0.0548 -0.46895,-0.16447 -0.12888,-0.12207 -0.23076,-0.32373 -0.30033,-0.61902 -0.0733,-0.29734 -0.11068,-0.91413 -0.11183,-1.85986 l -0.001,-1.71385 z" /><path
       inkscape:connector-curvature="0"
       id="path2782"
       style="fill:#000000;fill-opacity:1;fill-rule:nonzero;stroke:none"
       d="m 754.18198,636.27026 -1.31784,-7.9e-4 -0.002,2.83884 c -0.002,0.6 -0.03,0.98908 -0.0807,1.15981 -0.0548,0.17815 -0.14674,0.31396 -0.27711,0.41401 -0.12173,0.0976 -0.27573,0.14823 -0.45128,0.14578 -0.23159,-0.002 -0.43575,-0.071 -0.61906,-0.20859 -0.17755,-0.13925 -0.29628,-0.32357 -0.36568,-0.55333 -0.0702,-0.23265 -0.10138,-0.65455 -0.10624,-1.2776 l 0.001,-2.51701 -1.31989,0.003 -3e-5,5.5421 1.22677,-0.001 0.005,-0.81635 c 0.43059,0.63764 0.97781,0.95439 1.63673,0.95478 0.29052,5.1e-4 0.55781,-0.0579 0.79445,-0.1792 0.24407,-0.11723 0.4209,-0.26191 0.54901,-0.44561 0.12029,-0.17832 0.20671,-0.38747 0.256,-0.61712 0.0464,-0.22882 0.0703,-0.55731 0.0737,-0.98919 l -0.003,-3.45242 z" /><path
       inkscape:connector-curvature="0"
       id="path2786"
       style="fill:#000000;fill-opacity:1;fill-rule:nonzero;stroke:none"
       d="m 758.59432,639.50646 c -0.0121,0.43437 -0.11099,0.76263 -0.29669,0.9848 -0.19351,0.22755 -0.42029,0.3398 -0.68692,0.33552 -0.28968,0.002 -0.53065,-0.11857 -0.71462,-0.35588 -0.19179,-0.23193 -0.28658,-0.56053 -0.28059,-0.96192 l 1.97882,-0.003 z m -0.0928,-1.49068 1.323,-0.24111 c -0.16701,-0.5357 -0.43629,-0.93886 -0.79965,-1.22434 -0.36291,-0.27312 -0.82521,-0.41454 -1.37493,-0.41521 -0.86496,-2.9e-4 -1.50371,0.31821 -1.92534,0.94564 -0.32179,0.50809 -0.4846,1.14517 -0.48511,1.92277 -0.003,0.92184 0.21472,1.64285 0.64337,2.16552 0.43236,0.52473 0.98108,0.78172 1.64,0.78212 0.74423,0.004 1.33282,-0.27204 1.75793,-0.82242 0.42595,-0.5475 0.634,-1.38497 0.62044,-2.51445 l -3.30986,-7.1e-4 c 0.008,-0.4393 0.11631,-0.77666 0.31803,-1.01906 0.20255,-0.23952 0.45444,-0.36214 0.75566,-0.36784 0.20687,0.003 0.38381,0.0641 0.52217,0.18659 0.14207,0.1245 0.24478,0.32905 0.31429,0.6025" /><path
       inkscape:connector-curvature="0"
       id="path2790"
       style="fill:#000000;fill-opacity:1;fill-rule:nonzero;stroke:none"
       d="m 763.35814,641.81574 -0.003,-1.16701 -0.8934,-0.001 -0.002,-2.24749 c -0.002,-0.44917 0.007,-0.71086 0.0256,-0.78797 0.0204,-0.0808 0.0569,-0.13819 0.11409,-0.18902 0.058,-0.048 0.13292,-0.0696 0.21286,-0.0739 0.12527,0.001 0.30177,0.0503 0.51917,0.14374 l 0.11498,-1.13846 c -0.30077,-0.14429 -0.64711,-0.21924 -1.02787,-0.21869 -0.23365,0.002 -0.44246,0.0464 -0.63509,0.13635 -0.18481,0.0845 -0.32999,0.19822 -0.41574,0.34473 -0.0903,0.14157 -0.14918,0.32715 -0.17906,0.56995 -0.0338,0.17522 -0.0469,0.51934 -0.051,1.03569 l -4.8e-4,2.42305 -0.60288,-9.5e-4 -0.002,1.17156 0.60864,-7.2e-4 -0.003,1.10604 1.32293,0.87358 -0.003,-1.97882 0.89916,-2.1e-4 z" /><path
       inkscape:connector-curvature="0"
       id="path2794"
       style="fill:#000000;fill-opacity:1;fill-rule:nonzero;stroke:none"
       d="m 767.16458,636.27256 -5e-5,7.65279 1.34628,0.002 2.82511,-5.11119 0.003,5.10735 1.29395,0.005 -0.004,-7.65485 -1.38336,-6.3e-4 -2.78953,5.00726 -0.001,-5.00475 -1.29024,-0.003 z" /><path
       inkscape:connector-curvature="0"
       id="path2798"
       style="fill:#000000;fill-opacity:1;fill-rule:nonzero;stroke:none"
       d="m 777.47353,636.27267 0.001,0.82705 c -0.18658,-0.28964 -0.42083,-0.52806 -0.71922,-0.70738 -0.29589,-0.17068 -0.61136,-0.25766 -0.94184,-0.256 -0.33503,-0.003 -0.64058,0.0849 -0.90433,0.24211 -0.26701,0.16757 -0.46053,0.39512 -0.58093,0.69212 -0.12329,0.29784 -0.18078,0.70471 -0.18029,1.22599 l -0.003,3.51673 1.32444,0.002 9.7e-4,-2.55121 c -0.002,-0.77677 0.0257,-1.25321 0.0702,-1.43464 0.0498,-0.17361 0.14097,-0.3123 0.26885,-0.421 0.13121,-0.0972 0.29756,-0.14828 0.49412,-0.14877 0.22417,-0.002 0.42833,0.0669 0.6067,0.20904 0.18249,0.1347 0.30654,0.30499 0.37217,0.51087 0.0648,0.20299 0.10232,0.70111 0.1002,1.49478 l 9.6e-4,2.34146 1.32073,-4e-5 -8.1e-4,-5.54499 -1.22965,0.002 z" /><path
       inkscape:connector-curvature="0"
       id="path2802"
       style="fill:#000000;fill-opacity:1;fill-rule:nonzero;stroke:none"
       d="m 780.06188,641.81471 1.21441,-5.9e-4 5.6e-4,-0.75576 c 0.43708,0.59518 0.95375,0.89263 1.55747,0.89647 0.31812,-0.001 0.59938,-0.0761 0.83226,-0.22133 0.23204,-0.14811 0.4301,-0.37073 0.58265,-0.66451 0.2138,0.29739 0.45626,0.52095 0.70675,0.66414 0.25505,0.14812 0.52555,0.21996 0.81236,0.21841 0.36923,0.003 0.67849,-0.0833 0.93398,-0.24754 0.25549,-0.16425 0.44485,-0.4062 0.57218,-0.73331 0.0921,-0.23265 0.13731,-0.61723 0.13433,-1.14716 l 1e-4,-3.5501 -1.32155,-0.003 0.002,3.17798 c 0.002,0.54889 -0.0447,0.90588 -0.13866,1.06724 -0.1235,0.21047 -0.30909,0.31396 -0.56169,0.31501 -0.18792,-0.002 -0.35909,-0.065 -0.52672,-0.19153 -0.16308,-0.12156 -0.27893,-0.30671 -0.34877,-0.54883 -0.0764,-0.24335 -0.11119,-0.62362 -0.10963,-1.14861 l -0.002,-2.66906 -1.32361,8.7e-4 0.004,3.0461 c 0.002,0.53653 -0.0221,0.88686 -0.0711,1.04152 -0.0482,0.15753 -0.12129,0.27228 -0.21957,0.35371 -0.10366,0.0736 -0.23625,0.11185 -0.40521,0.11063 -0.2015,0.005 -0.38586,-0.0604 -0.55388,-0.17744 -0.16391,-0.12445 -0.2781,-0.30383 -0.34666,-0.53072 -0.0686,-0.22688 -0.10498,-0.61291 -0.10592,-1.14656 l 0.002,-2.69832 -1.3199,0.003 -8.5e-4,5.53922 z" /><path
       inkscape:connector-curvature="0"
       id="path2806"
       style="fill:#000000;fill-opacity:1;fill-rule:nonzero;stroke:none"
       d="m 790.0606,639.16104 c 0.005,-0.57899 0.0811,-1.00692 0.24608,-1.27931 0.23266,-0.39496 0.53875,-0.58941 0.91869,-0.59284 0.28968,-0.002 0.53647,0.13876 0.74611,0.42174 0.20138,0.276 0.30675,0.71707 0.30702,1.31336 0.003,0.63913 -0.10107,1.1001 -0.30806,1.37837 -0.2148,0.28364 -0.47611,0.42771 -0.79507,0.42604 -0.31895,-0.002 -0.58591,-0.13698 -0.79594,-0.41049 -0.21086,-0.27638 -0.31906,-0.69479 -0.31883,-1.25687 m -1.30782,-2.8887 0.004,7.65485 1.32072,-4e-5 -3.5e-4,-2.75065 c 0.41175,0.51818 0.89206,0.77617 1.44466,0.77601 0.61236,0.001 1.11613,-0.24388 1.51791,-0.73445 0.39147,-0.49384 0.59409,-1.1986 0.59177,-2.11589 0.004,-0.95028 -0.20452,-1.68326 -0.60883,-2.19734 -0.40349,-0.5112 -0.89616,-0.76875 -1.47432,-0.77058 -0.28598,0.004 -0.56929,0.083 -0.84662,0.24732 -0.28188,0.15936 -0.51658,0.39567 -0.71442,0.70564 l -8.2e-4,-0.81468 -1.23336,-1.9e-4 z" /><path
       inkscape:connector-curvature="0"
       id="path2810"
       style="fill:#000000;fill-opacity:1;fill-rule:nonzero;stroke:none"
       d="m 797.75284,639.50785 c -0.0121,0.43437 -0.11099,0.76263 -0.29669,0.9848 -0.19351,0.22755 -0.42029,0.3398 -0.68692,0.33552 -0.28968,0.002 -0.53065,-0.11857 -0.71462,-0.35588 -0.19179,-0.23193 -0.28286,-0.55848 -0.2843,-0.96397 l 1.98253,-4.7e-4 z m -0.0928,-1.49068 1.31929,-0.24316 c -0.1633,-0.53365 -0.42765,-0.94136 -0.79594,-1.22229 -0.36291,-0.27312 -0.82521,-0.41454 -1.37288,-0.41892 -0.86701,0.003 -1.50576,0.32192 -1.92367,0.95141 -0.32551,0.50603 -0.48832,1.14311 -0.48966,1.91783 -0.002,0.92472 0.21555,1.64573 0.6442,2.1684 0.4307,0.51896 0.98108,0.78172 1.63712,0.78295 0.74711,0.003 1.3357,-0.27287 1.76081,-0.82325 0.428,-0.55121 0.63234,-1.39073 0.6196,-2.51733 l -3.30902,0.002 c 0.008,-0.4393 0.11631,-0.77666 0.31432,-1.02111 0.20748,-0.24407 0.45815,-0.36009 0.75937,-0.36579 0.20892,-9.4e-4 0.38381,0.0641 0.52217,0.18659 0.14207,0.1245 0.24478,0.32905 0.31429,0.6025" /><path
       inkscape:connector-curvature="0"
       id="path2814"
       style="fill:#000000;fill-opacity:1;fill-rule:nonzero;stroke:none"
       d="m 801.49938,636.27372 -1.32156,-0.003 -0.002,5.54582 1.22965,-0.002 0.002,-0.7842 c 0.20326,0.36912 0.39633,0.6163 0.55941,0.73786 0.16679,0.12362 0.35033,0.1862 0.56873,0.18565 0.29917,-0.002 0.58409,-0.0967 0.8622,-0.27992 l -0.40131,-1.28304 c -0.22296,0.15798 -0.42961,0.24257 -0.61752,0.24057 -0.18709,8.9e-4 -0.34135,-0.0576 -0.46979,-0.16736 -0.13009,-0.11546 -0.22993,-0.32084 -0.30237,-0.6153 -0.0712,-0.30105 -0.10863,-0.91784 -0.10607,-1.86152 l -0.001,-1.71385 z" /><path
       inkscape:connector-curvature="0"
       id="path2818"
       style="fill:#000000;fill-opacity:1;fill-rule:nonzero;stroke:none"
       d="m 803.60602,637.83794 1.32294,0.22413 c 0.059,-0.28242 0.17512,-0.497 0.34452,-0.64578 0.17023,-0.14589 0.41153,-0.21862 0.71896,-0.21362 0.33913,-0.004 0.59356,0.0661 0.7674,0.20328 0.11441,0.10438 0.17283,0.23115 0.17078,0.39723 0.002,0.11496 -0.0283,0.20487 -0.0941,0.28004 -0.0637,0.0715 -0.21519,0.13076 -0.44291,0.19644 -1.06746,0.26107 -1.74473,0.50014 -2.02689,0.71266 -0.39606,0.30471 -0.58786,0.72222 -0.59147,1.25093 0.003,0.48625 0.16955,0.89091 0.51322,1.21641 0.33586,0.33088 0.86867,0.48943 1.58735,0.49132 0.68076,3.4e-4 1.19102,-0.12498 1.52378,-0.36771 0.33193,-0.24562 0.56137,-0.60842 0.68749,-1.09129 l -1.24473,-0.25606 c -0.0526,0.21813 -0.15893,0.37993 -0.30616,0.49734 -0.14889,0.11164 -0.35931,0.17233 -0.63542,0.16767 -0.34944,8.8e-4 -0.59517,-0.05 -0.74833,-0.15882 -0.10238,-0.0735 -0.14756,-0.176 -0.14539,-0.2984 -0.004,-0.11125 0.0395,-0.19872 0.12788,-0.27106 0.11885,-0.0967 0.53099,-0.23746 1.2352,-0.41561 0.69845,-0.17649 1.19446,-0.39449 1.46824,-0.65768 0.2775,-0.26114 0.41874,-0.6266 0.41592,-1.09101 -0.002,-0.51469 -0.19361,-0.95266 -0.56871,-1.32218 -0.38375,-0.36702 -0.94672,-0.55433 -1.6971,-0.54708 -0.67871,-0.004 -1.21569,0.14771 -1.60804,0.45447 -0.39524,0.30758 -0.65134,0.71866 -0.77446,1.24438" /><path
       inkscape:connector-curvature="0"
       id="path2822"
       style="fill:#000000;fill-opacity:1;fill-rule:nonzero;stroke:none"
       d="m 633.1752,653.00454 c -3.14749,-7.1e-4 -3.14768,1.39502 -3.14941,2.17921 0.003,1.02938 0.78847,3.81596 3.33465,10.47828 0.10537,0.27871 0.20027,0.48863 0.2996,0.65981 -0.0235,-0.006 -0.0503,-0.001 -0.0721,-0.001 l 1.69421,5.11585 c 0.0152,-0.001 0.0334,-0.003 0.0466,-9.4e-4 1.42382,4.43825 5.31561,15.24602 5.66134,15.24308 l 0.12156,-7.1e-4 5.44188,-15.05807 c 2.06956,0.0306 4.17742,0.0533 6.3125,0.0838 -4.0819,10.69108 -8.21907,22.0132 -8.48693,22.66497 -0.30228,0.72726 -0.48072,0.72565 -1.02877,0.73074 -0.72528,-0.003 -0.96469,3.8e-4 -1.15398,-0.54763 -5.86756,-14.65905 -10.53033,-27.73916 -14.22739,-38.45635 -0.79098,-2.36336 -1.9347,-3.09192 -3.09018,-3.09272 -1.63142,0.005 -2.23796,-0.30053 -2.23712,-0.78472 -0.003,-0.7265 0.12185,-1.02805 0.4239,-1.03087 0.48132,0.002 1.09152,0.1254 4.7813,0.12268 7.20568,-0.002 7.99575,-0.12072 8.47912,-0.12277 0.60577,1.2e-4 0.72671,0.24624 0.72731,0.97357 -9.5e-4,0.60288 -0.2443,0.84167 -3.87804,0.84384" /><path
       inkscape:connector-curvature="0"
       id="path2826"
       style="fill:#000000;fill-opacity:1;fill-rule:nonzero;stroke:none"
       d="m 663.75642,653.0059 c -2.36124,-0.003 -3.63165,0.66973 -4.60058,2.90691 -1.06976,2.45047 -2.51986,6.05038 -4.08837,10.0841 -2.17737,0.0286 -4.30902,0.0533 -6.41222,0.0792 1.27016,-3.21704 4.26432,-10.41586 4.25973,-11.74152 0.003,-1.02816 -0.78384,-1.33193 -3.20606,-1.32953 -1.21152,-2.4e-4 -2.54533,-0.12132 -2.54316,-0.7308 -0.002,-0.60205 0.0615,-1.08558 0.30262,-1.0833 0.42361,-0.004 0.84877,0.11736 9.02285,0.11692 7.32891,0.003 7.81239,-0.11779 8.41815,-0.11767 0.54601,-0.001 0.66445,0.72317 0.66223,1.14845 0.005,0.48254 -1.26835,0.66871 -1.81519,0.66721" /><path
       inkscape:connector-curvature="0"
       id="path2830"
       style="fill:#000000;fill-opacity:1;fill-rule:nonzero;stroke:none"
       d="m 682.8233,655.66941 c -0.0622,-1.63375 -0.42169,-2.66346 -4.29939,-2.66274 -1.69572,-0.001 -1.695,-0.3666 -1.69255,-1.02924 -0.004,-0.54517 7e-5,-0.78996 0.48138,-0.78829 0.42362,-0.004 0.66829,0.11947 8.65529,0.11991 8.96404,-3.7e-4 9.21016,-0.12132 9.62884,-0.12031 0.48791,0.003 0.48769,0.24025 0.4899,0.78913 -0.002,0.66264 -0.003,1.02816 -1.69602,1.02625 -4.78923,0.001 -5.14761,1.03207 -5.20695,2.66654 -0.12299,3.02665 -0.18136,14.83957 -0.18136,14.83957 2.48336,0.058 3.8762,0.059 6.35356,-2.42589 2.18472,-2.17884 6.17899,-9.87221 11.20268,-16.41064 0.36718,-0.48059 0.5485,-0.47981 1.09368,-0.48407 0.30288,6e-5 0.60443,0.12539 4.2971,0.12184 4.42287,-0.005 4.66406,-0.12138 4.96406,-0.12049 0.54888,-0.002 0.72793,0.23964 0.72631,0.90516 0.002,0.36469 0.003,0.72649 -0.42385,0.72799 -3.62864,0.0631 -4.17571,0.78607 -8.53996,6.06021 -5.63172,6.77938 -8.65429,12.35343 -8.65213,12.71812 -0.003,0.23819 0.36313,0.36048 0.66384,0.48293 6.66352,2.66461 9.7506,5.50843 9.75085,11.3221 -0.003,8.72463 -8.59568,11.08447 -15.62376,11.08531 -3.57565,-0.002 -7.26687,-0.2425 -8.84103,-0.2443 -3.81506,0.001 -8.17635,0.24151 -8.65972,0.24356 -0.42445,6.6e-4 -0.54379,-0.4239 -0.54306,-0.78942 -0.003,-0.54229 -5.4e-4,-1.03021 0.6621,-1.02776 4.3619,1.2e-4 5.39294,-0.48462 5.45275,-4.05506 0.0601,-2.78995 0.0584,-29.92232 -0.0626,-32.95041 m 6.17795,16.65523 -2.8e-4,16.05187 c -0.002,3.99721 0.84943,4.29794 4.54293,4.29727 6.95967,1.6e-4 10.34764,-4.48032 10.35171,-10.05169 0.003,-5.50874 -2.66331,-10.29412 -9.92958,-10.29639 l -4.96478,-0.001 z" /><path
       inkscape:connector-curvature="0"
       id="path2834"
       style="fill:#000000;fill-opacity:1;fill-rule:nonzero;stroke:none"
       d="m 730.96747,692.67667 c 5.26683,-0.002 6.29787,-0.48649 6.35768,-4.05693 0.0638,-2.7879 0.12036,-16.64228 0.12036,-16.64228 2.01507,-0.007 4.01611,-0.0188 5.99615,-0.0279 0,0 0.0639,13.8821 0.12365,16.66557 0.0568,3.57426 1.08907,4.05709 6.35468,4.06193 0.6684,7.9e-4 0.66673,0.4821 0.66894,1.03099 -7.2e-4,0.36552 -0.12329,0.78492 -0.54402,0.78763 -0.48791,-0.003 -5.7533,-0.24509 -9.63183,-0.24725 -3.81134,0.003 -9.08128,0.24338 -9.56548,0.24254 -0.42361,0.004 -0.54667,-0.42306 -0.54223,-0.78653 -0.005,-0.54806 -0.006,-1.02855 0.6621,-1.02776" /><path
       inkscape:connector-curvature="0"
       id="path2838"
       style="fill:#000000;fill-opacity:1;fill-rule:nonzero;stroke:none"
       d="m 748.83079,653.00663 c -4.78717,-0.002 -5.14761,1.03207 -5.20778,2.66366 -0.12216,3.02953 -0.18269,6.96549 -0.18311,9.57274 l -0.002,0.54396 c -1.97433,-0.0144 -3.97748,-0.0205 -5.98889,-0.0335 l -0.002,-0.51468 c -0.002,-2.60354 -0.0589,-6.53673 -0.18362,-9.56687 -0.0593,-1.63458 -0.42169,-2.66347 -5.20598,-2.66664 -1.69778,0.003 -1.69622,-0.36 -1.6946,-1.02552 -0.001,-0.546 7e-5,-0.78996 0.48138,-0.78829 0.43021,-0.002 0.66829,0.11947 9.56847,0.12503 8.9661,-0.004 9.20562,-0.12626 9.62718,-0.12609 0.48997,-8.2e-4 0.48481,0.24108 0.48618,0.78709 -7.8e-4,0.6684 -0.003,1.02816 -1.69518,1.02913" /><path
       inkscape:connector-curvature="0"
       id="path2842"
       style="fill:#000000;fill-opacity:1;fill-rule:nonzero;stroke:none"
       d="m 778.4437,653.00878 c -3.33169,-6.6e-4 -4.72538,0.96961 -4.72447,2.9645 -0.002,0.99972 -0.16137,4.47398 -0.2257,10.17201 -0.67006,-0.007 -1.31008,-0.028 -1.98386,-0.0366 -0.19204,-6.0456 -0.42325,-9.8131 -0.45284,-10.43527 -0.24126,-2.36269 -2.66796,-2.6681 -4.11973,-2.66773 -0.72444,-2.3e-4 -2.72499,-0.11634 -2.72348,-0.66318 -6e-4,-0.72732 7.9e-4,-1.15548 0.6045,-1.15164 0.43021,-0.002 0.96746,0.11747 7.81299,0.12245 7.44675,1.6e-4 7.81444,-0.12151 8.2978,-0.12356 0.48132,0.002 0.60211,0.18227 0.59982,0.91043 0.005,0.60122 0.003,0.90781 -3.08503,0.9086" /><path
       inkscape:connector-curvature="0"
       id="path2846"
       style="fill:#000000;fill-opacity:1;fill-rule:nonzero;stroke:none"
       d="m 816.04873,694.49165 c -0.36469,0.002 -6.59847,-0.24172 -7.9299,-0.23548 -1.6986,-2.4e-4 -7.81538,0.23731 -8.78583,0.23934 -0.48131,-0.002 -0.66024,-0.3622 -0.66384,-0.97001 8.4e-4,-0.4842 0.12396,-0.84756 0.78865,-0.84882 5.27137,0.003 7.5707,-0.36032 7.56668,-9.62929 0.001,-5.93894 -0.30165,-16.65481 -0.59979,-22.28888 -13.56977,13.93051 -23.13829,25.37678 -30.22324,33.37465 -0.17922,0.17971 -0.30156,0.36174 -0.48371,0.35808 -0.96385,0.003 -4.47913,-0.24419 -5.38694,-0.24148 -1.08913,0.002 -5.3915,0.24066 -5.75248,0.24487 -0.4842,-8.4e-4 -0.66623,-0.12318 -0.66395,-0.85134 0.002,-0.60947 -0.004,-0.96673 0.5448,-0.96894 l 2.23597,0.001 c 1.27416,9.1e-4 4.54309,-3.14948 4.96561,-4.23927 0.12162,-0.3036 0.12269,-1.51224 0.12282,-2.60508 -2e-4,-5.30475 -0.0682,-10.18405 -0.15756,-14.26098 0.62389,-0.002 1.24972,-0.0514 1.8699,-0.0554 0.003,5.09787 0.10611,10.3698 0.16596,15.47 27.97658,-30.10074 33.05908,-36.52187 33.60592,-36.52037 0.60948,0.002 0.90798,0.0628 0.90996,0.84907 9.2e-4,5.75102 0.72551,34.22042 1.08978,36.33844 0.78463,4.41967 1.82131,5.02611 6.72346,5.02651 0.30288,6e-5 0.54234,0.18077 0.54366,1.02966 -0.002,0.35975 -0.12041,0.78409 -0.48593,0.78336" /></g></svg>