<?xml version="1.0" encoding="UTF-8" standalone="no"?>
<!-- Created with Inkscape (http://www.inkscape.org/) -->

<svg
   xmlns:dc="http://purl.org/dc/elements/1.1/"
   xmlns:cc="http://creativecommons.org/ns#"
   xmlns:rdf="http://www.w3.org/1999/02/22-rdf-syntax-ns#"
   xmlns:svg="http://www.w3.org/2000/svg"
   xmlns="http://www.w3.org/2000/svg"
   xmlns:sodipodi="http://sodipodi.sourceforge.net/DTD/sodipodi-0.dtd"
   xmlns:inkscape="http://www.inkscape.org/namespaces/inkscape"
   width="169.88428"
   height="126.96183"
   id="svg3801"
   version="1.1"
   inkscape:version="0.48.4 r9939"
   sodipodi:docname="New document 3">
  <defs
     id="defs3803" />
  <sodipodi:namedview
     id="base"
     pagecolor="#ffffff"
     bordercolor="#666666"
     borderopacity="1.0"
     inkscape:pageopacity="0.0"
     inkscape:pageshadow="2"
     inkscape:zoom="0.98994949"
     inkscape:cx="100.43019"
     inkscape:cy="44.237059"
     inkscape:document-units="px"
     inkscape:current-layer="layer1"
     showgrid="false"
     fit-margin-top="0"
     fit-margin-left="0"
     fit-margin-right="0"
     fit-margin-bottom="0"
     inkscape:window-width="467"
     inkscape:window-height="457"
     inkscape:window-x="132"
     inkscape:window-y="174"
     inkscape:window-maximized="0" />
  <metadata
     id="metadata3806">
    <rdf:RDF>
      <cc:Work
         rdf:about="">
        <dc:format>image/svg+xml</dc:format>
        <dc:type
           rdf:resource="http://purl.org/dc/dcmitype/StillImage" />
        <dc:title></dc:title>
      </cc:Work>
    </rdf:RDF>
  </metadata>
  <g
     inkscape:label="Layer 1"
     inkscape:groupmode="layer"
     id="layer1"
     transform="translate(-325.88239,-481.1807)">
    <g
       transform="matrix(2.3312088,0,0,-2.3312088,28.065571,1264.5699)"
       id="g3624">
      <path
         inkscape:connector-curvature="0"
         id="path238"
         style="fill:#0d528b;fill-opacity:1;fill-rule:nonzero;stroke:none"
         d="m 176.206,324.891 -8.546,0 0,-2.03 8.546,0 0,2.03 z m 0,-3.288 -8.546,0 0,-2.217 8.546,0 0,2.217 z m -9.909,-3.475 0,8.023 4.95,0 0,5.034 -7.768,0 0,1.256 7.768,0 0,2.336 -5.05,0 0,1.267 11.532,0 0,-1.267 -5.119,0 0,-2.336 7.725,0 0,-1.256 -7.725,0 0,-5.034 4.955,0 0,-8.023 -11.268,0 z" />
      <g
         transform="translate(177.3823,300.0215)"
         id="g240">
        <path
           inkscape:connector-curvature="0"
           id="path242"
           style="fill:#0d528b;fill-opacity:1;fill-rule:nonzero;stroke:none"
           d="m 0,0 c -0.439,0 -0.796,0.358 -0.796,0.797 0,0.439 0.357,0.796 0.796,0.796 0.437,0 0.793,-0.357 0.793,-0.796 C 0.793,0.358 0.437,0 0,0" />
      </g>
      <g
         transform="translate(178.9912,310.583)"
         id="g244">
        <path
           inkscape:connector-curvature="0"
           id="path246"
           style="fill:#0d528b;fill-opacity:1;fill-rule:nonzero;stroke:none"
           d="m 0,0 0,2.52 -14.169,0 0,-2.52 -1.31,0 0,3.77 16.79,0 L 1.311,0 0,0 z" />
      </g>
      <path
         inkscape:connector-curvature="0"
         id="path248"
         style="fill:#0d528b;fill-opacity:1;fill-rule:nonzero;stroke:none"
         d="m 176.237,308.375 -8.882,0 0,-0.676 8.882,0 0,0.676 z m 0,-1.915 -8.882,0 0,-0.736 8.882,0 0,0.736 z m 0,-1.985 -8.882,0 0,-0.918 8.882,0 0,0.918 z m -3.795,-2.157 -1.271,0 0,-4.176 -6.697,0.003 0.006,1.275 5.325,0 0,2.898 -3.755,0 0,7.304 3.69,0 0,3.053 1.308,0 0,-3.053 1.556,0 0,3.053 1.344,0 0,-3.053 3.595,0 0,-7.304 -3.736,0 0,-2.898 5.331,0 -0.012,-1.275 -6.684,-0.003 0,4.176 z" />
      <path
         inkscape:connector-curvature="0"
         id="path250"
         style="fill:#0d528b;fill-opacity:1;fill-rule:nonzero;stroke:none"
         d="m 169.85,316.146 3.767,0 0,-1.266 -3.767,0 0,1.266 z" />
      <path
         inkscape:connector-curvature="0"
         id="path252"
         style="fill:#0d528b;fill-opacity:1;fill-rule:nonzero;stroke:none"
         d="m 166.054,311.818 3.767,0 0,-1.266 -3.767,0 0,1.266 z" />
      <path
         inkscape:connector-curvature="0"
         id="path254"
         style="fill:#0d528b;fill-opacity:1;fill-rule:nonzero;stroke:none"
         d="m 173.737,311.818 3.767,0 0,-1.266 -3.767,0 0,1.266 z" />
      <path
         inkscape:connector-curvature="0"
         id="path256"
         style="fill:#0d528b;fill-opacity:1;fill-rule:nonzero;stroke:none"
         d="m 198.19,311.19 -4.408,0 0,-2.018 4.408,0 0,2.018 z m 0,-3.248 -4.408,0 0,-1.74 4.408,0 0,1.74 z m 0,-3.027 -4.408,0 0,-2.144 4.408,0 0,2.144 z m -1.455,-6.774 0,3.411 -4.258,0 0,10.865 2.65,0 0,1.678 -3.481,0 0,1.287 8.904,0 -0.002,-1.287 -4.019,0 -0.008,-1.678 2.981,0 0,-10.865 -1.404,0 0,-2.144 2.204,0 0,-1.267 -3.567,0 z" />
      <g
         transform="translate(186.9907,302.3174)"
         id="g258">
        <path
           inkscape:connector-curvature="0"
           id="path260"
           style="fill:#0d528b;fill-opacity:1;fill-rule:nonzero;stroke:none"
           d="m 0,0 0,6.125 -4.315,0 0.038,1.217 1.658,0 0,4.793 1.361,0 0,-4.793 1.296,0 0,6.48 1.324,0 0,-2.826 3.019,0 0.003,-1.231 -3.022,0 0,-2.423 3.701,0 0,-1.217 -3.701,0 L 1.362,0 0,0 z" />
      </g>
      <path
         inkscape:connector-curvature="0"
         id="path262"
         style="fill:#0d528b;fill-opacity:1;fill-rule:nonzero;stroke:none"
         d="m 184.309,307.749 1.312,0 0,-4.517 -1.312,0 0,4.517 z" />
      <g
         transform="translate(183.3701,299.4194)"
         id="g264">
        <path
           inkscape:connector-curvature="0"
           id="path266"
           style="fill:#0d528b;fill-opacity:1;fill-rule:nonzero;stroke:none"
           d="m 0,0 2.816,0 3.687,4.44 0,3.889 1.314,0 0,-4.344 L 3.478,-1.263 0,-1.265 0,0 z" />
      </g>
      <g
         transform="translate(191.6104,298.1406)"
         id="g268">
        <path
           inkscape:connector-curvature="0"
           id="path270"
           style="fill:#0d528b;fill-opacity:1;fill-rule:nonzero;stroke:none"
           d="m 0,0 3.635,4.044 0,0.452 1.426,0 0,-0.917 L 1.864,0 0,0 z" />
      </g>
      <path
         inkscape:connector-curvature="0"
         id="path272"
         style="fill:#ffffff;fill-opacity:1;fill-rule:nonzero;stroke:none"
         d="m 132.521,314.927 28.227,0 0,-16.785 -28.227,0 0,16.785 z" />
      <g
         transform="translate(149.8052,301.5332)"
         id="g274">
        <path
           inkscape:connector-curvature="0"
           id="path276"
           style="fill:#0d528b;fill-opacity:1;fill-rule:nonzero;stroke:none"
           d="m 0,0 c 0,1.664 1.791,3.024 1.791,3.024 0,0 -3.41,-1.286 -9.664,-1.286 -6.252,0 -9.249,1.259 -9.249,1.259 0,0 3.386,-0.866 7.858,-0.866 4.473,0 7.557,0.604 9.555,1.297 C 2.289,4.124 2.81,4.689 2.896,5.554 2.983,6.419 1.854,6.982 1.854,6.982 3.331,6.464 4.199,5.769 4.199,5.079 4.199,4.383 3.763,4.124 3.763,4.124 c 2.96,1.314 5.867,1.704 7.18,1.815 l 0,28.572 -32.996,0 0,-37.903 24.344,0 C 1.086,-2.679 0,-1.531 0,0" />
      </g>
      <g
         transform="translate(158.1299,305.8716)"
         id="g278">
        <path
           inkscape:connector-curvature="0"
           id="path280"
           style="fill:#0d528b;fill-opacity:1;fill-rule:nonzero;stroke:none"
           d="m 0,0 c -4.038,-0.996 -6.676,-3.077 -6.776,-4.896 -0.07,-1.332 0.519,-2.318 1.068,-2.834 l 8.327,0 0,8.292 C 1.434,0.379 0,0 0,0" />
      </g>
      <g
         transform="translate(131.4277,305.502)"
         id="g282">
        <path
           inkscape:connector-curvature="0"
           id="path284"
           style="fill:#f25c19;fill-opacity:1;fill-rule:nonzero;stroke:none"
           d="m 0,0 c 0,-0.532 -0.427,-0.959 -0.954,-0.959 -0.529,0 -0.957,0.427 -0.957,0.959 0,0.526 0.428,0.954 0.957,0.954 C -0.427,0.954 0,0.526 0,0" />
      </g>
      <g
         transform="translate(128.9741,293.9609)"
         id="g286">
        <path
           inkscape:connector-curvature="0"
           id="path288"
           style="fill:#0d528b;fill-opacity:1;fill-rule:nonzero;stroke:none"
           d="m 0,0 0,-2.467 1.769,0 0,2.467 1.261,0 0,-6.325 -1.261,0 0,2.808 -1.769,0 0,-2.808 -1.222,0 0,6.325 L 0,0 z" />
      </g>
      <g
         transform="translate(139.0576,294.062)"
         id="g290">
        <path
           inkscape:connector-curvature="0"
           id="path292"
           style="fill:#0d528b;fill-opacity:1;fill-rule:nonzero;stroke:none"
           d="m 0,0 c -0.468,0 -0.914,-0.123 -1.275,-0.318 -0.885,-0.509 -1.391,-1.597 -1.391,-2.971 0,-0.925 0.242,-1.724 0.717,-2.337 0.467,-0.639 1.064,-0.902 1.992,-0.902 0.518,0 0.86,0.079 1.228,0.291 0.894,0.502 1.373,1.578 1.373,3.005 C 2.644,-1.238 1.63,0 0,0 m -0.019,-1.003 c 0.649,0 0.981,-0.477 1.081,-0.791 0.098,-0.356 0.157,-0.824 0.157,-1.465 0,-1.626 -0.364,-2.288 -1.219,-2.288 -0.292,0 -0.539,0.072 -0.737,0.218 -0.367,0.263 -0.548,0.95 -0.548,2.04 0,0.775 0.099,1.329 0.309,1.738 0.183,0.337 0.542,0.548 0.957,0.548" />
      </g>
      <g
         transform="translate(147.313,293.9609)"
         id="g294">
        <path
           inkscape:connector-curvature="0"
           id="path296"
           style="fill:#0d528b;fill-opacity:1;fill-rule:nonzero;stroke:none"
           d="M 0,0 1.17,-2.533 C 1.483,-3.208 1.717,-3.874 1.844,-4.327 1.798,-3.842 1.753,-3.03 1.745,-2.595 L 1.717,0 l 1.169,0 0,-6.325 -1.281,0 -1.046,2.416 c -0.352,0.795 -0.722,1.683 -0.836,2.076 0.042,-0.521 0.048,-1.273 0.063,-1.801 l 0.037,-2.691 -1.2,0 0,6.325 L 0,0 z" />
      </g>
      <g
         transform="translate(158.5508,292.5215)"
         id="g298">
        <path
           inkscape:connector-curvature="0"
           id="path300"
           style="fill:#0d528b;fill-opacity:1;fill-rule:nonzero;stroke:none"
           d="m 0,0 c -0.395,0.345 -0.815,0.49 -1.28,0.49 -0.368,0 -0.673,-0.103 -0.885,-0.314 -0.415,-0.418 -0.519,-1.097 -0.519,-2.048 0,-0.897 0.151,-1.482 0.454,-1.803 0.233,-0.231 0.563,-0.35 0.965,-0.35 0.27,0 0.497,0.042 0.702,0.151 l 0,1.437 -0.941,0 -0.163,1.045 2.381,0 0,-3.029 c -0.619,-0.374 -1.32,-0.553 -2.036,-0.553 -0.923,0 -1.607,0.301 -2.098,0.958 -0.453,0.596 -0.65,1.265 -0.65,2.211 0,1.338 0.42,2.286 1.269,2.881 0.463,0.314 0.921,0.45 1.507,0.45 0.735,0 1.414,-0.254 1.94,-0.733 L 0,0 z" />
      </g>
      <g
         transform="translate(179.8545,294.062)"
         id="g302">
        <path
           inkscape:connector-curvature="0"
           id="path304"
           style="fill:#0d528b;fill-opacity:1;fill-rule:nonzero;stroke:none"
           d="m 0,0 c -0.469,0 -0.913,-0.123 -1.277,-0.318 -0.884,-0.509 -1.389,-1.597 -1.389,-2.971 0,-0.925 0.241,-1.724 0.716,-2.337 0.467,-0.639 1.067,-0.902 1.993,-0.902 0.518,0 0.859,0.079 1.228,0.291 0.894,0.502 1.371,1.578 1.371,3.005 C 2.642,-1.238 1.629,0 0,0 m -0.019,-1.003 c 0.648,0 0.979,-0.477 1.079,-0.791 0.101,-0.356 0.159,-0.824 0.159,-1.465 0,-1.626 -0.365,-2.288 -1.219,-2.288 -0.292,0 -0.541,0.072 -0.737,0.218 -0.367,0.263 -0.548,0.95 -0.548,2.04 0,0.775 0.098,1.329 0.308,1.738 0.185,0.337 0.543,0.548 0.958,0.548" />
      </g>
      <g
         transform="translate(188.2183,293.9609)"
         id="g306">
        <path
           inkscape:connector-curvature="0"
           id="path308"
           style="fill:#0d528b;fill-opacity:1;fill-rule:nonzero;stroke:none"
           d="m 0,0 1.171,-2.533 c 0.312,-0.675 0.545,-1.341 0.674,-1.794 -0.048,0.485 -0.091,1.297 -0.1,1.732 L 1.716,0 l 1.17,0 0,-6.325 -1.28,0 -1.046,2.416 c -0.354,0.795 -0.723,1.683 -0.836,2.076 0.043,-0.521 0.047,-1.273 0.062,-1.801 l 0.036,-2.691 -1.198,0 0,6.325 L 0,0 z" />
      </g>
      <g
         transform="translate(199.5654,292.5215)"
         id="g310">
        <path
           inkscape:connector-curvature="0"
           id="path312"
           style="fill:#0d528b;fill-opacity:1;fill-rule:nonzero;stroke:none"
           d="m 0,0 c -0.396,0.345 -0.815,0.49 -1.281,0.49 -0.369,0 -0.672,-0.103 -0.884,-0.314 -0.416,-0.418 -0.52,-1.097 -0.52,-2.048 0,-0.897 0.152,-1.482 0.454,-1.803 0.233,-0.231 0.563,-0.35 0.966,-0.35 0.27,0 0.496,0.042 0.702,0.151 l 0,1.437 -0.942,0 -0.163,1.045 2.381,0 0,-3.029 c -0.619,-0.374 -1.319,-0.553 -2.037,-0.553 -0.922,0 -1.606,0.301 -2.098,0.958 -0.449,0.596 -0.649,1.265 -0.649,2.211 0,1.338 0.42,2.286 1.27,2.881 0.46,0.314 0.92,0.45 1.507,0.45 0.735,0 1.415,-0.254 1.94,-0.733 L 0,0 z" />
      </g>
      <g
         transform="translate(169.1689,293.9609)"
         id="g314">
        <path
           inkscape:connector-curvature="0"
           id="path316"
           style="fill:#0d528b;fill-opacity:1;fill-rule:nonzero;stroke:none"
           d="M 0,0 0,-2.897 1.75,0 3.265,0 1.305,-2.936 3.484,-6.325 1.87,-6.325 0,-3.03 l 0,-3.295 -1.267,0 0,6.325 L 0,0 z" />
      </g>
      <g
         transform="translate(128.585,283.3896)"
         id="g318">
        <path
           inkscape:connector-curvature="0"
           id="path320"
           style="fill:#0d528b;fill-opacity:1;fill-rule:nonzero;stroke:none"
           d="m 0,0 0.49,0 c 0.145,0 0.205,-0.005 0.302,-0.029 0.179,-0.061 0.29,-0.266 0.29,-0.488 0,-0.202 -0.087,-0.391 -0.201,-0.479 C 0.792,-1.065 0.672,-1.09 0.511,-1.09 L 0,-1.09 0,0 z m -0.798,2.281 0,-4.028 1.24,0 0.5,0 c 0.693,0.05 1.034,0.565 1.034,1.117 0,0.537 -0.292,0.875 -0.785,1.026 0.183,0.046 0.247,0.09 0.365,0.204 0.168,0.161 0.26,0.394 0.26,0.669 0,0.294 -0.093,0.528 -0.321,0.725 C 1.26,2.203 1.015,2.281 0.536,2.281 l -1.334,0 z m 0.781,-0.69 0.459,0 C 0.62,1.591 0.699,1.563 0.766,1.538 0.912,1.482 0.995,1.299 0.995,1.132 0.995,0.97 0.899,0.78 0.792,0.717 0.722,0.688 0.639,0.665 0.454,0.665 l -0.471,0 0,0.926 z" />
      </g>
      <g
         transform="translate(132.209,285.6709)"
         id="g322">
        <path
           inkscape:connector-curvature="0"
           id="path324"
           style="fill:#0d528b;fill-opacity:1;fill-rule:nonzero;stroke:none"
           d="m 0,0 0,-4.028 0.775,0 0,1.677 c 0.047,-0.007 0.088,-0.02 0.119,-0.033 0.147,-0.067 0.265,-0.26 0.655,-0.987 0.147,-0.29 0.217,-0.391 0.365,-0.657 l 0.931,0 c 0,0 -0.717,1.275 -0.94,1.561 -0.05,0.069 -0.083,0.105 -0.166,0.168 0.487,0.013 0.879,0.516 0.879,1.114 C 2.618,-0.478 2.16,0 1.462,0 L 0,0 z m 0.775,-0.645 0.283,0 c 0.191,0 0.362,-0.037 0.45,-0.066 0.18,-0.072 0.276,-0.241 0.276,-0.496 0,-0.168 -0.053,-0.314 -0.149,-0.402 C 1.522,-1.71 1.375,-1.733 1.041,-1.733 l -0.266,0 0,1.088 z" />
      </g>
      <g
         transform="translate(138.0938,285.7324)"
         id="g326">
        <path
           inkscape:connector-curvature="0"
           id="path328"
           style="fill:#0d528b;fill-opacity:1;fill-rule:nonzero;stroke:none"
           d="m 0,0 c -0.293,0 -0.588,-0.063 -0.812,-0.188 -0.568,-0.328 -0.887,-1.016 -0.887,-1.892 0,-0.593 0.156,-1.1 0.448,-1.485 0.302,-0.413 0.684,-0.585 1.276,-0.585 0.327,0 0.545,0.064 0.783,0.188 0.569,0.323 0.88,1.004 0.88,1.919 C 1.688,-0.784 1.044,0 0,0 m -0.009,-0.621 c 0.409,0 0.617,-0.309 0.686,-0.512 0.068,-0.225 0.097,-0.523 0.097,-0.93 0,-1.032 -0.229,-1.462 -0.774,-1.462 -0.188,0 -0.342,0.051 -0.471,0.141 -0.236,0.172 -0.352,0.612 -0.352,1.304 0,0.493 0.064,0.844 0.2,1.106 0.111,0.208 0.345,0.353 0.614,0.353" />
      </g>
      <g
         transform="translate(142.1426,285.6768)"
         id="g330">
        <path
           inkscape:connector-curvature="0"
           id="path332"
           style="fill:#0d528b;fill-opacity:1;fill-rule:nonzero;stroke:none"
           d="m 0,0 -1.285,-4.039 0.822,0 0.281,0.942 1.151,0 0.272,-0.942 0.849,0 L 0.859,0 0,0 z m 0.007,-2.418 c 0.083,0.271 0.138,0.463 0.209,0.751 0.078,0.301 0.185,0.78 0.185,0.78 0,0 0.121,-0.527 0.159,-0.71 0.087,-0.394 0.211,-0.821 0.211,-0.821 l -0.764,0 z" />
      </g>
      <g
         transform="translate(145.5698,285.6709)"
         id="g334">
        <path
           inkscape:connector-curvature="0"
           id="path336"
           style="fill:#0d528b;fill-opacity:1;fill-rule:nonzero;stroke:none"
           d="m 0,0 0,-4.028 0.949,0 c 0.235,0 0.421,0 0.568,0.017 0.365,0.032 0.712,0.249 0.956,0.584 0.266,0.366 0.393,0.846 0.393,1.394 0,0.73 -0.175,1.242 -0.534,1.603 C 2.094,-0.178 1.81,-0.058 1.468,-0.025 1.318,-0.014 1.014,0 0.791,0 L 0,0 z m 0.802,-0.642 0.355,0 c 0.311,0 0.498,-0.108 0.63,-0.338 0.159,-0.266 0.193,-0.658 0.193,-1.124 0,-0.864 -0.235,-1.267 -0.754,-1.267 l -0.424,0 0,2.729 z" />
      </g>
      <g
         transform="translate(150.8623,283.3896)"
         id="g338">
        <path
           inkscape:connector-curvature="0"
           id="path340"
           style="fill:#0d528b;fill-opacity:1;fill-rule:nonzero;stroke:none"
           d="M 0,0 0.496,0 C 0.64,0 0.703,-0.005 0.799,-0.029 0.978,-0.09 1.085,-0.295 1.085,-0.517 1.085,-0.719 0.999,-0.908 0.883,-0.996 0.799,-1.065 0.682,-1.09 0.511,-1.09 L 0,-1.09 0,0 z m -0.784,2.281 0,-4.028 1.23,0 0.508,0 C 1.64,-1.697 1.98,-1.182 1.98,-0.63 1.98,-0.093 1.686,0.245 1.201,0.396 1.378,0.442 1.446,0.486 1.56,0.6 1.736,0.761 1.829,0.994 1.829,1.269 1.829,1.563 1.723,1.796 1.508,1.994 1.269,2.203 1.023,2.281 0.537,2.281 l -1.321,0 z m 0.78,-0.69 0.45,0 C 0.624,1.591 0.707,1.563 0.773,1.538 0.917,1.482 0.999,1.299 0.999,1.132 0.999,0.97 0.905,0.78 0.799,0.717 0.729,0.688 0.643,0.665 0.458,0.665 l -0.462,0 0,0.926 z" />
      </g>
      <g
         transform="translate(155.5156,285.6768)"
         id="g342">
        <path
           inkscape:connector-curvature="0"
           id="path344"
           style="fill:#0d528b;fill-opacity:1;fill-rule:nonzero;stroke:none"
           d="m 0,0 -1.287,-4.039 0.824,0 0.275,0.942 1.152,0 0.276,-0.942 0.849,0 L 0.854,0 0,0 z m 0.006,-2.418 c 0.086,0.271 0.137,0.463 0.212,0.751 0.071,0.301 0.183,0.78 0.183,0.78 0,0 0.117,-0.527 0.162,-0.71 0.079,-0.394 0.208,-0.821 0.208,-0.821 l -0.765,0 z" />
      </g>
      <g
         transform="translate(159.8877,285.6709)"
         id="g346">
        <path
           inkscape:connector-curvature="0"
           id="path348"
           style="fill:#0d528b;fill-opacity:1;fill-rule:nonzero;stroke:none"
           d="M 0,0 0.745,-1.616 C 0.952,-2.041 1.099,-2.467 1.177,-2.753 1.148,-2.439 1.121,-1.923 1.114,-1.65 L 1.099,0 l 0.749,0 0,-4.028 -0.825,0 -0.666,1.536 c -0.226,0.505 -0.456,1.072 -0.531,1.33 0.026,-0.331 0.033,-0.815 0.037,-1.149 l 0.024,-1.717 -0.762,0 0,4.028 L 0,0 z" />
      </g>
      <g
         transform="translate(163.3979,285.6709)"
         id="g350">
        <path
           inkscape:connector-curvature="0"
           id="path352"
           style="fill:#0d528b;fill-opacity:1;fill-rule:nonzero;stroke:none"
           d="m 0,0 0,-4.028 0.959,0 c 0.226,0 0.413,0 0.552,0.017 0.382,0.032 0.726,0.249 0.956,0.584 0.27,0.366 0.401,0.846 0.401,1.394 0,0.73 -0.174,1.242 -0.537,1.603 C 2.09,-0.178 1.807,-0.058 1.469,-0.025 1.306,-0.014 1.015,0 0.79,0 L 0,0 z m 0.803,-0.642 0.356,0 c 0.31,0 0.488,-0.108 0.622,-0.338 0.161,-0.266 0.196,-0.658 0.196,-1.124 0,-0.864 -0.234,-1.267 -0.755,-1.267 l -0.419,0 0,2.729 z" />
      </g>
      <g
         transform="translate(171.3237,285.6709)"
         id="g354">
        <path
           inkscape:connector-curvature="0"
           id="path356"
           style="fill:#0d528b;fill-opacity:1;fill-rule:nonzero;stroke:none"
           d="m 0,0 0.75,-1.616 c 0.197,-0.425 0.357,-0.851 0.432,-1.137 -0.03,0.314 -0.057,0.83 -0.064,1.103 L 1.107,0 l 0.742,0 0,-4.028 -0.821,0 -0.671,1.536 c -0.22,0.505 -0.459,1.072 -0.531,1.33 0.027,-0.331 0.032,-0.815 0.038,-1.149 l 0.023,-1.717 -0.762,0 0,4.028 L 0,0 z" />
      </g>
      <g
         transform="translate(177.0063,285.6709)"
         id="g358">
        <path
           inkscape:connector-curvature="0"
           id="path360"
           style="fill:#0d528b;fill-opacity:1;fill-rule:nonzero;stroke:none"
           d="m 0,0 -0.103,-0.663 -1.341,0 0,-0.931 1.129,0 0,-0.664 -1.119,0 0,-1.08 1.486,0 0,-0.69 -2.284,0 0,4.028 L 0,0 z" />
      </g>
      <g
         transform="translate(181.2207,285.6709)"
         id="g362">
        <path
           inkscape:connector-curvature="0"
           id="path364"
           style="fill:#0d528b;fill-opacity:1;fill-rule:nonzero;stroke:none"
           d="m 0,0 -0.125,-0.682 -0.937,0 0,-3.346 -0.801,0 0,3.346 -0.961,0 0,0.682 L 0,0 z" />
      </g>
      <g
         transform="translate(183.2573,285.6953)"
         id="g366">
        <path
           inkscape:connector-curvature="0"
           id="path368"
           style="fill:#0d528b;fill-opacity:1;fill-rule:nonzero;stroke:none"
           d="m 0,0 0.334,-1.585 c 0.154,-0.761 0.208,-1.333 0.208,-1.333 0.019,0.159 0.086,0.721 0.205,1.289 L 1.095,0 1.963,0 2.318,-1.808 c 0.073,-0.374 0.171,-1.068 0.171,-1.068 0.012,0.133 0.136,0.952 0.215,1.347 L 3.03,0 3.856,0 2.905,-4.076 l -0.855,0 -0.36,1.647 c -0.117,0.541 -0.166,1.058 -0.183,1.171 0,0 -0.064,-0.56 -0.184,-1.156 l -0.327,-1.662 -0.897,0 L -0.833,0 0,0 z" />
      </g>
      <g
         transform="translate(189.8242,285.7324)"
         id="g370">
        <path
           inkscape:connector-curvature="0"
           id="path372"
           style="fill:#0d528b;fill-opacity:1;fill-rule:nonzero;stroke:none"
           d="m 0,0 c -0.294,0 -0.582,-0.063 -0.814,-0.188 -0.561,-0.328 -0.883,-1.016 -0.883,-1.892 0,-0.593 0.152,-1.1 0.447,-1.485 0.301,-0.413 0.688,-0.585 1.277,-0.585 0.33,0 0.546,0.064 0.785,0.188 0.568,0.323 0.874,1.004 0.874,1.919 C 1.686,-0.784 1.042,0 0,0 m -0.016,-0.621 c 0.427,0 0.63,-0.309 0.695,-0.512 0.069,-0.225 0.098,-0.523 0.098,-0.93 0,-1.032 -0.23,-1.462 -0.777,-1.462 -0.188,0 -0.343,0.051 -0.469,0.141 -0.238,0.172 -0.349,0.612 -0.349,1.304 0,0.493 0.061,0.844 0.198,1.106 0.113,0.208 0.344,0.353 0.604,0.353" />
      </g>
      <g
         transform="translate(192.9336,285.6709)"
         id="g374">
        <path
           inkscape:connector-curvature="0"
           id="path376"
           style="fill:#0d528b;fill-opacity:1;fill-rule:nonzero;stroke:none"
           d="m 0,0 0,-4.028 0.766,0 0,1.677 c 0.053,-0.007 0.087,-0.02 0.124,-0.033 0.144,-0.068 0.263,-0.26 0.653,-0.987 0.151,-0.29 0.21,-0.391 0.366,-0.657 l 0.933,0 c 0,0 -0.721,1.275 -0.946,1.561 -0.051,0.069 -0.081,0.105 -0.164,0.168 0.483,0.013 0.875,0.516 0.875,1.114 C 2.607,-0.476 2.149,0 1.459,0 L 0,0 z m 0.766,-0.645 0.286,0 c 0.187,0 0.354,-0.037 0.446,-0.066 0.184,-0.072 0.283,-0.241 0.283,-0.496 0,-0.168 -0.058,-0.314 -0.156,-0.402 C 1.523,-1.71 1.372,-1.733 1.034,-1.733 l -0.268,0 0,1.088 z" />
      </g>
      <g
         transform="translate(198.0142,285.6709)"
         id="g378">
        <path
           inkscape:connector-curvature="0"
           id="path380"
           style="fill:#0d528b;fill-opacity:1;fill-rule:nonzero;stroke:none"
           d="M 0,0 0,-1.843 1.11,0 2.083,0 0.83,-1.867 l 1.4,-2.161 -1.045,0 -1.185,2.105 0,-2.105 -0.812,0 0,4.028 L 0,0 z" />
      </g>
      <path
         inkscape:connector-curvature="0"
         id="path382"
         style="fill:#0d528b;fill-opacity:1;fill-rule:nonzero;stroke:none"
         d="m 195.384,332.313 -2.491,0 0,-2.651 2.491,0 0,2.651 z m 1.843,-9.283 0,5.369 -6.108,0 0,-5.369 -1.366,0 0,5.369 -2.065,0 0,1.262 3.844,0 0,2.652 -3.075,0 0,1.269 3.075,0 0,2.462 1.361,0 0,-2.462 2.491,0 0,2.462 1.365,0 0,-2.462 2.968,0 0,-1.269 -2.968,0 0,-2.652 3.877,0 0,-1.262 -2.036,0 0,-5.369 -1.363,0 z" />
      <path
         inkscape:connector-curvature="0"
         id="path384"
         style="fill:#0d528b;fill-opacity:1;fill-rule:nonzero;stroke:none"
         d="m 183.088,334.762 4.495,0 0,-1.269 -4.495,0 0,1.269 z" />
      <path
         inkscape:connector-curvature="0"
         id="path386"
         style="fill:#0d528b;fill-opacity:1;fill-rule:nonzero;stroke:none"
         d="m 183.075,331.654 4.495,0 0,-1.266 -4.495,0 0,1.266 z" />
      <path
         inkscape:connector-curvature="0"
         id="path388"
         style="fill:#0d528b;fill-opacity:1;fill-rule:nonzero;stroke:none"
         d="m 195.344,326.571 -2.416,0 0,-2.282 2.416,0 0,2.282 z m -3.726,-8.085 0,9.324 0.277,0.004 4.813,0 0,-4.769 -3.78,-0.003 0,-3.284 6.708,0 0,-1.275 -8.018,0.003 z" />
      <g
         transform="translate(182.4067,318.0845)"
         id="g390">
        <path
           inkscape:connector-curvature="0"
           id="path392"
           style="fill:#0d528b;fill-opacity:1;fill-rule:nonzero;stroke:none"
           d="m 0,0 3.702,8.038 0,0.709 -2.991,0 0,1.264 4.355,0 0,-2.394 L 1.435,0 0,0 z" />
      </g>
      <g
         transform="translate(171.9277,331.2656)"
         id="g394">
        <path
           inkscape:connector-curvature="0"
           id="path396"
           style="fill:#0d528b;fill-opacity:1;fill-rule:nonzero;stroke:none"
           d="m 0,0 -0.871,0.645 -0.375,0 -6.721,-5.018 2.116,0 L 0,0 z" />
      </g>
      <g
         transform="translate(171.9277,331.2656)"
         id="g398">
        <path
           inkscape:connector-curvature="0"
           id="path400"
           style="fill:#0d528b;fill-opacity:1;fill-rule:nonzero;stroke:none"
           d="m 0,0 0.87,0.645 0.375,0 6.722,-5.018 -2.116,0 L 0,0 z" />
      </g>
    </g>
  </g>
</svg>
