<?xml version="1.0" encoding="utf-8"?>
<!-- Generator: Adobe Illustrator 21.1.0, SVG Export Plug-In . SVG Version: 6.00 Build 0)  -->
<svg version="1.1" id="图层_1" xmlns="http://www.w3.org/2000/svg" xmlns:xlink="http://www.w3.org/1999/xlink" x="0px" y="0px"
	 viewBox="0 0 750 200" style="enable-background:new 0 0 750 200;" xml:space="preserve">
<style type="text/css">
	.st0{fill:#25316A;}
	.st1{fill:url(#SVGID_1_);}
	.st2{fill:#5B5C87;}
</style>
<g>
	<g>
		<path class="st0" d="M255.8,121.5l-17-30.3h-9.7v30.3h-21.5V35.7h37.5c8.6,0,15.2,1.8,20.5,5.8c6.6,4.8,10.1,12.7,10.1,21.3
			c0,10.5-5,20.6-16.3,25.2l19.7,33.5H255.8z M242.3,52.6H229v22.7h13.4c7.7,0,12.5-4.5,12.5-11.4C254.9,55.9,249.5,52.6,242.3,52.6
			z"/>
		<path class="st0" d="M289,121.5V35.7h21.5v85.8H289z"/>
		<path class="st0" d="M364.4,91.7h-17.9v29.7h-21.4V35.7h38.7c19,0,30.1,11.7,30.1,27.5C393.9,77.4,385.3,91.7,364.4,91.7z
			 M360.5,52.6h-13.8v22.7h13.8c7.4,0,12.5-3.9,12.5-11.6C373,56.3,368.2,52.6,360.5,52.6z"/>
		<path class="st0" d="M404.7,121.5V35.7h63.1v17.4h-41.7v16.4h35.1v17.3h-35.1v17.1h41.9v17.5H404.7z"/>
		<path class="st0" d="M565.2,121.5l-33.6-50.4h-0.2v50.4h-19.9V35.7h20.9L565,84.2h0.2V35.7h20v85.8H565.2z"/>
		<path class="st0" d="M634.1,123c-18.9,0-36.6-9.5-36.6-30.9V66c0-21.1,17.1-31.7,35.9-31.7c16.7,0,34.9,8.5,34.9,28.2V68h-20.2
			v-3.4c0-8.9-7.6-12.7-14.2-12.7c-7.6,0-14.9,4-14.9,13.7v26c0,8.8,6.4,13.8,15.2,13.8c6.6,0,13.9-3.7,13.9-12.7v-3.5h20.2v5.8
			C668.3,114.5,650.7,123,634.1,123z"/>
		<path class="st0" d="M714.8,123c-18.9,0-36.6-9.5-36.6-30.9V66c0-21.1,17.1-31.7,35.9-31.7c16.7,0,34.9,8.5,34.9,28.2V68h-20.2
			v-3.4c0-8.9-7.6-12.7-14.2-12.7c-7.6,0-14.9,4-14.9,13.7v26c0,8.8,6.4,13.8,15.2,13.8c6.6,0,13.9-3.7,13.9-12.7v-3.2H749v5.5
			C749.1,114.5,731.3,123,714.8,123z"/>
	</g>
</g>
<linearGradient id="SVGID_1_" gradientUnits="userSpaceOnUse" x1="24.4285" y1="14.2903" x2="156.441" y2="146.3028" gradientTransform="matrix(1 0 0 -1 0 202)">
	<stop  offset="0" style="stop-color:#25316A"/>
	<stop  offset="6.051821e-02" style="stop-color:#293269"/>
	<stop  offset="0.1216" style="stop-color:#343468"/>
	<stop  offset="0.183" style="stop-color:#453764"/>
	<stop  offset="0.2446" style="stop-color:#5B3C60"/>
	<stop  offset="0.3064" style="stop-color:#764459"/>
	<stop  offset="0.3684" style="stop-color:#964D4F"/>
	<stop  offset="0.4293" style="stop-color:#BF5A3D"/>
	<stop  offset="0.4872" style="stop-color:#F36C21"/>
	<stop  offset="1" style="stop-color:#9C9C9C"/>
</linearGradient>
<path class="st1" d="M136.8,85.9L136.8,85.9V36L90.4,9.3L44.1,36v49.9V86L1,110.8v53.5L47.3,191l43.1-24.9l43.1,24.9l46.3-26.7
	v-53.5L136.8,85.9z M90.4,108.9L53.6,87.6l36.8-21.3l36.8,21.3L90.4,108.9z M50.4,93.1l36.8,21.3v42.5l-36.8-21.3L50.4,93.1z
	 M93.5,114.4l36.8-21.3v42.5l-36.8,21.2V114.4z M50.4,39.7l40-23.1l40,23.1v42.5L90.4,59l-40,23.1L50.4,39.7z M7.3,160.5v-46.2
	L44.1,93v46.1l40,23.1l-36.9,21.3L7.3,160.5z M173.6,160.5l-40,23.1l-36.9-21.3l40-23.1V93.1l36.8,21.3L173.6,160.5z"/>
<g>
	<path class="st2" d="M211.1,155.8v8.5h-2.4v-20.4h5.6c2.5,0,4.4,0.4,5.6,1.4c1.2,1,1.8,2.4,1.8,4.4c0,2.7-1.4,4.5-4.1,5.5l5.6,9.2
		h-2.9l-4.9-8.5H211.1z M211.1,153.8h3.2c1.7,0,2.9-0.3,3.7-1c0.9-0.6,1.2-1.7,1.2-3c0-1.4-0.4-2.4-1.2-2.9c-0.7-0.5-2-0.9-3.9-0.9
		h-3.1V153.8z"/>
	<path class="st2" d="M226.5,164.3v-20.4h2.4v20.4H226.5z"/>
	<path class="st2" d="M247.6,149.8c0,2-0.7,3.6-2.1,4.8c-1.4,1.1-3.4,1.7-6.1,1.7H237v8h-2.4V144h5.3
		C245,143.8,247.6,145.9,247.6,149.8z M237,154.2h2.1c2.1,0,3.6-0.3,4.6-1.1c1-0.6,1.4-1.8,1.4-3.3c0-1.4-0.4-2.4-1.3-3
		c-0.9-0.6-2.2-1-4.2-1H237L237,154.2L237,154.2z"/>
	<path class="st2" d="M263.3,164.3h-11.4v-20.4h11.4v2.1h-9v6.6h8.5v2.1h-8.5v7.5h9V164.3z"/>
	<path class="st2" d="M291.4,164.3h-2.7l-11.1-17.1h-0.1c0.1,2,0.2,3.9,0.2,5.6v11.6h-2.2v-20.4h2.7l11.1,17.1h0.1
		c0-0.2-0.1-1.1-0.1-2.5c-0.1-1.4-0.1-2.4-0.1-2.9v-11.8h2.2V164.3z"/>
	<path class="st2" d="M308.6,164.3h-11.4v-20.4h11.4v2.1h-9.1v6.6h8.5v2.1h-8.5v7.5h9v2H308.6z"/>
	<path class="st2" d="M319.5,164.3h-2.4V146h-6.5v-2.1h15.3v2.1h-6.5v18.3H319.5z"/>
	<path class="st2" d="M347,164.3h-2.4l-4.2-13.7c-0.2-0.6-0.4-1.4-0.6-2.2c-0.2-0.9-0.3-1.5-0.4-1.7c-0.2,1.3-0.5,2.6-1,4.1l-4,13.6
		h-2.4l-5.5-20.4h2.6l3.2,12.6c0.4,1.8,0.7,3.4,1,4.8c0.2-1.7,0.6-3.4,1.1-5l3.6-12.4h2.6l3.9,12.5c0.4,1.5,0.9,3.1,1.2,4.9
		c0.2-1.3,0.5-2.9,1-4.8l3.2-12.6h2.6L347,164.3z"/>
	<path class="st2" d="M373.4,154c0,3.3-0.9,5.9-2.5,7.7c-1.6,1.9-4,2.8-7,2.8c-3,0-5.3-1-7-2.8c-1.6-1.8-2.5-4.5-2.5-7.8
		c0-3.3,0.9-5.9,2.5-7.7c1.6-1.8,4-2.8,7-2.8c2.9,0,5.2,1,6.8,2.8C372.6,148.2,373.4,150.8,373.4,154z M357.1,154
		c0,2.8,0.6,4.9,1.8,6.3c1.2,1.4,2.9,2.1,5.1,2.1c2.2,0,4-0.7,5.1-2.1c1.2-1.4,1.7-3.5,1.7-6.3c0-2.8-0.5-4.8-1.7-6.2
		c-1.2-1.4-2.9-2.1-5.1-2.1c-2.2,0-4,0.7-5.1,2.1S357.1,151.3,357.1,154z"/>
	<path class="st2" d="M380.5,155.8v8.5h-2.4v-20.4h5.6c2.5,0,4.4,0.4,5.6,1.4c1.2,1,1.8,2.4,1.8,4.4c0,2.7-1.4,4.5-4.1,5.5l5.6,9.2
		h-2.8l-4.9-8.5H380.5z M380.5,153.8h3.2c1.7,0,2.9-0.3,3.7-1c0.9-0.6,1.2-1.7,1.2-3c0-1.4-0.4-2.4-1.2-2.9c-0.7-0.6-2-0.9-3.9-0.9
		h-3.1V153.8z"/>
	<path class="st2" d="M410.6,164.3h-2.8l-7.5-9.9l-2.1,1.9v8h-2.4v-20.4h2.4V154l9.3-10.2h2.8l-8.2,8.9L410.6,164.3z"/>
	<path class="st2" d="M429.8,145.7c-2.2,0-4.1,0.7-5.3,2.2c-1.3,1.5-1.9,3.5-1.9,6.1c0,2.7,0.6,4.7,1.9,6.2c1.3,1.5,3,2.1,5.3,2.1
		c1.4,0,3.1-0.2,4.9-0.7v2c-1.4,0.5-3.2,0.7-5.2,0.7c-3,0-5.3-1-7-2.8c-1.6-1.8-2.5-4.4-2.5-7.8c0-2.1,0.4-4,1.2-5.6
		s1.9-2.8,3.4-3.6c1.5-0.9,3.2-1.3,5.2-1.3c2.1,0,4.1,0.4,5.7,1.2l-1,2C432.9,146.1,431.4,145.7,429.8,145.7z"/>
	<path class="st2" d="M456.9,154c0,3.3-0.9,5.9-2.5,7.7c-1.6,1.9-4,2.8-7,2.8c-3,0-5.3-1-7-2.8c-1.6-1.8-2.5-4.5-2.5-7.8
		c0-3.3,0.9-5.9,2.5-7.7c1.6-1.8,4-2.8,7-2.8c2.9,0,5.2,1,6.8,2.8C456.1,148.2,456.9,150.8,456.9,154z M440.7,154
		c0,2.8,0.6,4.9,1.8,6.3c1.2,1.4,2.9,2.1,5.1,2.1c2.2,0,4-0.7,5.1-2.1c1.2-1.4,1.7-3.5,1.7-6.3c0-2.8-0.5-4.8-1.7-6.2
		c-1.2-1.4-2.9-2.1-5.1-2.1c-2.2,0-4,0.7-5.1,2.1C441.2,149.2,440.7,151.3,440.7,154z"/>
	<path class="st2" d="M479.3,154c0,3.3-0.9,5.9-2.5,7.7c-1.6,1.9-4,2.8-7,2.8c-3,0-5.3-1-7-2.8c-1.6-1.8-2.5-4.5-2.5-7.8
		c0-3.3,0.9-5.9,2.5-7.7c1.6-1.8,4-2.8,7-2.8c2.9,0,5.2,1,6.8,2.8C478.6,148.2,479.3,150.8,479.3,154z M463,154
		c0,2.8,0.6,4.9,1.8,6.3c1.2,1.4,2.9,2.1,5.1,2.1c2.2,0,4-0.7,5.1-2.1s1.7-3.5,1.7-6.3c0-2.8-0.5-4.8-1.7-6.2
		c-1.2-1.4-2.9-2.1-5.1-2.1c-2.2,0-4,0.7-5.1,2.1S463,151.3,463,154z"/>
	<path class="st2" d="M486.4,155.8v8.5H484v-20.4h5.6c2.5,0,4.4,0.4,5.6,1.4c1.2,1,1.8,2.4,1.8,4.4c0,2.7-1.4,4.5-4.1,5.5l5.6,9.2
		h-2.8l-4.9-8.5H486.4z M486.4,153.8h3.2c1.7,0,2.9-0.3,3.7-1c0.9-0.6,1.2-1.7,1.2-3c0-1.4-0.4-2.4-1.2-2.9c-0.7-0.5-2-0.9-3.9-0.9
		h-3.1V153.8z"/>
	<path class="st2" d="M518.1,153.9c0,3.4-1,6-2.8,7.7c-1.8,1.8-4.5,2.7-7.9,2.7h-5.7v-20.4h6.3c3.2,0,5.7,0.9,7.4,2.7
		C517.2,148.2,518.1,150.7,518.1,153.9z M515.6,154c0-2.7-0.6-4.7-2-6c-1.3-1.4-3.3-2-6-2h-3.4v16.4h2.9c2.8,0,4.9-0.7,6.4-2.1
		C514.8,158.7,515.6,156.7,515.6,154z"/>
	<path class="st2" d="M522.7,164.3v-20.4h2.4v20.4H522.7z"/>
	<path class="st2" d="M546.8,164.3h-2.7L533,147.2h-0.1c0.1,2,0.2,3.9,0.2,5.6v11.6h-2.2v-20.4h2.7l11.1,17.1h0.1
		c0-0.2-0.1-1.1-0.1-2.5c-0.1-1.4-0.1-2.4-0.1-2.9v-11.8h2.2L546.8,164.3L546.8,164.3z"/>
	<path class="st2" d="M565.3,164.3l-2.6-6.5h-8.2l-2.6,6.5h-2.4l8.1-20.5h2l8,20.5H565.3z M562,155.6l-2.4-6.3c-0.3-0.9-0.6-1.8-1-3
		c-0.2,0.9-0.5,1.9-0.9,3l-2.4,6.3H562z"/>
	<path class="st2" d="M577,164.3h-2.4V146h-6.5v-2.1h15.3v2.1h-6.5v18.3H577z"/>
	<path class="st2" d="M586.6,164.3v-20.4h2.4v20.4H586.6z"/>
	<path class="st2" d="M612.4,154c0,3.3-0.9,5.9-2.5,7.7c-1.6,1.9-4,2.8-7,2.8s-5.3-1-7-2.8c-1.6-1.8-2.5-4.5-2.5-7.8
		c0-3.3,0.9-5.9,2.5-7.7c1.6-1.8,4-2.8,7-2.8c2.9,0,5.2,1,6.8,2.8C611.6,148.2,612.4,150.8,612.4,154z M596.1,154
		c0,2.8,0.6,4.9,1.8,6.3c1.2,1.4,2.9,2.1,5.1,2.1c2.2,0,4-0.7,5.1-2.1s1.7-3.5,1.7-6.3c0-2.8-0.5-4.8-1.7-6.2s-2.9-2.1-5.1-2.1
		c-2.2,0-4,0.7-5.1,2.1C596.8,149.2,596.1,151.3,596.1,154z"/>
	<path class="st2" d="M633,164.3h-2.7l-11.1-17.1h-0.1c0.1,2,0.2,3.9,0.2,5.6v11.6h-2.2v-20.4h2.7l11.1,17.1h0.1
		c0-0.2-0.1-1.1-0.1-2.5c-0.1-1.4-0.1-2.4-0.1-2.9v-11.8h2.2L633,164.3L633,164.3z"/>
	<path class="st2" d="M655.1,145.7c-2.2,0-4.1,0.7-5.3,2.2c-1.3,1.5-1.9,3.5-1.9,6.1c0,2.7,0.6,4.7,1.9,6.2c1.3,1.5,3,2.1,5.3,2.1
		c1.4,0,3.1-0.2,4.9-0.7v2c-1.4,0.5-3.2,0.7-5.2,0.7c-3,0-5.3-1-7-2.8c-1.6-1.8-2.5-4.4-2.5-7.8c0-2.1,0.4-4,1.2-5.6
		c0.7-1.6,1.9-2.8,3.4-3.6c1.5-0.9,3.2-1.3,5.2-1.3c2.1,0,4.1,0.4,5.7,1.2l-1,2C658.2,146.1,656.6,145.7,655.1,145.7z"/>
	<path class="st2" d="M675.8,164.3h-11.4v-20.4h11.4v2.1h-9v6.6h8.5v2.1h-8.5v7.5h9V164.3z"/>
	<path class="st2" d="M696.5,164.3h-2.7l-11.1-17.1h-0.2c0.1,2,0.2,3.9,0.2,5.6v11.6h-2.2v-20.4h2.7l11.1,17.1h0.1
		c0-0.2-0.1-1.1-0.1-2.5c-0.1-1.4-0.1-2.4-0.1-2.9v-11.8h2.2v20.4H696.5z"/>
	<path class="st2" d="M708.5,164.3H706V146h-6.4v-2.1h15.3v2.1h-6.5v18.3H708.5z"/>
	<path class="st2" d="M720.4,155.8v8.5h-2.4v-20.4h5.6c2.5,0,4.4,0.4,5.6,1.4c1.2,1,1.8,2.4,1.8,4.4c0,2.7-1.4,4.5-4.1,5.5l5.6,9.2
		h-2.8l-4.9-8.5H720.4z M720.4,153.8h3.2c1.7,0,2.9-0.3,3.7-1c0.9-0.6,1.2-1.7,1.2-3c0-1.4-0.4-2.4-1.2-2.9c-0.7-0.5-2-0.9-3.9-0.9
		h-3.1V153.8z"/>
	<path class="st2" d="M747.3,164.3h-11.4v-20.4h11.4v2.1h-9v6.6h8.5v2.1h-8.5v7.5h9V164.3z"/>
</g>
</svg>
