<svg id="Layer_1" xmlns="http://www.w3.org/2000/svg" xmlns:xlink="http://www.w3.org/1999/xlink" viewBox="0 0 1575.1 600"><style>.st0{clip-path:url(#SVGID_2_)}.st1{clip-path:url(#SVGID_4_);fill:#dae4ea}.st2{fill:none;stroke:#dae4ea;stroke-miterlimit:10}.st3{clip-path:url(#SVGID_6_)}.st4{clip-path:url(#SVGID_8_);fill:#dae4ea}.st5{fill:none;stroke:#dae4ea;stroke-linejoin:round;stroke-miterlimit:10}.st6{clip-path:url(#SVGID_10_)}.st7{clip-path:url(#SVGID_12_);fill:#dae4ea}.st8{clip-path:url(#SVGID_14_)}.st9{clip-path:url(#SVGID_16_);fill:#dae4ea}.st10{clip-path:url(#SVGID_18_)}.st11{clip-path:url(#SVGID_20_);fill:#dae4ea}.st12{clip-path:url(#SVGID_22_)}.st13{clip-path:url(#SVGID_24_);fill:#dae4ea}.st14{clip-path:url(#SVGID_26_)}.st15{clip-path:url(#SVGID_28_);fill:#dae4ea}.st16{clip-path:url(#SVGID_30_)}.st17{clip-path:url(#SVGID_32_);fill:#dae4ea}.st18{clip-path:url(#SVGID_34_)}.st19{clip-path:url(#SVGID_36_);fill:#dae4ea}.st20{clip-path:url(#SVGID_38_)}.st21{clip-path:url(#SVGID_40_);fill:#dae4ea}.st22{clip-path:url(#SVGID_42_)}.st23{clip-path:url(#SVGID_44_);fill:#dae4ea}.st24{clip-path:url(#SVGID_46_)}.st25{clip-path:url(#SVGID_48_);fill:#dae4ea}.st26{clip-path:url(#SVGID_50_)}.st27{clip-path:url(#SVGID_52_);fill:#dae4ea}.st28{clip-path:url(#SVGID_54_)}.st29{clip-path:url(#SVGID_56_);fill:#dae4ea}.st30{fill:none;stroke:#dae4ea;stroke-width:1;stroke-miterlimit:10}.st31{clip-path:url(#SVGID_58_)}.st32{clip-path:url(#SVGID_60_);fill:#dae4ea}.st33{fill:none;stroke:#dae4ea;stroke-width:1;stroke-linejoin:round;stroke-miterlimit:10}.st34{clip-path:url(#SVGID_62_)}.st35{clip-path:url(#SVGID_64_);fill:#dae4ea}.st36{clip-path:url(#SVGID_66_)}.st37{clip-path:url(#SVGID_68_);fill:#dae4ea}</style><defs><path id="SVGID_1_" d="M997.8 330.9c-1.6-.9-2.2-2.9-1.3-4.5.9-1.6 2.9-2.2 4.5-1.3 1.6.9 2.2 2.9 1.3 4.5-.8 1.6-2.9 2.2-4.5 1.3"/></defs><clipPath id="SVGID_2_"><use xlink:href="#SVGID_1_" overflow="visible"/></clipPath><g class="st0"><defs><path id="SVGID_3_" d="M87.6-50h1400v3438H87.6z"/></defs><clipPath id="SVGID_4_"><use xlink:href="#SVGID_3_" overflow="visible"/></clipPath><path class="st1" d="M990.17 320.916l16.438-2.31 2.31 16.438-16.438 2.31z"/></g><ellipse transform="rotate(-60.81 999.52 327.97)" class="st2" cx="999.5" cy="328" rx="3.3" ry="3.3"/><defs><path id="SVGID_5_" d="M1145.3 443.7c-1.6-.9-2.2-2.9-1.3-4.5.9-1.6 2.9-2.2 4.5-1.3 1.6.9 2.2 2.9 1.3 4.5-.9 1.6-2.9 2.2-4.5 1.3"/></defs><clipPath id="SVGID_6_"><use xlink:href="#SVGID_5_" overflow="visible"/></clipPath><g class="st3"><defs><path id="SVGID_7_" d="M87.6-50h1400v3438H87.6z"/></defs><clipPath id="SVGID_8_"><use xlink:href="#SVGID_7_" overflow="visible"/></clipPath><path class="st4" d="M1137.578 433.72l16.44-2.31 2.31 16.44-16.44 2.31z"/></g><ellipse transform="rotate(-60.81 1147.014 440.78)" class="st2" cx="1146.9" cy="440.8" rx="3.3" ry="3.3"/><path class="st5" d="M1146.9 440.8L999.5 328m-762.1-5l155.7-201.2 42.5 150.3z"/><defs><path id="SVGID_9_" d="M234.1 323c0-1.8 1.5-3.3 3.3-3.3 1.8 0 3.3 1.5 3.3 3.3 0 1.8-1.5 3.3-3.3 3.3-1.9.1-3.3-1.4-3.3-3.3"/></defs><clipPath id="SVGID_10_"><use xlink:href="#SVGID_9_" overflow="visible"/></clipPath><g class="st6"><defs><path id="SVGID_11_" d="M87.6-50h1400v3438H87.6z"/></defs><clipPath id="SVGID_12_"><use xlink:href="#SVGID_11_" overflow="visible"/></clipPath><path class="st7" d="M229.1 314.7h16.6v16.6h-16.6z"/></g><circle class="st2" cx="237.4" cy="323" r="3.3"/><defs><path id="SVGID_13_" d="M432.3 272.1c0-1.8 1.5-3.3 3.3-3.3 1.8 0 3.3 1.5 3.3 3.3 0 1.8-1.5 3.3-3.3 3.3-1.8.1-3.3-1.4-3.3-3.3"/></defs><clipPath id="SVGID_14_"><use xlink:href="#SVGID_13_" overflow="visible"/></clipPath><g class="st8"><defs><path id="SVGID_15_" d="M87.6-50h1400v3438H87.6z"/></defs><clipPath id="SVGID_16_"><use xlink:href="#SVGID_15_" overflow="visible"/></clipPath><path class="st9" d="M427.3 263.8h16.6v16.6h-16.6z"/></g><circle class="st2" cx="435.6" cy="272.1" r="3.3"/><defs><path id="SVGID_17_" d="M389.7 121.8c0-1.8 1.5-3.3 3.3-3.3 1.8 0 3.3 1.5 3.3 3.3s-1.5 3.3-3.3 3.3c-1.8 0-3.3-1.5-3.3-3.3"/></defs><clipPath id="SVGID_18_"><use xlink:href="#SVGID_17_" overflow="visible"/></clipPath><g class="st10"><defs><path id="SVGID_19_" d="M87.6-50h1400v3438H87.6z"/></defs><clipPath id="SVGID_20_"><use xlink:href="#SVGID_19_" overflow="visible"/></clipPath><path class="st11" d="M384.7 113.5h16.6v16.6h-16.6z"/></g><circle class="st2" cx="393.1" cy="121.8" r="3.3"/><path class="st5" d="M467.8 405.4l45.5-69-89.6 40.2z"/><defs><path id="SVGID_21_" d="M464.4 405.4c0-1.8 1.5-3.3 3.3-3.3 1.8 0 3.3 1.5 3.3 3.3 0 1.8-1.5 3.3-3.3 3.3-1.8 0-3.3-1.5-3.3-3.3"/></defs><clipPath id="SVGID_22_"><use xlink:href="#SVGID_21_" overflow="visible"/></clipPath><g class="st12"><defs><path id="SVGID_23_" d="M87.6-50h1400v3438H87.6z"/></defs><clipPath id="SVGID_24_"><use xlink:href="#SVGID_23_" overflow="visible"/></clipPath><path class="st13" d="M459.4 397.1H476v16.6h-16.6z"/></g><circle class="st2" cx="467.8" cy="405.4" r="3.3"/><defs><path id="SVGID_25_" d="M624 405.4c0-1.8 1.5-3.3 3.3-3.3 1.8 0 3.3 1.5 3.3 3.3 0 1.8-1.5 3.3-3.3 3.3-1.8 0-3.3-1.5-3.3-3.3"/></defs><clipPath id="SVGID_26_"><use xlink:href="#SVGID_25_" overflow="visible"/></clipPath><g class="st14"><defs><path id="SVGID_27_" d="M87.6-50h1400v3438H87.6z"/></defs><clipPath id="SVGID_28_"><use xlink:href="#SVGID_27_" overflow="visible"/></clipPath><path class="st15" d="M619 397.1h16.6v16.6H619z"/></g><circle class="st2" cx="627.3" cy="405.4" r="3.3"/><defs><path id="SVGID_29_" d="M420.3 376.5c0-1.8 1.5-3.3 3.3-3.3 1.8 0 3.3 1.5 3.3 3.3s-1.5 3.3-3.3 3.3c-1.8.1-3.3-1.4-3.3-3.3"/></defs><clipPath id="SVGID_30_"><use xlink:href="#SVGID_29_" overflow="visible"/></clipPath><g class="st16"><defs><path id="SVGID_31_" d="M87.6-50h1400v3438H87.6z"/></defs><clipPath id="SVGID_32_"><use xlink:href="#SVGID_31_" overflow="visible"/></clipPath><path class="st17" d="M415.3 368.2h16.6v16.6h-16.6z"/></g><circle class="st2" cx="423.7" cy="376.5" r="3.3"/><defs><path id="SVGID_33_" d="M510 336.4c0-1.8 1.5-3.3 3.3-3.3 1.8 0 3.3 1.5 3.3 3.3s-1.5 3.3-3.3 3.3c-1.8 0-3.3-1.5-3.3-3.3"/></defs><clipPath id="SVGID_34_"><use xlink:href="#SVGID_33_" overflow="visible"/></clipPath><g class="st18"><defs><path id="SVGID_35_" d="M87.6-50h1400v3438H87.6z"/></defs><clipPath id="SVGID_36_"><use xlink:href="#SVGID_35_" overflow="visible"/></clipPath><path class="st19" d="M505 328.1h16.6v16.6H505z"/></g><circle class="st2" cx="513.3" cy="336.4" r="3.3"/><path class="st5" d="M423.7 376.5L237.4 323m230.4 82.4l-32.2-133.3m77.7 64.3l114 69m738.1-34.4l95.7-111.2 42.5 150.4z"/><defs><path id="SVGID_37_" d="M1362.1 371c0-1.8 1.5-3.3 3.3-3.3 1.8 0 3.3 1.5 3.3 3.3s-1.5 3.3-3.3 3.3c-1.9.1-3.3-1.4-3.3-3.3"/></defs><clipPath id="SVGID_38_"><use xlink:href="#SVGID_37_" overflow="visible"/></clipPath><g class="st20"><defs><path id="SVGID_39_" d="M87.6-50h1400v3438H87.6z"/></defs><clipPath id="SVGID_40_"><use xlink:href="#SVGID_39_" overflow="visible"/></clipPath><path class="st21" d="M1357.1 362.7h16.6v16.6h-16.6z"/></g><circle class="st2" cx="1365.4" cy="371" r="3.3"/><defs><path id="SVGID_41_" d="M1457.7 259.8c0-1.8 1.5-3.3 3.3-3.3 1.8 0 3.3 1.5 3.3 3.3s-1.5 3.3-3.3 3.3c-1.8 0-3.3-1.5-3.3-3.3"/></defs><clipPath id="SVGID_42_"><use xlink:href="#SVGID_41_" overflow="visible"/></clipPath><g class="st22"><defs><path id="SVGID_43_" d="M87.6-50h1400v3438H87.6z"/></defs><clipPath id="SVGID_44_"><use xlink:href="#SVGID_43_" overflow="visible"/></clipPath><path class="st23" d="M1452.7 251.5h16.6v16.6h-16.6z"/></g><circle class="st2" cx="1461.1" cy="259.8" r="3.3"/><defs><path id="SVGID_45_" d="M1431.2 443.6c0-1.8 1.5-3.3 3.3-3.3 1.8 0 3.3 1.5 3.3 3.3s-1.5 3.3-3.3 3.3c-1.8 0-3.3-1.5-3.3-3.3"/></defs><clipPath id="SVGID_46_"><use xlink:href="#SVGID_45_" overflow="visible"/></clipPath><g class="st24"><defs><path id="SVGID_47_" d="M87.6-50h1400v3438H87.6z"/></defs><clipPath id="SVGID_48_"><use xlink:href="#SVGID_47_" overflow="visible"/></clipPath><path class="st25" d="M1426.2 435.3h16.6v16.6h-16.6z"/></g><circle class="st2" cx="1434.5" cy="443.6" r="3.3"/><defs><path id="SVGID_49_" d="M1500.3 410.2c0-1.8 1.5-3.3 3.3-3.3 1.8 0 3.3 1.5 3.3 3.3s-1.5 3.3-3.3 3.3c-1.8 0-3.3-1.5-3.3-3.3"/></defs><clipPath id="SVGID_50_"><use xlink:href="#SVGID_49_" overflow="visible"/></clipPath><g class="st26"><defs><path id="SVGID_51_" d="M156.7-83.4h1400v3438h-1400z"/></defs><clipPath id="SVGID_52_"><use xlink:href="#SVGID_51_" overflow="visible"/></clipPath><path class="st27" d="M1495.3 401.8h16.6v16.6h-16.6z"/></g><circle class="st2" cx="1503.6" cy="410.2" r="3.3"/><path class="st5" d="M1365.4 371l69.1 72.6 69.1-33.4zm69.1 72.6l26.6-183.8"/><defs><path id="SVGID_53_" d="M185.6 421.7c1.3-1.3 3.4-1.2 4.7.1 1.3 1.3 1.2 3.4-.1 4.7-1.3 1.3-3.4 1.2-4.7-.1-1.2-1.3-1.2-3.4.1-4.7"/></defs><clipPath id="SVGID_54_"><use xlink:href="#SVGID_53_" overflow="visible"/></clipPath><g class="st28"><defs><path id="SVGID_55_" d="M87.6-50h1400v3438H87.6z"/></defs><clipPath id="SVGID_56_"><use xlink:href="#SVGID_55_" overflow="visible"/></clipPath><path class="st29" d="M178.425 430.976l2.597-16.396 16.395 2.597-2.596 16.396z"/></g><ellipse transform="rotate(-43.813 187.91 424.09)" class="st30" cx="187.9" cy="424.1" rx="3.3" ry="3.3"/><defs><path id="SVGID_57_" d="M34.6 529.7c1.3-1.3 3.4-1.2 4.7.1 1.3 1.3 1.2 3.4-.1 4.7-1.3 1.3-3.4 1.2-4.7-.1-1.2-1.3-1.2-3.4.1-4.7"/></defs><clipPath id="SVGID_58_"><use xlink:href="#SVGID_57_" overflow="visible"/></clipPath><g class="st31"><defs><path id="SVGID_59_" d="M-63.4 58.1h1400v3438h-1400z"/></defs><clipPath id="SVGID_60_"><use xlink:href="#SVGID_59_" overflow="visible"/></clipPath><path class="st32" d="M27.385 539.02l2.596-16.396 16.397 2.597-2.596 16.396z"/></g><ellipse transform="rotate(-43.813 36.91 532.142)" class="st30" cx="36.9" cy="532.1" rx="3.3" ry="3.3"/><path class="st33" d="M36.9 532.1l151-108"/><defs><path id="SVGID_61_" d="M1319.4 111.8c1.3-1.3 3.4-1.3 4.7-.1 1.3 1.3 1.3 3.4.1 4.7-1.3 1.3-3.4 1.3-4.7.1-1.4-1.3-1.4-3.4-.1-4.7"/></defs><clipPath id="SVGID_62_"><use xlink:href="#SVGID_61_" overflow="visible"/></clipPath><g class="st34"><defs><path id="SVGID_63_" d="M87.6-50h1400v3438H87.6z"/></defs><clipPath id="SVGID_64_"><use xlink:href="#SVGID_63_" overflow="visible"/></clipPath><path class="st35" d="M1312.47 121.446l2.023-16.475 16.476 2.024-2.025 16.476z"/></g><defs><path id="SVGID_65_" d="M1172.2 225.1c1.3-1.3 3.4-1.3 4.7-.1 1.3 1.3 1.3 3.4.1 4.7-1.3 1.3-3.4 1.3-4.7.1-1.3-1.3-1.3-3.4-.1-4.7"/></defs><clipPath id="SVGID_66_"><use xlink:href="#SVGID_65_" overflow="visible"/></clipPath><g class="st36"><defs><path id="SVGID_67_" d="M87.6-50h1400v3438H87.6z"/></defs><clipPath id="SVGID_68_"><use xlink:href="#SVGID_67_" overflow="visible"/></clipPath><path class="st37" d="M1165.38 234.667l2.023-16.475 16.475 2.023-2.023 16.476z"/></g><ellipse transform="rotate(-45.813 1174.59 227.35)" class="st2" cx="1174.6" cy="227.4" rx="3.3" ry="3.3"/><path class="st5" d="M1174.6 227.4l147.1-113.3"/></svg>