<svg id="Layer_1" xmlns="http://www.w3.org/2000/svg" viewBox="0 0 377.1 221.3"><style>.st0{fill:none;stroke:url(#SVGID_1_);stroke-width:2.5;stroke-miterlimit:10}.st1{opacity:.5;fill:url(#SVGID_2_)}.st2{fill:#fff;stroke:url(#SVGID_3_);stroke-width:2;stroke-miterlimit:10}.st3{fill:url(#SVGID_4_)}.st4{fill:url(#SVGID_5_)}.st5{fill:none;stroke:url(#SVGID_6_);stroke-width:2;stroke-linecap:round;stroke-miterlimit:10;stroke-dasharray:0,4}.st6{fill:url(#SVGID_7_)}.st7{fill:none;stroke:url(#SVGID_8_);stroke-width:2.5;stroke-linecap:round;stroke-miterlimit:10}.st8{fill:url(#SVGID_9_)}.st9{fill:url(#SVGID_10_)}.st10{fill:url(#SVGID_11_)}.st11{fill:url(#SVGID_12_)}.st12{fill:url(#SVGID_13_)}.st13{fill:none;stroke-width:2;stroke-linecap:round}.st13,.st14,.st15{stroke:#0080ff;stroke-miterlimit:10}.st14{stroke-dasharray:0,4.9355}.st14,.st15,.st16,.st17{fill:none;stroke-width:2;stroke-linecap:round}.st15{stroke-dasharray:0,5.0886}.st16,.st17{stroke-miterlimit:10}.st16{stroke:#0080ff;stroke-dasharray:0,4.8726}.st17{stroke-dasharray:0,4.6169}.st17,.st18,.st19{stroke:#0080ff}.st18,.st19,.st20{stroke-miterlimit:10}.st18{stroke-linecap:round;stroke-dasharray:0,4.9569;fill:none;stroke-width:2}.st19,.st20{fill:#fff;stroke-width:2.5}.st20{stroke:url(#SVGID_14_);stroke-linecap:round}.st21{fill:url(#SVGID_15_)}.st22,.st23{fill:none;stroke:#0080ff;stroke-width:2;stroke-linecap:round;stroke-miterlimit:10;stroke-dasharray:0,4.5176}.st23{stroke-dasharray:0,4.9835}</style><linearGradient id="SVGID_1_" gradientUnits="userSpaceOnUse" x1="37.467" y1="110.804" x2="362.961" y2="110.804"><stop offset="0" stop-color="#005DFF" stop-opacity=".15"/><stop offset=".436" stop-color="#0068FF" stop-opacity=".085"/><stop offset="1" stop-color="#0072FF" stop-opacity="0"/></linearGradient><path fill="url(#SVGID_1_)" d="M37.5 14.6H363V207H37.5z"/><linearGradient id="SVGID_2_" gradientUnits="userSpaceOnUse" x1="23.878" y1="110.804" x2="377.137" y2="110.804"><stop offset=".151" stop-color="#0080FF"/><stop offset="1" stop-color="#00D688"/></linearGradient><path fill="none" stroke="url(#SVGID_2_)" stroke-width="2.5" stroke-linecap="round" stroke-miterlimit="10" d="M25.1 1.7h350.8V220H25.1z"/><linearGradient id="SVGID_3_" gradientUnits="userSpaceOnUse" x1="3308.934" y1="-2615.488" x2="3370.207" y2="-2615.488" gradientTransform="rotate(-90 3161.446 324.644)"><stop offset="0" stop-color="#0069FF" stop-opacity=".5"/><stop offset=".215" stop-color="#0069FF" stop-opacity=".3"/><stop offset="1" stop-color="#0069FF" stop-opacity=".05"/></linearGradient><path fill="url(#SVGID_3_)" d="M226.6 115.9v61.3h-10.5v-61.3z"/><linearGradient id="SVGID_4_" gradientUnits="userSpaceOnUse" x1="3308.934" y1="-2592.794" x2="3415.595" y2="-2592.794" gradientTransform="rotate(-90 3161.446 324.644)"><stop offset="0" stop-color="#0069FF" stop-opacity=".5"/><stop offset=".215" stop-color="#0069FF" stop-opacity=".3"/><stop offset="1" stop-color="#0069FF" stop-opacity=".05"/></linearGradient><path class="st3" d="M249.3 70.5v106.7h-10.5V70.5z"/><linearGradient id="SVGID_5_" gradientUnits="userSpaceOnUse" x1="3308.934" y1="-2570.1" x2="3395.171" y2="-2570.1" gradientTransform="rotate(-90 3161.446 324.644)"><stop offset="0" stop-color="#0069FF" stop-opacity=".5"/><stop offset=".215" stop-color="#0069FF" stop-opacity=".3"/><stop offset="1" stop-color="#0069FF" stop-opacity=".05"/></linearGradient><path class="st4" d="M261.5 90.9H272v86.2h-10.5z"/><linearGradient id="SVGID_6_" gradientUnits="userSpaceOnUse" x1="3308.934" y1="-2547.407" x2="3438.29" y2="-2547.407" gradientTransform="rotate(-90 3161.446 324.644)"><stop offset="0" stop-color="#0069FF" stop-opacity=".5"/><stop offset=".215" stop-color="#0069FF" stop-opacity=".3"/><stop offset="1" stop-color="#0069FF" stop-opacity=".05"/></linearGradient><path fill="url(#SVGID_6_)" d="M294.6 47.8v129.4h-10.4V47.8z"/><linearGradient id="SVGID_7_" gradientUnits="userSpaceOnUse" x1="3308.934" y1="-2524.712" x2="3429.212" y2="-2524.712" gradientTransform="rotate(-90 3161.446 324.644)"><stop offset="0" stop-color="#0069FF" stop-opacity=".5"/><stop offset=".215" stop-color="#0069FF" stop-opacity=".3"/><stop offset="1" stop-color="#0069FF" stop-opacity=".05"/></linearGradient><path class="st6" d="M317.3 56.9v120.3h-10.5V56.9z"/><path class="st14" d="M211.1 149.8l31.5-47.2"/><path class="st15" d="M247.8 104l17 15.3"/><path class="st16" d="M269 116.7L288.3 80"/><path class="st17" d="M293.2 80.5l17 11.9"/><path class="st18" d="M315.7 90.4l9-8.5"/><path class="st19" d="M206.9 177.2h119.6"/><linearGradient id="SVGID_8_" gradientUnits="userSpaceOnUse" x1="76.89" y1="125.256" x2="162.45" y2="125.256"><stop offset=".151" stop-color="#0080FF"/><stop offset="1" stop-color="#00D688"/></linearGradient><path d="M119.7 178c-22.9 0-41.5-18.6-41.5-41.5 0-33.8 41.5-63.7 41.5-63.7s41.5 29.2 41.5 63.7c0 22.9-18.6 41.5-41.5 41.5z" fill="#FFF" stroke="url(#SVGID_8_)" stroke-width="2.5" stroke-linecap="round" stroke-miterlimit="10"/><linearGradient id="SVGID_9_" gradientUnits="userSpaceOnUse" x1="84.941" y1="126.326" x2="154.399" y2="126.326"><stop offset="0" stop-color="#0069FF" stop-opacity=".5"/><stop offset=".215" stop-color="#0069FF" stop-opacity=".3"/><stop offset="1" stop-color="#0069FF" stop-opacity=".05"/></linearGradient><path class="st8" d="M119.7 170.9c-19.2 0-34.7-15.5-34.7-34.7 0-25.6 34.7-54.3 34.7-54.3s34.7 26.7 34.7 54.3c0 19.1-15.5 34.7-34.7 34.7z"/><path class="st22" d="M14.6 220.3H3.3"/><path class="st23" d="M1 215.3V3.5"/><path class="st22" d="M5.5 1h11.3"/></svg>