<svg id="Layer_1" xmlns="http://www.w3.org/2000/svg" viewBox="0 0 377.2 259.3"><style>.st0{fill:none;stroke:url(#SVGID_1_);stroke-width:2.5;stroke-miterlimit:10}.st1{opacity:.5;fill:url(#SVGID_2_)}.st2{fill:#fff;stroke:url(#SVGID_3_);stroke-width:2;stroke-miterlimit:10}.st3{fill:url(#SVGID_4_)}.st4{fill:url(#SVGID_5_)}.st5{fill:none;stroke:url(#SVGID_6_);stroke-width:2;stroke-linecap:round;stroke-miterlimit:10;stroke-dasharray:0,4}.st6{fill:url(#SVGID_7_)}.st7{fill:#fff;stroke:#0080ff;stroke-width:2.5;stroke-linecap:round;stroke-miterlimit:10}.st8{fill:url(#SVGID_8_)}.st9{fill:none;stroke:#0080ff;stroke-width:2}.st10,.st11,.st9{stroke-linecap:round;stroke-miterlimit:10}.st10{stroke-dasharray:0,5.0038;fill:none;stroke:#0080ff;stroke-width:2}.st11{fill:#fff;stroke:url(#SVGID_9_);stroke-width:2.5}.st12{fill:url(#SVGID_10_)}.st13{fill:none;stroke:#0080ff;stroke-width:2.5;stroke-linecap:round;stroke-miterlimit:10}</style><linearGradient id="SVGID_1_" gradientUnits="userSpaceOnUse" x1="10.713" y1="141.908" x2="365.9" y2="141.908"><stop offset="0" stop-color="#005DFF" stop-opacity=".15"/><stop offset=".436" stop-color="#0068FF" stop-opacity=".085"/><stop offset="1" stop-color="#0072FF" stop-opacity="0"/></linearGradient><path fill="url(#SVGID_1_)" d="M10.7 244.8L188.3 39l177.6 205.8z"/><circle class="st7" cx="187.9" cy="27" r="25.8"/><linearGradient id="SVGID_2_" gradientUnits="userSpaceOnUse" x1="173.055" y1="27.003" x2="202.647" y2="27.003"><stop offset="0" stop-color="#0069FF" stop-opacity=".5"/><stop offset=".215" stop-color="#0069FF" stop-opacity=".3"/><stop offset="1" stop-color="#0069FF" stop-opacity=".05"/></linearGradient><circle cx="187.9" cy="27" r="14.8" fill="url(#SVGID_2_)"/><path class="st10" d="M208.6 51.8L374 242.9M4.3 241L169.6 50"/><linearGradient id="SVGID_3_" gradientUnits="userSpaceOnUse" x1="131.763" y1="175.01" x2="243.939" y2="175.01"><stop offset=".151" stop-color="#0080FF"/><stop offset="1" stop-color="#00D688"/></linearGradient><path d="M187.9 244.6c-30.3 0-54.8-24.6-54.8-54.8 0-44.7 54.8-84.1 54.8-84.1s54.8 38.6 54.8 84.1c0 30.3-24.6 54.8-54.8 54.8z" fill="#FFF" stroke="url(#SVGID_3_)" stroke-width="2.5" stroke-linecap="round" stroke-miterlimit="10"/><linearGradient id="SVGID_4_" gradientUnits="userSpaceOnUse" x1="141.994" y1="176.379" x2="233.708" y2="176.379"><stop offset="0" stop-color="#0069FF" stop-opacity=".5"/><stop offset=".215" stop-color="#0069FF" stop-opacity=".3"/><stop offset="1" stop-color="#0069FF" stop-opacity=".05"/></linearGradient><path class="st3" d="M187.9 235.2c-25.3 0-45.9-20.5-45.9-45.9 0-33.9 45.9-71.8 45.9-71.8s45.9 35.3 45.9 71.8c-.1 25.4-20.6 45.9-45.9 45.9z"/><path transform="rotate(-90 188.693 251.41)" class="st13" d="M182.1 64.1h13.2v374.6h-13.2z"/></svg>