<svg id="Layer_1" xmlns="http://www.w3.org/2000/svg" viewBox="0 0 1400 600"><style>.st0{fill:url(#SVGID_1_)}.st1{fill:#fff}.st2{fill:url(#SVGID_2_)}.st3{fill:url(#SVGID_3_)}.st4{fill:url(#SVGID_4_)}.st5{fill:url(#SVGID_5_)}.st6{fill:url(#SVGID_6_)}.st7{fill:url(#SVGID_7_)}.st8{fill:url(#SVGID_8_)}.st9{fill:url(#SVGID_9_)}.st10{fill:url(#SVGID_10_)}.st11{fill:url(#SVGID_11_)}.st12{fill:url(#SVGID_12_)}.st13{fill:url(#SVGID_13_)}.st14{fill:url(#SVGID_14_)}.st15{fill:url(#SVGID_15_)}.st16{fill:url(#SVGID_16_)}.st17{fill:url(#SVGID_17_)}.st18{fill:url(#SVGID_18_)}.st19{fill:url(#SVGID_19_)}</style><linearGradient id="SVGID_1_" gradientUnits="userSpaceOnUse" x1="-87.644" y1="381.93" x2="261.273" y2="381.93"><stop offset="0" stop-color="#DAE4EA"/><stop offset="1" stop-color="#DAE4EA" stop-opacity="0"/></linearGradient><path class="st0" d="M-87.6 280.5h348.9v203H-87.6z"/><path class="st1" d="M38.4 216h139v105h-139z"/><linearGradient id="SVGID_2_" gradientUnits="userSpaceOnUse" x1="38.432" y1="268.5" x2="167.394" y2="268.5"><stop offset="0" stop-color="#DAE4EA"/><stop offset="1" stop-color="#DAE4EA" stop-opacity="0"/></linearGradient><path class="st2" d="M38.4 216h129v105h-129z"/><linearGradient id="SVGID_3_" gradientUnits="userSpaceOnUse" x1="172.394" y1="216" x2="172.394" y2="321.001"><stop offset="0" stop-color="#DAE4EA"/><stop offset="1" stop-color="#DAE4EA" stop-opacity="0"/></linearGradient><path class="st3" d="M167.4 216h10v105h-10z"/><linearGradient id="SVGID_4_" gradientUnits="userSpaceOnUse" x1="1256.821" y1="290" x2="1429.245" y2="290"><stop offset="0" stop-color="#DAE4EA"/><stop offset="1" stop-color="#DAE4EA" stop-opacity="0"/></linearGradient><path class="st4" d="M1256.8 228.7h172.4v122.5h-172.4z"/><linearGradient id="SVGID_5_" gradientUnits="userSpaceOnUse" x1="807.197" y1="467.029" x2="1178.215" y2="467.029"><stop offset="0" stop-color="#DAE4EA"/><stop offset="1" stop-color="#DAE4EA" stop-opacity="0"/></linearGradient><path class="st5" d="M807.2 298.2h371v337.7h-371z"/><linearGradient id="SVGID_6_" gradientUnits="userSpaceOnUse" x1="1155.887" y1="600" x2="1462.66" y2="600"><stop offset="0" stop-color="#DAE4EA"/><stop offset="1" stop-color="#DAE4EA" stop-opacity="0"/></linearGradient><path class="st6" d="M1155.9 468.2h306.8v263.7h-306.8z"/><linearGradient id="SVGID_7_" gradientUnits="userSpaceOnUse" x1="167.394" y1="575.305" x2="538.412" y2="575.305"><stop offset="0" stop-color="#DAE4EA"/><stop offset="1" stop-color="#DAE4EA" stop-opacity="0"/></linearGradient><path class="st7" d="M167.4 443.5h371v263.7h-371z"/><linearGradient id="SVGID_8_" gradientUnits="userSpaceOnUse" x1="-57.744" y1="28.781" x2="313.274" y2="28.781"><stop offset="0" stop-color="#DAE4EA"/><stop offset="1" stop-color="#DAE4EA" stop-opacity="0"/></linearGradient><path class="st8" d="M-57.7-103.1h371v263.7h-371z"/><linearGradient id="SVGID_9_" gradientUnits="userSpaceOnUse" x1="1178.215" y1="72.471" x2="1431.689" y2="72.471"><stop offset="0" stop-color="#DAE4EA"/><stop offset="1" stop-color="#DAE4EA" stop-opacity="0"/></linearGradient><path class="st9" d="M1178.2-103.1h253.5V248h-253.5z"/><path class="st1" d="M-60.6 413.7h404.8v372.6H-60.6z"/><linearGradient id="SVGID_10_" gradientUnits="userSpaceOnUse" x1="-60.574" y1="600" x2="334.274" y2="600"><stop offset="0" stop-color="#DAE4EA"/><stop offset="1" stop-color="#DAE4EA" stop-opacity="0"/></linearGradient><path class="st10" d="M-60.6 413.7h394.8v372.6H-60.6z"/><linearGradient id="SVGID_11_" gradientUnits="userSpaceOnUse" x1="339.274" y1="413.721" x2="339.274" y2="786.279"><stop offset="0" stop-color="#DAE4EA"/><stop offset="1" stop-color="#DAE4EA" stop-opacity="0"/></linearGradient><path class="st11" d="M334.3 413.7h10v372.6h-10z"/><path class="st1" d="M261.3 324.8h364.8v53H261.3z"/><linearGradient id="SVGID_12_" gradientUnits="userSpaceOnUse" x1="261.273" y1="351.27" x2="616.121" y2="351.27"><stop offset="0" stop-color="#DAE4EA"/><stop offset="1" stop-color="#DAE4EA" stop-opacity="0"/></linearGradient><path class="st12" d="M261.3 324.8h354.8v53H261.3z"/><linearGradient id="SVGID_13_" gradientUnits="userSpaceOnUse" x1="621.121" y1="324.77" x2="621.121" y2="377.77"><stop offset="0" stop-color="#DAE4EA"/><stop offset="1" stop-color="#DAE4EA" stop-opacity="0"/></linearGradient><path class="st13" d="M616.1 324.8h10v53h-10z"/><path class="st1" d="M91.1 124.2h313v113h-313z"/><linearGradient id="SVGID_14_" gradientUnits="userSpaceOnUse" x1="91.144" y1="180.746" x2="394.129" y2="180.746"><stop offset="0" stop-color="#DAE4EA"/><stop offset="1" stop-color="#DAE4EA" stop-opacity="0"/></linearGradient><path class="st14" d="M91.1 124.2h303v113h-303z"/><linearGradient id="SVGID_15_" gradientUnits="userSpaceOnUse" x1="399.129" y1="124.247" x2="399.129" y2="237.246"><stop offset="0" stop-color="#DAE4EA"/><stop offset="1" stop-color="#DAE4EA" stop-opacity="0"/></linearGradient><path class="st15" d="M394.1 124.2h10v113h-10z"/><path class="st1" d="M1086.4 163.5h139v105h-139z"/><linearGradient id="SVGID_16_" gradientUnits="userSpaceOnUse" x1="1086.406" y1="216" x2="1215.368" y2="216"><stop offset="0" stop-color="#DAE4EA"/><stop offset="1" stop-color="#DAE4EA" stop-opacity="0"/></linearGradient><path class="st16" d="M1086.4 163.5h129v105h-129z"/><linearGradient id="SVGID_17_" gradientUnits="userSpaceOnUse" x1="1220.368" y1="163.5" x2="1220.368" y2="268.5"><stop offset="0" stop-color="#DAE4EA"/><stop offset="1" stop-color="#DAE4EA" stop-opacity="0"/></linearGradient><path class="st17" d="M1215.4 163.5h10v105h-10z"/><path class="st1" d="M1032.4 317h386.8v113h-386.8z"/><linearGradient id="SVGID_18_" gradientUnits="userSpaceOnUse" x1="1032.351" y1="373.5" x2="1409.119" y2="373.5"><stop offset="0" stop-color="#DAE4EA"/><stop offset="1" stop-color="#DAE4EA" stop-opacity="0"/></linearGradient><path class="st18" d="M1032.4 317h376.8v113h-376.8z"/><linearGradient id="SVGID_19_" gradientUnits="userSpaceOnUse" x1="1414.119" y1="317.001" x2="1414.119" y2="430"><stop offset="0" stop-color="#DAE4EA"/><stop offset="1" stop-color="#DAE4EA" stop-opacity="0"/></linearGradient><path class="st19" d="M1409.1 317h10v113h-10z"/></svg>