<svg id="Layer_1" xmlns="http://www.w3.org/2000/svg" viewBox="0 0 181.8 152.5"><style>.st0{fill:none;stroke:url(#SVGID_1_);stroke-width:2.5;stroke-miterlimit:10}.st1{opacity:.5;fill:url(#SVGID_2_)}.st2{fill:#fff;stroke:url(#SVGID_3_);stroke-width:2;stroke-miterlimit:10}.st3{fill:url(#SVGID_4_)}.st4{fill:url(#SVGID_5_)}.st5{fill:none;stroke:url(#SVGID_6_);stroke-width:2;stroke-linecap:round;stroke-miterlimit:10;stroke-dasharray:0,4}.st6{fill:url(#SVGID_7_)}.st7{fill:url(#SVGID_8_)}.st8{fill:url(#SVGID_9_)}.st10,.st9{stroke:#0080ff;stroke-width:2;stroke-linecap:round;stroke-miterlimit:10}.st9{fill:none}.st10{stroke-dasharray:0,4.0252}.st10,.st11,.st12{fill:none}.st11,.st12,.st13{stroke-miterlimit:10}.st11{stroke-linecap:round;stroke-dasharray:0,4.0494;stroke:#0080ff;stroke-width:2}.st12{stroke:url(#SVGID_10_);stroke-width:2.5}.st13{fill:#fff;stroke:url(#SVGID_11_);stroke-width:2}.st14{fill:url(#SVGID_12_);enable-background:new}</style><linearGradient id="SVGID_1_" gradientUnits="userSpaceOnUse" x1="9.674" y1="85.843" x2="171.791" y2="85.843"><stop offset="0" stop-color="#005DFF" stop-opacity=".2"/><stop offset="1" stop-color="#0072FF" stop-opacity="0"/></linearGradient><path fill="url(#SVGID_1_)" d="M9.7 143.5L82.9 39.3l7.8-11.1 7.9 11.1 73.2 104.2z"/><linearGradient id="SVGID_2_" gradientUnits="userSpaceOnUse" y1="147.989" x2="181.779" y2="147.989"><stop offset="0" stop-color="#0072FF"/><stop offset=".086" stop-color="#0A78FF"/><stop offset=".233" stop-color="#2687FF"/><stop offset=".425" stop-color="#54A0FF"/><stop offset=".654" stop-color="#93C3FF"/><stop offset=".911" stop-color="#E2EFFF"/><stop offset="1" stop-color="#FFF"/></linearGradient><path fill="url(#SVGID_2_)" d="M181.8 152.5v-9H0v9z"/><linearGradient id="SVGID_3_" gradientUnits="userSpaceOnUse" x1="82.089" y1="16.294" x2="99.376" y2="16.294"><stop offset="0" stop-color="#0069FF" stop-opacity=".5"/><stop offset=".215" stop-color="#0069FF" stop-opacity=".3"/><stop offset="1" stop-color="#0069FF" stop-opacity=".05"/></linearGradient><circle cx="90.7" cy="16.3" r="8.6" fill="url(#SVGID_3_)"/><path class="st10" d="M101.7 31.9l75.3 107"/><path class="st11" d="M5.2 137.9L80.9 30.3"/><linearGradient id="SVGID_4_" gradientUnits="userSpaceOnUse" x1="90.733" y1="32.588" x2="90.733"><stop offset="0" stop-color="#00D688"/><stop offset="1" stop-color="#0069FF"/></linearGradient><circle cx="90.7" cy="16.3" r="15" fill="none" stroke="url(#SVGID_4_)" stroke-width="2.5" stroke-miterlimit="10"/><linearGradient id="SVGID_5_" gradientUnits="userSpaceOnUse" x1="90.733" y1="67.707" x2="90.733" y2="134.553"><stop offset="0" stop-color="#00D688"/><stop offset="1" stop-color="#0080FF"/></linearGradient><path d="M64.7 107.5c0-19.5 26-38.6 26-38.6s26 19.7 26 38.6c0 14.4-11.7 26-26 26s-26-11.6-26-26z" fill="#FFF" stroke="url(#SVGID_5_)" stroke-width="2" stroke-miterlimit="10"/><linearGradient id="SVGID_6_" gradientUnits="userSpaceOnUse" x1="74.052" y1="93.186" x2="109.292" y2="116.133"><stop offset="0" stop-color="#0080FF"/><stop offset=".39" stop-color="#0075FF" stop-opacity=".649"/><stop offset="1" stop-color="#0069FF" stop-opacity=".1"/></linearGradient><path d="M69.7 107.1c0-15.8 21.1-31.2 21.1-31.2s21.1 16 21.1 31.2c0 11.6-9.4 21.1-21.1 21.1s-21.1-9.5-21.1-21.1z" fill="url(#SVGID_6_)"/></svg>