<svg id="Layer_1" xmlns="http://www.w3.org/2000/svg" viewBox="0 0 145.6 152.4"><style>.st0{fill:none;stroke:url(#SVGID_1_);stroke-width:2.5;stroke-miterlimit:10}.st1{opacity:.5;fill:url(#SVGID_2_)}.st2{fill:#fff;stroke:url(#SVGID_3_);stroke-width:2;stroke-miterlimit:10}.st3{fill:url(#SVGID_4_)}.st4{fill:url(#SVGID_5_)}.st5,.st6{fill:none;stroke-miterlimit:10}.st5{stroke-linecap:round;stroke-dasharray:0,4;stroke:url(#SVGID_6_);stroke-width:2}.st6{stroke:#00d688;stroke-width:1.5}.st7{stroke:#0080ff;stroke-linecap:round}.st7,.st8,.st9{fill:none;stroke-width:1.5;stroke-miterlimit:10}.st8{stroke-linecap:round;stroke:#00d688}.st9{stroke:#0068ff}.st10{fill:#fff;enable-background:new}.st11,.st12{fill:none;stroke:url(#SVGID_7_);stroke-width:2;stroke-linecap:round;stroke-miterlimit:10}.st12{stroke:url(#SVGID_8_);stroke-dasharray:0,3.9967}.st13{fill:url(#SVGID_9_);enable-background:new}.st14{fill:none;stroke:url(#SVGID_10_);stroke-width:2.5;stroke-linecap:round;stroke-miterlimit:10}.st15{fill:#0072ff}.st16{fill:none;stroke:url(#SVGID_11_);stroke-linecap:round;stroke-miterlimit:10}.st16,.st17,.st18{stroke-width:2.5}.st17,.st18,.st19,.st20{fill:none;stroke-linecap:round;stroke-miterlimit:10}.st17{stroke:url(#SVGID_12_)}.st18{stroke:url(#SVGID_13_)}.st19{stroke:url(#SVGID_14_);stroke-width:1.5}.st20{stroke:#00d688;stroke-width:2.5}</style><linearGradient id="SVGID_1_" gradientUnits="userSpaceOnUse" x1="362.435" y1="987.375" x2="362.435" y2="834.875"><stop offset="0" stop-color="#00D688"/><stop offset="1" stop-color="#0069FF"/></linearGradient><path class="st0" d="M287.1 836.1h150.6v150H287.1z"/><linearGradient id="SVGID_2_" gradientUnits="userSpaceOnUse" x1="362.435" y1="951.838" x2="362.435" y2="844.922"><stop offset="0" stop-color="#0080FF"/><stop offset="1" stop-color="#0069FF" stop-opacity="0"/></linearGradient><path class="st1" d="M295.9 844.9h133v106.9h-133z"/><linearGradient id="SVGID_3_" gradientUnits="userSpaceOnUse" x1="389.431" y1="885.058" x2="330.746" y2="918.939"><stop offset="0" stop-color="#00D688"/><stop offset="1" stop-color="#0080FF"/></linearGradient><path class="st2" d="M329.5 906c0-24.7 32.9-48.7 32.9-48.7s32.9 24.9 32.9 48.7c0 18.2-14.7 32.9-32.9 32.9s-32.9-14.7-32.9-32.9z"/><linearGradient id="SVGID_4_" gradientUnits="userSpaceOnUse" x1="341.371" y1="887.952" x2="385.872" y2="916.931"><stop offset="0" stop-color="#0080FF"/><stop offset="1" stop-color="#0069FF" stop-opacity=".1"/></linearGradient><path class="st3" d="M335.8 905.5c0-20 26.6-39.4 26.6-39.4s26.6 20.1 26.6 39.4c0 14.7-11.9 26.6-26.6 26.6-14.7 0-26.6-11.9-26.6-26.6z"/><linearGradient id="SVGID_5_" gradientUnits="userSpaceOnUse" x1="311.311" y1="963.781" x2="413.558" y2="963.781"><stop offset="0" stop-color="#0080FF"/><stop offset="1" stop-color="#0069FF" stop-opacity="0"/></linearGradient><path class="st4" d="M311.3 960.6h102.2v6.4H311.3z"/><linearGradient id="SVGID_6_" gradientUnits="userSpaceOnUse" x1="310.311" y1="973.783" x2="414.558" y2="973.783"><stop offset="0" stop-color="#00D688"/><stop offset="1" stop-color="#0069FF"/></linearGradient><path class="st5" d="M311.3 973.8h102.3"/><path class="st6" d="M71.3 85.4c37.2-1.2 67.6 1.4 72.6 12.8"/><path class="st9" d="M32.7 28.9C30.1 23.1 54.9 16.4 72 15.7M8.2 62.8c-3.2-9.3 29.4-20.2 65-21m-72 59.3C-3.4 88.6 30.4 74.9 76.1 77"/><path class="st6" d="M56.9 47.3c41.6-8.1 76.1-2.3 80.4 9.8M75.5 15.4c17.1-.6 37.4 2 38.9 9"/><path class="st10" d="M14.5 92.3c0-44.4 59.2-87.6 59.2-87.6s59.2 44.8 59.2 87.6c0 32.7-26.5 59.2-59.2 59.2s-59.2-26.6-59.2-59.2z"/><linearGradient id="SVGID_7_" gradientUnits="userSpaceOnUse" x1="87.809" y1="-3.533" x2="-16.408" y2="56.637"><stop offset="0" stop-color="#00D688"/><stop offset="1" stop-color="#0069FF"/></linearGradient><linearGradient id="SVGID_8_" gradientUnits="userSpaceOnUse" x1="121.638" y1="55.06" x2="17.421" y2="115.23"><stop offset="0" stop-color="#00D688"/><stop offset="1" stop-color="#0069FF"/></linearGradient><path class="st12" d="M76.8 7.1c12.2 10 56.1 48.3 56.1 85.1 0 32.7-26.5 59.2-59.2 59.2s-59.2-26.5-59.2-59.2c0-40.1 48.2-79.1 57.6-86.4"/><linearGradient id="SVGID_9_" gradientUnits="userSpaceOnUse" x1="32.832" y1="58.16" x2="119.082" y2="114.324"><stop offset="0" stop-color="#0080FF"/><stop offset=".128" stop-color="#007BFF" stop-opacity=".885"/><stop offset=".587" stop-color="#006EFF" stop-opacity=".472"/><stop offset="1" stop-color="#0069FF" stop-opacity=".1"/></linearGradient><path class="st13" d="M22.1 92.1c0-38.7 51.5-76.3 51.5-76.3s51.5 39.1 51.5 76.3c0 28.5-23.1 51.5-51.5 51.5s-51.5-23-51.5-51.5z"/><linearGradient id="SVGID_10_" gradientUnits="userSpaceOnUse" x1="79.79" y1="50.708" x2="145.61" y2="50.708" gradientTransform="matrix(1 0 0 -1 0 169.185)"><stop offset=".57" stop-color="#0068FF"/><stop offset="1" stop-color="#00D688"/></linearGradient><path class="st14" d="M144.3 98.8c1.2 12.5-31.2 31-63.3 39.3"/><path class="st15" d="M76.7 137.5c.4-2.3 2.5-4.1 5-3.7 2.5.4 4.1 2.5 3.7 4.8-.4 2.3-2.5 4.1-5 3.7-2.4-.2-4-2.5-3.7-4.8z"/><linearGradient id="SVGID_11_" gradientUnits="userSpaceOnUse" x1="31.905" y1="17.521" x2="105.822" y2="17.521"><stop offset=".352" stop-color="#0068FF"/><stop offset="1" stop-color="#00D688"/></linearGradient><path class="st16" d="M104.6 3.6C80.9 25.3 37.9 35.8 33.2 29.7"/><linearGradient id="SVGID_12_" gradientUnits="userSpaceOnUse" x1=".29" y1="84.876" x2="139.194" y2="84.876" gradientTransform="matrix(1 0 0 -1 0 169.185)"><stop offset=".57" stop-color="#0068FF"/><stop offset="1" stop-color="#00D688"/></linearGradient><path class="st17" d="M137.4 57.9c4.7 12.2-22.1 31.8-59.5 44.1s-72.2 11.1-76.4.2"/><linearGradient id="SVGID_13_" gradientUnits="userSpaceOnUse" x1="6.925" y1="121.877" x2="116.311" y2="121.877" gradientTransform="matrix(1 0 0 -1 0 169.185)"><stop offset=".57" stop-color="#0068FF"/><stop offset="1" stop-color="#00D688"/></linearGradient><path class="st18" d="M114.6 25.5c3.6 8.7-17.1 24.3-46.5 34.9S11 71.8 8.2 63.7"/><linearGradient id="SVGID_14_" gradientUnits="userSpaceOnUse" x1="-1.872" y1="104.518" x2="138.76" y2="104.518" gradientTransform="matrix(1 0 0 -1 0 169.185)"><stop offset="0" stop-color="#0080FF"/><stop offset=".155" stop-color="#0080FF"/><stop offset=".322" stop-color="#0080FF"/><stop offset=".476" stop-color="#0080FF"/><stop offset=".605" stop-color="#0072FF"/><stop offset=".71" stop-color="#0074FC"/><stop offset=".779" stop-color="#007CF3"/><stop offset=".839" stop-color="#0088E4"/><stop offset=".892" stop-color="#009ACF"/><stop offset=".942" stop-color="#00B1B4"/><stop offset=".988" stop-color="#00CD92"/><stop offset="1" stop-color="#00D688"/></linearGradient><path class="st20" d="M96 2.7l10.2-1.3-1.4 10.3"/></svg>