<svg id="Layer_1" xmlns="http://www.w3.org/2000/svg" viewBox="0 0 149.6 151.1"><style>.st0{fill:url(#SVGID_1_)}.st1,.st2,.st3{fill:none;stroke-miterlimit:10}.st1{stroke:#fff;stroke-width:2}.st2,.st3{stroke-linecap:round}.st2{stroke-dasharray:0,4;stroke:url(#SVGID_2_);stroke-width:2}.st3{stroke:url(#SVGID_3_);stroke-width:2.5}</style><linearGradient id="SVGID_1_" gradientUnits="userSpaceOnUse" x1="75.818" y1="19.883" x2="75.818" y2="149.993"><stop offset="0" stop-color="#0080ff"/><stop offset="1" stop-color="#0069ff" stop-opacity="0"/></linearGradient><path class="st0" d="M10.8 18.1h130v133h-130z"/><path class="st1" d="M57.8 37.1h34m-64 0h19m-19 8h49m0 10h15m-64 0h41m8 33h15m-64 0h41m-41-17h30m0 8h23m-53 0h19m11 25h34m-64 0h19m30 17h15m-64 0h41m-41 16h30m0 8h23m-53 0h19"/><linearGradient id="SVGID_2_" gradientUnits="userSpaceOnUse" x1="11.867" y1="11.496" x2="76.81" y2="11.496"><stop offset="0" stop-color="#00d688"/><stop offset="1" stop-color="#0069ff"/></linearGradient><path class="st2" d="M12.9 11.5h62.9"/><linearGradient id="SVGID_3_" gradientUnits="userSpaceOnUse" x1="74.788" x2="74.788" y2="114.456"><stop offset="0" stop-color="#00d688"/><stop offset="1" stop-color="#0069ff"/></linearGradient><path class="st3" d="M1.3 1.3l146.3.3.7 111.6-146.7-.3z"/></svg>