<svg id="Layer_1" xmlns="http://www.w3.org/2000/svg" viewBox="0 0 152.6 152"><style>.st0{fill:none;stroke:url(#SVGID_1_);stroke-width:2.5}.st0,.st1,.st2{stroke-miterlimit:10}.st1{fill:#fff;stroke:#0072ff;stroke-width:2}.st2{fill:none;stroke:url(#SVGID_2_);stroke-width:2.5}.st3{fill:url(#SVGID_3_)}.st4{fill:#fff}.st5,.st6{fill:none;stroke:url(#SVGID_4_);stroke-width:2;stroke-linecap:round;stroke-miterlimit:10;stroke-dasharray:0,4}.st6{stroke:url(#SVGID_5_)}.st7{fill:url(#SVGID_6_)}</style><linearGradient id="SVGID_1_" gradientUnits="userSpaceOnUse" x1="15.03" y1="153.364" x2="56.529" y2="81.486"><stop offset="0" stop-color="#00d688"/><stop offset="1" stop-color="#0080ff"/></linearGradient><path class="st0" d="M5.9 88.7h59.8v57.4H5.9z"/><path class="st1" d="M1 141.2h9.8v9.8H1zm59.8 0h9.8v9.8h-9.8zM1 83.8h9.8v9.8H1zm59.8 0h9.8v9.8h-9.8z"/><linearGradient id="SVGID_2_" gradientUnits="userSpaceOnUse" x1="118.93" y1="147.363" x2="118.93" y2="4.637"><stop offset="0" stop-color="#00d688"/><stop offset="1" stop-color="#0080ff"/></linearGradient><path class="st2" d="M91.2 5.9h55.5v140.2H91.2z"/><linearGradient id="SVGID_3_" gradientUnits="userSpaceOnUse" x1="99.661" y1="76" x2="138.199" y2="76"><stop offset="0" stop-color="#005aff" stop-opacity=".3"/><stop offset="1" stop-color="#0071ff"/></linearGradient><path class="st3" d="M99.7 14.4h38.5v123.2H99.7z"/><path class="st4" d="M118.9 124.1c-10.4 0-14.1-22.3-14.1-40.3 0-33 14.1-55.8 14.1-55.8S133 50.7 133 83.7c0 18-3.7 40.4-14.1 40.4z"/><linearGradient id="SVGID_4_" gradientUnits="userSpaceOnUse" x1="66.023" y1="76.304" x2="66.023" y2="39.42"><stop offset="0" stop-color="#0080ff"/><stop offset=".318" stop-color="#09d"/><stop offset="1" stop-color="#00d688"/></linearGradient><path class="st5" d="M66 75.3V40.4"/><linearGradient id="SVGID_5_" gradientUnits="userSpaceOnUse" x1="5.887" y1="76.304" x2="5.887" y2="39.42"><stop offset="0" stop-color="#0080ff"/><stop offset=".318" stop-color="#09d"/><stop offset="1" stop-color="#00d688"/></linearGradient><path class="st6" d="M5.9 75.3V40.4"/><path class="st1" d="M86.3 141.2h9.8v9.8h-9.8zm55.5 0h9.8v9.8h-9.8zM86.3 1h9.8v9.8h-9.8zm55.5 0h9.8v9.8h-9.8z"/><linearGradient id="SVGID_6_" gradientUnits="userSpaceOnUse" x1="14.384" y1="117.425" x2="57.176" y2="117.425"><stop offset="0" stop-color="#005aff" stop-opacity=".3"/><stop offset="1" stop-color="#0071ff"/></linearGradient><path class="st7" d="M14.4 97.2h42.8v40.4H14.4z"/><path class="st4" d="M35.8 133.8c-12.6 0-17-7.5-17-13.5 0-11.1 17-18.7 17-18.7s17 7.7 17 18.7c0 6-4.5 13.5-17 13.5z"/></svg>