<svg id="Layer_1" xmlns="http://www.w3.org/2000/svg" viewBox="0 0 1400 600"><style>.st0{fill:url(#SVGID_1_)}.st1{fill:url(#SVGID_2_)}.st2{fill:url(#SVGID_3_)}</style><linearGradient id="SVGID_1_" gradientUnits="userSpaceOnUse" x1="1400" y1="361" x2="0" y2="361"><stop offset="0" stop-color="#DAE4EA" stop-opacity="0"/><stop offset=".5" stop-color="#DAE4EA"/><stop offset="1" stop-color="#DAE4EA" stop-opacity="0"/></linearGradient><path class="st0" d="M1233.9 341.4H1053C949.5 341.4 939 473 843 473H528.1c-96 0-106.5-178.4-210-178.4h-182C41.6 294.6 103.1 122 0 122v289.5h.7V600H1400V227.3c-103.1 0-71.6 114.1-166.1 114.1z"/><linearGradient id="SVGID_2_" gradientUnits="userSpaceOnUse" x1="798" y1="354" x2="1400" y2="354"><stop offset="0" stop-color="#DAE4EA"/><stop offset="1" stop-color="#DAE4EA" stop-opacity="0"/></linearGradient><path class="st1" d="M1400 600V108h-61c-160 0-23 376-300.1 376h-70c-138.3 0-70.8 116-170.9 116h602z"/><linearGradient id="SVGID_3_" gradientUnits="userSpaceOnUse" x1="646" y1="405" x2="0" y2="405"><stop offset="0" stop-color="#DAE4EA"/><stop offset="1" stop-color="#DAE4EA" stop-opacity="0"/></linearGradient><path class="st2" d="M361.1 600H.7L0 210h131c146 0 41.6 293 256.4 293h120c88.6 0 87.7 97 138.6 97H361.1z"/></svg>