<svg id="Layer_1" xmlns="http://www.w3.org/2000/svg" viewBox="0 0 377.5 144.4"><style>.st0{fill:none;stroke:url(#SVGID_1_);stroke-width:2.5;stroke-miterlimit:10}.st1{opacity:.5;fill:url(#SVGID_2_)}.st2{fill:#fff;stroke:url(#SVGID_3_);stroke-width:2;stroke-miterlimit:10}.st3{fill:url(#SVGID_4_)}.st4{fill:url(#SVGID_5_)}.st5{fill:none;stroke:url(#SVGID_6_);stroke-width:2;stroke-linecap:round;stroke-miterlimit:10;stroke-dasharray:0,4}.st6{fill:url(#SVGID_7_)}.st7{fill:url(#SVGID_8_)}.st8{fill:#fff;stroke:url(#SVGID_9_);stroke-width:2.5;stroke-linecap:round;stroke-miterlimit:10}.st9{fill:url(#SVGID_10_)}.st10{fill:url(#SVGID_11_)}.st11{fill:url(#SVGID_12_)}.st12{fill:none;stroke-linecap:round;stroke-miterlimit:10}.st12,.st13,.st14{stroke:#0080ff;stroke-width:2}.st13{fill:none;stroke-linecap:round;stroke-miterlimit:10;stroke-dasharray:0,4.8513}.st14{stroke-dasharray:0,5.1282}.st14,.st15,.st16{fill:none;stroke-linecap:round;stroke-miterlimit:10}.st15{stroke-dasharray:0,4.8919;stroke:#0080ff;stroke-width:2}.st16{stroke:url(#SVGID_13_);stroke-width:2.5}.st17{fill:#0080ff}.st18{stroke:url(#SVGID_14_)}.st18,.st19,.st20{fill:none;stroke-width:2.5;stroke-linecap:round;stroke-miterlimit:10}.st19{stroke:url(#SVGID_15_)}.st20{stroke:url(#SVGID_16_)}</style><linearGradient id="SVGID_1_" gradientUnits="userSpaceOnUse" x1="282.751" y1="12.93" x2="365.418" y2="12.93"><stop offset="0" stop-color="#005DFF" stop-opacity=".15"/><stop offset=".436" stop-color="#0068FF" stop-opacity=".085"/><stop offset="1" stop-color="#0072FF" stop-opacity="0"/></linearGradient><path d="M352.5 12.9c-2.7 0-5.1.8-7.2 2.2-4.1-8.9-13-15.1-23.5-15.1-12.3 0-22.7 8.6-25.2 20.2-1.5-1.5-3.5-2.4-5.8-2.4-4.5 0-8.1 3.6-8.1 8.1h82.7c0-7.2-5.8-13-12.9-13z" fill="url(#SVGID_1_)"/><linearGradient id="SVGID_2_" gradientUnits="userSpaceOnUse" x1="7085.522" y1="39.763" x2="7201.618" y2="39.763" gradientTransform="matrix(-1 0 0 1 7221.2 0)"><stop offset="0" stop-color="#0072FF" stop-opacity="0"/><stop offset=".564" stop-color="#0068FF" stop-opacity=".085"/><stop offset="1" stop-color="#005DFF" stop-opacity=".15"/></linearGradient><path d="M41.1 39.8c4.4 0 8.5 1.3 11.9 3.6 6.8-14.8 21.8-25.1 39.2-25.1 20.6 0 37.7 14.4 42 33.7 2.4-2.5 1 9.4 1 9.4H19.6c0-12 9.6-21.6 21.5-21.6z" fill="url(#SVGID_2_)"/><linearGradient id="SVGID_3_" gradientUnits="userSpaceOnUse" y1="84.483" x2="377.5" y2="84.483"><stop offset=".151" stop-color="#0080FF"/><stop offset="1" stop-color="#00D688"/></linearGradient><path d="M317.6 84.5c-12 0-23.2 3.6-32.5 9.8-18.5-40.4-59.3-68.5-106.7-68.5-56 0-102.8 39.2-114.5 91.7-6.6-6.8-15.9-11-26.1-11-20.2 0-36.6 16.4-36.6 36.6h375c0-32.4-26.2-58.6-58.6-58.6z" fill="#FFF" stroke="url(#SVGID_3_)" stroke-width="2.5" stroke-linecap="round" stroke-miterlimit="10"/><linearGradient id="SVGID_4_" gradientUnits="userSpaceOnUse" x1="266.172" y1="117.883" x2="367.011" y2="117.883"><stop offset="0" stop-color="#005DFF" stop-opacity=".15"/><stop offset=".436" stop-color="#0068FF" stop-opacity=".085"/><stop offset="1" stop-color="#0072FF" stop-opacity="0"/></linearGradient><path class="st3" d="M266.2 143.1c0-27.8 22.6-50.4 50.4-50.4 27.8 0 50.4 22.6 50.4 50.4H266.2z"/><linearGradient id="SVGID_5_" gradientUnits="userSpaceOnUse" x1="69.368" y1="89.007" x2="287.31" y2="89.007"><stop offset="0" stop-color="#005DFF" stop-opacity=".15"/><stop offset=".436" stop-color="#0068FF" stop-opacity=".085"/><stop offset="1" stop-color="#0072FF" stop-opacity="0"/></linearGradient><path class="st4" d="M69.4 143.5c0-60.2 48.8-109 109-109s109 48.8 109 109h-218z"/><linearGradient id="SVGID_6_" gradientUnits="userSpaceOnUse" x1="8.563" y1="128.466" x2="67.07" y2="128.466"><stop offset="0" stop-color="#005DFF" stop-opacity=".15"/><stop offset=".436" stop-color="#0068FF" stop-opacity=".085"/><stop offset="1" stop-color="#0072FF" stop-opacity="0"/></linearGradient><path d="M8.6 143.1c0-16.2 13.1-29.3 29.3-29.3s29.3 13.1 29.3 29.3H8.6z" fill="url(#SVGID_6_)"/><path class="st13" d="M271 115.2l26.7.1"/><path class="st14" d="M190.3 77.6l40.8 26.5"/><path class="st15" d="M118 104.2L155.6 77"/><linearGradient id="SVGID_7_" gradientUnits="userSpaceOnUse" x1="89.215" y1="117.009" x2="111.526" y2="117.009"><stop offset=".151" stop-color="#0080FF"/><stop offset="1" stop-color="#00D688"/></linearGradient><circle cx="100.4" cy="117" r="9.9" fill="none" stroke="url(#SVGID_7_)" stroke-width="2.5" stroke-linecap="round" stroke-miterlimit="10"/><circle class="st17" cx="100.4" cy="117" r="4.4"/><linearGradient id="SVGID_8_" gradientUnits="userSpaceOnUse" x1="160.304" y1="65.483" x2="182.616" y2="65.483"><stop offset=".151" stop-color="#0080FF"/><stop offset="1" stop-color="#00D688"/></linearGradient><circle cx="171.5" cy="65.5" r="9.9" fill="none" stroke="url(#SVGID_8_)" stroke-width="2.5" stroke-linecap="round" stroke-miterlimit="10"/><circle class="st17" cx="171.5" cy="65.5" r="4.4"/><linearGradient id="SVGID_9_" gradientUnits="userSpaceOnUse" x1="237.011" y1="115.142" x2="259.322" y2="115.142"><stop offset=".151" stop-color="#0080FF"/><stop offset="1" stop-color="#00D688"/></linearGradient><circle cx="248.2" cy="115.1" r="9.9" fill="none" stroke="url(#SVGID_9_)" stroke-width="2.5" stroke-linecap="round" stroke-miterlimit="10"/><circle class="st17" cx="248.2" cy="115.1" r="4.4"/><linearGradient id="SVGID_10_" gradientUnits="userSpaceOnUse" x1="307.538" y1="115.402" x2="329.849" y2="115.402"><stop offset=".151" stop-color="#0080FF"/><stop offset="1" stop-color="#00D688"/></linearGradient><circle cx="318.7" cy="115.4" r="9.9" fill="none" stroke="url(#SVGID_10_)" stroke-width="2.5" stroke-linecap="round" stroke-miterlimit="10"/><circle class="st17" cx="318.7" cy="115.4" r="4.4"/></svg>