<svg id="Layer_1" xmlns="http://www.w3.org/2000/svg" viewBox="0 0 168.2 150"><style>.st0{fill:#fff}.st1{opacity:.5}.st2{fill:url(#SVGID_1_)}.st3{fill:url(#SVGID_2_)}.st4,.st5{stroke-width:2;stroke-miterlimit:10}.st4{fill:none;stroke-linecap:round;stroke-dasharray:0,4;stroke:url(#SVGID_3_)}.st5{stroke:url(#SVGID_4_)}.st5,.st6,.st7{fill:none;stroke-linecap:round;stroke-dasharray:0,4}.st6{stroke-width:2;stroke-miterlimit:10;stroke:#00d688}.st7{stroke:url(#SVGID_5_)}.st7,.st8,.st9{stroke-width:2;stroke-miterlimit:10}.st8{fill:none;stroke-linecap:round;stroke-dasharray:0,4;stroke:url(#SVGID_6_)}.st9{stroke:url(#SVGID_7_)}.st10,.st11,.st9{fill:none;stroke-linecap:round;stroke-dasharray:0,4}.st10{stroke-width:2;stroke-miterlimit:10;stroke:url(#SVGID_8_)}.st11{stroke:url(#SVGID_9_)}.st11,.st12,.st13,.st14,.st15,.st16{stroke-width:2;stroke-miterlimit:10}.st12{stroke-linecap:round;stroke-dasharray:0,4;fill:none;stroke:#0080ff}.st13{stroke:url(#SVGID_10_)}.st13,.st14,.st15,.st16{fill:#fff}.st14{stroke:url(#SVGID_11_)}.st15{stroke:url(#SVGID_12_)}.st16{stroke:url(#SVGID_13_)}.st17{fill:url(#SVGID_14_)}.st18{fill:url(#SVGID_15_)}.st19{fill:url(#SVGID_16_)}.st20{fill:url(#SVGID_17_)}</style><path class="st0" d="M84 145.6l84.1-28.2L84 89.3 0 117.4z"/><g class="st1"><linearGradient id="SVGID_1_" gradientUnits="userSpaceOnUse" y1="105.532" x2="168.065" y2="105.532"><stop offset="0" stop-color="#0053ff"/><stop offset="1" stop-color="#00da88"/></linearGradient><path class="st2" d="M0 121.8l84-28.2 84.1 28.2v-4.4L84 89.3 0 117.4z"/></g><linearGradient id="SVGID_2_" gradientUnits="userSpaceOnUse" y1="133.748" x2="168.065" y2="133.748"><stop offset="0" stop-color="#0053ff"/><stop offset="1" stop-color="#00da88"/></linearGradient><path class="st3" d="M168.1 117.5L84 145.6 0 117.5v4.4L84 150l84.1-28.1z"/><linearGradient id="SVGID_3_" gradientUnits="userSpaceOnUse" x1="166.762" y1="42.107" x2="166.762" y2="117.107"><stop offset="0" stop-color="#00d688"/><stop offset="1" stop-color="#0069ff"/></linearGradient><path class="st4" d="M166.8 43.1v73"/><linearGradient id="SVGID_4_" gradientUnits="userSpaceOnUse" x1="131.762" y1="97.107" x2="131.762" y2="128.107"><stop offset="0" stop-color="#00d688"/><stop offset="1" stop-color="#0069ff"/></linearGradient><path class="st5" d="M131.8 98.1v29"/><path class="st6" d="M131.8 53.6v10"/><linearGradient id="SVGID_5_" gradientUnits="userSpaceOnUse" x1="34.762" y1="46.107" x2="34.762" y2="92.107"><stop offset="0" stop-color="#00d688"/><stop offset="1" stop-color="#0069ff"/></linearGradient><path class="st7" d="M34.8 47.1v44"/><linearGradient id="SVGID_6_" gradientUnits="userSpaceOnUse" x1="60.762" y1="76.107" x2="60.762" y2="97.107"><stop offset="0" stop-color="#00d688"/><stop offset="1" stop-color="#0069ff"/></linearGradient><path class="st8" d="M60.8 77.1v19"/><linearGradient id="SVGID_7_" gradientUnits="userSpaceOnUse" x1="153.762" y1="90.107" x2="153.762" y2="123.107"><stop offset="0" stop-color="#00d688"/><stop offset="1" stop-color="#0069ff"/></linearGradient><path class="st9" d="M153.8 91.1v31"/><linearGradient id="SVGID_8_" gradientUnits="userSpaceOnUse" x1="98.762" y1="89.107" x2="98.762" y2="113.107"><stop offset="0" stop-color="#00d688"/><stop offset="1" stop-color="#0069ff"/></linearGradient><path class="st10" d="M98.8 90.1v22"/><path class="st6" d="M98.8 43.6v10"/><linearGradient id="SVGID_9_" gradientUnits="userSpaceOnUse" x1="1.762" y1="39.107" x2="1.762" y2="115.107"><stop offset="0" stop-color="#00d688"/><stop offset="1" stop-color="#0069ff"/></linearGradient><path class="st11" d="M1.8 40.1v74"/><path class="st12" d="M84.8 136.6v5"/><g id="Server_1_25_"><linearGradient id="SVGID_10_" gradientUnits="userSpaceOnUse" x1="10.264" y1="117.377" x2="108.901" y2="117.377"><stop offset="0" stop-color="#00d688"/><stop offset="1" stop-color="#0069ff"/></linearGradient><path class="st13" d="M107.9 117.9v5.8L83.6 132l-72.3-24.3v-6"/></g><g id="Server_1_24_"><linearGradient id="SVGID_11_" gradientUnits="userSpaceOnUse" x1=".287" y1="26.832" x2="107.993" y2="26.832"><stop offset="0" stop-color="#00d688"/><stop offset="1" stop-color="#0069ff"/></linearGradient><path class="st14" d="M1.5 25.3l-.2 5.5 33.1 10.8L107 16.9l-.1-5.9"/></g><g id="Server_1_23_"><linearGradient id="SVGID_12_" gradientUnits="userSpaceOnUse" x1="96.071" y1="39.759" x2="168.076" y2="39.759"><stop offset="0" stop-color="#00d688"/><stop offset="1" stop-color="#0069ff"/></linearGradient><path class="st15" d="M167.1 30.2V36l-37.2 12.3-32.8-10.7v-5.8"/></g><linearGradient id="SVGID_13_" gradientUnits="userSpaceOnUse" x1="56.854" y1="78.059" x2="155.303" y2="78.059"><stop offset="0" stop-color="#00d688"/><stop offset="1" stop-color="#0069ff"/></linearGradient><path class="st16" d="M57.9 62.4v6l72.2 24.3 24.2-8.3v-5.9"/><g id="Server_1_22_"><linearGradient id="SVGID_14_" gradientUnits="userSpaceOnUse" x1="10.264" y1="109.67" x2="108.901" y2="109.67"><stop offset="0" stop-color="#fff"/><stop offset=".089" stop-color="#e2efff"/><stop offset=".346" stop-color="#93c3ff"/><stop offset=".575" stop-color="#54a0ff"/><stop offset=".767" stop-color="#2687ff"/><stop offset=".914" stop-color="#0a78ff"/><stop offset="1" stop-color="#0072ff"/></linearGradient><path class="st17" d="M84.1 126.4l24.8-8.6L35 93l-24.7 8.5z"/></g><g id="Server_1_21_"><linearGradient id="SVGID_15_" gradientUnits="userSpaceOnUse" x1=".157" y1="18.119" x2="108.013" y2="18.119"><stop offset="0" stop-color="#fff"/><stop offset=".089" stop-color="#e2efff"/><stop offset=".346" stop-color="#93c3ff"/><stop offset=".575" stop-color="#54a0ff"/><stop offset=".767" stop-color="#2687ff"/><stop offset=".914" stop-color="#0a78ff"/><stop offset="1" stop-color="#0072ff"/></linearGradient><path class="st18" d="M33.9 36.2L108 11 74.3 0 .2 25.2z"/></g><g id="Server_1_20_"><linearGradient id="SVGID_16_" gradientUnits="userSpaceOnUse" x1="96.185" y1="30.971" x2="168.15" y2="30.971"><stop offset="0" stop-color="#fff"/><stop offset=".089" stop-color="#e2efff"/><stop offset=".346" stop-color="#93c3ff"/><stop offset=".575" stop-color="#54a0ff"/><stop offset=".767" stop-color="#2687ff"/><stop offset=".914" stop-color="#0a78ff"/><stop offset="1" stop-color="#0072ff"/></linearGradient><path class="st19" d="M129.9 42.8l38.3-12.6-33.8-11.1-38.2 12.7z"/></g><g id="Server_1_19_"><linearGradient id="SVGID_17_" gradientUnits="userSpaceOnUse" x1="56.666" y1="70.357" x2="155.303" y2="70.357"><stop offset="0" stop-color="#fff"/><stop offset=".089" stop-color="#e2efff"/><stop offset=".346" stop-color="#93c3ff"/><stop offset=".575" stop-color="#54a0ff"/><stop offset=".767" stop-color="#2687ff"/><stop offset=".914" stop-color="#0a78ff"/><stop offset="1" stop-color="#0072ff"/></linearGradient><path class="st20" d="M130.5 87l24.8-8.5-73.9-24.8-24.7 8.5z"/></g></svg>