<svg id="Layer_1" xmlns="http://www.w3.org/2000/svg" viewBox="0 0 185.1 152.1"><style>.st0{fill:none;stroke:url(#SVGID_1_);stroke-width:2.5;stroke-miterlimit:10}.st1{opacity:.5;fill:url(#SVGID_2_)}.st2{fill:#fff;stroke:url(#SVGID_3_);stroke-width:2;stroke-miterlimit:10}.st3{fill:url(#SVGID_4_)}.st4{fill:url(#SVGID_5_)}.st5{fill:none;stroke:url(#SVGID_6_);stroke-width:2;stroke-linecap:round;stroke-miterlimit:10;stroke-dasharray:0,4}.st6{opacity:.3}.st7{fill:none;stroke:#0080ff;stroke-miterlimit:10}.st10,.st8,.st9{enable-background:new}.st8{fill:url(#SVGID_7_)}.st9{fill:url(#SVGID_8_)}.st10{fill:url(#SVGID_9_)}.st11{fill:none;stroke:#0080ff;stroke-width:2.5;stroke-miterlimit:10}.st12,.st13{enable-background:new}.st13{fill:#fff}.st14,.st15{fill:none;stroke:#0080ff;stroke-width:2;stroke-miterlimit:10}.st15{stroke:url(#SVGID_10_)}.st16,.st17{stroke:#0080ff}.st16,.st17,.st18,.st19,.st20,.st21{fill:none;stroke-miterlimit:10}.st16{stroke-linecap:round;stroke-dasharray:0,4;stroke-width:2}.st17{stroke-width:1.5}.st18{stroke:url(#SVGID_11_)}.st18,.st19,.st20,.st21{stroke-width:2}.st19{stroke:url(#SVGID_12_)}.st20{stroke:url(#SVGID_13_)}.st21{stroke:url(#SVGID_14_)}.st22{fill:url(#SVGID_15_);enable-background:new}</style><path class="st6 st7" d="M64.8 49.5V8.2M31.3 69.5L64.8 49l33.8 20.9"/><linearGradient id="SVGID_1_" gradientUnits="userSpaceOnUse" x1="24" y1="136.534" x2="24" y2="96.542"><stop offset="0" stop-color="#0067ff" stop-opacity=".7"/><stop offset="1" stop-color="#0067ff" stop-opacity="0"/></linearGradient><path fill="url(#SVGID_1_)" d="M24 96.5l17.3 10.6v18.8L24 136.5 6.7 125.9v-18.8z"/><linearGradient id="SVGID_2_" gradientUnits="userSpaceOnUse" x1="98.064" y1="140.404" x2="98.064" y2="81.535"><stop offset="0" stop-color="#0067ff" stop-opacity=".7"/><stop offset="1" stop-color="#0067ff" stop-opacity="0"/></linearGradient><path fill="url(#SVGID_2_)" d="M98.1 81.5l25.5 15.6v27.7l-25.5 15.6-25.5-15.6V97.1z"/><linearGradient id="SVGID_3_" gradientUnits="userSpaceOnUse" x1="155.64" y1="63.179" x2="155.64" y2="12.184"><stop offset="0" stop-color="#0067ff" stop-opacity=".7"/><stop offset="1" stop-color="#0067ff" stop-opacity="0"/></linearGradient><path fill="url(#SVGID_3_)" d="M155.6 12.2l22.1 13.5v24l-22.1 13.5-22-13.5v-24z"/><path class="st11" d="M98 28.2v41.1L64.5 89.7 31.1 69.3V28.2L64.5 7.7z"/><path class="st12 st13" d="M80.8 51.8c0 9.1-7.3 16.4-16.4 16.4S48 60.9 48 51.8c0-10.7 16.4-24.3 16.4-24.3s16.4 14.1 16.4 24.3z"/><path class="st6 st7" d="M98.2 110.8V69.7m-33.6 60.9L98 110.1l33.4 20.3"/><path class="st14" d="M98.1 110.1v41.1m33.6-61l-33.4 20.6-33.4-20.4"/><path class="st14" d="M97.9 69l33.5 20.4v41L97.9 151l-33.3-20.6V89.6"/><path class="st6 st7" d="M155 37V1.4m-28.9 52.8L155 36.5l29.1 18"/><linearGradient id="SVGID_4_" gradientUnits="userSpaceOnUse" x1="127.656" y1="58.238" x2="182.663" y2="15.262"><stop offset="0" stop-color="#0080ff"/><stop offset="1" stop-color="#00d688"/></linearGradient><path fill="none" stroke="url(#SVGID_4_)" stroke-width="2" stroke-miterlimit="10" d="M184.1 19v35.5l-29 17.7-28.9-17.7V19l28.9-17.8z"/><path class="st6 st7" d="M23.8 116V88.3M1.2 130l22.6-14 22.7 14"/><path class="st16" d="M118.9 23.2l-14.4 8.2m15.1 26.1l-12.8 8.2m41.1 10.6l-13.4 8.6m-77 37.6l-6.5 4.1m6.1-31.1l-7 4.1M34.2 82.1l-7.8 4.3"/><path class="st17" d="M155.2 37v35.6"/><path class="st14" d="M155.2 37.5l-29.1-18"/><linearGradient id="SVGID_5_" gradientUnits="userSpaceOnUse" x1="154.718" y1="28.658" x2="184.638" y2="28.658"><stop offset="0" stop-color="#0080ff"/><stop offset="1" stop-color="#00d688"/></linearGradient><path fill="none" stroke="url(#SVGID_5_)" stroke-width="2" stroke-miterlimit="10" d="M184.1 19.8l-28.9 17.7"/><linearGradient id="SVGID_6_" gradientUnits="userSpaceOnUse" x1="23.827" y1="144.122" x2="23.827" y2="116.424"><stop offset="0" stop-color="#00d688"/><stop offset="1" stop-color="#0069ff"/></linearGradient><path fill="none" stroke="url(#SVGID_6_)" stroke-width="2" stroke-miterlimit="10" d="M23.8 116.4v27.7"/><linearGradient id="SVGID_7_" gradientUnits="userSpaceOnUse" x1=".666" y1="109.452" x2="24.351" y2="109.452"><stop offset="0" stop-color="#00d688"/><stop offset="1" stop-color="#0069ff"/></linearGradient><path fill="none" stroke="url(#SVGID_7_)" stroke-width="2" stroke-miterlimit="10" d="M23.8 116.4L1.2 102.5"/><path class="st14" d="M46.5 102.5l-22.7 13.9"/><linearGradient id="SVGID_8_" gradientUnits="userSpaceOnUse" x1="2.054" y1="133.061" x2="45.793" y2="98.889"><stop offset="0" stop-color="#00d688"/><stop offset="1" stop-color="#0069ff"/></linearGradient><path fill="none" stroke="url(#SVGID_8_)" stroke-width="2" stroke-miterlimit="10" d="M46.8 102.1v27.8l-23 13.9L1 129.9v-27.8l22.8-14z"/><g class="st12"><linearGradient id="SVGID_9_" gradientUnits="userSpaceOnUse" x1="50.921" y1="-497.656" x2="80.433" y2="-511.417" gradientTransform="matrix(1 0 0 -1 0 -455.17)"><stop offset="0" stop-color="#0080ff"/><stop offset="1" stop-color="#0080ff" stop-opacity=".1"/></linearGradient><path class="st10" d="M80.8 51.8c0 9.1-7.3 16.4-16.4 16.4S48 60.9 48 51.8c0-10.7 16.4-24.3 16.4-24.3s16.4 14.1 16.4 24.3z"/></g></svg>