<svg id="Layer_1" xmlns="http://www.w3.org/2000/svg" viewBox="0 0 75.1 91.1"><style>.st0,.st1,.st2{fill-rule:evenodd;clip-rule:evenodd}.st0{stroke:url(#SVGID_1_);stroke-miterlimit:10;fill:none}.st1{fill:url(#SVGID_2_)}.st2{fill:#fff}.st3{fill:none;stroke:#fff;stroke-width:2;stroke-linecap:round;stroke-linejoin:round;stroke-miterlimit:10;stroke-dasharray:0,4}</style><linearGradient id="SVGID_1_" gradientUnits="userSpaceOnUse" x1="37.532" y1="91.119" x2="37.532"><stop offset="0" stop-color="#FFF"/><stop offset="1" stop-color="#FFF"/></linearGradient><path class="st0" d="M74.6 53.6c0 20.5-16.6 37-37 37S.6 74 .6 53.6c0-26.4 37-53 37-53s37 27.6 37 53z"/><linearGradient id="SVGID_2_" gradientUnits="userSpaceOnUse" x1="14.04" y1="34.268" x2="65.625" y2="69.797"><stop offset="0" stop-color="#FFF" stop-opacity=".6"/><stop offset="1" stop-color="#FFF" stop-opacity=".1"/></linearGradient><path class="st1" d="M69.3 53.8c0 17.5-14.2 31.8-31.8 31.8S5.8 71.3 5.8 53.8c0-22.7 31.8-45.2 31.8-45.2s31.7 23.3 31.7 45.2z"/><path class="st2" d="M44 53.1a6.7 6.7 0 0 1-13.4 0c0-3.7 6.7-9.2 6.7-9.2s6.7 5.5 6.7 9.2z"/><path class="st3" d="M53.6 36.6l-6 6.4m-26.7-6.4l6 6.4m26.7 27.4l-6-6.3m-26.7 6.3l6-6.3m10-40.7l.2 15.3M13.7 53.1l8.8.3m38.3.5l-8.8-.2M37.6 77l-.2-8.7"/></svg>