<svg id="Layer_1" xmlns="http://www.w3.org/2000/svg" viewBox="0 0 222 126.3"><style>.st0{fill:none;stroke:url(#SVGID_1_);stroke-width:2.5;stroke-miterlimit:10}.st1{opacity:.5;fill:url(#SVGID_2_)}.st2{fill:#fff;stroke:url(#SVGID_3_);stroke-width:2;stroke-miterlimit:10}.st3{fill:url(#SVGID_4_)}.st4{fill:url(#SVGID_5_)}.st5{fill:none;stroke:url(#SVGID_6_);stroke-width:2;stroke-linecap:round;stroke-miterlimit:10;stroke-dasharray:0,4}.st6{stroke:url(#SVGID_7_)}.st6,.st7,.st8{fill:none;stroke-width:2;stroke-linecap:round;stroke-miterlimit:10}.st7{stroke-dasharray:0,4.0037;stroke:url(#SVGID_8_)}.st8{stroke:url(#SVGID_9_)}.st10,.st9{fill:#fff}.st10{stroke:#0072ff;stroke-width:2.5;stroke-miterlimit:10}.st11{fill:url(#SVGID_10_)}.st12,.st13{fill:#fff;stroke:url(#SVGID_11_);stroke-width:2.5;stroke-miterlimit:10}.st13{fill:none;stroke:#fff;stroke-width:2}.st14{fill:url(#SVGID_12_)}.st15{fill:none;stroke:url(#SVGID_13_);stroke-width:2.5;stroke-miterlimit:10}.st16{stroke:url(#SVGID_14_)}.st16,.st17,.st18{fill:none;stroke-width:2;stroke-linecap:round;stroke-miterlimit:10}.st17{stroke-dasharray:0,4.0037;stroke:url(#SVGID_15_)}.st18{stroke:url(#SVGID_16_)}</style><linearGradient id="SVGID_1_" gradientUnits="userSpaceOnUse" y1="93.683" x2="222" y2="93.683"><stop offset="0" stop-color="#00D688"/><stop offset="1" stop-color="#0069FF"/></linearGradient><linearGradient id="SVGID_2_" gradientUnits="userSpaceOnUse" y1="86.734" x2="222" y2="86.734"><stop offset="0" stop-color="#00D688"/><stop offset="1" stop-color="#0069FF"/></linearGradient><path d="M3.7 91c11.1-5.5 54.9-9.5 107.3-9.5 55.7 0 101.7 4.6 109 10.6" fill="none" stroke="url(#SVGID_2_)" stroke-width="2" stroke-linecap="round" stroke-miterlimit="10" stroke-dasharray="0 4.004"/><linearGradient id="SVGID_3_" gradientUnits="userSpaceOnUse" y1="93.683" x2="222" y2="93.683"><stop offset="0" stop-color="#00D688"/><stop offset="1" stop-color="#0069FF"/></linearGradient><path class="st9" d="M69.4 47.9l-7.3-11.2H28.6l-5.2 11.2H11L32.5 125h146.7l-21.5-77.1z"/><path class="st10" d="M69.4 47.9l-7.3-11.2H28.6l-5.2 11.2H11L32.5 125h146.7l-21.5-77.1z"/><linearGradient id="SVGID_4_" gradientUnits="userSpaceOnUse" x1="108.362" x2="108.362" y2="125.022"><stop offset="0" stop-color="#0080FF"/><stop offset="1" stop-color="#0069FF" stop-opacity="0"/></linearGradient><path class="st3" d="M37.5 0h141.8v125H37.5z"/><linearGradient id="SVGID_5_" gradientUnits="userSpaceOnUse" x1="1282.847" y1="80.836" x2="1111.278" y2="80.836" gradientTransform="matrix(1 0 -.712 1 -1011.492 0)"><stop offset="0" stop-color="#00D688"/><stop offset="1" stop-color="#0069FF"/></linearGradient><path fill="#FFF" stroke="url(#SVGID_5_)" stroke-width="2.5" stroke-miterlimit="10" d="M125.7 47.9l.8-11.2H92.9L79.7 47.9H67.3L34 125h146.7L214 47.9z"/><path class="st13" d="M47.8 12h58.1m-58.1 8.5h58.1"/><linearGradient id="SVGID_6_" gradientUnits="userSpaceOnUse" x1="37.776" y1="80.836" x2="210.237" y2="80.836"><stop offset="0" stop-color="#0080FF" stop-opacity=".5"/><stop offset="1" stop-color="#0069FF" stop-opacity="0"/></linearGradient><path fill="url(#SVGID_6_)" d="M37.8 122.5L69 50.4h11.6l13.2-11.2h30l-.8 11.2h87.2l-31.1 72.1z"/><path class="st9" d="M121.1 41.7l-.4 5.9-.4 5.4h86.1l-29 67.1H41.6l29-67.1h10.9l1.4-1.2 11.8-10.1h26.4m5.4-5H92.9L79.7 47.9H67.3L34 125h146.7L214 47.9h-88.3l.8-11.2z"/><linearGradient id="SVGID_7_" gradientUnits="userSpaceOnUse" x1="1282.847" y1="80.836" x2="1111.278" y2="80.836" gradientTransform="matrix(1 0 -.712 1 -1011.492 0)"><stop offset="0" stop-color="#00D688"/><stop offset="1" stop-color="#0069FF"/></linearGradient><path fill="none" stroke="url(#SVGID_7_)" stroke-width="2.5" stroke-miterlimit="10" d="M125.7 47.9l.8-11.2H92.9L79.7 47.9H67.3L34 125h146.7L214 47.9z"/><linearGradient id="SVGID_8_" gradientUnits="userSpaceOnUse" y1="93.683" x2="222" y2="93.683"><stop offset="0" stop-color="#00D688"/><stop offset="1" stop-color="#0069FF"/></linearGradient><linearGradient id="SVGID_9_" gradientUnits="userSpaceOnUse" y1="100.633" x2="222" y2="100.633"><stop offset="0" stop-color="#00D688"/><stop offset="1" stop-color="#0069FF"/></linearGradient><path d="M218.3 96.4c-11.1 5.5-54.9 9.5-107.3 9.5-55.7 0-101.7-4.6-109-10.6" fill="none" stroke="url(#SVGID_9_)" stroke-width="2" stroke-linecap="round" stroke-miterlimit="10" stroke-dasharray="0 4.004"/><linearGradient id="SVGID_10_" gradientUnits="userSpaceOnUse" y1="93.683" x2="222" y2="93.683"><stop offset="0" stop-color="#00D688"/><stop offset="1" stop-color="#0069FF"/></linearGradient></svg>