<svg id="Layer_1" data-name="Layer 1" xmlns="http://www.w3.org/2000/svg" xmlns:xlink="http://www.w3.org/1999/xlink" viewBox="0 0 1439.63 425.33"><defs><style>.cls-1{fill:url(#linear-gradient)}.cls-2{fill:#dae4ea}.cls-3{fill:url(#linear-gradient-2)}.cls-4{fill:url(#linear-gradient-3)}.cls-5{fill:url(#linear-gradient-4)}.cls-6{fill:url(#linear-gradient-5)}.cls-7{fill:url(#linear-gradient-6)}.cls-8{fill:url(#linear-gradient-7)}.cls-9{fill:url(#linear-gradient-8)}.cls-10{fill:url(#linear-gradient-9)}.cls-11{fill:url(#linear-gradient-10)}.cls-12{fill:url(#linear-gradient-11)}</style><linearGradient id="linear-gradient" x1="694.9" y1="181.9" x2="773.77" y2="181.9" gradientTransform="rotate(18.2 948.59 -44.25)" gradientUnits="userSpaceOnUse"><stop offset="0" stop-color="#dae4ea"/><stop offset="1" stop-color="#dae4ea" stop-opacity="0"/></linearGradient><linearGradient id="linear-gradient-2" x1="641.63" y1="366.63" x2="720.5" y2="366.63" gradientTransform="matrix(.72 .7 -.7 .72 305.39 -493.02)" xlink:href="#linear-gradient"/><linearGradient id="linear-gradient-3" x1="358.88" y1="532.2" x2="437.76" y2="532.2" gradientTransform="rotate(72.5 569.35 212.61)" xlink:href="#linear-gradient"/><linearGradient id="linear-gradient-4" x1="461.65" y1="371.44" x2="540.52" y2="371.44" gradientTransform="rotate(-168.2 428.13 336.88)" xlink:href="#linear-gradient"/><linearGradient id="linear-gradient-5" x1="509.24" y1="206.17" x2="588.11" y2="206.17" gradientTransform="matrix(-.72 .7 -.7 -.72 886.23 250.54)" xlink:href="#linear-gradient"/><linearGradient id="linear-gradient-6" x1="517.92" y1="377.3" x2="596.79" y2="377.3" gradientTransform="translate(-404.29 93.02)" xlink:href="#linear-gradient"/><linearGradient id="linear-gradient-7" x1="1000.35" y1="252.56" x2="1079.22" y2="252.56" gradientTransform="rotate(-140.4 998.29 232.31)" xlink:href="#linear-gradient"/><linearGradient id="linear-gradient-8" x1="982.1" y1="543.47" x2="1060.97" y2="543.47" gradientTransform="matrix(.73 -.7 .7 .73 191.89 444.71)" xlink:href="#linear-gradient"/><linearGradient id="linear-gradient-9" x1="868.37" y1="681.87" x2="947.24" y2="681.87" gradientTransform="translate(382.33 -350.49)" xlink:href="#linear-gradient"/><linearGradient id="linear-gradient-10" x1="1138.62" y1="797.9" x2="1217.49" y2="797.9" gradientTransform="rotate(31.2 1903.13 1259.03)" xlink:href="#linear-gradient"/><linearGradient id="linear-gradient-11" x1="609.06" y1="743.15" x2="687.93" y2="743.15" gradientTransform="matrix(.63 -.77 .77 .63 78.3 421.49)" xlink:href="#linear-gradient"/></defs><path class="cls-1" d="M705.3 110.1l-67.48-22.87a3.81 3.81 0 0 0-2.45 7.22l67.48 22.88a3.81 3.81 0 1 0 2.45-7.23z" transform="translate(-115.95 -87.02)"/><circle class="cls-2" cx="636.59" cy="90.84" r="3.81" transform="rotate(-71.3 517.95 128.19)"/><path class="cls-3" d="M567.64 266.27l-51.17-49.58a3.81 3.81 0 1 0-5.3 5.47l51.17 49.58a3.81 3.81 0 1 0 5.3-5.47z" transform="translate(-115.95 -87.02)"/><circle class="cls-2" cx="513.82" cy="219.42" r="3.81" transform="rotate(-45.9 353.06 312.8)"/><path class="cls-4" d="M227.51 178.33l-21.41-68a3.81 3.81 0 0 0-7.27 2.29l21.41 68a3.81 3.81 0 0 0 7.27-2.29z" transform="translate(-115.95 -87.02)"/><circle class="cls-2" cx="202.47" cy="111.52" r="3.81" transform="rotate(-17.5 -138.51 445.13)"/><path class="cls-5" d="M328.1 284.61l69.75 14.56a3.81 3.81 0 0 0 1.56-7.46l-69.75-14.56a3.81 3.81 0 1 0-1.56 7.46z" transform="translate(-115.95 -87.02)"/><circle class="cls-2" cx="398.63" cy="295.45" r="3.81" transform="rotate(-78.2 287.14 323.27)"/><path class="cls-6" d="M325.54 511.29l51.22-49.53a3.81 3.81 0 0 0-5.3-5.48l-51.22 49.53a3.81 3.81 0 1 0 5.3 5.48z" transform="translate(-115.95 -87.02)"/><circle class="cls-2" cx="374.11" cy="459.01" r="3.81" transform="rotate(-44 208.58 558.88)"/><path class="cls-7" d="M191 462.82l-71.25.44a3.81 3.81 0 1 0 0 7.62l71.25-.44a3.81 3.81 0 1 0 0-7.62z" transform="translate(-115.95 -87.02)"/><circle class="cls-2" cx="119.76" cy="467.08" r="3.81" transform="translate(-118.85 -86.27)"/><path class="cls-8" d="M952.1 170l54.7 45.66a3.81 3.81 0 0 0 4.88-5.85L957 164.14a3.81 3.81 0 0 0-4.9 5.86z" transform="translate(-115.95 -87.02)"/><circle class="cls-2" cx="1009.24" cy="212.72" r="3.81" transform="rotate(-50.1 858.21 293.13)"/><path class="cls-9" d="M1330.87 110.7l-51.78 48.94a3.81 3.81 0 1 0 5.24 5.54l51.78-48.94a3.81 3.81 0 0 0-5.24-5.54z" transform="translate(-115.95 -87.02)"/><circle class="cls-2" cx="1281.7" cy="162.41" r="3.81" transform="rotate(-43.4 1114.29 264.64)"/><path class="cls-10" d="M1325.06 328.54l-71.25-.07a3.81 3.81 0 0 0 0 7.62l71.25.07a3.81 3.81 0 1 0 0-7.62z" transform="translate(-115.95 -87.02)"/><circle class="cls-2" cx="1253.81" cy="332.28" r="3.81" transform="rotate(-89.9 1152.29 346.79)"/><path class="cls-11" d="M1553.75 504.42l-61-36.87a3.81 3.81 0 0 0-3.94 6.52l61 36.87a3.81 3.81 0 1 0 3.94-6.52z" transform="translate(-115.95 -87.02)"/><circle class="cls-2" cx="1490.81" cy="470.81" r="3.81" transform="rotate(-58.8 1355.7 530.1)"/><path class="cls-12" d="M1083.63 358.63l-45 55.21a3.81 3.81 0 1 0 5.91 4.82l45-55.21a3.81 3.81 0 0 0-5.91-4.82z" transform="translate(-115.95 -87.02)"/><circle class="cls-2" cx="1041.55" cy="416.25" r="3.81" transform="rotate(-50.8 891.94 494.83)"/></svg>