<svg id="Layer_1" xmlns="http://www.w3.org/2000/svg" viewBox="0 0 377.5 320"><style>.st0{fill:none;stroke:url(#SVGID_1_);stroke-width:2.5;stroke-miterlimit:10}.st1{opacity:.5;fill:url(#SVGID_2_)}.st2{fill:#fff;stroke:url(#SVGID_3_);stroke-width:2;stroke-miterlimit:10}.st3{fill:url(#SVGID_4_)}.st4{fill:url(#SVGID_5_)}.st5{fill:none;stroke:url(#SVGID_6_);stroke-width:2;stroke-linecap:round;stroke-miterlimit:10;stroke-dasharray:0,4}.st6{fill:url(#SVGID_7_)}.st7{fill:none;stroke:url(#SVGID_8_);stroke-width:2.5;stroke-linecap:round;stroke-miterlimit:10}.st8{fill:url(#SVGID_9_)}.st9{fill:none;stroke:url(#SVGID_10_);stroke-width:2.5;stroke-linecap:round;stroke-miterlimit:10}.st10{fill:url(#SVGID_11_)}.st11{fill:url(#SVGID_12_)}.st12{fill:none;stroke:url(#SVGID_13_);stroke-width:2.5;stroke-linecap:round;stroke-miterlimit:10}.st13{fill:url(#SVGID_14_)}.st14,.st15{fill:none;stroke-width:2;stroke-miterlimit:10}.st14{opacity:.71;enable-background:new;stroke:#fff}.st15{stroke:#0080ff;stroke-linecap:round;stroke-dasharray:0,5}.st16{fill:url(#SVGID_15_)}.st17{fill:url(#SVGID_16_)}.st18{fill:url(#SVGID_17_)}.st19{fill:#0080ff}.st20{fill:none;stroke:url(#SVGID_18_);stroke-width:2.5;stroke-linecap:round;stroke-miterlimit:10}</style><linearGradient id="SVGID_1_" gradientUnits="userSpaceOnUse" x1="158.191" y1="48.963" x2="219.718" y2="48.963"><stop offset="0" stop-color="#0069FF" stop-opacity=".5"/><stop offset=".215" stop-color="#0069FF" stop-opacity=".3"/><stop offset="1" stop-color="#0069FF" stop-opacity=".05"/></linearGradient><path d="M189 88.4c-17 0-30.8-13.8-30.8-30.8 0-22.7 30.8-48.1 30.8-48.1s30.8 23.7 30.8 48.1c-.1 17-13.9 30.8-30.8 30.8z" fill="url(#SVGID_1_)"/><linearGradient id="SVGID_2_" gradientUnits="userSpaceOnUse" x1="150.916" y1="47.998" x2="226.993" y2="47.998"><stop offset=".151" stop-color="#0080FF"/><stop offset="1" stop-color="#00D688"/></linearGradient><path d="M189 94.7c-20.3 0-36.8-16.5-36.8-36.8 0-30 36.8-56.4 36.8-56.4s36.8 25.9 36.8 56.4c-.1 20.4-16.5 36.8-36.8 36.8z" fill="none" stroke="url(#SVGID_2_)" stroke-width="2.5" stroke-linecap="round" stroke-miterlimit="10"/><linearGradient id="SVGID_3_" gradientUnits="userSpaceOnUse" x1="158.141" y1="256.808" x2="219.668" y2="256.808"><stop offset="0" stop-color="#0069FF" stop-opacity=".5"/><stop offset=".215" stop-color="#0069FF" stop-opacity=".3"/><stop offset="1" stop-color="#0069FF" stop-opacity=".05"/></linearGradient><path d="M188.9 296.3c-17 0-30.8-13.8-30.8-30.8 0-22.7 30.8-48.1 30.8-48.1s30.8 23.7 30.8 48.1c0 17-13.8 30.8-30.8 30.8z" fill="url(#SVGID_3_)"/><linearGradient id="SVGID_4_" gradientUnits="userSpaceOnUse" x1="150.866" y1="255.843" x2="226.942" y2="255.843"><stop offset=".151" stop-color="#0080FF"/><stop offset="1" stop-color="#00D688"/></linearGradient><path d="M188.9 302.6c-20.3 0-36.8-16.5-36.8-36.8 0-30 36.8-56.4 36.8-56.4s36.8 25.9 36.8 56.4c0 20.3-16.5 36.8-36.8 36.8z" fill="none" stroke="url(#SVGID_4_)" stroke-width="2.5" stroke-linecap="round" stroke-miterlimit="10"/><linearGradient id="SVGID_5_" gradientUnits="userSpaceOnUse" x1="19.771" y1="292.125" x2="56.306" y2="292.125" gradientTransform="translate(0 -80)"><stop offset="0" stop-color="#005DFF" stop-opacity=".15"/><stop offset=".436" stop-color="#0068FF" stop-opacity=".085"/><stop offset="1" stop-color="#0072FF" stop-opacity="0"/></linearGradient><ellipse class="st4" cx="38" cy="212.1" rx="18.3" ry="3.5"/><linearGradient id="SVGID_6_" gradientUnits="userSpaceOnUse" x1="7.275" y1="152.488" x2="68.802" y2="152.488"><stop offset="0" stop-color="#0069FF" stop-opacity=".5"/><stop offset=".215" stop-color="#0069FF" stop-opacity=".3"/><stop offset="1" stop-color="#0069FF" stop-opacity=".05"/></linearGradient><path d="M38 191.9c-17 0-30.8-13.8-30.8-30.8C7.3 138.5 38 113 38 113s30.8 23.7 30.8 48.1c0 17.1-13.8 30.8-30.8 30.8z" fill="url(#SVGID_6_)"/><linearGradient id="SVGID_7_" gradientUnits="userSpaceOnUse" y1="151.524" x2="76.076" y2="151.524"><stop offset=".151" stop-color="#0080FF"/><stop offset="1" stop-color="#00D688"/></linearGradient><path d="M38 198.3c-20.3 0-36.8-16.5-36.8-36.8 0-30 36.8-56.4 36.8-56.4s36.8 25.9 36.8 56.4c0 20.3-16.4 36.8-36.8 36.8z" fill="none" stroke="url(#SVGID_7_)" stroke-width="2.5" stroke-linecap="round" stroke-miterlimit="10"/><linearGradient id="SVGID_8_" gradientUnits="userSpaceOnUse" x1="308.698" y1="152.488" x2="370.225" y2="152.488"><stop offset="0" stop-color="#0069FF" stop-opacity=".5"/><stop offset=".215" stop-color="#0069FF" stop-opacity=".3"/><stop offset="1" stop-color="#0069FF" stop-opacity=".05"/></linearGradient><path d="M339.5 191.9c-17 0-30.8-13.8-30.8-30.8 0-22.7 30.8-48.1 30.8-48.1s30.8 23.7 30.8 48.1c-.1 17.1-13.8 30.8-30.8 30.8z" fill="url(#SVGID_8_)"/><path class="st14" d="M155.6 68.1l33.2-25 33.2 25M70.6 172.4l-29.2-21 21.7-16.3m151.4 104.3l-25.7 20.3-25.7-20.3m151.1-104.5l22 16.5-29.2 21"/><path class="st15" d="M70.9 129.6l77.2-57m8.7 162.6l-80.3-59m222.5 1.7l-77.4 57.4m8.6-161.9l78.2 57.7"/><linearGradient id="SVGID_9_" gradientUnits="userSpaceOnUse" x1="170.637" y1="396.45" x2="207.172" y2="396.45" gradientTransform="translate(0 -80)"><stop offset="0" stop-color="#005DFF" stop-opacity=".15"/><stop offset=".436" stop-color="#0068FF" stop-opacity=".085"/><stop offset="1" stop-color="#0072FF" stop-opacity="0"/></linearGradient><ellipse class="st8" cx="188.9" cy="316.5" rx="18.3" ry="3.5"/><linearGradient id="SVGID_10_" gradientUnits="userSpaceOnUse" x1="321.194" y1="292.109" x2="357.729" y2="292.109" gradientTransform="translate(0 -80)"><stop offset="0" stop-color="#005DFF" stop-opacity=".15"/><stop offset=".436" stop-color="#0068FF" stop-opacity=".085"/><stop offset="1" stop-color="#0072FF" stop-opacity="0"/></linearGradient><ellipse cx="339.5" cy="212.1" rx="18.3" ry="3.5" fill="url(#SVGID_10_)"/><linearGradient id="SVGID_11_" gradientUnits="userSpaceOnUse" x1="170.537" y1="187.8" x2="207.071" y2="187.8" gradientTransform="translate(0 -80)"><stop offset="0" stop-color="#005DFF" stop-opacity=".15"/><stop offset=".436" stop-color="#0068FF" stop-opacity=".085"/><stop offset="1" stop-color="#0072FF" stop-opacity="0"/></linearGradient><ellipse class="st10" cx="188.8" cy="107.8" rx="18.3" ry="3.5"/><circle class="st19" cx="267" cy="100.4" r="6.8"/><circle class="st19" cx="141.3" cy="223.7" r="6.8"/><linearGradient id="SVGID_12_" gradientUnits="userSpaceOnUse" x1="301.423" y1="151.524" x2="377.5" y2="151.524"><stop offset=".151" stop-color="#0080FF"/><stop offset="1" stop-color="#00D688"/></linearGradient><path d="M339.5 198.3c-20.3 0-36.8-16.5-36.8-36.8 0-30 36.8-56.4 36.8-56.4s36.8 25.9 36.8 56.4c-.1 20.3-16.5 36.8-36.8 36.8z" fill="none" stroke="url(#SVGID_12_)" stroke-width="2.5" stroke-linecap="round" stroke-miterlimit="10"/></svg>