<svg id="Layer_1" xmlns="http://www.w3.org/2000/svg" viewBox="0 0 377.5 184.5"><style>.st0{fill:none;stroke:url(#SVGID_1_);stroke-width:2.5;stroke-miterlimit:10}.st1{opacity:.5;fill:url(#SVGID_2_)}.st2{fill:#fff;stroke:url(#SVGID_3_);stroke-width:2;stroke-miterlimit:10}.st3{fill:url(#SVGID_4_)}.st4{fill:url(#SVGID_5_)}.st5,.st6{fill:none;stroke-linecap:round;stroke-miterlimit:10}.st5{stroke-dasharray:0,4;stroke:url(#SVGID_6_);stroke-width:2}.st6{stroke:url(#SVGID_7_);stroke-width:2.5}.st7{fill:url(#SVGID_8_)}.st8,.st9{stroke:#0080ff;stroke-width:2}.st8{fill:none;stroke-linecap:round;stroke-miterlimit:10}.st9{stroke-dasharray:0,4.9674}.st10,.st11,.st9{fill:none;stroke-linecap:round;stroke-miterlimit:10}.st10{stroke-dasharray:0,4.9562;stroke:#0080ff;stroke-width:2}.st11{stroke:url(#SVGID_9_);stroke-width:2.5}.st12{fill:url(#SVGID_10_)}.st13{fill:none;stroke:#0080ff;stroke-width:2;stroke-linecap:round;stroke-miterlimit:10;stroke-dasharray:0,4.7667}.st14{fill:url(#SVGID_11_)}.st15{fill:url(#SVGID_12_)}.st16{fill:url(#SVGID_13_)}.st17{fill:url(#SVGID_14_)}.st18,.st19,.st20,.st21{fill:none;stroke-width:2.5;stroke-miterlimit:10}.st18{stroke-linecap:round;stroke:#00d688}.st19,.st20{stroke:#0080ff}.st20,.st21{stroke-linecap:round}.st21{stroke:url(#SVGID_15_)}</style><linearGradient id="SVGID_1_" gradientUnits="userSpaceOnUse" y1="80.642" x2="214.22" y2="80.642"><stop offset=".151" stop-color="#0080FF"/><stop offset="1" stop-color="#00D688"/></linearGradient><path fill="none" stroke="url(#SVGID_1_)" stroke-width="2.5" stroke-linecap="round" stroke-miterlimit="10" d="M1.2 1.2h211.7V160H1.2z"/><linearGradient id="SVGID_2_" gradientUnits="userSpaceOnUse" x1="15.213" y1="91.552" x2="199.007" y2="91.552"><stop offset="0" stop-color="#005DFF" stop-opacity=".15"/><stop offset=".436" stop-color="#0068FF" stop-opacity=".085"/><stop offset="1" stop-color="#0072FF" stop-opacity="0"/></linearGradient><path fill="url(#SVGID_2_)" d="M15.2 37H199v109H15.2z"/><path class="st9" d="M194 146.1H17.7"/><path class="st10" d="M15.2 141.1V39.5"/><path class="st9" d="M20.2 37h176.3"/><path class="st10" d="M199 42v101.6"/><linearGradient id="SVGID_3_" gradientUnits="userSpaceOnUse" x1="274.567" y1="83.487" x2="377.5" y2="83.487"><stop offset=".151" stop-color="#0080FF"/><stop offset="1" stop-color="#00D688"/></linearGradient><path d="M326 148.6c-27.7 0-50.2-22.5-50.2-50.2 0-42.3 50.2-79.8 50.2-79.8s50.2 38.1 50.2 79.8c0 27.7-22.4 50.2-50.2 50.2z" fill="none" stroke="url(#SVGID_3_)" stroke-width="2.5" stroke-linecap="round" stroke-miterlimit="10"/><linearGradient id="SVGID_4_" gradientUnits="userSpaceOnUse" x1="284.041" y1="85.639" x2="368.026" y2="85.639"><stop offset="0" stop-color="#0069FF" stop-opacity=".5"/><stop offset=".215" stop-color="#0069FF" stop-opacity=".3"/><stop offset="1" stop-color="#0069FF" stop-opacity=".05"/></linearGradient><path class="st3" d="M326 139.5c-23.2 0-42-18.8-42-42 0-32.8 42-65.7 42-65.7s42 32.3 42 65.7c0 23.2-18.8 42-42 42z"/><path class="st13" d="M261.1 98.4h-35.8"/><linearGradient id="SVGID_5_" gradientUnits="userSpaceOnUse" x1="27.188" y1="54.619" x2="140.885" y2="54.619"><stop offset="0" stop-color="#0069FF" stop-opacity=".5"/><stop offset=".215" stop-color="#0069FF" stop-opacity=".3"/><stop offset="1" stop-color="#0069FF" stop-opacity=".05"/></linearGradient><path class="st4" d="M27.2 50h113.7v9.2H27.2z"/><linearGradient id="SVGID_6_" gradientUnits="userSpaceOnUse" x1="27.188" y1="72.504" x2="99.081" y2="72.504"><stop offset="0" stop-color="#0069FF" stop-opacity=".5"/><stop offset=".215" stop-color="#0069FF" stop-opacity=".3"/><stop offset="1" stop-color="#0069FF" stop-opacity=".05"/></linearGradient><path fill="url(#SVGID_6_)" d="M27.2 67.9h71.9v9.2H27.2z"/><linearGradient id="SVGID_7_" gradientUnits="userSpaceOnUse" x1="27.188" y1="90.39" x2="124.111" y2="90.39"><stop offset="0" stop-color="#0069FF" stop-opacity=".5"/><stop offset=".215" stop-color="#0069FF" stop-opacity=".3"/><stop offset="1" stop-color="#0069FF" stop-opacity=".05"/></linearGradient><path fill="url(#SVGID_7_)" d="M27.2 85.8h96.9V95H27.2z"/><linearGradient id="SVGID_8_" gradientUnits="userSpaceOnUse" x1="298.131" y1="259.109" x2="353.936" y2="259.109" gradientTransform="translate(0 -80)"><stop offset="0" stop-color="#005DFF" stop-opacity=".15"/><stop offset=".436" stop-color="#0068FF" stop-opacity=".085"/><stop offset="1" stop-color="#0072FF" stop-opacity="0"/></linearGradient><ellipse class="st7" cx="326" cy="179.1" rx="27.9" ry="5.4"/><path class="st18" d="M65.3 23.1H213"/><path class="st19" d="M1.2 23.1h14l6-10.4h37.9l6.5 11"/><path class="st20" d="M110.5 12.7H72.6l-6 10.4h49.8z"/><linearGradient id="SVGID_9_" gradientUnits="userSpaceOnUse" x1="114.288" y1="17.861" x2="168.474" y2="17.861"><stop offset=".151" stop-color="#0080FF"/><stop offset="1" stop-color="#00D688"/></linearGradient><path class="st11" d="M160.3 12.7h-37.9l-6 10.4h49.9z"/></svg>