<svg id="Layer_1" xmlns="http://www.w3.org/2000/svg" viewBox="0 0 1400 744"><style>.st0{fill:url(#SVGID_1_)}.st1{fill:url(#SVGID_2_)}.st2{fill:url(#SVGID_3_)}.st3{fill:url(#SVGID_4_)}.st4{fill:url(#SVGID_5_)}.st5{fill:url(#SVGID_6_)}.st6{fill:url(#SVGID_7_)}.st7{fill:url(#SVGID_8_)}.st8{fill:url(#SVGID_9_)}.st9{fill:url(#SVGID_10_)}.st10{fill:url(#SVGID_11_)}.st11{fill:url(#SVGID_12_)}.st12{fill:url(#SVGID_13_)}</style><linearGradient id="SVGID_1_" gradientUnits="userSpaceOnUse" x1="1026.92" y1="636.516" x2="1026.92" y2="353.638"><stop offset="0" stop-color="#DAE4EA"/><stop offset="1" stop-color="#DAE4EA" stop-opacity="0"/></linearGradient><path class="st0" d="M1102.5 566.2l-151.2 70.3V423.9l151.2-70.3z"/><linearGradient id="SVGID_2_" gradientUnits="userSpaceOnUse" x1="-265.499" y1="495.077" x2="-416.657" y2="495.077" gradientTransform="matrix(-1 0 0 1 837 0)"><stop offset="0" stop-color="#DAE4EA"/><stop offset="1" stop-color="#DAE4EA" stop-opacity="0"/></linearGradient><path class="st1" d="M1102.5 566.2l151.2 70.3V423.9l-151.2-70.3z"/><linearGradient id="SVGID_3_" gradientUnits="userSpaceOnUse" x1="-357.518" y1="386.55" x2="-508.676" y2="386.55" gradientTransform="matrix(-1 0 0 1 837 0)"><stop offset="0" stop-color="#DAE4EA"/><stop offset="1" stop-color="#DAE4EA" stop-opacity="0"/></linearGradient><path class="st2" d="M1194.5 457.7l151.2 70.3V315.4l-151.2-70.3z"/><linearGradient id="SVGID_4_" gradientUnits="userSpaceOnUse" x1="-415.93" y1="245.312" x2="-264.771" y2="396.47" gradientTransform="rotate(180 381.074 478.704)"><stop offset="0" stop-color="#DAE4EA"/><stop offset="1" stop-color="#DAE4EA" stop-opacity="0"/></linearGradient><path class="st3" d="M1253.7 636.5l-151.2 70.3-151.2-70.3 151.2-70.3z"/><linearGradient id="SVGID_5_" gradientUnits="userSpaceOnUse" x1="224.435" y1="352.033" x2="224.435" y2="54.99"><stop offset="0" stop-color="#DAE4EA"/><stop offset="1" stop-color="#DAE4EA" stop-opacity="0"/></linearGradient><path class="st4" d="M303.8 278.2L145.1 352V128.8L303.8 55z"/><linearGradient id="SVGID_6_" gradientUnits="userSpaceOnUse" x1="533.201" y1="203.511" x2="374.474" y2="203.511" gradientTransform="matrix(-1 0 0 1 837 0)"><stop offset="0" stop-color="#DAE4EA"/><stop offset="1" stop-color="#DAE4EA" stop-opacity="0"/></linearGradient><path class="st5" d="M303.8 278.2L462.5 352V128.8L303.8 55z"/><linearGradient id="SVGID_7_" gradientUnits="userSpaceOnUse" x1="436.205" y1="300.507" x2="277.479" y2="300.507" gradientTransform="matrix(-1 0 0 1 837 0)"><stop offset="0" stop-color="#DAE4EA"/><stop offset="1" stop-color="#DAE4EA" stop-opacity="0"/></linearGradient><path class="st6" d="M400.8 375.2L559.5 449V225.8L400.8 152z"/><linearGradient id="SVGID_8_" gradientUnits="userSpaceOnUse" x1="617.076" y1="605.375" x2="299.623" y2="605.375" gradientTransform="rotate(180 381.074 478.704)"><stop offset="0" stop-color="#DAE4EA"/><stop offset="1" stop-color="#DAE4EA" stop-opacity="0"/></linearGradient><path class="st7" d="M462.5 352l-158.7 73.9L145.1 352l158.7-73.8z"/><linearGradient id="SVGID_9_" gradientUnits="userSpaceOnUse" x1="-511.734" y1="753.76" x2="-353.007" y2="912.487" gradientTransform="rotate(180 381.074 478.704)"><stop offset="0" stop-color="#DAE4EA"/><stop offset="1" stop-color="#DAE4EA" stop-opacity="0"/></linearGradient><path class="st8" d="M1353.2 124.3l-158.7 73.8-158.7-73.8 158.7-73.8z"/><linearGradient id="SVGID_10_" gradientUnits="userSpaceOnUse" x1="46" y1="590.233" x2="363.192" y2="590.233"><stop offset="0" stop-color="#DAE4EA"/><stop offset="1" stop-color="#DAE4EA" stop-opacity="0"/></linearGradient><path class="st9" d="M96.7 495c-28 0-50.7 42.7-50.7 95.3 0 52.6 22.7 95.3 50.7 95.3h266.5V495H96.7z"/><linearGradient id="SVGID_11_" gradientUnits="userSpaceOnUse" x1="312.458" y1="590.233" x2="413.926" y2="590.233"><stop offset="0" stop-color="#DAE4EA"/><stop offset="1" stop-color="#DAE4EA" stop-opacity="0"/></linearGradient><ellipse class="st10" cx="363.2" cy="590.2" rx="50.7" ry="95.3"/><linearGradient id="SVGID_12_" gradientUnits="userSpaceOnUse" x1="821.903" y1="179.629" x2="996.429" y2="179.629" gradientTransform="rotate(45 925.445 177.304)"><stop offset="0" stop-color="#DAE4EA"/><stop offset="1" stop-color="#DAE4EA" stop-opacity="0"/></linearGradient><path class="st11" d="M907.4 88.4c-10.9-10.9-36.3-3.1-56.8 17.3s-28.2 45.9-17.3 56.8L937 266.2l74.1-74.1L907.4 88.4z"/><linearGradient id="SVGID_13_" gradientUnits="userSpaceOnUse" x1="968.514" y1="179.629" x2="1024.344" y2="179.629" gradientTransform="rotate(45 925.445 177.304)"><stop offset="0" stop-color="#DAE4EA"/><stop offset="1" stop-color="#DAE4EA" stop-opacity="0"/></linearGradient><path class="st12" d="M993.7 248.9c-20.5 20.5-45.9 28.2-56.8 17.3-10.9-10.9-3.1-36.3 17.3-56.8s45.9-28.2 56.8-17.3c11 10.9 3.2 36.3-17.3 56.8z"/></svg>