<svg id="Layer_1" xmlns="http://www.w3.org/2000/svg" viewBox="0 0 151.4 174.5"><style>.st0{fill:#8ACAFF;} .st1{fill:#BCD7F7;} .st2{fill:#0072FF;} .st3{fill:#FFFFFF;} .st4{fill:#B8DFFF;} .st5{clip-path:url(#SVGID_2_);} .st6{fill:none;stroke:#BCD7F7;stroke-width:5;stroke-linejoin:round;stroke-miterlimit:10;} .st7{fill:none;} .st8{fill:none;stroke:#BCD7F7;stroke-width:2;stroke-linejoin:round;stroke-miterlimit:10;} .st9{fill:#B8DFFF;stroke:#0072FF;stroke-width:2;stroke-linejoin:round;stroke-miterlimit:10;} .st10{fill:none;stroke:#BCD7F7;stroke-width:33;stroke-linejoin:round;stroke-miterlimit:10;}</style><path class="st1" d="M38.5 70.2h18.8v1.5H38.5zM97.4 70.2H117v1.5H97.4zM61.8 70.2h5.5v1.5h-5.5zM82.4 102.1h18.8v1.5H82.4zM37.8 102.8h24.1v1.5H37.8zM57 108.1h12v1.5H57zM71.5 112.2h18.8v1.5H71.5zM41.6 112.2h18.8v1.5H41.6zM83.6 118.6h29v1.5h-29zM49.9 108.1h5.7v1.5h-5.7zM57 117.5h6.8v1.5H57zM41.1 117.5h12.1v1.5H41.1zM108.8 108.1h9.4v1.5h-9.4zM39.1 92.6L37 74.1h81.1L116 92.8"/><path class="st2" d="M117.2 92.9l-2.3-.2 1.9-17.4H38.3l1.9 17.2-2.3.2-2-18.4c0-.3.1-.6.3-.9.2-.2.5-.4.8-.4h81.1c.3 0 .6.1.8.4.2.2.3.6.3.9l-2 18.6z"/><path class="st3" d="M67.4 93.3H46.9l1.1-6.5h18.4z"/><path class="st2" d="M67.4 94.1H46.9c-.2 0-.4-.1-.6-.3-.1-.2-.2-.4-.2-.6l1-6.5c.1-.4.4-.6.7-.6h18.4c.4 0 .7.3.7.6l1 6.5c0 .2 0 .4-.2.6.1.2-.1.3-.3.3zm-19.6-1.5h18.7l-.8-5H48.6l-.8 5z"/><path class="st3" d="M87.9 93.3H67.4l1-6.5h18.4z"/><path class="st2" d="M87.9 94.1H67.4c-.2 0-.4-.1-.6-.3-.1-.2-.2-.4-.2-.6l1-6.5c.1-.4.4-.6.7-.6h18.4c.4 0 .7.3.7.6l1 6.5c0 .2 0 .4-.2.6.1.2-.1.3-.3.3zm-19.6-1.5H87l-.8-5H69.1l-.8 5z"/><path class="st3" d="M108.4 93.3H87.9l1-6.5h18.4z"/><path class="st2" d="M108.4 94.1H87.9c-.2 0-.4-.1-.6-.3-.1-.2-.2-.4-.2-.6l1-6.5c.1-.4.4-.6.7-.6h18.4c.4 0 .7.3.7.6l1 6.5c0 .2 0 .4-.2.6.1.2-.1.3-.3.3zm-19.6-1.5h18.7l-.8-5H89.6l-.8 5z"/><path class="st3" d="M77.6 86.2H57.2l1-6.5h18.4z"/><path class="st2" d="M77.6 87H57.1c-.2 0-.4-.1-.6-.3-.1-.2-.2-.4-.2-.6l1-6.5c.1-.4.4-.6.7-.6h18.4c.4 0 .7.3.7.6l1 6.5c0 .2 0 .4-.2.6.2.2 0 .3-.3.3zM58 85.5h18.7l-.8-5H58.8l-.8 5z"/><path class="st3" d="M98.1 86.2H77.6l1.1-6.5h18.4z"/><path class="st2" d="M98.1 87H77.6c-.2 0-.4-.1-.6-.3-.1-.2-.2-.4-.2-.6l1-6.5c.1-.4.4-.6.7-.6h18.4c.4 0 .7.3.7.6l1 6.5c0 .2 0 .4-.2.6.2.2 0 .3-.3.3zm-19.6-1.5h18.7l-.8-5H79.3l-.8 5z"/><path class="st1" d="M12.1 104.8H37v1.5H12.1zM117.5 104.8h22.2v1.5h-22.2z"/><path class="st1" d="M75.7 174.5c-.1 0-.3 0-.4-.1L.4 131.2c-.2-.1-.4-.4-.4-.7V44c0-.3.1-.5.4-.7L75.3.1c.2-.1.5-.1.8 0L151 43.3c.2.1.4.4.4.7v86.5c0 .3-.1.5-.4.7l-74.9 43.2c-.2 0-.3.1-.4.1zM1.5 130l74.1 42.8 74.1-42.8V44.4L75.6 1.6 1.5 44.4V130z"/><path class="st2" d="M75.7 169.1c-.3 0-.5-.1-.8-.2L5.3 128.7c-.5-.3-.8-.8-.8-1.3V47c0-.5.3-1 .8-1.3L74.9 5.5c.5-.3 1-.3 1.5 0L146 45.7c.5.3.8.8.8 1.3v80.4c0 .5-.3 1-.8 1.3l-69.6 40.2c-.2.1-.5.2-.7.2zM7.6 126.5l68.1 39.3 68.1-39.3V47.9L75.7 8.6 7.6 47.9v78.6z"/><circle class="st1" cx="25.6" cy="125" r="1.1"/><circle class="st1" cx="39.1" cy="133.3" r="1.1"/><circle class="st1" cx="84.7" cy="137.6" r="1.1"/><circle class="st1" cx="81.8" cy="148.8" r="1.1"/><circle class="st1" cx="99.1" cy="146" r="1.1"/><circle class="st1" cx="63.8" cy="130.8" r="1.1"/><circle class="st1" cx="124.1" cy="128.2" r="1.1"/><circle class="st1" cx="124.1" cy="112.5" r="1.1"/><circle class="st1" cx="71.5" cy="136.6" r="1.1"/><circle class="st1" cx="16.5" cy="111.7" r="1.1"/><circle class="st1" cx="132.4" cy="116.9" r="1.1"/><circle class="st1" cx="27.3" cy="115.2" r="1.1"/><circle class="st1" cx="16.5" cy="121.6" r="1.1"/><path class="st2" d="M118.2 125.9H37c-.6 0-1.1-.5-1.1-1.1V93c0-.6.5-1.1 1.1-1.1h81.2c.6 0 1.1.5 1.1 1.1v31.8c0 .6-.5 1.1-1.1 1.1zm-80.1-2.3h79V94.1h-79v29.5z"/><path class="st2" d="M118.2 125.9H37c-.6 0-1.1-.5-1.1-1.1V93c0-.6.5-1.1 1.1-1.1h81.2c.6 0 1.1.5 1.1 1.1v31.8c0 .6-.5 1.1-1.1 1.1zm-80.1-2.3h79V94.1h-79v29.5z"/><path class="st2" d="M78.6 102.5c0 .6-.5 1-1 1-.6 0-1-.5-1-1v-3.2c0-.6.5-1 1-1 .6 0 1 .5 1 1v3.2z"/><g><path class="st4" d="M110.2 124.9h8c0-4.3-.2-7.7-.2-7.7-4.3 0-7.8 3.4-7.8 7.7z"/><path class="st2" d="M118.2 125.7h-8c-.4 0-.8-.3-.8-.8 0-4.7 3.8-8.5 8.5-8.5.4 0 .7.3.8.7 0 0 .2 3.5.2 7.8 0 .4-.3.8-.7.8zm-7.2-1.5h6.4c0-2.7-.1-5.1-.2-6.2-3.2.3-5.8 2.9-6.2 6.2z"/></g><g><path class="st0" d="M79 44.4c-.4 0-.8-.3-.8-.8v-12c0-.4.3-.8.8-.8.4 0 .8.3.8.8v12c-.1.4-.4.8-.8.8zM63.7 50.2c-.3 0-.6-.2-.7-.5l-4.1-10.9c-.1-.4 0-.8.4-1 .4-.1.8 0 1 .4l4.1 10.9c.1.4 0 .8-.4 1-.2 0-.3.1-.3.1zM50.7 57.2c-.1 0-.3 0-.4-.1l-8.8-5.4c-.4-.2-.5-.7-.2-1 .2-.4.7-.5 1-.2l8.8 5.4c.4.2.5.7.2 1-.1.2-.4.3-.6.3zM93.2 50.2h-.3c-.4-.1-.6-.6-.4-1l4.1-10.9c.1-.4.6-.6 1-.4.4.1.6.6.4 1l-4.1 10.9c-.1.2-.4.4-.7.4zM106.2 57.2c-.3 0-.5-.1-.6-.4-.2-.4-.1-.8.2-1l8.8-5.4c.4-.2.8-.1 1 .2.2.4.1.8-.2 1l-8.8 5.4c-.1.2-.3.2-.4.2z"/></g><path class="st2" d="M119.3 74H117c0-3.4-2.8-6.1-6.1-6.1H44.4c-3.4 0-6.1 2.8-6.1 6.1H36c0-4.6 3.8-8.4 8.4-8.4h66.5c4.6 0 8.4 3.8 8.4 8.4z"/><g><path class="st4" d="M44.9 124.9h-8c0-4.3.2-7.7.2-7.7 4.4 0 7.8 3.4 7.8 7.7z"/><path class="st2" d="M44.9 125.7h-8c-.4 0-.8-.3-.8-.8 0-4.2.2-7.7.2-7.8 0-.4.4-.7.8-.7 4.7 0 8.5 3.8 8.5 8.5.1.4-.3.8-.7.8zm-7.2-1.5h6.4c-.4-3.3-3-5.9-6.2-6.2-.1 1.1-.2 3.4-.2 6.2z"/></g><path class="st2" d="M77.6 108c-2.9 0-5.2-2.3-5.2-5.2v-3.6H37.8v-1.5h35.3c.4 0 .8.3.8.8v4.3c0 2 1.6 3.7 3.7 3.7 2 0 3.7-1.6 3.7-3.7v-4.3c0-.4.3-.8.8-.8h36.2v1.5H82.9v3.6c-.1 2.9-2.5 5.2-5.3 5.2z"/><g><path class="st3" d="M92.3 121.2l4-5.5 7.1.3 6 12.6-4.2 5.5-6.9-.3z"/><path class="st2" d="M96.3 115.7l7.1.3 5.9 12.6-4.2 5.5-6.9-.2-5.9-12.6 4-5.6m0-1.5c-.5 0-.9.2-1.2.6l-4 5.5c-.3.4-.4 1-.1 1.5l5.9 12.6c.2.5.7.8 1.3.9l6.9.2h.1c.5 0 .9-.2 1.2-.6l4.2-5.5c.3-.4.4-1.1.2-1.6l-5.9-12.6c-.2-.5-.7-.8-1.3-.9l-7.3-.1c.1 0 .1 0 0 0z"/><path class="st0" d="M103.9 115.9l-3.1 2.8 4.8 10 4.5-.4z"/><path class="st2" d="M105.6 129.5c-.3 0-.6-.2-.7-.4l-4.7-10c-.1-.3-.1-.7.2-.9l3-2.7c.2-.2.4-.2.6-.2s.4.2.5.4l6.2 12.4c.1.2.1.5 0 .7s-.3.4-.6.4l-4.5.3zm-3.8-10.6l4.3 9.1 2.9-.3-5.3-10.5-1.9 1.7z"/><path class="st3" d="M96 115.1l-.2 5.9 4.8 10.2 4.6 3.3.5-5.6-4.9-10.2z"/><path class="st2" d="M105.2 135.2c-.2 0-.3 0-.4-.1l-4.6-3.3c-.1-.1-.2-.2-.2-.3l-4.8-10.1c-.1-.1-.1-.2-.1-.3l.1-5.9c0-.3.2-.5.4-.7.3-.1.6-.1.8.1l4.9 3.6c.1.1.2.2.2.3l4.8 10.3c.1.1.1.3.1.4l-.5 5.5c0 .3-.2.5-.4.6-.1-.1-.2-.1-.3-.1zm-4-4.5l3.3 2.4.4-4-4.7-9.9-3.6-2.6-.1 4.3 4.7 9.8z"/><path class="st2" d="M92.3 122l-.1-1.5 3.4-.2 4.8-2.3 2.5-2.6 1.1 1-2.6 2.7-.2.2-5 2.4c-.1 0-.2.1-.3.1l-3.6.2zM98.8 134.3l-1.1-1 2.6-2.7.2-.2 5-2.4c.1 0 .2-.1.3-.1l3.5-.2.1 1.5-3.4.2-4.8 2.3-2.4 2.6z"/><g><path class="st7" d="M97.5 121.1l4.2 8.9"/><path class="st0" d="M96.772 121.383l1.355-.642 4.19 8.86-1.356.642z"/></g></g><path class="st1" d="M97.9 108.1h9.1v1.5h-9.1zM60.4 80.3h14.2v1.5H60.4zM80.9 80.3h14.2v1.5H80.9zM70.5 87.6h14.2v1.5H70.5zM50.1 87.6h14.2v1.5H50.1zM91.3 87.6h14.2v1.5H91.3z"/><g><path class="st1" d="M59.2 141.3l-7.1-7.2 4.1-.3 3.1 3z"/><path class="st2" d="M51.7 142.6c-.2 0-.4-.1-.5-.2-.2-.2-.2-.4-.2-.6l.4-7.8c0-.4.3-.7.7-.7h4.5c.2 0 .4.1.5.2l2.7 2.7c.1.1.2.3.2.5l-.1 4.5c0 .4-.3.7-.7.7l-7.5.7c.1 0 0 0 0 0zm1.1-7.7l-.3 6.2 6-.5.1-3.5-2.2-2.3-3.6.1z"/></g></svg>