<svg id="Layer_1" xmlns="http://www.w3.org/2000/svg" viewBox="0 0 125.2 167.4"><style>.st0{fill:#8ACAFF;} .st1{fill:#BCD7F7;} .st2{fill:#0072FF;} .st3{fill:#FFFFFF;} .st4{fill:#B8DFFF;} .st5{clip-path:url(#SVGID_2_);} .st6{fill:none;stroke:#BCD7F7;stroke-width:5;stroke-linejoin:round;stroke-miterlimit:10;} .st7{fill:none;} .st8{fill:none;stroke:#BCD7F7;stroke-width:2;stroke-linejoin:round;stroke-miterlimit:10;} .st9{fill:#B8DFFF;stroke:#0072FF;stroke-width:2;stroke-linejoin:round;stroke-miterlimit:10;} .st10{fill:none;stroke:#BCD7F7;stroke-width:33;stroke-linejoin:round;stroke-miterlimit:10;}</style><path class="st1" d="M105.3 62.7h1.5v33.7h-1.5zM91.1 62.7h1.5v33.7h-1.5zM76.8 62.7h1.5v33.7h-1.5zM62.6 62.7h1.5v33.7h-1.5zM48.4 62.7h1.5v33.7h-1.5zM34.2 62.7h1.5v33.7h-1.5zM20 62.7h1.5v33.7H20z"/><path class="st2" d="M111.3 59.2H12.6c-.4 0-.8-.3-.8-.8s.3-.8.8-.8h98.7c.4 0 .8.3.8.8s-.4.8-.8.8zM111.3 63.5H12.6c-.4 0-.8-.3-.8-.8 0-.4.3-.8.8-.8h98.7c.4 0 .8.3.8.8 0 .4-.4.8-.8.8z"/><path class="st1" d="M12.6 70.2h98.7v1.5H12.6zM12.6 86.8h98.7v1.5H12.6z"/><path class="st2" d="M78.4 83.2H38.8c-1.3 0-2.3-1-2.3-2.3s1-2.3 2.3-2.3h39.6c1.3 0 2.3 1 2.3 2.3s-1 2.3-2.3 2.3z"/><path class="st2" d="M79.1 114.3c-1.3 0-2.3-1-2.3-2.3V33.5c0-6.2 3.3-11 7.6-11s7.6 4.8 7.6 11v14.4c0 1.3-1 2.3-2.3 2.3s-2.3-1-2.3-2.3V33.5c0-4-1.8-6.5-3.1-6.5s-3.1 2.5-3.1 6.5V112c.2 1.2-.9 2.3-2.1 2.3zM36.6 114.3c-1.3 0-2.3-1-2.3-2.3V33.5c0-6.2 3.3-11 7.6-11s7.6 4.8 7.6 11v14.4c0 1.3-1 2.3-2.3 2.3s-2.3-1-2.3-2.3V33.5c0-4-1.8-6.5-3.1-6.5s-3.1 2.5-3.1 6.5V112c.2 1.2-.9 2.3-2.1 2.3z"/><path class="st2" d="M51.1 50.3h-7.9c-.8 0-1.5-.7-1.5-1.5s.7-1.5 1.5-1.5h7.9c.8 0 1.5.7 1.5 1.5 0 .9-.7 1.5-1.5 1.5zM93.9 50.3H86c-.8 0-1.5-.7-1.5-1.5s.7-1.5 1.5-1.5h7.9c.8 0 1.5.7 1.5 1.5 0 .9-.7 1.5-1.5 1.5z"/><path class="st3" d="M7.3 95.4c3.5 0 3.5 3.1 6.9 3.1 3.5 0 3.5-3.1 6.9-3.1 3.5 0 3.5 3.1 6.9 3.1 3.5 0 3.5-2.1 6.9-2.1 3.5 0 3.5 3.1 6.9 3.1 3.5 0 3.5-3.1 6.9-3.1 3.5 0 3.5 3.1 6.9 3.1 3.5 0 3.5-3.1 6.9-3.1 3.5 0 3.5 3.1 6.9 3.1 3.5 0 3.5-3.1 6.9-3.1 3.5 0 3.5 3.1 6.9 3.1 3.5 0 3.5-3.1 6.9-3.1 3.5 0 3.5 3.1 6.9 3.1 3.5 0 3.5-3.1 6.9-3.1 3.5 0 3.5 3.1 6.9 3.1 3.5 0 4.5-4.2 7.9-4.2 0 0 1.3 18-3.1 31.6-4.4 13.7-18.5 27.7-31.4 31.9-9.2 3-26.3 5.2-40.5.7-12.2-3.9-21.8-12.7-25.2-16.5C5.4 128.6 5.1 105.8 6.2 95.9l1.1-.5z"/><path class="st0" d="M110.9 106.4c-2 0-3.1-.9-4-1.8-.8-.8-1.5-1.4-2.9-1.4s-2.1.6-2.9 1.4c-.9.8-1.9 1.8-4 1.8-2 0-3.1-.9-4-1.8-.8-.8-1.5-1.4-2.9-1.4s-2.1.6-2.9 1.4c-.9.8-1.9 1.8-4 1.8-2 0-3.1-.9-4-1.8-.8-.8-1.5-1.4-2.9-1.4s-2.1.6-2.9 1.4c-.9.8-1.9 1.8-4 1.8-2 0-3.1-.9-4-1.8-.8-.8-1.5-1.4-2.9-1.4s-2.1.6-2.9 1.4c-.9.8-1.9 1.8-4 1.8s-3.1-.9-4-1.8c-.8-.8-1.5-1.4-2.9-1.4s-2.1.6-2.9 1.4c-.9.8-1.9 1.8-4 1.8-2 0-3.1-.9-4-1.8-.8-.8-1.5-1.4-2.9-1.4s-2.1.6-2.9 1.4c-.9.8-1.9 1.8-4 1.8s-3.1-.9-4-1.8c-.8-.8-1.5-1.4-2.9-1.4s-2.1.6-2.9 1.4c-.9.8-1.9 1.8-4 1.8v-1.5c1.4 0 2.1-.6 2.9-1.4.9-.8 1.9-1.8 4-1.8 2 0 3.1.9 4 1.8.8.8 1.5 1.4 2.9 1.4s2.1-.6 2.9-1.4c.9-.8 1.9-1.8 4-1.8 2 0 3.1.9 4 1.8.8.8 1.5 1.4 2.9 1.4s2.1-.6 2.9-1.4c.9-.8 1.9-1.8 4-1.8 2 0 3.1.9 4 1.8.8.8 1.5 1.4 2.9 1.4s2.1-.6 2.9-1.4c.9-.8 1.9-1.8 4-1.8 2 0 3.1.9 4 1.8.8.8 1.5 1.4 2.9 1.4s2.1-.6 2.9-1.4c.9-.8 1.9-1.8 4-1.8 2 0 3.1.9 4 1.8.8.8 1.5 1.4 2.9 1.4s2.1-.6 2.9-1.4c.9-.8 1.9-1.8 4-1.8 2 0 3.1.9 4 1.8.8.8 1.5 1.4 2.9 1.4s2.1-.6 2.9-1.4c.9-.8 1.9-1.8 4-1.8 2 0 3.1.9 4 1.8.8.8 1.5 1.4 2.9 1.4v1.5zM110.9 99.5c-2 0-3.1-.9-4-1.8-.8-.8-1.5-1.4-2.9-1.4s-2.1.6-2.9 1.4c-.9.8-1.9 1.8-4 1.8-2 0-3.1-.9-4-1.8-.8-.8-1.5-1.4-2.9-1.4s-2.1.6-2.9 1.4c-.9.8-1.9 1.8-4 1.8-2 0-3.1-.9-4-1.8-.8-.8-1.5-1.4-2.9-1.4s-2.1.6-2.9 1.4c-.9.8-1.9 1.8-4 1.8-2 0-3.1-.9-4-1.8-.8-.8-1.5-1.4-2.9-1.4s-2.1.6-2.9 1.4c-.9.8-1.9 1.8-4 1.8s-3.1-.9-4-1.8c-.8-.8-1.5-1.4-2.9-1.4s-2.1.6-2.9 1.4c-.9.8-1.9 1.8-4 1.8-2 0-3.1-.9-4-1.8-.8-.8-1.5-1.4-2.9-1.4s-2.1.6-2.9 1.4c-.9.8-1.9 1.8-4 1.8s-3.1-.9-4-1.8c-.8-.8-1.5-1.4-2.9-1.4s-2.1.6-2.9 1.4c-.9.8-1.9 1.8-4 1.8V98c1.4 0 2.1-.6 2.9-1.4.9-.8 1.9-1.8 4-1.8 2 0 3.1.9 4 1.8.8.8 1.5 1.4 2.9 1.4s2.1-.6 2.9-1.4c.9-.8 1.9-1.8 4-1.8 2 0 3.1.9 4 1.8.8.8 1.5 1.4 2.9 1.4s2.1-.6 2.9-1.4c.9-.8 1.9-1.8 4-1.8 2 0 3.1.9 4 1.8.8.8 1.5 1.4 2.9 1.4s2.1-.6 2.9-1.4c.9-.8 1.9-1.8 4-1.8 2 0 3.1.9 4 1.8.8.8 1.5 1.4 2.9 1.4s2.1-.6 2.9-1.4c.9-.8 1.9-1.8 4-1.8 2 0 3.1.9 4 1.8.8.8 1.5 1.4 2.9 1.4s2.1-.6 2.9-1.4c.9-.8 1.9-1.8 4-1.8 2 0 3.1.9 4 1.8.8.8 1.5 1.4 2.9 1.4s2.1-.6 2.9-1.4c.9-.8 1.9-1.8 4-1.8 2 0 3.1.9 4 1.8.8.8 1.5 1.4 2.9 1.4v1.5z"/><path class="st1" d="M66.6 167.4h-8.2C26.2 167.4 0 141.2 0 109V.8C0 .4.3 0 .8 0h123.6c.4 0 .8.3.8.8V109c-.2 32.2-26.4 58.4-58.6 58.4zM1.5 1.5V109c0 31.4 25.5 56.9 56.9 56.9h8.2c31.4 0 56.9-25.5 56.9-56.9V1.5H1.5z"/><path class="st2" d="M66.2 162.8h-7.5c-29.9 0-54.1-24.3-54.1-54.1V6.9c0-.8.7-1.5 1.5-1.5h112.7c.8 0 1.5.7 1.5 1.5v101.8c.1 29.8-24.2 54.1-54.1 54.1zM7.6 8.4v100.3c0 28.2 22.9 51.1 51.1 51.1h7.5c28.2 0 51.1-22.9 51.1-51.1V8.4H7.6z"/><g><path class="st0" d="M54.9 113.6H39.5c-.4 0-.8-.3-.8-.8 0-.4.3-.8.8-.8h15.3c.4 0 .8.3.8.8 0 .4-.3.8-.7.8zM76.3 117.2h-6.1c-.4 0-.8-.3-.8-.8 0-.4.3-.8.8-.8h6.1c.4 0 .8.3.8.8-.1.5-.4.8-.8.8zM69.2 152.1h-9.7c-.4 0-.8-.3-.8-.8 0-.4.3-.8.8-.8h9.7c.4 0 .8.3.8.8-.1.4-.4.8-.8.8zM103.2 132.4h-6.1c-.4 0-.8-.3-.8-.8 0-.4.3-.8.8-.8h6.1c.4 0 .8.3.8.8 0 .4-.4.8-.8.8zM88.3 131.8H66.7c-.4 0-.8-.3-.8-.8 0-.4.3-.8.8-.8h21.6c.4 0 .8.3.8.8 0 .4-.4.8-.8.8zM99 119.2H88.4c-.4 0-.8-.3-.8-.8s.3-.8.8-.8H99c.4 0 .8.3.8.8s-.4.8-.8.8zM29.7 117.4H17.3c-.4 0-.8-.3-.8-.8 0-.4.3-.8.8-.8h12.5c.4 0 .8.3.8.8-.1.5-.5.8-.9.8zM44.4 142H32.2c-.4 0-.8-.3-.8-.8 0-.4.3-.8.8-.8h12.2c.4 0 .8.3.8.8 0 .4-.4.8-.8.8zM87.7 142H75.5c-.4 0-.8-.3-.8-.8 0-.4.3-.8.8-.8h12.2c.4 0 .8.3.8.8 0 .4-.4.8-.8.8zM49 127.5H31.6c-.4 0-.8-.3-.8-.8 0-.4.3-.8.8-.8H49c.4 0 .8.3.8.8-.1.5-.4.8-.8.8z"/></g></svg>