<svg id="Layer_1" xmlns="http://www.w3.org/2000/svg" xmlns:xlink="http://www.w3.org/1999/xlink" viewBox="0 0 181 181"><style>.st0{fill:#8ACAFF;} .st1{fill:#BCD7F7;} .st2{fill:#0072FF;} .st3{fill:#FFFFFF;} .st4{fill:#B8DFFF;} .st5{clip-path:url(#SVGID_2_);} .st6{fill:none;stroke:#BCD7F7;stroke-width:5;stroke-linejoin:round;stroke-miterlimit:10;} .st7{fill:none;} .st8{fill:none;stroke:#BCD7F7;stroke-width:2;stroke-linejoin:round;stroke-miterlimit:10;} .st9{fill:#B8DFFF;stroke:#0072FF;stroke-width:2;stroke-linejoin:round;stroke-miterlimit:10;} .st10{fill:none;stroke:#BCD7F7;stroke-width:33;stroke-linejoin:round;stroke-miterlimit:10;}</style><defs><circle id="SVGID_1_" cx="90.5" cy="89.9" r="32.8"/></defs><clipPath id="SVGID_2_"><use xlink:href="#SVGID_1_" overflow="visible"/></clipPath><g class="st5"><path class="st0" d="M129.7 91.5c-2.2 0-3.3-1-4.2-1.9-.9-.8-1.7-1.5-3.2-1.5-1.6 0-2.3.7-3.2 1.5-1 .9-2.1 1.9-4.2 1.9-2.2 0-3.3-1-4.2-1.9-.9-.8-1.7-1.5-3.2-1.5-1.6 0-2.3.7-3.2 1.5-1 .9-2.1 1.9-4.2 1.9-2.2 0-3.3-1-4.2-1.9-.9-.8-1.7-1.5-3.2-1.5-1.6 0-2.3.7-3.2 1.5-1 .9-2.1 1.9-4.2 1.9-2.2 0-3.3-1-4.2-1.9-.9-.8-1.7-1.5-3.2-1.5-1.6 0-2.3.7-3.2 1.5-1 .9-2.1 1.9-4.2 1.9-2.2 0-3.3-1-4.2-1.9-.9-.8-1.7-1.5-3.2-1.5-1.6 0-2.3.7-3.2 1.5-1 .9-2.1 1.9-4.2 1.9s-3.3-1-4.2-1.9c-.9-.8-1.6-1.5-3.2-1.5v-1.5c2.2 0 3.3 1 4.2 1.9.9.8 1.7 1.5 3.2 1.5s2.3-.7 3.2-1.5c1-.9 2.1-1.9 4.2-1.9 2.2 0 3.3 1 4.2 1.9.9.8 1.7 1.5 3.2 1.5s2.3-.7 3.2-1.5c1-.9 2.1-1.9 4.2-1.9 2.2 0 3.3 1 4.2 1.9.9.8 1.7 1.5 3.2 1.5 1.6 0 2.3-.7 3.2-1.5 1-.9 2.1-1.9 4.2-1.9 2.2 0 3.3 1 4.2 1.9.9.8 1.7 1.5 3.2 1.5s2.3-.7 3.2-1.5c1-.9 2.1-1.9 4.2-1.9 2.2 0 3.3 1 4.2 1.9.9.8 1.7 1.5 3.2 1.5 1.6 0 2.3-.7 3.2-1.5 1-.9 2.1-1.9 4.2-1.9 2.2 0 3.3 1 4.2 1.9.9.8 1.7 1.5 3.2 1.5 1.6 0 2.3-.7 3.2-1.5 1-.9 2.1-1.9 4.2-1.9v1.5c-1.6 0-2.3.7-3.2 1.5-1 .9-2.1 1.9-4.2 1.9zM129.7 100c-2.2 0-3.3-1-4.2-1.9-.9-.8-1.7-1.5-3.2-1.5-1.6 0-2.3.7-3.2 1.5-1 .9-2.1 1.9-4.2 1.9-2.2 0-3.3-1-4.2-1.9-.9-.8-1.7-1.5-3.2-1.5-1.6 0-2.3.7-3.2 1.5-1 .9-2.1 1.9-4.2 1.9-2.2 0-3.3-1-4.2-1.9-.9-.8-1.7-1.5-3.2-1.5-1.6 0-2.3.7-3.2 1.5-1 .9-2.1 1.9-4.2 1.9-2.2 0-3.3-1-4.2-1.9-.9-.8-1.7-1.5-3.2-1.5-1.6 0-2.3.7-3.2 1.5-1 .9-2.1 1.9-4.2 1.9-2.2 0-3.3-1-4.2-1.9-.9-.8-1.7-1.5-3.2-1.5-1.6 0-2.3.7-3.2 1.5-1 .9-2.1 1.9-4.2 1.9s-3.3-1-4.2-1.9c-.9-.8-1.6-1.5-3.2-1.5v-1.5c2.2 0 3.3 1 4.2 1.9.9.8 1.7 1.5 3.2 1.5s2.3-.7 3.2-1.5c1-.9 2.1-1.9 4.2-1.9 2.2 0 3.3 1 4.2 1.9.9.8 1.7 1.5 3.2 1.5s2.3-.7 3.2-1.5c1-.9 2.1-1.9 4.2-1.9 2.2 0 3.3 1 4.2 1.9.9.8 1.7 1.5 3.2 1.5 1.6 0 2.3-.7 3.2-1.5 1-.9 2.1-1.9 4.2-1.9 2.2 0 3.3 1 4.2 1.9.9.8 1.7 1.5 3.2 1.5s2.3-.7 3.2-1.5c1-.9 2.1-1.9 4.2-1.9 2.2 0 3.3 1 4.2 1.9.9.8 1.7 1.5 3.2 1.5 1.6 0 2.3-.7 3.2-1.5 1-.9 2.1-1.9 4.2-1.9 2.2 0 3.3 1 4.2 1.9.9.8 1.7 1.5 3.2 1.5 1.6 0 2.3-.7 3.2-1.5 1-.9 2.1-1.9 4.2-1.9v1.5c-1.6 0-2.3.7-3.2 1.5-1 .9-2.1 1.9-4.2 1.9zM129.7 108.4c-2.2 0-3.3-1-4.2-1.9-.9-.8-1.7-1.5-3.2-1.5-1.6 0-2.3.7-3.2 1.5-1 .9-2.1 1.9-4.2 1.9-2.2 0-3.3-1-4.2-1.9-.9-.8-1.7-1.5-3.2-1.5-1.6 0-2.3.7-3.2 1.5-1 .9-2.1 1.9-4.2 1.9-2.2 0-3.3-1-4.2-1.9-.9-.8-1.7-1.5-3.2-1.5-1.6 0-2.3.7-3.2 1.5-1 .9-2.1 1.9-4.2 1.9-2.2 0-3.3-1-4.2-1.9-.9-.8-1.7-1.5-3.2-1.5-1.6 0-2.3.7-3.2 1.5-1 .9-2.1 1.9-4.2 1.9-2.2 0-3.3-1-4.2-1.9-.9-.8-1.7-1.5-3.2-1.5-1.6 0-2.3.7-3.2 1.5-1 .9-2.1 1.9-4.2 1.9s-3.3-1-4.2-1.9c-.9-.8-1.6-1.5-3.2-1.5v-1.5c2.2 0 3.3 1 4.2 1.9.9.8 1.7 1.5 3.2 1.5s2.3-.7 3.2-1.5c1-.9 2.1-1.9 4.2-1.9 2.2 0 3.3 1 4.2 1.9.9.8 1.7 1.5 3.2 1.5s2.3-.7 3.2-1.5c1-.9 2.1-1.9 4.2-1.9 2.2 0 3.3 1 4.2 1.9.9.8 1.7 1.5 3.2 1.5 1.6 0 2.3-.7 3.2-1.5 1-.9 2.1-1.9 4.2-1.9 2.2 0 3.3 1 4.2 1.9.9.8 1.7 1.5 3.2 1.5s2.3-.7 3.2-1.5c1-.9 2.1-1.9 4.2-1.9 2.2 0 3.3 1 4.2 1.9.9.8 1.7 1.5 3.2 1.5 1.6 0 2.3-.7 3.2-1.5 1-.9 2.1-1.9 4.2-1.9 2.2 0 3.3 1 4.2 1.9.9.8 1.7 1.5 3.2 1.5 1.6 0 2.3-.7 3.2-1.5 1-.9 2.1-1.9 4.2-1.9v1.5c-1.6 0-2.3.7-3.2 1.5-1 .9-2.1 1.9-4.2 1.9zM129.7 116.8c-2.2 0-3.3-1-4.2-1.9-.9-.8-1.7-1.5-3.2-1.5-1.6 0-2.3.7-3.2 1.5-1 .9-2.1 1.9-4.2 1.9-2.2 0-3.3-1-4.2-1.9-.9-.8-1.7-1.5-3.2-1.5-1.6 0-2.3.7-3.2 1.5-1 .9-2.1 1.9-4.2 1.9-2.2 0-3.3-1-4.2-1.9-.9-.8-1.7-1.5-3.2-1.5-1.6 0-2.3.7-3.2 1.5-1 .9-2.1 1.9-4.2 1.9-2.2 0-3.3-1-4.2-1.9-.9-.8-1.7-1.5-3.2-1.5-1.6 0-2.3.7-3.2 1.5-1 .9-2.1 1.9-4.2 1.9-2.2 0-3.3-1-4.2-1.9-.9-.8-1.7-1.5-3.2-1.5-1.6 0-2.3.7-3.2 1.5-1 .9-2.1 1.9-4.2 1.9s-3.3-1-4.2-1.9c-.9-.8-1.6-1.5-3.2-1.5v-1.5c2.2 0 3.3 1 4.2 1.9.9.8 1.7 1.5 3.2 1.5s2.3-.7 3.2-1.5c1-.9 2.1-1.9 4.2-1.9 2.2 0 3.3 1 4.2 1.9.9.8 1.7 1.5 3.2 1.5s2.3-.7 3.2-1.5c1-.9 2.1-1.9 4.2-1.9 2.2 0 3.3 1 4.2 1.9.9.8 1.7 1.5 3.2 1.5 1.6 0 2.3-.7 3.2-1.5 1-.9 2.1-1.9 4.2-1.9 2.2 0 3.3 1 4.2 1.9.9.8 1.7 1.5 3.2 1.5s2.3-.7 3.2-1.5c1-.9 2.1-1.9 4.2-1.9 2.2 0 3.3 1 4.2 1.9.9.8 1.7 1.5 3.2 1.5 1.6 0 2.3-.7 3.2-1.5 1-.9 2.1-1.9 4.2-1.9 2.2 0 3.3 1 4.2 1.9.9.8 1.7 1.5 3.2 1.5 1.6 0 2.3-.7 3.2-1.5 1-.9 2.1-1.9 4.2-1.9v1.5c-1.6 0-2.3.7-3.2 1.5-1 .9-2.1 1.9-4.2 1.9z"/></g><path class="st1" d="M90.5 181c-2.6 0-5.1-1-7-2.9L2.9 97.5C1 95.6 0 93.1 0 90.5s1-5.1 2.9-7L83.5 2.9C85.4 1 87.9 0 90.5 0s5.1 1 7 2.9l80.6 80.6c3.9 3.9 3.9 10.1 0 14l-80.6 80.6c-1.9 1.9-4.4 2.9-7 2.9zm0-179.4c-2.2 0-4.4.9-5.9 2.5L4 84.7c-1.6 1.6-2.5 3.7-2.5 5.9S2.4 95 4 96.5l80.6 80.6c1.6 1.6 3.7 2.5 5.9 2.5s4.4-.9 5.9-2.5L177 96.5c3.3-3.3 3.3-8.6 0-11.9L96.4 4c-1.6-1.6-3.7-2.4-5.9-2.4z"/><path class="st2" d="M90.5 174.5c-2.7 0-5.1-1-7-2.9L9.4 97.5c-1.9-1.9-2.9-4.4-2.9-7s1-5.1 2.9-7L83.5 9.4c1.9-1.9 4.4-2.9 7-2.9s5.1 1 7 2.9l74.1 74.1c1.9 1.9 2.9 4.4 2.9 7 0 2.7-1 5.1-2.9 7l-74.1 74.1c-1.9 1.9-4.4 2.9-7 2.9zm0-164.9c-1.8 0-3.6.7-4.9 2L11.5 85.7c-1.3 1.3-2 3-2 4.9s.7 3.6 2 4.9l74.1 74.1c1.3 1.3 3 2 4.9 2 1.8 0 3.6-.7 4.9-2l74.1-74.1c1.3-1.3 2-3 2-4.9s-.7-3.6-2-4.9L95.4 11.6c-1.3-1.3-3.1-2-4.9-2z"/><circle class="st1" cx="89.9" cy="22.6" r="2.1"/><circle class="st1" cx="89.9" cy="160.7" r="2.1"/><g><circle class="st1" cx="159" cy="91.6" r="2.1"/><circle class="st1" cx="20.9" cy="91.6" r="2.1"/></g><g><path class="st4" d="M90.5 126.4c-9.5 0-18.4-3.7-25.2-10.4-6.7-6.7-10.4-15.7-10.4-25.2s3.7-18.4 10.4-25.2l3.7 3.7c-5.7 5.7-8.9 13.3-8.9 21.4 0 8.1 3.2 15.7 8.9 21.4s13.3 8.9 21.4 8.9 15.7-3.2 21.4-8.9l3.7 3.7c-6.6 6.9-15.5 10.6-25 10.6z"/><path class="st2" d="M90.5 143.6c-14.1 0-27.4-5.5-37.3-15.5-10-10-15.5-23.2-15.5-37.3s5.5-27.4 15.5-37.3c10-10 23.2-15.5 37.3-15.5s27.4 5.5 37.3 15.5c10 10 15.5 23.2 15.5 37.3s-5.5 27.4-15.5 37.3c-10 10-23.2 15.5-37.3 15.5zm0-102.6c-13.3 0-25.8 5.2-35.2 14.6-9.4 9.4-14.6 21.9-14.6 35.2s5.2 25.8 14.6 35.2 21.9 14.6 35.2 14.6 25.8-5.2 35.2-14.6c9.4-9.4 14.6-21.9 14.6-35.2s-5.2-25.8-14.6-35.2S103.8 41 90.5 41z"/><path class="st4" d="M55.4 125.8c-9.4-9.4-14.6-21.9-14.6-35.3 0-13.3 5.2-25.8 14.6-35.3l1.6 1.6c-9 9-13.9 20.9-13.9 33.7 0 12.7 5 24.7 13.9 33.7l-1.6 1.6zM125.3 125.8l-1.6-1.6c9-9 13.9-20.9 13.9-33.7 0-12.7-5-24.7-13.9-33.7l1.6-1.6c9.4 9.4 14.6 21.9 14.6 35.3 0 13.3-5.2 25.9-14.6 35.3z"/><path class="st2" d="M90.5 123.8c-8.8 0-17.1-3.4-23.3-9.7-12.9-12.9-12.9-33.8 0-46.6 6.2-6.2 14.5-9.7 23.3-9.7s17.1 3.4 23.3 9.7c12.9 12.9 12.9 33.8 0 46.6-6.2 6.2-14.5 9.7-23.3 9.7zm0-63c-8 0-15.5 3.1-21.2 8.8-11.7 11.7-11.7 30.7 0 42.4 5.7 5.7 13.2 8.8 21.2 8.8s15.5-3.1 21.2-8.8c11.7-11.7 11.7-30.7 0-42.4-5.7-5.7-13.2-8.8-21.2-8.8z"/><path class="st1" d="M75.5 62.1c1.1 1.1 1.1 2.9 0 4l-9.7 9.7c-1.1 1.1-2.9 1.1-4 0L48.4 62.4c-1.1-1.1-1.1-2.9 0-4l9.7-9.7c1.1-1.1 2.9-1.1 4 0l13.4 13.4z"/><path class="st2" d="M63.8 77.8c-1.1 0-2-.4-2.8-1.2L47.6 63.2c-.7-.7-1.2-1.7-1.2-2.8s.4-2 1.2-2.8l9.7-9.7c.7-.7 1.7-1.2 2.8-1.2s2 .4 2.8 1.2l13.4 13.4c1.5 1.5 1.5 4 0 5.6l-9.7 9.7c-.8.7-1.7 1.2-2.8 1.2zM60.1 49c-.4 0-.9.2-1.2.5l-9.7 9.7c-.3.3-.5.7-.5 1.2 0 .4.2.9.5 1.2L62.6 75c.6.6 1.7.6 2.4 0l9.7-9.7c.7-.7.7-1.7 0-2.4L61.3 49.5c-.3-.3-.8-.5-1.2-.5z"/><g><path class="st1" d="M133.1 119.6c1.1 1.1 1.1 2.9 0 4l-9.7 9.7c-1.1 1.1-2.9 1.1-4 0L106 119.9c-1.1-1.1-1.1-2.9 0-4l9.7-9.7c1.1-1.1 2.9-1.1 4 0l13.4 13.4z"/><path class="st2" d="M121.3 135.3c-1.1 0-2-.4-2.8-1.2l-13.4-13.4c-1.5-1.5-1.5-4 0-5.6l9.7-9.7c.7-.7 1.7-1.2 2.8-1.2s2 .4 2.8 1.2l13.4 13.4c.7.7 1.2 1.7 1.2 2.8s-.4 2-1.2 2.8l-9.7 9.7c-.7.8-1.7 1.2-2.8 1.2zm-3.7-28.8c-.4 0-.9.2-1.2.5l-9.7 9.7c-.7.7-.7 1.7 0 2.4l13.4 13.4c.6.6 1.7.6 2.4 0l9.7-9.7c.3-.3.5-.7.5-1.2 0-.4-.2-.9-.5-1.2L118.8 107c-.3-.3-.7-.5-1.2-.5z"/></g><g><path class="st1" d="M61.7 105.9c1.1-1.1 2.9-1.1 4 0l9.7 9.7c1.1 1.1 1.1 2.9 0 4L62 133c-1.1 1.1-2.9 1.1-4 0l-9.7-9.7c-1.1-1.1-1.1-2.9 0-4l13.4-13.4z"/><path class="st2" d="M59.9 135c-1.1 0-2-.4-2.8-1.2l-9.7-9.7c-1.5-1.5-1.5-4 0-5.6l13.4-13.4c.7-.7 1.7-1.2 2.8-1.2s2 .4 2.8 1.2l9.7 9.7c.7.7 1.2 1.7 1.2 2.8s-.4 2-1.2 2.8l-13.4 13.4c-.7.8-1.7 1.2-2.8 1.2zm3.8-28.8c-.4 0-.9.2-1.2.5l-13.4 13.4c-.7.7-.7 1.7 0 2.4l9.7 9.7c.6.6 1.7.6 2.4 0l13.4-13.4c.3-.3.5-.7.5-1.2 0-.4-.2-.9-.5-1.2l-9.7-9.7c-.4-.3-.8-.5-1.2-.5z"/><g><path class="st1" d="M118.8 48.7c1.1-1.1 2.9-1.1 4 0l9.7 9.7c1.1 1.1 1.1 2.9 0 4l-13.4 13.4c-1.1 1.1-2.9 1.1-4 0l-9.7-9.7c-1.1-1.1-1.1-2.9 0-4l13.4-13.4z"/><path class="st2" d="M117.1 77.8c-1.1 0-2-.4-2.8-1.2l-9.7-9.7c-1.5-1.5-1.5-4 0-5.6L118 47.9c.7-.7 1.7-1.2 2.8-1.2s2 .4 2.8 1.2l9.7 9.7c1.5 1.5 1.5 4 0 5.6l-13.4 13.4c-.7.8-1.7 1.2-2.8 1.2zm3.7-28.8c-.4 0-.9.2-1.2.5l-13.4 13.4c-.7.7-.7 1.7 0 2.4l9.7 9.7c.6.6 1.7.6 2.4 0l13.4-13.4c.7-.7.7-1.7 0-2.4l-9.7-9.7c-.3-.3-.7-.5-1.2-.5z"/></g></g><path class="st2" d="M116.3 52.4c-11.2 0-14.6-3.4-19.7-8.5-1.9-1.9-4-4-6.9-6.3C79 29 61.6 48.5 61.4 48.7l-1.7-1.5c.2-.2 4.7-5.3 10.8-9.3 8.3-5.5 15.4-6.2 20.6-2 3 2.4 5.1 4.5 7 6.5 5.1 5.1 7.9 7.8 18.1 7.8l.1 2.2zM133.9 120.4l-1.7-1.5c.1-.1 13-14.6 14.5-26.5 1.5-11.7-15.3-28.6-15.4-28.8l1.6-1.6c.7.7 17.7 17.9 16.1 30.7-1.6 12.5-14.6 27.1-15.1 27.7zM46.2 119.7c-.5-.6-13.5-15.2-15.1-27.7-1.6-12.8 15.3-29.9 16.1-30.7l1.6 1.6c-.2.2-16.9 17.1-15.4 28.8 1.5 11.9 14.4 26.4 14.5 26.5l-1.7 1.5zM90.5 150.2c-12.4 0-28.1-14.4-28.9-15l1.5-1.7c.2.2 17.8 16.2 29.4 14.2 11.8-2 25.7-15.5 25.9-15.6l1.6 1.6c-.6.6-14.6 14.1-27.1 16.2-.7.2-1.5.3-2.4.3z"/><g><path class="st7" d="M60.7 52.1l11.4 11.4"/><path class="st3" d="M60.177 52.584l1.06-1.06 11.46 11.452-1.06 1.06z"/></g><g><path class="st7" d="M109.8 118.1l11.5 11.5"/><path class="st3" d="M109.282 118.612l1.06-1.06 11.458 11.452-1.06 1.06z"/></g></g></svg>