<svg id="Layer_1" xmlns="http://www.w3.org/2000/svg" viewBox="0 0 181 181"><style>.st0{fill:#8ACAFF;} .st1{fill:#BCD7F7;} .st2{fill:#0072FF;} .st3{fill:#FFFFFF;} .st4{fill:#B8DFFF;} .st5{clip-path:url(#SVGID_2_);} .st6{fill:none;stroke:#BCD7F7;stroke-width:5;stroke-linejoin:round;stroke-miterlimit:10;} .st7{fill:none;} .st8{fill:none;stroke:#BCD7F7;stroke-width:2;stroke-linejoin:round;stroke-miterlimit:10;} .st9{fill:#B8DFFF;stroke:#0072FF;stroke-width:2;stroke-linejoin:round;stroke-miterlimit:10;} .st10{fill:none;stroke:#BCD7F7;stroke-width:33;stroke-linejoin:round;stroke-miterlimit:10;}</style><path class="st0" d="M134.6 109.7h-16.1c-.4 0-.8-.3-.8-.8s.3-.8.8-.8h16.1c.4 0 .8.3.8.8s-.4.8-.8.8zM142.3 71.5h-10.6c-.4 0-.8-.3-.8-.8 0-.4.3-.8.8-.8h10.6c.4 0 .8.3.8.8s-.4.8-.8.8zM38.5 85.2H23.8c-.4 0-.8-.3-.8-.8s.3-.8.8-.8h14.7c.4 0 .8.3.8.8s-.4.8-.8.8zM85.9 74.1H71.6c-.4 0-.8-.3-.8-.8s.3-.8.8-.8h14.2c.4 0 .8.3.8.8s-.3.8-.7.8zM67.9 60H55.7c-.4 0-.8-.3-.8-.8s.3-.8.8-.8h12.2c.4 0 .8.3.8.8s-.4.8-.8.8zM38.5 91.3H19.2c-.4 0-.8-.3-.8-.8 0-.4.3-.8.8-.8h19.3c.4 0 .8.3.8.8 0 .4-.4.8-.8.8zM90.1 128.3h-7.2c-.4 0-.8-.3-.8-.8 0-.4.3-.8.8-.8h7.2c.4 0 .8.3.8.8-.1.4-.4.8-.8.8zM96.3 109.7H82.4c-.4 0-.8-.3-.8-.8s.3-.8.8-.8h13.9c.4 0 .8.3.8.8s-.4.8-.8.8zM92.8 36.6h-7c-.4 0-.8-.3-.8-.8 0-.4.3-.8.8-.8h7c.4 0 .8.3.8.8s-.4.8-.8.8zM64.8 121.8H49.4c-.4 0-.8-.3-.8-.8 0-.4.3-.8.8-.8h15.4c.4 0 .8.3.8.8-.1.5-.4.8-.8.8zM94.2 147.5H78.7c-.4 0-.8-.3-.8-.8 0-.4.3-.8.8-.8h15.4c.4 0 .8.3.8.8s-.3.8-.7.8zM127.6 128.3H98.5c-.4 0-.8-.3-.8-.8 0-.4.3-.8.8-.8h29.1c.4 0 .8.3.8.8-.1.4-.4.8-.8.8zM39.6 96.1h-7c-.4 0-.8-.3-.8-.8 0-.4.3-.8.8-.8h7c.4 0 .8.3.8.8 0 .4-.4.8-.8.8zM109.7 60H95.8c-.4 0-.8-.3-.8-.8s.3-.8.8-.8h13.9c.4 0 .8.3.8.8s-.4.8-.8.8z"/><path class="st1" d="M90.5 181c-2.6 0-5.1-1-7-2.9L2.9 97.5C1 95.6 0 93.1 0 90.5s1-5.1 2.9-7L83.5 2.9C85.4 1 87.9 0 90.5 0s5.1 1 7 2.9l80.6 80.6c3.9 3.9 3.9 10.1 0 14l-80.6 80.6c-1.9 1.8-4.4 2.9-7 2.9zm0-179.5c-2.2 0-4.4.9-5.9 2.5L4 84.6c-1.6 1.6-2.5 3.7-2.5 5.9s.9 4.4 2.5 5.9L84.6 177c1.6 1.6 3.7 2.5 5.9 2.5s4.4-.9 5.9-2.5L177 96.4c3.3-3.3 3.3-8.6 0-11.9L96.4 4c-1.6-1.6-3.7-2.5-5.9-2.5z"/><path class="st2" d="M90.5 174.5c-2.6 0-5.1-1-7-2.9L9.4 97.5c-1.9-1.9-2.9-4.4-2.9-7s1-5.1 2.9-7L83.5 9.4c1.9-1.9 4.4-2.9 7-2.9s5.1 1 7 2.9l74.1 74.1c1.9 1.9 2.9 4.4 2.9 7 0 2.7-1 5.1-2.9 7l-74.1 74.1c-1.9 1.8-4.4 2.9-7 2.9zm0-165c-1.8 0-3.6.7-4.9 2l-74 74.1c-1.3 1.3-2 3-2 4.9s.7 3.6 2 4.9l74.1 74.1c1.3 1.3 3 2 4.9 2 1.8 0 3.6-.7 4.9-2l73.9-74.1c1.3-1.3 2-3 2-4.9 0-1.8-.7-3.6-2-4.9l-74-74c-1.3-1.3-3.1-2.1-4.9-2.1z"/><g><path class="st3" d="M46 96l-.9 2.5c-.7 1.5-1.3 2.7-2.8 2.7s-2.7-1.2-2.7-2.7V83.8c0-1.5 1.2-2.7 2.7-2.7s2.1 1.2 2.8 2.7l.6 1.6"/><path class="st2" d="M42.4 102.3c-2.1 0-3.8-1.7-3.8-3.8V83.7c0-2.1 1.7-3.8 3.8-3.8 2.3 0 3.2 2 3.9 3.4v.1l.6 1.6-2.1.8-.6-1.5c-.7-1.6-1.1-2-1.8-2-.9 0-1.6.7-1.6 1.6v14.8c0 .9.7 1.6 1.6 1.6.7 0 1-.4 1.8-2l.8-2.5 2.1.7-.9 2.5v.1c-.6 1.2-1.5 3.2-3.8 3.2z"/><path class="st4" d="M137.9 99.2H53.5l-13.3-7.8h77.2v7.7h8.5v-7.7h14.4z"/><path class="st2" d="M53 81.7h1.5v17.5H53z"/><path class="st2" d="M132 100.9H53.3c-.2 0-.4-.1-.6-.2l-13.6-8.6c-.3-.2-.5-.6-.5-1v-.7c0-.4.2-.7.5-.9l13.6-9.3c.2-.1.4-.2.6-.2H132c5.7 0 10.4 4.7 10.4 10.4s-4.7 10.5-10.4 10.5zm-78.4-2.3H132c4.5 0 8.1-3.6 8.1-8.1s-3.6-8.1-8.1-8.1H53.6l-12.3 8.4 12.3 7.8z"/><path class="st2" d="M39.7 90h77.8v1.5H39.7zM125.8 90.7h15.4v1.5h-15.4zM59.9 85c-.7 0-1.3.6-1.3 1.3 0 .7.6 1.3 1.3 1.3h3.8c.7 0 1.3-.6 1.3-1.3s-.6-1.3-1.3-1.3h-3.8zm3.7 4.2h-3.8c-1.6 0-2.9-1.3-2.9-2.9s1.3-2.9 2.9-2.9h3.8c1.6 0 2.9 1.3 2.9 2.9s-1.3 2.9-2.9 2.9zM71.7 85c-.7 0-1.3.6-1.3 1.3 0 .7.6 1.3 1.3 1.3h3.7c.7 0 1.3-.6 1.3-1.3s-.6-1.3-1.3-1.3h-3.7zm3.7 4.2h-3.8c-1.6 0-2.9-1.3-2.9-2.9s1.3-2.9 2.9-2.9h3.8c1.6 0 2.9 1.3 2.9 2.9s-1.3 2.9-2.9 2.9zM83.4 85c-.7 0-1.3.6-1.3 1.3 0 .7.6 1.3 1.3 1.3h3.8c.7 0 1.3-.6 1.3-1.3s-.6-1.3-1.3-1.3h-3.8zm3.8 4.2h-3.8c-1.6 0-2.9-1.3-2.9-2.9s1.3-2.9 2.9-2.9h3.8c1.6 0 2.9 1.3 2.9 2.9s-1.3 2.9-2.9 2.9zM95.2 85c-.7 0-1.3.6-1.3 1.3 0 .7.6 1.3 1.3 1.3H99c.7 0 1.3-.6 1.3-1.3S99.7 85 99 85h-3.8zm3.8 4.2h-3.8c-1.6 0-2.9-1.3-2.9-2.9s1.3-2.9 2.9-2.9H99c1.6 0 2.9 1.3 2.9 2.9s-1.4 2.9-2.9 2.9zM107 85c-.7 0-1.3.6-1.3 1.3 0 .7.6 1.3 1.3 1.3h3.8c.7 0 1.3-.6 1.3-1.3s-.6-1.3-1.3-1.3H107zm3.7 4.2h-3.8c-1.6 0-2.9-1.3-2.9-2.9s1.3-2.9 2.9-2.9h3.8c1.6 0 2.9 1.3 2.9 2.9s-1.3 2.9-2.9 2.9z"/><path class="st2" d="M124 100.1h-5.3c-1.4 0-2.5-1.1-2.5-2.5V87.3c0-1.4 1.1-2.5 2.5-2.5h5.3c1.4 0 2.5 1.1 2.5 2.5v10.3c0 1.4-1.1 2.5-2.5 2.5zm-5.3-13.9c-.6 0-1 .5-1 1v10.3c0 .6.5 1 1 1h5.3c.6 0 1-.5 1-1V87.3c0-.6-.5-1-1-1l-5.3-.1zM130.7 88.5c-1 0-1.8-.8-1.8-1.8v-5.3c0-1 1.1-.9 2.1-.9l5.5.9c.5.2 2 2 2 3l1.9 2.4c0 1 1.5 1.6.5 1.6l-10.2.1zM120.6 81.9s-1.7-2.4-3.1-4.2l-.3-.4c-1.1-1.5-2.1-2.8-3.4-2.8H86.7c-1.5 0-2.6 1.2-2.6 2.6v3.4h-2.3v-3.4c0-2.7 2.2-4.9 4.9-4.9h27.1c2.4 0 3.9 2 5.2 3.7l.3.4c1.4 1.9 3.1 4.3 3.1 4.3l-1.8 1.3z"/><path class="st2" d="M109.7 74c-.8 0-1.5-.7-1.5-1.5v-9.4c0-2 0-3.4 1-4.4s2.3-.9 4.7-.9h1.2c.8 0 1.5.7 1.5 1.5s-.7 1.5-1.5 1.5h-1.2c-1 0-2.1 0-2.5.1-.1.4-.1 1.5-.1 2.2v9.4c-.1.8-.8 1.5-1.6 1.5z"/><g><circle class="st2" cx="90.2" cy="77.3" r="1.2"/><circle class="st2" cx="95.4" cy="77.3" r="1.2"/><circle class="st2" cx="100.6" cy="77.3" r="1.2"/><circle class="st2" cx="105.7" cy="77.3" r="1.2"/><circle class="st2" cx="110.9" cy="77.3" r="1.2"/></g><path class="st2" d="M120.6 86.2h1.5v13.5h-1.5z"/></g></svg>