<svg id="Layer_1" xmlns="http://www.w3.org/2000/svg" viewBox="0 0 151.4 174.5"><style>.st0{fill:#8ACAFF;} .st1{fill:#BCD7F7;} .st2{fill:#0072FF;} .st3{fill:#FFFFFF;} .st4{fill:#B8DFFF;} .st5{clip-path:url(#SVGID_2_);} .st6{fill:none;stroke:#BCD7F7;stroke-width:5;stroke-linejoin:round;stroke-miterlimit:10;} .st7{fill:none;} .st8{fill:none;stroke:#BCD7F7;stroke-width:2;stroke-linejoin:round;stroke-miterlimit:10;} .st9{fill:#B8DFFF;stroke:#0072FF;stroke-width:2;stroke-linejoin:round;stroke-miterlimit:10;} .st10{fill:none;stroke:#BCD7F7;stroke-width:33;stroke-linejoin:round;stroke-miterlimit:10;}</style><path class="st1" d="M29.5 131.6H47v1.5H29.5zM65.7 150.1h18.8v1.5H65.7zM29.5 123.9h17v1.5h-17zM17.7 123.9h8.1v1.5h-8.1zM90.6 121.7h25.5v1.5H90.6zM128 120.6h9.4v1.5H128z"/><g><path class="st1" d="M133.6 98.7h7.6v1.5h-7.6zM10.4 98.7h5.9v1.5h-5.9z"/></g><path class="st1" d="M75.7 174.5c-.1 0-.3 0-.4-.1L.4 131.2c-.2-.1-.4-.4-.4-.7V44c0-.3.1-.5.4-.7L75.3.1c.2-.1.5-.1.8 0L151 43.3c.2.1.4.4.4.7v86.5c0 .3-.1.5-.4.7l-74.9 43.2c-.2 0-.3.1-.4.1zM1.5 130l74.1 42.8 74.1-42.8V44.4L75.6 1.6 1.5 44.4V130z"/><path class="st2" d="M75.7 169.1c-.3 0-.5-.1-.8-.2L5.3 128.7c-.5-.3-.8-.8-.8-1.3V47c0-.5.3-1 .8-1.3L74.9 5.5c.5-.3 1-.3 1.5 0L146 45.7c.5.3.8.8.8 1.3v80.4c0 .5-.3 1-.8 1.3l-69.6 40.2c-.2.1-.5.2-.7.2zM7.6 126.5l68.1 39.3 68.1-39.3V47.9L75.7 8.6 7.6 47.9v78.6z"/><g><path class="st2" d="M87.5 141H47c-.4 0-.8-.3-.8-.8v-17.7c0-.4.3-.8.8-.8h40.5c.4 0 .8.3.8.8v17.7c-.1.5-.4.8-.8.8zm-39.8-1.5h39v-16.2h-39v16.2z"/><path class="st4" d="M50.9 126.3h32.6v8.5H50.9z"/></g><g><circle class="st1" cx="95" cy="103.7" r="1.3"/><path class="st4" d="M54.9 53.3v54.4h79.3V53.3H54.9zm74.5 46.1H59.8v-42h69.5v42h.1z"/><path class="st2" d="M134.3 108.8H55c-.6 0-1.1-.5-1.1-1.1V53.3c0-.6.5-1.1 1.1-1.1h79.3c.6 0 1.1.5 1.1 1.1v54.4c0 .6-.5 1.1-1.1 1.1zm-78.2-2.2h77.1V54.5H56.1v52.1zm73.3-6.1H59.8c-.6 0-1.1-.5-1.1-1.1v-42c0-.6.5-1.1 1.1-1.1h69.5c.6 0 1.1.5 1.1 1.1v42c.1.6-.4 1.1-1 1.1zM61 98.3h67.3V58.5H61v39.8z"/><path class="st1" d="M85.2 107.7h18.9v4H85.2z"/><path class="st2" d="M104 112.5H85.1c-.4 0-.8-.3-.8-.8v-4c0-.4.3-.8.8-.8H104c.4 0 .8.3.8.8v4c0 .4-.3.8-.8.8zm-18.1-1.6h17.4v-2.5H85.9v2.5z"/><path class="st3" d="M82.5 111.7h24.2v3.6H82.5z"/><path class="st2" d="M106.7 116.5H82.5c-.6 0-1.1-.5-1.1-1.1v-3.6c0-.6.5-1.1 1.1-1.1h24.2c.6 0 1.1.5 1.1 1.1v3.6c0 .5-.5 1.1-1.1 1.1zm-23.1-2.3h22v-1.4h-22v1.4z"/><path class="st0" d="M118.1 93.4c-1.6 0-2.5-.9-3.1-1.7-.7-.8-1.1-1.2-2-1.2s-1.3.4-2 1.2-1.5 1.7-3.1 1.7-2.4-.9-3.1-1.7-1.1-1.2-2-1.2-1.3.4-2 1.2-1.5 1.7-3.1 1.7-2.5-.9-3.1-1.7c-.7-.8-1.1-1.2-2-1.2s-1.3.4-2 1.2-1.5 1.7-3.1 1.7-2.4-.9-3.1-1.7-1.1-1.2-2-1.2c-.4 0-.8-.3-.8-.8 0-.4.3-.8.8-.8 1.6 0 2.5.9 3.1 1.7.7.8 1.1 1.2 2 1.2s1.3-.4 2-1.2 1.5-1.7 3.1-1.7 2.4.9 3.1 1.7 1.1 1.2 2 1.2 1.3-.4 2-1.2 1.5-1.7 3.1-1.7 2.5.9 3.1 1.7c.7.8 1.1 1.2 2 1.2s1.3-.4 2-1.2 1.5-1.7 3.1-1.7 2.5.9 3.1 1.7c.7.8 1.1 1.2 2 1.2s1.3-.4 2-1.2 1.5-1.7 3.1-1.7c.4 0 .8.3.8.8 0 .4-.3.8-.8.8-.9 0-1.3.4-2 1.2-.6.7-1.5 1.7-3.1 1.7zM118.1 85.2c-1.6 0-2.5-.9-3.1-1.7-.7-.8-1.1-1.2-2-1.2s-1.3.4-2 1.2-1.5 1.7-3.1 1.7-2.4-.9-3.1-1.7-1.1-1.2-2-1.2-1.3.4-2 1.2-1.5 1.7-3.1 1.7-2.5-.9-3.1-1.7c-.7-.8-1.1-1.2-2-1.2s-1.3.4-2 1.2-1.5 1.7-3.1 1.7-2.4-.9-3.1-1.7-1.1-1.2-2-1.2c-.4 0-.8-.3-.8-.8 0-.4.3-.8.8-.8 1.6 0 2.5.9 3.1 1.7.7.8 1.1 1.2 2 1.2s1.3-.4 2-1.2 1.5-1.7 3.1-1.7 2.4.9 3.1 1.7 1.1 1.2 2 1.2 1.3-.4 2-1.2 1.5-1.7 3.1-1.7 2.5.9 3.1 1.7c.7.8 1.1 1.2 2 1.2s1.3-.4 2-1.2 1.5-1.7 3.1-1.7 2.5.9 3.1 1.7c.7.8 1.1 1.2 2 1.2s1.3-.4 2-1.2 1.5-1.7 3.1-1.7c.4 0 .8.3.8.8 0 .4-.3.8-.8.8-.9 0-1.3.4-2 1.2-.6.8-1.5 1.7-3.1 1.7z"/><g><path class="st1" d="M39.8 107.7h18.9v4H39.8z"/><path class="st2" d="M58.6 112.5H39.8c-.4 0-.8-.3-.8-.8v-4c0-.4.3-.8.8-.8h18.9c.4 0 .8.3.8.8v4c-.1.4-.4.8-.9.8zm-18.1-1.6h17.4v-2.5H40.5v2.5z"/></g><g><path class="st3" d="M37.1 111.7h24.2v3.6H37.1z"/><path class="st2" d="M61.3 116.5H37.1c-.6 0-1.1-.5-1.1-1.1v-3.6c0-.6.5-1.1 1.1-1.1h24.2c.6 0 1.1.5 1.1 1.1v3.6c0 .5-.5 1.1-1.1 1.1zm-23.1-2.3h22v-1.4h-22v1.4z"/></g><g><path class="st4" d="M17.1 63.3h64.2v44H17.1z"/><path class="st2" d="M81.3 108.4H17.1c-.6 0-1.1-.5-1.1-1.1v-44c0-.6.5-1.1 1.1-1.1h64.2c.6 0 1.1.5 1.1 1.1v44c0 .6-.5 1.1-1.1 1.1zm-63.1-2.2h61.9V64.5H18.2v41.7z"/><circle class="st2" cx="49.2" cy="103.8" r="1.3"/><circle class="st2" cx="96.2" cy="103.8" r="1.3"/><g><path class="st3" d="M21 68.4h56.2v32.2H21z"/><path class="st2" d="M78 101.4H20.2V67.7H78v33.7zm-56.2-1.6h54.7V69.1H21.8v30.7z"/></g></g><g><path class="st0" d="M77.1 93.4c-.6 0-1.1-.1-1.6-.4-.6-.3-1.1-.9-1.5-1.3-.7-.8-1.1-1.2-2-1.2s-1.3.4-2 1.2-1.5 1.7-3.1 1.7-2.4-.9-3.1-1.7-1.1-1.2-2-1.2-1.3.4-2 1.2-1.5 1.7-3.1 1.7-2.5-.9-3.1-1.7c-.7-.8-1.1-1.2-2-1.2s-1.3.4-2 1.2-1.5 1.7-3.1 1.7-2.5-.9-3.1-1.7c-.7-.8-1.1-1.2-2-1.2s-1.3.4-2 1.2-1.5 1.7-3.1 1.7-2.4-.9-3.1-1.7-1.1-1.2-2-1.2-1.3.4-2 1.2-1.5 1.7-3.1 1.7c-.4 0-.8-.3-.8-.8 0-.4.3-.8.8-.8.9 0 1.3-.4 2-1.2s1.5-1.7 3.1-1.7 2.4.9 3.1 1.7 1.1 1.2 2 1.2 1.3-.4 2-1.2 1.5-1.7 3.1-1.7 2.4.9 3.1 1.7 1.1 1.2 2 1.2 1.3-.4 2-1.2 1.5-1.7 3.1-1.7 2.5.9 3.1 1.7c.7.8 1.1 1.2 2 1.2s1.3-.4 2-1.2 1.5-1.7 3.1-1.7 2.5.9 3.1 1.7c.7.8 1.1 1.2 2 1.2s1.3-.4 2-1.2 1.5-1.7 3.1-1.7 2.5.9 3.1 1.7c.3.4.7.8 1.1 1 .3.1.6.2.9.2.4 0 .8.3.8.8s-.3.8-.8.8zM77.1 85.2c-.6 0-1.2-.1-1.7-.4-.6-.3-1.1-.8-1.5-1.3-.7-.8-1.1-1.2-2-1.2s-1.3.4-2 1.2-1.5 1.7-3.1 1.7-2.4-.9-3.1-1.7-1.1-1.2-2-1.2-1.3.4-2 1.2-1.5 1.7-3.1 1.7-2.5-.9-3.1-1.7c-.7-.8-1.1-1.2-2-1.2s-1.3.4-2 1.2-1.5 1.7-3.1 1.7-2.5-.9-3.1-1.7c-.7-.8-1.1-1.2-2-1.2s-1.3.4-2 1.2-1.5 1.7-3.1 1.7-2.4-.9-3.1-1.7-1.1-1.2-2-1.2-1.3.4-2 1.2-1.5 1.7-3.1 1.7c-.4 0-.8-.3-.8-.8s.3-.8.8-.8c.9 0 1.3-.4 2-1.2s1.5-1.7 3.1-1.7 2.4.9 3.1 1.7 1.1 1.2 2 1.2 1.3-.4 2-1.2 1.5-1.7 3.1-1.7 2.4.9 3.1 1.7 1.1 1.2 2 1.2 1.3-.4 2-1.2 1.5-1.7 3.1-1.7 2.5.9 3.1 1.7c.7.8 1.1 1.2 2 1.2s1.3-.4 2-1.2 1.5-1.7 3.1-1.7 2.5.9 3.1 1.7c.7.8 1.1 1.2 2 1.2s1.3-.4 2-1.2 1.5-1.7 3.1-1.7 2.5.9 3.1 1.7c.3.4.7.8 1.1 1 .3.2.6.2.9.2.4 0 .8.3.8.8s-.2.8-.7.8z"/></g><path class="st2" d="M77.3 101.7H21.1c-.6 0-1.1-.5-1.1-1.1V68.4c0-.6.5-1.1 1.1-1.1h56.2c.6 0 1.1.5 1.1 1.1v32.2c0 .5-.5 1.1-1.1 1.1zm-55.1-2.3h54v-30h-54v30z"/><circle class="st4" cx="114.4" cy="68.3" r="4.2"/></g><g><ellipse class="st1" cx="101.5" cy="132.6" rx="5.1" ry="7.5"/><path class="st2" d="M101.5 140.9c-3.2 0-5.8-3.7-5.8-8.3 0-4.6 2.6-8.3 5.8-8.3s5.8 3.7 5.8 8.3c0 4.6-2.6 8.3-5.8 8.3zm0-15.1c-2.3 0-4.3 3.1-4.3 6.8s2 6.8 4.3 6.8 4.3-3.1 4.3-6.8c0-3.6-2-6.8-4.3-6.8z"/></g><path class="st2" d="M102.2 125.1h-1.5v-3.7c0-1.3.8-3.6 5.8-3.6h11.9s1.2 0 2-.8c.5-.4.7-1.1.7-1.9 0-.6-.2-1.1-.5-1.5-.8-.8-2.1-.7-2.2-.8h-12.3v-1.5h12.3c.1 0 2 0 3.2 1.2.7.7 1 1.5 1 2.6 0 1.3-.4 2.3-1.1 3-1.2 1.2-3 1.2-3.1 1.2h-11.9c-1.6 0-4.3.3-4.3 2.1v3.7z"/></svg>