<?xml version="1.0" encoding="utf-8"?>
<!-- Generator: Adobe Illustrator 19.2.0, SVG Export Plug-In . SVG Version: 6.00 Build 0)  -->
<svg version="1.1" id="Layer_1" xmlns="http://www.w3.org/2000/svg" xmlns:xlink="http://www.w3.org/1999/xlink" x="0px" y="0px"
	 viewBox="0 0 125 178" style="enable-background:new 0 0 125 178;" xml:space="preserve">
<style type="text/css">
	.st0{fill:#8ACAFF;}
	.st1{fill:#BCD7F7;}
	.st2{fill:#0072FF;}
	.st3{fill:#FFFFFF;}
	.st4{fill:#B8DFFF;}
	.st5{clip-path:url(#SVGID_2_);}
	.st6{fill:none;stroke:#BCD7F7;stroke-width:5;stroke-linejoin:round;stroke-miterlimit:10;}
	.st7{fill:none;}
	.st8{fill:none;stroke:#BCD7F7;stroke-width:2;stroke-linejoin:round;stroke-miterlimit:10;}
	.st9{fill:#B8DFFF;stroke:#0072FF;stroke-width:2;stroke-linejoin:round;stroke-miterlimit:10;}
	.st10{fill:none;stroke:#BCD7F7;stroke-width:33;stroke-linejoin:round;stroke-miterlimit:10;}
</style>
<g>
	<path class="st0" d="M95.8,39.7c-2,0-3-0.9-3.9-1.7c-0.8-0.7-1.5-1.3-2.8-1.3s-2,0.6-2.8,1.3c-0.9,0.8-1.9,1.7-3.9,1.7
		s-3-0.9-3.9-1.7c-0.8-0.7-1.5-1.3-2.8-1.3c-1.4,0-2,0.6-2.8,1.3C72,38.8,71,39.7,69,39.7s-3-0.9-3.9-1.7c-0.8-0.7-1.5-1.3-2.8-1.3
		c-1.4,0-2,0.6-2.8,1.3c-0.9,0.8-1.9,1.7-3.9,1.7s-3-0.9-3.9-1.7c-0.8-0.7-1.5-1.3-2.8-1.3c-1.4,0-2,0.6-2.8,1.3
		c-0.9,0.8-1.9,1.7-3.9,1.7s-3-0.9-3.9-1.7c-0.8-0.7-1.5-1.3-2.8-1.3c-1.4,0-2,0.6-2.8,1.3c-0.9,0.8-1.9,1.7-3.9,1.7s-3-0.9-3.9-1.7
		c-0.8-0.7-1.5-1.3-2.8-1.3v-1.5c2,0,3,0.9,3.9,1.7c0.8,0.7,1.5,1.3,2.8,1.3c1.4,0,2-0.6,2.8-1.3c0.8-0.8,1.8-1.7,3.8-1.7
		s3,0.9,3.9,1.7c0.8,0.7,1.5,1.3,2.8,1.3c1.4,0,2-0.6,2.8-1.3c0.9-0.8,1.9-1.7,3.9-1.7s3,0.9,3.9,1.7c0.8,0.7,1.5,1.3,2.8,1.3
		c1.4,0,2-0.6,2.8-1.3c0.9-0.8,1.9-1.7,3.9-1.7s3,0.9,3.9,1.7c0.8,0.7,1.5,1.3,2.8,1.3c1.4,0,2-0.6,2.8-1.3c0.9-0.8,1.9-1.7,3.9-1.7
		s3,0.9,3.9,1.7c0.8,0.7,1.5,1.3,2.8,1.3c1.4,0,2-0.6,2.8-1.3c0.9-0.8,1.9-1.7,3.9-1.7s3,0.9,3.9,1.7c0.8,0.7,1.5,1.3,2.8,1.3
		c1.4,0,2-0.6,2.8-1.3c0.9-0.8,1.9-1.7,3.9-1.7v1.5c-1.4,0-2,0.6-2.8,1.3C98.8,38.8,97.8,39.7,95.8,39.7z"/>
	<rect x="14.8" y="127.5" class="st1" width="95.2" height="1.5"/>
	<path class="st1" d="M66.6,178h-8.2C26.2,178,0,151.8,0,119.6V58.4C0,26.2,26.2,0,58.4,0h8.2C98.8,0,125,26.2,125,58.4v61.2
		C125.1,151.7,98.8,178,66.6,178z M58.4,1.4C27,1.4,1.5,26.9,1.5,58.3v61.2c0,31.4,25.5,56.9,56.9,56.9h8.2
		c31.4,0,56.9-25.5,56.9-56.9V58.3c0-31.4-25.5-56.9-56.9-56.9C66.6,1.4,58.4,1.4,58.4,1.4z"/>
	<path class="st2" d="M66,172h-7.4C29,172,4.9,147.9,4.9,118.3V59.4C4.9,29.8,29,5.7,58.6,5.7H66c29.6,0,53.7,24.1,53.7,53.7v58.9
		C119.6,147.9,95.5,172,66,172z M58.5,8.8C30.6,8.8,7.9,31.5,7.9,59.4v58.9c0,27.9,22.7,50.6,50.6,50.6h7.4
		c27.9,0,50.6-22.7,50.6-50.6V59.4c0-27.9-22.7-50.6-50.6-50.6H58.5z"/>
	<g>
		<path class="st2" d="M62.8,141.9c-13.4,0-24.4-11-24.4-24.4v-4.4c0-1.3,1-2.3,2.3-2.3s2.3,1,2.3,2.3v4.4
			c0,10.9,8.9,19.8,19.8,19.8s19.8-8.9,19.8-19.8v-4.4c0-1.3,1-2.3,2.3-2.3s2.3,1,2.3,2.3v4.4C87.1,130.9,76.2,141.9,62.8,141.9z"/>
		<path class="st2" d="M62.8,146.1c-1.3,0-2.3-1-2.3-2.3V81.3c0-1.3,1-2.3,2.3-2.3s2.3,1,2.3,2.3v62.5C65,145.1,64,146.1,62.8,146.1
			z"/>
		<path class="st2" d="M71.2,91.4H54.4c-1.3,0-2.3-1-2.3-2.3s1-2.3,2.3-2.3h16.8c1.3,0,2.3,1,2.3,2.3S72.5,91.4,71.2,91.4z"/>
		<path class="st2" d="M62.8,83.4c-3.5,0-6.3-2.8-6.3-6.3s2.8-6.3,6.3-6.3s6.3,2.8,6.3,6.3C69.1,80.6,66.3,83.4,62.8,83.4z
			 M62.8,73.8c-1.8,0-3.3,1.5-3.3,3.3s1.5,3.3,3.3,3.3s3.3-1.5,3.3-3.3C66.1,75.3,64.6,73.8,62.8,73.8z"/>
		<path class="st2" d="M45,113.3h-9.3c-0.8,0-1.5-0.7-1.5-1.5s0.7-1.5,1.5-1.5H45c0.8,0,1.5,0.7,1.5,1.5S45.8,113.3,45,113.3z"/>
		<path class="st2" d="M89.7,113.3h-9.3c-0.8,0-1.5-0.7-1.5-1.5s0.7-1.5,1.5-1.5h9.3c0.8,0,1.5,0.7,1.5,1.5S90.5,113.3,89.7,113.3z"
			/>
	</g>
	<g>
		<g>
			<path class="st1" d="M83.1,96.6c1.9-1.8,1.8-5.1,1.8-5.1s-3.2-0.3-5.1,1.6c-1.9,1.8-1.8,5.1-1.8,5.1S81.1,98.4,83.1,96.6z"/>
			<path class="st2" d="M78.3,98.9c-0.3,0-0.5,0-0.5,0c-0.4,0-0.7-0.3-0.7-0.7c0-0.1-0.1-3.6,2.1-5.6c1.7-1.6,4.2-1.8,5.2-1.8
				c0.3,0,0.5,0,0.5,0c0.4,0,0.7,0.3,0.7,0.7c0,0.1,0.1,3.6-2.1,5.6C81.9,98.7,79.3,98.9,78.3,98.9z M84.1,92.2
				c-1,0-2.7,0.3-3.8,1.4c-1.1,1.1-1.5,2.8-1.6,3.8c1,0,2.7-0.3,3.8-1.4C83.7,94.9,84,93.2,84.1,92.2z"/>
		</g>
		<g>
			<polyline class="st3" points="88.5,92.5 84.9,91.5 84.1,88 			"/>
			<path class="st2" d="M88.5,93.6c-0.1,0-0.2,0-0.3,0l-3.7-1c-0.4-0.1-0.7-0.4-0.8-0.9L83,88.2c-0.1-0.6,0.3-1.2,0.9-1.3
				s1.2,0.3,1.3,0.9l0.6,2.8l3,0.8c0.6,0.2,1,0.8,0.8,1.4C89.5,93.3,89,93.6,88.5,93.6z"/>
		</g>
	</g>
	<g>
		<g>
			<path class="st1" d="M94,78.8c1.9-1.8,1.8-5.1,1.8-5.1s-3.2-0.3-5.1,1.6c-1.9,1.8-1.8,5.1-1.8,5.1S92.1,80.6,94,78.8z"/>
			<path class="st2" d="M89.3,81.1c-0.3,0-0.5,0-0.5,0c-0.4,0-0.7-0.3-0.7-0.7c0-0.1-0.1-3.6,2.1-5.6c1.7-1.6,4.2-1.8,5.2-1.8
				c0.3,0,0.5,0,0.5,0c0.4,0,0.7,0.3,0.7,0.7c0,0.1,0.1,3.6-2.1,5.6C92.8,80.9,90.3,81.1,89.3,81.1z M95,74.5c-1,0-2.7,0.3-3.8,1.4
				c-1.1,1.1-1.5,2.8-1.6,3.8c1,0,2.7-0.3,3.8-1.4C94.6,77.1,94.9,75.4,95,74.5z"/>
		</g>
		<g>
			<polyline class="st3" points="99.5,74.7 95.8,73.7 95.1,70.2 			"/>
			<path class="st2" d="M99.5,75.8c-0.1,0-0.2,0-0.3,0l-3.7-1c-0.4-0.1-0.7-0.4-0.8-0.9L94,70.4c-0.1-0.6,0.3-1.2,0.9-1.3
				s1.2,0.3,1.3,0.9l0.6,2.8l3,0.8c0.6,0.2,1,0.8,0.8,1.4C100.4,75.5,100,75.8,99.5,75.8z"/>
		</g>
	</g>
	<g>
		<g>
			<path class="st1" d="M42,96.6c-1.9-1.8-1.8-5.1-1.8-5.1s3.2-0.3,5.1,1.6c1.9,1.8,1.8,5.1,1.8,5.1S43.9,98.4,42,96.6z"/>
			<path class="st2" d="M46.7,98.9c-1,0-3.5-0.2-5.2-1.8c-2.1-2-2.1-5.5-2.1-5.6c0-0.4,0.3-0.7,0.7-0.7c0,0,0.2,0,0.5,0
				c1,0,3.5,0.2,5.2,1.8c2.1,2,2.1,5.5,2.1,5.6c0,0.4-0.3,0.7-0.7,0.7C47.2,98.9,47,98.9,46.7,98.9z M41,92.2c0.1,1,0.4,2.7,1.6,3.8
				c1.1,1.1,2.9,1.3,3.8,1.4c-0.1-1-0.4-2.7-1.6-3.8C43.6,92.5,41.9,92.3,41,92.2z"/>
		</g>
		<g>
			<polyline class="st3" points="36.5,92.5 40.2,91.5 40.9,88 			"/>
			<path class="st2" d="M36.5,93.6c-0.5,0-1-0.3-1.1-0.8c-0.2-0.6,0.2-1.2,0.8-1.4l3-0.8l0.6-2.8c0.1-0.6,0.7-1,1.3-0.9
				s1,0.7,0.9,1.3l-0.7,3.5c-0.1,0.4-0.4,0.8-0.8,0.9l-3.7,1C36.7,93.6,36.6,93.6,36.5,93.6z"/>
		</g>
	</g>
	<g>
		<g>
			<path class="st1" d="M30.7,79.4c-1.9-1.8-1.8-5.1-1.8-5.1s3.2-0.3,5.1,1.6c1.9,1.8,1.8,5.1,1.8,5.1S32.6,81.2,30.7,79.4z"/>
			<path class="st2" d="M35.4,81.7c-1,0-3.5-0.2-5.2-1.8c-2.1-2-2.1-5.5-2.1-5.6c0-0.4,0.3-0.7,0.7-0.7c0,0,0.2,0,0.5,0
				c1,0,3.5,0.2,5.2,1.8c2.1,2,2.1,5.5,2.1,5.6c0,0.4-0.3,0.7-0.7,0.7C35.9,81.7,35.7,81.7,35.4,81.7z M29.7,75.1
				c0.1,1,0.4,2.7,1.6,3.8c1.1,1.1,2.9,1.3,3.8,1.4c-0.1-1-0.4-2.7-1.6-3.8C32.4,75.3,30.6,75.1,29.7,75.1z"/>
		</g>
		<g>
			<polyline class="st3" points="25.2,75.3 28.9,74.3 29.6,70.8 			"/>
			<path class="st2" d="M25.2,76.4c-0.5,0-1-0.3-1.1-0.8c-0.2-0.6,0.2-1.2,0.8-1.4l3-0.8l0.6-2.8c0.1-0.6,0.7-1,1.3-0.9
				s1,0.7,0.9,1.3L30,74.5c-0.1,0.4-0.4,0.8-0.8,0.9l-3.7,1C25.4,76.4,25.3,76.4,25.2,76.4z"/>
		</g>
	</g>
	<g>
		<g>
			<g>
				<path class="st1" d="M100,103.1c2.1-1.6,2.5-4.8,2.5-4.8s-3.2-0.7-5.3,0.9c-2.1,1.6-2.5,4.8-2.5,4.8S97.8,104.6,100,103.1z"/>
				<path class="st2" d="M96.2,104.9L96.2,104.9c-1,0-1.7-0.2-1.8-0.2c-0.4-0.1-0.6-0.4-0.6-0.8c0-0.1,0.4-3.6,2.8-5.3
					c1.3-1,3-1.2,4.1-1.2c1,0,1.7,0.2,1.8,0.2c0.4,0.1,0.6,0.4,0.6,0.8c0,0.1-0.4,3.6-2.8,5.3C99.1,104.7,97.4,104.9,96.2,104.9z
					 M95.5,103.3c0.2,0,0.5,0,0.7,0c0.9,0,2.2-0.2,3.3-0.9c1.3-0.9,1.8-2.6,2-3.5c-0.2,0-0.5,0-0.7,0c-0.9,0-2.2,0.2-3.3,0.9
					C96.3,100.7,95.7,102.4,95.5,103.3z"/>
			</g>
			<g>
				<polyline class="st3" points="105.9,99.7 102.4,98.2 102.1,94.7 				"/>
				<path class="st2" d="M105.9,100.8c-0.1,0-0.3,0-0.4-0.1l-3.5-1.4c-0.4-0.2-0.7-0.5-0.7-1l-0.3-3.5c0-0.6,0.4-1.2,1-1.2
					c0.6-0.1,1.2,0.4,1.2,1l0.2,2.8l2.9,1.2c0.6,0.2,0.9,0.9,0.6,1.5C106.8,100.6,106.3,100.8,105.9,100.8z"/>
			</g>
		</g>
	</g>
	<g>
		<g>
			<g>
				<path class="st1" d="M27.7,104.1c-2.1-1.6-2.5-4.8-2.5-4.8s3.2-0.7,5.3,0.9c2.1,1.6,2.5,4.8,2.5,4.8S29.9,105.6,27.7,104.1z"/>
				<path class="st2" d="M31.4,105.9c-1.2,0-2.8-0.2-4.1-1.2c-2.4-1.7-2.8-5.2-2.8-5.3c0-0.4,0.2-0.7,0.6-0.8c0,0,0.8-0.2,1.8-0.2
					c1.2,0,2.8,0.2,4.1,1.2c2.4,1.7,2.8,5.2,2.8,5.3c0,0.4-0.2,0.7-0.6,0.8C33.1,105.7,32.4,105.9,31.4,105.9z M26.1,99.9
					c0.2,0.9,0.8,2.6,2,3.5c1,0.7,2.3,0.9,3.3,0.9c0.3,0,0.5,0,0.7,0c-0.2-0.9-0.8-2.6-2-3.5c-1-0.7-2.3-0.9-3.3-0.9
					C26.6,99.9,26.3,99.9,26.1,99.9z"/>
			</g>
			<g>
				<polyline class="st3" points="21.8,100.7 25.3,99.3 25.5,95.7 				"/>
				<path class="st2" d="M21.8,101.8c-0.4,0-0.9-0.3-1-0.7c-0.2-0.6,0-1.2,0.6-1.5l2.9-1.2l0.2-2.8c0-0.6,0.6-1.1,1.2-1
					c0.6,0,1.1,0.6,1,1.2l-0.3,3.5c0,0.4-0.3,0.8-0.7,1l-3.5,1.4C22.1,101.8,21.9,101.8,21.8,101.8z"/>
			</g>
		</g>
	</g>
	<g>
		<g>
			<g>
				<path class="st1" d="M44.1,73.1c-1.4-2.3-0.5-5.4-0.5-5.4s3.2,0.6,4.6,2.9c1.4,2.3,0.5,5.4,0.5,5.4S45.5,75.3,44.1,73.1z"/>
				<path class="st2" d="M48.7,76.7L48.7,76.7c-0.2,0-3.6-0.7-5.2-3.2c-1.5-2.5-0.6-5.8-0.5-6c0.1-0.4,0.5-0.6,0.9-0.5
					c0.1,0,3.5,0.7,5.1,3.2c1.5,2.5,0.6,5.8,0.5,6C49.3,76.4,49,76.7,48.7,76.7z M44.2,68.6c-0.2,1-0.3,2.7,0.5,4s2.4,2,3.4,2.3
					c0.2-1,0.3-2.7-0.5-4C46.7,69.6,45.1,68.9,44.2,68.6z"/>
			</g>
			<g>
				<polyline class="st3" points="39.9,67.7 43.7,67.7 45.3,64.5 				"/>
				<path class="st2" d="M43.7,68.8h-3.8c-0.6,0-1.1-0.5-1.1-1.1s0.5-1.1,1.1-1.1H43l1.3-2.5c0.3-0.6,1-0.8,1.5-0.5
					c0.6,0.3,0.8,1,0.5,1.5l-1.6,3.2C44.5,68.6,44.1,68.8,43.7,68.8z"/>
			</g>
		</g>
		<g>
			<g>
				<path class="st1" d="M79,73.1c1.4-2.3,0.5-5.4,0.5-5.4s-3.2,0.6-4.6,2.9S74.4,76,74.4,76S77.6,75.3,79,73.1z"/>
				<path class="st2" d="M74.4,76.7c-0.3,0-0.6-0.2-0.7-0.5c0-0.1-1-3.4,0.5-6c1.5-2.5,4.9-3.2,5.1-3.2c0.4-0.1,0.7,0.2,0.9,0.5
					c0,0.1,1,3.4-0.5,6c-1.5,2.5-4.9,3.2-5.1,3.2C74.5,76.7,74.5,76.7,74.4,76.7z M78.9,68.6c-0.9,0.3-2.5,1-3.4,2.3
					c-0.8,1.3-0.7,3.1-0.5,4c0.9-0.3,2.5-1,3.4-2.3C79.2,71.3,79,69.6,78.9,68.6z"/>
			</g>
			<g>
				<polyline class="st3" points="83.2,67.7 79.4,67.7 77.8,64.5 				"/>
				<path class="st2" d="M83.2,68.8h-3.8c-0.4,0-0.8-0.2-1-0.6L76.8,65c-0.3-0.6-0.1-1.2,0.5-1.5s1.2-0.1,1.5,0.5l1.3,2.5h3.1
					c0.6,0,1.1,0.5,1.1,1.1C84.3,68.3,83.8,68.8,83.2,68.8z"/>
			</g>
		</g>
	</g>
	<g>
		<g>
			<g>
				<path class="st1" d="M61,57.1c-0.2-2.6,2-5,2-5s2.6,2,2.8,4.6c0.2,2.6-2,5-2,5S61.2,59.7,61,57.1z"/>
				<path class="st2" d="M63.8,62.4c-0.2,0-0.3-0.1-0.5-0.2c-0.1-0.1-2.8-2.2-3.1-5.1c-0.2-3,2.1-5.5,2.2-5.6c0.3-0.3,0.7-0.3,1-0.1
					c0.1,0.1,2.8,2.2,3.1,5.1c0.2,3-2.1,5.5-2.2,5.6C64.2,62.4,64,62.4,63.8,62.4z M63.1,53.2c-0.6,0.8-1.5,2.3-1.3,3.8
					c0.1,1.6,1.3,2.9,2,3.6c0.6-0.8,1.5-2.3,1.3-3.8C64.9,55.2,63.8,53.8,63.1,53.2z"/>
			</g>
			<g>
				<polyline class="st3" points="59.7,50.4 63.1,52.1 65.9,50 				"/>
				<path class="st2" d="M63.1,53.2c-0.2,0-0.3,0-0.5-0.1l-3.4-1.7c-0.6-0.3-0.8-1-0.5-1.5c0.3-0.6,1-0.8,1.5-0.5l2.8,1.4l2.3-1.7
					c0.5-0.4,1.2-0.3,1.6,0.2s0.3,1.2-0.2,1.6L63.9,53C63.5,53.1,63.3,53.2,63.1,53.2z"/>
			</g>
		</g>
	</g>
	<g>
		<circle class="st1" cx="35.3" cy="148.5" r="1.1"/>
		<circle class="st1" cx="46.2" cy="149.9" r="1.1"/>
		<circle class="st1" cx="49" cy="158.5" r="1.1"/>
		<circle class="st1" cx="76.4" cy="156.9" r="1.1"/>
		<circle class="st1" cx="94.6" cy="137.1" r="1.1"/>
		<circle class="st1" cx="58.6" cy="150" r="1.1"/>
		<circle class="st1" cx="88.6" cy="151.4" r="1.1"/>
		<circle class="st1" cx="89.4" cy="141.7" r="1.1"/>
		<circle class="st1" cx="66.3" cy="155.8" r="1.1"/>
		<circle class="st1" cx="26.2" cy="135.2" r="1.1"/>
		<circle class="st1" cx="81.4" cy="144.6" r="1.1"/>
		<circle class="st1" cx="102.5" cy="139.3" r="1.1"/>
		<circle class="st1" cx="37" cy="138.7" r="1.1"/>
		<circle class="st1" cx="26.2" cy="145.1" r="1.1"/>
	</g>
</g>
</svg>
