<?xml version="1.0" encoding="utf-8"?>
<!-- Generator: Adobe Illustrator 19.2.0, SVG Export Plug-In . SVG Version: 6.00 Build 0)  -->
<svg version="1.1" id="Layer_1" xmlns="http://www.w3.org/2000/svg" xmlns:xlink="http://www.w3.org/1999/xlink" x="0px" y="0px"
	 viewBox="0 0 151.4 174.5" style="enable-background:new 0 0 151.4 174.5;" xml:space="preserve">
<style type="text/css">
	.st0{fill:#8ACAFF;}
	.st1{fill:#BCD7F7;}
	.st2{fill:#0072FF;}
	.st3{fill:#FFFFFF;}
	.st4{fill:#B8DFFF;}
	.st5{clip-path:url(#SVGID_2_);}
	.st6{fill:none;stroke:#BCD7F7;stroke-width:5;stroke-linejoin:round;stroke-miterlimit:10;}
	.st7{fill:none;}
	.st8{fill:none;stroke:#BCD7F7;stroke-width:2;stroke-linejoin:round;stroke-miterlimit:10;}
	.st9{fill:#B8DFFF;stroke:#0072FF;stroke-width:2;stroke-linejoin:round;stroke-miterlimit:10;}
	.st10{fill:none;stroke:#BCD7F7;stroke-width:33;stroke-linejoin:round;stroke-miterlimit:10;}
</style>
<g>
	<g>
		<g>
			<rect x="41.8" y="139.5" class="st1" width="22.1" height="1.5"/>
			<rect x="80.7" y="144.3" class="st1" width="18.8" height="1.5"/>
			<rect x="41.8" y="131.5" class="st1" width="17" height="1.5"/>
			<rect x="30" y="131.5" class="st1" width="8.1" height="1.5"/>
			<rect x="68.6" y="153.6" class="st1" width="8.1" height="1.5"/>
			<rect x="77.1" y="133.3" class="st1" width="25.5" height="1.5"/>
			<rect x="108.8" y="131.3" class="st1" width="14.9" height="1.5"/>
		</g>
		<rect x="17" y="124.8" class="st1" width="118.4" height="1.5"/>
		<path class="st0" d="M135.8,112.6c-1.9,0-2.9-0.9-3.8-1.7c-0.8-0.7-1.4-1.3-2.8-1.3s-2,0.6-2.8,1.3c-0.9,0.8-1.9,1.7-3.8,1.7
			s-2.9-0.9-3.8-1.7c-0.8-0.7-1.4-1.3-2.8-1.3s-2,0.6-2.8,1.3c-0.9,0.8-1.9,1.7-3.8,1.7s-2.9-0.9-3.8-1.7c-0.8-0.7-1.4-1.3-2.8-1.3
			s-2,0.6-2.8,1.3c-0.9,0.8-1.9,1.7-3.8,1.7s-2.9-0.9-3.8-1.7c-0.8-0.7-1.4-1.3-2.8-1.3s-2,0.6-2.8,1.3c-0.9,0.8-1.9,1.7-3.8,1.7
			s-2.9-0.9-3.8-1.7c-0.8-0.7-1.4-1.3-2.8-1.3s-2,0.6-2.8,1.3c-0.9,0.8-1.9,1.7-3.8,1.7s-2.9-0.9-3.8-1.7c-0.8-0.7-1.4-1.3-2.8-1.3
			s-2,0.6-2.8,1.3c-0.9,0.8-1.9,1.7-3.8,1.7s-2.9-0.9-3.8-1.7c-0.8-0.7-1.4-1.3-2.8-1.3s-2,0.6-2.8,1.3c-0.9,0.8-1.9,1.7-3.8,1.7
			s-2.9-0.9-3.8-1.7c-0.8-0.7-1.4-1.3-2.8-1.3s-2,0.6-2.8,1.3c-0.9,0.8-1.9,1.7-3.8,1.7s-2.9-0.9-3.8-1.7c-0.8-0.7-1.4-1.3-2.8-1.3
			s-2,0.6-2.8,1.3c-0.9,0.8-1.9,1.7-3.8,1.7c-0.4,0-0.8-0.3-0.8-0.8c0-0.4,0.3-0.8,0.8-0.8c1.4,0,2-0.6,2.8-1.3
			c0.9-0.8,1.9-1.7,3.8-1.7s2.9,0.9,3.8,1.7c0.8,0.7,1.4,1.3,2.8,1.3s2-0.6,2.8-1.3c0.9-0.8,1.9-1.7,3.8-1.7s2.9,0.9,3.8,1.7
			c0.8,0.7,1.4,1.3,2.8,1.3s2-0.6,2.8-1.3c0.9-0.8,1.9-1.7,3.8-1.7s2.9,0.9,3.8,1.7c0.8,0.7,1.4,1.3,2.8,1.3s2-0.6,2.8-1.3
			c0.9-0.8,1.9-1.7,3.8-1.7s2.9,0.9,3.8,1.7c0.8,0.7,1.4,1.3,2.8,1.3s2-0.6,2.8-1.3c0.9-0.8,1.9-1.7,3.8-1.7s2.9,0.9,3.8,1.7
			c0.8,0.7,1.4,1.3,2.8,1.3s2-0.6,2.8-1.3c0.9-0.8,1.9-1.7,3.8-1.7s2.9,0.9,3.8,1.7c0.8,0.7,1.4,1.3,2.8,1.3s2-0.6,2.8-1.3
			c0.9-0.8,1.9-1.7,3.8-1.7s2.9,0.9,3.8,1.7c0.8,0.7,1.4,1.3,2.8,1.3s2-0.6,2.8-1.3c0.9-0.8,1.9-1.7,3.8-1.7s2.9,0.9,3.8,1.7
			c0.8,0.7,1.4,1.3,2.8,1.3s2-0.6,2.8-1.3c0.9-0.8,1.9-1.7,3.8-1.7s2.9,0.9,3.8,1.7c0.8,0.7,1.4,1.3,2.8,1.3c0.4,0,0.8,0.3,0.8,0.8
			S136.3,112.6,135.8,112.6z"/>
		<path class="st0" d="M135.8,120.1c-1.9,0-2.9-0.9-3.8-1.7c-0.8-0.7-1.4-1.3-2.8-1.3s-2,0.6-2.8,1.3c-0.9,0.8-1.9,1.7-3.8,1.7
			s-2.9-0.9-3.8-1.7c-0.8-0.7-1.4-1.3-2.8-1.3s-2,0.6-2.8,1.3c-0.9,0.8-1.9,1.7-3.8,1.7s-2.9-0.9-3.8-1.7c-0.8-0.7-1.4-1.3-2.8-1.3
			s-2,0.6-2.8,1.3c-0.9,0.8-1.9,1.7-3.8,1.7s-2.9-0.9-3.8-1.7c-0.8-0.7-1.4-1.3-2.8-1.3s-2,0.6-2.8,1.3c-0.9,0.8-1.9,1.7-3.8,1.7
			s-2.9-0.9-3.8-1.7c-0.8-0.7-1.4-1.3-2.8-1.3s-2,0.6-2.8,1.3c-0.9,0.8-1.9,1.7-3.8,1.7s-2.9-0.9-3.8-1.7c-0.8-0.7-1.4-1.3-2.8-1.3
			s-2,0.6-2.8,1.3c-0.9,0.8-1.9,1.7-3.8,1.7s-2.9-0.9-3.8-1.7c-0.8-0.7-1.4-1.3-2.8-1.3s-2,0.6-2.8,1.3c-0.9,0.8-1.9,1.7-3.8,1.7
			s-2.9-0.9-3.8-1.7c-0.8-0.7-1.4-1.3-2.8-1.3s-2,0.6-2.8,1.3c-0.9,0.8-1.9,1.7-3.8,1.7s-2.9-0.9-3.8-1.7c-0.8-0.7-1.4-1.3-2.8-1.3
			s-2,0.6-2.8,1.3c-0.9,0.8-1.9,1.7-3.8,1.7c-0.4,0-0.8-0.3-0.8-0.8c0-0.4,0.3-0.8,0.8-0.8c1.4,0,2-0.6,2.8-1.3
			c0.9-0.8,1.9-1.7,3.8-1.7s2.9,0.9,3.8,1.7c0.8,0.7,1.4,1.3,2.8,1.3s2-0.6,2.8-1.3c0.9-0.8,1.9-1.7,3.8-1.7s2.9,0.9,3.8,1.7
			c0.8,0.7,1.4,1.3,2.8,1.3s2-0.6,2.8-1.3c0.9-0.8,1.9-1.7,3.8-1.7s2.9,0.9,3.8,1.7c0.8,0.7,1.4,1.3,2.8,1.3s2-0.6,2.8-1.3
			c0.9-0.8,1.9-1.7,3.8-1.7s2.9,0.9,3.8,1.7c0.8,0.7,1.4,1.3,2.8,1.3s2-0.6,2.8-1.3c0.9-0.8,1.9-1.7,3.8-1.7s2.9,0.9,3.8,1.7
			c0.8,0.7,1.4,1.3,2.8,1.3s2-0.6,2.8-1.3c0.9-0.8,1.9-1.7,3.8-1.7s2.9,0.9,3.8,1.7c0.8,0.7,1.4,1.3,2.8,1.3s2-0.6,2.8-1.3
			c0.9-0.8,1.9-1.7,3.8-1.7s2.9,0.9,3.8,1.7c0.8,0.7,1.4,1.3,2.8,1.3s2-0.6,2.8-1.3c0.9-0.8,1.9-1.7,3.8-1.7s2.9,0.9,3.8,1.7
			c0.8,0.7,1.4,1.3,2.8,1.3s2-0.6,2.8-1.3c0.9-0.8,1.9-1.7,3.8-1.7s2.9,0.9,3.8,1.7c0.8,0.7,1.4,1.3,2.8,1.3c0.4,0,0.8,0.3,0.8,0.8
			S136.3,120.1,135.8,120.1z"/>
		<path class="st1" d="M75.7,174.5c-0.1,0-0.3,0-0.4-0.1L0.4,131.2c-0.2-0.1-0.4-0.4-0.4-0.7V44c0-0.3,0.1-0.5,0.4-0.7L75.3,0.1
			c0.2-0.1,0.5-0.1,0.8,0L151,43.3c0.2,0.1,0.4,0.4,0.4,0.7v86.5c0,0.3-0.1,0.5-0.4,0.7l-74.9,43.2
			C75.9,174.4,75.8,174.5,75.7,174.5z M1.5,130l74.1,42.8l74.1-42.8V44.4L75.6,1.6L1.5,44.4V130z"/>
		<path class="st2" d="M75.7,169.1c-0.3,0-0.5-0.1-0.8-0.2L5.3,128.7c-0.5-0.3-0.8-0.8-0.8-1.3V47c0-0.5,0.3-1,0.8-1.3L74.9,5.5
			c0.5-0.3,1-0.3,1.5,0L146,45.7c0.5,0.3,0.8,0.8,0.8,1.3v80.4c0,0.5-0.3,1-0.8,1.3l-69.6,40.2C76.2,169,75.9,169.1,75.7,169.1z
			 M7.6,126.5l68.1,39.3l68.1-39.3V47.9L75.7,8.6L7.6,47.9V126.5z"/>
		<g>
			
				<rect x="117.7" y="82" transform="matrix(0.28 -0.96 0.96 0.28 -6.098265e-02 178.3617)" class="st1" width="2.3" height="14.5"/>
			
				<rect x="27.4" y="64.5" transform="matrix(0.2773 -0.9608 0.9608 0.2773 -46.7702 79.8293)" class="st1" width="4.5" height="13.1"/>
			<g>
				<polygon class="st4" points="67.6,82.1 34.9,73.4 40,55.8 72.4,65.8 				"/>
				<path class="st2" d="M67.6,83.2c-0.1,0-0.2,0-0.3,0l-32.7-8.7c-0.3-0.1-0.5-0.3-0.7-0.5c-0.1-0.3-0.2-0.6-0.1-0.9l5.1-17.5
					c0.1-0.3,0.3-0.5,0.5-0.7c0.3-0.1,0.6-0.2,0.9-0.1l32.5,10c0.6,0.2,0.9,0.8,0.8,1.4l-4.8,16.3C68.6,82.9,68.1,83.2,67.6,83.2z
					 M36.3,72.6l30.6,8.1l4.2-14.2l-30.3-9.3L36.3,72.6z"/>
			</g>
			<g>
				<polygon class="st1" points="110.4,90.8 68.1,80.9 72,66.9 113.4,80.1 				"/>
				<path class="st2" d="M110.4,92c-0.1,0-0.2,0-0.3,0l-42.4-9.9c-0.3-0.1-0.6-0.3-0.7-0.5c-0.2-0.3-0.2-0.6-0.1-0.9l3.9-14
					c0.1-0.3,0.3-0.5,0.6-0.7c0.3-0.1,0.6-0.2,0.9-0.1l41.3,13.2c0.6,0.2,0.9,0.8,0.7,1.4l-2.9,10.7C111.4,91.6,110.9,92,110.4,92z
					 M69.5,80.1l40.1,9.4l2.4-8.6L72.8,68.4L69.5,80.1z"/>
			</g>
			<g>
				<g>
					<path class="st2" d="M125.2,94.1c-0.1,0-0.2,0-0.3,0L111,90c-0.6-0.2-0.9-0.8-0.8-1.4l1.7-6.6c0.1-0.3,0.3-0.6,0.5-0.7
						c0.3-0.2,0.6-0.2,0.9-0.1l13.9,4.1c0.6,0.2,0.9,0.8,0.8,1.4l-1.7,6.6c-0.1,0.3-0.3,0.6-0.5,0.7C125.6,94,125.4,94.1,125.2,94.1
						z M112.6,88.1l11.7,3.4l1.1-4.4l-11.7-3.4L112.6,88.1z"/>
				</g>
				<path class="st2" d="M121.6,92.6c-0.1,0-0.1,0-0.2,0c-0.4-0.1-0.7-0.5-0.6-0.9l1.4-5.8c0.1-0.4,0.5-0.7,0.9-0.6s0.7,0.5,0.6,0.9
					l-1.4,5.8C122.2,92.4,121.9,92.6,121.6,92.6z"/>
			</g>
			<path class="st2" d="M34.6,75.5c-0.1,0-0.2,0-0.3,0l-12.6-3.6c-0.3-0.1-0.5-0.3-0.7-0.5c-0.1-0.3-0.2-0.6-0.1-0.9L26.5,51
				c0.2-0.6,0.8-0.9,1.4-0.8l12.6,3.6c0.3,0.1,0.5,0.3,0.7,0.5c0.1,0.3,0.2,0.6,0.1,0.9l-5.6,19.5C35.6,75.2,35.1,75.5,34.6,75.5z
				 M23.5,70l10.4,3l5-17.3l-10.4-3L23.5,70z"/>
			<path class="st2" d="M31,73.8c-0.1,0-0.1,0-0.2,0c-0.4-0.1-0.6-0.5-0.5-0.9l4.8-16.6c0.1-0.4,0.5-0.6,0.9-0.5s0.6,0.5,0.5,0.9
				l-4.8,16.6C31.6,73.5,31.3,73.8,31,73.8z"/>
			<g>
				<path class="st2" d="M76.2,91.2c-2.1,0-3.9-1.7-3.9-3.9s1.7-3.9,3.9-3.9c2.1,0,3.9,1.7,3.9,3.9C80.1,89.5,78.3,91.2,76.2,91.2z
					 M76.2,85.6c-0.9,0-1.6,0.7-1.6,1.6c0,0.9,0.7,1.6,1.6,1.6s1.6-0.7,1.6-1.6S77,85.6,76.2,85.6z"/>
				<g>
					<polyline class="st3" points="72.3,93.7 50.5,142.2 75.3,93.7 					"/>
					<path class="st2" d="M50.5,143.3c-0.2,0-0.3,0-0.5-0.1c-0.6-0.3-0.8-0.9-0.5-1.5l21.8-48.4l2.1,0.9l-3.3,7.4l4.3-8.4l2,1
						l-24.8,48.4C51.4,143.1,51,143.3,50.5,143.3z"/>
				</g>
				<g>
					<polyline class="st3" points="80.2,93.7 102,142.2 77.2,93.7 					"/>
					<path class="st2" d="M102,143.3c-0.4,0-0.8-0.2-1-0.6L76.2,94.3l2-1l4.3,8.4l-3.3-7.4l2.1-0.9l21.8,48.4c0.3,0.6,0,1.2-0.5,1.5
						C102.4,143.3,102.2,143.3,102,143.3z"/>
				</g>
				<g>
					<polyline class="st3" points="77.7,93.7 76,142.2 74.7,93.7 					"/>
					<path class="st2" d="M76,143.3L76,143.3c-0.6,0-1.1-0.5-1.1-1.1l-1.3-48.4l2.3-0.1l0.3,11.9l0.4-11.9l2.3,0.1l-1.7,48.4
						C77.1,142.8,76.6,143.3,76,143.3z"/>
				</g>
				<path class="st2" d="M80.5,94.9h-8.8c-0.6,0-1.1-0.5-1.1-1.1v-3.2c0-0.6,0.5-1.1,1.1-1.1h8.8c0.6,0,1.1,0.5,1.1,1.1v3.2
					C81.7,94.4,81.2,94.9,80.5,94.9z M72.9,92.6h6.5v-1h-6.5V92.6z"/>
			</g>
		</g>
		<circle class="st2" cx="126.6" cy="59.4" r="1.6"/>
		<circle class="st1" cx="114" cy="60.3" r="1.6"/>
		<circle class="st2" cx="75.7" cy="26.6" r="1.6"/>
		<circle class="st1" cx="53.8" cy="45" r="1.6"/>
		<circle class="st2" cx="91.2" cy="52.4" r="1.6"/>
		<circle class="st1" cx="100.3" cy="37" r="1.6"/>
		<circle class="st1" cx="19.6" cy="84.5" r="1.6"/>
		<circle class="st1" cx="129.8" cy="102.6" r="1.6"/>
		<circle class="st2" cx="50" cy="97.8" r="1.6"/>
	</g>
	
		<rect x="94.7" y="65.1" transform="matrix(0.3038 -0.9527 0.9527 0.3038 -7.5649 144.9617)" class="st3" width="1.5" height="25.2"/>
</g>
</svg>
