<?xml version="1.0" encoding="utf-8"?>
<!-- Generator: Adobe Illustrator 19.2.0, SVG Export Plug-In . SVG Version: 6.00 Build 0)  -->
<svg version="1.1" id="Layer_1" xmlns="http://www.w3.org/2000/svg" xmlns:xlink="http://www.w3.org/1999/xlink" x="0px" y="0px"
	 viewBox="0 0 125.2 167.5" style="enable-background:new 0 0 125.2 167.5;" xml:space="preserve">
<style type="text/css">
	.st0{fill:#8ACAFF;}
	.st1{fill:#BCD7F7;}
	.st2{fill:#0072FF;}
	.st3{fill:#FFFFFF;}
	.st4{fill:#B8DFFF;}
	.st5{clip-path:url(#SVGID_2_);}
	.st6{fill:none;stroke:#BCD7F7;stroke-width:5;stroke-linejoin:round;stroke-miterlimit:10;}
	.st7{fill:none;}
	.st8{fill:none;stroke:#BCD7F7;stroke-width:2;stroke-linejoin:round;stroke-miterlimit:10;}
	.st9{fill:#B8DFFF;stroke:#0072FF;stroke-width:2;stroke-linejoin:round;stroke-miterlimit:10;}
	.st10{fill:none;stroke:#BCD7F7;stroke-width:33;stroke-linejoin:round;stroke-miterlimit:10;}
</style>
<g>
	<path class="st0" d="M41.4,99.8c-1.8,0-2.7-1-3.4-1.7s-1.2-1.3-2.3-1.3s-1.6,0.6-2.3,1.3c-0.7,0.8-1.7,1.7-3.4,1.7
		c-1.8,0-2.7-1-3.4-1.7s-1.2-1.3-2.3-1.3s-1.6,0.6-2.3,1.3c-0.7,0.8-1.7,1.7-3.4,1.7c-1.8,0-2.7-1-3.4-1.7s-1.2-1.3-2.3-1.3
		c-0.4,0-0.8-0.3-0.8-0.8c0-0.4,0.3-0.8,0.8-0.8c1.8,0,2.7,1,3.4,1.7s1.2,1.3,2.3,1.3s1.6-0.6,2.3-1.3c0.7-0.8,1.7-1.7,3.4-1.7
		c1.8,0,2.7,1,3.4,1.7s1.2,1.3,2.3,1.3s1.6-0.6,2.3-1.3c0.7-0.8,1.7-1.7,3.4-1.7c1.8,0,2.7,1,3.4,1.7s1.2,1.3,2.3,1.3
		c0.4,0,0.8,0.3,0.8,0.8C42.2,99.4,41.8,99.8,41.4,99.8z"/>
	<path class="st0" d="M106.2,99.8c-1.8,0-2.7-1-3.4-1.7s-1.2-1.3-2.3-1.3s-1.6,0.6-2.3,1.3c-0.7,0.8-1.7,1.7-3.4,1.7
		c-1.8,0-2.7-1-3.4-1.7s-1.2-1.3-2.3-1.3c-0.4,0-0.8-0.3-0.8-0.8c0-0.4,0.3-0.8,0.8-0.8c1.8,0,2.7,1,3.4,1.7s1.2,1.3,2.3,1.3
		s1.6-0.6,2.3-1.3c0.7-0.8,1.7-1.7,3.4-1.7c1.8,0,2.7,1,3.4,1.7s1.2,1.3,2.3,1.3s1.6-0.6,2.3-1.3c0.7-0.8,1.7-1.7,3.4-1.7
		c0.4,0,0.8,0.3,0.8,0.8c0,0.4-0.3,0.8-0.8,0.8c-1.1,0-1.6,0.6-2.3,1.3C108.9,98.8,107.9,99.8,106.2,99.8z"/>
	<g>
		
			<rect x="65.5" y="72.4" transform="matrix(0.4619 -0.8869 0.8869 0.4619 -23.4709 109.0238)" class="st2" width="25.3" height="3"/>
		
			<rect x="59.4" y="36.6" transform="matrix(0.9972 -7.469294e-02 7.469294e-02 0.9972 -4.3394 4.7175)" class="st2" width="3" height="47.5"/>
		
			<rect x="49.4" y="55.6" transform="matrix(0.9385 -0.3454 0.3454 0.9385 -21.2771 21.9276)" class="st2" width="3" height="30.2"/>
		<g>
			<g>
				<path class="st4" d="M68.2,47.1c3.8-0.8,10,0,12.9,2.9c3.1,3.1,3.1,9,2.4,12.4L68.2,47.1z"/>
				<path class="st2" d="M83.6,63.2c-0.2,0-0.4-0.1-0.5-0.2L67.8,47.7c-0.2-0.2-0.3-0.5-0.2-0.8s0.3-0.5,0.6-0.5
					c0.9-0.2,2-0.3,3.2-0.3c3.4,0,7.9,0.9,10.4,3.4c3.4,3.4,3.3,9.8,2.7,13.1c-0.1,0.3-0.3,0.5-0.5,0.6
					C83.7,63.2,83.7,63.2,83.6,63.2z M69.9,47.6l13.2,13.2c0.3-3.1,0.1-7.7-2.5-10.3c-1.8-1.8-5.5-3-9.3-3
					C70.8,47.6,70.3,47.6,69.9,47.6z"/>
			</g>
			<g>
				<path class="st4" d="M84,63c2.1-3.2,7-6.4,11.1-6.4c4.4,0,8.7,3.5,10.6,6.4H84z"/>
				<path class="st2" d="M105.7,63.7H84c-0.3,0-0.5-0.2-0.7-0.4c-0.1-0.2-0.1-0.5,0-0.8c2.2-3.3,7.2-6.7,11.7-6.7
					c4.4,0,9,3.4,11.2,6.7c0.2,0.2,0.2,0.5,0,0.8C106.2,63.6,106,63.7,105.7,63.7z M85.5,62.2h18.6c-2-2.3-5.4-4.9-9.1-4.9
					C91.6,57.3,87.8,59.7,85.5,62.2z"/>
			</g>
			<g>
				<path class="st4" d="M84.2,62.3c-0.8-3.8,0.4-9.4,3.3-12.4c3.1-3.1,8.6-3.6,12-3L84.2,62.3z"/>
				<path class="st2" d="M84.2,63c-0.1,0-0.1,0-0.2,0c-0.3-0.1-0.5-0.3-0.5-0.6c-0.8-3.9,0.3-9.8,3.5-13c3.1-3.1,7.9-3.5,9.8-3.5
					c1,0,2,0.1,2.9,0.3c0.3,0.1,0.5,0.3,0.6,0.5c0.1,0.3,0,0.6-0.2,0.8L84.8,62.8C84.6,63,84.4,63,84.2,63z M96.7,47.4
					c-3.6,0-6.8,1.1-8.7,3c-2.4,2.4-3.5,6.8-3.3,10.2l13.2-13.2C97.5,47.5,97.1,47.4,96.7,47.4z"/>
			</g>
		</g>
		<g>
			<path class="st1" d="M80.4,131.2c0,0-0.2-8.1-10.1-10.8v10.8"/>
			<path class="st2" d="M79.2,131.2c0-0.3-0.3-6.6-7.8-9.3v9.3h-2.3v-10.8c0-0.4,0.2-0.7,0.4-0.9c0.3-0.2,0.6-0.3,1-0.2
				c5.5,1.5,8.1,4.6,9.4,7c1.4,2.6,1.5,4.8,1.5,4.9H79.2z"/>
		</g>
		<path class="st1" d="M66.6,167.5h-8.2C26.2,167.5,0,141.3,0,109.1V0.8C0,0.4,0.3,0,0.8,0h123.6c0.4,0,0.8,0.3,0.8,0.8v108.3
			C125,141.3,98.8,167.5,66.6,167.5z M1.4,1.6v107.5c0,31.4,25.5,56.9,56.9,56.9h8.2c31.4,0,56.9-25.5,56.9-56.9V1.6H1.4z"/>
		<path class="st2" d="M66.2,162.9h-7.5c-29.9,0-54.1-24.3-54.1-54.1V7c0-0.8,0.7-1.5,1.5-1.5h112.7c0.8,0,1.5,0.7,1.5,1.5v101.8
			C120.3,138.6,96.1,162.9,66.2,162.9z M7.6,8.5v100.3c0,28.2,22.9,51.1,51.1,51.1h7.5c28.2,0,51.1-22.9,51.1-51.1V8.5H7.6z"/>
		<path class="st0" d="M53.9,113.1H38.6c-0.4,0-0.8-0.3-0.8-0.8c0-0.4,0.3-0.8,0.8-0.8h15.3c0.4,0,0.8,0.3,0.8,0.8
			S54.3,113.1,53.9,113.1z"/>
		<path class="st0" d="M80.3,108.3h-6.1c-0.4,0-0.8-0.3-0.8-0.8s0.3-0.8,0.8-0.8h6.1c0.4,0,0.8,0.3,0.8,0.8S80.7,108.3,80.3,108.3z"
			/>
		<path class="st0" d="M68.2,151.7h-9.6c-0.4,0-0.8-0.3-0.8-0.8s0.3-0.8,0.8-0.8h9.7c0.4,0,0.8,0.3,0.8,0.8S68.7,151.7,68.2,151.7z"
			/>
		<path class="st0" d="M102.3,131.9h-6.1c-0.4,0-0.8-0.3-0.8-0.8c0-0.4,0.3-0.8,0.8-0.8h6.1c0.4,0,0.8,0.3,0.8,0.8
			C103,131.6,102.7,131.9,102.3,131.9z"/>
		<g>
			<path class="st0" d="M87.4,131.3H65.8c-0.4,0-0.8-0.3-0.8-0.8c0-0.4,0.3-0.8,0.8-0.8h21.6c0.4,0,0.8,0.3,0.8,0.8
				C88.1,131,87.8,131.3,87.4,131.3z"/>
			<path class="st0" d="M105.7,111.6H95.1c-0.4,0-0.8-0.3-0.8-0.8c0-0.4,0.3-0.8,0.8-0.8h10.6c0.4,0,0.8,0.3,0.8,0.8
				C106.4,111.2,106.1,111.6,105.7,111.6z"/>
			<path class="st0" d="M28.8,117H16.3c-0.4,0-0.8-0.3-0.8-0.8c0-0.4,0.3-0.8,0.8-0.8h12.5c0.4,0,0.8,0.3,0.8,0.8S29.2,117,28.8,117
				z"/>
			<path class="st0" d="M43.5,141.6H31.3c-0.4,0-0.8-0.3-0.8-0.8s0.3-0.8,0.8-0.8h12.2c0.4,0,0.8,0.3,0.8,0.8S43.9,141.6,43.5,141.6
				z"/>
			<path class="st0" d="M86.8,141.6H74.6c-0.4,0-0.8-0.3-0.8-0.8s0.3-0.8,0.8-0.8h12.2c0.4,0,0.8,0.3,0.8,0.8S87.2,141.6,86.8,141.6
				z"/>
			<path class="st0" d="M48,127.1H30.6c-0.4,0-0.8-0.3-0.8-0.8c0-0.4,0.3-0.8,0.8-0.8H48c0.4,0,0.8,0.3,0.8,0.8S48.5,127.1,48,127.1
				z"/>
		</g>
		<g>
			<g>
				<path class="st4" d="M43.3,22.5c3.8-0.8,10,0,12.9,2.9c3.1,3.1,3.1,9,2.4,12.4L43.3,22.5z"/>
				<path class="st2" d="M58.7,38.6c-0.2,0-0.4-0.1-0.5-0.2L42.9,23.1c-0.2-0.2-0.3-0.5-0.2-0.8s0.3-0.5,0.6-0.5
					c1-0.2,2-0.3,3.2-0.3c3.4,0,7.9,0.9,10.4,3.4c3.4,3.4,3.3,9.8,2.7,13.1c-0.1,0.3-0.3,0.5-0.5,0.6C58.8,38.6,58.8,38.6,58.7,38.6
					z M45,23l13.2,13.2c0.3-3.1,0.1-7.7-2.5-10.3c-1.8-1.8-5.5-3-9.3-3C45.9,23,45.4,23,45,23z"/>
			</g>
			<g>
				<path class="st4" d="M59.1,38.4c2.1-3.2,7-6.4,11.1-6.4c4.4,0,8.7,3.5,10.6,6.4H59.1z"/>
				<path class="st2" d="M80.8,39.1H59.1c-0.3,0-0.5-0.2-0.7-0.4c-0.1-0.2-0.1-0.5,0-0.8c2.2-3.3,7.2-6.7,11.7-6.7
					c4.4,0,9,3.4,11.2,6.7c0.2,0.2,0.2,0.5,0,0.8C81.3,39,81.1,39.1,80.8,39.1z M60.6,37.6h18.6c-2-2.3-5.4-4.9-9.1-4.9
					C66.7,32.7,62.9,35.1,60.6,37.6z"/>
			</g>
			<g>
				<path class="st4" d="M59.3,37.7c-0.8-3.8,0.4-9.4,3.3-12.4c3.1-3.1,8.6-3.6,12-3L59.3,37.7z"/>
				<path class="st2" d="M59.3,38.4c-0.1,0-0.1,0-0.2,0c-0.3-0.1-0.5-0.3-0.5-0.6c-0.8-3.9,0.3-9.8,3.5-13c3.1-3.1,7.9-3.5,9.8-3.5
					c1,0,2,0.1,2.9,0.3c0.3,0.1,0.5,0.3,0.6,0.5c0.1,0.3,0,0.6-0.2,0.8L59.9,38.2C59.7,38.4,59.5,38.4,59.3,38.4z M71.8,22.8
					c-3.6,0-6.8,1.1-8.7,3c-2.4,2.4-3.5,6.8-3.3,10.2L73,22.8C72.6,22.9,72.2,22.8,71.8,22.8z"/>
			</g>
			<g>
				<g>
					<path class="st4" d="M58.9,38.4c-2.1-3.2-7-6.4-11.1-6.4c-4.4,0-8.7,3.5-10.6,6.4H58.9z"/>
					<path class="st2" d="M58.9,39.1H37.2c-0.3,0-0.5-0.2-0.7-0.4c-0.1-0.2-0.1-0.5,0-0.8c2.3-3.3,6.8-6.7,11.2-6.7
						c4.5,0,9.5,3.4,11.7,6.7c0.2,0.2,0.2,0.5,0,0.8C59.5,39,59.2,39.1,58.9,39.1z M38.8,37.6h18.6c-2.2-2.5-6.1-4.9-9.6-4.9
						C44.2,32.8,40.7,35.4,38.8,37.6z"/>
				</g>
			</g>
		</g>
		<g>
			<g>
				<path class="st4" d="M30,42.7c3.8-0.8,10,0,12.9,2.9c3.1,3.1,3.1,9,2.4,12.4L30,42.7z"/>
				<path class="st2" d="M45.4,58.8c-0.2,0-0.4-0.1-0.5-0.2L29.6,43.3c-0.2-0.2-0.3-0.5-0.2-0.8S29.7,42,30,42c1-0.2,2-0.3,3.2-0.3
					c3.4,0,7.9,0.9,10.4,3.4c3.4,3.4,3.3,9.8,2.7,13.1c-0.1,0.3-0.3,0.5-0.5,0.6C45.5,58.8,45.4,58.8,45.4,58.8z M31.6,43.3
					l13.2,13.2c0.3-3.1,0.1-7.7-2.5-10.3c-1.8-1.8-5.5-3-9.3-3C32.6,43.2,32.1,43.2,31.6,43.3z"/>
			</g>
			<g>
				<path class="st4" d="M45.8,58.6c2.1-3.2,7-6.4,11.1-6.4c4.4,0,8.7,3.5,10.6,6.4H45.8z"/>
				<path class="st2" d="M67.5,59.4H45.8c-0.3,0-0.5-0.2-0.7-0.4s-0.1-0.5,0-0.8c2.2-3.3,7.2-6.7,11.7-6.7c4.4,0,9,3.4,11.2,6.7
					c0.2,0.2,0.2,0.5,0,0.8C68,59.2,67.7,59.4,67.5,59.4z M47.3,57.9h18.6c-2-2.3-5.4-4.9-9.1-4.9C53.4,53,49.5,55.3,47.3,57.9z"/>
			</g>
			<g>
				<path class="st4" d="M45.9,57.9c-0.8-3.8,0.4-9.4,3.3-12.4c3.1-3.1,8.6-3.6,12-3L45.9,57.9z"/>
				<path class="st2" d="M45.9,58.7c-0.1,0-0.1,0-0.2,0c-0.3-0.1-0.5-0.3-0.5-0.6c-0.8-3.9,0.3-9.8,3.5-13c3.1-3.1,7.9-3.5,9.8-3.5
					c1,0,2,0.1,2.9,0.3c0.3,0.1,0.5,0.3,0.6,0.5c0.1,0.3,0,0.6-0.2,0.8L46.5,58.5C46.3,58.6,46.1,58.7,45.9,58.7z M58.5,43.1
					c-3.6,0-6.8,1.1-8.7,3c-2.4,2.4-3.5,6.8-3.3,10.2l13.2-13.2C59.3,43.1,58.9,43.1,58.5,43.1z"/>
			</g>
			<g>
				<g>
					<path class="st4" d="M45.6,58.6c-2.1-3.2-7-6.4-11.1-6.4c-4.4,0-8.7,3.5-10.6,6.4H45.6z"/>
					<path class="st2" d="M45.6,59.4H23.9c-0.3,0-0.5-0.2-0.7-0.4c-0.1-0.2-0.1-0.5,0-0.8c2.3-3.3,6.8-6.7,11.2-6.7
						c4.5,0,9.5,3.4,11.7,6.7c0.2,0.2,0.2,0.5,0,0.8C46.1,59.2,45.9,59.4,45.6,59.4z M25.4,57.9H44c-2.2-2.5-6.1-4.9-9.6-4.9
						C30.8,53,27.4,55.6,25.4,57.9z"/>
				</g>
			</g>
			<g>
				<g>
					<path class="st4" d="M45.6,58.6c-3.8-1-9.4-0.2-12.5,2.5c-3.3,2.9-4.2,8.3-3.7,11.8L45.6,58.6z"/>
					<path class="st2" d="M29.3,73.7c-0.1,0-0.2,0-0.3,0c-0.3-0.1-0.4-0.3-0.5-0.6c-0.5-4,0.7-9.6,4-12.5c2.2-1.9,5.9-3.1,9.6-3.1
						c1.3,0,2.6,0.2,3.7,0.5c0.3,0.1,0.5,0.3,0.5,0.6c0.1,0.3,0,0.6-0.2,0.7L29.8,73.6C29.7,73.6,29.5,73.7,29.3,73.7z M42.1,59
						c-3.4,0-6.7,1.1-8.6,2.8c-2.8,2.4-3.6,6.6-3.6,9.6l14-12.3C43.4,59,42.8,59,42.1,59z"/>
				</g>
			</g>
		</g>
		<g>
			<path class="st3" d="M41.9,98.8c3.4,0,3.4-3.1,6.8-3.1s3.4,3.1,6.8,3.1s3.4-3.1,6.8-3.1s3.4,3.1,6.8,3.1s3.4-3.1,6.8-3.1
				s3.4,3.1,6.8,3.1s3.4-3.1,6.8-3.1c0.1,0,0.2,0,0.3,0c-3.4-6.8-12.1-12.1-27.3-12.1S38.8,89,35.4,95.7
				C38.5,96.1,38.7,98.8,41.9,98.8z"/>
			<path class="st2" d="M83,100c-2.1,0-3.3-1-4.2-1.9c-0.8-0.7-1.4-1.3-2.7-1.3s-1.9,0.5-2.7,1.3c-0.9,0.8-2,1.9-4.2,1.9
				c-2.1,0-3.3-1-4.2-1.9c-0.8-0.7-1.4-1.3-2.7-1.3s-1.9,0.5-2.7,1.3c-0.9,0.8-2,1.9-4.2,1.9c-2.1,0-3.3-1-4.2-1.9
				c-0.8-0.7-1.4-1.3-2.7-1.3s-1.9,0.5-2.7,1.3c-0.9,0.8-2,1.9-4.2,1.9c-2.1,0-3.3-1-4.2-1.9c-0.7-0.6-1.2-1.1-2.2-1.2
				c-0.4,0-0.7-0.3-0.9-0.6c-0.2-0.3-0.2-0.7,0-1c2.4-4.8,9.1-12.8,28.1-12.8s25.9,8,28.3,12.7c0.2,0.4,0.2,0.8-0.1,1.1
				c-0.2,0.3-0.6,0.5-1,0.5h-0.1h-0.1c-1.3,0-1.9,0.5-2.7,1.3C86.3,98.9,85.1,100,83,100z M76.1,94.6c2.1,0,3.3,1,4.2,1.9
				c0.8,0.7,1.4,1.3,2.7,1.3s1.9-0.5,2.7-1.3c0.7-0.6,1.4-1.3,2.6-1.6c-4.2-6.4-13.3-10-25.5-10c-16.2,0-22.8,6-25.4,10.3
				c0.8,0.4,1.4,0.9,1.9,1.4c0.8,0.7,1.4,1.3,2.7,1.3s1.9-0.5,2.7-1.3c0.9-0.8,2-1.9,4.2-1.9c2.1,0,3.3,1,4.2,1.9
				c0.8,0.7,1.4,1.3,2.7,1.3s1.9-0.5,2.7-1.3c0.9-0.8,2-1.9,4.2-1.9c2.1,0,3.3,1,4.2,1.9c0.8,0.7,1.4,1.3,2.7,1.3s1.9-0.5,2.7-1.3
				C72.9,95.6,74,94.6,76.1,94.6z"/>
		</g>
	</g>
</g>
</svg>
