<svg id="Layer_1" xmlns="http://www.w3.org/2000/svg" viewBox="0 0 125 178.2"><style>.st0{fill:#8ACAFF;} .st1{fill:#BCD7F7;} .st2{fill:#0072FF;} .st3{fill:#FFFFFF;} .st4{fill:#B8DFFF;} .st5{clip-path:url(#SVGID_2_);} .st6{fill:none;stroke:#BCD7F7;stroke-width:5;stroke-linejoin:round;stroke-miterlimit:10;} .st7{fill:none;} .st8{fill:none;stroke:#BCD7F7;stroke-width:2;stroke-linejoin:round;stroke-miterlimit:10;} .st9{fill:#B8DFFF;stroke:#0072FF;stroke-width:2;stroke-linejoin:round;stroke-miterlimit:10;} .st10{fill:none;stroke:#BCD7F7;stroke-width:33;stroke-linejoin:round;stroke-miterlimit:10;}</style><path class="st0" d="M52.3 133.5c-1.8 0-2.7-1-3.4-1.7-.7-.7-1.2-1.3-2.3-1.3s-1.6.6-2.3 1.3c-.7.8-1.7 1.7-3.4 1.7-1.8 0-2.7-1-3.4-1.7-.7-.7-1.2-1.3-2.3-1.3s-1.6.6-2.3 1.3c-.7.8-1.7 1.7-3.4 1.7s-2.7-1-3.4-1.7c-.7-.7-1.2-1.3-2.3-1.3s-1.6.6-2.3 1.3c-.7.8-1.7 1.7-3.4 1.7-.4 0-.8-.3-.8-.8s.3-.8.8-.8c1.1 0 1.6-.6 2.3-1.3.7-.8 1.7-1.7 3.4-1.7s2.7 1 3.4 1.7c.7.7 1.2 1.3 2.3 1.3s1.6-.6 2.3-1.3c.7-.8 1.7-1.7 3.4-1.7 1.8 0 2.7 1 3.4 1.7.7.7 1.2 1.3 2.3 1.3s1.6-.6 2.3-1.3c.7-.8 1.7-1.7 3.4-1.7 1.8 0 2.7 1 3.4 1.7.7.7 1.2 1.3 2.3 1.3.4 0 .8.3.8.8s-.4.8-.8.8zM107.7 133.5c-1.8 0-2.7-1-3.4-1.7-.7-.7-1.2-1.3-2.3-1.3s-1.6.6-2.3 1.3c-.7.8-1.7 1.7-3.4 1.7-1.8 0-2.7-1-3.4-1.7-.7-.7-1.2-1.3-2.3-1.3s-1.6.6-2.3 1.3c-.7.8-1.7 1.7-3.4 1.7s-2.7-1-3.4-1.7c-.7-.7-1.2-1.3-2.3-1.3s-1.6.6-2.3 1.3c-.7.8-1.7 1.7-3.4 1.7-.4 0-.8-.3-.8-.8s.3-.8.8-.8c1.1 0 1.6-.6 2.3-1.3.7-.8 1.7-1.7 3.4-1.7s2.7 1 3.4 1.7c.7.7 1.2 1.3 2.3 1.3s1.6-.6 2.3-1.3c.7-.8 1.7-1.7 3.4-1.7 1.8 0 2.7 1 3.4 1.7.7.7 1.2 1.3 2.3 1.3s1.6-.6 2.3-1.3c.7-.8 1.7-1.7 3.4-1.7 1.8 0 2.7 1 3.4 1.7.7.7 1.2 1.3 2.3 1.3.4 0 .8.3.8.8s-.4.8-.8.8z"/><path class="st1" d="M66.6 178.2h-8.2C26.2 178.2 0 152 0 119.7V58.5C0 26.3 26.2 0 58.4 0h8.2C98.8 0 125 26.2 125 58.5v61.2c0 32.2-26.2 58.5-58.4 58.5zM58.4 1.6c-31.4 0-57 25.5-57 56.9v61.2c0 31.4 25.5 56.9 56.9 56.9h8.2c31.4 0 56.9-25.5 56.9-56.9V58.5c0-31.4-25.5-56.9-56.9-56.9h-8.1z"/><path class="st2" d="M66.2 172.2h-7.4c-29.6 0-53.7-24.1-53.7-53.7V59.7C5.1 30.1 29.2 6 58.8 6h7.4c29.6 0 53.7 24.1 53.7 53.7v58.9c-.1 29.6-24.2 53.6-53.7 53.6zM58.8 9C30.9 9 8.2 31.7 8.2 59.6v58.9c0 27.9 22.7 50.6 50.6 50.6h7.4c27.9 0 50.6-22.7 50.6-50.6V59.7c0-27.9-22.7-50.6-50.6-50.6h-7.4V9z"/><path class="st1" d="M97.2 39c0 8.1-6.6 14.7-14.7 14.7H42.7C34.6 53.7 28 47.2 28 39v-.1c0-8.1 16.5-24.5 34.6-24.5 17.9 0 34.6 16.4 34.6 24.6z"/><path class="st2" d="M82.5 54.8H42.7c-8.8 0-15.9-7.1-15.9-15.8 0-8.5 16.6-25.7 35.8-25.7 8.2 0 17.2 3.4 24.7 9.4 6.7 5.3 11 11.7 11 16.2 0 8.8-7.1 15.9-15.8 15.9zM62.6 15.6c-17.7 0-33.5 15.9-33.5 23.4s6.1 13.6 13.6 13.6h39.8c7.5 0 13.6-6.1 13.6-13.6 0-7.4-16.2-23.4-33.5-23.4z"/><g><path class="st4" d="M52.6 99.1c0-2.1 1.6-12.6 10.7-12.6-2.5 2-6.7 8.1-6.7 12.7 0 3.1-.1 18.7-.1 18.7h-3.9V99.1z"/><path class="st2" d="M72.4 119.1H53c-.6 0-1.1-.5-1.1-1.1 0-.5-.4-11.5-.4-13.6 0-9.8 5.7-19 11.8-19 5.3 0 11.1 7.8 11.1 19 0 3.1-.9 13.2-.9 13.7s-.5 1-1.1 1zm-18.3-2.3h17.2c.2-2.7.8-10 .8-12.4 0-11-5.8-16.8-8.8-16.8-4.3 0-9.6 7.7-9.6 16.8.1 1.6.3 9.5.4 12.4z"/><path class="st2" d="M63 126.6c-4.1 0-7.4-3.3-7.4-7.4V118c0-.6.5-1.1 1.1-1.1h12.6c.6 0 1.1.5 1.1 1.1v1.2c0 4.1-3.3 7.4-7.4 7.4zm-5.2-7.5c0 3 2.3 5.3 5.2 5.3s5.2-2.3 5.2-5.2v-.1H57.8z"/><path class="st2" d="M63 132.2c-4.1 0-7.4-3.3-7.4-7.4 0-.6.5-1.1 1.1-1.1s1.1.5 1.1 1.1c0 2.9 2.3 5.2 5.2 5.2s5.2-2.3 5.2-5.2c0-.6.5-1.1 1.1-1.1s1.1.5 1.1 1.1c0 4.1-3.3 7.4-7.4 7.4z"/><path class="st2" d="M63 137.7c-4.1 0-7.4-3.3-7.4-7.4 0-.6.5-1.1 1.1-1.1s1.1.5 1.1 1.1c0 2.9 2.3 5.2 5.2 5.2s5.2-2.3 5.2-5.2c0-.6.5-1.1 1.1-1.1s1.1.5 1.1 1.1c0 4.1-3.3 7.4-7.4 7.4z"/><path class="st4" d="M67.5 140.7l6.8 2.9c2.3 1 4.2 2.1 4.2 4.3 0 2.3-1.9 4.2-4.2 4.2H51.6c-2.3 0-4.2-1.9-4.2-4.2 0-2.3 1.9-3.3 4.2-4.3l6.8-2.9"/><path class="st2" d="M74.4 153.2H51.6c-2.9 0-5.3-2.4-5.3-5.3 0-3.2 2.8-4.4 4.8-5.4l6.9-2.9.9 2.1-6.8 2.9c-2.4 1.1-3.5 1.8-3.5 3.3 0 1.7 1.4 3 3 3h22.8c1.7 0 3-1.4 3-3 0-1.5-1.1-2.2-3.5-3.3l-6.8-2.8.9-2.1 6.8 2.9c2.1 1 4.9 2.2 4.9 5.4 0 2.8-2.4 5.2-5.3 5.2z"/><path class="st3" d="M56.7 141.8l4.3 9.3h3.9l4.3-9.3"/><path class="st2" d="M64.9 151.9h-3.8c-.3 0-.6-.2-.7-.4l-4.4-9.3c-.2-.4 0-.8.4-1s.8 0 1 .4l4.2 8.8h2.9l4.2-8.8c.2-.4.6-.5 1-.4.4.2.5.6.4 1l-4.4 9.3c-.3.2-.5.4-.8.4zM61.9 91c-.6 0-1.1-.5-1.1-1.1v-11c0-.6.5-1.1 1.1-1.1s1.1.5 1.1 1.1v11c0 .6-.5 1.1-1.1 1.1zM64.8 91c-.6 0-1.1-.5-1.1-1.1v-11c0-.6.5-1.1 1.1-1.1s1.1.5 1.1 1.1v11c0 .6-.5 1.1-1.1 1.1z"/><path class="st2" d="M59.8 85c-1.4 0-2.5-1.1-2.5-2.5s1.1-2.5 2.5-2.5 2.5 1.1 2.5 2.5-1.1 2.5-2.5 2.5zm0-3.5c-.6 0-1 .4-1 1s.4 1 1 1 1-.4 1-1c0-.5-.5-1-1-1zM67 85c-1.4 0-2.5-1.1-2.5-2.5S65.6 80 67 80s2.5 1.1 2.5 2.5S68.4 85 67 85zm0-3.5c-.6 0-1 .4-1 1s.5 1 1 1c.6 0 1-.4 1-1 0-.5-.4-1-1-1zM52.1 107.6c-.3 0-.6-.1-.8-.3L40.5 96.5h-8c-.6 0-1.1-.5-1.1-1.1s.5-1.1 1.1-1.1h8.4c.3 0 .6.1.8.3l11.1 11.2c.4.4.4 1.2 0 1.6-.1 0-.4.2-.7.2z"/><path class="st2" d="M52.3 114.8c-.3 0-.6-.1-.8-.3l-12.4-12.6h-6.3c-.6 0-1.1-.5-1.1-1.1s.5-1.1 1.1-1.1h6.8c.3 0 .6.1.8.3l12.8 12.9c.4.4.4 1.2 0 1.6-.3.1-.6.3-.9.3z"/><path class="st1" d="M74.3 65.1l14.5 25.2V78.2s.8-12.5-14.5-13.1z"/><path class="st2" d="M88.8 91.5c-.4 0-.8-.2-1-.6L73.3 65.7c-.2-.4-.2-.8 0-1.1.2-.4.6-.6 1-.5 5.4.2 9.5 1.8 12.2 4.8 3.7 4.1 3.4 9.3 3.4 9.5v12c0 .5-.3 1-.8 1.1-.1-.1-.2 0-.3 0zM76.4 66.4l11.3 19.7v-7.9c0-.1.2-4.5-2.9-7.9-1.9-2.1-4.8-3.4-8.4-3.9z"/><path class="st2" d="M88.9 91.5c-.4 0-9.2-.1-14-7.5-3.9-6.1-.2-15.2-.1-15.6.2-.4.6-.6 1-.4s.6.6.4 1c0 .1-3.6 8.8-.1 14.2 4.4 6.7 12.6 6.8 12.7 6.8.4 0 .8.3.8.8.1.4-.3.7-.7.7z"/><path class="st1" d="M52.6 65.1L38 89.7V77.6c.1 0-.7-11.9 14.6-12.5z"/><path class="st2" d="M38.1 90.8h-.3c-.5-.1-.8-.6-.8-1.1V77.6c0-.1-.3-4.9 3.2-8.8 2.7-3 6.9-4.6 12.4-4.9.4 0 .8.2 1 .6s.2.8 0 1.2L39 90.3c-.1.3-.5.5-.9.5zm12.5-24.4c-3.8.5-6.7 1.8-8.7 3.9-2.9 3.2-2.7 7.2-2.7 7.2v8l11.4-19.1z"/><path class="st2" d="M38 90.9c-.4 0-.8-.3-.8-.8 0-.4.3-.8.8-.8.1 0 8.4-.1 12.7-6.8 3.5-5.4 0-14.1-.1-14.2-.2-.4 0-.8.4-1s.8 0 1 .4 3.9 9.5-.1 15.6c-4.7 7.5-13.5 7.6-13.9 7.6zM29.2 118h-3.4c-.4 0-.8-.3-.8-.8 0-.4.3-.8.8-.8h3.4c4.3 0 9.6-7.3 9.6-7.3L56 84.4c.2-.3.7-.4 1.1-.2.3.2.4.7.2 1.1L40.1 110c-.3.3-5.8 8-10.9 8zM100.8 118h-3.4c-5.1 0-10.6-7.7-10.9-8L69.3 85.3c-.2-.3-.2-.8.2-1.1.3-.2.8-.2 1.1.2l17.2 24.7c0 .1 5.3 7.3 9.6 7.3h3.4c.4 0 .8.3.8.8-.1.5-.4.8-.8.8zM63 143.2c-4.1 0-7.4-3.3-7.4-7.4 0-.6.5-1.1 1.1-1.1s1.1.5 1.1 1.1c0 2.9 2.3 5.2 5.2 5.2s5.2-2.3 5.2-5.2c0-.6.5-1.1 1.1-1.1s1.1.5 1.1 1.1c0 4-3.3 7.4-7.4 7.4z"/><path class="st2" d="M73.5 108.5c-.3 0-.6-.1-.8-.3-.4-.4-.4-1.2 0-1.6l11.1-11.2c.2-.2.5-.3.8-.3H93c.6 0 1.1.5 1.1 1.1s-.5 1.1-1.1 1.1h-8l-10.8 10.8c-.1.3-.4.4-.7.4z"/><path class="st2" d="M73.4 115.7c-.3 0-.6-.1-.8-.3-.4-.4-.4-1.2 0-1.6l12.8-12.9c.2-.2.5-.3.8-.3H93c.6 0 1.1.5 1.1 1.1s-.5 1.1-1.1 1.1h-6.3l-12.4 12.6c-.4.2-.7.3-.9.3z"/></g></svg>