<svg id="Layer_1" xmlns="http://www.w3.org/2000/svg" viewBox="0 0 191 174.1"><style>.st0{fill:#00D688;} .st1{fill:url(#SVGID_1_);stroke:#FFFFFF;stroke-width:6;stroke-miterlimit:10;} .st2{fill:none;stroke:url(#SVGID_2_);stroke-width:2.25;stroke-miterlimit:10;} .st3{opacity:0.9;fill:#FFFFFF;enable-background:new ;} .st4{opacity:0.5;fill:#0072FF;enable-background:new ;} .st5{opacity:0.35;fill:#FFFFFF;enable-background:new ;} .st6{fill:#0072FF;} .st7{fill:url(#SVGID_3_);} .st8{fill:url(#SVGID_4_);} .st9{fill:url(#SVGID_5_);} .st10{fill:url(#SVGID_6_);} .st11{fill:url(#SVGID_7_);} .st12{fill:url(#SVGID_8_);} .st13{opacity:0.3;} .st14{fill:none;stroke:#0080FF;stroke-miterlimit:10;} .st15{fill:none;stroke:url(#SVGID_9_);stroke-miterlimit:10;} .st16{fill:none;stroke:url(#SVGID_10_);stroke-miterlimit:10;} .st17{fill:url(#SVGID_11_);} .st18{fill:none;stroke:url(#SVGID_12_);stroke-miterlimit:10;} .st19{fill:none;stroke:url(#SVGID_13_);stroke-miterlimit:10;} .st20{fill:none;stroke:url(#SVGID_14_);stroke-miterlimit:10;} .st21{fill:url(#SVGID_15_);} .st22{fill:none;stroke:url(#SVGID_16_);stroke-miterlimit:10;} .st23{fill:none;stroke:url(#SVGID_17_);stroke-miterlimit:10;}</style><path class="st0" d="M121.6 53.4c-.3-.5-.1-1.1.3-1.4.5-.3 1.1-.1 1.4.3.3.5.1 1.1-.3 1.4-.2.1-.3.1-.5.1-.3.1-.7 0-.9-.4zm4.3-2.6c-.3-.5-.1-1.1.3-1.4.5-.3 1.1-.1 1.4.3.3.5.1 1.1-.3 1.4-.2.1-.3.1-.5.1-.4.1-.7-.1-.9-.4zm4.3-2.6c-.3-.5-.1-1.1.3-1.4.5-.3 1.1-.1 1.4.3.3.5.2 1.1-.3 1.4-.2.1-.3.1-.5.1-.4.1-.7-.1-.9-.4zm4.2-2.6c-.3-.5-.1-1.1.3-1.4.5-.3 1.1-.1 1.4.3.3.5.2 1.1-.3 1.4-.2.1-.4.1-.5.1-.4.1-.7-.1-.9-.4zm4.3-2.6c-.3-.5-.1-1.1.3-1.4.5-.3 1.1-.1 1.4.3.3.5.1 1.1-.3 1.4-.2.1-.4.1-.5.1-.4.1-.7-.1-.9-.4zm4.2-2.6c-.3-.5-.1-1.1.3-1.4.5-.3 1.1-.1 1.4.3.3.5.1 1.1-.3 1.4-.2.1-.3.1-.5.1-.3 0-.7-.1-.9-.4z"/><linearGradient id="SVGID_1_" gradientUnits="userSpaceOnUse" x1="51.395" y1="2203.436" x2="139.15" y2="2203.436" gradientTransform="translate(0 -2112)"><stop offset="0" stop-color="#0072FF"/><stop offset="1" stop-color="#0072FF" stop-opacity=".2"/></linearGradient><path class="st1" d="M139.2 102.5c0 24.4-19.6 44-44 44s-44-19.6-44-44c0-28.7 44-66.1 44-66.1s44 38.7 44 66.1z"/><linearGradient id="SVGID_2_" gradientUnits="userSpaceOnUse" x1="95.3" y1="22.261" x2="95.3" y2="145.679" gradientTransform="matrix(1 0 0 -1 0 174.57)"><stop offset="0" stop-color="#0080FF"/><stop offset="1" stop-color="#00D688"/></linearGradient><path class="st2" d="M143.4 103.1c0 26.7-21.4 48.1-48.1 48.1s-48.1-21.4-48.1-48.1c0-31.4 48.1-72.7 48.1-72.7s48.1 42.7 48.1 72.7z"/><path class="st3" d="M128.6 91.6l-16.4 10.1v19.6l16.4-9.9V91.6z"/><path class="st4" d="M112.4 101.6l16.2 9.8V91.8l-.1-.1-16.1 9.9z"/><path class="st5" d="M78.3 121.3L62 111.2V91.6l16.3 9.9v19.8z"/><path class="st6" d="M62.1 111.3l16.2-9.8v19.6l-.1.1-16.1-9.9z"/><linearGradient id="SVGID_3_" gradientUnits="userSpaceOnUse" x1="130.127" y1="80.232" x2="146.321" y2="52.184" gradientTransform="matrix(1 0 0 -1 0 174.57)"><stop offset="0" stop-color="#0075FF"/><stop offset="1" stop-color="#00D688"/></linearGradient><path class="st7" d="M145.8 122.5c-.3 0-.5-.1-.7-.3-.2-.2-.3-.4-.3-.7 0-.3.1-.5.3-.7.4-.4 1.1-.4 1.4 0 .2.2.3.4.3.7 0 .3-.1.5-.3.7-.1.2-.4.3-.7.3z"/><linearGradient id="SVGID_4_" gradientUnits="userSpaceOnUse" x1="123.947" y1="73.99" x2="138.799" y2="48.265" gradientTransform="matrix(1 0 0 -1 0 174.57)"><stop offset="0" stop-color="#0075FF"/><stop offset="1" stop-color="#00D688"/></linearGradient><path class="st8" d="M141 119.8c-.5-.3-.6-.9-.3-1.4s.9-.6 1.4-.4c.5.3.6.9.3 1.4-.2.3-.5.5-.9.5-.1.1-.3 0-.5-.1zm-4.3-2.5c-.5-.3-.6-.9-.3-1.4s.9-.6 1.4-.3c.5.3.6.9.3 1.4-.2.3-.5.5-.9.5-.1-.1-.3-.1-.5-.2zm-4.2-2.5c-.5-.3-.6-.9-.3-1.4s.9-.6 1.4-.4c.5.3.6.9.3 1.4-.2.3-.5.5-.9.5-.2 0-.4-.1-.5-.1zm-4.3-2.6c-.5-.3-.6-.9-.4-1.4.3-.5.9-.6 1.4-.4.5.3.6.9.3 1.4-.2.3-.5.5-.9.5-.1 0-.3 0-.4-.1zm-4.3-2.5c-.5-.3-.6-.9-.4-1.4.3-.5.9-.6 1.4-.3.5.3.6.9.3 1.4-.2.3-.5.5-.9.5-.1-.1-.3-.1-.4-.2zm-4.3-2.6c-.5-.3-.6-.9-.4-1.4.3-.5.9-.6 1.4-.4.5.3.6.9.3 1.4-.2.3-.5.5-.9.5-.1.1-.2 0-.4-.1z"/><linearGradient id="SVGID_5_" gradientUnits="userSpaceOnUse" x1="115.321" y1="71.727" x2="131.526" y2="43.658" gradientTransform="matrix(1 0 0 -1 0 174.57)"><stop offset="0" stop-color="#0075FF"/><stop offset="1" stop-color="#00D688"/></linearGradient><path class="st9" d="M115.8 104.7c-.3 0-.5-.1-.7-.3-.2-.2-.3-.5-.3-.7 0-.3.1-.5.3-.7.4-.4 1-.4 1.4 0 .2.2.3.4.3.7 0 .3-.1.5-.3.7-.1.2-.4.3-.7.3z"/><linearGradient id="SVGID_6_" gradientUnits="userSpaceOnUse" x1="43.759" y1="61.956" x2="75.975" y2="61.956" gradientTransform="matrix(1 0 0 -1 0 174.57)"><stop offset="0" stop-color="#00D688"/><stop offset=".591" stop-color="#0054FF"/></linearGradient><path class="st10" d="M43.9 122c-.3-.5-.1-1.1.4-1.4s1.1-.1 1.4.4.1 1.1-.4 1.4c-.2.1-.3.1-.5.1-.4 0-.7-.2-.9-.5zm4.3-2.5c-.3-.5-.1-1.1.4-1.4s1.1-.1 1.4.4.1 1.1-.4 1.4c-.2.1-.3.1-.5.1-.4 0-.7-.2-.9-.5zm4.3-2.6c-.3-.5-.1-1.1.4-1.4s1.1-.1 1.4.4.1 1.1-.4 1.4c-.2.1-.3.1-.5.1-.3 0-.7-.1-.9-.5zm4.4-2.5c-.3-.5-.1-1.1.4-1.4s1.1-.1 1.4.4.1 1.1-.4 1.4c-.1.1-.3.1-.5.1-.4 0-.8-.2-.9-.5zm4.3-2.5c-.3-.5-.1-1.1.4-1.4s1.1-.1 1.4.4.1 1.1-.4 1.4c-.2.1-.3.1-.5.1-.4 0-.7-.2-.9-.5zm4.3-2.5c-.3-.5-.1-1.1.4-1.4s1.1-.1 1.4.4.1 1.1-.4 1.4c-.2.1-.3.1-.5.1-.4 0-.7-.2-.9-.5zm4.3-2.6c-.3-.5-.1-1.1.4-1.4s1.1-.1 1.4.4.1 1.1-.4 1.4c-.2.1-.3.1-.5.1-.4 0-.7-.1-.9-.5zm4.3-2.5c-.3-.5-.1-1.1.4-1.4s1.1-.1 1.4.4.1 1.1-.4 1.4c-.2.1-.3.1-.5.1-.4 0-.7-.2-.9-.5z"/><linearGradient id="SVGID_7_" gradientUnits="userSpaceOnUse" x1="68.1" y1="6.986" x2="122.5" y2="6.986" gradientTransform="matrix(1 0 0 -1 0 174.57)"><stop offset="0" stop-color="#005AFF" stop-opacity=".2"/><stop offset="1" stop-color="#005AFF" stop-opacity="0"/></linearGradient><ellipse class="st11" cx="95.3" cy="167.6" rx="27.2" ry="6.5"/><linearGradient id="SVGID_8_" gradientUnits="userSpaceOnUse" x1="170.3" y1="23.786" x2="170.3" y2="53.886" gradientTransform="matrix(1 0 0 -1 0 174.57)"><stop offset="0" stop-color="#0072FF" stop-opacity=".6"/><stop offset="1" stop-color="#0072FF" stop-opacity="0"/></linearGradient><path class="st12" d="M170.3 120.7l12.5 7.6v14.9l-12.5 7.6-12.5-7.6v-14.9l12.5-7.6z"/><path class="st13 st14" d="M170.3 136v-25m-20.5 37.1l20.4-12.5 20.3 12.4"/><path class="st14" d="M170.2 135.6v25"/><linearGradient id="SVGID_9_" gradientUnits="userSpaceOnUse" x1="149.739" y1="44.786" x2="170.62" y2="44.786" gradientTransform="matrix(1 0 0 -1 0 174.57)"><stop offset="0" stop-color="#00D688"/><stop offset="1" stop-color="#0072FF"/></linearGradient><path class="st15" d="M170.3 136L150 123.6"/><path class="st14" d="M190.7 123.5L170.3 136"/><linearGradient id="SVGID_10_" gradientUnits="userSpaceOnUse" x1="148.988" y1="51.224" x2="191.287" y2="26.803" gradientTransform="matrix(1 0 0 -1 0 174.57)"><stop offset="0" stop-color="#00D688"/><stop offset="1" stop-color="#0072FF"/></linearGradient><path class="st16" d="M149.8 123.1V148l20.3 12.5 20.4-12.5v-25l-20.4-12.4-20.3 12.5z"/><g><linearGradient id="SVGID_11_" gradientUnits="userSpaceOnUse" x1="167.6" y1="133.786" x2="167.6" y2="163.886" gradientTransform="matrix(1 0 0 -1 0 174.57)"><stop offset="0" stop-color="#0072FF" stop-opacity=".6"/><stop offset="1" stop-color="#0072FF" stop-opacity="0"/></linearGradient><path class="st17" d="M167.6 10.7l12.5 7.6v14.9l-12.5 7.6-12.5-7.6V18.3l12.5-7.6z"/><path class="st13 st14" d="M167.5 26V1M147 38.1l20.4-12.5L187.8 38"/><linearGradient id="SVGID_12_" gradientUnits="userSpaceOnUse" x1="167.5" y1="123.986" x2="167.5" y2="148.986" gradientTransform="matrix(1 0 0 -1 0 174.57)"><stop offset="0" stop-color="#00D688"/><stop offset="1" stop-color="#0072FF"/></linearGradient><path class="st18" d="M167.5 25.6v25"/><linearGradient id="SVGID_13_" gradientUnits="userSpaceOnUse" x1="146.969" y1="154.786" x2="167.85" y2="154.786" gradientTransform="matrix(1 0 0 -1 0 174.57)"><stop offset="0" stop-color="#00D688"/><stop offset="1" stop-color="#0072FF"/></linearGradient><path class="st19" d="M167.6 26l-20.4-12.4"/><path class="st14" d="M188 13.5L167.6 26"/><linearGradient id="SVGID_14_" gradientUnits="userSpaceOnUse" x1="146.188" y1="136.847" x2="188.555" y2="161.308" gradientTransform="matrix(1 0 0 -1 0 174.57)"><stop offset="0" stop-color="#00D688"/><stop offset="1" stop-color="#0072FF"/></linearGradient><path class="st20" d="M147 13.1V38l20.3 12.5L187.8 38V13L167.3.6 147 13.1z"/></g><g><linearGradient id="SVGID_15_" gradientUnits="userSpaceOnUse" x1="21" y1="23.786" x2="21" y2="53.886" gradientTransform="matrix(1 0 0 -1 0 174.57)"><stop offset="0" stop-color="#0072FF" stop-opacity=".6"/><stop offset="1" stop-color="#0072FF" stop-opacity="0"/></linearGradient><path class="st21" d="M21 120.7l12.5 7.6v14.9L21 150.8l-12.5-7.6v-14.9l12.5-7.6z"/><path class="st13 st14" d="M20.9 136v-25M.5 148.1l20.3-12.5L41.2 148"/><path class="st14" d="M20.9 135.6v25M21 136L.6 123.6"/><linearGradient id="SVGID_16_" gradientUnits="userSpaceOnUse" x1="20.739" y1="44.836" x2="41.624" y2="44.836" gradientTransform="matrix(1 0 0 -1 0 174.57)"><stop offset="0" stop-color="#0072FF"/><stop offset="1" stop-color="#00D688"/></linearGradient><path class="st22" d="M41.4 123.5L21 136"/><linearGradient id="SVGID_17_" gradientUnits="userSpaceOnUse" x1="37.691" y1="55.876" x2="4.061" y2="22.246" gradientTransform="matrix(1 0 0 -1 0 174.57)"><stop offset="0" stop-color="#00D688"/><stop offset="1" stop-color="#0072FF"/></linearGradient><path class="st23" d="M.5 123.1V148l20.3 12.5L41.2 148v-25l-20.4-12.4L.5 123.1z"/></g></svg>