<svg id="Layer_1" xmlns="http://www.w3.org/2000/svg" xmlns:xlink="http://www.w3.org/1999/xlink" viewBox="0 0 184.7 130"><style>.st0{opacity:0.3;} .st1{fill:none;stroke:#0072FF;stroke-miterlimit:10;} .st2{fill:url(#SVGID_1_);} .st3{fill:#FFFFFF;} .st4{fill:url(#SVGID_2_);} .st5{fill:url(#SVGID_3_);} .st6{fill:url(#SVGID_4_);} .st7{fill:url(#SVGID_5_);} .st8{fill:url(#SVGID_6_);} .st9{fill:url(#SVGID_7_);} .st10{fill:none;stroke:url(#SVGID_8_);stroke-width:2;stroke-miterlimit:10;} .st11{clip-path:url(#SVGID_10_);fill:none;stroke:#FFFFFF;stroke-miterlimit:10;} .st12{clip-path:url(#SVGID_12_);fill:none;stroke:#FFFFFF;stroke-miterlimit:10;} .st13{clip-path:url(#SVGID_14_);fill:none;stroke:#FFFFFF;stroke-miterlimit:10;} .st14{fill:url(#SVGID_15_);} .st15{fill:url(#SVGID_16_);} .st16{fill:url(#SVGID_17_);} .st17{fill:url(#SVGID_18_);} .st18{fill:url(#SVGID_19_);} .st19{fill:url(#SVGID_20_);} .st20{fill:url(#SVGID_21_);} .st21{fill:url(#SVGID_22_);} .st22{fill:url(#SVGID_23_);} .st23{fill:none;stroke:url(#SVGID_24_);stroke-width:2;stroke-miterlimit:10;} .st24{clip-path:url(#SVGID_26_);fill:none;stroke:#FFFFFF;stroke-miterlimit:10;} .st25{clip-path:url(#SVGID_28_);fill:none;stroke:#FFFFFF;stroke-miterlimit:10;} .st26{clip-path:url(#SVGID_30_);fill:none;stroke:#FFFFFF;stroke-miterlimit:10;} .st27{fill:url(#SVGID_31_);} .st28{fill:url(#SVGID_32_);} .st29{fill:none;stroke:#00D688;stroke-width:2;stroke-linecap:round;stroke-miterlimit:10;stroke-dasharray:0,4.5;} .st30{fill:none;stroke:#0080FF;stroke-width:2;stroke-linecap:round;stroke-miterlimit:10;stroke-dasharray:0,4.5;}</style><g class="st0"><path class="st1" d="M86.7 97.8L51.4 76 1 107M50.9 1.2v74"/></g><linearGradient id="SVGID_1_" gradientUnits="userSpaceOnUse" x1="37.65" y1="79.208" x2="7.905" y2="79.208"><stop offset=".041" stop-color="#005AFF" stop-opacity="0"/><stop offset="1" stop-color="#005AFF" stop-opacity=".15"/></linearGradient><path class="st2" d="M37.3 56.6L7.2 36.8v66.5l30.1 18.4z"/><path class="st3" d="M55.8 62L11.7 89.1v9.3L32 110.9l44-27.1v-9.3z"/><linearGradient id="SVGID_2_" gradientUnits="userSpaceOnUse" x1="43.871" y1="62.021" x2="43.871" y2="110.876"><stop offset="0" stop-color="#0072FF" stop-opacity=".8"/><stop offset="1" stop-color="#0072FF" stop-opacity=".2"/></linearGradient><path class="st4" d="M55.8 62L11.7 89.1v9.3L32 110.9l44-27.1v-9.3z"/><path class="st3" d="M55.8 40.6L11.7 67.8V77L32 89.5l44-27.1v-9.3z"/><linearGradient id="SVGID_3_" gradientUnits="userSpaceOnUse" x1="43.871" y1="40.643" x2="43.871" y2="89.498"><stop offset="0" stop-color="#0072FF" stop-opacity=".8"/><stop offset="1" stop-color="#0072FF" stop-opacity=".2"/></linearGradient><path class="st5" d="M55.8 40.6L11.7 67.8V77L32 89.5l44-27.1v-9.3z"/><path class="st3" d="M55.8 19.3L11.7 46.4v9.3L32 68.1 76 41v-9.3z"/><linearGradient id="SVGID_4_" gradientUnits="userSpaceOnUse" x1="43.871" y1="19.266" x2="43.871" y2="68.121"><stop offset="0" stop-color="#0072FF" stop-opacity=".8"/><stop offset="1" stop-color="#0072FF" stop-opacity=".2"/></linearGradient><path class="st6" d="M55.8 19.3L11.7 46.4v9.3L32 68.1 76 41v-9.3z"/><linearGradient id="SVGID_5_" gradientUnits="userSpaceOnUse" x1="53.992" y1="31.736" x2="53.992" y2="68.121"><stop offset="0" stop-color="#0072FF" stop-opacity=".8"/><stop offset="1" stop-color="#0072FF" stop-opacity=".2"/></linearGradient><path class="st7" d="M32 58.8l44-27.1V41L32 68.1z"/><linearGradient id="SVGID_6_" gradientUnits="userSpaceOnUse" x1="53.992" y1="53.114" x2="53.992" y2="89.498"><stop offset="0" stop-color="#0072FF" stop-opacity=".8"/><stop offset="1" stop-color="#0072FF" stop-opacity=".2"/></linearGradient><path class="st8" d="M32 80.2l44-27.1v9.3L32 89.5z"/><linearGradient id="SVGID_7_" gradientUnits="userSpaceOnUse" x1="53.992" y1="74.491" x2="53.992" y2="110.876"><stop offset="0" stop-color="#0072FF" stop-opacity=".8"/><stop offset="1" stop-color="#0072FF" stop-opacity=".2"/></linearGradient><path class="st9" d="M32 101.6l44-27.1v9.3l-44 27.1z"/><path class="st3" d="M32 89.5v-9.3L11.7 67.8V77zM32 110.9v-9.3L11.7 89.1v9.3zM32 68.1v-9.3L11.7 46.4v9.3z"/><linearGradient id="SVGID_8_" gradientUnits="userSpaceOnUse" x1="43.87" y1=".874" x2="43.87" y2="129.907"><stop offset="0" stop-color="#00D688"/><stop offset="1" stop-color="#0080FF"/></linearGradient><path class="st10" d="M51.4 2L1 33.1v73.8l35.4 21.8 50.3-31V23.8z"/><defs><path id="SVGID_9_" d="M55.8 19.3L11.7 46.4v9.2L32 68.1 76 41v-9.3z"/></defs><clipPath id="SVGID_10_"><use xlink:href="#SVGID_9_" overflow="visible"/></clipPath><path class="st11" d="M11.1 46.3L32 59l44.8-27.6"/><defs><path id="SVGID_11_" d="M55.8 40.6L11.7 67.7V77L32 89.5l44-27.1v-9.3z"/></defs><clipPath id="SVGID_12_"><use xlink:href="#SVGID_11_" overflow="visible"/></clipPath><path class="st12" d="M11.1 67.7L32 80.4l44.8-27.6"/><defs><path id="SVGID_13_" d="M55.8 62L11.7 89.2v9.2L32 110.9l44-27.1v-9.3z"/></defs><clipPath id="SVGID_14_"><use xlink:href="#SVGID_13_" overflow="visible"/></clipPath><path class="st13" d="M11.1 89.1L32 101.8l44.8-27.6"/><linearGradient id="SVGID_15_" gradientUnits="userSpaceOnUse" x1="37.325" y1="75.698" x2="81.347" y2="75.698"><stop offset="0" stop-color="#005AFF" stop-opacity=".15"/><stop offset=".959" stop-color="#005AFF" stop-opacity="0"/></linearGradient><path class="st14" d="M37.3 56.9v64.8l44-27.2V29.7z"/><linearGradient id="SVGID_16_" gradientUnits="userSpaceOnUse" x1="7.159" y1="34.379" x2="81.347" y2="34.379"><stop offset=".041" stop-color="#005AFF" stop-opacity="0"/><stop offset="1" stop-color="#005AFF" stop-opacity=".15"/></linearGradient><path class="st15" d="M37.3 57.5l44-27.2-30.9-19L7.2 37.6z"/><g class="st0"><path class="st1" d="M183.7 97.8L148.4 76 98 107M147.9 1.2v74"/></g><linearGradient id="SVGID_17_" gradientUnits="userSpaceOnUse" x1="134.65" y1="79.208" x2="104.905" y2="79.208"><stop offset=".041" stop-color="#005AFF" stop-opacity="0"/><stop offset="1" stop-color="#005AFF" stop-opacity=".15"/></linearGradient><path class="st16" d="M134.3 56.6l-30.1-19.8v66.5l30.1 18.4z"/><path class="st3" d="M152.8 62l-44.1 27.1v9.3l20.3 12.5 44-27.1v-9.3z"/><linearGradient id="SVGID_18_" gradientUnits="userSpaceOnUse" x1="140.871" y1="62.021" x2="140.871" y2="110.876"><stop offset="0" stop-color="#0072FF" stop-opacity=".8"/><stop offset="1" stop-color="#0072FF" stop-opacity=".2"/></linearGradient><path class="st17" d="M152.8 62l-44.1 27.1v9.3l20.3 12.5 44-27.1v-9.3z"/><path class="st3" d="M152.8 40.6l-44.1 27.2V77L129 89.5l44-27.1v-9.3z"/><linearGradient id="SVGID_19_" gradientUnits="userSpaceOnUse" x1="140.871" y1="40.643" x2="140.871" y2="89.498"><stop offset="0" stop-color="#0072FF" stop-opacity=".8"/><stop offset="1" stop-color="#0072FF" stop-opacity=".2"/></linearGradient><path class="st18" d="M152.8 40.6l-44.1 27.2V77L129 89.5l44-27.1v-9.3z"/><path class="st3" d="M152.8 19.3l-44.1 27.1v9.3L129 68.1 173 41v-9.3z"/><linearGradient id="SVGID_20_" gradientUnits="userSpaceOnUse" x1="140.871" y1="19.266" x2="140.871" y2="68.121"><stop offset="0" stop-color="#0072FF" stop-opacity=".8"/><stop offset="1" stop-color="#0072FF" stop-opacity=".2"/></linearGradient><path class="st19" d="M152.8 19.3l-44.1 27.1v9.3L129 68.1 173 41v-9.3z"/><linearGradient id="SVGID_21_" gradientUnits="userSpaceOnUse" x1="150.992" y1="31.736" x2="150.992" y2="68.121"><stop offset="0" stop-color="#0072FF" stop-opacity=".8"/><stop offset="1" stop-color="#0072FF" stop-opacity=".2"/></linearGradient><path class="st20" d="M129 58.8l44-27.1V41l-44 27.1z"/><linearGradient id="SVGID_22_" gradientUnits="userSpaceOnUse" x1="150.992" y1="53.114" x2="150.992" y2="89.498"><stop offset="0" stop-color="#0072FF" stop-opacity=".8"/><stop offset="1" stop-color="#0072FF" stop-opacity=".2"/></linearGradient><path class="st21" d="M129 80.2l44-27.1v9.3l-44 27.1z"/><linearGradient id="SVGID_23_" gradientUnits="userSpaceOnUse" x1="150.992" y1="74.491" x2="150.992" y2="110.876"><stop offset="0" stop-color="#0072FF" stop-opacity=".8"/><stop offset="1" stop-color="#0072FF" stop-opacity=".2"/></linearGradient><path class="st22" d="M129 101.6l44-27.1v9.3l-44 27.1z"/><path class="st3" d="M129 89.5v-9.3l-20.3-12.4V77zM129 110.9v-9.3l-20.3-12.5v9.3zM129 68.1v-9.3l-20.3-12.4v9.3z"/><linearGradient id="SVGID_24_" gradientUnits="userSpaceOnUse" x1="140.87" y1=".874" x2="140.87" y2="129.907"><stop offset="0" stop-color="#00D688"/><stop offset="1" stop-color="#0080FF"/></linearGradient><path class="st23" d="M148.4 2L98 33.1v73.8l35.4 21.8 50.3-31V23.8z"/><defs><path id="SVGID_25_" d="M152.8 19.3l-44.1 27.1v9.2L129 68.1 173 41v-9.3z"/></defs><clipPath id="SVGID_26_"><use xlink:href="#SVGID_25_" overflow="visible"/></clipPath><path class="st24" d="M108.1 46.3L129 59l44.8-27.6"/><g><defs><path id="SVGID_27_" d="M152.8 40.6l-44.1 27.1V77L129 89.5l44-27.1v-9.3z"/></defs><clipPath id="SVGID_28_"><use xlink:href="#SVGID_27_" overflow="visible"/></clipPath><path class="st25" d="M108.1 67.7L129 80.4l44.8-27.6"/></g><g><defs><path id="SVGID_29_" d="M152.8 62l-44.1 27.2v9.2l20.3 12.5 44-27.1v-9.3z"/></defs><clipPath id="SVGID_30_"><use xlink:href="#SVGID_29_" overflow="visible"/></clipPath><path class="st26" d="M108.1 89.1l20.9 12.7 44.8-27.6"/></g><linearGradient id="SVGID_31_" gradientUnits="userSpaceOnUse" x1="134.325" y1="75.698" x2="178.347" y2="75.698"><stop offset="0" stop-color="#005AFF" stop-opacity=".15"/><stop offset=".959" stop-color="#005AFF" stop-opacity="0"/></linearGradient><path class="st27" d="M134.3 56.9v64.8l44-27.2V29.7z"/><linearGradient id="SVGID_32_" gradientUnits="userSpaceOnUse" x1="104.159" y1="34.379" x2="178.347" y2="34.379"><stop offset=".041" stop-color="#005AFF" stop-opacity="0"/><stop offset="1" stop-color="#005AFF" stop-opacity=".15"/></linearGradient><path class="st28" d="M134.3 57.5l44-27.2-30.9-19-43.2 26.3z"/><path class="st29" d="M63.1 1h73.8"/><path class="st30" d="M48.3 129h75.1"/></svg>