<svg id="Layer_1" xmlns="http://www.w3.org/2000/svg" viewBox="0 0 161.6 201.9"><style>.st0{fill:url(#SVGID_1_);enable-background:new ;} .st1{opacity:0.15;} .st2{fill:none;stroke:#0080FF;stroke-miterlimit:10;} .st3{fill:none;stroke:#0080FF;stroke-width:2;stroke-miterlimit:10;} .st4{fill:url(#SVGID_2_);enable-background:new ;} .st5{fill:#FFFFFF;stroke:#0080FF;stroke-miterlimit:10;} .st6{fill:url(#SVGID_3_);enable-background:new ;} .st7{fill:url(#SVGID_4_);enable-background:new ;} .st8{fill:#FFFFFF;stroke:#0088F3;stroke-miterlimit:10;} .st9{fill:url(#SVGID_5_);enable-background:new ;} .st10{fill:#FFFFFF;stroke:#00A3CD;stroke-miterlimit:10;} .st11{fill:url(#SVGID_6_);enable-background:new ;} .st12{fill:#FFFFFF;stroke:#00BF96;stroke-miterlimit:10;} .st13{fill:none;stroke:url(#SVGID_7_);stroke-miterlimit:10;} .st14{fill:#FFFFFF;stroke:url(#SVGID_8_);stroke-miterlimit:10;} .st15{fill:none;stroke:#00D688;stroke-miterlimit:10;} .st16{fill:url(#SVGID_9_);enable-background:new ;} .st17{fill:none;stroke:url(#SVGID_10_);stroke-width:2;stroke-miterlimit:10;} .st18{fill:#FFFFFF;stroke:#00D688;stroke-miterlimit:10;} .st19{opacity:0.3;} .st20{fill:url(#SVGID_11_);enable-background:new ;} .st21{fill:none;stroke:#00D688;stroke-width:2;stroke-linecap:round;stroke-miterlimit:10;stroke-dasharray:0,5;}</style><linearGradient id="SVGID_1_" gradientUnits="userSpaceOnUse" x1="21.529" y1="191.1" x2="21.529" y2="160.976"><stop offset="0" stop-color="#0072FF" stop-opacity=".8"/><stop offset="1" stop-color="#0072FF" stop-opacity="0"/></linearGradient><path class="st0" d="M21.5 161l12.5 7.6v14.9l-12.5 7.6L9 183.5v-14.9z"/><g class="st1"><path class="st2" d="M21.5 176.3v-25M1 188.4l20.4-12.5 20.3 12.4"/></g><path class="st2" d="M21.4 175.9v25M21.5 176.3L1.2 163.9M41.9 163.8l-20.4 12.5"/><path class="st3" d="M1 163.4v24.9l20.3 12.5 20.4-12.5v-25.1l-20.4-12.3z"/><linearGradient id="SVGID_2_" gradientUnits="userSpaceOnUse" x1="80.528" y1="191.1" x2="80.528" y2="160.976"><stop offset="0" stop-color="#0072FF" stop-opacity=".8"/><stop offset="1" stop-color="#0072FF" stop-opacity="0"/></linearGradient><path class="st4" d="M80.5 161l12.5 7.6v14.9l-12.5 7.6-12.5-7.6v-14.9z"/><g class="st1"><path class="st2" d="M80.5 176.3v-25M60 188.4l20.4-12.5 20.3 12.4"/></g><path class="st2" d="M80.4 175.9v25M80.5 176.3l-20.3-12.4M100.9 163.8l-20.4 12.5"/><g><path class="st2" d="M60 163.4v24.9l20.3 12.5 20.4-12.5v-25.1l-20.4-12.3z"/></g><g><path class="st5" d="M60 138.9v24.9l20.3 12.5 20.4-12.5v-25.1l-20.4-12.3z"/><linearGradient id="SVGID_3_" gradientUnits="userSpaceOnUse" x1="80.528" y1="166.6" x2="80.528" y2="136.476"><stop offset="0" stop-color="#0072FF" stop-opacity=".8"/><stop offset="1" stop-color="#0072FF" stop-opacity="0"/></linearGradient><path class="st6" d="M80.5 136.5l12.5 7.6V159l-12.5 7.6L68 159v-14.9z"/><g class="st1"><path class="st2" d="M80.5 151.8v-25M60 163.9l20.4-12.5 20.3 12.4"/></g><path class="st2" d="M80.4 151.4v25M80.5 151.8l-20.3-12.4M100.9 139.3l-20.4 12.5"/></g><g><path class="st3" d="M60.1 139.4v48.9l20.2 12.5 20.3-12.5v-49.1l-20.3-12.3z"/></g><g><g class="st1"><path class="st2" d="M140.5 176.3v-25M120 188.4l20.4-12.5 20.3 12.4"/></g><path class="st2" d="M120 163.4v24.9l20.3 12.5 20.4-12.5v-25.1l-20.4-12.3z"/><linearGradient id="SVGID_4_" gradientUnits="userSpaceOnUse" x1="140.527" y1="191.1" x2="140.527" y2="160.976"><stop offset="0" stop-color="#0072FF" stop-opacity=".8"/><stop offset="1" stop-color="#0072FF" stop-opacity="0"/></linearGradient><path class="st7" d="M140.5 161l12.5 7.6v14.9l-12.5 7.6-12.5-7.6v-14.9z"/></g><g><path class="st8" d="M120 138.9v24.9l20.3 12.5 20.4-12.5v-25.1l-20.4-12.3z"/><g class="st1"><path class="st2" d="M140.5 151.8v-25M120 163.9l20.4-12.5 20.3 12.4"/></g><linearGradient id="SVGID_5_" gradientUnits="userSpaceOnUse" x1="140.527" y1="166.6" x2="140.527" y2="136.476"><stop offset="0" stop-color="#0072FF" stop-opacity=".8"/><stop offset="1" stop-color="#0072FF" stop-opacity="0"/></linearGradient><path class="st9" d="M140.5 136.5l12.5 7.6V159l-12.5 7.6L128 159v-14.9z"/></g><g><path class="st10" d="M120 114.4v24.9l20.3 12.5 20.4-12.5v-25.1l-20.4-12.3z"/><g class="st1"><path class="st2" d="M140.5 127.3v-25M120 139.4l20.4-12.5 20.3 12.4"/></g><linearGradient id="SVGID_6_" gradientUnits="userSpaceOnUse" x1="140.527" y1="142.1" x2="140.527" y2="111.976"><stop offset="0" stop-color="#0072FF" stop-opacity=".8"/><stop offset="1" stop-color="#0072FF" stop-opacity="0"/></linearGradient><path class="st11" d="M140.5 112l12.5 7.6v14.9l-12.5 7.6-12.5-7.6v-14.9z"/></g><g><path class="st12" d="M120 89.9v24.9l20.3 12.5 20.4-12.5V89.7l-20.4-12.3L120 89.9"/><linearGradient id="SVGID_7_" gradientUnits="userSpaceOnUse" x1="119.734" y1="83.558" x2="160.98" y2="83.558"><stop offset="0" stop-color="#00D688"/><stop offset=".245" stop-color="#FFF"/><stop offset=".756" stop-color="#FFF"/><stop offset="1" stop-color="#00D688"/></linearGradient><path class="st13" d="M160.7 89.7l-20.4-12.3L120 89.9"/><g class="st1"><path class="st2" d="M140.5 102.8v-25M120 114.9l20.4-12.5 20.3 12.4"/></g><linearGradient id="SVGID_8_" gradientUnits="userSpaceOnUse" x1="140.427" y1="199.957" x2="140.427" y2="102.383"><stop offset="0" stop-color="#0072FF"/><stop offset="1" stop-color="#00D688"/></linearGradient><path class="st14" d="M140.4 102.4V200"/><path class="st15" d="M140.5 102.8l-20.3-12.4M160.9 90.3l-20.4 12.5"/><linearGradient id="SVGID_9_" gradientUnits="userSpaceOnUse" x1="140.527" y1="117.6" x2="140.527" y2="87.476"><stop offset="0" stop-color="#0072FF" stop-opacity=".8"/><stop offset="1" stop-color="#0072FF" stop-opacity="0"/></linearGradient><path class="st16" d="M140.5 87.5l12.5 7.6V110l-12.5 7.6L128 110V95.1z"/></g><g><linearGradient id="SVGID_10_" gradientUnits="userSpaceOnUse" x1="140.359" y1="201.944" x2="140.359" y2="89.368"><stop offset="0" stop-color="#0072FF"/><stop offset="1" stop-color="#00D688"/></linearGradient><path class="st17" d="M120.1 89.5v98.8l20.2 12.5 20.3-12.5V89.4"/></g><g><path class="st18" d="M120 50.6v24.8l20.3 12.5 20.4-12.5v-25L140.3 38z"/><g class="st19"><path class="st15" d="M140.5 63.4v-24M120 75.5L140.4 63l20.3 12.4"/></g><path class="st15" d="M140.4 63v25.1M140.5 63.5l-20.3-12.4M160.9 50.9l-20.4 12.6"/><linearGradient id="SVGID_11_" gradientUnits="userSpaceOnUse" x1="140.527" y1="78.266" x2="140.527" y2="48.142"><stop offset="0" stop-color="#0072FF" stop-opacity=".8"/><stop offset="1" stop-color="#0072FF" stop-opacity="0"/></linearGradient><path class="st20" d="M140.5 48.1l12.5 7.7v14.8l-12.5 7.7-12.5-7.7V55.8z"/></g><path class="st21" d="M160.6 43.3V17.2M120.1 43.3V17.2M140.4 32.5V1"/></svg>