<svg id="Layer_1" xmlns="http://www.w3.org/2000/svg" viewBox="0 0 180.5 172.6"><style>.st0{fill:none;stroke:#0080FF;stroke-width:2;stroke-miterlimit:10;} .st1{fill:none;stroke:url(#SVGID_1_);stroke-width:2;stroke-miterlimit:10;} .st2{fill:url(#SVGID_2_);} .st3{fill:url(#SVGID_3_);} .st4{fill:url(#SVGID_4_);} .st5{fill:url(#SVGID_5_);} .st6{fill:#FFFFFF;} .st7{fill:url(#SVGID_6_);} .st8{fill:url(#SVGID_7_);} .st9{fill:url(#SVGID_8_);} .st10{fill:url(#SVGID_9_);} .st11{fill:url(#SVGID_10_);} .st12{fill:url(#SVGID_11_);} .st13{fill:url(#SVGID_12_);} .st14{fill:url(#SVGID_13_);} .st15{fill:url(#SVGID_14_);} .st16{fill:none;stroke:url(#SVGID_15_);stroke-width:2;stroke-miterlimit:10;} .st17{fill:none;stroke:url(#SVGID_16_);stroke-width:2;stroke-miterlimit:10;} .st18{fill:none;stroke:url(#SVGID_17_);stroke-width:2;stroke-linecap:round;stroke-miterlimit:10;stroke-dasharray:0,5;} .st19{fill:none;stroke:url(#SVGID_18_);stroke-width:2;stroke-linecap:round;stroke-miterlimit:10;stroke-dasharray:0,5;} .st20{fill:none;stroke:url(#SVGID_19_);stroke-width:2;stroke-linecap:round;stroke-miterlimit:10;stroke-dasharray:0,5;}</style><path class="st0" d="M87.6 32.3L30.5 67.1v69.4l57.1 34.9 57-34.9V67.1z"/><linearGradient id="SVGID_1_" gradientUnits="userSpaceOnUse" x1="18.058" y1="83.761" x2="73.127" y2="179.143"><stop offset="0" stop-color="#0080FF"/><stop offset=".017" stop-color="#0088F4"/><stop offset=".077" stop-color="#00A0D3"/><stop offset=".141" stop-color="#00B4B7"/><stop offset=".211" stop-color="#00C3A2"/><stop offset=".288" stop-color="#00CE93"/><stop offset=".379" stop-color="#00D48B"/><stop offset=".519" stop-color="#00D688"/><stop offset=".632" stop-color="#00D48B"/><stop offset=".717" stop-color="#00CD95"/><stop offset=".794" stop-color="#00C1A5"/><stop offset=".865" stop-color="#00B1BC"/><stop offset=".933" stop-color="#009BD9"/><stop offset=".997" stop-color="#0081FD"/><stop offset="1" stop-color="#0080FF"/></linearGradient><path class="st1" d="M30.5 77.1v59.4l56.1 34.3"/><linearGradient id="SVGID_2_" gradientUnits="userSpaceOnUse" x1="87.559" y1="117.447" x2="138.695" y2="117.447"><stop offset="0" stop-color="#005AFF" stop-opacity=".2"/><stop offset="1" stop-color="#005AFF" stop-opacity="0"/></linearGradient><path class="st2" d="M138.7 70.7V133l-51.1 31.2v-61.8z"/><linearGradient id="SVGID_3_" gradientUnits="userSpaceOnUse" x1="5947.942" y1="117.447" x2="5999.078" y2="117.447" gradientTransform="matrix(-1 0 0 1 6035.502 0)"><stop offset="0" stop-color="#005AFF" stop-opacity="0"/><stop offset="1" stop-color="#005AFF" stop-opacity=".2"/></linearGradient><path class="st3" d="M36.4 70.7V133l51.2 31.2v-61.8z"/><linearGradient id="SVGID_4_" gradientUnits="userSpaceOnUse" x1="36.424" y1="70.911" x2="138.695" y2="70.911"><stop offset="0" stop-color="#005AFF" stop-opacity="0"/><stop offset="1" stop-color="#005AFF" stop-opacity=".2"/></linearGradient><path class="st4" d="M87.6 102.4l51.1-31.7-51.1-31.2-51.2 31.2z"/><linearGradient id="SVGID_5_" gradientUnits="userSpaceOnUse" x1="61.582" y1="-553.192" x2="113.54" y2="-553.192" gradientTransform="matrix(1 0 0 -1 0 -452.4514)"><stop offset="0" stop-color="#0072FF"/><stop offset="1" stop-color="#0072FF" stop-opacity=".2"/></linearGradient><path class="st5" d="M87.6 133c-14.4 0-26-11.7-26-26C61.6 90.6 85 70.8 86 70l1.6-1.4 1.6 1.4c1 .9 24.4 21.4 24.4 37 0 14.3-11.7 26-26 26z"/><path class="st6" d="M87.6 71.8s23.5 20.5 23.5 35.1c0 13-10.5 23.5-23.5 23.5s-23.5-10.5-23.5-23.5C64 91.6 87.6 71.8 87.6 71.8m0-6.6L84.3 68C81.7 70.2 59 89.8 59 107c0 15.7 12.8 28.5 28.5 28.5S116 122.7 116 107c0-16.5-22.7-36.7-25.3-38.9l-3.1-2.9z"/><linearGradient id="SVGID_6_" gradientUnits="userSpaceOnUse" y1="103.135" x2="16.52" y2="103.135"><stop offset="0" stop-color="#0072FF"/><stop offset="1" stop-color="#0072FF" stop-opacity=".2"/></linearGradient><path class="st7" d="M3.9 95.7L.1 98.1l-.1 4.8 12.6 7.7 3.9-2.4v-4.8z"/><linearGradient id="SVGID_7_" gradientUnits="userSpaceOnUse" x1=".06" y1="100.759" x2="16.52" y2="100.759"><stop offset="0" stop-color="#0072FF"/><stop offset="1" stop-color="#0072FF" stop-opacity=".2"/></linearGradient><path class="st8" d="M.1 98.1l12.5 7.7 3.9-2.4-12.6-7.7z"/><linearGradient id="SVGID_8_" gradientUnits="userSpaceOnUse" y1="104.317" x2="12.591" y2="104.317"><stop offset="0" stop-color="#0072FF"/><stop offset="1" stop-color="#0072FF" stop-opacity=".2"/></linearGradient><path class="st9" d="M12.6 110.6L0 102.9l.1-4.8 12.5 7.7z"/><linearGradient id="SVGID_9_" gradientUnits="userSpaceOnUse" x1="3552.091" y1="74.505" x2="3568.611" y2="74.505" gradientTransform="matrix(-1 0 0 1 3732.564 0)"><stop offset="0" stop-color="#0072FF"/><stop offset="1" stop-color="#0072FF" stop-opacity=".2"/></linearGradient><path class="st10" d="M176.5 67.1l3.9 2.3.1 4.9-12.6 7.6-3.9-2.4v-4.7z"/><linearGradient id="SVGID_10_" gradientUnits="userSpaceOnUse" x1="3552.15" y1="72.129" x2="3568.611" y2="72.129" gradientTransform="matrix(-1 0 0 1 3732.564 0)"><stop offset="0" stop-color="#0072FF"/><stop offset="1" stop-color="#0072FF" stop-opacity=".2"/></linearGradient><path class="st11" d="M180.4 69.4l-12.5 7.8-3.9-2.4 12.5-7.7z"/><linearGradient id="SVGID_11_" gradientUnits="userSpaceOnUse" x1="3552.091" y1="75.686" x2="3564.682" y2="75.686" gradientTransform="matrix(-1 0 0 1 3732.564 0)"><stop offset="0" stop-color="#0072FF"/><stop offset="1" stop-color="#0072FF" stop-opacity=".2"/></linearGradient><path class="st12" d="M167.9 81.9l12.6-7.6-.1-4.9-12.5 7.8z"/><g><linearGradient id="SVGID_12_" gradientUnits="userSpaceOnUse" x1="2941.921" y1="-1507.493" x2="2958.441" y2="-1507.493" gradientTransform="matrix(-0.5263 0.8503 0.8503 0.5263 2906.5769 -1705.5154)"><stop offset="0" stop-color="#0072FF"/><stop offset="1" stop-color="#0072FF" stop-opacity=".2"/></linearGradient><path class="st13" d="M68 2l4.1-2 4.1 2.5-.1 14.7-4.1 2.1-4-2.5z"/><linearGradient id="SVGID_13_" gradientUnits="userSpaceOnUse" x1="2945.851" y1="-1508.664" x2="2958.441" y2="-1508.664" gradientTransform="matrix(-0.5263 0.8503 0.8503 0.5263 2906.5769 -1705.5154)"><stop offset="0" stop-color="#0072FF"/><stop offset="1" stop-color="#0072FF" stop-opacity=".2"/></linearGradient><path class="st14" d="M72.1 4.6v14.7L68 16.8V2z"/><linearGradient id="SVGID_14_" gradientUnits="userSpaceOnUse" x1="2941.921" y1="-1505.107" x2="2958.405" y2="-1505.107" gradientTransform="matrix(-0.5263 0.8503 0.8503 0.5263 2906.5769 -1705.5154)"><stop offset="0" stop-color="#0072FF"/><stop offset="1" stop-color="#0072FF" stop-opacity=".2"/></linearGradient><path class="st15" d="M76.1 17.2l.1-14.7-4.1 2.1v14.7z"/></g><linearGradient id="SVGID_15_" gradientUnits="userSpaceOnUse" x1="144.584" y1="136.135" x2="144.584" y2="67.469"><stop offset="0" stop-color="#0080FF"/><stop offset=".02" stop-color="#0089F2"/><stop offset=".078" stop-color="#00A1D2"/><stop offset=".14" stop-color="#00B4B7"/><stop offset=".208" stop-color="#00C3A2"/><stop offset=".284" stop-color="#00CE93"/><stop offset=".375" stop-color="#00D48B"/><stop offset=".519" stop-color="#00D688"/><stop offset=".633" stop-color="#00D48B"/><stop offset=".719" stop-color="#00CD95"/><stop offset=".795" stop-color="#00C1A5"/><stop offset=".866" stop-color="#00B1BB"/><stop offset=".932" stop-color="#009CD9"/><stop offset=".996" stop-color="#0082FC"/><stop offset="1" stop-color="#0080FF"/></linearGradient><path class="st16" d="M144.6 136.1V67.5"/><linearGradient id="SVGID_16_" gradientUnits="userSpaceOnUse" x1="44.534" y1="41.395" x2="73.367" y2="58.042"><stop offset="0" stop-color="#0080FF"/><stop offset=".02" stop-color="#0089F2"/><stop offset=".078" stop-color="#00A1D2"/><stop offset=".14" stop-color="#00B4B7"/><stop offset=".208" stop-color="#00C3A2"/><stop offset=".284" stop-color="#00CE93"/><stop offset=".375" stop-color="#00D48B"/><stop offset=".519" stop-color="#00D688"/><stop offset=".625" stop-color="#00D48B"/><stop offset=".711" stop-color="#00CC95"/><stop offset=".79" stop-color="#00C0A6"/><stop offset=".865" stop-color="#00AFBE"/><stop offset=".937" stop-color="#09D"/><stop offset="1" stop-color="#0080FF"/></linearGradient><path class="st17" d="M87.1 32.5L30.8 67"/><linearGradient id="SVGID_17_" gradientUnits="userSpaceOnUse" x1="1.91" y1="142.419" x2="43.146" y2="118.611"><stop offset="0" stop-color="#00D688"/><stop offset=".16" stop-color="#00D48B"/><stop offset=".271" stop-color="#00CD94"/><stop offset=".368" stop-color="#00C2A3"/><stop offset=".456" stop-color="#00B2B9"/><stop offset=".538" stop-color="#009ED5"/><stop offset=".615" stop-color="#0085F8"/><stop offset=".63" stop-color="#0080FF"/></linearGradient><path class="st18" d="M12.7 159.1l31.9-19.8c2.4-1.5 3.9-4.2 3.9-7.1 0-2.9-1.5-5.6-3.9-7.1l-26-15.4"/><linearGradient id="SVGID_18_" gradientUnits="userSpaceOnUse" x1="148.486" y1="134.802" x2="148.486" y2="80.302"><stop offset="0" stop-color="#00D688"/><stop offset=".086" stop-color="#00D48B"/><stop offset=".138" stop-color="#00CE93"/><stop offset=".182" stop-color="#00C4A1"/><stop offset=".22" stop-color="#00B5B6"/><stop offset=".255" stop-color="#00A2D0"/><stop offset=".287" stop-color="#008BF0"/><stop offset=".3" stop-color="#0080FF"/></linearGradient><path class="st19" d="M168.1 133.8l-35.3-21.5c-2.4-1.5-3.9-4.2-3.9-7.1s1.5-5.6 3.9-7.1l27.8-16.9"/><linearGradient id="SVGID_19_" gradientUnits="userSpaceOnUse" x1="26.65" y1="43.327" x2="73.117" y2="43.327"><stop offset="0" stop-color="#00D688"/><stop offset=".183" stop-color="#00D48B"/><stop offset=".295" stop-color="#00CE93"/><stop offset=".387" stop-color="#00C4A1"/><stop offset=".468" stop-color="#00B5B6"/><stop offset=".543" stop-color="#00A2D0"/><stop offset=".612" stop-color="#008BF0"/><stop offset=".639" stop-color="#0080FF"/></linearGradient><path class="st20" d="M27.7 42.4l31.8 19.7c2.6 1.6 5.8 1.7 8.4.2 2.6-1.5 4.3-4.3 4.3-7.3V23.3"/></svg>