<svg id="Layer_1" xmlns="http://www.w3.org/2000/svg" viewBox="0 0 52 52"><style>.st0{fill:none;stroke:#0072FF;stroke-width:2;stroke-linecap:round;stroke-linejoin:round;stroke-miterlimit:10;} .st1{fill:#FFFFFF;stroke:#000000;stroke-width:2;stroke-linecap:round;stroke-linejoin:round;stroke-miterlimit:10;} .st2{fill:none;stroke:#00D688;stroke-width:2;stroke-linecap:round;stroke-miterlimit:10;}</style><path class="st0" d="M23.1 1v50M28.9 1v50M34.7 1v50M17.3 1v50"/><g><path class="st0" d="M1 28.9h50M1 23.1h50M1 17.3h50M1 34.7h50"/></g><g><path class="st1" d="M11.7 9h28c1.5 0 2.7 1.2 2.7 2.7v28c0 1.5-1.2 2.7-2.7 2.7h-28c-1.5 0-2.7-1.2-2.7-2.7v-28C9 10.3 10.2 9 11.7 9z"/></g><g><path class="st2" d="M18.4 17.2H33c.8 0 1.4.6 1.4 1.4v14.5c0 .8-.6 1.4-1.4 1.4H18.4c-.8 0-1.4-.6-1.4-1.4V18.6c0-.9.6-1.4 1.4-1.4z"/></g></svg>