<svg id="Layer_1" xmlns="http://www.w3.org/2000/svg" viewBox="0 0 51.6 40.1"><style>.st0{fill:none;stroke:#000000;stroke-width:2.5;stroke-linecap:round;stroke-linejoin:round;} .st1{fill:none;stroke:#000000;stroke-width:2.5;stroke-linecap:round;stroke-linejoin:round;stroke-dasharray:0,3.9441;} .st2{opacity:0.75;fill:#FFFFFF;enable-background:new ;} .st3{fill:none;stroke:#0072FF;stroke-width:2;stroke-linejoin:round;stroke-miterlimit:10;} .st4{fill:none;stroke:#00D688;stroke-width:2;stroke-linecap:round;stroke-linejoin:round;stroke-miterlimit:10;}</style><path class="st0" d="M15.8 1.3L15.8 1.3"/><path class="st1" d="M18.3,4.3c4,4.9,11.3,14.7,11.3,19.6c0,7.9-6.3,14.2-14.2,14.2c-7.9,0-14.1-6.3-14.1-14.2 c0-6.1,9.6-17.2,13.2-21.2"/><path class="st2" d="M9.7,24.3c0-8.5,15.4-24.1,15.4-24.1s15.5,15.6,15.5,24.1s-7,15.5-15.5,15.5S9.7,32.8,9.7,24.3z"/><path class="st3" d="M10.2,24.2C10.2,16,25,1,25,1s14.9,15,14.9,23.2S33.2,39.1,25,39.1S10.2,32.3,10.2,24.2z"/><path class="st2" d="M20.2,24.3c0-8.5,15.5-24.1,15.5-24.1s15.5,15.6,15.5,24.1s-7,15.5-15.5,15.5S20.2,32.8,20.2,24.3z"/><path class="st4" d="M20.9,24.2C20.9,16,35.7,1,35.7,1s14.9,15,14.9,23.2s-6.7,14.9-14.9,14.9S20.9,32.3,20.9,24.2z"/></svg>