<svg id="Layer_1" xmlns="http://www.w3.org/2000/svg" viewBox="0 0 201.2 125"><style>.st0{fill:url(#SVGID_1_);} .st1{fill:url(#SVGID_2_);} .st2{fill:none;stroke:#0069FF;stroke-width:2;stroke-miterlimit:10;} .st3{fill:url(#SVGID_3_);} .st4{fill:url(#SVGID_4_);} .st5{opacity:0.52;fill:url(#SVGID_5_);enable-background:new ;} .st6{opacity:0.52;fill:url(#SVGID_6_);enable-background:new ;} .st7{fill:none;stroke:#0069FF;stroke-width:2.5;stroke-miterlimit:10;} .st8{fill:url(#SVGID_7_);} .st9{opacity:0.52;fill:url(#SVGID_8_);enable-background:new ;} .st10{fill:none;stroke:url(#SVGID_9_);stroke-width:2;stroke-linecap:round;stroke-miterlimit:10;} .st11{fill:none;stroke:url(#SVGID_10_);stroke-width:2;stroke-linecap:round;stroke-miterlimit:10;stroke-dasharray:0,4.8899;} .st12{fill:none;stroke:url(#SVGID_11_);stroke-width:2;stroke-linecap:round;stroke-miterlimit:10;} .st13{fill:none;stroke:url(#SVGID_12_);stroke-width:2;stroke-linecap:round;stroke-miterlimit:10;} .st14{fill:none;stroke:url(#SVGID_13_);stroke-width:2;stroke-linecap:round;stroke-miterlimit:10;stroke-dasharray:0,5.0153;} .st15{fill:none;stroke:url(#SVGID_14_);stroke-width:2;stroke-linecap:round;stroke-miterlimit:10;} .st16{fill:none;stroke:#00D688;stroke-width:2;stroke-linecap:round;stroke-miterlimit:10;stroke-dasharray:0,5;} .st17{fill:none;stroke:#00D688;stroke-width:2;stroke-linecap:round;stroke-miterlimit:10;}</style><linearGradient id="SVGID_1_" gradientUnits="userSpaceOnUse" x1="140.695" y1="65.394" x2="192.718" y2="34.898" gradientTransform="matrix(1 0 0 -1 0 115.403)"><stop offset="0" stop-color="#005AFF" stop-opacity=".3"/><stop offset="1" stop-color="#005AFF" stop-opacity="0"/></linearGradient><path class="st0" d="M193.8,70.4c0,16.8-13.6,30.4-30.4,30.4s-30.4-13.7-30.4-30.4s30.4-49.3,30.4-49.3S193.8,53.7,193.8,70.4z"/><linearGradient id="SVGID_2_" gradientUnits="userSpaceOnUse" x1="6.552" y1="23.309" x2="21.088" y2="14.917" gradientTransform="matrix(1 0 0 -1 0 115.403)"><stop offset="0" stop-color="#0069FF"/><stop offset="1" stop-color="#0069FF" stop-opacity=".1"/></linearGradient><path class="st1" d="M21.4,97.8c0,4.7-3.8,8.5-8.5,8.5s-8.5-3.8-8.5-8.5c0-4.7,8.5-13.8,8.5-13.8S21.4,93.1,21.4,97.8z"/><path class="st2" d="M97.2,85.4c0,11.5-9.3,20.8-20.8,20.8s-20.8-9.3-20.8-20.8s20.8-33.8,20.8-33.8S97.2,73.9,97.2,85.4z"/><linearGradient id="SVGID_3_" gradientUnits="userSpaceOnUse" x1="64.739" y1="40.368" x2="91.427" y2="24.96" gradientTransform="matrix(1 0 0 -1 0 115.403)"><stop offset="0" stop-color="#005AFF" stop-opacity=".3"/><stop offset="1" stop-color="#005AFF" stop-opacity="0"/></linearGradient><path class="st3" d="M91.9,85.4c0,8.6-7,15.6-15.6,15.6s-15.6-7-15.6-15.6s15.6-25.3,15.6-25.3S91.9,76.8,91.9,85.4z"/><linearGradient id="SVGID_4_" gradientUnits="userSpaceOnUse" x1="68.624" y1="36.631" x2="86.31" y2="26.419" gradientTransform="matrix(1 0 0 -1 0 115.403)"><stop offset="0" stop-color="#0069FF"/><stop offset="1" stop-color="#0069FF" stop-opacity=".1"/></linearGradient><path class="st4" d="M86.7,85.6c0,5.7-4.6,10.4-10.4,10.4S66,91.4,66,85.6c0-5.7,10.4-16.8,10.4-16.8S86.7,80,86.7,85.6z"/><linearGradient id="SVGID_5_" gradientUnits="userSpaceOnUse" x1="3.216" y1="1.211" x2="23.287" y2="-10.377" gradientTransform="matrix(1 0 0 -1 0 115.403)"><stop offset="0" stop-color="#0069FF"/><stop offset=".063" stop-color="#0069FF"/><stop offset=".21" stop-color="#5794FF"/><stop offset=".357" stop-color="#8BB5FF"/><stop offset=".499" stop-color="#B4D0FF"/><stop offset=".637" stop-color="#D5E4FF"/><stop offset=".769" stop-color="#ECF3FF"/><stop offset=".893" stop-color="#FAFCFF"/><stop offset="1" stop-color="#FFF"/></linearGradient><ellipse class="st5" cx="13.2" cy="120" rx="13.2" ry="2.9"/><linearGradient id="SVGID_6_" gradientUnits="userSpaceOnUse" x1="60.695" y1="4.178" x2="90.928" y2="-13.277" gradientTransform="matrix(1 0 0 -1 0 115.403)"><stop offset="0" stop-color="#0069FF"/><stop offset=".063" stop-color="#0069FF"/><stop offset=".21" stop-color="#5794FF"/><stop offset=".357" stop-color="#8BB5FF"/><stop offset=".499" stop-color="#B4D0FF"/><stop offset=".637" stop-color="#D5E4FF"/><stop offset=".769" stop-color="#ECF3FF"/><stop offset=".893" stop-color="#FAFCFF"/><stop offset="1" stop-color="#FFF"/></linearGradient><ellipse class="st6" cx="75.8" cy="120" rx="20" ry="4.3"/><path class="st7" d="M200,69.9c0,20.1-16.3,36.3-36.3,36.3S127.1,90,127.1,69.9s36.3-59.2,36.3-59.2S200,49.8,200,69.9z"/><linearGradient id="SVGID_7_" gradientUnits="userSpaceOnUse" x1="145.092" y1="61.328" x2="187.386" y2="36.909" gradientTransform="matrix(1 0 0 -1 0 115.403)"><stop offset="0" stop-color="#0069FF"/><stop offset="1" stop-color="#0069FF" stop-opacity=".1"/></linearGradient><path class="st8" d="M188.3,70.5c0,13.7-11.1,24.7-24.7,24.7s-24.7-11.1-24.7-24.7s24.7-40.1,24.7-40.1S188.3,56.9,188.3,70.5z"/><linearGradient id="SVGID_8_" gradientUnits="userSpaceOnUse" x1="141.045" y1="8.063" x2="186.913" y2="-18.419" gradientTransform="matrix(1 0 0 -1 0 115.403)"><stop offset="0" stop-color="#0069FF"/><stop offset=".063" stop-color="#0069FF"/><stop offset=".21" stop-color="#5794FF"/><stop offset=".357" stop-color="#8BB5FF"/><stop offset=".499" stop-color="#B4D0FF"/><stop offset=".637" stop-color="#D5E4FF"/><stop offset=".769" stop-color="#ECF3FF"/><stop offset=".893" stop-color="#FAFCFF"/><stop offset="1" stop-color="#FFF"/></linearGradient><ellipse class="st9" cx="164" cy="120.6" rx="30.5" ry="4.4"/><linearGradient id="SVGID_9_" gradientUnits="userSpaceOnUse" x1="11.813" y1="38.278" x2="59.313" y2="38.278" gradientTransform="matrix(1 0 0 -1 0 115.403)"><stop offset="0" stop-color="#0069FF"/><stop offset=".06" stop-color="#0092E6"/><stop offset=".146" stop-color="#00A7C9"/><stop offset=".242" stop-color="#00B8B1"/><stop offset=".352" stop-color="#00C69F"/><stop offset=".481" stop-color="#00CF92"/><stop offset=".649" stop-color="#00D48A"/><stop offset="1" stop-color="#00D688"/></linearGradient><path class="st10" d="M12.8 77.1L12.8 77.1"/><linearGradient id="SVGID_10_" gradientUnits="userSpaceOnUse" x1="11.775" y1="55.869" x2="62.744" y2="55.869" gradientTransform="matrix(1 0 0 -1 0 115.403)"><stop offset="0" stop-color="#0069FF"/><stop offset=".06" stop-color="#0092E6"/><stop offset=".146" stop-color="#00A7C9"/><stop offset=".242" stop-color="#00B8B1"/><stop offset=".352" stop-color="#00C69F"/><stop offset=".481" stop-color="#00CF92"/><stop offset=".649" stop-color="#00D48A"/><stop offset="1" stop-color="#00D688"/></linearGradient><path class="st11" d="M12.8,71.8V59.1c0-6.6,5.2-11.8,11.8-11.8h34.6"/><linearGradient id="SVGID_11_" gradientUnits="userSpaceOnUse" x1="14.244" y1="68.12" x2="61.744" y2="68.12" gradientTransform="matrix(1 0 0 -1 0 115.403)"><stop offset="0" stop-color="#0069FF"/><stop offset=".06" stop-color="#0092E6"/><stop offset=".146" stop-color="#00A7C9"/><stop offset=".242" stop-color="#00B8B1"/><stop offset=".352" stop-color="#00C69F"/><stop offset=".481" stop-color="#00CF92"/><stop offset=".649" stop-color="#00D48A"/><stop offset="1" stop-color="#00D688"/></linearGradient><path class="st12" d="M60.7 47.3L60.7 47.3"/><g><linearGradient id="SVGID_12_" gradientUnits="userSpaceOnUse" x1="81.522" y1="108.225" x2="150.522" y2="108.225" gradientTransform="matrix(1 0 0 -1 0 115.403)"><stop offset="0" stop-color="#0069FF"/><stop offset=".06" stop-color="#0092E6"/><stop offset=".146" stop-color="#00A7C9"/><stop offset=".242" stop-color="#00B8B1"/><stop offset=".352" stop-color="#00C69F"/><stop offset=".481" stop-color="#00CF92"/><stop offset=".649" stop-color="#00D48A"/><stop offset="1" stop-color="#00D688"/></linearGradient><path class="st13" d="M149.5 7.2L149.5 7.2"/><linearGradient id="SVGID_13_" gradientUnits="userSpaceOnUse" x1="76.382" y1="91.838" x2="150.491" y2="91.838" gradientTransform="matrix(1 0 0 -1 0 115.403)"><stop offset="0" stop-color="#0069FF"/><stop offset=".06" stop-color="#0092E6"/><stop offset=".146" stop-color="#00A7C9"/><stop offset=".242" stop-color="#00B8B1"/><stop offset=".352" stop-color="#00C69F"/><stop offset=".481" stop-color="#00CF92"/><stop offset=".649" stop-color="#00D48A"/><stop offset="1" stop-color="#00D688"/></linearGradient><path class="st14" d="M144.1,7.2H89.2c-6.6,0-11.8,5.2-11.8,11.8V40"/><linearGradient id="SVGID_14_" gradientUnits="userSpaceOnUse" x1="76.4" y1="72.728" x2="145.4" y2="72.728" gradientTransform="matrix(1 0 0 -1 0 115.403)"><stop offset="0" stop-color="#0069FF"/><stop offset=".06" stop-color="#0092E6"/><stop offset=".146" stop-color="#00A7C9"/><stop offset=".242" stop-color="#00B8B1"/><stop offset=".352" stop-color="#00C69F"/><stop offset=".481" stop-color="#00CF92"/><stop offset=".649" stop-color="#00D48A"/><stop offset="1" stop-color="#00D688"/></linearGradient><path class="st15" d="M77.4 42.7L77.4 42.7"/></g><path class="st16" d="M30.6 104L53.2 104M102.7 104L126.4 104"/><path class="st17" d="M149 1L156.5 6.7 148.9 13.1M62.1 41.7L69 47.1 62 53"/></svg>