<svg id="Layer_1" xmlns="http://www.w3.org/2000/svg" viewBox="0 0 50 58.3"><style>.st0{fill:none;stroke:#0072FF;stroke-width:2;stroke-linejoin:round;stroke-miterlimit:10;} .st1{fill:#FFFFFF;stroke:#0072FF;stroke-width:2;stroke-linejoin:round;stroke-miterlimit:10;} .st2{fill:none;stroke:#00D688;stroke-width:2;stroke-linecap:round;stroke-linejoin:round;stroke-miterlimit:10;}</style><path class="st0" d="M25.1 3.1L25 28.3M2.9 45.2l22.6-13.3M47.2 45.6l-22-13.3"/><circle cx="25" cy="2.8" r="2.8"/><ellipse transform="rotate(-30 2.815 44.83)" cx="2.8" cy="44.8" rx="2.8" ry="2.8"/><ellipse transform="rotate(-59 47.184 44.84)" cx="47.2" cy="44.8" rx="2.8" ry="2.8"/><path class="st1" d="M13.1 31.4c0 6.7 5.3 12 12 12s12-5.3 12-12c0-7.2-12-17.5-12-17.5s-12 10.8-12 17.5z"/><path class="st2" d="M32 28l15.4-8.9"/><ellipse transform="rotate(-30 47.853 18.47)" cx="47.9" cy="18.5" rx="2.1" ry="2.1"/><path class="st2" d="M25 38.5l-.1 18.2M17.8 27.7L3 18.9"/><circle cx="25" cy="56.2" r="2.1"/><ellipse transform="rotate(-59 2.433 18.49)" cx="2.4" cy="18.5" rx="2.3" ry="2.3"/></svg>