<svg id="Layer_1" xmlns="http://www.w3.org/2000/svg" xmlns:xlink="http://www.w3.org/1999/xlink" viewBox="0 0 2000 500"><style>.st0{opacity:0.7;clip-path:url(#SVGID_2_);} .st1{fill:url(#SVGID_3_);} .st2{fill:none;stroke:#FFFFFF;stroke-miterlimit:10;} .st3{opacity:0.5;clip-path:url(#SVGID_2_);} .st4{fill:url(#SVGID_4_);} .st5{opacity:0.6;clip-path:url(#SVGID_2_);} .st6{fill:url(#SVGID_5_);} .st7{opacity:0.6;clip-path:url(#SVGID_2_);fill:none;stroke:url(#SVGID_6_);stroke-width:2;stroke-linecap:round;stroke-miterlimit:10;stroke-dasharray:0,5;} .st8{opacity:0.7;clip-path:url(#SVGID_2_);fill:none;stroke:url(#SVGID_7_);stroke-width:2;stroke-linecap:round;stroke-miterlimit:10;stroke-dasharray:0,5;} .st9{opacity:0.5;clip-path:url(#SVGID_2_);fill:none;stroke:url(#SVGID_8_);stroke-width:2;stroke-linecap:round;stroke-miterlimit:10;stroke-dasharray:0,5;} .st10{opacity:0.8;clip-path:url(#SVGID_2_);} .st11{fill:url(#SVGID_9_);} .st12{opacity:0.8;clip-path:url(#SVGID_2_);fill:none;stroke:url(#SVGID_10_);stroke-width:2;stroke-linecap:round;stroke-miterlimit:10;stroke-dasharray:0,5;} .st13{opacity:0.15;clip-path:url(#SVGID_2_);} .st14{fill:url(#SVGID_11_);} .st15{opacity:0.15;clip-path:url(#SVGID_2_);fill:none;stroke:url(#SVGID_12_);stroke-width:2;stroke-linecap:round;stroke-miterlimit:10;stroke-dasharray:0,5;} .st16{fill:url(#SVGID_13_);} .st17{opacity:0.15;clip-path:url(#SVGID_2_);fill:none;stroke:url(#SVGID_14_);stroke-width:2;stroke-linecap:round;stroke-miterlimit:10;stroke-dasharray:0,5;} .st18{clip-path:url(#SVGID_2_);} .st19{fill:url(#SVGID_15_);} .st20{clip-path:url(#SVGID_2_);fill:none;stroke:url(#SVGID_16_);stroke-width:2;stroke-linecap:round;stroke-miterlimit:10;stroke-dasharray:0,5;} .st21{fill:url(#SVGID_17_);} .st22{opacity:0.5;clip-path:url(#SVGID_2_);fill:none;stroke:url(#SVGID_18_);stroke-width:2;stroke-linecap:round;stroke-miterlimit:10;stroke-dasharray:0,5;} .st23{fill:url(#SVGID_19_);} .st24{fill:url(#SVGID_20_);} .st25{opacity:0.7;clip-path:url(#SVGID_2_);fill:none;stroke:url(#SVGID_21_);stroke-width:2;stroke-linecap:round;stroke-miterlimit:10;stroke-dasharray:0,5;} .st26{opacity:0.5;clip-path:url(#SVGID_2_);fill:none;stroke:url(#SVGID_22_);stroke-width:2;stroke-linecap:round;stroke-miterlimit:10;stroke-dasharray:0,5;} .st27{fill:url(#SVGID_23_);} .st28{opacity:0.8;clip-path:url(#SVGID_2_);fill:none;stroke:url(#SVGID_24_);stroke-width:2;stroke-linecap:round;stroke-miterlimit:10;stroke-dasharray:0,5;} .st29{fill:url(#SVGID_25_);} .st30{opacity:0.15;clip-path:url(#SVGID_2_);fill:none;stroke:url(#SVGID_26_);stroke-width:2;stroke-linecap:round;stroke-miterlimit:10;stroke-dasharray:0,5;} .st31{fill:url(#SVGID_27_);} .st32{opacity:0.15;clip-path:url(#SVGID_2_);fill:none;stroke:url(#SVGID_28_);stroke-width:2;stroke-linecap:round;stroke-miterlimit:10;stroke-dasharray:0,5;} .st33{fill:url(#SVGID_29_);} .st34{clip-path:url(#SVGID_2_);fill:none;stroke:url(#SVGID_30_);stroke-width:2;stroke-linecap:round;stroke-miterlimit:10;stroke-dasharray:0,5;} .st35{fill:url(#SVGID_31_);} .st36{opacity:0.5;clip-path:url(#SVGID_2_);fill:none;stroke:url(#SVGID_32_);stroke-width:2;stroke-linecap:round;stroke-miterlimit:10;stroke-dasharray:0,5;} .st37{fill:url(#SVGID_33_);} .st38{opacity:0.6;clip-path:url(#SVGID_2_);fill:none;stroke:url(#SVGID_34_);stroke-width:2;stroke-linecap:round;stroke-miterlimit:10;stroke-dasharray:0,5;} .st39{opacity:0.55;clip-path:url(#SVGID_2_);} .st40{fill:url(#SVGID_35_);} .st41{opacity:0.2;clip-path:url(#SVGID_2_);} .st42{fill:url(#SVGID_36_);} .st43{opacity:0.55;clip-path:url(#SVGID_2_);fill:none;stroke:url(#SVGID_37_);stroke-width:2;stroke-linecap:round;stroke-miterlimit:10;stroke-dasharray:0,5;} .st44{fill:url(#SVGID_38_);} .st45{opacity:0.15;clip-path:url(#SVGID_2_);fill:none;stroke:url(#SVGID_39_);stroke-width:2;stroke-linecap:round;stroke-miterlimit:10;stroke-dasharray:0,5;} .st46{opacity:0.2;clip-path:url(#SVGID_2_);fill:none;stroke:url(#SVGID_40_);stroke-width:2;stroke-linecap:round;stroke-miterlimit:10;stroke-dasharray:0,5;} .st47{opacity:0.3;clip-path:url(#SVGID_2_);} .st48{fill:url(#SVGID_41_);} .st49{opacity:0.3;clip-path:url(#SVGID_2_);fill:none;stroke:url(#SVGID_42_);stroke-width:2;stroke-linecap:round;stroke-miterlimit:10;stroke-dasharray:0,5;} .st50{fill:url(#SVGID_43_);} .st51{opacity:0.15;clip-path:url(#SVGID_2_);fill:none;stroke:url(#SVGID_44_);stroke-width:2;stroke-linecap:round;stroke-miterlimit:10;stroke-dasharray:0,5;} .st52{opacity:0.1;clip-path:url(#SVGID_2_);} .st53{fill:url(#SVGID_45_);} .st54{opacity:0.1;clip-path:url(#SVGID_2_);fill:none;stroke:url(#SVGID_46_);stroke-width:2;stroke-linecap:round;stroke-miterlimit:10;stroke-dasharray:0,5;} .st55{opacity:0.4;clip-path:url(#SVGID_2_);} .st56{fill:url(#SVGID_47_);} .st57{opacity:0.4;clip-path:url(#SVGID_2_);fill:none;stroke:url(#SVGID_48_);stroke-width:2;stroke-linecap:round;stroke-miterlimit:10;stroke-dasharray:0,5;} .st58{fill:url(#SVGID_49_);} .st59{fill:url(#SVGID_50_);} .st60{opacity:0.55;clip-path:url(#SVGID_2_);fill:none;stroke:url(#SVGID_51_);stroke-width:2;stroke-linecap:round;stroke-miterlimit:10;stroke-dasharray:0,5;} .st61{fill:url(#SVGID_52_);} .st62{opacity:0.15;clip-path:url(#SVGID_2_);fill:none;stroke:url(#SVGID_53_);stroke-width:2;stroke-linecap:round;stroke-miterlimit:10;stroke-dasharray:0,5;} .st63{opacity:0.2;clip-path:url(#SVGID_2_);fill:none;stroke:url(#SVGID_54_);stroke-width:2;stroke-linecap:round;stroke-miterlimit:10;stroke-dasharray:0,5;} .st64{fill:url(#SVGID_55_);} .st65{opacity:0.3;clip-path:url(#SVGID_2_);fill:none;stroke:url(#SVGID_56_);stroke-width:2;stroke-linecap:round;stroke-miterlimit:10;stroke-dasharray:0,5;} .st66{fill:url(#SVGID_57_);} .st67{opacity:0.15;clip-path:url(#SVGID_2_);fill:none;stroke:url(#SVGID_58_);stroke-width:2;stroke-linecap:round;stroke-miterlimit:10;stroke-dasharray:0,5;} .st68{fill:url(#SVGID_59_);} .st69{opacity:0.1;clip-path:url(#SVGID_2_);fill:none;stroke:url(#SVGID_60_);stroke-width:2;stroke-linecap:round;stroke-miterlimit:10;stroke-dasharray:0,5;} .st70{fill:url(#SVGID_61_);} .st71{opacity:0.4;clip-path:url(#SVGID_2_);fill:none;stroke:url(#SVGID_62_);stroke-width:2;stroke-linecap:round;stroke-miterlimit:10;stroke-dasharray:0,5;} .st72{fill:url(#SVGID_63_);} .st73{opacity:0.6;clip-path:url(#SVGID_2_);fill:none;stroke:url(#SVGID_64_);stroke-width:2;stroke-linecap:round;stroke-miterlimit:10;stroke-dasharray:0,5;} .st74{fill:url(#SVGID_65_);} .st75{opacity:0.6;clip-path:url(#SVGID_2_);fill:none;stroke:url(#SVGID_66_);stroke-width:2;stroke-linecap:round;stroke-miterlimit:10;stroke-dasharray:0,5;} .st76{fill:url(#SVGID_67_);} .st77{opacity:0.8;clip-path:url(#SVGID_2_);fill:none;stroke:url(#SVGID_68_);stroke-width:2;stroke-linecap:round;stroke-miterlimit:10;stroke-dasharray:0,5;} .st78{fill:url(#SVGID_69_);} .st79{opacity:0.3;clip-path:url(#SVGID_2_);fill:none;stroke:url(#SVGID_70_);stroke-width:2;stroke-linecap:round;stroke-miterlimit:10;stroke-dasharray:0,5;} .st80{fill:url(#SVGID_71_);} .st81{opacity:0.3;clip-path:url(#SVGID_2_);fill:none;stroke:url(#SVGID_72_);stroke-width:2;stroke-linecap:round;stroke-miterlimit:10;stroke-dasharray:0,5;}</style><defs><path id="SVGID_1_" d="M0 0H2000V500H0z"/></defs><clipPath id="SVGID_2_"><use xlink:href="#SVGID_1_" overflow="visible"/></clipPath><g class="st0"><linearGradient id="SVGID_3_" gradientUnits="userSpaceOnUse" x1="647.462" y1="378.098" x2="698.91" y2="412.727"><stop offset="0" stop-color="#FFF"/><stop offset="1" stop-color="#FFF" stop-opacity=".2"/></linearGradient><path class="st1" d="M638.5,399.1c0-24,32.1-49.6,32.1-49.6s32.1,26.4,32.1,49.6c0,17.7-14.4,32.1-32.1,32.1 C652.9,431.2,638.5,416.9,638.5,399.1z"/><path class="st2" d="M633.6,399.3c0-27.8,37.1-57.3,37.1-57.3s37.1,30.5,37.1,57.3c0,20.5-16.6,37.1-37.1,37.1 C650.2,436.3,633.6,419.7,633.6,399.3z"/></g><g class="st3"><linearGradient id="SVGID_4_" gradientUnits="userSpaceOnUse" x1="541.852" y1="373.757" x2="567.99" y2="391.351"><stop offset="0" stop-color="#FFF"/><stop offset="1" stop-color="#FFF" stop-opacity=".2"/></linearGradient><path class="st4" d="M537.3,384.5c0-12.2,16.3-25.2,16.3-25.2s16.3,13.4,16.3,25.2c0,9-7.3,16.3-16.3,16.3 C544.6,400.8,537.3,393.5,537.3,384.5z"/><path class="st2" d="M533.1,384.4c0-15.4,20.6-31.8,20.6-31.8s20.6,16.9,20.6,31.8c0,11.4-9.2,20.6-20.6,20.6 S533.1,395.8,533.1,384.4z"/></g><g class="st5"><linearGradient id="SVGID_5_" gradientUnits="userSpaceOnUse" x1="477.553" y1="291.259" x2="519.91" y2="319.769"><stop offset="0" stop-color="#FFF"/><stop offset="1" stop-color="#FFF" stop-opacity=".2"/></linearGradient><path class="st6" d="M470.2,308.6c0-19.8,26.4-40.8,26.4-40.8s26.4,21.7,26.4,40.8c0,14.6-11.8,26.4-26.4,26.4 C482,335,470.2,323.2,470.2,308.6z"/><path class="st2" d="M465.5,308.8c0-23.3,31.2-48.2,31.2-48.2s31.2,25.7,31.2,48.2c0,17.2-14,31.2-31.2,31.2 C479.4,340,465.5,326,465.5,308.8z"/></g><linearGradient id="SVGID_6_" gradientUnits="userSpaceOnUse" x1="496" y1="42" x2="496" y2="255"><stop offset="0" stop-color="#FFF" stop-opacity="0"/><stop offset="1" stop-color="#FFF"/></linearGradient><path class="st7" d="M496 43L496 254"/><linearGradient id="SVGID_7_" gradientUnits="userSpaceOnUse" x1="670" y1="176" x2="670" y2="338"><stop offset="0" stop-color="#FFF" stop-opacity="0"/><stop offset="1" stop-color="#FFF"/></linearGradient><path class="st8" d="M670 177L670 337"/><linearGradient id="SVGID_8_" gradientUnits="userSpaceOnUse" x1="554" y1="107" x2="554" y2="348"><stop offset="0" stop-color="#FFF" stop-opacity="0"/><stop offset="1" stop-color="#FFF"/></linearGradient><path class="st9" d="M554 108L554 347"/><g class="st10"><linearGradient id="SVGID_9_" gradientUnits="userSpaceOnUse" x1="556.372" y1="468.812" x2="633.214" y2="520.533"><stop offset="0" stop-color="#FFF"/><stop offset="1" stop-color="#FFF" stop-opacity=".2"/></linearGradient><path class="st11" d="M552.7,506.7c0-35.9,47.9-74.1,47.9-74.1s47.9,39.4,47.9,74.1c0,26.5-21.5,47.9-47.9,47.9 C574.2,554.7,552.7,533.2,552.7,506.7z"/><path class="st2" d="M546.8,507.2c0-40.3,53.8-83.2,53.8-83.2s53.8,44.3,53.8,83.2c0,29.7-24.1,53.8-53.8,53.8 C570.9,561,546.8,536.9,546.8,507.2z"/></g><linearGradient id="SVGID_10_" gradientUnits="userSpaceOnUse" x1="600" y1="167" x2="600" y2="419"><stop offset="0" stop-color="#FFF" stop-opacity="0"/><stop offset="1" stop-color="#FFF"/></linearGradient><path class="st12" d="M600 168L600 418"/><g class="st13"><linearGradient id="SVGID_11_" gradientUnits="userSpaceOnUse" x1="439.418" y1="256.076" x2="450.966" y2="263.848"><stop offset="0" stop-color="#FFF"/><stop offset="1" stop-color="#FFF" stop-opacity=".2"/></linearGradient><path class="st14" d="M437.4,260.8c0-5.4,7.2-11.1,7.2-11.1s7.2,5.9,7.2,11.1c0,4-3.2,7.2-7.2,7.2 C440.6,268,437.4,264.8,437.4,260.8z"/><path class="st2" d="M434.4,260.8c0-7.6,10.2-15.7,10.2-15.7s10.2,8.4,10.2,15.7c0,5.6-4.6,10.2-10.2,10.2 C439,271,434.4,266.4,434.4,260.8z"/></g><linearGradient id="SVGID_12_" gradientUnits="userSpaceOnUse" x1="445" y1="8" x2="445" y2="244"><stop offset="0" stop-color="#FFF" stop-opacity="0"/><stop offset="1" stop-color="#FFF"/></linearGradient><path class="st15" d="M445 9L445 243"/><g class="st13"><linearGradient id="SVGID_13_" gradientUnits="userSpaceOnUse" x1="783.418" y1="419.076" x2="794.966" y2="426.848"><stop offset="0" stop-color="#FFF"/><stop offset="1" stop-color="#FFF" stop-opacity=".2"/></linearGradient><path class="st16" d="M781.4,423.8c0-5.4,7.2-11.1,7.2-11.1s7.2,5.9,7.2,11.1c0,4-3.2,7.2-7.2,7.2 C784.6,431,781.4,427.8,781.4,423.8z"/><path class="st2" d="M778.4,423.8c0-7.6,10.2-15.7,10.2-15.7s10.2,8.4,10.2,15.7c0,5.6-4.6,10.2-10.2,10.2 C783,434,778.4,429.4,778.4,423.8z"/></g><linearGradient id="SVGID_14_" gradientUnits="userSpaceOnUse" x1="789" y1="344" x2="789" y2="405"><stop offset="0" stop-color="#FFF" stop-opacity="0"/><stop offset="1" stop-color="#FFF"/></linearGradient><path class="st17" d="M789 345L789 404"/><g class="st18"><linearGradient id="SVGID_15_" gradientUnits="userSpaceOnUse" x1="337.29" y1="436.914" x2="440.721" y2="506.531"><stop offset="0" stop-color="#FFF"/><stop offset="1" stop-color="#FFF" stop-opacity=".2"/></linearGradient><path class="st19" d="M330.1,497c0-57.7,77-119,77-119s77,63.4,77,119c0,42.5-34.5,77-77,77S330.1,539.5,330.1,497z"/><path class="st2" d="M322.4,497.6c0-63.5,84.7-131,84.7-131s84.7,69.8,84.7,131c0,46.8-37.9,84.7-84.7,84.7 S322.4,544.4,322.4,497.6z"/></g><linearGradient id="SVGID_16_" gradientUnits="userSpaceOnUse" x1="407" y1="-1" x2="407" y2="360"><stop offset="0" stop-color="#FFF" stop-opacity="0"/><stop offset="1" stop-color="#FFF"/></linearGradient><path class="st20" d="M407 0L407 359"/><g class="st3"><linearGradient id="SVGID_17_" gradientUnits="userSpaceOnUse" x1="723.852" y1="453.757" x2="749.99" y2="471.351"><stop offset="0" stop-color="#FFF"/><stop offset="1" stop-color="#FFF" stop-opacity=".2"/></linearGradient><path class="st21" d="M719.3,464.5c0-12.2,16.3-25.2,16.3-25.2s16.3,13.4,16.3,25.2c0,9-7.3,16.3-16.3,16.3 C726.6,480.8,719.3,473.5,719.3,464.5z"/><path class="st2" d="M715.1,464.4c0-15.4,20.6-31.8,20.6-31.8s20.6,16.9,20.6,31.8c0,11.4-9.2,20.6-20.6,20.6 S715.1,475.8,715.1,464.4z"/></g><linearGradient id="SVGID_18_" gradientUnits="userSpaceOnUse" x1="736" y1="277" x2="736" y2="428"><stop offset="0" stop-color="#FFF" stop-opacity="0"/><stop offset="1" stop-color="#FFF"/></linearGradient><path class="st22" d="M736 278L736 427"/><g class="st0"><linearGradient id="SVGID_19_" gradientUnits="userSpaceOnUse" x1="-1213.921" y1="536.163" x2="-1168.294" y2="490.536" gradientTransform="matrix(-1 0 0 1 151.17 0)"><stop offset="0" stop-color="#FFF" stop-opacity=".2"/><stop offset="1" stop-color="#FFF"/></linearGradient><path class="st23" d="M1374.6,516.1c0-24-32.1-49.6-32.1-49.6s-32.1,26.4-32.1,49.6c0,17.7,14.4,32.1,32.1,32.1 C1360.3,548.2,1374.6,533.9,1374.6,516.1z"/><path class="st2" d="M1379.6,516.3c0-27.8-37.1-57.3-37.1-57.3s-37.1,30.5-37.1,57.3c0,20.5,16.6,37.1,37.1,37.1 C1363,553.3,1379.6,536.7,1379.6,516.3z"/></g><g class="st3"><linearGradient id="SVGID_20_" gradientUnits="userSpaceOnUse" x1="-1369.835" y1="333.621" x2="-1346.653" y2="310.44" gradientTransform="matrix(-1 0 0 1 151.17 0)"><stop offset="0" stop-color="#FFF" stop-opacity=".2"/><stop offset="1" stop-color="#FFF"/></linearGradient><path class="st24" d="M1525.9,323.5c0-12.2-16.3-25.2-16.3-25.2s-16.3,13.4-16.3,25.2c0,9,7.3,16.3,16.3,16.3 C1518.6,339.8,1525.9,332.5,1525.9,323.5z"/><path class="st2" d="M1530.1,323.4c0-15.4-20.6-31.8-20.6-31.8s-20.6,16.9-20.6,31.8c0,11.4,9.2,20.6,20.6,20.6 S1530.1,334.8,1530.1,323.4z"/></g><linearGradient id="SVGID_21_" gradientUnits="userSpaceOnUse" x1="-1191.829" y1="171" x2="-1191.829" y2="455" gradientTransform="matrix(-1 0 0 1 151.17 0)"><stop offset="0" stop-color="#FFF" stop-opacity="0"/><stop offset="1" stop-color="#FFF"/></linearGradient><path class="st25" d="M1343 172L1343 454"/><linearGradient id="SVGID_22_" gradientUnits="userSpaceOnUse" x1="-1357.829" y1="10" x2="-1357.829" y2="287" gradientTransform="matrix(-1 0 0 1 151.17 0)"><stop offset="0" stop-color="#FFF" stop-opacity="0"/><stop offset="1" stop-color="#FFF"/></linearGradient><path class="st26" d="M1509 11L1509 286"/><g class="st10"><linearGradient id="SVGID_23_" gradientUnits="userSpaceOnUse" x1="-1303.045" y1="437.649" x2="-1234.897" y2="369.501" gradientTransform="matrix(-1 0 0 1 151.17 0)"><stop offset="0" stop-color="#FFF" stop-opacity=".2"/><stop offset="1" stop-color="#FFF"/></linearGradient><path class="st27" d="M1468.5,407.7c0-35.9-47.9-74.1-47.9-74.1s-47.9,39.4-47.9,74.1c0,26.5,21.5,47.9,47.9,47.9 C1447,455.7,1468.5,434.2,1468.5,407.7z"/><path class="st2" d="M1474.4,408.2c0-40.3-53.8-83.2-53.8-83.2s-53.8,44.3-53.8,83.2c0,29.7,24.1,53.8,53.8,53.8 S1474.4,437.9,1474.4,408.2z"/></g><linearGradient id="SVGID_24_" gradientUnits="userSpaceOnUse" x1="-1269.829" y1="119" x2="-1269.829" y2="320" gradientTransform="matrix(-1 0 0 1 151.17 0)"><stop offset="0" stop-color="#FFF" stop-opacity="0"/><stop offset="1" stop-color="#FFF"/></linearGradient><path class="st28" d="M1421 120L1421 319"/><g class="st13"><linearGradient id="SVGID_25_" gradientUnits="userSpaceOnUse" x1="-1418.443" y1="282.292" x2="-1408.202" y2="272.052" gradientTransform="matrix(-1 0 0 1 151.17 0)"><stop offset="0" stop-color="#FFF" stop-opacity=".2"/><stop offset="1" stop-color="#FFF"/></linearGradient><path class="st29" d="M1571.8,277.8c0-5.4-7.2-11.1-7.2-11.1s-7.2,5.9-7.2,11.1c0,4,3.2,7.2,7.2,7.2S1571.8,281.8,1571.8,277.8z"/><path class="st2" d="M1574.7,277.8c0-7.6-10.2-15.7-10.2-15.7s-10.2,8.4-10.2,15.7c0,5.6,4.6,10.2,10.2,10.2 C1570.2,288,1574.7,283.4,1574.7,277.8z"/></g><linearGradient id="SVGID_26_" gradientUnits="userSpaceOnUse" x1="-1412.829" y1="-5" x2="-1412.829" y2="257" gradientTransform="matrix(-1 0 0 1 151.17 0)"><stop offset="0" stop-color="#FFF" stop-opacity="0"/><stop offset="1" stop-color="#FFF"/></linearGradient><path class="st30" d="M1564 -4L1564 256"/><g class="st13"><linearGradient id="SVGID_27_" gradientUnits="userSpaceOnUse" x1="-1086.443" y1="470.292" x2="-1076.202" y2="460.052" gradientTransform="matrix(-1 0 0 1 151.17 0)"><stop offset="0" stop-color="#FFF" stop-opacity=".2"/><stop offset="1" stop-color="#FFF"/></linearGradient><path class="st31" d="M1239.8,465.8c0-5.4-7.2-11.1-7.2-11.1s-7.2,5.9-7.2,11.1c0,4,3.2,7.2,7.2,7.2S1239.8,469.8,1239.8,465.8z"/><path class="st2" d="M1242.7,465.8c0-7.6-10.2-15.7-10.2-15.7s-10.2,8.4-10.2,15.7c0,5.6,4.6,10.2,10.2,10.2 C1238.2,476,1242.7,471.4,1242.7,465.8z"/></g><linearGradient id="SVGID_28_" gradientUnits="userSpaceOnUse" x1="-1080.829" y1="321" x2="-1080.829" y2="447" gradientTransform="matrix(-1 0 0 1 151.17 0)"><stop offset="0" stop-color="#FFF" stop-opacity="0"/><stop offset="1" stop-color="#FFF"/></linearGradient><path class="st32" d="M1232 322L1232 446"/><g class="st18"><linearGradient id="SVGID_29_" gradientUnits="userSpaceOnUse" x1="-1463.16" y1="507.565" x2="-1349.187" y2="393.592" gradientTransform="matrix(-1 0 0 1 151.17 0)"><stop offset="0" stop-color="#FFF" stop-opacity=".2"/><stop offset="1" stop-color="#FFF"/></linearGradient><path class="st33" d="M1721.9,511.1c0-84.5-112.9-174.5-112.9-174.5s-112.9,92.9-112.9,174.5c0,62.3,50.5,112.9,112.9,112.9 C1671.4,624,1721.9,573.5,1721.9,511.1z"/><path class="st2" d="M1730.6,511.9c0-91.1-121.6-188-121.6-188s-121.6,100.1-121.6,188c0,67.1,54.4,121.6,121.6,121.6 S1730.6,579,1730.6,511.9z"/></g><linearGradient id="SVGID_30_" gradientUnits="userSpaceOnUse" x1="-1457.829" y1="-1" x2="-1457.829" y2="318" gradientTransform="matrix(-1 0 0 1 151.17 0)"><stop offset="0" stop-color="#FFF" stop-opacity="0"/><stop offset="1" stop-color="#FFF"/></linearGradient><path class="st34" d="M1609 0L1609 317"/><g class="st3"><linearGradient id="SVGID_31_" gradientUnits="userSpaceOnUse" x1="-1152.835" y1="443.621" x2="-1129.653" y2="420.44" gradientTransform="matrix(-1 0 0 1 151.17 0)"><stop offset="0" stop-color="#FFF" stop-opacity=".2"/><stop offset="1" stop-color="#FFF"/></linearGradient><path class="st35" d="M1308.9,433.5c0-12.2-16.3-25.2-16.3-25.2s-16.3,13.4-16.3,25.2c0,9,7.3,16.3,16.3,16.3 C1301.6,449.8,1308.9,442.5,1308.9,433.5z"/><path class="st2" d="M1313.1,433.4c0-15.4-20.6-31.8-20.6-31.8s-20.6,16.9-20.6,31.8c0,11.4,9.2,20.6,20.6,20.6 S1313.1,444.8,1313.1,433.4z"/></g><linearGradient id="SVGID_32_" gradientUnits="userSpaceOnUse" x1="-1140.829" y1="229" x2="-1140.829" y2="397" gradientTransform="matrix(-1 0 0 1 151.17 0)"><stop offset="0" stop-color="#FFF" stop-opacity="0"/><stop offset="1" stop-color="#FFF"/></linearGradient><path class="st36" d="M1292 230L1292 396"/><g class="st5"><linearGradient id="SVGID_33_" gradientUnits="userSpaceOnUse" x1="1448.309" y1="215.544" x2="1482.321" y2="238.437"><stop offset="0" stop-color="#FFF"/><stop offset="1" stop-color="#FFF" stop-opacity=".2"/></linearGradient><path class="st37" d="M1442.4,229.5c0-15.9,21.2-32.8,21.2-32.8s21.2,17.5,21.2,32.8c0,11.7-9.5,21.2-21.2,21.2 C1451.9,250.7,1442.4,241.2,1442.4,229.5z"/><path class="st2" d="M1437.6,230c0-19.5,26-40.2,26-40.2s26,21.4,26,40.2c0,14.4-11.6,26-26,26 C1449.2,256,1437.6,244.4,1437.6,230z"/></g><linearGradient id="SVGID_34_" gradientUnits="userSpaceOnUse" x1="1463" y1="75" x2="1463" y2="185"><stop offset="0" stop-color="#FFF" stop-opacity="0"/><stop offset="1" stop-color="#FFF"/></linearGradient><path class="st38" d="M1463 76L1463 184"/><g class="st39"><linearGradient id="SVGID_35_" gradientUnits="userSpaceOnUse" x1="-1549.921" y1="286.163" x2="-1504.294" y2="240.536" gradientTransform="matrix(-1 0 0 1 151.17 0)"><stop offset="0" stop-color="#FFF" stop-opacity=".2"/><stop offset="1" stop-color="#FFF"/></linearGradient><path class="st40" d="M1710.6,266.1c0-24-32.1-49.6-32.1-49.6s-32.1,26.4-32.1,49.6c0,17.7,14.4,32.1,32.1,32.1 C1696.3,298.2,1710.6,283.9,1710.6,266.1z"/><path class="st2" d="M1715.6,266.3c0-27.8-37.1-57.3-37.1-57.3s-37.1,30.5-37.1,57.3c0,20.5,16.6,37.1,37.1,37.1 C1699,303.3,1715.6,286.7,1715.6,266.3z"/></g><g class="st41"><linearGradient id="SVGID_36_" gradientUnits="userSpaceOnUse" x1="-1736.835" y1="268.621" x2="-1713.653" y2="245.44" gradientTransform="matrix(-1 0 0 1 151.17 0)"><stop offset="0" stop-color="#FFF" stop-opacity=".2"/><stop offset="1" stop-color="#FFF"/></linearGradient><path class="st42" d="M1892.9,258.5c0-12.2-16.3-25.2-16.3-25.2s-16.3,13.4-16.3,25.2c0,9,7.3,16.3,16.3,16.3 C1885.6,274.8,1892.9,267.5,1892.9,258.5z"/><path class="st2" d="M1897.1,258.4c0-15.4-20.6-31.8-20.6-31.8s-20.6,16.9-20.6,31.8c0,11.4,9.2,20.6,20.6,20.6 S1897.1,269.8,1897.1,258.4z"/></g><linearGradient id="SVGID_37_" gradientUnits="userSpaceOnUse" x1="-1527.829" y1="3" x2="-1527.829" y2="205" gradientTransform="matrix(-1 0 0 1 151.17 0)"><stop offset="0" stop-color="#FFF" stop-opacity="0"/><stop offset="1" stop-color="#FFF"/></linearGradient><path class="st43" d="M1679 4L1679 204"/><g class="st13"><linearGradient id="SVGID_38_" gradientUnits="userSpaceOnUse" x1="-1794.921" y1="384.163" x2="-1749.294" y2="338.536" gradientTransform="matrix(-1 0 0 1 151.17 0)"><stop offset="0" stop-color="#FFF" stop-opacity=".2"/><stop offset="1" stop-color="#FFF"/></linearGradient><path class="st44" d="M1955.6,364.1c0-24-32.1-49.6-32.1-49.6s-32.1,26.4-32.1,49.6c0,17.7,14.4,32.1,32.1,32.1 C1941.3,396.2,1955.6,381.9,1955.6,364.1z"/><path class="st2" d="M1960.6,364.3c0-27.8-37.1-57.3-37.1-57.3s-37.1,30.5-37.1,57.3c0,20.5,16.6,37.1,37.1,37.1 C1944,401.3,1960.6,384.7,1960.6,364.3z"/></g><linearGradient id="SVGID_39_" gradientUnits="userSpaceOnUse" x1="-1772.829" y1="8" x2="-1772.829" y2="303" gradientTransform="matrix(-1 0 0 1 151.17 0)"><stop offset="0" stop-color="#FFF" stop-opacity="0"/><stop offset="1" stop-color="#FFF"/></linearGradient><path class="st45" d="M1924 9L1924 302"/><linearGradient id="SVGID_40_" gradientUnits="userSpaceOnUse" x1="-1724.829" y1="13" x2="-1724.829" y2="222" gradientTransform="matrix(-1 0 0 1 151.17 0)"><stop offset="0" stop-color="#FFF" stop-opacity="0"/><stop offset="1" stop-color="#FFF"/></linearGradient><path class="st46" d="M1876 14L1876 221"/><g class="st47"><linearGradient id="SVGID_41_" gradientUnits="userSpaceOnUse" x1="-1708.045" y1="511.649" x2="-1639.897" y2="443.501" gradientTransform="matrix(-1 0 0 1 151.17 0)"><stop offset="0" stop-color="#FFF" stop-opacity=".2"/><stop offset="1" stop-color="#FFF"/></linearGradient><path class="st48" d="M1873.5,481.7c0-35.9-47.9-74.1-47.9-74.1s-47.9,39.4-47.9,74.1c0,26.5,21.5,47.9,47.9,47.9 C1852,529.7,1873.5,508.2,1873.5,481.7z"/><path class="st2" d="M1879.4,482.2c0-40.3-53.8-83.2-53.8-83.2s-53.8,44.3-53.8,83.2c0,29.7,24.1,53.8,53.8,53.8 S1879.4,511.9,1879.4,482.2z"/></g><linearGradient id="SVGID_42_" gradientUnits="userSpaceOnUse" x1="-1674.829" y1="23" x2="-1674.829" y2="394" gradientTransform="matrix(-1 0 0 1 151.17 0)"><stop offset="0" stop-color="#FFF" stop-opacity="0"/><stop offset="1" stop-color="#FFF"/></linearGradient><path class="st49" d="M1826 24L1826 393"/><g class="st13"><linearGradient id="SVGID_43_" gradientUnits="userSpaceOnUse" x1="-1640.443" y1="296.292" x2="-1630.202" y2="286.052" gradientTransform="matrix(-1 0 0 1 151.17 0)"><stop offset="0" stop-color="#FFF" stop-opacity=".2"/><stop offset="1" stop-color="#FFF"/></linearGradient><path class="st50" d="M1793.8,291.8c0-5.4-7.2-11.1-7.2-11.1s-7.2,5.9-7.2,11.1c0,4,3.2,7.2,7.2,7.2S1793.8,295.8,1793.8,291.8z"/><path class="st2" d="M1796.7,291.8c0-7.6-10.2-15.7-10.2-15.7s-10.2,8.4-10.2,15.7c0,5.6,4.6,10.2,10.2,10.2 C1792.2,302,1796.7,297.4,1796.7,291.8z"/></g><linearGradient id="SVGID_44_" gradientUnits="userSpaceOnUse" x1="-1634.829" y1="7" x2="-1634.829" y2="269" gradientTransform="matrix(-1 0 0 1 151.17 0)"><stop offset="0" stop-color="#FFF" stop-opacity="0"/><stop offset="1" stop-color="#FFF"/></linearGradient><path class="st51" d="M1786 8L1786 268"/><g class="st52"><linearGradient id="SVGID_45_" gradientUnits="userSpaceOnUse" x1="-1822.443" y1="242.292" x2="-1812.202" y2="232.052" gradientTransform="matrix(-1 0 0 1 151.17 0)"><stop offset="0" stop-color="#FFF" stop-opacity=".2"/><stop offset="1" stop-color="#FFF"/></linearGradient><path class="st53" d="M1975.8,237.8c0-5.4-7.2-11.1-7.2-11.1s-7.2,5.9-7.2,11.1c0,4,3.2,7.2,7.2,7.2S1975.8,241.8,1975.8,237.8z"/><path class="st2" d="M1978.7,237.8c0-7.6-10.2-15.7-10.2-15.7s-10.2,8.4-10.2,15.7c0,5.6,4.6,10.2,10.2,10.2 C1974.2,248,1978.7,243.4,1978.7,237.8z"/></g><linearGradient id="SVGID_46_" gradientUnits="userSpaceOnUse" x1="-1816.829" y1="5" x2="-1816.829" y2="215" gradientTransform="matrix(-1 0 0 1 151.17 0)"><stop offset="0" stop-color="#FFF" stop-opacity="0"/><stop offset="1" stop-color="#FFF"/></linearGradient><path class="st54" d="M1968 6L1968 214"/><g class="st55"><linearGradient id="SVGID_47_" gradientUnits="userSpaceOnUse" x1="1729.309" y1="357.544" x2="1763.321" y2="380.437"><stop offset="0" stop-color="#FFF"/><stop offset="1" stop-color="#FFF" stop-opacity=".2"/></linearGradient><path class="st56" d="M1723.4,371.5c0-15.9,21.2-32.8,21.2-32.8s21.2,17.5,21.2,32.8c0,11.7-9.5,21.2-21.2,21.2 C1732.9,392.7,1723.4,383.2,1723.4,371.5z"/><path class="st2" d="M1718.6,372c0-19.5,26-40.2,26-40.2s26,21.4,26,40.2c0,14.4-11.6,26-26,26 C1730.2,398,1718.6,386.4,1718.6,372z"/></g><linearGradient id="SVGID_48_" gradientUnits="userSpaceOnUse" x1="1744" y1="13" x2="1744" y2="327"><stop offset="0" stop-color="#FFF" stop-opacity="0"/><stop offset="1" stop-color="#FFF"/></linearGradient><path class="st57" d="M1744 14L1744 326"/><g class="st39"><linearGradient id="SVGID_49_" gradientUnits="userSpaceOnUse" x1="-1584.122" y1="287.165" x2="-1530.764" y2="317.972" gradientTransform="translate(1901.064)"><stop offset="0" stop-color="#FFF"/><stop offset="1" stop-color="#FFF" stop-opacity=".2"/></linearGradient><path class="st58" d="M308.6,307.1c0-24,32.1-49.6,32.1-49.6s32.1,26.4,32.1,49.6c0,17.7-14.4,32.1-32.1,32.1 C323,339.2,308.6,324.9,308.6,307.1z"/><path class="st2" d="M303.6,307.3c0-27.8,37.1-57.3,37.1-57.3s37.1,30.5,37.1,57.3c0,20.5-16.6,37.1-37.1,37.1 S303.6,327.7,303.6,307.3z"/></g><g class="st41"><linearGradient id="SVGID_50_" gradientUnits="userSpaceOnUse" x1="-1778.445" y1="252.299" x2="-1751.336" y2="267.951" gradientTransform="translate(1901.064)"><stop offset="0" stop-color="#FFF"/><stop offset="1" stop-color="#FFF" stop-opacity=".2"/></linearGradient><path class="st59" d="M118.4,262.5c0-12.2,16.3-25.2,16.3-25.2s16.3,13.4,16.3,25.2c0,9-7.3,16.3-16.3,16.3 S118.4,271.5,118.4,262.5z"/><path class="st2" d="M114.1,262.4c0-15.4,20.6-31.8,20.6-31.8s20.6,16.9,20.6,31.8c0,11.4-9.2,20.6-20.6,20.6 S114.1,273.8,114.1,262.4z"/></g><linearGradient id="SVGID_51_" gradientUnits="userSpaceOnUse" x1="-1561.064" y1="25" x2="-1561.064" y2="246" gradientTransform="translate(1901.064)"><stop offset="0" stop-color="#FFF" stop-opacity="0"/><stop offset="1" stop-color="#FFF"/></linearGradient><path class="st60" d="M340 26L340 245"/><g class="st13"><linearGradient id="SVGID_52_" gradientUnits="userSpaceOnUse" x1="-1835.122" y1="349.165" x2="-1781.764" y2="379.972" gradientTransform="translate(1901.064)"><stop offset="0" stop-color="#FFF"/><stop offset="1" stop-color="#FFF" stop-opacity=".2"/></linearGradient><path class="st61" d="M57.6,369.1c0-24,32.1-49.6,32.1-49.6s32.1,26.4,32.1,49.6c0,17.7-14.4,32.1-32.1,32.1 S57.6,386.9,57.6,369.1z"/><path class="st2" d="M52.6,369.3c0-27.8,37.1-57.3,37.1-57.3s37.1,30.5,37.1,57.3c0,20.5-16.6,37.1-37.1,37.1 S52.6,389.7,52.6,369.3z"/></g><linearGradient id="SVGID_53_" gradientUnits="userSpaceOnUse" x1="-1812.064" y1="24" x2="-1812.064" y2="308" gradientTransform="translate(1901.064)"><stop offset="0" stop-color="#FFF" stop-opacity="0"/><stop offset="1" stop-color="#FFF"/></linearGradient><path class="st62" d="M89 25L89 307"/><linearGradient id="SVGID_54_" gradientUnits="userSpaceOnUse" x1="-1766.064" y1="6" x2="-1766.064" y2="226" gradientTransform="translate(1901.064)"><stop offset="0" stop-color="#FFF" stop-opacity="0"/><stop offset="1" stop-color="#FFF"/></linearGradient><path class="st63" d="M135 7L135 225"/><g class="st47"><linearGradient id="SVGID_55_" gradientUnits="userSpaceOnUse" x1="-1753.838" y1="451.909" x2="-1674.144" y2="497.92" gradientTransform="translate(1901.064)"><stop offset="0" stop-color="#FFF"/><stop offset="1" stop-color="#FFF" stop-opacity=".2"/></linearGradient><path class="st64" d="M134.8,481.7c0-35.9,47.9-74.1,47.9-74.1s47.9,39.4,47.9,74.1c0,26.5-21.5,47.9-47.9,47.9 S134.8,508.2,134.8,481.7z"/><path class="st2" d="M128.9,482.2c0-40.3,53.8-83.2,53.8-83.2s53.8,44.3,53.8,83.2c0,29.7-24.1,53.8-53.8,53.8 S128.9,511.9,128.9,482.2z"/></g><linearGradient id="SVGID_56_" gradientUnits="userSpaceOnUse" x1="-1719.064" y1="23" x2="-1719.064" y2="394" gradientTransform="translate(1901.064)"><stop offset="0" stop-color="#FFF" stop-opacity="0"/><stop offset="1" stop-color="#FFF"/></linearGradient><path class="st65" d="M182 24L182 393"/><g class="st13"><linearGradient id="SVGID_57_" gradientUnits="userSpaceOnUse" x1="-1680.713" y1="276.315" x2="-1668.737" y2="283.229" gradientTransform="translate(1901.064)"><stop offset="0" stop-color="#FFF"/><stop offset="1" stop-color="#FFF" stop-opacity=".2"/></linearGradient><path class="st66" d="M218.5,280.8c0-5.4,7.2-11.1,7.2-11.1s7.2,5.9,7.2,11.1c0,4-3.2,7.2-7.2,7.2S218.5,284.8,218.5,280.8z"/><path class="st2" d="M215.5,280.8c0-7.6,10.2-15.7,10.2-15.7s10.2,8.4,10.2,15.7c0,5.6-4.6,10.2-10.2,10.2 S215.5,286.4,215.5,280.8z"/></g><linearGradient id="SVGID_58_" gradientUnits="userSpaceOnUse" x1="-1675.064" y1="-4" x2="-1675.064" y2="258" gradientTransform="translate(1901.064)"><stop offset="0" stop-color="#FFF" stop-opacity="0"/><stop offset="1" stop-color="#FFF"/></linearGradient><path class="st67" d="M226 -3L226 257"/><g class="st52"><linearGradient id="SVGID_59_" gradientUnits="userSpaceOnUse" x1="-1862.713" y1="235.315" x2="-1850.737" y2="242.229" gradientTransform="translate(1901.064)"><stop offset="0" stop-color="#FFF"/><stop offset="1" stop-color="#FFF" stop-opacity=".2"/></linearGradient><path class="st68" d="M36.5,239.8c0-5.4,7.2-11.1,7.2-11.1s7.2,5.9,7.2,11.1c0,4-3.2,7.2-7.2,7.2S36.5,243.8,36.5,239.8z"/><path class="st2" d="M33.5,239.8c0-7.6,10.2-15.7,10.2-15.7s10.2,8.4,10.2,15.7c0,5.6-4.6,10.2-10.2,10.2S33.5,245.4,33.5,239.8z"/></g><linearGradient id="SVGID_60_" gradientUnits="userSpaceOnUse" x1="-1857.064" y1="11" x2="-1857.064" y2="219" gradientTransform="translate(1901.064)"><stop offset="0" stop-color="#FFF" stop-opacity="0"/><stop offset="1" stop-color="#FFF"/></linearGradient><path class="st69" d="M44 12L44 218"/><g class="st55"><linearGradient id="SVGID_61_" gradientUnits="userSpaceOnUse" x1="1798.205" y1="381.309" x2="1763.031" y2="401.616" gradientTransform="matrix(-1 0 0 1 2052.235 0)"><stop offset="0" stop-color="#FFF"/><stop offset="1" stop-color="#FFF" stop-opacity=".2"/></linearGradient><path class="st70" d="M290.8,394.5c0-15.9-21.2-32.8-21.2-32.8s-21.2,17.5-21.2,32.8c0,11.7,9.5,21.2,21.2,21.2 S290.8,406.2,290.8,394.5z"/><path class="st2" d="M295.6,395c0-19.5-26-40.2-26-40.2s-26,21.4-26,40.2c0,14.4,11.6,26,26,26C284,421,295.6,409.4,295.6,395z"/></g><linearGradient id="SVGID_62_" gradientUnits="userSpaceOnUse" x1="1782.235" y1="32" x2="1782.235" y2="350" gradientTransform="matrix(-1 0 0 1 2052.235 0)"><stop offset="0" stop-color="#FFF" stop-opacity="0"/><stop offset="1" stop-color="#FFF"/></linearGradient><path class="st71" d="M270 33L270 349"/><g class="st5"><linearGradient id="SVGID_63_" gradientUnits="userSpaceOnUse" x1="1157.309" y1="487.544" x2="1191.321" y2="510.437"><stop offset="0" stop-color="#FFF"/><stop offset="1" stop-color="#FFF" stop-opacity=".2"/></linearGradient><path class="st72" d="M1151.4,501.5c0-15.9,21.2-32.8,21.2-32.8s21.2,17.5,21.2,32.8c0,11.7-9.5,21.2-21.2,21.2 C1160.9,522.7,1151.4,513.2,1151.4,501.5z"/><path class="st2" d="M1146.6,502c0-19.5,26-40.2,26-40.2s26,21.4,26,40.2c0,14.4-11.6,26-26,26 C1158.2,528,1146.6,516.4,1146.6,502z"/></g><linearGradient id="SVGID_64_" gradientUnits="userSpaceOnUse" x1="1172" y1="361" x2="1172" y2="457"><stop offset="0" stop-color="#FFF" stop-opacity="0"/><stop offset="1" stop-color="#FFF"/></linearGradient><path class="st73" d="M1172 362L1172 456"/><g class="st5"><linearGradient id="SVGID_65_" gradientUnits="userSpaceOnUse" x1="829.553" y1="501.259" x2="871.91" y2="529.769"><stop offset="0" stop-color="#FFF"/><stop offset="1" stop-color="#FFF" stop-opacity=".2"/></linearGradient><path class="st74" d="M822.2,518.6c0-19.8,26.4-40.8,26.4-40.8s26.4,21.7,26.4,40.8c0,14.6-11.8,26.4-26.4,26.4 C834,545,822.2,533.2,822.2,518.6z"/><path class="st2" d="M817.5,518.8c0-23.3,31.2-48.2,31.2-48.2s31.2,25.7,31.2,48.2c0,17.2-14,31.2-31.2,31.2 C831.4,550,817.5,536,817.5,518.8z"/></g><linearGradient id="SVGID_66_" gradientUnits="userSpaceOnUse" x1="848" y1="374" x2="848" y2="463"><stop offset="0" stop-color="#FFF" stop-opacity="0"/><stop offset="1" stop-color="#FFF"/></linearGradient><path class="st75" d="M848 375L848 462"/><g class="st10"><linearGradient id="SVGID_67_" gradientUnits="userSpaceOnUse" x1="963.033" y1="496.315" x2="1039.876" y2="548.036"><stop offset="0" stop-color="#FFF"/><stop offset="1" stop-color="#FFF" stop-opacity=".2"/></linearGradient><path class="st76" d="M949.7,527.7c0-35.9,47.9-74.1,47.9-74.1s47.9,39.4,47.9,74.1c0,26.5-21.5,47.9-47.9,47.9 C971.2,575.7,949.7,554.2,949.7,527.7z"/><path class="st2" d="M943.8,528.2c0-40.3,53.8-83.2,53.8-83.2s53.8,44.3,53.8,83.2c0,29.7-24.1,53.8-53.8,53.8 C967.9,582,943.8,557.9,943.8,528.2z"/></g><linearGradient id="SVGID_68_" gradientUnits="userSpaceOnUse" x1="997" y1="363" x2="997" y2="440"><stop offset="0" stop-color="#FFF" stop-opacity="0"/><stop offset="1" stop-color="#FFF"/></linearGradient><path class="st77" d="M997 364L997 439"/><g class="st47"><linearGradient id="SVGID_69_" gradientUnits="userSpaceOnUse" x1="1095.99" y1="467.101" x2="1112.933" y2="478.506"><stop offset="0" stop-color="#FFF"/><stop offset="1" stop-color="#FFF" stop-opacity=".2"/></linearGradient><path class="st78" d="M1093,474c0-7.9,10.6-16.3,10.6-16.3s10.6,8.7,10.6,16.3c0,5.8-4.7,10.6-10.6,10.6 C1097.8,484.6,1093,479.9,1093,474z"/><path class="st2" d="M1088.7,474.1c0-11.2,14.9-23.1,14.9-23.1s14.9,12.3,14.9,23.1c0,8.2-6.7,14.9-14.9,14.9 S1088.7,482.3,1088.7,474.1z"/></g><linearGradient id="SVGID_70_" gradientUnits="userSpaceOnUse" x1="1104" y1="393" x2="1104" y2="446"><stop offset="0" stop-color="#FFF" stop-opacity="0"/><stop offset="1" stop-color="#FFF"/></linearGradient><path class="st79" d="M1104 394L1104 445"/><g class="st47"><linearGradient id="SVGID_71_" gradientUnits="userSpaceOnUse" x1="922.99" y1="439.101" x2="939.933" y2="450.506"><stop offset="0" stop-color="#FFF"/><stop offset="1" stop-color="#FFF" stop-opacity=".2"/></linearGradient><path class="st80" d="M920,446c0-7.9,10.6-16.3,10.6-16.3s10.6,8.7,10.6,16.3c0,5.8-4.7,10.6-10.6,10.6 C924.8,456.6,920,451.9,920,446z"/><path class="st2" d="M915.7,446.1c0-11.2,14.9-23.1,14.9-23.1s14.9,12.3,14.9,23.1c0,8.2-6.7,14.9-14.9,14.9 S915.7,454.3,915.7,446.1z"/></g><linearGradient id="SVGID_72_" gradientUnits="userSpaceOnUse" x1="931" y1="381" x2="931" y2="418"><stop offset="0" stop-color="#FFF" stop-opacity="0"/><stop offset="1" stop-color="#FFF"/></linearGradient><path class="st81" d="M931 382L931 417"/></svg>