<svg id="Layer_1" xmlns="http://www.w3.org/2000/svg" viewBox="0 0 47.1 47"><style>.st0{fill:none;stroke:#000000;stroke-width:2;stroke-linecap:round;stroke-linejoin:round;stroke-miterlimit:10;} .st1{fill:#00D688;} .st2{fill:#0072FF;}</style><path class="st0" d="M4.6 1h37.8c2.1 0 3.7 1.7 3.7 3.6v37.8c0 2.1-1.7 3.6-3.6 3.6H4.6c-1.9.1-3.6-1.6-3.6-3.5V4.6C1 2.7 2.7 1 4.6 1z"/><path class="st1" d="M13.8 9.3v4.9H8.9V9.3h4.9m2.3-2.4H6.5v9.5H16l.1-9.5zM25.9 9.3v4.9H21V9.3h4.9m2.3-2.4h-9.5v9.5h9.5V6.9z"/><path class="st2" d="M38 9.3v4.9h-4.9V9.3H38m2.3-2.4h-9.5v9.5h9.5V6.9z"/><path class="st1" d="M38 21.4v4.9h-4.9v-4.9H38m2.3-2.4h-9.5v9.5h9.5V19z"/><path class="st2" d="M13.8 21.4v4.9H8.9v-4.9h4.9m2.3-2.4H6.5v9.5H16l.1-9.5z"/><path class="st1" d="M13.8 33.4v4.9H8.9v-4.9h4.9m2.3-2.4H6.5v9.5H16l.1-9.5z"/><path class="st2" d="M25.9 33.4v4.9H21v-4.9h4.9m2.3-2.4h-9.5v9.5h9.5V31z"/><path class="st1" d="M38 33.4v4.9h-4.9v-4.9H38m2.3-2.4h-9.5v9.5h9.5V31z"/></svg>