<svg id="Layer_1" xmlns="http://www.w3.org/2000/svg" viewBox="0 0 40.6 47.2"><style>.st0{fill:none;stroke:#000000;stroke-width:2.5;stroke-linecap:round;stroke-linejoin:round;} .st1{fill:none;stroke:#000000;stroke-width:2.5;stroke-linecap:round;stroke-linejoin:round;stroke-dasharray:0,4.1119;} .st2{fill:none;stroke:#00D688;stroke-width:2;stroke-linecap:round;stroke-linejoin:round;stroke-miterlimit:10;} .st3{fill:#FFFFFF;} .st4{fill:none;stroke:#0069FF;stroke-width:2;stroke-linecap:round;stroke-linejoin:round;stroke-miterlimit:10;}</style><path class="st0" d="M20 1.2L20 1.2"/><path class="st1" d="M17.2,4.7c-5,5.9-14.4,18-14.4,23.8c0,9.6,7.8,17.4,17.4,17.4c9.5,0,17.4-7.8,17.4-17.4 c0-7-9.3-18.3-14.2-23.7L21.7,3"/><path class="st2" d="M14.6,28.1c0-2.9,5.4-8.4,5.4-8.4s5.4,5.5,5.4,8.4S23,33.5,20,33.5S14.6,31,14.6,28.1z"/><path class="st3" d="M30.9 35.1L35.8 38.8 32 42.8 28.3 38.9zM5.6 39.8L9.1 36.6 12.9 39.2 7.4 42.8z"/><path class="st4" d="M11.4 36.1L1.4 45.9M1.4 40.9L1 45.9 6.3 46.2M29.3 36.1L39.1 45.9"/><path class="st3" d="M32.1 9.2L35.7 13 31.3 17.7 27 14.6zM4.1 13.7L8.1 9.1 13.1 14 9.1 17.5z"/><path class="st4" d="M39.1 40.9L39.6 45.9 34.4 46.2M28.3 16.4L38.2 6.6M38.2 11.4L38.7 6.5 33.4 6.2M12.3 16.4L2.5 6.6M2.5 11.4L2.1 6.5 7.3 6.2"/></svg>