<svg id="Layer_1" xmlns="http://www.w3.org/2000/svg" viewBox="0 0 204.1 157.8"><style>.st0{fill:url(#SVGID_1_);} .st1{fill:#FFFFFF;} .st2{opacity:0.52;fill:url(#SVGID_2_);enable-background:new ;} .st3{opacity:0.52;fill:url(#SVGID_3_);enable-background:new ;} .st4{opacity:0.52;fill:url(#SVGID_4_);enable-background:new ;} .st5{opacity:0.52;fill:url(#SVGID_5_);enable-background:new ;} .st6{opacity:0.25;fill:none;stroke:#00D688;stroke-miterlimit:10;enable-background:new ;} .st7{opacity:0.6;fill:none;stroke:#00D688;stroke-miterlimit:10;enable-background:new ;} .st8{fill:#00D688;} .st9{fill:none;stroke:#0069FF;stroke-width:2.5;stroke-linecap:round;stroke-miterlimit:10;} .st10{fill:none;stroke:url(#SVGID_6_);stroke-width:2;stroke-linecap:round;stroke-linejoin:round;stroke-miterlimit:10;stroke-dasharray:0,4;} .st11{fill:none;stroke:url(#SVGID_7_);stroke-width:2;stroke-linecap:round;stroke-linejoin:round;stroke-miterlimit:10;stroke-dasharray:0,4;} .st12{fill:none;stroke:url(#SVGID_8_);stroke-width:2;stroke-linecap:round;stroke-linejoin:round;stroke-miterlimit:10;stroke-dasharray:0,4;}</style><linearGradient id="SVGID_1_" gradientUnits="userSpaceOnUse" x1="8.6" y1="645.162" x2="198.2" y2="645.162" gradientTransform="translate(0 -519.912)"><stop offset="0" stop-color="#0069FF"/><stop offset="1" stop-color="#0069FF" stop-opacity="0"/></linearGradient><path class="st0" d="M142.1 92.7l39.6 17.3 16.5 47.8-46-17.3-49.2 17.3-49.4-17.3-45 17.3L25.1 110l38.8-17.3 39.6 17.3z"/><path class="st1" d="M142.8 78.4l41.8 18.4 17.5 50.3-48.5-18.3-51.9 18.3-52.1-18.3-47.5 18.3 17.4-50.3 40.8-18.4 41.8 18.4z"/><linearGradient id="SVGID_2_" gradientUnits="userSpaceOnUse" x1="121.35" y1="631.904" x2="189.002" y2="628.047" gradientTransform="translate(0 -519.912)"><stop offset="0" stop-color="#0069FF"/><stop offset=".063" stop-color="#0069FF"/><stop offset=".21" stop-color="#5794FF"/><stop offset=".357" stop-color="#8BB5FF"/><stop offset=".499" stop-color="#B4D0FF"/><stop offset=".637" stop-color="#D5E4FF"/><stop offset=".769" stop-color="#ECF3FF"/><stop offset=".893" stop-color="#FAFCFF"/><stop offset="1" stop-color="#FFF"/></linearGradient><path class="st2" d="M184.6 96.8l-41.8-18.4 9.4 43.7 47.4 17.8z"/><linearGradient id="SVGID_3_" gradientUnits="userSpaceOnUse" x1="76.511" y1="630.889" x2="145.215" y2="628.52" gradientTransform="translate(0 -519.912)"><stop offset="0" stop-color="#0069FF"/><stop offset=".063" stop-color="#0069FF"/><stop offset=".21" stop-color="#5794FF"/><stop offset=".357" stop-color="#8BB5FF"/><stop offset=".499" stop-color="#B4D0FF"/><stop offset=".637" stop-color="#D5E4FF"/><stop offset=".769" stop-color="#ECF3FF"/><stop offset=".893" stop-color="#FAFCFF"/><stop offset="1" stop-color="#FFF"/></linearGradient><path class="st3" d="M142.8 78.4l-40.7 18.4-.4 43.6 50.5-18.3z"/><linearGradient id="SVGID_4_" gradientUnits="userSpaceOnUse" x1="29.858" y1="613.297" x2="96.703" y2="634.229" gradientTransform="translate(0 -519.912)"><stop offset="0" stop-color="#0069FF"/><stop offset=".063" stop-color="#0069FF"/><stop offset=".21" stop-color="#5794FF"/><stop offset=".357" stop-color="#8BB5FF"/><stop offset=".499" stop-color="#B4D0FF"/><stop offset=".637" stop-color="#D5E4FF"/><stop offset=".769" stop-color="#ECF3FF"/><stop offset=".893" stop-color="#FAFCFF"/><stop offset="1" stop-color="#FFF"/></linearGradient><path class="st4" d="M60.3 78.4l-9.4 43.7 50.8 18.3.4-43.6z"/><linearGradient id="SVGID_5_" gradientUnits="userSpaceOnUse" x1="-3.68" y1="619.125" x2="49.559" y2="632.989" gradientTransform="translate(0 -519.912)"><stop offset="0" stop-color="#0069FF"/><stop offset=".063" stop-color="#0069FF"/><stop offset=".21" stop-color="#5794FF"/><stop offset=".357" stop-color="#8BB5FF"/><stop offset=".499" stop-color="#B4D0FF"/><stop offset=".637" stop-color="#D5E4FF"/><stop offset=".769" stop-color="#ECF3FF"/><stop offset=".893" stop-color="#FAFCFF"/><stop offset="1" stop-color="#FFF"/></linearGradient><path class="st5" d="M19.5 96.8L5.2 139l45.7-16.9 9.4-43.7z"/><circle class="st1" cx="69" cy="38.3" r="1.9"/><circle class="st1" cx="69" cy="38.3" r="1.9"/><circle class="st6" cx="69" cy="38.2" r="16.5"/><circle class="st7" cx="68.8" cy="38.2" r="7.5"/><circle class="st8" cx="69" cy="38.3" r="1.9"/><circle class="st1" cx="141.8" cy="18.6" r="2.1"/><circle class="st1" cx="141.8" cy="18.6" r="2.1"/><circle class="st6" cx="141.8" cy="18.5" r="18"/><circle class="st7" cx="141.5" cy="18.5" r="8"/><circle class="st8" cx="141.8" cy="18.6" r="2.1"/><circle class="st6" cx="107.9" cy="61.1" r="22.7"/><circle class="st7" cx="107.9" cy="61.1" r="11.3"/><circle class="st8" cx="107.7" cy="61.3" r="2.5"/><path class="st9" d="M142.8 78.4l41.8 18.4 17.5 50.3-48.5-18.3-51.9 18.3-52.1-18.3-47.5 18.3 17.4-50.3 40.8-18.4 41.8 18.4z"/><linearGradient id="SVGID_6_" gradientUnits="userSpaceOnUse" x1="69.2" y1="635.412" x2="69.2" y2="568.412" gradientTransform="translate(0 -519.912)"><stop offset="0" stop-color="#0069FF"/><stop offset="1" stop-color="#00D688"/></linearGradient><path class="st10" d="M69.2 49.5v65"/><linearGradient id="SVGID_7_" gradientUnits="userSpaceOnUse" x1="1290.141" y1="932.724" x2="1290.141" y2="877.424" gradientTransform="rotate(180 699.17 503.162)"><stop offset="0" stop-color="#00D688"/><stop offset="1" stop-color="#0069FF"/></linearGradient><path class="st11" d="M108.2 127.9V74.6"/><linearGradient id="SVGID_8_" gradientUnits="userSpaceOnUse" x1="141.6" y1="626.012" x2="141.6" y2="549.012" gradientTransform="translate(0 -519.912)"><stop offset="0" stop-color="#0069FF"/><stop offset="1" stop-color="#00D688"/></linearGradient><path class="st12" d="M141.6 30.1v75"/></svg>