<svg id="Layer_1" xmlns="http://www.w3.org/2000/svg" viewBox="0 0 201 104.7"><style>.st0{fill:#FFFFFF;stroke:#0069FF;stroke-width:2;stroke-linecap:round;stroke-miterlimit:10;} .st1{fill:url(#SVGID_1_);} .st2{fill:url(#SVGID_2_);} .st3{fill:url(#SVGID_3_);} .st4{fill:url(#SVGID_4_);} .st5{fill:url(#SVGID_5_);} .st6{fill:url(#SVGID_6_);} .st7{fill:url(#SVGID_7_);} .st8{fill:#FFFFFF;stroke:#0069FF;stroke-width:2.5;stroke-miterlimit:10;} .st9{fill:none;stroke:#00D688;stroke-width:2;stroke-linecap:round;stroke-miterlimit:10;} .st10{fill:none;stroke:#00D688;stroke-width:2;stroke-linecap:round;stroke-miterlimit:10;stroke-dasharray:0,3.9871;} .st11{fill:none;stroke:#00D688;stroke-width:2;stroke-linecap:round;stroke-miterlimit:10;stroke-dasharray:0,3.8597;} .st12{fill:none;stroke:#00D688;stroke-width:2;stroke-linecap:round;stroke-miterlimit:10;stroke-dasharray:0,3.7087;} .st13{fill:none;stroke:#00D688;stroke-width:2;stroke-linecap:round;stroke-miterlimit:10;stroke-dasharray:0,3.8514;} .st14{fill:url(#SVGID_8_);} .st15{fill:url(#SVGID_9_);} .st16{fill:url(#SVGID_10_);} .st17{fill:url(#SVGID_11_);} .st18{fill:url(#SVGID_12_);} .st19{fill:url(#SVGID_13_);}</style><path class="st0" d="M1 36.2H47.9V72.1H1z"/><linearGradient id="SVGID_1_" gradientUnits="userSpaceOnUse" x1=".212" y1="-343.318" x2="22.386" y2="-343.318" gradientTransform="matrix(1 0 0 -1 0 -267.63)"><stop offset="0" stop-color="#0069FF" stop-opacity="0"/><stop offset="1" stop-color="#0069FF" stop-opacity=".3"/></linearGradient><path class="st1" d="M0.2 79.2L22 79.2 22 72.2 0.2 72.2z"/><linearGradient id="SVGID_2_" gradientUnits="userSpaceOnUse" x1="-410.797" y1="-7201.202" x2="-395.429" y2="-7201.202" gradientTransform="translate(419.644 7258.41)"><stop offset="0" stop-color="#0069FF" stop-opacity="0"/><stop offset="1" stop-color="#0069FF" stop-opacity=".3"/></linearGradient><path class="st2" d="M8.9 41.6L23.9 41.6 23.9 72.9 8.9 72.9z"/><linearGradient id="SVGID_3_" gradientUnits="userSpaceOnUse" x1="17.519" y1="-326.232" x2="17.519" y2="-317.534" gradientTransform="matrix(1 0 0 -1 0 -267.63)"><stop offset="0" stop-color="#0069FF"/><stop offset="1" stop-color="#0069FF" stop-opacity=".2"/></linearGradient><path class="st3" d="M13.2 49.9H21.9V58.599999999999994H13.2z"/><path class="st0" d="M153.2 36.2H200.1V72.1H153.2zM22.2 27.2H83.7V78.4H22.2z"/><linearGradient id="SVGID_4_" gradientUnits="userSpaceOnUse" x1="20.78" y1="-350.656" x2="74.742" y2="-350.656" gradientTransform="matrix(1 0 0 -1 0 -267.63)"><stop offset="0" stop-color="#0069FF" stop-opacity="0"/><stop offset="1" stop-color="#0069FF" stop-opacity=".3"/></linearGradient><path class="st4" d="M20.8 87.1L74.1 87.1 74.1 79 20.8 79z"/><linearGradient id="SVGID_5_" gradientUnits="userSpaceOnUse" x1="2947.789" y1="-350.656" x2="3001.191" y2="-350.656" gradientTransform="rotate(180 1563.826 -133.814)"><stop offset="0" stop-color="#0069FF" stop-opacity="0"/><stop offset="1" stop-color="#0069FF" stop-opacity=".3"/></linearGradient><path class="st5" d="M127.1 79H179.8V87.2H127.1z"/><linearGradient id="SVGID_6_" gradientUnits="userSpaceOnUse" x1="2927.303" y1="-343.209" x2="2948.648" y2="-343.209" gradientTransform="rotate(180 1563.826 -133.814)"><stop offset="0" stop-color="#0069FF" stop-opacity="0"/><stop offset="1" stop-color="#0069FF" stop-opacity=".3"/></linearGradient><path class="st6" d="M179.3 72.2H200.3V78.9H179.3z"/><linearGradient id="SVGID_7_" gradientUnits="userSpaceOnUse" x1="2934.861" y1="-324.89" x2="2951.302" y2="-324.89" gradientTransform="rotate(180 1563.826 -133.814)"><stop offset="0" stop-color="#0069FF" stop-opacity="0"/><stop offset="1" stop-color="#0069FF" stop-opacity=".3"/></linearGradient><path class="st7" d="M176.5 41.6H192.7V73H176.5z"/><path class="st0" d="M111.9 27.2H178.9V78.4H111.9z"/><path class="st8" d="M63.3 19.3H140.7V85.89999999999999H63.3z"/><path class="st9" d="M127.3 73.5L127.3 73.5"/><path class="st10" d="M123.8 73.6L79.3 73.6"/><path class="st9" d="M76.2 73.5L76.2 73.5"/><path class="st11" d="M76.2 69.3L76.2 33.5"/><path class="st9" d="M76.2 31.3L76.2 31.3"/><path class="st10" d="M79.7 31.2L124.4 31.2"/><path class="st9" d="M127.3 31.3L127.3 31.3"/><path class="st11" d="M127.3 35.7L127.3 71.4"/><path class="st9" d="M48.7 17.2L48.7 17.2"/><path class="st12" d="M48.7 13.2L48.7 3.1"/><path class="st9" d="M48.7 1L48.7 1"/><path class="st13" d="M53 1L67.6 1"/><path class="st9" d="M69.8 1L69.8 1M133.6 1L133.6 1"/><path class="st13" d="M137.9 1L152.6 1"/><path class="st9" d="M154.7 1L154.7 1"/><path class="st12" d="M154.7 5L154.7 15.2"/><path class="st9" d="M154.7 17.2L154.7 17.2"/><g><path class="st9" d="M154.7 87.4L154.7 87.4"/><path class="st12" d="M154.7 91.5L154.7 101.7"/><path class="st9" d="M154.7 103.7L154.7 103.7"/><path class="st13" d="M150.5 103.7L135.8 103.7"/><path class="st9" d="M133.6 103.7L133.6 103.7"/></g><g><path class="st9" d="M69.8 103.7L69.8 103.7"/><path class="st13" d="M65.6 103.7L50.8 103.7"/><path class="st9" d="M48.7 103.7L48.7 103.7"/><path class="st12" d="M48.7 99.6L48.7 89.5"/><path class="st9" d="M48.7 87.4L48.7 87.4"/></g><linearGradient id="SVGID_8_" gradientUnits="userSpaceOnUse" x1="2963.508" y1="-323.259" x2="2986.686" y2="-323.259" gradientTransform="rotate(180 1563.826 -133.814)"><stop offset="0" stop-color="#0069FF" stop-opacity="0"/><stop offset="1" stop-color="#0069FF" stop-opacity=".3"/></linearGradient><path class="st14" d="M141.2 33.2H164V78.1H141.2z"/><linearGradient id="SVGID_9_" gradientUnits="userSpaceOnUse" x1="-379.52" y1="-7202.724" x2="-356.747" y2="-7202.724" gradientTransform="translate(419.644 7258.41)"><stop offset="0" stop-color="#0069FF" stop-opacity="0"/><stop offset="1" stop-color="#0069FF" stop-opacity=".3"/></linearGradient><path class="st15" d="M40.1 33.2L62.6 33.2 62.6 78.2 40.1 78.2z"/><linearGradient id="SVGID_10_" gradientUnits="userSpaceOnUse" x1="101.599" y1="-332.628" x2="101.599" y2="-309.742" gradientTransform="matrix(1 0 0 -1 0 -267.63)"><stop offset="0" stop-color="#0069FF"/><stop offset="1" stop-color="#0069FF" stop-opacity=".2"/></linearGradient><path class="st16" d="M113.1 45.9L109.2 42.1 101.5 49.7 94 42.1 90.1 45.9 97.7 53.6 90.1 61.2 94 65 101.5 57.4 109.2 65 113.1 61.2 105.3 53.6z"/><linearGradient id="SVGID_11_" gradientUnits="userSpaceOnUse" x1="152.693" y1="-328.75" x2="152.693" y2="-312.243" gradientTransform="matrix(1 0 0 -1 0 -267.63)"><stop offset="0" stop-color="#0069FF"/><stop offset="1" stop-color="#0069FF" stop-opacity=".2"/></linearGradient><circle class="st17" cx="152.7" cy="52.9" r="8.3"/><linearGradient id="SVGID_12_" gradientUnits="userSpaceOnUse" x1="51.267" y1="-326.333" x2="51.267" y2="-309.59" gradientTransform="matrix(1 0 0 -1 0 -267.63)"><stop offset="0" stop-color="#0069FF"/><stop offset="1" stop-color="#0069FF" stop-opacity=".2"/></linearGradient><path class="st18" d="M41.6 58.7L51.2 42 60.9 58.7z"/><linearGradient id="SVGID_13_" gradientUnits="userSpaceOnUse" x1="183.285" y1="-326.729" x2="183.285" y2="-315.8" gradientTransform="matrix(1 0 0 -1 0 -267.63)"><stop offset="0" stop-color="#0069FF"/><stop offset="1" stop-color="#0069FF" stop-opacity=".2"/></linearGradient><path class="st19" d="M187.6 52.5L184.4 52.5 184.4 48.2 182.2 48.2 182.2 52.5 178.9 52.5 178.9 54.8 182.2 54.8 182.2 59.2 184.4 59.2 184.4 54.8 187.6 54.8z"/></svg>