<svg id="Layer_1" xmlns="http://www.w3.org/2000/svg" viewBox="0 0 36.3 47"><style>.st0{fill:none;stroke:#000000;stroke-width:2;stroke-linecap:round;stroke-linejoin:round;stroke-miterlimit:10;} .st1{fill:#FFFFFF;stroke:#0072FF;stroke-width:2;stroke-linejoin:round;stroke-miterlimit:10;} .st2{fill:none;stroke:#000000;stroke-width:2;stroke-linejoin:round;stroke-miterlimit:10;} .st3{fill:none;stroke:#00D688;stroke-width:2.5;stroke-linecap:round;stroke-linejoin:round;stroke-miterlimit:10;stroke-dasharray:0,4;}</style><path class="st0" d="M7.3 6.3C3.4 5.8 1 4.9 1 3.9M35.2 3.9c0 .9-2.3 1.7-6.3 2.3M25.5 40.3c5.6.3 9.7 1.5 9.7 2.7M1 43.1c0-1.2 3.9-2.3 9.4-2.7"/><path class="st1" d="M21.5 1.1c3.3 3.9 8.1 10.1 8.1 14.1 0 6.3-5.1 11.4-11.4 11.4S6.8 21.5 6.8 15.2c0-4 4.6-10.1 8-14M10.1 45.6c4.3-5.5 8.1-9.2 8.1-9.2s3.9 3.9 8.2 9.2"/><path class="st2" d="M1 3.9C1 2.3 8.7 1 18.2 1s17.2 1.3 17.2 2.9M35.2 43.1c0 1.6-7.7 2.9-17.2 2.9S1 44.7 1 43.1"/><path class="st3" d="M32.8 26.3l.2 9.4M3.3 26.3l.2 9.4"/></svg>