<svg id="Layer_1" xmlns="http://www.w3.org/2000/svg" viewBox="0 0 26.9 51.3"><style>.st0{fill:none;stroke:#000000;stroke-width:2;stroke-linecap:round;stroke-linejoin:round;stroke-miterlimit:10;} .st1{fill:none;stroke:#0072FF;stroke-width:2;stroke-linecap:round;stroke-linejoin:round;stroke-miterlimit:10;} .st2{fill:none;stroke:#00D688;stroke-width:2;stroke-linecap:round;stroke-linejoin:round;stroke-miterlimit:10;} .st3{fill:#0072FF;}</style><path class="st0" d="M13.9 18.2l6.2-5.8c2-2 3.4-4.8 3.4-7.8V1"/><path class="st1" d="M15.5 21.1l6.1 6.1c2.8 2.8 4.3 6.6 4.3 10.6 0 6.9-5.5 12.5-12.5 12.5M2 1.1v3.7c0 2.8 1.9 5.5 4 7.5l3.7 4"/><path class="st2" d="M7.4 8.9l11.8-.1M6.1 3.6h14.2M7.4 29.5l11.8.2M3.3 36.6l20 .1M5.3 43l15.9.1"/><circle class="st3" cx="10" cy="3.4" r="1.6"/><circle class="st3" cx="15.6" cy="8.8" r="1.6"/><circle class="st3" cx="13.6" cy="29.4" r="1.6"/><circle class="st3" cx="8.1" cy="36.6" r="1.6"/><path class="st0" d="M13.6 50.3C6.6 50.4 1 44.8 1 37.7v-.1c0-4 1.4-7.7 4.3-10.6l8.5-8.6"/><circle class="st3" cx="16.5" cy="42.8" r="1.6"/></svg>